<svg id="Componente_1_1" data-name="Componente 1 – 1" xmlns="http://www.w3.org/2000/svg" width="17.032" height="8.124" viewBox="0 0 17.032 8.124">
  <path id="_232079_blind_eye_lash_lid_sleep_icon" data-name="232079_blind_eye_lash_lid_sleep_icon" d="M64.1,95.655l-1.76-1.536a5.681,5.681,0,0,0,.955-1.412.752.752,0,0,0-1.381-.6c-.059.132-1.491,3.232-6.466,3.232s-6.439-3.094-6.5-3.237a.752.752,0,0,0-1.376.606A6.415,6.415,0,0,0,49.3,94.851l-1.709,1.491a.752.752,0,1,0,.989,1.133l1.932-1.686a.764.764,0,0,0,.069-.07,8.986,8.986,0,0,0,2.441.886L52.5,98.863a.752.752,0,1,0,1.466.336l.547-2.386c.3.022.613.034.939.034a12.038,12.038,0,0,0,1.938-.151l1.027,2.27a.752.752,0,0,0,1.37-.62l-.909-2.009a8.22,8.22,0,0,0,2.347-1.2l1.89,1.649a.752.752,0,0,0,.989-1.133Z" transform="translate(-47.329 -91.66)" fill="#fff"/>
</svg>
