<svg xmlns="http://www.w3.org/2000/svg" width="29.137" height="29.137" viewBox="0 0 29.137 29.137">
  <path id="_1159615_accept_checkmark_circle_yes_check_icon" data-name="1159615_accept_checkmark_circle_yes_check_icon" d="M15.568,1A14.568,14.568,0,1,0,30.137,15.568,14.569,14.569,0,0,0,15.568,1Zm9.143,11.086L15,21.8a1.941,1.941,0,0,1-2.747,0L7.4,16.942a1.906,1.906,0,0,1-.569-1.373A1.953,1.953,0,0,1,8.77,13.626a1.933,1.933,0,0,1,1.373.569l3.483,3.483,8.339-8.339a1.933,1.933,0,0,1,1.373-.569,1.953,1.953,0,0,1,1.942,1.942A1.906,1.906,0,0,1,24.711,12.086Z" transform="translate(-1 -1)" fill="#ffce00"/>
</svg>
