<svg xmlns="http://www.w3.org/2000/svg" width="278.809" height="272.495" viewBox="0 0 278.809 272.495">
  <g id="Grupo_1656" data-name="Grupo 1656" transform="translate(-74.596 -121.504)">
    <ellipse id="Elipse_92" data-name="Elipse 92" cx="120.598" cy="120.598" rx="120.598" ry="120.598" transform="translate(92.077 136.356)" fill="#fff" opacity="0.306"/>
    <g id="Grupo_1091" data-name="Grupo 1091" transform="translate(74.596 121.504)">
      <g id="Grupo_498" data-name="Grupo 498" transform="translate(37.583 263.243)">
        <path id="Caminho_1245" data-name="Caminho 1245" d="M974.447,3351.969c.042.441-.826.913-2.158,1.253a1.6,1.6,0,0,0-1.2,1.454c-.083,1.372-.382,2.314-.824,2.356s-.913-.826-1.254-2.158a1.6,1.6,0,0,0-1.454-1.2c-1.373-.083-2.317-.382-2.359-.823s.828-.916,2.16-1.256a1.6,1.6,0,0,0,1.2-1.454c.083-1.374.382-2.315.823-2.357s.913.826,1.254,2.16a1.6,1.6,0,0,0,1.456,1.2C973.463,3351.226,974.4,3351.525,974.447,3351.969Z" transform="translate(-965.195 -3347.781)" fill="#fff"/>
      </g>
      <g id="Grupo_499" data-name="Grupo 499" transform="translate(232.577 203.428)">
        <path id="Caminho_1246" data-name="Caminho 1246" d="M3159.95,2683.795c0,.548-1.124,1.025-2.8,1.289a1.98,1.98,0,0,0-1.646,1.647c-.263,1.677-.741,2.8-1.288,2.8s-1.025-1.123-1.289-2.8a1.98,1.98,0,0,0-1.646-1.647c-1.679-.263-2.8-.741-2.8-1.289s1.125-1.029,2.8-1.291a1.978,1.978,0,0,0,1.649-1.646c.263-1.679.741-2.8,1.289-2.8s1.025,1.123,1.288,2.8a1.978,1.978,0,0,0,1.649,1.646C3158.828,2682.766,3159.95,2683.245,3159.95,2683.795Z" transform="translate(-3148.475 -2678.056)" fill="#fff"/>
      </g>
      <g id="Grupo_500" data-name="Grupo 500" transform="translate(197.152 0)">
        <path id="Caminho_1247" data-name="Caminho 1247" d="M2764.557,406.7c0,.607-1.245,1.137-3.1,1.429a2.195,2.195,0,0,0-1.826,1.826c-.292,1.86-.821,3.1-1.429,3.1s-1.137-1.245-1.429-3.1a2.195,2.195,0,0,0-1.826-1.826c-1.861-.292-3.109-.821-3.109-1.429s1.247-1.141,3.107-1.431a2.2,2.2,0,0,0,1.828-1.826c.292-1.862.821-3.106,1.428-3.106s1.137,1.245,1.429,3.107a2.195,2.195,0,0,0,1.828,1.826C2763.314,405.557,2764.557,406.087,2764.557,406.7Z" transform="translate(-2751.835 -400.334)" fill="#fff"/>
      </g>
      <g id="Grupo_501" data-name="Grupo 501" transform="translate(261.122 36.517)">
        <ellipse id="Elipse_54" data-name="Elipse 54" cx="1.637" cy="1.637" rx="1.637" ry="1.637" transform="translate(0 0)" fill="#fff"/>
      </g>
      <g id="Grupo_502" data-name="Grupo 502" transform="translate(273.318 208.66)">
        <circle id="Elipse_55" data-name="Elipse 55" cx="1.941" cy="1.941" r="1.941" transform="translate(0 2.745) rotate(-45)" fill="#fff"/>
      </g>
      <g id="Grupo_503" data-name="Grupo 503" transform="translate(202.302 258.641)">
        <ellipse id="Elipse_56" data-name="Elipse 56" cx="1.941" cy="1.941" rx="1.941" ry="1.941" transform="translate(0)" fill="#fff"/>
      </g>
      <g id="Grupo_504" data-name="Grupo 504" transform="translate(33.503 52.5)">
        <circle id="Elipse_57" data-name="Elipse 57" cx="1.941" cy="1.941" r="1.941" transform="translate(0 2.745) rotate(-45)" fill="#fff"/>
      </g>
      <g id="Grupo_505" data-name="Grupo 505" transform="translate(226.886 29.712)">
        <ellipse id="Elipse_58" data-name="Elipse 58" cx="1.637" cy="1.637" rx="1.637" ry="1.637" transform="translate(0 3.187) rotate(-76.717)" fill="#fff"/>
      </g>
      <g id="Grupo_506" data-name="Grupo 506" transform="translate(28.298 11.462)">
        <ellipse id="Elipse_59" data-name="Elipse 59" cx="1.941" cy="1.941" rx="1.941" ry="1.941" transform="matrix(0.924, -0.383, 0.383, 0.924, 0, 1.486)" fill="#fff"/>
      </g>
      <g id="Grupo_507" data-name="Grupo 507" transform="translate(12.308 262.98)">
        <path id="Caminho_1248" data-name="Caminho 1248" d="M685.859,3346.505a1.839,1.839,0,1,1-2-1.657A1.838,1.838,0,0,1,685.859,3346.505Z" transform="translate(-682.19 -3344.84)" fill="#fff"/>
      </g>
      <g id="Grupo_508" data-name="Grupo 508" transform="translate(274.363 12.028)">
        <ellipse id="Elipse_60" data-name="Elipse 60" cx="0.842" cy="0.842" rx="0.842" ry="0.842" transform="translate(0 0.644) rotate(-22.5)" fill="#fff"/>
      </g>
      <g id="Grupo_509" data-name="Grupo 509" transform="translate(236.952 269.863)">
        <ellipse id="Elipse_61" data-name="Elipse 61" cx="0.998" cy="0.998" rx="0.998" ry="0.998" transform="translate(0 1.971) rotate(-80.783)" fill="#fff"/>
      </g>
      <g id="Grupo_510" data-name="Grupo 510" transform="translate(72.128 12.023)">
        <ellipse id="Elipse_62" data-name="Elipse 62" cx="0.998" cy="0.998" rx="0.998" ry="0.998" transform="matrix(0.23, -0.973, 0.973, 0.23, 0, 1.943)" fill="#fff"/>
      </g>
      <g id="Grupo_511" data-name="Grupo 511" transform="translate(0 75.993)">
        <circle id="Elipse_63" data-name="Elipse 63" cx="0.998" cy="0.998" r="0.998" transform="translate(0 1.412) rotate(-45)" fill="#fff"/>
      </g>
      <g id="Grupo_512" data-name="Grupo 512" transform="translate(18.858 233.494)">
        <circle id="Elipse_64" data-name="Elipse 64" cx="0.946" cy="0.946" r="0.946" transform="translate(0 1.458) rotate(-50.442)" fill="#fff"/>
      </g>
      <g id="Grupo_513" data-name="Grupo 513" transform="translate(265.056 243.606)">
        <circle id="Elipse_65" data-name="Elipse 65" cx="0.998" cy="0.998" r="0.998" transform="translate(0 1.412) rotate(-45)" fill="#fff"/>
      </g>
      <g id="Grupo_514" data-name="Grupo 514" transform="translate(22.102 111.709)">
        <ellipse id="Elipse_66" data-name="Elipse 66" cx="1.839" cy="1.839" rx="1.839" ry="1.839" transform="translate(0 3.579) rotate(-76.718)" fill="#fff"/>
      </g>
    </g>
    <g id="Grupo_1090" data-name="Grupo 1090" transform="translate(-395.611 -601.352)">
      <g id="Grupo_979" data-name="Grupo 979" transform="translate(629.086 855.091)">
        <g id="Grupo_971" data-name="Grupo 971" transform="translate(1.269 1.272)">
          <path id="Caminho_2125" data-name="Caminho 2125" d="M2278.6,1733.361s21.932-1.681,28.383,2.785c11.625,8.048,14.884,51.6,5.856,67.039-6.627,11.332-47.24,5.483-47.24,5.483" transform="translate(-2265.602 -1733.051)" fill="#fff"/>
        </g>
        <g id="Grupo_972" data-name="Grupo 972" transform="translate(1.268 38.708)" opacity="0.35">
          <path id="Caminho_2126" data-name="Caminho 2126" d="M2312.834,2216.29c-6.626,11.33-47.241,5.481-47.241,5.481l3.559-20.62c8.834,1.044,39.178,3.866,44.827-5.791a36.984,36.984,0,0,0,3.908-11.768C2318.519,2196.316,2316.958,2209.238,2312.834,2216.29Z" transform="translate(-2265.593 -2183.592)" fill="#35456b"/>
        </g>
        <g id="Grupo_973" data-name="Grupo 973">
          <path id="Caminho_2127" data-name="Caminho 2127" d="M2273.27,1797.413h-.537a175.937,175.937,0,0,1-21.311-1.521,1.268,1.268,0,0,1,.362-2.511c11.062,1.592,40.884,3.82,45.964-4.868,8.862-15.153,5.275-57.909-5.483-65.356-4.986-3.451-21.587-3.02-27.564-2.563a1.268,1.268,0,0,1-.194-2.529c.913-.069,22.458-1.661,29.2,3.007,5.714,3.955,9.906,15.8,11.215,31.688,1,12.08.208,28.152-4.985,37.034C2296.981,1794.85,2288.009,1797.413,2273.27,1797.413Z" transform="translate(-2250.335 -1717.748)" fill="#35456b"/>
        </g>
        <g id="Grupo_974" data-name="Grupo 974" transform="translate(38.563 40.221)">
          <path id="Caminho_2128" data-name="Caminho 2128" d="M2728.379,2201.8l-11.263.871a2.213,2.213,0,0,0-2.01,1.815c-.649,3.635-1.713,12.11,1.828,14.9a8.71,8.71,0,0,0,10.488-.336c3.116-2.65,3.4-10.96,3.343-15.073A2.215,2.215,0,0,0,2728.379,2201.8Z" transform="translate(-2714.435 -2201.798)" fill="#fff"/>
        </g>
        <g id="Grupo_975" data-name="Grupo 975" transform="translate(38.563 42.145)" opacity="0.35">
          <path id="Caminho_2129" data-name="Caminho 2129" d="M2715.106,2225.724c-.651,3.634-1.713,12.109,1.828,14.9a8.709,8.709,0,0,0,10.489-.337c1.915-1.631,2.761-5.4,3.115-9.02a9.448,9.448,0,0,1-2.285,4.242c-5.665,5.529-9.918-.965-9.918-.965s-.732,1.581-1.318,1.672c-2.45.379-1.961-7.3-1.615-11.261A2.146,2.146,0,0,0,2715.106,2225.724Z" transform="translate(-2714.435 -2224.954)" fill="#35456b"/>
        </g>
        <g id="Grupo_976" data-name="Grupo 976" transform="translate(37.293 38.953)">
          <path id="Caminho_2130" data-name="Caminho 2130" d="M2707.869,2208.263a9.273,9.273,0,0,1-5.731-1.87c-3.943-3.107-3.128-11.433-2.291-16.119a3.482,3.482,0,0,1,3.161-2.857l11.263-.871a3.484,3.484,0,0,1,3.753,3.423c.083,5.784-.506,13.265-3.79,16.058A9.88,9.88,0,0,1,2707.869,2208.263Zm6.6-19.187-11.263.871a.945.945,0,0,0-.859.773c-1.236,6.92-.725,12.034,1.365,13.681a7.418,7.418,0,0,0,8.882-.307c1.918-1.631,3-6.9,2.9-14.088a.946.946,0,0,0-1.021-.93Z" transform="translate(-2699.154 -2186.537)" fill="#35456b"/>
        </g>
        <g id="Grupo_977" data-name="Grupo 977" transform="translate(41.773 45.002)">
          <path id="Caminho_2131" data-name="Caminho 2131" d="M2757.453,2274.729a4.454,4.454,0,0,1-.54-.362c-.152-.118-.3-.239-.436-.365a7.989,7.989,0,0,1-.767-.792,9.515,9.515,0,0,1-1.2-1.775,12.021,12.021,0,0,1-1.265-3.931,16.841,16.841,0,0,1-.163-2.012c-.034-.673,0-1.316.024-1.976s.084-1.312.172-1.968a10.019,10.019,0,0,1,.436-1.982.334.334,0,0,1,.639.188l-.01.043a9.7,9.7,0,0,0-.2,1.823c-.02.629-.007,1.261.027,1.894a19.844,19.844,0,0,0,.5,3.7,10.377,10.377,0,0,0,1.428,3.275,7.541,7.541,0,0,0,1.1,1.321,5.857,5.857,0,0,0,.636.535c.109.083.22.155.33.224a2.408,2.408,0,0,0,.279.15,1.131,1.131,0,0,1-.663,2.163,1.112,1.112,0,0,1-.223-.1Z" transform="translate(-2753.07 -2259.344)" fill="#35456b"/>
        </g>
        <g id="Grupo_978" data-name="Grupo 978" transform="translate(26.214 3.56)">
          <path id="Caminho_2132" data-name="Caminho 2132" d="M2567.09,1766.5a1.269,1.269,0,0,1-.529-2.422c10.283-4.71,16.584-3.3,16.847-3.241a1.268,1.268,0,0,1-.578,2.47c-.079-.018-5.82-1.226-15.213,3.077A1.266,1.266,0,0,1,2567.09,1766.5Z" transform="translate(-2565.821 -1760.597)" fill="#35456b"/>
        </g>
      </g>
      <g id="Grupo_980" data-name="Grupo 980" transform="translate(560.786 864.686)">
        <path id="Caminho_2133" data-name="Caminho 2133" d="M1466.064,1833.225s-10.072,30.239-37.714,40v18.549h37.714Z" transform="translate(-1428.35 -1833.225)" fill="#fff"/>
      </g>
      <g id="Grupo_981" data-name="Grupo 981" transform="translate(560.787 864.685)">
        <path id="Caminho_2134" data-name="Caminho 2134" d="M1466.077,1833.21v58.549h-37.714v-18.55C1456,1863.45,1466.077,1833.21,1466.077,1833.21Z" transform="translate(-1428.363 -1833.21)" fill="#fff"/>
      </g>
      <g id="Grupo_982" data-name="Grupo 982" transform="translate(565.217 876.512)" opacity="0.35">
        <path id="Caminho_2135" data-name="Caminho 2135" d="M1514.958,1975.548v46.722h-33.284C1505.969,2010.2,1514.958,1975.548,1514.958,1975.548Z" transform="translate(-1481.674 -1975.548)" fill="#35456b"/>
      </g>
      <g id="Grupo_983" data-name="Grupo 983" transform="translate(559.518 856.887)">
        <path id="Caminho_2136" data-name="Caminho 2136" d="M1453.336,1806.981h-40.251v-20.715l.846-.3c26.716-9.434,36.834-38.909,36.934-39.206l2.471-7.4Zm-37.714-2.537H1450.8v-50.977a81.891,81.891,0,0,1-6.174,10.749c-5.449,8.009-14.87,18.567-29,23.836Z" transform="translate(-1413.085 -1739.364)" fill="#35456b"/>
      </g>
      <g id="Grupo_984" data-name="Grupo 984" transform="translate(586.994 846.731)">
        <path id="Caminho_2137" data-name="Caminho 2137" d="M1825.949,1693.644h-82.188s4.525-22.748,8.634-47.3c.637-3.8,1.265-7.655,1.864-11.469,5-31.844,52.626-11.079,52.626-11.079a60.979,60.979,0,0,1,4.42,7.569C1816.6,1641.747,1824.9,1662.725,1825.949,1693.644Z" transform="translate(-1743.761 -1617.141)" fill="#fff"/>
      </g>
      <g id="Grupo_985" data-name="Grupo 985" transform="translate(585.448 845.447)">
        <path id="Caminho_2138" data-name="Caminho 2138" d="M1810.2,1680.745h-85.045l.3-1.516c.061-.3,6.082-30.649,10.489-58.723,1.149-7.32,4.568-12.589,10.164-15.66,15.725-8.631,43.069,3.111,44.225,3.615l.315.137.2.278c.183.25,4.527,6.265,9.105,18.014,4.206,10.794,9.39,28.672,10.2,52.543Zm-81.958-2.537h79.329c-1.7-41.473-16.689-64.782-18.576-67.558-3.124-1.3-27.908-11.137-41.669-3.578-4.869,2.674-7.855,7.326-8.875,13.828C1734.6,1645.442,1729.517,1671.71,1728.244,1678.208Z" transform="translate(-1725.156 -1601.689)" fill="#35456b"/>
      </g>
      <g id="Grupo_1010" data-name="Grupo 1010" transform="translate(582.467 892.856)">
        <g id="Grupo_986" data-name="Grupo 986" transform="translate(43.09 33.822)" opacity="0.35">
          <path id="Caminho_2139" data-name="Caminho 2139" d="M2208.23,2579.291q-.2,1.033-.361,2.03Q2208.031,2580.322,2208.23,2579.291Z" transform="translate(-2207.869 -2579.291)" fill="#35456b"/>
        </g>
        <g id="Grupo_987" data-name="Grupo 987" transform="translate(10.784 3.585)" opacity="0.35">
          <path id="Caminho_2140" data-name="Caminho 2140" d="M1820.4,2215.393c-.77,6.928-1.218,12.934-1.31,17.944A116.226,116.226,0,0,1,1820.4,2215.393Z" transform="translate(-1819.067 -2215.393)" fill="#35456b"/>
        </g>
        <g id="Grupo_988" data-name="Grupo 988" transform="translate(0 5.422)">
          <circle id="Elipse_86" data-name="Elipse 86" cx="5.896" cy="5.896" r="5.896" transform="translate(0 8.339) rotate(-45)" fill="#fff"/>
        </g>
        <g id="Grupo_989" data-name="Grupo 989" transform="translate(2.443 11.101)" opacity="0.35">
          <path id="Caminho_2141" data-name="Caminho 2141" d="M1718.692,2308.663a5.9,5.9,0,1,0,11.789-.307,5.83,5.83,0,0,0-.632-2.505,5.9,5.9,0,0,1-10.656.277A5.831,5.831,0,0,0,1718.692,2308.663Z" transform="translate(-1718.69 -2305.851)" fill="#35456b"/>
        </g>
        <g id="Grupo_990" data-name="Grupo 990" transform="translate(1.404 6.826)">
          <path id="Caminho_2142" data-name="Caminho 2142" d="M1713.108,2268.268a6.943,6.943,0,0,1-6.93-6.755h0a6.935,6.935,0,1,1,7.114,6.752Zm.006-11.793-.129,0a4.857,4.857,0,0,0-4.73,4.983,4.858,4.858,0,1,0,9.712-.253,4.858,4.858,0,0,0-4.853-4.731Z" transform="translate(-1706.176 -2254.398)" fill="#35456b"/>
        </g>
        <g id="Grupo_1006" data-name="Grupo 1006" transform="translate(9.306)">
          <g id="Grupo_991" data-name="Grupo 991" transform="translate(1.23 1.286)" opacity="0.35">
            <path id="Caminho_2143" data-name="Caminho 2143" d="M1816.744,2205.948a90.512,90.512,0,0,0,.919-18.22,91.771,91.771,0,0,1-.96,9.914,52.04,52.04,0,0,0-.426,12.409C1816.381,2208.672,1816.54,2207.3,1816.744,2205.948Z" transform="translate(-1816.084 -2187.728)" fill="#35456b"/>
          </g>
          <g id="Grupo_992" data-name="Grupo 992" transform="translate(1.267 1.27)">
            <path id="Caminho_2144" data-name="Caminho 2144" d="M1822.828,2217.181l30.792,1.582a6.658,6.658,0,0,0,6.971-6.29l.841-16.386a6.663,6.663,0,0,0-4.972-6.769,6.443,6.443,0,0,0-1.318-.2l-30.787-1.583a6.652,6.652,0,0,0-6.971,6.29l-.669,12.978-.177,3.408A6.659,6.659,0,0,0,1822.828,2217.181Z" transform="translate(-1816.529 -2187.525)" fill="#fff"/>
          </g>
          <g id="Grupo_993" data-name="Grupo 993" transform="translate(1.267 3.063)" opacity="0.35">
            <path id="Caminho_2145" data-name="Caminho 2145" d="M1822.828,2236.976l30.792,1.583a6.658,6.658,0,0,0,6.971-6.29l.841-16.385a6.662,6.662,0,0,0-4.972-6.769c-1.808,1.071-2.957,1.757-2.957,1.757-2.175,13.076-6.258,19.442-22.6,18.869-7.056-.249-11.451-1.553-14.184-3.144l-.177,3.408A6.659,6.659,0,0,0,1822.828,2236.976Z" transform="translate(-1816.529 -2209.114)" fill="#35456b"/>
          </g>
          <g id="Grupo_994" data-name="Grupo 994">
            <path id="Caminho_2146" data-name="Caminho 2146" d="M1839.982,2206.033q-.205,0-.411-.011h0l-30.789-1.583a7.928,7.928,0,0,1-7.491-8.3l.843-16.388a7.922,7.922,0,0,1,8.3-7.491l30.79,1.583a7.916,7.916,0,0,1,7.491,8.3l-.843,16.388a7.93,7.93,0,0,1-7.891,7.5Zm-.281-2.544a5.377,5.377,0,0,0,5.639-5.088l.843-16.388a5.377,5.377,0,0,0-5.088-5.639l-30.789-1.583a5.39,5.39,0,0,0-5.64,5.088l-.843,16.388a5.39,5.39,0,0,0,5.088,5.639l30.79,1.583Z" transform="translate(-1801.279 -2172.247)" fill="#35456b"/>
          </g>
          <g id="Grupo_995" data-name="Grupo 995" transform="translate(6.336 2.52)">
            <path id="Caminho_2147" data-name="Caminho 2147" d="M1877.535,2230.8a5.9,5.9,0,0,0,1.23.185l30.792,1.583a6.652,6.652,0,0,0,6.232-3.586,6.524,6.524,0,0,0,.734-2.7l.377-7.279.124-2.4.345-6.7a6.659,6.659,0,0,0-6.29-6.971l-6.654-.34a6.658,6.658,0,0,1,5.069,6.786l-.452,8.852-.389,7.539a6.662,6.662,0,0,1-6.971,6.29Z" transform="translate(-1877.535 -2202.58)" fill="#fff"/>
          </g>
          <g id="Grupo_996" data-name="Grupo 996" transform="translate(6.336 16.536)" opacity="0.35">
            <path id="Caminho_2148" data-name="Caminho 2148" d="M1877.535,2385.462a5.919,5.919,0,0,0,1.23.185l30.792,1.582a6.651,6.651,0,0,0,6.966-6.29l.5-9.682c-.862,1.671-2.362,3.7-4.6,3.805-1.228.061-2.385-.88-3.382-2.184l-.389,7.54a6.661,6.661,0,0,1-6.971,6.29Z" transform="translate(-1877.535 -2371.258)" fill="#35456b"/>
          </g>
          <g id="Grupo_997" data-name="Grupo 997" transform="translate(6.022 1.252)">
            <path id="Caminho_2149" data-name="Caminho 2149" d="M1906.435,2219.844q-.207,0-.415-.011l-30.791-1.584a7.325,7.325,0,0,1-1.479-.22l.379-2.5,24.15,1.244a5.388,5.388,0,0,0,5.636-5.087l.842-16.388a5.376,5.376,0,0,0-4.1-5.493l.364-2.5,6.651.341a7.928,7.928,0,0,1,7.491,8.3l-.842,16.387a7.926,7.926,0,0,1-7.885,7.5Zm-2.491-2.658,2.207.114a5.387,5.387,0,0,0,5.636-5.087h0l.843-16.388a5.39,5.39,0,0,0-5.088-5.64l-1.982-.1a7.888,7.888,0,0,1,1.731,5.349l-.843,16.388A7.846,7.846,0,0,1,1903.944,2217.187Z" transform="translate(-1873.749 -2187.31)" fill="#35456b"/>
          </g>
          <g id="Grupo_998" data-name="Grupo 998" transform="translate(25.726 11.551)">
            <path id="Caminho_2150" data-name="Caminho 2150" d="M2110.892,2316.716c-.028.606.6,5.538.6,5.538l3.453.158c2.378.108,4.418-2.265,4.557-5.3s-1.677-5.587-4.055-5.7l-3.453-.158S2110.937,2315.729,2110.892,2316.716Z" transform="translate(-2110.891 -2311.256)" fill="#22a7f0"/>
          </g>
          <g id="Grupo_999" data-name="Grupo 999" transform="translate(25.726 11.551)" opacity="0.35">
            <path id="Caminho_2151" data-name="Caminho 2151" d="M2110.892,2316.716c-.028.606.6,5.538.6,5.538l3.453.158c2.378.108,4.418-2.265,4.557-5.3s-1.677-5.587-4.055-5.7l-3.453-.158S2110.937,2315.729,2110.892,2316.716Z" transform="translate(-2110.891 -2311.256)" fill="#35456b"/>
          </g>
          <g id="Grupo_1000" data-name="Grupo 1000" transform="translate(24.775 10.645)">
            <path id="Caminho_2152" data-name="Caminho 2152" d="M2104.6,2313.377c-.066,0-.131,0-.2-.005l-2.4-.109a2.2,2.2,0,0,1-2.086-1.93,40.713,40.713,0,0,1-.477-4.65,39.526,39.526,0,0,1,.89-4.608,2.2,2.2,0,0,1,2.25-1.712l2.411.11a4.807,4.807,0,0,1,3.7,2.148,7.271,7.271,0,0,1,1.259,4.541C2109.795,2310.637,2107.414,2313.377,2104.6,2313.377Zm-3.259-6.61c0,.085.015.683.464,4.333a.3.3,0,0,0,.285.262l2.4.109c1.862.084,3.449-1.888,3.563-4.4a5.366,5.366,0,0,0-.908-3.351,2.949,2.949,0,0,0-2.24-1.351l-2.411-.11a.3.3,0,0,0-.308.233A36.333,36.333,0,0,0,2101.342,2306.767Zm-.95-.041h0Z" transform="translate(-2099.44 -2300.361)" fill="#35456b"/>
          </g>
          <g id="Grupo_1001" data-name="Grupo 1001" transform="translate(22.023 11.354)">
            <ellipse id="Elipse_87" data-name="Elipse 87" cx="5.505" cy="4.31" rx="5.505" ry="4.31" transform="translate(0 10.998) rotate(-87.386)" fill="#22a7f0"/>
          </g>
          <g id="Grupo_1002" data-name="Grupo 1002" transform="translate(22.269 11.547)">
            <path id="Caminho_2153" data-name="Caminho 2153" d="M2077.905,2316.911a6.8,6.8,0,0,1-.321,1.788c.06-2.955-1.728-5.4-4.058-5.511-1.884-.085-3.554,1.389-4.237,3.517,0-.063,0-.124,0-.187.139-3.038,2.178-5.409,4.556-5.3S2078.042,2313.873,2077.905,2316.911Z" transform="translate(-2069.289 -2311.212)" fill="#fff"/>
          </g>
          <g id="Grupo_1003" data-name="Grupo 1003" transform="translate(22.266 14.937)" opacity="0.35">
            <path id="Caminho_2154" data-name="Caminho 2154" d="M2077.871,2354.319c-.14,3.038-2.178,5.413-4.557,5.3s-4.195-2.66-4.055-5.7a6.833,6.833,0,0,1,.289-1.681,4.39,4.39,0,0,0,3.767,3.386c1.915.085,3.612-1.436,4.268-3.621A6.694,6.694,0,0,1,2077.871,2354.319Z" transform="translate(-2069.252 -2352.011)" fill="#35456b"/>
          </g>
          <g id="Grupo_1004" data-name="Grupo 1004" transform="translate(21.315 10.595)">
            <path id="Caminho_2155" data-name="Caminho 2155" d="M2062.979,2312.669c-.068,0-.135,0-.2,0-2.9-.132-5.124-3.133-4.961-6.689h0c.163-3.556,2.64-6.347,5.55-6.209a4.807,4.807,0,0,1,3.7,2.148,7.582,7.582,0,0,1-.408,8.948A4.84,4.84,0,0,1,2062.979,2312.669Zm-3.265-6.607c-.114,2.509,1.3,4.618,3.148,4.7a2.96,2.96,0,0,0,2.353-1.141,5.687,5.687,0,0,0,.3-6.605,2.951,2.951,0,0,0-2.24-1.351c-1.864-.084-3.449,1.888-3.563,4.4Z" transform="translate(-2057.805 -2299.761)" fill="#35456b"/>
          </g>
          <g id="Grupo_1005" data-name="Grupo 1005" transform="translate(11.382 0.542)">
            <path id="Caminho_2156" data-name="Caminho 2156" d="M1944.019,2210.472h-.027a.951.951,0,0,1-.925-.977l.3-10.868-5.113-3.594.736-15.364a.962.962,0,0,1,1-.9.951.951,0,0,1,.9,1l-.686,14.319,5.093,3.579-.33,11.889A.951.951,0,0,1,1944.019,2210.472Z" transform="translate(-1938.256 -2178.765)" fill="#35456b"/>
          </g>
        </g>
        <g id="Grupo_1007" data-name="Grupo 1007" transform="translate(51.798 9.553)">
          <path id="Caminho_2157" data-name="Caminho 2157" d="M2343.078,2287.215a8.5,8.5,0,0,1,2.975,5.767c.145,4.045-2.386,5.686-2.386,5.686s-11.074,5.669-28.842,1.9c0,0-5.229-6.61.6-10.34C2315.421,2290.229,2334.173,2292.805,2343.078,2287.215Z" transform="translate(-2312.668 -2287.215)" fill="#fff"/>
        </g>
        <g id="Grupo_1008" data-name="Grupo 1008" transform="translate(51.869 10.579)" opacity="0.35">
          <path id="Caminho_2158" data-name="Caminho 2158" d="M2346.832,2304.312a6.433,6.433,0,0,1-2.384,5.68s-11.073,5.672-28.844,1.9a11.335,11.335,0,0,1-2.085-4.735c.084.126.138.192.138.192,12.987,2.756,22.4.466,26.52-.965a6.8,6.8,0,0,0,4.711-6.5c0-.04,0-.08,0-.121a1.227,1.227,0,0,0-.016-.2A7.946,7.946,0,0,1,2346.832,2304.312Z" transform="translate(-2313.519 -2299.569)" fill="#35456b"/>
        </g>
        <g id="Grupo_1009" data-name="Grupo 1009" transform="translate(50.53 8.001)">
          <path id="Caminho_2159" data-name="Caminho 2159" d="M2312.871,2286.013a59.246,59.246,0,0,1-12.3-1.329l-.448-.095-.284-.359c-.121-.154-2.971-3.808-2.339-7.583a6.721,6.721,0,0,1,3.245-4.612l.393-.252.463.063c.182.025,18.4,2.446,26.81-2.832l.761-.478.7.56a9.766,9.766,0,0,1,3.452,6.713,7.688,7.688,0,0,1-2.963,6.8l-.112.064C2329.905,2282.848,2323.56,2286.013,2312.871,2286.013Zm-11.292-3.711c16.065,3.272,26.493-1.4,27.451-1.857a5.32,5.32,0,0,0,1.765-4.545,6.871,6.871,0,0,0-1.9-4.233c-8.682,4.707-24.139,3.12-27.149,2.755a4.055,4.055,0,0,0-1.745,2.644C2299.653,2279.162,2301,2281.442,2301.58,2282.3Z" transform="translate(-2297.411 -2268.536)" fill="#35456b"/>
        </g>
      </g>
      <g id="Grupo_1029" data-name="Grupo 1029" transform="translate(565.24 776.915)">
        <g id="Grupo_1011" data-name="Grupo 1011" transform="translate(30.388 69.816)" opacity="0.35">
          <path id="Caminho_2160" data-name="Caminho 2160" d="M1906.583,1631.363a48,48,0,0,1-31.2,18.946q-1.36.209-2.73.349a47.969,47.969,0,0,1-21.324-2.781c-.8-.3-1.595-.618-2.369-.954q-.651-.281-1.291-.58c.637-3.8,1.265-7.655,1.865-11.469,5-31.844,52.626-11.079,52.626-11.079A60.987,60.987,0,0,1,1906.583,1631.363Z" transform="translate(-1847.672 -1617.141)" fill="#35456b"/>
        </g>
        <g id="Grupo_1012" data-name="Grupo 1012" transform="translate(1.141 1.14)">
          <path id="Caminho_2161" data-name="Caminho 2161" d="M1504.323,864.923a47.611,47.611,0,0,0,17.3,16.8,48.3,48.3,0,0,0,4.611,2.293c.773.337,1.566.653,2.37.956a47.906,47.906,0,0,0,7.341,2.08,47.593,47.593,0,0,0,13.981.7q1.373-.139,2.731-.349a47.9,47.9,0,0,0-5.211-95.179c-.564-.03-1.132-.045-1.7-.047q-2.275-.025-4.521.167a48.158,48.158,0,0,0-19.564,6.066q-1.423.8-2.792,1.707a47.9,47.9,0,0,0-14.542,64.807Z" transform="translate(-1497.223 -792.046)" fill="#fff"/>
          <path id="Caminho_2162" data-name="Caminho 2162" d="M1543.743,886.7q-1.493,0-2.974-.094a47.745,47.745,0,0,1-6.384-.836,48.247,48.247,0,0,1-7.36-2.085c-.882-.333-1.659-.646-2.377-.959a48.7,48.7,0,0,1-4.623-2.3,48.017,48.017,0,0,1-2.761-81.824c.9-.591,1.837-1.167,2.8-1.712a48.284,48.284,0,0,1,19.616-6.082c1.494-.127,3.021-.184,4.533-.167.607,0,1.165.018,1.7.047a48.03,48.03,0,0,1,5.224,95.433c-.9.14-1.824.258-2.738.35C1546.854,886.621,1545.295,886.7,1543.743,886.7Zm-40.84-23.249a47.647,47.647,0,0,0,17.249,16.755,48.3,48.3,0,0,0,4.6,2.286c.714.311,1.487.623,2.364.954a48,48,0,0,0,7.32,2.074,47.451,47.451,0,0,0,13.943.7c.909-.092,1.826-.209,2.724-.348a47.776,47.776,0,0,0-5.2-94.925c-.536-.029-1.09-.044-1.693-.047-1.506-.015-3.023.04-4.51.166a48.034,48.034,0,0,0-19.512,6.05c-.958.542-1.895,1.115-2.784,1.7a47.771,47.771,0,0,0-14.5,64.634Z" transform="translate(-1495.694 -790.637)" fill="#35456b"/>
        </g>
        <g id="Grupo_1013" data-name="Grupo 1013" transform="translate(3.024 23.374)" opacity="0.35">
          <path id="Caminho_2163" data-name="Caminho 2163" d="M1609.4,1100.669a47.864,47.864,0,0,1-37.51,30.665q-1.358.212-2.729.35a47.974,47.974,0,0,1-21.323-2.778c-.8-.306-1.595-.62-2.37-.955a48.785,48.785,0,0,1-4.61-2.3,47.6,47.6,0,0,1-17.3-16.8,48.173,48.173,0,0,1-5.216-12.07,47.789,47.789,0,0,0,21.322,18.157c.772.337,1.564.651,2.369.955a47.747,47.747,0,0,0,21.32,2.78q1.376-.14,2.732-.351a47.907,47.907,0,0,0,38.765-60.114A47.806,47.806,0,0,1,1609.4,1100.669Z" transform="translate(-1518.349 -1058.213)" fill="#35456b"/>
        </g>
        <g id="Grupo_1014" data-name="Grupo 1014" transform="translate(0.285 0.284)">
          <path id="Caminho_2164" data-name="Caminho 2164" d="M1534.3,878.108q-1.52,0-3.027-.1a48.579,48.579,0,0,1-6.5-.851,49.09,49.09,0,0,1-7.489-2.122c-.9-.339-1.689-.658-2.421-.977a49.58,49.58,0,0,1-4.7-2.338,48.872,48.872,0,0,1-2.812-83.282c.911-.6,1.87-1.188,2.85-1.743a49.134,49.134,0,0,1,19.964-6.19c1.522-.129,3.078-.188,4.615-.17.616,0,1.188.018,1.741.048a48.885,48.885,0,0,1,5.31,97.132c-.919.142-1.855.262-2.785.356C1537.464,878.031,1535.876,878.108,1534.3,878.108Zm-40.107-24.548a46.79,46.79,0,0,0,16.938,16.454,47.607,47.607,0,0,0,4.517,2.246c.7.306,1.464.613,2.327.939a47.066,47.066,0,0,0,7.185,2.035,46.594,46.594,0,0,0,13.693.686c.891-.09,1.793-.205,2.676-.342a46.92,46.92,0,0,0-5.1-93.225c-.53-.029-1.069-.044-1.659-.046-1.481-.014-2.974.039-4.433.163a47.169,47.169,0,0,0-19.163,5.942c-.941.533-1.861,1.1-2.734,1.672a46.915,46.915,0,0,0-14.243,63.477Z" transform="translate(-1485.393 -780.337)" fill="#35456b"/>
        </g>
        <g id="Grupo_1015" data-name="Grupo 1015">
          <path id="Caminho_2165" data-name="Caminho 2165" d="M1531.148,875.256q-1.53,0-3.045-.1a48.847,48.847,0,0,1-6.537-.856,49.367,49.367,0,0,1-7.532-2.134c-.905-.341-1.7-.662-2.435-.982a49.858,49.858,0,0,1-4.728-2.351,49.056,49.056,0,0,1-17.756-17.247h0a49.156,49.156,0,0,1,14.927-66.522c.917-.606,1.881-1.2,2.867-1.753a49.425,49.425,0,0,1,20.081-6.226c1.531-.13,3.1-.186,4.643-.171.619,0,1.2.018,1.754.049a49.17,49.17,0,0,1,5.339,97.7c-.925.143-1.866.264-2.8.358C1534.335,875.178,1532.737,875.256,1531.148,875.256Zm-39.863-24.981a46.507,46.507,0,0,0,16.835,16.353,47.249,47.249,0,0,0,4.49,2.232c.7.3,1.455.61,2.314.934a46.812,46.812,0,0,0,7.14,2.023,46.318,46.318,0,0,0,13.61.682c.885-.089,1.782-.2,2.66-.34a46.635,46.635,0,0,0-5.073-92.659c-.528-.029-1.063-.043-1.647-.046-1.482-.016-2.959.038-4.409.162a46.884,46.884,0,0,0-19.046,5.906c-.936.529-1.85,1.089-2.718,1.662a46.63,46.63,0,0,0-14.156,63.091Z" transform="translate(-1481.959 -776.915)" fill="#35456b"/>
        </g>
        <g id="Grupo_1016" data-name="Grupo 1016" transform="translate(1.306 12.135)">
          <path id="Caminho_2166" data-name="Caminho 2166" d="M1512.268,994.434c28.97,18.228,66.416,2.424,66.794-31.474.257-23.062-22.125-41.12-44.291-39.948-16.133.852-31.51,8.742-37.031,34.142,0,0-.708,11.621,2.8,19.167a109.54,109.54,0,0,0,8.188,14.292Z" transform="translate(-1497.682 -922.958)" fill="#35456b"/>
        </g>
        <g id="Grupo_1017" data-name="Grupo 1017" transform="translate(15.175 32.638)">
          <path id="Caminho_2167" data-name="Caminho 2167" d="M1732.1,1189.206c-.377,33.9-37.824,49.7-66.793,31.475l-.717-.775c31.1,4.013,60.935-15.933,61.954-50.2A36.081,36.081,0,0,1,1732.1,1189.206Z" transform="translate(-1664.591 -1169.706)" fill="#1d2e4f"/>
        </g>
        <g id="Grupo_1018" data-name="Grupo 1018" transform="translate(0 5.964)">
          <path id="Caminho_2168" data-name="Caminho 2168" d="M1523.774,940.179q-1,0-2.005-.038l-.2-.023a49.359,49.359,0,0,1-7.535-2.135c-.905-.341-1.7-.662-2.435-.982a49.886,49.886,0,0,1-4.728-2.351,49.166,49.166,0,0,1-6.9-80.77l.1-.083.117-.061a47.908,47.908,0,0,1,19.643-4.982c13.212-.7,27.06,4.615,37.065,14.212,9.194,8.82,14.185,20.174,14.053,31.972-.145,12.822-4.844,24-13.59,32.322C1548.676,935.528,1536.527,940.179,1523.774,940.179Zm-1.808-2.569c12.759.464,25.023-3.977,33.65-12.187,8.239-7.841,12.665-18.392,12.8-30.513.124-11.09-4.589-21.784-13.272-30.114-9.508-9.12-22.657-14.173-35.175-13.509a45.481,45.481,0,0,0-18.492,4.64,46.626,46.626,0,0,0,6.642,76.514,47.338,47.338,0,0,0,4.49,2.232c.7.3,1.455.61,2.314.934A46.828,46.828,0,0,0,1521.965,937.61Z" transform="translate(-1481.959 -848.692)" fill="#35456b"/>
        </g>
        <g id="Grupo_1019" data-name="Grupo 1019" transform="translate(0.034 10.868)">
          <path id="Caminho_2169" data-name="Caminho 2169" d="M1524.266,989.392a50.3,50.3,0,0,1-26.715-7.859l-.141-.089-3.767-4.083a109.585,109.585,0,0,1-8.3-14.48c-3.6-7.747-2.943-19.291-2.913-19.778l.026-.192c4.833-22.232,17.687-34.055,38.2-35.139,11.786-.618,24.152,4.118,33.079,12.682,8.208,7.873,12.664,18.011,12.546,28.547-.169,15.212-7.7,27.985-20.651,35.046A44.546,44.546,0,0,1,1524.266,989.392Zm-25.224-9.918c14.284,8.921,31.658,9.823,45.381,2.344,12.125-6.608,19.17-18.58,19.329-32.847.109-9.827-4.069-19.305-11.766-26.688-8.431-8.087-20.088-12.565-31.189-11.979-19.2,1.015-31.26,12.133-35.837,33.045-.054,1.1-.479,11.649,2.687,18.463a109.144,109.144,0,0,0,8.031,14.031Z" transform="translate(-1482.368 -907.716)" fill="#35456b"/>
        </g>
        <g id="Grupo_1020" data-name="Grupo 1020" transform="translate(78.076 33.138)">
          <ellipse id="Elipse_88" data-name="Elipse 88" cx="12.444" cy="17.126" rx="12.444" ry="17.126" transform="matrix(0.998, -0.057, 0.057, 0.998, 0, 1.419)" fill="#fff"/>
        </g>
        <g id="Grupo_1021" data-name="Grupo 1021" transform="translate(79.434 34.179)" opacity="0.35">
          <path id="Caminho_2170" data-name="Caminho 2170" d="M2451.851,1222.028c-6.348,1-12.3-4.8-13.911-13.21a9.177,9.177,0,0,0,3.913.235c6.8-1.072,14.767-9.126,13.737-18.514-.069-.631-3.444-1.675-3.562-2.28,5.178,1.443,9.446,7.28,10.277,14.827C2463.335,1212.478,2458.655,1220.957,2451.851,1222.028Z" transform="translate(-2437.94 -1188.259)" fill="#35456b"/>
        </g>
        <g id="Grupo_1022" data-name="Grupo 1022" transform="translate(77.746 32.562)">
          <path id="Caminho_2171" data-name="Caminho 2171" d="M2431.78,1205.559a11.361,11.361,0,0,1-6.939-2.488c-3.852-2.944-6.43-7.981-7.071-13.819-1.1-10.039,4.063-19.16,11.516-20.333a11.08,11.08,0,0,1,8.578,2.36c3.852,2.944,6.429,7.981,7.07,13.818h0c1.1,10.039-4.062,19.16-11.516,20.333A10.541,10.541,0,0,1,2431.78,1205.559Zm-.874-34.231a7.906,7.906,0,0,0-1.226.1c-6.135.966-10.347,8.839-9.39,17.551.559,5.076,2.835,9.592,6.091,12.081a8.6,8.6,0,0,0,6.642,1.869c6.135-.965,10.347-8.838,9.389-17.55h0c-.558-5.076-2.834-9.592-6.09-12.08A8.889,8.889,0,0,0,2430.906,1171.329Z" transform="translate(-2417.621 -1168.79)" fill="#35456b"/>
        </g>
        <g id="Grupo_1023" data-name="Grupo 1023" transform="translate(85.173 38.107)">
          <ellipse id="Elipse_89" data-name="Elipse 89" cx="10.14" cy="13.592" rx="10.14" ry="13.592" transform="translate(0 0.462) rotate(-1.306)" fill="#fff"/>
          <path id="Caminho_2172" data-name="Caminho 2172" d="M2519.492,1264.054a7.986,7.986,0,0,1-2.927-.569c-5.444-2.136-8.638-9.773-7.121-17.023.85-4.06,3.014-7.294,5.94-8.875a7.791,7.791,0,0,1,6.735-.427c5.443,2.136,8.638,9.773,7.121,17.023-.85,4.06-3.015,7.295-5.94,8.875A7.96,7.96,0,0,1,2519.492,1264.054Zm-.3-27.2a7.7,7.7,0,0,0-3.683.964c-2.856,1.543-4.973,4.712-5.806,8.7-1.492,7.129,1.63,14.63,6.958,16.722a7.535,7.535,0,0,0,6.512-.413c2.856-1.543,4.973-4.713,5.806-8.7,1.492-7.129-1.629-14.63-6.958-16.721A7.719,7.719,0,0,0,2519.193,1236.856Z" transform="translate(-2508.895 -1236.502)" fill="#35456b"/>
        </g>
        <g id="Grupo_1024" data-name="Grupo 1024" transform="translate(85.78 44.992)" opacity="0.35">
          <path id="Caminho_2173" data-name="Caminho 2173" d="M2515.252,1332.094a16.232,16.232,0,0,1-.809-7.649c2.508,5.332,7.8,7.039,12.241,3.756a14.454,14.454,0,0,0,5.233-9.811c.16.335.307.69.443,1.056,2.281,6.148.3,13.964-4.425,17.456S2517.533,1338.239,2515.252,1332.094Z" transform="translate(-2514.304 -1318.39)" fill="#35456b"/>
        </g>
        <g id="Grupo_1025" data-name="Grupo 1025" transform="translate(84.951 36.346)">
          <path id="Caminho_2174" data-name="Caminho 2174" d="M2515.427,1244.781a8.48,8.48,0,0,1-5.161-1.854c-3.113-2.369-5.284-6.742-5.809-11.7-.895-8.444,3.005-15.819,8.879-16.792a8.234,8.234,0,0,1,6.422,1.75c3.113,2.369,5.285,6.742,5.81,11.7.895,8.444-3.006,15.819-8.879,16.792A7.739,7.739,0,0,1,2515.427,1244.781Zm-.848-27.909a5.079,5.079,0,0,0-.83.068c-4.4.728-7.5,7.149-6.77,14.022.453,4.274,2.256,7.992,4.823,9.947a5.76,5.76,0,0,0,4.472,1.266c4.4-.728,7.5-7.149,6.77-14.021-.453-4.274-2.256-7.992-4.823-9.947A6.009,6.009,0,0,0,2514.579,1216.872Z" transform="translate(-2504.328 -1214.334)" fill="#35456b"/>
        </g>
        <g id="Grupo_1026" data-name="Grupo 1026" transform="translate(5.329 17.292)" opacity="0.7">
          <path id="Caminho_2175" data-name="Caminho 2175" d="M1590.993,987.734s-21.609,2.529-32.875,15.641l-.035.041a20.491,20.491,0,0,0-4.595,9.7,41.809,41.809,0,0,0-.548,11.1c.63,9.061,2.621,13.189,2.621,13.189-5.487-4.429-8.769-9.662-9.369-17.2q-.086-1.115-.1-2.3c0-.182,0-.363,0-.545,0,0,0-.005,0-.011a50.834,50.834,0,0,1,.737-6.051c1.3-7.086,4.62-16.442,13.059-21.263C1575.678,981.012,1591.674,986.736,1590.993,987.734Z" transform="translate(-1546.095 -985.025)" fill="#fff"/>
        </g>
        <g id="Grupo_1027" data-name="Grupo 1027" transform="translate(59.42 32.055)" opacity="0.7">
          <ellipse id="Elipse_90" data-name="Elipse 90" cx="6.401" cy="7.459" rx="6.401" ry="7.459" transform="translate(0 4.159) rotate(-18.957)" fill="#fff"/>
        </g>
        <g id="Grupo_1028" data-name="Grupo 1028" transform="translate(68.639 50.122)" opacity="0.7">
          <ellipse id="Elipse_91" data-name="Elipse 91" cx="2.643" cy="3.08" rx="2.643" ry="3.08" transform="translate(0 2.133) rotate(-23.799)" fill="#fff"/>
        </g>
      </g>
      <g id="Grupo_1030" data-name="Grupo 1030" transform="translate(489.155 918.19)">
        <path id="Caminho_2176" data-name="Caminho 2176" d="M807.02,2477.136c-16.241,35.209-63.99,60.715-120.368,60.715s-104.128-25.505-120.368-60.715Z" transform="translate(-566.283 -2477.136)" fill="#35456b"/>
      </g>
      <g id="Grupo_1043" data-name="Grupo 1043" transform="translate(503.053 921.752)">
        <g id="Grupo_1031" data-name="Grupo 1031" transform="translate(139.642 33.35)">
          <path id="Caminho_2177" data-name="Caminho 2177" d="M2418.742,2923.669l-1.5.231a.7.7,0,0,0-.582.582l-.231,1.5-.231-1.5a.7.7,0,0,0-.582-.582l-1.5-.231,1.5-.231a.7.7,0,0,0,.582-.582l.231-1.5.231,1.5a.7.7,0,0,0,.582.582Z" transform="translate(-2414.12 -2921.358)" fill="#ffe266"/>
        </g>
        <g id="Grupo_1032" data-name="Grupo 1032" transform="translate(101.005 26.702)">
          <path id="Caminho_2178" data-name="Caminho 2178" d="M1953.742,2843.669l-1.5.231a.7.7,0,0,0-.582.582l-.231,1.5-.231-1.5a.7.7,0,0,0-.582-.582l-1.5-.231,1.5-.231a.7.7,0,0,0,.582-.582l.231-1.5.231,1.5a.7.7,0,0,0,.582.582Z" transform="translate(-1949.12 -2841.358)" fill="#ffe266"/>
        </g>
        <g id="Grupo_1033" data-name="Grupo 1033" transform="translate(115.34 41.504)">
          <path id="Caminho_2179" data-name="Caminho 2179" d="M2126.3,3021.826l-1.508.232a.7.7,0,0,0-.586.586l-.233,1.508-.233-1.508a.7.7,0,0,0-.586-.586l-1.508-.232,1.508-.233a.7.7,0,0,0,.586-.586l.233-1.508.233,1.508a.7.7,0,0,0,.586.586Z" transform="translate(-2121.646 -3019.5)" fill="#ffe266"/>
        </g>
        <g id="Grupo_1034" data-name="Grupo 1034" transform="translate(182.011 23.681)">
          <path id="Caminho_2180" data-name="Caminho 2180" d="M2930.3,2808.136l-2.033.313a.945.945,0,0,0-.79.79l-.314,2.032-.314-2.032a.945.945,0,0,0-.79-.79l-2.033-.313,2.033-.314a.945.945,0,0,0,.79-.79l.314-2.032.314,2.032a.945.945,0,0,0,.79.79Z" transform="translate(-2924.024 -2805)" fill="#ffe266"/>
        </g>
        <g id="Grupo_1035" data-name="Grupo 1035" transform="translate(0 0)">
          <path id="Caminho_2181" data-name="Caminho 2181" d="M738.984,2522.721l-1.763.272a.821.821,0,0,0-.685.686l-.272,1.763-.272-1.763a.821.821,0,0,0-.685-.686l-1.763-.272,1.763-.272a.821.821,0,0,0,.685-.686l.272-1.763.272,1.763a.821.821,0,0,0,.685.686Z" transform="translate(-733.543 -2520)" fill="#ffe266"/>
        </g>
        <g id="Grupo_1036" data-name="Grupo 1036" transform="translate(75.657 20.32)">
          <path id="Caminho_2182" data-name="Caminho 2182" d="M1649.957,2767.5l-1.91.295a.888.888,0,0,0-.742.742l-.295,1.91-.295-1.91a.888.888,0,0,0-.742-.742l-1.91-.295,1.91-.295a.888.888,0,0,0,.742-.742l.295-1.91.295,1.91a.888.888,0,0,0,.742.742Z" transform="translate(-1644.063 -2764.548)" fill="#ffe266"/>
        </g>
        <g id="Grupo_1037" data-name="Grupo 1037" transform="translate(160.155 33.353)">
          <path id="Caminho_2183" data-name="Caminho 2183" d="M2666.6,2924.2l-1.818.281a.846.846,0,0,0-.707.706l-.281,1.818-.28-1.818a.846.846,0,0,0-.707-.706l-1.818-.281,1.818-.281a.846.846,0,0,0,.707-.706l.28-1.818.281,1.818a.846.846,0,0,0,.707.706Z" transform="translate(-2660.989 -2921.4)" fill="#ffe266"/>
        </g>
        <g id="Grupo_1038" data-name="Grupo 1038" transform="translate(50.307 20.511)">
          <path id="Caminho_2184" data-name="Caminho 2184" d="M1343.6,2769.154l-1.5.231a.7.7,0,0,0-.582.582l-.231,1.5-.231-1.5a.7.7,0,0,0-.582-.582l-1.5-.231,1.5-.231a.7.7,0,0,0,.582-.582l.231-1.5.231,1.5a.7.7,0,0,0,.582.582Z" transform="translate(-1338.976 -2766.843)" fill="#ffe266"/>
        </g>
        <g id="Grupo_1039" data-name="Grupo 1039" transform="translate(55.662 37.446)">
          <path id="Caminho_2185" data-name="Caminho 2185" d="M1406.612,2974.569l-1-1.142a.7.7,0,0,0-.8-.181l-1.39.6,1.143-1a.7.7,0,0,0,.181-.8l-.6-1.39,1,1.143a.7.7,0,0,0,.8.181l1.39-.6-1.143,1a.7.7,0,0,0-.181.8Z" transform="translate(-1403.424 -2970.662)" fill="#ffe266"/>
        </g>
        <g id="Grupo_1040" data-name="Grupo 1040" transform="translate(81.893 40.516)">
          <path id="Caminho_2186" data-name="Caminho 2186" d="M1724.47,3010.274l-1.734.268a.806.806,0,0,0-.674.674l-.268,1.734-.268-1.734a.806.806,0,0,0-.674-.674l-1.734-.268,1.734-.268a.806.806,0,0,0,.674-.674l.268-1.734.268,1.734a.806.806,0,0,0,.674.674Z" transform="translate(-1719.12 -3007.599)" fill="#ffe266"/>
        </g>
        <g id="Grupo_1041" data-name="Grupo 1041" transform="translate(27.922 26.223)">
          <path id="Caminho_2187" data-name="Caminho 2187" d="M1074.205,2837.9l-1.5.231a.7.7,0,0,0-.582.582l-.231,1.5-.231-1.5a.7.7,0,0,0-.582-.582l-1.5-.231,1.5-.231a.7.7,0,0,0,.582-.582l.231-1.5.231,1.5a.7.7,0,0,0,.582.582Z" transform="translate(-1069.583 -2835.59)" fill="#ffe266"/>
        </g>
        <g id="Grupo_1042" data-name="Grupo 1042" transform="translate(205.067 1.662)">
          <path id="Caminho_2188" data-name="Caminho 2188" d="M3206.973,2542.735l-1.773.273a.825.825,0,0,0-.688.689l-.273,1.772-.274-1.772a.825.825,0,0,0-.688-.689l-1.773-.273,1.773-.274a.824.824,0,0,0,.688-.688l.274-1.772.273,1.772a.824.824,0,0,0,.688.688Z" transform="translate(-3201.503 -2540)" fill="#ffe266"/>
        </g>
      </g>
      <g id="Grupo_1050" data-name="Grupo 1050" transform="translate(618.772 929.531)">
        <g id="Grupo_1044" data-name="Grupo 1044" transform="translate(1.878 1.277)">
          <path id="Caminho_2189" data-name="Caminho 2189" d="M2205.837,2646.864h-57.031l2.889-7.188,4.293-10.676,36.778.387,8.454,11.3Z" transform="translate(-2148.807 -2629)" fill="#fff"/>
        </g>
        <g id="Grupo_1045" data-name="Grupo 1045">
          <path id="Caminho_2190" data-name="Caminho 2190" d="M2187.646,2634.038h-61.441l8.208-20.409,38.271.4Zm-57.687-2.537h52.622l-11.177-14.946-35.285-.372Z" transform="translate(-2126.205 -2613.629)" fill="#35456b"/>
        </g>
        <g id="Grupo_1046" data-name="Grupo 1046" transform="translate(8.902 14.075)">
          <path id="Caminho_2191" data-name="Caminho 2191" d="M2275.534,2783.988c-1.76.005-3.519-.029-5.278-.042l-5.276-.108c-1.758-.026-3.519-.1-5.271-.144s-3.512-.053-5.27-.053c-3.515-.052-7.031-.042-10.548-.071l-5.275-.046c-1.759-.035-3.517-.046-5.277-.093,1.758-.095,3.516-.144,5.274-.213l5.276-.128c3.518-.07,7.036-.075,10.555-.073q2.64.03,5.281.111c1.764.07,3.517.133,5.274.234l5.268.281C2272.023,2783.758,2273.78,2783.854,2275.534,2783.988Z" transform="translate(-2233.34 -2783.017)" fill="#35456b"/>
        </g>
        <g id="Grupo_1047" data-name="Grupo 1047" transform="translate(9.968 9.99)">
          <path id="Caminho_2192" data-name="Caminho 2192" d="M2284.949,2735.032c-1.617.016-3.234-.007-4.851-.009l-4.852-.074c-3.235-.054-6.462-.19-9.693-.284l-9.689-.329c-1.615-.053-3.226-.1-4.841-.064-1.616,0-3.232.011-4.851-.013,3.224-.2,6.461-.44,9.7-.4,3.237,0,6.47.084,9.7.185s6.464.261,9.691.429l4.842.248C2281.72,2734.824,2283.335,2734.908,2284.949,2735.032Z" transform="translate(-2246.172 -2733.853)" fill="#35456b"/>
        </g>
        <g id="Grupo_1048" data-name="Grupo 1048" transform="translate(10.744 6.529)">
          <path id="Caminho_2193" data-name="Caminho 2193" d="M2291.077,2693.5c-1.487-.008-2.969-.056-4.453-.083l-4.445-.148-8.892-.27-8.889-.313c-1.482-.056-2.962-.1-4.444-.118-1.487-.053-2.971-.085-4.45-.158,2.969-.112,5.928-.214,8.9-.2s5.936.079,8.9.17c2.966.11,5.93.22,8.892.416l4.442.321C2288.122,2693.239,2289.6,2693.347,2291.077,2693.5Z" transform="translate(-2255.505 -2692.201)" fill="#35456b"/>
        </g>
        <g id="Grupo_1049" data-name="Grupo 1049" transform="translate(11.859 3.74)">
          <path id="Caminho_2194" data-name="Caminho 2194" d="M2301.205,2659.51a69.288,69.288,0,0,1-8.084.128c-2.692-.054-5.382-.145-8.073-.226l-8.07-.293c-1.345-.055-2.69-.1-4.034-.132-1.336-.047-2.711-.039-4.022-.128l4.021-.178c1.349-.035,2.7-.04,4.044-.042,2.7,0,5.388.068,8.081.15s5.383.2,8.072.372c1.344.084,2.687.163,4.031.227S2299.86,2659.544,2301.205,2659.51Z" transform="translate(-2268.923 -2658.639)" fill="#35456b"/>
        </g>
      </g>
      <g id="Grupo_1051" data-name="Grupo 1051" transform="translate(649.165 921.876)">
        <path id="Caminho_2195" data-name="Caminho 2195" d="M2549.015,2539.366h-57.031l7.185-17.865,5.5.057,31.277.333Z" transform="translate(-2491.984 -2521.501)" fill="#fff"/>
      </g>
      <g id="Grupo_1052" data-name="Grupo 1052" transform="translate(595.187 921.117)">
        <path id="Caminho_2196" data-name="Caminho 2196" d="M1862.87,2512.363l-20.506,18.509s18.277-.941,26.759-.917c6.916.02,30.052,1.791,30.052,1.791l5.38-18.624Z" transform="translate(-1842.363 -2512.363)" fill="#fff"/>
      </g>
      <g id="Grupo_1053" data-name="Grupo 1053" transform="translate(623.539 930.809)" opacity="0.35">
        <path id="Caminho_2197" data-name="Caminho 2197" d="M2233.1,2640.69h-20.528l-.219.761s-20.674-1.586-28.779-1.776l4.293-10.677,36.779.387Z" transform="translate(-2183.571 -2628.999)" fill="#35456b"/>
      </g>
      <g id="Grupo_1054" data-name="Grupo 1054" transform="translate(649.165 921.876)">
        <path id="Caminho_2198" data-name="Caminho 2198" d="M2549.015,2539.366h-57.031l7.185-17.865,5.5.057,31.277.333Z" transform="translate(-2491.984 -2521.501)" fill="#fff"/>
      </g>
      <g id="Grupo_1055" data-name="Grupo 1055" transform="translate(647.288 920.6)">
        <path id="Caminho_2199" data-name="Caminho 2199" d="M2530.83,2526.545h-61.441l8.208-20.409,38.272.4Zm-57.687-2.537h52.622l-11.177-14.946-35.285-.372Z" transform="translate(-2469.389 -2506.136)" fill="#35456b"/>
      </g>
      <g id="Grupo_1056" data-name="Grupo 1056" transform="translate(656.19 934.674)">
        <path id="Caminho_2200" data-name="Caminho 2200" d="M2618.718,2676.5c-1.76.005-3.519-.029-5.278-.042l-5.276-.107c-1.758-.026-3.52-.1-5.271-.145s-3.512-.052-5.27-.054c-3.514-.051-7.03-.041-10.547-.071l-5.275-.046c-1.759-.035-3.518-.046-5.277-.092,1.757-.094,3.516-.144,5.274-.214l5.276-.128c3.518-.07,7.036-.075,10.555-.073q2.64.03,5.28.11c1.764.07,3.518.133,5.274.234l5.268.281C2615.206,2676.266,2616.962,2676.362,2618.718,2676.5Z" transform="translate(-2576.523 -2675.525)" fill="#35456b"/>
      </g>
      <g id="Grupo_1057" data-name="Grupo 1057" transform="translate(657.256 930.589)">
        <path id="Caminho_2201" data-name="Caminho 2201" d="M2628.132,2627.537c-1.617.017-3.234-.007-4.851-.009l-4.851-.074c-3.235-.054-6.462-.19-9.694-.283l-9.688-.328c-1.616-.053-3.226-.1-4.842-.064-1.615-.005-3.231.011-4.851-.013,3.224-.2,6.461-.44,9.7-.4,3.236,0,6.47.085,9.7.185s6.463.262,9.691.43l4.842.248C2624.9,2627.329,2626.518,2627.413,2628.132,2627.537Z" transform="translate(-2589.355 -2626.358)" fill="#35456b"/>
      </g>
      <g id="Grupo_1058" data-name="Grupo 1058" transform="translate(658.032 927.544)">
        <path id="Caminho_2202" data-name="Caminho 2202" d="M2634.261,2591c-1.487-.008-2.969-.056-4.452-.083l-4.444-.148-8.892-.27-8.889-.313c-1.482-.056-2.961-.1-4.444-.118-1.486-.053-2.971-.085-4.451-.157,2.969-.112,5.928-.214,8.9-.2s5.936.079,8.9.17c2.966.11,5.93.22,8.892.416l4.442.322C2631.306,2590.746,2632.786,2590.854,2634.261,2591Z" transform="translate(-2598.689 -2589.708)" fill="#35456b"/>
      </g>
      <g id="Grupo_1059" data-name="Grupo 1059" transform="translate(659.147 925.171)">
        <path id="Caminho_2203" data-name="Caminho 2203" d="M2644.389,2562.017a69.229,69.229,0,0,1-8.083.128c-2.692-.054-5.383-.145-8.073-.226l-8.07-.293c-1.344-.055-2.69-.1-4.033-.131-1.336-.047-2.711-.039-4.022-.127l4.021-.178c1.349-.035,2.7-.039,4.044-.042,2.7,0,5.388.068,8.081.15s5.384.2,8.073.372c1.344.084,2.687.163,4.031.227S2643.044,2562.051,2644.389,2562.017Z" transform="translate(-2612.107 -2561.146)" fill="#35456b"/>
      </g>
      <g id="Grupo_1060" data-name="Grupo 1060" transform="translate(482.166 916.128)">
        <path id="Caminho_2204" data-name="Caminho 2204" d="M483.268,2453.258l7.814-.142,7.813-.107,15.627-.21,31.254-.261c10.418-.106,20.837-.113,31.255-.167l31.255-.052,31.254.051c10.418.055,20.836.061,31.255.167l31.254.262,15.627.211,7.813.107,7.814.142a1.122,1.122,0,0,1,0,2.244l-7.814.142-7.813.107-15.627.211-31.254.262c-10.418.106-20.837.111-31.255.167l-31.254.05-31.255-.052c-10.418-.054-20.836-.062-31.255-.167l-31.254-.262-15.627-.21-7.813-.107-7.814-.141a1.122,1.122,0,0,1,0-2.244Z" transform="translate(-482.166 -2452.319)" fill="#35456b"/>
      </g>
      <g id="Grupo_1061" data-name="Grupo 1061" transform="translate(522.581 916.628)">
        <path id="Caminho_2205" data-name="Caminho 2205" d="M1034.9,2478.629l17.941-16.678a.352.352,0,0,0,.113-.258v-3a.352.352,0,0,0-.374-.352l-57.388,3.5-26.634,16.783Z" transform="translate(-968.561 -2458.343)" fill="#3e8dff"/>
      </g>
      <g id="Grupo_1062" data-name="Grupo 1062" transform="translate(522.583 918.585)" opacity="0.3">
        <path id="Caminho_2206" data-name="Caminho 2206" d="M1052.973,2481.89v1.392a.351.351,0,0,1-.114.26l-17.941,16.679h-66.34l4.854-3.06h60.274Z" transform="translate(-968.578 -2481.89)" fill="#6b184e"/>
      </g>
      <g id="Grupo_1063" data-name="Grupo 1063" transform="translate(518.19 915.361)">
        <path id="Caminho_2207" data-name="Caminho 2207" d="M986.94,2465.906H915.707l30.625-19.3,57.712-3.522a1.62,1.62,0,0,1,1.719,1.618v3a1.627,1.627,0,0,1-.514,1.185Zm-62.449-2.536h61.452l17.283-16.067v-1.625l-56.092,3.423Z" transform="translate(-915.707 -2443.084)" fill="#35456b"/>
      </g>
      <g id="Grupo_1064" data-name="Grupo 1064" transform="translate(522.581 916.606)">
        <path id="Caminho_2208" data-name="Caminho 2208" d="M1034.9,2471.335l18.053-13.259H995.2l-26.634,13.259Z" transform="translate(-968.561 -2458.076)" fill="#3e8dff"/>
      </g>
      <g id="Grupo_1065" data-name="Grupo 1065" transform="translate(541.11 919.565)">
        <path id="Caminho_2209" data-name="Caminho 2209" d="M1234.712,2502.313l11.744-8.625H1208.88l-17.326,8.625Z" transform="translate(-1191.555 -2493.688)" fill="#fff"/>
      </g>
      <g id="Grupo_1066" data-name="Grupo 1066" transform="translate(519.048 915.775)">
        <path id="Caminho_2210" data-name="Caminho 2210" d="M996.183,2463H926.034l29.972-14.92h56.881a1.184,1.184,0,0,1,.7,2.138Zm-63.081-1.662h62.536l15.79-11.6H956.4Z" transform="translate(-926.034 -2448.077)" fill="#35456b"/>
      </g>
      <g id="Grupo_1067" data-name="Grupo 1067" transform="translate(497.238 880.475)">
        <path id="Caminho_2211" data-name="Caminho 2211" d="M753.538,2080.463H678.069a1.748,1.748,0,0,1-1.259-.533,1.769,1.769,0,0,1-.45-.808l-12.693-51.514a3.524,3.524,0,0,1,3.421-4.369h70.456a5.286,5.286,0,0,1,5.042,3.7c.035.1.066.212.092.321l12.569,51.015A1.762,1.762,0,0,1,753.538,2080.463Z" transform="translate(-663.562 -2023.239)" fill="#3e8dff"/>
      </g>
      <g id="Grupo_1068" data-name="Grupo 1068" transform="translate(510.486 884.178)" opacity="0.3">
        <path id="Caminho_2212" data-name="Caminho 2212" d="M899.724,2121.331H824.255A1.748,1.748,0,0,1,823,2120.8c9.252.447,41.411.7,56.767-15.867,9.833-10.61,9.991-27.231,9.008-37.121.035.1.067.212.092.321l12.569,51.015A1.762,1.762,0,0,1,899.724,2121.331Z" transform="translate(-822.996 -2067.81)" fill="#6b184e"/>
      </g>
      <g id="Grupo_1069" data-name="Grupo 1069" transform="translate(497.238 880.475)" opacity="0.35">
        <path id="Caminho_2213" data-name="Caminho 2213" d="M667.526,2029.156l12.642,51.307h-2.1a1.76,1.76,0,0,1-1.709-1.341l-12.693-51.514a3.524,3.524,0,0,1,3.421-4.369h70.456a5.285,5.285,0,0,1,5.086,3.849,5.234,5.234,0,0,0-.672-.044H669.181A1.7,1.7,0,0,0,667.526,2029.156Z" transform="translate(-663.562 -2023.239)" fill="#fff"/>
      </g>
      <g id="Grupo_1070" data-name="Grupo 1070" transform="translate(495.969 879.207)">
        <path id="Caminho_2214" data-name="Caminho 2214" d="M739.528,2067.734H664.061a3.024,3.024,0,0,1-2.943-2.306l-12.693-51.514a4.793,4.793,0,0,1,4.654-5.94h70.456a6.543,6.543,0,0,1,6.365,4.987l12.57,51.016a3.031,3.031,0,0,1-2.943,3.756Zm-86.449-57.223a2.257,2.257,0,0,0-2.191,2.8l12.693,51.514a.493.493,0,0,0,.48.376h75.467a.495.495,0,0,0,.48-.613l-12.57-51.016a4.012,4.012,0,0,0-3.9-3.058Z" transform="translate(-648.284 -2007.975)" fill="#35456b"/>
      </g>
      <g id="Grupo_1071" data-name="Grupo 1071" transform="translate(649.165 921.876)" opacity="0.35">
        <path id="Caminho_2215" data-name="Caminho 2215" d="M2504.667,2521.558l-5.143,17.808h-7.54l7.185-17.865Z" transform="translate(-2491.984 -2521.501)" fill="#35456b"/>
      </g>
      <g id="Grupo_1072" data-name="Grupo 1072" transform="translate(595.187 921.117)">
        <path id="Caminho_2216" data-name="Caminho 2216" d="M1862.87,2512.363l-20.506,18.509s18.277-.941,26.759-.917c6.916.02,30.052,1.791,30.052,1.791l5.38-18.624Z" transform="translate(-1842.363 -2512.363)" fill="#fff"/>
      </g>
      <g id="Grupo_1073" data-name="Grupo 1073" transform="translate(591.687 919.84)">
        <path id="Caminho_2217" data-name="Caminho 2217" d="M1861.486,2519l-1.029-.079c-.231-.018-23.168-1.768-29.959-1.788-8.339-.018-26.508.906-26.69.915l-3.565.184,23.529-21.236,43.841.8Zm-31.305-4.4h.325c6.131.017,24.5,1.37,29.116,1.717l4.635-16.043-39.53-.721-17.5,15.792C1812.9,2515.072,1823.968,2514.592,1830.181,2514.592Z" transform="translate(-1800.243 -2496.991)" fill="#35456b"/>
      </g>
      <g id="Grupo_1074" data-name="Grupo 1074" transform="translate(620.366 890.799)">
        <path id="Caminho_2218" data-name="Caminho 2218" d="M2151.73,2178.061a20.242,20.242,0,0,1-1.6,8.033l-.439,1.012a1.17,1.17,0,0,1-2.262,0l-.452-1.049a20.2,20.2,0,0,1-1.595-7.957v-28.818c0-.99,1.4-1.8,3.132-1.8s3.129.8,3.129,1.8a.793.793,0,0,1-.011.142Z" transform="translate(-2145.384 -2147.488)" fill="#35456b"/>
      </g>
      <g id="Grupo_1075" data-name="Grupo 1075" transform="translate(606.977 933.642)">
        <path id="Caminho_2219" data-name="Caminho 2219" d="M2025.928,2664.663c-1.74-.028-3.477-.1-5.214-.143l-5.208-.208c-3.469-.171-6.943-.28-10.416-.381-3.472-.142-6.945-.247-10.417-.356-1.737-.066-3.467-.077-5.208-.109-1.739-.052-3.478-.082-5.214-.153,3.477-.114,6.947-.22,10.431-.218s6.954.121,10.43.213l5.211.221c1.737.072,3.473.169,5.207.306l5.2.381C2022.465,2664.366,2024.2,2664.495,2025.928,2664.663Z" transform="translate(-1984.251 -2663.095)" fill="#35456b"/>
      </g>
      <g id="Grupo_1076" data-name="Grupo 1076" transform="translate(624.268 930.788)">
        <path id="Caminho_2220" data-name="Caminho 2220" d="M2218.579,2630.1q-3.289-.038-6.567-.193c-1.093-.044-2.185-.11-3.277-.165s-2.183-.14-3.274-.184l-6.551-.321c-2.185-.095-4.368-.22-6.558-.281,2.186-.182,4.381-.219,6.571-.205s4.381.082,6.57.185c2.191.119,4.37.3,6.552.488S2216.4,2629.837,2218.579,2630.1Z" transform="translate(-2192.351 -2628.749)" fill="#35456b"/>
      </g>
      <g id="Grupo_1077" data-name="Grupo 1077" transform="translate(615.954 864.686)">
        <path id="Caminho_2221" data-name="Caminho 2221" d="M2132.4,1833.225a88.868,88.868,0,0,1,6.789,27.288c1,14.774-.448,35.776-34.851,32.928-12.06-1-11.474-6.123-11.922-12.169-.555-7.491.3-16.093,9.053-16.414,15.817-.581,20.541-4.029,22.788-13.728" transform="translate(-2092.286 -1833.225)" fill="#fff"/>
      </g>
      <g id="Grupo_1078" data-name="Grupo 1078" transform="translate(615.954 900.217)" opacity="0.35">
        <path id="Caminho_2222" data-name="Caminho 2222" d="M2139.321,2260.836c-.669,13.207-6.652,27.028-34.981,24.685-12.062-1-11.475-6.123-11.922-12.169-.3-4.1-.184-8.533,1.42-11.758.016.891.061,1.782.127,2.657.447,6.043-.14,11.171,11.919,12.167C2127.624,2278.218,2136.2,2270.494,2139.321,2260.836Z" transform="translate(-2092.285 -2260.836)" fill="#35456b"/>
      </g>
      <g id="Grupo_1079" data-name="Grupo 1079" transform="translate(644.01 882.48)">
        <path id="Caminho_2223" data-name="Caminho 2223" d="M2430.051,2054.052c.262-.547.57-1.051.872-1.575s.627-1.045.931-1.595c.62-1.094,1.186-2.258,1.854-3.436a.155.155,0,0,1,.21-.059.156.156,0,0,1,.079.126,13.746,13.746,0,0,1-.4,4.05,10.045,10.045,0,0,1-.684,1.965,6.442,6.442,0,0,1-1.186,1.748,1.051,1.051,0,0,1-1.694-1.192Z" transform="translate(-2429.934 -2047.367)" fill="#35456b"/>
      </g>
      <g id="Grupo_1080" data-name="Grupo 1080" transform="translate(614.689 863.418)">
        <path id="Caminho_2224" data-name="Caminho 2224" d="M2096.344,1880.968q-2.9,0-6.062-.261c-12.3-1.019-12.657-6.648-13-12.093-.026-.41-.052-.826-.083-1.247-.518-6.995.484-11.8,3.065-14.679a9.727,9.727,0,0,1,7.206-3.1c10.063-.369,15.37-1.919,18.316-5.35a1.268,1.268,0,1,1,1.924,1.653c-3.46,4.028-9.3,5.834-20.147,6.232a7.2,7.2,0,0,0-5.41,2.253c-2.1,2.342-2.89,6.529-2.425,12.8.032.43.059.855.084,1.275.336,5.351.558,8.885,10.677,9.723,12.628,1.045,21.778-1.13,27.2-6.467,6.633-6.533,6.843-16.852,6.285-25.112a88.168,88.168,0,0,0-6.678-26.848,1.268,1.268,0,1,1,2.309-1.05,89.205,89.205,0,0,1,6.9,27.727c.595,8.8.333,19.834-7.036,27.091C2114.439,1878.471,2106.677,1880.968,2096.344,1880.968Z" transform="translate(-2077.069 -1817.957)" fill="#35456b"/>
      </g>
      <g id="Grupo_1081" data-name="Grupo 1081" transform="translate(643.392 888.912)">
        <path id="Caminho_2225" data-name="Caminho 2225" d="M2437.253,2152.978h-.056a1.268,1.268,0,0,1-1.212-1.322c.9-20.857-11.965-24.241-12.513-24.375a1.268,1.268,0,0,1,.586-2.468,17.3,17.3,0,0,1,7.727,4.84c3.357,3.494,7.25,10.166,6.733,22.112A1.268,1.268,0,0,1,2437.253,2152.978Z" transform="translate(-2422.502 -2124.779)" fill="#35456b"/>
      </g>
      <g id="Grupo_1089" data-name="Grupo 1089" transform="translate(528.159 895.162)">
        <g id="Grupo_1082" data-name="Grupo 1082">
          <path id="Caminho_2226" data-name="Caminho 2226" d="M1061.063,2203.118a8.616,8.616,0,0,0-.349-2.608c-.089-.083-.173-.17-.263-.254-.262-.052-.522-.133-.79-.159a16.589,16.589,0,0,0-5.619.341,12.03,12.03,0,0,0-6.242,3.519c-.614.666-1.157,1.4-1.716,2.109a.434.434,0,0,1-.536.208,5.063,5.063,0,0,0-1.9-.136,7.974,7.974,0,0,0-4.416,2.054,17.123,17.123,0,0,0-3.363,4.22.874.874,0,0,0,.652,1.417c.482.081.964.158,1.445.239q1.731.286,3.456.569a.186.186,0,0,1-.017.141,1.151,1.151,0,0,0,.384,1.624c.061.049.115.11.17.164.3.294.612.592.932.9-.323.337-.646.632-.92.969a1.313,1.313,0,0,0-.277.623.769.769,0,0,0,.5.808.82.82,0,0,0,.943-.173c.338-.326.655-.672,1-1.024.436.424.848.825,1.26,1.22a1,1,0,0,0,1.347.233c.107-.052.213-.092.34-.144.029.13.055.234.075.332.317,1.575.629,3.153.955,4.722a.866.866,0,0,0,1.428.586c.568-.381,1.134-.779,1.685-1.194a12.186,12.186,0,0,0,3.208-3.447,6.561,6.561,0,0,0,.828-5.541.316.316,0,0,1,.084-.277c.557-.49,1.133-.958,1.69-1.451a11.239,11.239,0,0,0,2.864-4.012A15.01,15.01,0,0,0,1061.063,2203.118Zm-18.957,9.88-4.134-.69a10.784,10.784,0,0,1,4.367-4.064,4.273,4.273,0,0,1,2.446-.346C1043.9,2209.588,1043.011,2211.278,1042.106,2213Zm11.668,4.918a6.415,6.415,0,0,1-1.3,2.873,13.747,13.747,0,0,1-2.893,2.717q-.437-2.172-.862-4.252l5-2.867A3.525,3.525,0,0,1,1053.773,2217.916Zm5.158-10.768a10.73,10.73,0,0,1-1.869,4,14.164,14.164,0,0,1-2.478,2.4,41.988,41.988,0,0,1-8.036,4.756.253.253,0,0,1-.343-.049c-.251-.262-.525-.51-.787-.767a.407.407,0,0,1-.055-.089c.067-.072.138-.144.21-.219,1.494-1.552,3-3.1,4.491-4.656a.865.865,0,1,0-1.243-1.2q-1.35,1.393-2.694,2.789c-.669.692-1.333,1.382-2.028,2.1-.323-.312-.632-.594-.917-.9a.339.339,0,0,1,.012-.3c.7-1.48,1.387-2.965,2.126-4.427a25.436,25.436,0,0,1,2.593-4.107,11.328,11.328,0,0,1,3.308-3.086,11.124,11.124,0,0,1,2.723-1.128.384.384,0,0,1,.3.115c1.183,1.131,2.354,2.264,3.528,3.4.352.337.7.684,1.061,1.015A.308.308,0,0,1,1058.931,2207.148Zm.317-1.878c-1.171-1.134-2.313-2.236-3.458-3.343,0-.029,0-.063,0-.1l3.418-.1A15.476,15.476,0,0,1,1059.248,2205.27Z" transform="translate(-1035.692 -2200)" fill="#35456b"/>
        </g>
        <g id="Grupo_1083" data-name="Grupo 1083" transform="translate(7.46 2.267)">
          <path id="Caminho_2227" data-name="Caminho 2227" d="M1141.158,2231.821c-.36-.332-.71-.678-1.062-1.015-1.174-1.137-2.345-2.27-3.528-3.4a.383.383,0,0,0-.3-.115,11.132,11.132,0,0,0-2.723,1.128,11.335,11.335,0,0,0-3.308,3.086,25.44,25.44,0,0,0-2.593,4.108c-.738,1.462-1.428,2.948-2.126,4.428a.337.337,0,0,0-.012.3c.286.3.594.586.917.9.7-.721,1.359-1.41,2.028-2.1q1.346-1.4,2.694-2.789a.866.866,0,1,1,1.243,1.2c-1.494,1.554-3,3.1-4.491,4.656-.072.075-.144.147-.211.219a.4.4,0,0,0,.055.089c.262.257.536.505.787.768a.253.253,0,0,0,.343.049,41.967,41.967,0,0,0,8.036-4.756,14.154,14.154,0,0,0,2.478-2.4,10.727,10.727,0,0,0,1.869-4A.308.308,0,0,0,1141.158,2231.821Zm-2.671,2.4a2.945,2.945,0,1,1-.089-4.148A2.957,2.957,0,0,1,1138.487,2234.224Z" transform="translate(-1125.474 -2227.284)" fill="#fff"/>
        </g>
        <g id="Grupo_1084" data-name="Grupo 1084" transform="translate(20.097 1.73)">
          <path id="Caminho_2228" data-name="Caminho 2228" d="M1281.019,2224.362l-3.459-3.343c0-.03,0-.062,0-.095,1.134-.033,2.271-.065,3.42-.1A15.488,15.488,0,0,1,1281.019,2224.362Z" transform="translate(-1277.56 -2220.824)" fill="#db2c2c"/>
        </g>
        <g id="Grupo_1085" data-name="Grupo 1085" transform="translate(2.28 7.836)">
          <path id="Caminho_2229" data-name="Caminho 2229" d="M1069.951,2294.368l-2.68,5.1c-1.335-.224-2.716-.454-4.135-.689a10.761,10.761,0,0,1,4.368-4.065A4.255,4.255,0,0,1,1069.951,2294.368Z" transform="translate(-1063.137 -2294.307)" fill="#db2c2c"/>
        </g>
        <g id="Grupo_1086" data-name="Grupo 1086" transform="translate(13.022 16.385)">
          <path id="Caminho_2230" data-name="Caminho 2230" d="M1196.166,2401.6a13.648,13.648,0,0,1-2.893,2.717q-.438-2.171-.862-4.252c1.69-.969,3.343-1.914,5.006-2.868a3.571,3.571,0,0,1,.054,1.531A6.383,6.383,0,0,1,1196.166,2401.6Z" transform="translate(-1192.412 -2397.196)" fill="#db2c2c"/>
        </g>
        <g id="Grupo_1087" data-name="Grupo 1087" transform="translate(15.406 4.232)">
          <path id="Caminho_2231" data-name="Caminho 2231" d="M1226.084,2251.759a2.938,2.938,0,1,0,.089,4.148A2.941,2.941,0,0,0,1226.084,2251.759Zm-.943,3.2a1.549,1.549,0,1,1-.012-2.209A1.558,1.558,0,0,1,1225.141,2254.963Z" transform="translate(-1221.107 -2250.932)" fill="#35456b"/>
        </g>
        <g id="Grupo_1088" data-name="Grupo 1088" transform="translate(16.796 5.621)">
          <path id="Caminho_2232" data-name="Caminho 2232" d="M1240.471,2270.3a1.549,1.549,0,1,1-.012-2.21A1.559,1.559,0,0,1,1240.471,2270.3Z" transform="translate(-1237.827 -2267.653)" fill="#22a7f0"/>
        </g>
      </g>
    </g>
  </g>
</svg>
