<svg xmlns="http://www.w3.org/2000/svg" xmlns:xlink="http://www.w3.org/1999/xlink" width="428" height="926" viewBox="0 0 428 926">
  <defs>
    <clipPath id="clip-path">
      <rect id="Ret칙ngulo_1" data-name="Ret칙ngulo 1" width="428" height="926" fill="#fff"/>
    </clipPath>
  </defs>
  <g id="Grupo_de_m치scara_1" data-name="Grupo de m치scara 1" opacity="0.999" clip-path="url(#clip-path)">
    <g id="Grupo_3" data-name="Grupo 3">
      <g id="Grupo_1" data-name="Grupo 1" transform="translate(-8.709 -8)">
        <path id="_17" data-name="17" d="M352.783,0c62.256.845,115.9,44.041,142.344,98.38,64.716,132.967-13.6,273.466-98.688,375.305-56.107,67.175-119.9,128.586-166.478,203.294-26.67,42.734-61.8,118.518-122.9,103.53a107.272,107.272,0,0,1-75.169-37.2C-15.605,687.045-4,608.418,27.282,547.468,65.174,473.606,129.813,416.576,162.325,339.64c30.513-72.171,24.749-153.489,52.8-226.275C237.877,54.644,284.839-.848,352.783,0Z" transform="translate(563.212 602.911) rotate(120)" fill="#2560d6"/>
      </g>
      <path id="_24" data-name="24" d="M307.251,1.483A59.062,59.062,0,0,1,347.529,34.1c12.19,26.448-2.252,46.086-14.177,67.55-12.057,21.76-14.574,54.968-13.912,79.886.707,27.78,2.341,56.2-5.344,83.093-11.748,40.856-45.357,60.346-76.891,79.639-16.827,10.263-33.565,21.217-46.947,36.76-13.78,16.036-24.026,35.329-37.364,51.81-12.234,15.1-27.073,26.744-45.313,30.3-18.682,3.651-38.512-.789-54.985-11.1C16.2,429.186-.315,380.88-.005,336.175c.353-53.833,21.464-103.521,42.133-150.89,18.019-41.349,33.521-89.014,73.491-109.492,20.316-10.411,42.663-14.408,63.333-23.833,22.348-10.214,42.222-25.9,64.039-37.4C262.733,4.2,285.3-3.3,307.251,1.483Z" transform="matrix(-0.105, -0.995, 0.995, -0.105, 120.761, 1060.424)" fill="#227fe6"/>
      <path id="_16" data-name="16" d="M255.963,113.912c1.378-16.67,4.291-33.263,3.849-50.037-.6-23.328-9.675-49.777-32.769-59.53C198.2-7.827,167.929,8.974,139.035,11.522,108.711,14.2,79.687-3.432,49.415,3.356,23.695,9.13-1.428,33.212.028,61.144c.728,14.07,9.857,24.525,16.983,35.942a76.184,76.184,0,0,1,11.365,45.746c-.962,13.238-6.762,28.218.286,40.753,5.774,10.351,18.075,14.85,29.206,16.384,15.11,2.107,30.454.182,45.59,1.716,15.734,1.586,28.192,8.686,40.935,17.5,11.469,7.932,23.016,15.318,37.06,17.425a64.494,64.494,0,0,0,66.162-32.119c7.282-12.717,9.232-27.1,9.024-41.559C256.431,146.551,254.61,130.348,255.963,113.912Z" transform="matrix(-0.966, -0.259, 0.259, -0.966, 179.4, 1015.702)" fill="#5427a8"/>
      <g id="Grupo_2" data-name="Grupo 2" transform="translate(-8.709 -8)">
        <path id="_17-2" data-name="17" d="M352.783,0c62.256.845,115.9,44.041,142.344,98.38,64.716,132.967-13.6,273.466-98.688,375.305-56.107,67.175-119.9,128.586-166.478,203.294-26.67,42.734-61.8,118.518-122.9,103.53a107.272,107.272,0,0,1-75.169-37.2C-15.605,687.045-4,608.418,27.282,547.468,65.174,473.606,129.813,416.576,162.325,339.64c30.513-72.171,24.749-153.489,52.8-226.275C237.877,54.644,284.839-.848,352.783,0Z" transform="translate(563.212 602.911) rotate(120)" fill="none"/>
        <path id="_15" data-name="15" d="M.2,335.181c1.7-39.1,15.073-80.357,44.653-107.394,32.218-29.392,76.118-31.465,117.474-31.936,49.741-.565,99.952-2.449,131.888-46.255,26.472-36.269,37.965-81.205,73.292-111.163C497.421-71.5,654.179,75.645,678.955,210.264c8.384,45.69,2.073,93.546-23.175,133.112-24.022,37.588-60.574,64.813-96.561,90.061-41.356,29.015-84.6,57.371-114.177,99.293-14.225,20.254-24.776,43.523-27.32,68.3-2.732,27.414,4.333,54.357,15.45,79.227,21.29,47.48,55.581,88.365,70.654,138.859,12.152,40.6,9.8,87.046-22.986,117.474C453.9,961.554,414.426,970.6,378.722,965.416c-43.146-6.218-80.075-34.2-107.112-67.074-31.559-38.436-51.059-84.314-69.9-129.909-22.044-53.415-47.291-103.249-79.227-151.388C66.713,533.107-4.412,441.727.2,335.181Z" transform="translate(-377.887 -364.386)" fill="none"/>
      </g>
      <path id="_24-2" data-name="24" d="M307.251,1.483A59.062,59.062,0,0,1,347.529,34.1c12.19,26.448-2.252,46.086-14.177,67.55-12.057,21.76-14.574,54.968-13.912,79.886.707,27.78,2.341,56.2-5.344,83.093-11.748,40.856-45.357,60.346-76.891,79.639-16.827,10.263-33.565,21.217-46.947,36.76-13.78,16.036-24.026,35.329-37.364,51.81-12.234,15.1-27.073,26.744-45.313,30.3-18.682,3.651-38.512-.789-54.985-11.1C16.2,429.186-.315,380.88-.005,336.175c.353-53.833,21.464-103.521,42.133-150.89,18.019-41.349,33.521-89.014,73.491-109.492,20.316-10.411,42.663-14.408,63.333-23.833,22.348-10.214,42.222-25.9,64.039-37.4C262.733,4.2,285.3-3.3,307.251,1.483Z" transform="matrix(-0.105, -0.995, 0.995, -0.105, 101.376, 1103.424)" fill="none" stroke="#fff" stroke-width="2"/>
    </g>
  </g>
</svg>
