<svg xmlns="http://www.w3.org/2000/svg" width="166.726" height="147.128" viewBox="0 0 166.726 147.128">
  <g id="Grupo_752" data-name="Grupo 752" transform="translate(-130.637 -149.098)">
    <ellipse id="Elipse_79" data-name="Elipse 79" cx="36.447" cy="6.728" rx="36.447" ry="6.728" transform="translate(134.607 281.77)" opacity="0.098"/>
    <ellipse id="Elipse_80" data-name="Elipse 80" cx="36.447" cy="6.728" rx="36.447" ry="6.728" transform="translate(217.607 282.77)" opacity="0.098"/>
    <g id="Grupo_751" data-name="Grupo 751" transform="translate(100.396 110.544)">
      <g id="Grupo_749" data-name="Grupo 749" transform="translate(31.133 96.431)">
        <g id="Grupo_734" data-name="Grupo 734" transform="translate(5.482 5.108)">
          <path id="Caminho_1359" data-name="Caminho 1359" d="M95.577,178.553c-5.035,0-9.576,4.568-16.369,4.568s-11.335-4.568-16.37-4.568c-9.951,0-20.737,14.2-19.277,25.6,1.628,12.707,15.772,51.011,25.536,51.011,4.82,0,4.8-9.57,7.261-19.841,1.126-4.694,3.38-5.258,4.506.375,2.109,10.543,3.943,19.466,8.455,19.466,9.764,0,24.19-40.8,25.536-51.011C116.356,192.76,105.273,178.553,95.577,178.553Z" transform="translate(-43.427 -178.553)" fill="#f6dfc2" stroke="#223659" stroke-width="1.684"/>
          <path id="Caminho_1360" data-name="Caminho 1360" d="M76.759,239.726c4.645.375,3.724-13.644,13.332-14.215,5.518-.328,7.957,2.417,8.771,6.673.861,4.5.541,8.706,5.383,8.417s18.066-21.154,17.707-34.39c-.164-6.05-2.725-12.856-5.571-18.18a10.324,10.324,0,0,0-9.548-5.355c-4.876.178-9.23,3.423-13.363,5.667-5.567,3.023-9.661-2.033-14.679-3.389A11.266,11.266,0,0,0,66.4,188.9c-3.831,4.789-3.9,11.871-2.506,17.587C64.908,210.654,72.114,239.35,76.759,239.726Z" transform="translate(-54.309 -180.834)" fill="#fff9c6" style="mix-blend-mode: soft-light;isolation: isolate"/>
          <path id="Caminho_1361" data-name="Caminho 1361" d="M107.12,191.34c3.3.349,6.032-.453,9.17-1.349,3.048-.87,6.4-1.4,9.341.14,6.017,3.141,8.863,10.914,10,17.2a35.2,35.2,0,0,1,.592,11.452,26.017,26.017,0,0,1-.764,3.411c2.375-5.437,4.014-11.206,3.885-15.981-.164-6.05-2.725-12.856-5.571-18.18a10.324,10.324,0,0,0-9.548-5.355c-4.876.178-9.23,3.423-13.363,5.667-5.567,3.023-9.661-2.033-14.679-3.389a14.387,14.387,0,0,0-1.728-.357A21,21,0,0,0,107.12,191.34Z" transform="translate(-71.697 -180.834)" fill="#fff9c6" style="mix-blend-mode: soft-light;isolation: isolate"/>
          <path id="Caminho_1362" data-name="Caminho 1362" d="M89.28,229.659c-2.155-.014-3.8-1.114-5.163,1.1a6.687,6.687,0,0,0-.5,5.786c1.9,4.177,8.628.88,6.29-3.258Z" transform="translate(-65.447 -206.711)" fill="#e5d7ce" style="mix-blend-mode: multiply;isolation: isolate"/>
          <path id="Caminho_1363" data-name="Caminho 1363" d="M94.864,184.75a10.929,10.929,0,0,0,8.9,2.039c3.758-.665,7.919-2.656,9.312-5.873a21.439,21.439,0,0,1-8.772,2.253c-6.439,0-10.855-4.1-15.585-4.529C90.777,180.662,92.6,182.917,94.864,184.75Z" transform="translate(-68.519 -178.601)" fill="#e5d7ce" style="mix-blend-mode: multiply;isolation: isolate"/>
          <path id="Caminho_1364" data-name="Caminho 1364" d="M100.76,269.917c-1.839,2.733-6.8,6.193-10.624,5.156-3.755-1.017-4.077-6.294-4.793-9.374-.337-1.448-.562-4-2.127-4.694a5.739,5.739,0,0,0-5.026.28,12.808,12.808,0,0,0-5.881,8.637c-.485,3.175-1.064,7.684-5.164,7.769-2.155.045-3.258-2.322-4.523-3.785C60.577,271.545,51.44,255.4,44.381,240.1c2.589,14.2,15.915,49.164,25.244,49.164,4.82,0,4.8-9.57,7.261-19.841,1.126-4.694,3.38-5.258,4.506.375,2.109,10.543,3.943,19.466,8.455,19.466,7.055,0,16.542-21.3,21.772-36.969C108.145,259.4,104.785,263.934,100.76,269.917Z" transform="translate(-43.956 -212.653)" fill="#e5d7ce" style="mix-blend-mode: multiply;isolation: isolate"/>
          <g id="Grupo_729" data-name="Grupo 729" transform="translate(19.689 22.903)">
            <path id="Caminho_1365" data-name="Caminho 1365" d="M94.9,233.574a3.661,3.661,0,1,1-3.662-3.662A3.661,3.661,0,0,1,94.9,233.574Z" transform="translate(-87.579 -229.912)" fill="#223659"/>
            <path id="Caminho_1366" data-name="Caminho 1366" d="M98.58,239.2a1.08,1.08,0,1,1-1.08-1.08A1.08,1.08,0,0,1,98.58,239.2Z" transform="translate(-92.478 -234.461)" fill="#fff"/>
            <path id="Caminho_1367" data-name="Caminho 1367" d="M96.252,235.7a.7.7,0,1,1-.7-.7A.7.7,0,0,1,96.252,235.7Z" transform="translate(-91.613 -232.731)" fill="#fff"/>
          </g>
          <g id="Grupo_730" data-name="Grupo 730" transform="translate(46.275 22.903)">
            <path id="Caminho_1368" data-name="Caminho 1368" d="M147.2,233.574a3.661,3.661,0,1,0,3.661-3.662A3.661,3.661,0,0,0,147.2,233.574Z" transform="translate(-147.198 -229.912)" fill="#223659"/>
            <path id="Caminho_1369" data-name="Caminho 1369" d="M149.935,239.2a1.08,1.08,0,1,0,1.08-1.08A1.079,1.079,0,0,0,149.935,239.2Z" transform="translate(-148.714 -234.461)" fill="#fff"/>
            <path id="Caminho_1370" data-name="Caminho 1370" d="M153.215,235.7a.7.7,0,1,0,.7-.7A.7.7,0,0,0,153.215,235.7Z" transform="translate(-150.532 -232.731)" fill="#fff"/>
          </g>
          <path id="Caminho_1371" data-name="Caminho 1371" d="M159.137,223.1a15,15,0,0,1-7.448-2.316" transform="translate(-103.411 -201.954)" fill="none" stroke="#223659" stroke-linecap="round" stroke-linejoin="round" stroke-width="2.526"/>
          <path id="Caminho_1372" data-name="Caminho 1372" d="M85.42,223.1a15,15,0,0,0,7.448-2.316" transform="translate(-66.694 -201.954)" fill="none" stroke="#223659" stroke-linecap="round" stroke-linejoin="round" stroke-width="2.526"/>
          <g id="Grupo_731" data-name="Grupo 731" transform="translate(28.577 2.631)">
            <path id="Caminho_1373" data-name="Caminho 1373" d="M122.039,185.189s-.23.066-.615.192c-.186.071-.408.142-.673.251s-.561.225-.886.363a41.5,41.5,0,0,1-4.879,1.819c-.453.142-.919.238-1.369.356-.459.088-.905.2-1.345.261s-.861.144-1.266.177-.785.094-1.139.1l-.965.051-.744,0h-.648l.647-.033.742-.039.958-.1c.351-.027.727-.1,1.126-.159s.815-.153,1.245-.237.867-.215,1.315-.324c.44-.14.893-.256,1.332-.418a41.091,41.091,0,0,0,4.731-2.039c.319-.154.615-.293.88-.413s.511-.219.706-.3c.391-.149.611-.225.611-.225l.009,0a.376.376,0,1,1,.244.711Z" transform="translate(-107.509 -184.452)" fill="#223659"/>
          </g>
          <path id="Caminho_1374" data-name="Caminho 1374" d="M70.422,188.668a3.111,3.111,0,0,0-1.757.849,4.974,4.974,0,0,0-1.371,1.753.035.035,0,0,0,.061.035,5.987,5.987,0,0,1,1.5-1.547c.492-.374,1.209-.521,1.632-.945A.085.085,0,0,0,70.422,188.668Z" transform="translate(-56.648 -184.156)" fill="#223659"/>
          <path id="Caminho_1375" data-name="Caminho 1375" d="M73.412,189.88a2.729,2.729,0,0,0-1.925,1.21c-.019.036.022.087.06.06a4.793,4.793,0,0,1,1.984-.837C73.815,190.261,73.694,189.829,73.412,189.88Z" transform="translate(-58.971 -184.826)" fill="#223659"/>
          <path id="Caminho_1376" data-name="Caminho 1376" d="M71.872,298.7c-.288-.372-.671-.631-.987-.979a3.21,3.21,0,0,1-.8-1.532c-.006-.033-.049-.021-.052.007-.116,1.043.661,2.508,1.811,2.579C71.884,298.779,71.894,298.728,71.872,298.7Z" transform="translate(-58.161 -243.721)" fill="#223659"/>
          <path id="Caminho_1377" data-name="Caminho 1377" d="M75.026,298.931c-.55-.488-1.325-.693-1.78-1.3a.044.044,0,0,0-.081.034,1.894,1.894,0,0,0,1.827,1.351A.048.048,0,0,0,75.026,298.931Z" transform="translate(-59.903 -244.517)" fill="#223659"/>
          <path id="Caminho_1378" data-name="Caminho 1378" d="M176.266,289.3c-.33.661-.447,1.408-.788,2.079-.332.65-.809,1.2-1.2,1.817a.018.018,0,0,0,.024.024,5.267,5.267,0,0,0,2.166-3.865C176.465,289.253,176.318,289.195,176.266,289.3Z" transform="translate(-115.927 -239.883)" fill="#223659"/>
          <path id="Caminho_1379" data-name="Caminho 1379" d="M176.384,286.855a.076.076,0,0,0-.137-.018,3.026,3.026,0,0,0-.34,1.146,7.468,7.468,0,0,1-.354,1.211c-.048.118.129.173.193.082A2.955,2.955,0,0,0,176.384,286.855Z" transform="translate(-116.629 -238.529)" fill="#223659"/>
          <path id="Caminho_1380" data-name="Caminho 1380" d="M160.087,182.587a2.86,2.86,0,0,0-2.682-.071c-.037.016-.017.074.02.074.4,0,.793-.041,1.192-.049.491-.009.952.132,1.437.169C160.126,182.716,160.135,182.622,160.087,182.587Z" transform="translate(-106.567 -180.584)" fill="#223659"/>
          <path id="Caminho_1381" data-name="Caminho 1381" d="M162.863,185.035a2.156,2.156,0,0,0-2.136-.315c-.08.027-.072.165.021.155a2.625,2.625,0,0,1,1.527.3c.148.077.567.411.643.069A.214.214,0,0,0,162.863,185.035Z" transform="translate(-108.388 -181.89)" fill="#223659"/>
          <path id="Caminho_1382" data-name="Caminho 1382" d="M156.975,253.2c0,1-1.576,1.815-3.52,1.815s-3.52-.812-3.52-1.815,1.576-1.815,3.52-1.815S156.975,252.2,156.975,253.2Z" transform="translate(-102.439 -218.908)" fill="#f7b38b"/>
          <path id="Caminho_1383" data-name="Caminho 1383" d="M94.006,253.2c0,1-1.576,1.815-3.521,1.815s-3.52-.812-3.52-1.815,1.576-1.815,3.52-1.815S94.006,252.2,94.006,253.2Z" transform="translate(-67.55 -218.908)" fill="#f7b38b"/>
          <path id="Caminho_1384" data-name="Caminho 1384" d="M105.824,261.2c2.454-3.675,3.85.308,5.559-.15.728-.195,1.358-1,2.125-1.254a2.584,2.584,0,0,1,2.381.309c.754.377,1.124.8,2.028.592s1.375-1.062,2.281-1.346c1.889-.592,2.037.552,3.168,1.85" transform="translate(-77.999 -223.231)" fill="none" stroke="#223659" stroke-linecap="round" stroke-width="1.684"/>
          <path id="Caminho_1385" data-name="Caminho 1385" d="M188.349,199.484c-1.416-2.372-2.967-4.652-4.545-6.916a3.147,3.147,0,0,1-.433-.36c-.9-.546-1.294-1.141-2.329-.644-1.464.7-1.128,1.391-.677,2.441a4.4,4.4,0,0,1,.495,3c-.324.844-1.331,1.309-1.071,2.521.2.941,1.311,1.366,1.427,2.246.054.409-.331,1.037-.407,1.449-.11.6-.012,1.12-.1,1.661-.317,1.905,3.266.218,3.266.218s.522,3.06,2.5,2.253c2.049-.834,1.774-1.992,3.016-4.173.036-.064.067-.128.1-.191-.311-1.017-.648-2.11-1.039-3.205A3.122,3.122,0,0,1,188.349,199.484Z" transform="translate(-118.957 -185.659)" fill="#e5d7ce" style="mix-blend-mode: multiply;isolation: isolate"/>
          <path id="Caminho_1386" data-name="Caminho 1386" d="M60.193,249.886c1.075,1.477.659,4.788,3.379,4.263.506-.1.726-.634,1.218-.792.683-.219.918.118,1.543.288,1.019.278,1.656.416,1.621-1-.033-1.338-1.135-.949-1.5-2-.3-.865.266-2.14-.4-2.882-1.18-1.316-1.249.079-1.944.537-1.09.719-1.045-.915-2.037-1.386-.815-.386-2.088-.345-2.127.6-.024.56,1.393,1.815-.126,1.753Z" transform="translate(-52.509 -216.299)" fill="#e5d7ce" style="mix-blend-mode: multiply;isolation: isolate"/>
          <g id="Grupo_732" data-name="Grupo 732" transform="translate(46.137 31.392)">
            <path id="Caminho_1387" data-name="Caminho 1387" d="M147.857,250.714a.125.125,0,0,0,0,.25A.125.125,0,0,0,147.857,250.714Z" transform="translate(-147.358 -249.927)" fill="#223659"/>
            <path id="Caminho_1388" data-name="Caminho 1388" d="M150.221,250.233a.465.465,0,0,0,0,.929A.465.465,0,0,0,150.221,250.233Z" transform="translate(-148.486 -249.66)" fill="#223659"/>
            <path id="Caminho_1389" data-name="Caminho 1389" d="M156.2,249.828a.235.235,0,0,0,0,.47A.235.235,0,0,0,156.2,249.828Z" transform="translate(-151.923 -249.436)" fill="#223659"/>
            <path id="Caminho_1390" data-name="Caminho 1390" d="M153.9,251.925a.36.36,0,0,0,0,.72A.36.36,0,0,0,153.9,251.925Z" transform="translate(-150.58 -250.598)" fill="#223659"/>
            <path id="Caminho_1391" data-name="Caminho 1391" d="M158.443,252.452a.4.4,0,0,0,0,.8A.4.4,0,0,0,158.443,252.452Z" transform="translate(-153.076 -250.89)" fill="#223659"/>
            <path id="Caminho_1392" data-name="Caminho 1392" d="M161.439,248.949a.319.319,0,0,0,0,.637A.319.319,0,0,0,161.439,248.949Z" transform="translate(-154.78 -248.949)" fill="#223659"/>
            <path id="Caminho_1393" data-name="Caminho 1393" d="M165.744,250.043a.249.249,0,0,0,0,.5A.249.249,0,0,0,165.744,250.043Z" transform="translate(-157.202 -249.555)" fill="#223659"/>
            <path id="Caminho_1394" data-name="Caminho 1394" d="M165.6,253.608a.1.1,0,0,0,0,.2A.1.1,0,0,0,165.6,253.608Z" transform="translate(-157.2 -251.53)" fill="#223659"/>
            <path id="Caminho_1395" data-name="Caminho 1395" d="M149.908,255.4a.22.22,0,0,0,0,.439A.22.22,0,0,0,149.908,255.4Z" transform="translate(-148.444 -252.521)" fill="#223659"/>
            <path id="Caminho_1396" data-name="Caminho 1396" d="M147.08,252.88a.2.2,0,0,0,0,.4A.2.2,0,0,0,147.08,252.88Z" transform="translate(-146.888 -251.127)" fill="#223659"/>
            <path id="Caminho_1397" data-name="Caminho 1397" d="M154.413,256.252a.058.058,0,0,0,0,.115A.058.058,0,0,0,154.413,256.252Z" transform="translate(-151.027 -252.995)" fill="#223659"/>
            <path id="Caminho_1398" data-name="Caminho 1398" d="M157.7,255.421a.1.1,0,0,0,0,.209A.1.1,0,0,0,157.7,255.421Z" transform="translate(-152.824 -252.535)" fill="#223659"/>
          </g>
          <g id="Grupo_733" data-name="Grupo 733" transform="translate(18.899 31.392)">
            <path id="Caminho_1399" data-name="Caminho 1399" d="M86.776,250.714a.125.125,0,0,0,0,.25A.125.125,0,0,0,86.776,250.714Z" transform="translate(-86.277 -249.927)" fill="#223659"/>
            <path id="Caminho_1400" data-name="Caminho 1400" d="M89.14,250.233a.465.465,0,0,0,0,.929A.465.465,0,0,0,89.14,250.233Z" transform="translate(-87.405 -249.66)" fill="#223659"/>
            <path id="Caminho_1401" data-name="Caminho 1401" d="M95.123,249.828a.235.235,0,0,0,0,.47A.235.235,0,0,0,95.123,249.828Z" transform="translate(-90.843 -249.436)" fill="#223659"/>
            <path id="Caminho_1402" data-name="Caminho 1402" d="M92.818,251.925a.36.36,0,0,0,0,.72A.36.36,0,0,0,92.818,251.925Z" transform="translate(-89.499 -250.598)" fill="#223659"/>
            <path id="Caminho_1403" data-name="Caminho 1403" d="M97.363,252.452a.4.4,0,0,0,0,.8A.4.4,0,0,0,97.363,252.452Z" transform="translate(-91.995 -250.89)" fill="#223659"/>
            <path id="Caminho_1404" data-name="Caminho 1404" d="M100.359,248.949a.319.319,0,0,0,0,.637A.319.319,0,0,0,100.359,248.949Z" transform="translate(-93.699 -248.949)" fill="#223659"/>
            <path id="Caminho_1405" data-name="Caminho 1405" d="M104.663,250.043a.249.249,0,0,0,0,.5A.249.249,0,0,0,104.663,250.043Z" transform="translate(-96.121 -249.555)" fill="#223659"/>
            <path id="Caminho_1406" data-name="Caminho 1406" d="M104.517,253.608a.1.1,0,0,0,0,.2A.1.1,0,0,0,104.517,253.608Z" transform="translate(-96.119 -251.53)" fill="#223659"/>
            <path id="Caminho_1407" data-name="Caminho 1407" d="M88.828,255.4a.22.22,0,0,0,0,.439A.22.22,0,0,0,88.828,255.4Z" transform="translate(-87.363 -252.521)" fill="#223659"/>
            <path id="Caminho_1408" data-name="Caminho 1408" d="M86,252.88a.2.2,0,0,0,0,.4A.2.2,0,0,0,86,252.88Z" transform="translate(-85.807 -251.127)" fill="#223659"/>
            <path id="Caminho_1409" data-name="Caminho 1409" d="M93.332,256.252a.058.058,0,0,0,0,.115A.058.058,0,0,0,93.332,256.252Z" transform="translate(-89.946 -252.995)" fill="#223659"/>
            <path id="Caminho_1410" data-name="Caminho 1410" d="M96.622,255.421a.1.1,0,0,0,0,.209A.1.1,0,0,0,96.622,255.421Z" transform="translate(-91.743 -252.535)" fill="#223659"/>
          </g>
        </g>
        <g id="Grupo_735" data-name="Grupo 735" transform="translate(0 35.076)">
          <path id="Caminho_1411" data-name="Caminho 1411" d="M39.773,252.451c-3.885,1.528-16.557,16.432-1.33,29.353" transform="translate(-31.133 -249.465)" fill="none" stroke="#223659" stroke-linecap="round" stroke-linejoin="round" stroke-width="1.684"/>
          <path id="Caminho_1412" data-name="Caminho 1412" d="M47.221,249.759c.159,1.213-2.972,3.023-2.972,3.023s-3.316-2-2.979-4.843a5.313,5.313,0,0,1,3.712-2.183" transform="translate(-36.736 -245.756)" fill="#f6dfc2" stroke="#223659" stroke-linecap="round" stroke-width="1.684"/>
          <path id="Caminho_1413" data-name="Caminho 1413" d="M45.813,316.852c-1.506,1.614.679,4.055,1.419,4.421,1.127.558,2.64-.153,2.71-1.071.064-.835-1.285-2.3-1.285-2.3s1.044-.548.73-.765C48.336,316.413,46.688,315.915,45.813,316.852Z" transform="translate(-38.98 -284.863)" fill="#eff9ff" stroke="#223659" stroke-width="1.684"/>
        </g>
        <g id="Grupo_736" data-name="Grupo 736" transform="translate(73.133 35.732)">
          <path id="Caminho_1414" data-name="Caminho 1414" d="M204.624,254.946c1.738,3.8,15.668,16.692,27.008,3.283" transform="translate(-200.391 -251.504)" fill="none" stroke="#223659" stroke-linecap="round" stroke-linejoin="round" stroke-width="1.684"/>
          <path id="Caminho_1415" data-name="Caminho 1415" d="M263.732,258.038c1,.832,2.207.375,3.1-.3.628-.472.77-3.764.018-4.009s-2.23,1.409-2.23,1.409-.6-1.013-.8-.686C263.157,255.542,262.749,257.216,263.732,258.038Z" transform="translate(-232.815 -250.817)" fill="#eff9ff" stroke="#223659" stroke-width="1.684"/>
          <path id="Caminho_1416" data-name="Caminho 1416" d="M195.137,251.229c-.159,1.213,2.972,3.023,2.972,3.023s3.316-2,2.979-4.843a5.315,5.315,0,0,0-3.712-2.182" transform="translate(-195.131 -247.227)" fill="#f6dfc2" stroke="#223659" stroke-width="1.684"/>
          <path id="Caminho_1417" data-name="Caminho 1417" d="M269.124,257.378a1.743,1.743,0,0,1-2.017,0c-.705-.434-.8-3.485,0-3.908a1.918,1.918,0,0,1,2.017,0C269.546,253.8,269.5,256.967,269.124,257.378Z" transform="translate(-234.698 -250.529)" fill="#eff9ff" stroke="#223659" stroke-width="1.529"/>
        </g>
        <g id="Grupo_746" data-name="Grupo 746" transform="translate(87.563)">
          <path id="Caminho_1418" data-name="Caminho 1418" d="M279.64,183.994c-5.034,0-9.576,4.569-16.369,4.569s-11.335-4.569-16.369-4.569c-9.952,0-20.737,14.2-19.277,25.6C229.251,222.3,243.4,260.6,253.16,260.6c4.819,0,4.8-9.569,7.26-19.841,1.126-4.694,3.38-5.258,4.506.375,2.109,10.543,3.943,19.465,8.454,19.465,9.764,0,24.189-40.8,25.536-51.01C300.42,198.2,289.336,183.994,279.64,183.994Z" transform="translate(-227.491 -176.46)" fill="#fffbde" stroke="#223659" stroke-width="1.684"/>
          <path id="Caminho_1419" data-name="Caminho 1419" d="M260.822,245.168c4.645.375,3.724-13.644,13.332-14.215,5.518-.328,7.957,2.417,8.77,6.673.861,4.5.542,8.707,5.384,8.418s18.066-21.155,17.707-34.391c-.165-6.05-2.726-12.855-5.571-18.179a10.325,10.325,0,0,0-9.547-5.355c-4.875.177-9.23,3.423-13.363,5.667-5.568,3.023-9.662-2.032-14.68-3.389a11.268,11.268,0,0,0-12.39,3.944c-3.83,4.789-3.9,11.871-2.506,17.587C248.971,216.1,256.178,244.792,260.822,245.168Z" transform="translate(-238.372 -178.741)" fill="#fff" style="mix-blend-mode: soft-light;isolation: isolate"/>
          <path id="Caminho_1420" data-name="Caminho 1420" d="M291.183,196.782c3.3.349,6.031-.453,9.17-1.349,3.049-.87,6.4-1.4,9.341.14,6.017,3.142,8.864,10.914,10,17.2a35.2,35.2,0,0,1,.592,11.452,26.092,26.092,0,0,1-.764,3.411c2.375-5.437,4.014-11.206,3.885-15.981-.165-6.05-2.726-12.855-5.571-18.179a10.325,10.325,0,0,0-9.548-5.355c-4.875.177-9.23,3.423-13.363,5.667-5.568,3.023-9.662-2.032-14.68-3.389a14.426,14.426,0,0,0-1.728-.356A21,21,0,0,0,291.183,196.782Z" transform="translate(-255.761 -178.741)" fill="#fff"/>
          <path id="Caminho_1421" data-name="Caminho 1421" d="M278.926,190.191c2.5,2.029,5.236,3.423,8.376,2.867,3.758-.665,8.44-3.484,9.833-6.7a21.435,21.435,0,0,1-8.772,2.253c-6.439,0-10.855-4.1-15.585-4.53C274.839,186.1,276.665,188.358,278.926,190.191Z" transform="translate(-252.582 -176.508)" fill="#e5d3d3" style="mix-blend-mode: multiply;isolation: isolate"/>
          <path id="Caminho_1422" data-name="Caminho 1422" d="M282.578,196.488c2.021,1.115,3.874,2.718,4.061,3.8,5.2-.442,9.5-4.386,13.081-6.529-1.811-2.487-7.163.707-11.19.707-7.7,0-7.28-2.509-12.392-2.509C277.916,196.15,280.556,195.373,282.578,196.488Z" transform="translate(-254.444 -180.872)" fill="#a46a37"/>
          <path id="Caminho_1423" data-name="Caminho 1423" d="M296.1,197.328c-1.864.719-3.824,2.591-5.957,2.348a8.02,8.02,0,0,1-3.424-1.068,11.84,11.84,0,0,0-2.353-1.388c-1.023-.327-2.063-.526-3.1-.782a23.642,23.642,0,0,0-2.5-.8,4,4,0,0,1-.7-.149c1.7,2.425,3.866,2.008,5.584,2.955,2.021,1.115,3.874,2.718,4.061,3.8,4.5-.382,8.314-3.379,11.581-5.569A9.292,9.292,0,0,0,296.1,197.328Z" transform="translate(-255.508 -182.829)" fill="#ccb3b3" style="mix-blend-mode: multiply;isolation: isolate"/>
          <path id="Caminho_1424" data-name="Caminho 1424" d="M284.822,275.36c-1.838,2.732-6.8,6.193-10.624,5.156-3.755-1.018-4.077-6.295-4.793-9.374-.337-1.448-.563-4-2.127-4.7a5.74,5.74,0,0,0-5.026.281,12.808,12.808,0,0,0-5.881,8.637c-.484,3.175-1.063,7.683-5.164,7.769-2.155.045-3.258-2.322-4.523-3.784-2.045-2.362-11.182-18.51-18.241-33.808,2.589,14.2,15.916,49.162,25.245,49.162,4.819,0,4.8-9.569,7.26-19.841,1.126-4.694,3.38-5.258,4.506.375,2.109,10.543,3.943,19.465,8.454,19.465,7.055,0,16.542-21.3,21.772-36.968C292.207,264.845,288.847,269.377,284.822,275.36Z" transform="translate(-228.018 -210.561)" fill="#e5d3d3" style="mix-blend-mode: multiply;isolation: isolate"/>
          <path id="Caminho_1425" data-name="Caminho 1425" d="M275.491,243c-4.884-4.147-7.1,1.221-8.412.5-.076-.042.548-.45.516-.634-.014-.084-.7.1-.706,0-.009-.173.48-.652.495-.864s-.527-.2-.4-.408C268.152,239.656,273.21,237.863,275.491,243Z" transform="translate(-249.32 -207.293)" fill="#223659"/>
          <path id="Caminho_1426" data-name="Caminho 1426" d="M267.4,231.434c3.144-2.316,7.452,4.205,9.11,2.91" transform="translate(-249.604 -202.467)" fill="none" stroke="#223659" stroke-linecap="round" stroke-linejoin="round" stroke-width="2.526"/>
          <path id="Caminho_1427" data-name="Caminho 1427" d="M328.275,243c4.884-4.147,7.1,1.221,8.412.5.076-.042-.548-.45-.517-.634.015-.084.7.1.706,0,.009-.173-.479-.652-.495-.864s.528-.2.4-.408C335.613,239.656,330.556,237.863,328.275,243Z" transform="translate(-283.332 -207.293)" fill="#223659"/>
          <path id="Caminho_1428" data-name="Caminho 1428" d="M335.731,231.434c-3.144-2.316-7.452,4.205-9.11,2.91" transform="translate(-282.415 -202.467)" fill="none" stroke="#223659" stroke-linecap="round" stroke-linejoin="round" stroke-width="2.526"/>
          <path id="Caminho_1429" data-name="Caminho 1429" d="M254.486,194.111a3.1,3.1,0,0,0-1.757.849,4.961,4.961,0,0,0-1.371,1.752.035.035,0,0,0,.061.036,5.981,5.981,0,0,1,1.5-1.548c.492-.373,1.209-.52,1.632-.945A.084.084,0,0,0,254.486,194.111Z" transform="translate(-240.712 -182.064)" fill="#223659"/>
          <path id="Caminho_1430" data-name="Caminho 1430" d="M257.474,195.323a2.726,2.726,0,0,0-1.925,1.21c-.02.036.022.087.06.06a4.786,4.786,0,0,1,1.984-.837C257.878,195.7,257.757,195.271,257.474,195.323Z" transform="translate(-243.034 -182.734)" fill="#223659"/>
          <path id="Caminho_1431" data-name="Caminho 1431" d="M255.935,304.143c-.288-.372-.671-.631-.987-.978a3.211,3.211,0,0,1-.8-1.532c-.006-.032-.049-.02-.052.007-.115,1.043.661,2.508,1.811,2.579C255.947,304.221,255.957,304.17,255.935,304.143Z" transform="translate(-242.224 -241.628)" fill="#223659"/>
          <path id="Caminho_1432" data-name="Caminho 1432" d="M259.088,304.373c-.55-.489-1.325-.693-1.78-1.3a.044.044,0,0,0-.08.034,1.894,1.894,0,0,0,1.827,1.351A.049.049,0,0,0,259.088,304.373Z" transform="translate(-243.966 -242.425)" fill="#223659"/>
          <path id="Caminho_1433" data-name="Caminho 1433" d="M360.329,294.741c-.33.661-.446,1.408-.788,2.079-.332.65-.809,1.2-1.2,1.817a.018.018,0,0,0,.024.024,5.268,5.268,0,0,0,2.167-3.865C360.528,294.7,360.38,294.637,360.329,294.741Z" transform="translate(-299.99 -237.79)" fill="#223659"/>
          <path id="Caminho_1434" data-name="Caminho 1434" d="M360.447,292.3a.075.075,0,0,0-.136-.018,3.021,3.021,0,0,0-.34,1.146,7.44,7.44,0,0,1-.354,1.211c-.048.118.129.173.193.081A2.952,2.952,0,0,0,360.447,292.3Z" transform="translate(-300.692 -236.437)" fill="#223659"/>
          <path id="Caminho_1435" data-name="Caminho 1435" d="M344.15,188.03a2.86,2.86,0,0,0-2.682-.071c-.037.017-.017.074.02.074.4,0,.793-.041,1.192-.049.491-.01.952.132,1.437.169C344.189,188.158,344.2,188.065,344.15,188.03Z" transform="translate(-290.63 -178.491)" fill="#223659"/>
          <path id="Caminho_1436" data-name="Caminho 1436" d="M346.926,190.477a2.157,2.157,0,0,0-2.136-.315c-.079.027-.072.165.021.155a2.629,2.629,0,0,1,1.527.3c.148.077.567.411.643.068A.213.213,0,0,0,346.926,190.477Z" transform="translate(-292.452 -179.798)" fill="#223659"/>
          <path id="Caminho_1437" data-name="Caminho 1437" d="M341.038,258.644c0,1-1.576,1.815-3.52,1.815s-3.52-.812-3.52-1.815,1.576-1.815,3.52-1.815S341.038,257.642,341.038,258.644Z" transform="translate(-286.502 -216.815)" fill="#f7b38b"/>
          <path id="Caminho_1438" data-name="Caminho 1438" d="M278.068,258.644c0,1-1.576,1.815-3.52,1.815s-3.52-.812-3.52-1.815,1.576-1.815,3.52-1.815S278.068,257.642,278.068,258.644Z" transform="translate(-251.613 -216.815)" fill="#f7b38b"/>
          <path id="Caminho_1439" data-name="Caminho 1439" d="M286.265,271.7c-2.521-1.947,1.241-8.829,4.178-9.658s3.356,1.059,6.082,1.059,2.894-2.11,5.956-1,4.858,6.605,3.437,10.17c-.693,1.74-5.3-1.971-9.7-2.037C291.595,270.159,288.708,273.583,286.265,271.7Z" transform="translate(-259.596 -219.554)" fill="#e0335a" stroke="#223659" stroke-linecap="round" stroke-width="1.684"/>
          <path id="Caminho_1440" data-name="Caminho 1440" d="M307.592,265.514c1.127,0,.639-2.938-.693-3.42-3.063-1.107-3.23,1-5.956,1s-3.146-1.888-6.082-1.059c-1.244.351-1.96,3.476-1.022,3.476h9.983c.4,0,.861-.671.861-.671s.477.671.923.671Z" transform="translate(-264.013 -219.554)" fill="#fff" stroke="#223659" stroke-linecap="round" stroke-width="1.684"/>
          <g id="Grupo_737" data-name="Grupo 737" transform="translate(46.137 38.927)">
            <path id="Caminho_1441" data-name="Caminho 1441" d="M331.919,256.155a.125.125,0,0,0,0,.251A.125.125,0,0,0,331.919,256.155Z" transform="translate(-331.42 -255.368)" fill="#223659"/>
            <path id="Caminho_1442" data-name="Caminho 1442" d="M334.284,255.676a.464.464,0,0,0,0,.928A.464.464,0,0,0,334.284,255.676Z" transform="translate(-332.548 -255.103)" fill="#223659"/>
            <path id="Caminho_1443" data-name="Caminho 1443" d="M340.266,255.271a.235.235,0,0,0,0,.47A.235.235,0,0,0,340.266,255.271Z" transform="translate(-335.986 -254.879)" fill="#223659"/>
            <path id="Caminho_1444" data-name="Caminho 1444" d="M337.962,257.367a.36.36,0,0,0,0,.72A.36.36,0,0,0,337.962,257.367Z" transform="translate(-334.643 -256.04)" fill="#223659"/>
            <path id="Caminho_1445" data-name="Caminho 1445" d="M342.506,257.894a.4.4,0,0,0,0,.8A.4.4,0,0,0,342.506,257.894Z" transform="translate(-337.139 -256.332)" fill="#223659"/>
            <path id="Caminho_1446" data-name="Caminho 1446" d="M345.5,254.391a.318.318,0,0,0,0,.636A.318.318,0,0,0,345.5,254.391Z" transform="translate(-338.843 -254.391)" fill="#223659"/>
            <path id="Caminho_1447" data-name="Caminho 1447" d="M349.807,255.485a.249.249,0,0,0,0,.5A.249.249,0,0,0,349.807,255.485Z" transform="translate(-341.265 -254.997)" fill="#223659"/>
            <path id="Caminho_1448" data-name="Caminho 1448" d="M349.66,259.051a.1.1,0,0,0,0,.2A.1.1,0,0,0,349.66,259.051Z" transform="translate(-341.263 -256.973)" fill="#223659"/>
            <path id="Caminho_1449" data-name="Caminho 1449" d="M333.971,260.84a.219.219,0,0,0,0,.438A.219.219,0,0,0,333.971,260.84Z" transform="translate(-332.507 -257.964)" fill="#223659"/>
            <path id="Caminho_1450" data-name="Caminho 1450" d="M331.143,258.322a.2.2,0,0,0,0,.4A.2.2,0,0,0,331.143,258.322Z" transform="translate(-330.951 -256.569)" fill="#223659"/>
            <path id="Caminho_1451" data-name="Caminho 1451" d="M338.476,261.694a.057.057,0,0,0,0,.115A.057.057,0,0,0,338.476,261.694Z" transform="translate(-335.09 -258.437)" fill="#223659"/>
            <path id="Caminho_1452" data-name="Caminho 1452" d="M341.766,260.863a.1.1,0,0,0,0,.208A.1.1,0,0,0,341.766,260.863Z" transform="translate(-336.887 -257.977)" fill="#223659"/>
          </g>
          <g id="Grupo_738" data-name="Grupo 738" transform="translate(18.899 38.927)">
            <path id="Caminho_1453" data-name="Caminho 1453" d="M270.839,256.155a.125.125,0,0,0,0,.251A.125.125,0,0,0,270.839,256.155Z" transform="translate(-270.34 -255.368)" fill="#223659"/>
            <path id="Caminho_1454" data-name="Caminho 1454" d="M273.2,255.676a.464.464,0,0,0,0,.928A.464.464,0,0,0,273.2,255.676Z" transform="translate(-271.468 -255.103)" fill="#223659"/>
            <path id="Caminho_1455" data-name="Caminho 1455" d="M279.185,255.271a.235.235,0,0,0,0,.47A.235.235,0,0,0,279.185,255.271Z" transform="translate(-274.906 -254.879)" fill="#223659"/>
            <path id="Caminho_1456" data-name="Caminho 1456" d="M276.881,257.367a.36.36,0,0,0,0,.72A.36.36,0,0,0,276.881,257.367Z" transform="translate(-273.562 -256.04)" fill="#223659"/>
            <path id="Caminho_1457" data-name="Caminho 1457" d="M281.425,257.894a.4.4,0,0,0,0,.8A.4.4,0,0,0,281.425,257.894Z" transform="translate(-276.058 -256.332)" fill="#223659"/>
            <path id="Caminho_1458" data-name="Caminho 1458" d="M284.422,254.391a.318.318,0,0,0,0,.636A.318.318,0,0,0,284.422,254.391Z" transform="translate(-277.762 -254.391)" fill="#223659"/>
            <path id="Caminho_1459" data-name="Caminho 1459" d="M288.726,255.485a.249.249,0,0,0,0,.5A.249.249,0,0,0,288.726,255.485Z" transform="translate(-280.185 -254.997)" fill="#223659"/>
            <path id="Caminho_1460" data-name="Caminho 1460" d="M288.579,259.051a.1.1,0,0,0,0,.2A.1.1,0,0,0,288.579,259.051Z" transform="translate(-280.182 -256.973)" fill="#223659"/>
            <path id="Caminho_1461" data-name="Caminho 1461" d="M272.89,260.84a.219.219,0,0,0,0,.438A.219.219,0,0,0,272.89,260.84Z" transform="translate(-271.426 -257.964)" fill="#223659"/>
            <path id="Caminho_1462" data-name="Caminho 1462" d="M270.062,258.322a.2.2,0,0,0,0,.4A.2.2,0,0,0,270.062,258.322Z" transform="translate(-269.87 -256.569)" fill="#223659"/>
            <path id="Caminho_1463" data-name="Caminho 1463" d="M277.4,261.694a.057.057,0,0,0,0,.115A.057.057,0,0,0,277.4,261.694Z" transform="translate(-274.009 -258.437)" fill="#223659"/>
            <path id="Caminho_1464" data-name="Caminho 1464" d="M280.684,260.863a.1.1,0,0,0,0,.208A.1.1,0,0,0,280.684,260.863Z" transform="translate(-275.806 -257.977)" fill="#223659"/>
          </g>
          <g id="Grupo_739" data-name="Grupo 739" transform="translate(21.694 11.085)">
            <path id="Caminho_1465" data-name="Caminho 1465" d="M285.957,200.142l-.321-.474a3.8,3.8,0,0,0-.377-.512c-.158-.169-.313-.377-.524-.58-.226-.19-.444-.43-.726-.627a8.58,8.58,0,0,0-.9-.607c-.318-.205-.675-.378-1.031-.565s-.737-.35-1.118-.518a22.392,22.392,0,0,1-2.219-1.074,8.463,8.463,0,0,1-.951-.636,5.287,5.287,0,0,1-.722-.73l-.281-.357-.2-.359-.171-.315c-.042-.1-.07-.2-.1-.286l-.184-.543.224.527c.037.083.071.177.12.274l.192.3.216.335.3.325a5.054,5.054,0,0,0,.743.647,8.235,8.235,0,0,0,.961.543,22.1,22.1,0,0,0,2.256.889c.392.138.787.29,1.173.44.383.165.766.316,1.121.508a9.342,9.342,0,0,1,1.011.579c.321.192.584.435.849.629.255.211.466.448.665.638a4.4,4.4,0,0,1,.44.513l.355.449a.5.5,0,1,1-.785.623Z" transform="translate(-276.138 -191.958)" fill="#223659"/>
          </g>
          <g id="Grupo_741" data-name="Grupo 741" transform="translate(29.045 12.541)">
            <g id="Grupo_740" data-name="Grupo 740">
              <path id="Caminho_1466" data-name="Caminho 1466" d="M293.274,201.173l.222.07c.142.041.362.122.621.186a7.951,7.951,0,0,0,.926.169,7.208,7.208,0,0,0,1.249.055,8.191,8.191,0,0,0,1.48-.194,10.609,10.609,0,0,0,1.615-.491,19.644,19.644,0,0,0,3.3-1.74c1.084-.689,2.136-1.44,3.15-2.112a14.565,14.565,0,0,1,2.923-1.6,5,5,0,0,1,1.3-.3,5.158,5.158,0,0,1,.557.009,4.608,4.608,0,0,1,.464.085l.361.119c.1.043.182.091.25.124l.206.107-.211-.1c-.07-.03-.152-.074-.254-.112l-.362-.1a4.611,4.611,0,0,0-.459-.062,5.017,5.017,0,0,0-.544.018,4.876,4.876,0,0,0-1.254.35,14.354,14.354,0,0,0-2.8,1.71c-.973.714-1.989,1.516-3.052,2.268a20.253,20.253,0,0,1-3.316,1.955,11.362,11.362,0,0,1-1.7.606,9,9,0,0,1-1.607.289,7.99,7.99,0,0,1-1.391.007,8.618,8.618,0,0,1-1.087-.148c-.292-.059-.494-.124-.644-.16l-.225-.058a.5.5,0,0,1,.252-.969Z" transform="translate(-292.624 -195.222)" fill="#223659"/>
            </g>
          </g>
          <g id="Grupo_742" data-name="Grupo 742" transform="translate(31.295 43.894)">
            <path id="Caminho_1467" data-name="Caminho 1467" d="M297.67,267.6l.375-2.065.375,2.065Z" transform="translate(-297.67 -265.53)" fill="#223659"/>
          </g>
          <g id="Grupo_743" data-name="Grupo 743" transform="translate(34.957 44.301)">
            <path id="Caminho_1468" data-name="Caminho 1468" d="M305.881,267.98l.375-1.537.375,1.537Z" transform="translate(-305.881 -266.442)" fill="#223659"/>
          </g>
          <path id="Caminho_1469" data-name="Caminho 1469" d="M309.3,284.111c-1.624-1.45-3.878-.96-5.529.157a.084.084,0,0,0,.064.153,8.047,8.047,0,0,1,2.216-.244,6.33,6.33,0,0,1,2.534.86C309.159,285.317,309.827,284.581,309.3,284.111Z" transform="translate(-269.734 -231.433)" fill="#223659"/>
          <path id="Caminho_1470" data-name="Caminho 1470" d="M308.629,207.324c-1.284.718-2.239,1.735-3.639,2.306a15.761,15.761,0,0,1-4.781.931.048.048,0,0,0,0,.1c2.787.133,7.22-.18,8.668-3.087A.182.182,0,0,0,308.629,207.324Z" transform="translate(-267.755 -189.372)" fill="#223659"/>
          <path id="Caminho_1471" data-name="Caminho 1471" d="M318.218,210.766a2.941,2.941,0,0,0-.729.572c-.257.219-.523.426-.78.643a.062.062,0,0,0,.027.1,1.336,1.336,0,0,0,.9-.248,1.472,1.472,0,0,0,.754-.9C318.4,210.846,318.326,210.721,318.218,210.766Z" transform="translate(-276.913 -191.288)" fill="#223659"/>
          <g id="Grupo_744" data-name="Grupo 744" transform="translate(52.596 35.744)">
            <path id="Caminho_1472" data-name="Caminho 1472" d="M349.445,251.443c.317,1.3-.589,3.214-2.046,3.429-1.293.19-2.049-.951-1.6-2.209a6.922,6.922,0,0,0-.363-5.408S348.73,248.512,349.445,251.443Z" transform="translate(-345.436 -247.255)" fill="#a6dcf9"/>
            <path id="Caminho_1473" data-name="Caminho 1473" d="M346.958,252.418a6.176,6.176,0,0,0-1.522-5.163,6.922,6.922,0,0,1,.363,5.408c-.449,1.258.308,2.4,1.6,2.209a1.955,1.955,0,0,0,.744-.278A2.822,2.822,0,0,1,346.958,252.418Z" transform="translate(-345.436 -247.255)" fill="#8cd2f7"/>
            <path id="Caminho_1474" data-name="Caminho 1474" d="M351.582,255.12c.12.785-.66,2.312-.49,2.588a.5.5,0,0,0,.772.053A2.067,2.067,0,0,0,351.582,255.12Z" transform="translate(-348.557 -251.613)" fill="#fff"/>
          </g>
          <g id="Grupo_745" data-name="Grupo 745" transform="translate(14.861 35.744)">
            <path id="Caminho_1475" data-name="Caminho 1475" d="M260.88,251.443c-.316,1.3.59,3.214,2.046,3.429,1.293.19,2.049-.951,1.6-2.209a6.922,6.922,0,0,1,.363-5.408S261.595,248.512,260.88,251.443Z" transform="translate(-260.817 -247.255)" fill="#a6dcf9"/>
            <path id="Caminho_1476" data-name="Caminho 1476" d="M265.063,252.418a6.177,6.177,0,0,1,1.521-5.163,6.922,6.922,0,0,0-.363,5.408c.449,1.258-.308,2.4-1.6,2.209a1.95,1.95,0,0,1-.744-.278A2.823,2.823,0,0,0,265.063,252.418Z" transform="translate(-262.512 -247.255)" fill="#8cd2f7"/>
            <path id="Caminho_1477" data-name="Caminho 1477" d="M262.377,255.12c-.12.785.659,2.312.49,2.588a.5.5,0,0,1-.772.053A2.066,2.066,0,0,1,262.377,255.12Z" transform="translate(-261.33 -251.613)" fill="#fff"/>
          </g>
          <path id="Caminho_1478" data-name="Caminho 1478" d="M386.907,214.606a.009.009,0,0,0-.015.009,25.543,25.543,0,0,1,3.151,9.76.049.049,0,0,0,.1,0C390.491,220.893,388.709,217.458,386.907,214.606Z" transform="translate(-315.809 -193.419)" fill="#223659"/>
          <path id="Caminho_1479" data-name="Caminho 1479" d="M393.845,222.132a2.978,2.978,0,0,0-1.049-1.86c-.016-.011-.037,0-.028.022a7.1,7.1,0,0,1,.63,2.213,3.655,3.655,0,0,0,.5,1.924.155.155,0,0,0,.257-.068A5.734,5.734,0,0,0,393.845,222.132Z" transform="translate(-319.063 -196.558)" fill="#223659"/>
          <path id="Caminho_1480" data-name="Caminho 1480" d="M233.776,197.778a8.167,8.167,0,0,0-2.33,2.384,13.884,13.884,0,0,0-1.95,2.938c-.022.054.052.1.1.074a10.281,10.281,0,0,0,2.134-2.346c.745-.939,1.662-1.778,2.326-2.772C234.171,197.879,233.945,197.686,233.776,197.778Z" transform="translate(-228.599 -184.084)" fill="#223659"/>
          <path id="Caminho_1481" data-name="Caminho 1481" d="M232.641,197.123a12.75,12.75,0,0,0-3.073,3.082c-.022.029.02.066.048.048a16.574,16.574,0,0,0,3.158-2.957C232.856,197.206,232.75,197.052,232.641,197.123Z" transform="translate(-228.638 -183.724)" fill="#223659"/>
          <path id="Caminho_1482" data-name="Caminho 1482" d="M287.012,182.977a4.276,4.276,0,0,0-1.867-.771c.052-.321.033-.667-.316-.763a.835.835,0,0,0-.6.1c-.917.475-1.06-.674-1.224-1.381a.419.419,0,0,0-.51-.289c-1.185.242-2.209,1.26-2.524-.428a.283.283,0,0,0-.277-.211,3.052,3.052,0,0,0-1.721.631c-.037.031,0,.081.043.074,1.468-.274,1.285-.04,1.7,1.182a.379.379,0,0,0,.453.257,16.079,16.079,0,0,0,2.132-.6,2.575,2.575,0,0,0,.956,1.8.607.607,0,0,0,.436.045c.257-.094.695-.483.606-.2a.392.392,0,0,0,.372.489c.769.1,1.324.573,2.066.7A.354.354,0,0,0,287.012,182.977Z" transform="translate(-255.456 -173.824)" fill="#223659"/>
          <path id="Caminho_1483" data-name="Caminho 1483" d="M294.525,181.183a.178.178,0,0,0-.22-.125,3.928,3.928,0,0,1-1.409.249.936.936,0,0,0-1.178-.474.022.022,0,0,0,.006.043.726.726,0,0,1,.839.689.2.2,0,0,0,.194.147,6.894,6.894,0,0,0,1.419-.254,1.4,1.4,0,0,0,.25.826.164.164,0,0,0,.256-.033C294.875,181.892,294.61,181.547,294.525,181.183Z" transform="translate(-263.068 -174.684)" fill="#223659"/>
          <path id="Caminho_1484" data-name="Caminho 1484" d="M239.108,300.68a4.895,4.895,0,0,0-1.134-.378c-.978-.231-1.114-.951-1.237-1.766a.346.346,0,0,0-.336-.256h-.239a5.58,5.58,0,0,0-.331-1.381c-.22-.626.437-1.219.257-1.836-.374-1.277-1.928-.766-2.462-2a.049.049,0,0,0-.091.024,1.461,1.461,0,0,0,1.229,1.394c1.139.316.513,1.373.383,2.087-.116.641.342,1.406.342,2.058a.35.35,0,0,0,.347.347c.068,0,.692,1.41.875,1.594.5.5,1.5.5,2.131.738C239.209,301.444,239.453,300.854,239.108,300.68Z" transform="translate(-230.839 -236.879)" fill="#223659"/>
          <path id="Caminho_1485" data-name="Caminho 1485" d="M238.133,309.782c-.165-.761-1.081-.741-1.36-1.394a.075.075,0,0,0-.14.038,1.019,1.019,0,0,0,.4.754c.121.092.257.164.375.26a1.04,1.04,0,0,1,.274.465.246.246,0,0,0,.223.17.167.167,0,0,0,.117-.032A.237.237,0,0,0,238.133,309.782Z" transform="translate(-232.556 -245.362)" fill="#223659"/>
          <path id="Caminho_1486" data-name="Caminho 1486" d="M369.61,294.478a.169.169,0,0,0-.246.189c.313,1.055-.262,1.649-.767,2.386-.178.26-.421.62-.2.953.156.233-.581,1.537-.666,1.885-.245,1-1.128,1.67-1.727,2.481a.271.271,0,0,0,.1.37c.684.405,1.3,1.908.548,2.4a10.85,10.85,0,0,1-2.774,1.251.058.058,0,0,0-.014.1c1.127.661,2.793-.8,3.735-1.316a.278.278,0,0,0,.1-.373c-.274-.635-.367-1.309-.659-1.936s-.492-.376.166-1.058c.938-.972,1-1.879,1.784-2.924.3-.4.353-.407.224-.845-.18-.612.545-.938.8-1.375A1.548,1.548,0,0,0,369.61,294.478Z" transform="translate(-303.034 -237.66)" fill="#223659"/>
          <path id="Caminho_1487" data-name="Caminho 1487" d="M375.159,303.709c-.582.512-1.119,1.725-.324,2.092a20.677,20.677,0,0,0-1.538,1.678.181.181,0,0,0,.219.284,4.67,4.67,0,0,0,1.841-1.947c.04-.09.017-.235-.1-.253-1.109-.161-.016-1.191.223-1.61A.2.2,0,0,0,375.159,303.709Z" transform="translate(-308.248 -242.76)" fill="#223659"/>
          <path id="Caminho_1488" data-name="Caminho 1488" d="M361.211,167.557a.5.5,0,0,0-.79-.358,4.827,4.827,0,0,0-1.253,2.56,6.636,6.636,0,0,0-.254,3.418.457.457,0,0,0,.774.13,6.871,6.871,0,0,0,.852-2.5A11.356,11.356,0,0,0,361.211,167.557Z" transform="translate(-300.23 -167.099)" fill="#223659"/>
          <path id="Caminho_1489" data-name="Caminho 1489" d="M369.1,175.167a7.1,7.1,0,0,0-1.9,1.237,18.362,18.362,0,0,0-1.862,1.638.282.282,0,0,0,.243.458,5.059,5.059,0,0,0,2.08-1.065,9.8,9.8,0,0,0,1.818-1.726A.346.346,0,0,0,369.1,175.167Z" transform="translate(-303.835 -171.557)" fill="#223659"/>
          <path id="Caminho_1490" data-name="Caminho 1490" d="M374.868,181.576c-1.858.262-3.448,1.247-5.372,1.313-.469.016-.551.6-.27.879.759.749,1.964.533,2.9.3a6.621,6.621,0,0,0,3.2-1.635A.527.527,0,0,0,374.868,181.576Z" transform="translate(-305.932 -175.118)" fill="#223659"/>
        </g>
        <g id="Grupo_747" data-name="Grupo 747" transform="translate(80.763 33.475)">
          <path id="Caminho_1491" data-name="Caminho 1491" d="M220.882,248.861c-3.885,1.527-16.557,16.432-1.331,29.354" transform="translate(-212.242 -245.875)" fill="none" stroke="#223659" stroke-linecap="round" stroke-linejoin="round" stroke-width="1.684"/>
          <path id="Caminho_1492" data-name="Caminho 1492" d="M228.33,246.168c.159,1.214-2.972,3.024-2.972,3.024s-3.316-2-2.978-4.844a5.316,5.316,0,0,1,3.712-2.183" transform="translate(-217.845 -242.166)" fill="#fffbde" stroke="#223659" stroke-width="1.684"/>
          <path id="Caminho_1493" data-name="Caminho 1493" d="M226.922,313.262c-1.506,1.614.68,4.055,1.42,4.422,1.127.558,2.639-.154,2.71-1.071.064-.835-1.285-2.3-1.285-2.3s1.044-.548.73-.765C229.445,312.823,227.8,312.325,226.922,313.262Z" transform="translate(-220.089 -281.273)" fill="#eff9ff" stroke="#223659" stroke-width="1.684"/>
        </g>
        <g id="Grupo_748" data-name="Grupo 748" transform="translate(153.976 35.362)">
          <path id="Caminho_1494" data-name="Caminho 1494" d="M381.633,253.092c3.885,1.528,16.557,16.432,1.33,29.354" transform="translate(-379.308 -250.107)" fill="none" stroke="#223659" stroke-linecap="round" stroke-linejoin="round" stroke-width="1.684"/>
          <path id="Caminho_1495" data-name="Caminho 1495" d="M377.491,250.4c-.159,1.214,2.972,3.024,2.972,3.024s3.316-2,2.979-4.843a5.315,5.315,0,0,0-3.712-2.183" transform="translate(-377.01 -246.398)" fill="#fffbde" stroke="#223659" stroke-width="1.684"/>
          <path id="Caminho_1496" data-name="Caminho 1496" d="M380.552,317.493c1.506,1.613-.679,4.055-1.419,4.422-1.127.558-2.639-.154-2.71-1.071-.064-.836,1.285-2.3,1.285-2.3s-1.044-.549-.73-.765C378.029,317.055,379.677,316.557,380.552,317.493Z" transform="translate(-376.42 -285.505)" fill="#eff9ff" stroke="#223659" stroke-width="1.684"/>
        </g>
      </g>
      <g id="Grupo_750" data-name="Grupo 750" transform="translate(79.604 39.554)">
        <path id="Caminho_1497" data-name="Caminho 1497" d="M208.451,64.526c0-13.792-15.362-24.972-34.311-24.972s-34.311,11.181-34.311,24.972S155.19,89.5,174.139,89.5a45.382,45.382,0,0,0,13.667-2.065L198.6,99.19l-2.8-15.3C203.522,79.307,208.451,72.336,208.451,64.526Z" transform="translate(-139.828 -39.554)" fill="#f4f4f4" stroke="#223659" stroke-width="2"/>
        <path id="Caminho_1498" data-name="Caminho 1498" d="M197.817,50.3c7.213-.378,15,2.1,18.23,9.141,1.908,4.167.252,8.731,1.452,12.976a12.514,12.514,0,0,0,6.591,7.364c3.907-3.826,6.22-8.565,6.22-13.7,0-12.7-14.146-23-31.6-23a41.358,41.358,0,0,0-14.065,2.4c-.553.648-1.123,1.37-1.694,2.149C186.409,51.162,193.18,50.546,197.817,50.3Z" transform="translate(-163.724 -41.514)" fill="#fff"/>
        <path id="Caminho_1499" data-name="Caminho 1499" d="M195.721,100.13c-1.846-2.146-3.5-4.511-5.465-6.548-9.142-9.481-23.966-3.357-35.07-7.931a15.012,15.012,0,0,1-9.477-15.013c.318-6.687,3.184-13.188,6.926-18.707-7.807,4.578-12.807,11.589-12.807,19.454,0,13.792,15.362,24.972,34.311,24.972a45.382,45.382,0,0,0,13.667-2.065l10.8,11.756-.586-3.206C197.254,101.936,196.494,101.028,195.721,100.13Z" transform="translate(-139.828 -46.411)" fill="#cfcfcf" style="mix-blend-mode: multiply;isolation: isolate"/>
      </g>
    </g>
    <text id="socorro_" data-name="socorro!" transform="translate(215 179)" fill="#223659" font-size="18" font-family="Verveine-Regular, Verveine"><tspan x="-26" y="0">SOCORRO!</tspan></text>
  </g>
</svg>
