<svg id="Grupo_1639" data-name="Grupo 1639" xmlns="http://www.w3.org/2000/svg" width="101.5" height="221.529" viewBox="0 0 101.5 221.529">
  <path id="Caminho_2878" data-name="Caminho 2878" d="M31.862,137.664a14.862,14.862,0,0,1-10.6-4.207,13.891,13.891,0,0,1-4.432-10.438A14.818,14.818,0,0,1,20.7,112.581a12.846,12.846,0,0,1,9.931-4.247,30.882,30.882,0,0,1,9.615,1.587l-.515,1.588a31.543,31.543,0,0,0-9.1-1.429,10.764,10.764,0,0,0-8.468,3.731,13.327,13.327,0,0,0-3.284,9.128,12.922,12.922,0,0,0,12.978,12.978,20.773,20.773,0,0,0,8.071-1.429l.594,1.349a12.8,12.8,0,0,1-3.956,1.349A24.286,24.286,0,0,1,31.862,137.664Z" transform="translate(-4.539 -29.227)" fill="#fff"/>
  <path id="Caminho_2879" data-name="Caminho 2879" d="M68.757,106.09l-5.777,2.1-1.345-.4,6.884-3.81Zm-9.931,29.925V110.257H70.815v1.587H60.646v9.366h9.18v1.548h-9.18v11.589H71.21v1.667Z" transform="translate(-15.87 -28.054)" fill="#fff"/>
  <path id="Caminho_2880" data-name="Caminho 2880" d="M103.952,135.672q-2.611,3.056-7.953,3.056t-7.954-3.056q-2.611-3.056-2.611-8.453V112.574h1.82v14.645q0,9.882,8.744,9.882t8.744-9.882V112.574h1.82v14.645Q106.563,132.616,103.952,135.672Z" transform="translate(-23.049 -30.371)" fill="#fff"/>
  <path id="Caminho_2881" data-name="Caminho 2881" d="M44.3,171.508A13.94,13.94,0,0,1,54.2,175.2q4,3.652,4,9.962t-3.68,9.486a13.806,13.806,0,0,1-9.417,3.175q-4,0-8.23-.4V171.746Q40.031,171.508,44.3,171.508Zm.792,24.647a11.679,11.679,0,0,0,8.111-2.739q3.086-2.738,3.086-8.255a11.43,11.43,0,0,0-3.482-8.771,11.907,11.907,0,0,0-8.507-3.255q-3.6,0-5.539.158v22.583A56.954,56.954,0,0,0,45.1,196.155Z" transform="translate(-9.946 -46.27)" fill="#fff"/>
  <path id="Caminho_2882" data-name="Caminho 2882" d="M81.633,174.554q-.594,1.787-1.068,2.976l-3.956,9.526H86.737L82.82,177.57Q81.91,175.348,81.633,174.554ZM75.975,188.6l-3.68,8.93H70.436L81.2,171.617h1.068l10.842,25.916H91.089L87.37,188.6Z" transform="translate(-19.003 -46.3)" fill="#fff"/>
  <path id="Caminho_2883" data-name="Caminho 2883" d="M12.345,233.442a3.8,3.8,0,0,0-1.82-3.374,7.094,7.094,0,0,0-4.036-1.191q-2.216,0-4.589.159v10.835H3.838q1.424,0,4.194.238a8.828,8.828,0,0,0,3.047-2.738A6.647,6.647,0,0,0,12.345,233.442ZM8.032,254.358a7.059,7.059,0,0,0,4.749-1.588,5.248,5.248,0,0,0,1.859-4.128,5.923,5.923,0,0,0-1.82-4.326,9.436,9.436,0,0,0-4.906-2.5,16.184,16.184,0,0,0-3.4-.318H1.9v12.66Q3.64,254.357,8.032,254.358ZM0,227.528q3.087-.238,6.291-.238a9.683,9.683,0,0,1,5.579,1.588,5.2,5.2,0,0,1,2.374,4.6,7.566,7.566,0,0,1-1.265,4.207,8.5,8.5,0,0,1-2.968,2.937,10.226,10.226,0,0,1,4.708,3.017,7.06,7.06,0,0,1,1.9,4.8,6.91,6.91,0,0,1-2.375,5.675,9.783,9.783,0,0,1-6.449,1.945q-4.075,0-7.794-.318Z" transform="translate(0 -61.319)" fill="#fff"/>
  <path id="Caminho_2884" data-name="Caminho 2884" d="M44.2,232.179a10.4,10.4,0,0,0-7.913,3.374,12.515,12.515,0,0,0,0,16.55,10.459,10.459,0,0,0,7.913,3.334,10.38,10.38,0,0,0,7.913-3.334,12.517,12.517,0,0,0,0-16.55A10.322,10.322,0,0,0,44.2,232.179Zm0,24.924a12.3,12.3,0,0,1-9.219-3.85,13.8,13.8,0,0,1,0-18.851,12.3,12.3,0,0,1,9.219-3.85,12.3,12.3,0,0,1,9.219,3.85,13.8,13.8,0,0,1,0,18.851A12.3,12.3,0,0,1,44.2,257.1Z" transform="translate(-8.433 -62.199)" fill="#fff"/>
  <path id="Caminho_2885" data-name="Caminho 2885" d="M96.954,255.436q-2.967,1.667-8.27,1.667a13.148,13.148,0,0,1-9.3-3.81,12.525,12.525,0,0,1-4-9.446,13.535,13.535,0,0,1,3.482-9.486,11.785,11.785,0,0,1,9.061-3.81,28.122,28.122,0,0,1,8.744,1.39l-.475,1.508a28.689,28.689,0,0,0-8.506-1.27,9.528,9.528,0,0,0-7.4,3.374,11.909,11.909,0,0,0-2.968,8.215A11.707,11.707,0,0,0,88.8,255.436a19.522,19.522,0,0,0,7.557-1.27Z" transform="translate(-20.339 -62.199)" fill="#fff"/>
  <path id="Caminho_2886" data-name="Caminho 2886" d="M119.149,233.815q-.593,1.785-1.068,2.976l-3.956,9.525h10.129l-3.917-9.486Q119.426,234.608,119.149,233.815Zm-5.658,14.049-3.68,8.93h-1.86l10.762-25.916h1.068l10.842,25.916h-2.018l-3.72-8.93Z" transform="translate(-29.124 -62.287)" fill="#fff"/>
  <path id="Caminho_2887" data-name="Caminho 2887" d="M21.708,293q-.185.56-.332.932l-1.229,2.985h3.146l-1.217-2.973Q21.793,293.251,21.708,293Zm-1.758,4.4-1.144,2.8h-.578l3.343-8.121H21.9l3.368,8.121h-.627l-1.155-2.8Z" transform="translate(-0.537 -78.799)" fill="#fff"/>
  <path id="Caminho_2888" data-name="Caminho 2888" d="M35.577,299.389a3.058,3.058,0,0,1-2.47.957,3.057,3.057,0,0,1-2.47-.957,3.973,3.973,0,0,1-.811-2.649v-4.589h.565v4.589q0,3.1,2.716,3.1t2.716-3.1v-4.589h.566v4.589A3.977,3.977,0,0,1,35.577,299.389Z" transform="translate(-3.665 -78.818)" fill="#fff"/>
  <path id="Caminho_2889" data-name="Caminho 2889" d="M43.7,292.661H41v-.51h5.961v.51h-2.7v7.561H43.7Z" transform="translate(-6.679 -78.818)" fill="#fff"/>
  <path id="Caminho_2890" data-name="Caminho 2890" d="M54.409,292.49a3.218,3.218,0,0,0-2.458,1.057,3.947,3.947,0,0,0,0,5.186,3.414,3.414,0,0,0,4.917,0,3.949,3.949,0,0,0,0-5.186A3.194,3.194,0,0,0,54.409,292.49Zm0,7.81a3.805,3.805,0,0,1-2.863-1.206,4.352,4.352,0,0,1,0-5.907,4,4,0,0,1,5.727,0,4.354,4.354,0,0,1,0,5.907A3.807,3.807,0,0,1,54.409,300.3Z" transform="translate(-9.213 -78.772)" fill="#fff"/>
  <path id="Caminho_2891" data-name="Caminho 2891" d="M73.089,300.222v-8.071h3.724v.5H73.655v2.935h2.851v.485H73.655V299.7h3.282v.522Z" transform="translate(-22.639 -78.818)" fill="#fff"/>
  <path id="Caminho_2892" data-name="Caminho 2892" d="M80.013,292.151H80.7l2.126,3.495,2.225-3.495h.615l-2.556,3.955,2.569,4.116H85l-2.286-3.706-2.384,3.706h-.627l2.729-4.179Z" transform="translate(-24.424 -78.818)" fill="#fff"/>
  <path id="Caminho_2893" data-name="Caminho 2893" d="M91.828,293q-.184.56-.332.932l-1.229,2.985h3.146L92.2,293.948Q91.914,293.251,91.828,293Zm-1.758,4.4-1.143,2.8H88.35l3.343-8.121h.332l3.368,8.121h-.627l-1.156-2.8Z" transform="translate(-26.756 -78.799)" fill="#fff"/>
  <path id="Caminho_2894" data-name="Caminho 2894" d="M103.6,299.781h-.332l-2.323-5.708q-.148-.336-.3-.784c0,.008-.008.053-.025.137s-.02.195-.037.336-.033.245-.049.336l-.922,6.106h-.553l1.3-8.121h.332l2.483,5.956q.3.747.3.784a7.12,7.12,0,0,1,.332-.771l2.765-5.969h.332l1.217,8.121h-.59l-.873-6.131a7.283,7.283,0,0,1-.086-.808l-.356.821Z" transform="translate(-29.647 -78.799)" fill="#fff"/>
  <path id="Caminho_2895" data-name="Caminho 2895" d="M114.363,300.222v-8.071h3.724v.5h-3.159v2.935h2.851v.485h-2.851V299.7h3.282v.522Z" transform="translate(-33.774 -78.818)" fill="#fff"/>
  <path id="Caminho_2896" data-name="Caminho 2896" d="M70.646,22.516a6.8,6.8,0,0,1-4.027-.152,6.825,6.825,0,1,0,5.857-12.241,6.825,6.825,0,0,1-1.83,12.393Zm-1.7-13.365.83,1.273,1.273.83-1.273.83-.83,1.273-.83-1.273-1.273-.83,1.273-.83Zm-5.06,39.274c0-4.97-3.186-6.882-4.46-6.882s-4.46,1.912-4.46,6.882-1.4,7.136-5.862,6.245S31.9,42.309,31.9,15.42C31.9,8.665,36.744,0,45.155,0c2.345,0,5.734,1.615,7.136,2.421a15.6,15.6,0,0,0,7.136,2.167,15.6,15.6,0,0,0,7.136-2.167C67.965,1.615,71.355,0,73.7,0,82.11,0,86.953,8.665,86.953,15.42c0,26.889-13.763,37.593-17.2,39.25S63.888,53.395,63.888,48.425Z" transform="translate(-8.607)" fill="#fff"/>
</svg>
