<svg xmlns="http://www.w3.org/2000/svg" width="280.895" height="250.712" viewBox="0 0 280.895 250.712">
  <g id="Grupo_1640" data-name="Grupo 1640" transform="translate(-55 -335.288)">
    <ellipse id="Elipse_137" data-name="Elipse 137" cx="103.732" cy="103.733" rx="103.732" ry="103.733" transform="translate(107.223 364.388)" fill="#fff" opacity="0.306"/>
    <g id="Grupo_1308" data-name="Grupo 1308" transform="translate(92.186 351.613)">
      <g id="Grupo_498" data-name="Grupo 498" transform="translate(32.327 226.429)">
        <path id="Caminho_1245" data-name="Caminho 1245" d="M973.153,3351.384c.036.379-.711.785-1.856,1.078a1.378,1.378,0,0,0-1.033,1.25c-.072,1.18-.329,1.99-.708,2.026s-.785-.71-1.078-1.856a1.379,1.379,0,0,0-1.251-1.033c-1.181-.071-1.993-.329-2.029-.708s.712-.788,1.858-1.08a1.378,1.378,0,0,0,1.035-1.251c.071-1.182.328-1.992.708-2.027s.785.71,1.078,1.857a1.379,1.379,0,0,0,1.252,1.033C972.307,3350.744,973.116,3351,973.153,3351.384Z" transform="translate(-965.195 -3347.782)" fill="#fff"/>
      </g>
      <g id="Grupo_499" data-name="Grupo 499" transform="translate(200.051 174.979)">
        <path id="Caminho_1246" data-name="Caminho 1246" d="M3158.345,2682.992c0,.471-.966.882-2.409,1.109a1.7,1.7,0,0,0-1.416,1.416c-.227,1.443-.638,2.408-1.108,2.408s-.882-.966-1.109-2.408a1.7,1.7,0,0,0-1.416-1.416c-1.444-.226-2.412-.637-2.412-1.109s.967-.885,2.41-1.11a1.7,1.7,0,0,0,1.418-1.417c.227-1.444.638-2.41,1.109-2.41s.881.966,1.108,2.41a1.7,1.7,0,0,0,1.418,1.417C3157.38,2682.107,3158.345,2682.519,3158.345,2682.992Z" transform="translate(-3148.475 -2678.056)" fill="#fff"/>
      </g>
      <g id="Grupo_500" data-name="Grupo 500" transform="translate(169.58)">
        <path id="Caminho_1247" data-name="Caminho 1247" d="M2762.778,405.808c0,.522-1.071.978-2.67,1.229a1.887,1.887,0,0,0-1.57,1.57c-.251,1.6-.707,2.671-1.229,2.671s-.978-1.071-1.229-2.67a1.887,1.887,0,0,0-1.57-1.57c-1.6-.251-2.674-.706-2.674-1.229s1.073-.982,2.673-1.231a1.888,1.888,0,0,0,1.572-1.571c.25-1.6.706-2.672,1.229-2.672s.978,1.071,1.229,2.672a1.887,1.887,0,0,0,1.572,1.571C2761.708,404.826,2762.778,405.282,2762.778,405.808Z" transform="translate(-2751.835 -400.334)" fill="#fff"/>
      </g>
      <g id="Grupo_501" data-name="Grupo 501" transform="translate(224.604 31.41)">
        <ellipse id="Elipse_54" data-name="Elipse 54" cx="1.408" cy="1.408" rx="1.408" ry="1.408" transform="translate(0 0)" fill="#fff"/>
      </g>
      <g id="Grupo_502" data-name="Grupo 502" transform="translate(235.095 179.479)">
        <circle id="Elipse_55" data-name="Elipse 55" cx="1.67" cy="1.67" r="1.67" transform="translate(0 2.361) rotate(-45)" fill="#fff"/>
      </g>
      <g id="Grupo_503" data-name="Grupo 503" transform="translate(174.01 222.47)">
        <ellipse id="Elipse_56" data-name="Elipse 56" cx="1.67" cy="1.67" rx="1.67" ry="1.67" transform="translate(0)" fill="#fff"/>
      </g>
      <g id="Grupo_504" data-name="Grupo 504" transform="translate(28.817 45.158)">
        <circle id="Elipse_57" data-name="Elipse 57" cx="1.67" cy="1.67" r="1.67" transform="translate(0 2.361) rotate(-45)" fill="#fff"/>
      </g>
      <g id="Grupo_505" data-name="Grupo 505" transform="translate(195.156 25.556)">
        <ellipse id="Elipse_58" data-name="Elipse 58" cx="1.408" cy="1.408" rx="1.408" ry="1.408" transform="translate(0 2.741) rotate(-76.717)" fill="#fff"/>
      </g>
      <g id="Grupo_506" data-name="Grupo 506" transform="translate(24.34 9.859)">
        <ellipse id="Elipse_59" data-name="Elipse 59" cx="1.67" cy="1.67" rx="1.67" ry="1.67" transform="matrix(0.924, -0.383, 0.383, 0.924, 0, 1.278)" fill="#fff"/>
      </g>
      <g id="Grupo_507" data-name="Grupo 507" transform="translate(10.586 226.203)">
        <path id="Caminho_1248" data-name="Caminho 1248" d="M685.346,3346.272a1.582,1.582,0,1,1-1.725-1.424A1.581,1.581,0,0,1,685.346,3346.272Z" transform="translate(-682.19 -3344.841)" fill="#fff"/>
      </g>
      <g id="Grupo_508" data-name="Grupo 508" transform="translate(235.993 10.346)">
        <ellipse id="Elipse_60" data-name="Elipse 60" cx="0.724" cy="0.724" rx="0.724" ry="0.724" transform="translate(0 0.554) rotate(-22.5)" fill="#fff"/>
      </g>
      <g id="Grupo_509" data-name="Grupo 509" transform="translate(203.814 232.123)">
        <ellipse id="Elipse_61" data-name="Elipse 61" cx="0.859" cy="0.859" rx="0.859" ry="0.859" transform="translate(0 1.695) rotate(-80.783)" fill="#fff"/>
      </g>
      <g id="Grupo_510" data-name="Grupo 510" transform="translate(62.041 10.342)">
        <ellipse id="Elipse_62" data-name="Elipse 62" cx="0.859" cy="0.859" rx="0.859" ry="0.859" transform="matrix(0.23, -0.973, 0.973, 0.23, 0, 1.672)" fill="#fff"/>
      </g>
      <g id="Grupo_511" data-name="Grupo 511" transform="translate(0 65.365)">
        <circle id="Elipse_63" data-name="Elipse 63" cx="0.859" cy="0.859" r="0.859" transform="translate(0 1.214) rotate(-45)" fill="#fff"/>
      </g>
      <g id="Grupo_512" data-name="Grupo 512" transform="translate(16.221 200.84)">
        <ellipse id="Elipse_64" data-name="Elipse 64" cx="0.813" cy="0.813" rx="0.813" ry="0.813" transform="translate(0 1.254) rotate(-50.442)" fill="#fff"/>
      </g>
      <g id="Grupo_513" data-name="Grupo 513" transform="translate(227.988 209.538)">
        <circle id="Elipse_65" data-name="Elipse 65" cx="0.859" cy="0.859" r="0.859" transform="translate(0 1.214) rotate(-45)" fill="#fff"/>
      </g>
      <g id="Grupo_514" data-name="Grupo 514" transform="translate(19.011 96.087)">
        <ellipse id="Elipse_66" data-name="Elipse 66" cx="1.582" cy="1.582" rx="1.582" ry="1.582" transform="translate(0 3.079) rotate(-76.718)" fill="#fff"/>
      </g>
    </g>
    <g id="Grupo_1628" data-name="Grupo 1628" transform="translate(55 335.288)">
      <g id="Grupo_893" data-name="Grupo 893" transform="translate(12.449 43.444)">
        <path id="Caminho_1698" data-name="Caminho 1698" d="M151.84,246.992S87.934,266.984,41.395,231.911c-32.245-24.3-3.952-77.339,27.964-49.456,49.133,42.926,85.234,46.616,85.234,46.616Z" transform="translate(-25.659 -173.043)" fill="#a0d9f9"/>
        <path id="Caminho_1698_-_Contorno" data-name="Caminho 1698 - Contorno" d="M110.685,255.152A132.823,132.823,0,0,1,76.4,250.87a101.1,101.1,0,0,1-34.949-16.778A35.891,35.891,0,0,1,28.491,193.5c3.961-11.838,13.242-19.487,23.642-19.487,6.449,0,12.9,2.783,19.186,8.271a260.718,260.718,0,0,0,33.736,25.178,187.876,187.876,0,0,0,26.725,13.9c14.835,6.171,23.841,7.162,23.931,7.171l1.582.165-.24,1.572-2.9,18.854-.9.282A159.057,159.057,0,0,1,110.685,255.152ZM52.134,177.044a19.251,19.251,0,0,0-12.678,4.922,28.255,28.255,0,0,0-8.091,12.5,32.863,32.863,0,0,0,11.906,37.209,98.089,98.089,0,0,0,33.909,16.27,129.8,129.8,0,0,0,33.505,4.179,158.631,158.631,0,0,0,40.769-5.342l2.373-15.454c-3.238-.536-11.3-2.228-23.042-7.094a190.546,190.546,0,0,1-27.214-14.124,263.611,263.611,0,0,1-34.244-25.54C63.612,179.575,57.828,177.044,52.134,177.044Z" transform="translate(-26.623 -174.014)" fill="#001929"/>
        <path id="Caminho_1699" data-name="Caminho 1699" d="M115.367,220.71c-2.468-2.351-5.471-3.8-8.442-5.436a144.522,144.522,0,0,1-12.444-8.333C86,201.049,77.718,194.89,69.225,189.021c-8.207-5.673-27.543-18.82-33.976-3.166-.077.185.149.39.328.327,2.484-.867,4.461-2.475,6.915-3.465,4.022-1.623,8.227-.149,11.9,1.619,7.118,3.428,13.65,8.632,20.055,13.208,6.6,4.714,13.1,9.578,19.839,14.089,6.061,4.057,13.236,8.773,20.578,9.947C115.337,221.655,115.776,221.1,115.367,220.71Z" transform="translate(-22.169 -171.361)" fill="#fff"/>
        <path id="Caminho_1700" data-name="Caminho 1700" d="M136.936,235.237c-13.679,6.078-27.183,7.217-41.943,5.229-17.2-2.316-34.235-8.609-46.225-21.649a76.905,76.905,0,0,1-13.6-19.87,114.443,114.443,0,0,1-4.892-12.181c-.119-.37-.231-.741-.338-1.113-5.436,12.7-3.521,30.174,11.451,41.459,46.539,35.073,110.445,15.081,110.445,15.081l2.752-17.921s-.848-.087-2.441-.384A41.625,41.625,0,0,1,136.936,235.237Z" transform="translate(-25.658 -168.245)" fill="#c9dbe5" style="mix-blend-mode: multiply;isolation: isolate"/>
        <g id="Grupo_892" data-name="Grupo 892" transform="translate(30.518 37.218)">
          <path id="Caminho_1701" data-name="Caminho 1701" d="M121.65,228.368s-1.273-.106-3.465-.407-5.319-.768-9.04-1.487-8.033-1.683-12.607-2.9c-2.289-.6-4.624-1.329-7.008-2.026-2.348-.812-4.767-1.534-7.122-2.442s-4.736-1.74-6.993-2.782c-2.278-.987-4.527-1.942-6.62-3.047-2.119-1.049-4.169-2.059-6.019-3.189-1.862-1.107-3.689-2.041-5.224-3.149l-4.282-2.872c-1.229-.918-2.263-1.769-3.134-2.444l-2.717-2.142s1,.761,2.759,2.089c.884.658,1.931,1.487,3.176,2.378l4.328,2.785c1.553,1.074,3.4,1.973,5.27,3.038,1.867,1.092,3.928,2.057,6.058,3.061,2.1,1.059,4.363,1.967,6.65,2.905,2.263.994,4.657,1.766,7.012,2.634s4.78,1.53,7.13,2.292c2.384.646,4.717,1.329,7,1.879,4.568,1.12,8.87,2.008,12.577,2.637s6.81,1.059,8.986,1.3c2.176.258,3.415.337,3.415.337Z" transform="translate(-47.417 -199.482)" fill="#001929"/>
        </g>
        <path id="Caminho_1702" data-name="Caminho 1702" d="M57.136,195.908a.93.93,0,0,0-.006-.166v0c-.007-.2-.017-.4-.026-.6a.042.042,0,0,0-.085,0c-.009.2-.017.4-.027.6h0a.952.952,0,0,0-.006.168.076.076,0,0,0,.152,0Z" transform="translate(-12.762 -164.159)" fill="#001929"/>
        <path id="Caminho_1703" data-name="Caminho 1703" d="M57.307,190.123a2.313,2.313,0,0,0-1.195-.309,1.668,1.668,0,0,0-1.319.753c-.685.948.673,2.3,1.62,1.62a4.116,4.116,0,0,0,.38-.3,1.61,1.61,0,0,1,.248-.128c.072-.054.14-.107.211-.163.2-.266.218-.282.056-.044A.834.834,0,0,0,57.307,190.123Z" transform="translate(-13.79 -166.448)" fill="#001929"/>
        <path id="Caminho_1704" data-name="Caminho 1704" d="M63.669,195.671c-.069-.314-.139-.626-.219-.937a.721.721,0,0,0-1.382,0c-.079.311-.149.623-.218.937A.933.933,0,1,0,63.669,195.671Z" transform="translate(-10.671 -164.54)" fill="#001929"/>
        <path id="Caminho_1705" data-name="Caminho 1705" d="M68.659,199.783a1.124,1.124,0,0,0,0,2.246A1.124,1.124,0,0,0,68.659,199.783Z" transform="translate(-8.182 -162.134)" fill="#001929"/>
        <path id="Caminho_1706" data-name="Caminho 1706" d="M70.847,196.748c.013.042.119.284.142.319.02.066.039.132.059.2a.425.425,0,0,0,.814,0c.027-.093.054-.186.082-.276-.082.274.1-.179.12-.242C72.4,195.737,70.512,195.737,70.847,196.748Z" transform="translate(-6.783 -163.774)" fill="#001929"/>
        <path id="Caminho_1707" data-name="Caminho 1707" d="M63.6,201.544a1,1,0,0,0,0,1.994A1,1,0,0,0,63.6,201.544Z" transform="translate(-10.316 -161.372)" fill="#001929"/>
        <path id="Caminho_1708" data-name="Caminho 1708" d="M46.662,188.943c-.02.006-.042.01-.063.017a.608.608,0,0,0,0,1.165l.063.017a.906.906,0,1,0,0-1.2Z" transform="translate(-17.441 -166.948)" fill="#001929"/>
        <path id="Caminho_1709" data-name="Caminho 1709" d="M48.9,179.124a.784.784,0,0,0-.458,1.4c.009.024.017.047.026.073a.453.453,0,0,0,.867,0c.009-.026.016-.049.026-.073A.783.783,0,0,0,48.9,179.124Z" transform="translate(-16.587 -171.069)" fill="#001929"/>
        <path id="Caminho_1710" data-name="Caminho 1710" d="M43.438,182.927a.7.7,0,0,0,0,1.405A.7.7,0,0,0,43.438,182.927Z" transform="translate(-18.914 -169.424)" fill="#001929"/>
        <path id="Caminho_1711" data-name="Caminho 1711" d="M39.728,178.2a.885.885,0,0,0,0,1.769A.885.885,0,0,0,39.728,178.2Z" transform="translate(-20.595 -171.469)" fill="#001929"/>
        <path id="Caminho_1712" data-name="Caminho 1712" d="M51.652,183.545a1.616,1.616,0,0,0,0,3.23A1.616,1.616,0,0,0,51.652,183.545Z" transform="translate(-15.743 -169.157)" fill="#001929"/>
        <path id="Caminho_1713" data-name="Caminho 1713" d="M77.889,204.467c-.434-.1-.219-.435-.411-.764a1.033,1.033,0,0,0-1.609-.206c-.917.915.35,2.134,1.282,1.534a1.388,1.388,0,0,0,.639.153C78.191,205.172,78.3,204.562,77.889,204.467Z" transform="translate(-4.731 -160.655)" fill="#001929"/>
        <path id="Caminho_1714" data-name="Caminho 1714" d="M80.849,202.912a2.874,2.874,0,0,0,.04.506.6.6,0,0,0,1.208,0,3.182,3.182,0,0,0,.042-.506A.645.645,0,0,0,80.849,202.912Z" transform="translate(-2.441 -161.05)" fill="#001929"/>
        <path id="Caminho_1715" data-name="Caminho 1715" d="M84.009,205.942a.689.689,0,0,0,0,1.377A.689.689,0,0,0,84.009,205.942Z" transform="translate(-1.361 -159.47)" fill="#001929"/>
        <path id="Caminho_1716" data-name="Caminho 1716" d="M91.122,208.075c-.252-.047-.529-.233-.159.086a.856.856,0,1,0,0,1.209c-.37.321-.093.133.159.086A.721.721,0,0,0,91.122,208.075Z" transform="translate(1.302 -158.609)" fill="#001929"/>
        <path id="Caminho_1717" data-name="Caminho 1717" d="M31.952,191.055a1.008,1.008,0,0,0-.14-.272c-.027-.08-.056-.159-.08-.242a.438.438,0,0,0-.839,0c-.026.083-.054.162-.08.242a.935.935,0,0,0-.142.272C30.295,192.12,32.329,192.12,31.952,191.055Z" transform="translate(-24.162 -166.265)" fill="#001929"/>
        <path id="Caminho_1718" data-name="Caminho 1718" d="M39.007,187.411l-.41.013a.858.858,0,0,0,0,1.715l.41.013A.871.871,0,0,0,39.007,187.411Z" transform="translate(-21.073 -167.485)" fill="#001929"/>
        <path id="Caminho_1719" data-name="Caminho 1719" d="M35.336,183.016a1.413,1.413,0,0,0-.974,1.719,1.364,1.364,0,0,0,.642.835c-.393-.2.054.07.182.136a1.184,1.184,0,0,0,1.629-.516A1.4,1.4,0,0,0,35.336,183.016Z" transform="translate(-22.567 -169.41)" fill="#001929"/>
      </g>
      <g id="Grupo_896" data-name="Grupo 896" transform="translate(5.493 103.608)">
        <path id="Caminho_1720" data-name="Caminho 1720" d="M156.217,233.7S111.79,283.8,53.83,277.773c-40.161-4.177-43.294-64.206-1.569-56.791,64.239,11.414,97.064-4.053,97.064-4.053Z" transform="translate(-20.801 -214.883)" fill="#a0d9f9"/>
        <path id="Caminho_1720_-_Contorno" data-name="Caminho 1720 - Contorno" d="M151.09,216.195l.606,1.47,7.251,17.643-.627.707a152.118,152.118,0,0,1-26.692,22.54,142.826,142.826,0,0,1-29.677,15.487A106.783,106.783,0,0,1,64.529,281.1a95.954,95.954,0,0,1-9.887-.512,37.8,37.8,0,0,1-14.631-4.529,35.067,35.067,0,0,1-10.452-8.92,35.841,35.841,0,0,1-7.747-23.691,25.335,25.335,0,0,1,6.58-16.311c4.379-4.575,10.611-6.994,18.023-7h.006a40.646,40.646,0,0,1,7.073.657,257.565,257.565,0,0,0,44.8,4.177,168.628,168.628,0,0,0,38.449-4.055,73.9,73.9,0,0,0,12.9-4.054Zm4.328,18.5-5.944-14.462a88.013,88.013,0,0,1-11.9,3.61A171.445,171.445,0,0,1,98.3,228.008a260.6,260.6,0,0,1-45.335-4.224,37.611,37.611,0,0,0-6.543-.61h-.006c-6.566,0-12.041,2.1-15.834,6.061a22.017,22.017,0,0,0-5.743,14.372,32.851,32.851,0,0,0,30.117,33.97,92.941,92.941,0,0,0,9.573.5,103.75,103.75,0,0,0,36.313-6.852,139.723,139.723,0,0,0,29.021-15.131A156.513,156.513,0,0,0,155.419,234.693Z" transform="translate(-21.77 -216.195)" fill="#001929"/>
        <path id="Caminho_1721" data-name="Caminho 1721" d="M113.413,226.908c-3.328-.742-6.65-.435-10.037-.3a144.68,144.68,0,0,1-14.958-.715c-10.3-.675-20.578-1.672-30.88-2.318-9.957-.625-33.306-1.908-30.737,14.822a.268.268,0,0,0,.45.11c1.68-2.026,2.543-4.424,4.134-6.538,2.61-3.465,6.969-4.372,11.026-4.752,7.866-.738,16.149.35,23.993.966,8.086.632,16.16,1.445,24.264,1.831,7.286.345,15.865.683,22.761-2.1A.524.524,0,0,0,113.413,226.908Z" transform="translate(-18.944 -212.143)" fill="#fff"/>
        <path id="Caminho_1722" data-name="Caminho 1722" d="M139.768,235.43c-8.582,12.265-19.561,20.21-33.231,26.123-15.925,6.89-33.767,10.291-50.768,5.31a76.949,76.949,0,0,1-21.9-10A114.531,114.531,0,0,1,23.4,248.947c-.294-.255-.58-.514-.867-.778,1.9,13.682,12.556,27.664,31.205,29.6C111.7,283.8,156.123,233.7,156.123,233.7l-6.892-16.769s-.772.362-2.291.93A41.624,41.624,0,0,1,139.768,235.43Z" transform="translate(-20.706 -214.883)" fill="#c9dbe5" style="mix-blend-mode: multiply;isolation: isolate"/>
        <g id="Grupo_895" data-name="Grupo 895" transform="translate(34.519 21.757)">
          <g id="Grupo_894" data-name="Grupo 894">
            <path id="Caminho_1723" data-name="Caminho 1723" d="M123.846,232.087s-1.145.566-3.179,1.438-4.952,2.087-8.51,3.391-7.751,2.7-12.3,4.022c-2.269.669-4.647,1.248-7.048,1.881-2.429.516-4.875,1.146-7.36,1.583s-4.956.954-7.428,1.226c-2.461.331-4.879.672-7.241.806-2.358.195-4.633.388-6.8.374-2.166.013-4.212.156-6.1,0l-5.15-.252c-1.526-.15-2.851-.347-3.945-.476l-3.432-.431,3.439.365c1.1.107,2.422.278,3.948.4l5.146.152c1.882.119,3.924-.063,6.081-.117,2.16-.029,4.426-.264,6.769-.5,2.349-.178,4.753-.566,7.2-.943,2.452-.317,4.9-.891,7.364-1.362s4.886-1.157,7.29-1.716c2.377-.676,4.729-1.295,6.971-2,4.492-1.4,8.634-2.856,12.135-4.232s6.38-2.609,8.369-3.523,3.1-1.475,3.1-1.475Z" transform="translate(-45.354 -230.689)" fill="#001929"/>
          </g>
        </g>
        <path id="Caminho_1724" data-name="Caminho 1724" d="M51.822,233.07a.983.983,0,0,0-.092-.14h0c-.11-.165-.222-.331-.332-.5a.042.042,0,0,0-.072.043c.1.176.191.351.285.527h0a.954.954,0,0,0,.08.146.077.077,0,0,0,.132-.079Z" transform="translate(-8.255 -208.187)" fill="#001929"/>
        <path id="Caminho_1725" data-name="Caminho 1725" d="M48.831,228.353a2.332,2.332,0,0,0-1.185.351,1.671,1.671,0,0,0-.739,1.328,1.191,1.191,0,0,0,2.225.552,4.153,4.153,0,0,0,.17-.45,1.64,1.64,0,0,1,.148-.238c.033-.082.064-.165.1-.249.032-.329.039-.352.024-.066A.835.835,0,0,0,48.831,228.353Z" transform="translate(-10.165 -209.945)" fill="#001929"/>
        <path id="Caminho_1726" data-name="Caminho 1726" d="M57.173,229.662c-.223-.233-.446-.464-.673-.69a.721.721,0,0,0-1.183.713c.093.308.193.612.3.917C56.115,232.075,58.241,230.8,57.173,229.662Z" transform="translate(-6.539 -209.759)" fill="#001929"/>
        <path id="Caminho_1727" data-name="Caminho 1727" d="M63.584,230.649a1.124,1.124,0,0,0,1.159,1.925A1.124,1.124,0,0,0,63.584,230.649Z" transform="translate(-3.181 -209.022)" fill="#001929"/>
        <path id="Caminho_1728" data-name="Caminho 1728" d="M63.951,226.836c.036.029.249.182.287.2l.153.14a.426.426,0,0,0,.7-.42c-.024-.093-.049-.186-.072-.279.07.276-.009-.2-.024-.268C64.757,225.17,63.143,226.143,63.951,226.836Z" transform="translate(-2.889 -211.065)" fill="#001929"/>
        <path id="Caminho_1729" data-name="Caminho 1729" d="M60.174,234.743a1,1,0,0,0,1.03,1.708A1,1,0,0,0,60.174,234.743Z" transform="translate(-4.629 -207.244)" fill="#001929"/>
        <path id="Caminho_1730" data-name="Caminho 1730" d="M39.159,232.718l-.047.049a.608.608,0,0,0,.6,1l.064-.019a.9.9,0,1,0-.617-1.027Z" transform="translate(-13.605 -208.372)" fill="#001929"/>
        <path id="Caminho_1731" data-name="Caminho 1731" d="M36.035,223.081a.783.783,0,0,0,.329,1.44l.06.049a.453.453,0,0,0,.742-.448l-.016-.074A.783.783,0,0,0,36.035,223.081Z" transform="translate(-15.025 -212.271)" fill="#001929"/>
        <path id="Caminho_1732" data-name="Caminho 1732" d="M33.328,229.143a.7.7,0,0,0,.723,1.2A.7.7,0,0,0,33.328,229.143Z" transform="translate(-16.18 -209.646)" fill="#001929"/>
        <path id="Caminho_1733" data-name="Caminho 1733" d="M27.689,227.042a.886.886,0,0,0,.914,1.517A.886.886,0,0,0,27.689,227.042Z" transform="translate(-18.656 -210.566)" fill="#001929"/>
        <path id="Caminho_1734" data-name="Caminho 1734" d="M40.585,225.611a1.616,1.616,0,0,0,1.667,2.768A1.616,1.616,0,0,0,40.585,225.611Z" transform="translate(-13.228 -211.233)" fill="#001929"/>
        <path id="Caminho_1735" data-name="Caminho 1735" d="M73.911,229.887c-.421.14-.413-.262-.746-.443a1.033,1.033,0,0,0-1.485.652,1.007,1.007,0,0,0,1.891.655,1.373,1.373,0,0,0,.626-.2C74.533,230.332,74.314,229.752,73.911,229.887Z" transform="translate(0.534 -209.523)" fill="#001929"/>
        <path id="Caminho_1736" data-name="Caminho 1736" d="M75.687,226.949a2.773,2.773,0,0,0,.3.411.6.6,0,0,0,1.033-.623,2.724,2.724,0,0,0-.225-.453A.645.645,0,0,0,75.687,226.949Z" transform="translate(2.248 -210.966)" fill="#001929"/>
        <path id="Caminho_1737" data-name="Caminho 1737" d="M79.956,227.92a.688.688,0,0,0,.712,1.178A.688.688,0,0,0,79.956,227.92Z" transform="translate(3.99 -210.174)" fill="#001929"/>
        <path id="Caminho_1738" data-name="Caminho 1738" d="M87.134,226.168c-.242.089-.574.073-.093.156a.855.855,0,1,0,.625,1.036c-.15.464-.01.162.181-.01A.72.72,0,0,0,87.134,226.168Z" transform="translate(6.733 -210.904)" fill="#001929"/>
        <path id="Caminho_1739" data-name="Caminho 1739" d="M27.645,242.021a.974.974,0,0,0-.261-.159c-.064-.056-.129-.109-.193-.166a.439.439,0,0,0-.719.433c.021.083.039.166.056.249a.976.976,0,0,0,.02.3C26.774,243.789,28.517,242.739,27.645,242.021Z" transform="translate(-19.008 -204.221)" fill="#001929"/>
        <path id="Caminho_1740" data-name="Caminho 1740" d="M31.825,235.368l-.344.222a.858.858,0,0,0,.885,1.47c.119-.069.238-.135.358-.2C33.7,236.311,32.769,234.757,31.825,235.368Z" transform="translate(-17.009 -206.969)" fill="#001929"/>
        <path id="Caminho_1741" data-name="Caminho 1741" d="M26.349,233.538a1.41,1.41,0,0,0,.053,1.975,1.366,1.366,0,0,0,.98.384c-.437.036.082.032.226.024a1.186,1.186,0,0,0,1.129-1.284A1.4,1.4,0,0,0,26.349,233.538Z" transform="translate(-19.218 -207.887)" fill="#001929"/>
      </g>
      <g id="Grupo_904" data-name="Grupo 904" transform="translate(0 0)">
        <path id="Caminho_1742" data-name="Caminho 1742" d="M198.548,244.871a30.282,30.282,0,0,1-4.118-.285c-8.23-1.129-15.115-5.33-19.442-8.655-5.375-4.131-8.959-8.553-10.127-11.1a1.515,1.515,0,0,1,2.755-1.262c1.922,4.2,13.205,16.094,27.226,18.017,9.8,1.344,18.637-2.543,26.259-11.554a1.515,1.515,0,0,1,2.313,1.957A36.971,36.971,0,0,1,208.948,242.9,28.194,28.194,0,0,1,198.548,244.871Z" transform="translate(45.548 -109.522)" fill="#001929"/>
        <path id="Caminho_1743" data-name="Caminho 1743" d="M204.269,231.395c3.514,2.935,8.321-1.867,9-3.442,1.027-2.4-.617-5.449-2.526-5.489-1.738-.039-4.624,2.921-4.624,2.921s-1.255-2.1-1.666-1.424C203.076,226.219,202.231,229.689,204.269,231.395Z" transform="translate(62.861 -108.881)" fill="#eff9ff"/>
        <path id="Caminho_1743_-_Contorno" data-name="Caminho 1743 - Contorno" d="M207.751,234.812h0a5.315,5.315,0,0,1-3.487-1.283c-2.665-2.23-1.941-6.428-.141-9.385a1.76,1.76,0,0,1,1.508-.861,2.141,2.141,0,0,1,1.655.818c1.211-1.023,2.958-2.214,4.455-2.181a4.176,4.176,0,0,1,3.345,2.1,5.966,5.966,0,0,1,.54,5.5C214.854,231.317,211.376,234.812,207.751,234.812Zm-1.824-7.437c-.539,1.543-.579,3.11.28,3.829a2.329,2.329,0,0,0,1.544.578c2.15,0,4.72-2.594,5.089-3.456a3,3,0,0,0-.3-2.67c-.31-.48-.665-.7-.864-.708-.569,0-2.272,1.2-3.508,2.464l-1.374,1.409Z" transform="translate(61.896 -109.852)" fill="#001929"/>
        <path id="Caminho_1744" data-name="Caminho 1744" d="M189.342,177.417c-10.441,0-19.863,9.476-33.953,9.476s-23.509-9.476-33.95-9.476c-20.641,0-43.012,29.455-39.984,53.094,3.375,26.354,32.714,105.8,52.964,105.8,10,0,9.946-19.847,15.06-41.151,2.336-9.737,7.011-10.906,9.347.779,4.373,21.867,8.177,40.372,17.535,40.372,20.251,0,50.172-84.616,52.965-105.8C232.441,206.885,209.452,177.417,189.342,177.417Z" transform="translate(10.151 -128.363)" fill="#eff9ff"/>
        <path id="Caminho_1744_-_Contorno" data-name="Caminho 1744 - Contorno" d="M122.408,176.873c5.149,0,9.938,2.106,15.009,4.336,5.747,2.527,11.689,5.14,18.941,5.14s13.2-2.613,18.944-5.14c5.071-2.23,9.86-4.336,15.009-4.336,8.941,0,18.863,5.468,27.222,15a62.355,62.355,0,0,1,11.383,18.866,43.817,43.817,0,0,1,2.881,20.94c-1.382,10.481-9.44,36.879-20.049,61.25C205.973,306.2,200.34,316.849,195,324.59a52.972,52.972,0,0,1-8.715,10.168c-3.143,2.68-6.157,4.039-8.959,4.039-6.593,0-10.041-7.411-12.061-12.985-2.763-7.624-4.9-18.29-6.959-28.605-1.2-5.983-2.781-7.206-3.14-7.206-.53,0-2.085,1.633-3.248,6.483-1.345,5.6-2.353,11.234-3.243,16.2-1.29,7.206-2.4,13.429-4.171,18.012-2.1,5.449-5.084,8.1-9.119,8.1-2.792,0-5.788-1.279-8.9-3.8a50.1,50.1,0,0,1-8.669-9.653c-5.286-7.352-11.033-17.886-16.62-30.461-9.754-21.954-18.469-49.126-20.272-63.205a44.71,44.71,0,0,1,2.885-21.086,61.77,61.77,0,0,1,11.4-18.96C103.461,182.252,113.375,176.873,122.408,176.873Zm33.95,12.506c-7.889,0-14.409-2.867-20.161-5.4-4.771-2.1-9.277-4.08-13.789-4.08-8.162,0-17.248,5-24.926,13.728A58.706,58.706,0,0,0,86.645,211.65a41.687,41.687,0,0,0-2.718,19.64c1.771,13.828,10.384,40.637,20.036,62.36,5.5,12.389,11.145,22.736,16.312,29.923,5.736,7.978,10.962,12.195,15.114,12.195,1.824,0,4.188-.7,6.292-6.158,1.663-4.313,2.753-10.4,4.016-17.456.9-5.009,1.913-10.686,3.279-16.375,1.746-7.277,4.332-8.805,6.194-8.805,2.776,0,4.832,3.243,6.112,9.641,2.041,10.2,4.151,20.757,6.837,28.167,3.982,10.987,7.919,10.987,9.213,10.987,4.114,0,9.363-4.46,15.179-12.9,5.152-7.474,10.844-18.245,16.461-31.149,10.5-24.13,18.468-50.159,19.823-60.437a40.8,40.8,0,0,0-2.712-19.475,59.292,59.292,0,0,0-10.827-17.938,48.624,48.624,0,0,0-12.116-10.154,26.007,26.007,0,0,0-12.827-3.815c-4.512,0-9.018,1.982-13.79,4.079C170.769,186.512,164.248,189.379,156.358,189.379Z" transform="translate(9.182 -129.334)" fill="#001929"/>
        <path id="Caminho_1745" data-name="Caminho 1745" d="M122.278,298.414c9.634.779,7.723-28.3,27.652-29.484,11.446-.679,16.5,5.015,18.191,13.842,1.784,9.337,1.122,18.06,11.165,17.461s37.471-43.877,36.725-71.331c-.339-12.547-5.653-26.663-11.553-37.7a21.416,21.416,0,0,0-19.8-11.106c-10.112.368-19.144,7.1-27.716,11.754-11.547,6.27-20.039-4.214-30.448-7.029-9.946-2.687-19.119-.043-25.7,8.181-7.946,9.933-8.081,24.622-5.2,36.477C97.7,238.118,112.643,297.638,122.278,298.414Z" transform="translate(15.644 -127.213)" fill="#fff" opacity="0.7"/>
        <path id="Caminho_1746" data-name="Caminho 1746" d="M140.417,198.058c6.834.723,12.51-.94,19.019-2.8,6.323-1.806,13.273-2.9,19.376.289,12.479,6.516,18.383,22.639,20.734,35.672,1.414,7.834,2.415,15.825,1.229,23.751a53.972,53.972,0,0,1-1.586,7.076c4.926-11.278,8.326-23.242,8.056-33.148-.339-12.547-5.653-26.663-11.553-37.7a21.416,21.416,0,0,0-19.8-11.106c-10.112.368-19.144,7.1-27.716,11.754-11.547,6.27-20.039-4.214-30.448-7.029a29.931,29.931,0,0,0-3.583-.738C120.852,191.453,130.77,197.037,140.417,198.058Z" transform="translate(24.408 -127.213)" fill="#fff"/>
        <path id="Caminho_1747" data-name="Caminho 1747" d="M123.17,190.146c5.194,4.21,11.94,5.383,18.453,4.23,7.8-1.382,16.425-5.511,19.316-12.182-5.38,2.348-11.217,4.674-18.2,4.674-13.354,0-22.513-8.506-32.324-9.4C114.694,181.667,118.482,186.344,123.17,190.146Z" transform="translate(22.797 -128.339)" fill="#dff2fe" style="mix-blend-mode: multiply;isolation: isolate"/>
        <path id="Caminho_1748" data-name="Caminho 1748" d="M198.729,279c-3.813,5.668-14.1,12.844-22.035,10.7-7.788-2.11-8.456-13.056-9.943-19.442-.7-3.005-1.166-8.307-4.409-9.74a11.905,11.905,0,0,0-10.426.583,26.557,26.557,0,0,0-12.2,17.913c-1.007,6.585-2.206,15.937-10.712,16.116-4.469.092-6.756-4.819-9.38-7.852-4.242-4.9-23.195-38.391-37.835-70.121,5.37,29.449,33.012,101.968,52.359,101.968,10,0,9.946-19.847,15.06-41.151,2.336-9.737,7.011-10.906,9.347.779,4.373,21.867,8.177,40.372,17.535,40.372,14.632,0,34.31-44.171,45.158-76.676C214.047,257.194,207.078,266.594,198.729,279Z" transform="translate(10.417 -111.176)" fill="#dff2fe" style="mix-blend-mode: multiply;isolation: isolate"/>
        <g id="Grupo_897" data-name="Grupo 897" transform="translate(150.599 54.512)">
          <path id="Caminho_1749" data-name="Caminho 1749" d="M152.706,182.75l-1.273.427c-.4.146-.915.281-1.444.513l-1.812.742c-1.349.537-2.912,1.259-4.646,1.892-.867.317-1.743.69-2.667.986l-2.8.877c-.928.328-1.912.466-2.849.7-.948.191-1.862.473-2.779.574l-2.632.338a19.959,19.959,0,0,1-2.358.242l-4.889.128,4.866-.371a19.209,19.209,0,0,0,2.331-.357l2.587-.464c.9-.145,1.793-.471,2.717-.7.914-.282,1.871-.461,2.772-.832.911-.335,1.821-.669,2.716-1s1.743-.748,2.58-1.1c1.676-.711,3.183-1.5,4.53-2.114l1.849-.865c.55-.272,1.036-.421,1.434-.59l1.251-.49a.779.779,0,0,1,.569,1.451l-.033.011Z" transform="translate(-122.553 -181.227)" fill="#001929"/>
        </g>
        <path id="Caminho_1750" data-name="Caminho 1750" d="M103.083,183.952c-1.23-.09-2.723,1.036-3.646,1.762a10.279,10.279,0,0,0-2.844,3.634.073.073,0,0,0,.126.073,12.425,12.425,0,0,1,3.1-3.212c1.021-.774,2.51-1.079,3.385-1.961A.176.176,0,0,0,103.083,183.952Z" transform="translate(16.815 -125.539)" fill="#001929"/>
        <path id="Caminho_1751" data-name="Caminho 1751" d="M103.293,184.738a5.652,5.652,0,0,0-3.991,2.51c-.042.073.046.181.125.125a9.945,9.945,0,0,1,4.113-1.738C104.131,185.528,103.88,184.632,103.293,184.738Z" transform="translate(17.985 -125.201)" fill="#001929"/>
        <path id="Caminho_1752" data-name="Caminho 1752" d="M102.19,258.607c-.6-.772-1.391-1.306-2.049-2.03a6.665,6.665,0,0,1-1.663-3.177c-.011-.066-.1-.043-.106.013-.241,2.165,1.369,5.2,3.753,5.349C102.214,258.768,102.234,258.663,102.19,258.607Z" transform="translate(17.577 -95.518)" fill="#001929"/>
        <path id="Caminho_1753" data-name="Caminho 1753" d="M104.239,257.031c-1.142-1.013-2.748-1.437-3.692-2.7a.092.092,0,0,0-.166.072,3.929,3.929,0,0,0,3.788,2.8A.1.1,0,0,0,104.239,257.031Z" transform="translate(18.455 -95.117)" fill="#001929"/>
        <path id="Caminho_1754" data-name="Caminho 1754" d="M169.787,249c-.683,1.369-.924,2.919-1.636,4.31-.688,1.349-1.677,2.5-2.483,3.77-.019.029.02.07.05.05,2.232-1.51,4.649-5.243,4.494-8.016C170.2,248.907,169.894,248.785,169.787,249Z" transform="translate(46.691 -97.452)" fill="#001929"/>
        <path id="Caminho_1755" data-name="Caminho 1755" d="M168.222,247.421a.158.158,0,0,0-.284-.037,6.242,6.242,0,0,0-.706,2.376,15.336,15.336,0,0,1-.733,2.511c-.1.246.268.358.4.169C167.811,251.139,168.821,249.03,168.222,247.421Z" transform="translate(47.045 -98.134)" fill="#001929"/>
        <path id="Caminho_1756" data-name="Caminho 1756" d="M160.36,180.55c-1.534-1.117-3.909-.875-5.562-.146-.077.033-.036.152.042.152.828,0,1.646-.085,2.474-.1,1.019-.02,1.973.274,2.98.351C160.441,180.818,160.46,180.623,160.36,180.55Z" transform="translate(41.974 -127.339)" fill="#001929"/>
        <path id="Caminho_1757" data-name="Caminho 1757" d="M161.424,182.258a4.474,4.474,0,0,0-4.429-.653c-.168.056-.15.344.042.322a5.467,5.467,0,0,1,3.169.619c.307.16,1.175.854,1.332.142A.444.444,0,0,0,161.424,182.258Z" transform="translate(42.892 -126.681)" fill="#001929"/>
        <g id="Grupo_902" data-name="Grupo 902" transform="translate(0 0)">
          <g id="Grupo_898" data-name="Grupo 898" transform="translate(145.672 94.858)">
            <path id="Caminho_1758" data-name="Caminho 1758" d="M134.3,216.987a7.594,7.594,0,1,1-7.594-7.6A7.593,7.593,0,0,1,134.3,216.987Z" transform="translate(-119.114 -209.392)" fill="#001929"/>
            <path id="Caminho_1759" data-name="Caminho 1759" d="M129.3,216.933a2.239,2.239,0,1,1-2.238-2.239A2.238,2.238,0,0,1,129.3,216.933Z" transform="translate(-116.645 -207.099)" fill="#fff"/>
            <path id="Caminho_1760" data-name="Caminho 1760" d="M126.7,214.121a1.445,1.445,0,1,1-1.445-1.444A1.446,1.446,0,0,1,126.7,214.121Z" transform="translate(-117.081 -207.971)" fill="#fff"/>
          </g>
          <g id="Grupo_899" data-name="Grupo 899" transform="translate(200.815 94.858)">
            <path id="Caminho_1761" data-name="Caminho 1761" d="M157.608,216.987a7.594,7.594,0,1,0,7.594-7.6A7.594,7.594,0,0,0,157.608,216.987Z" transform="translate(-157.608 -209.392)" fill="#001929"/>
            <path id="Caminho_1762" data-name="Caminho 1762" d="M159.376,216.933a2.239,2.239,0,1,0,2.239-2.239A2.238,2.238,0,0,0,159.376,216.933Z" transform="translate(-156.843 -207.099)" fill="#fff"/>
            <path id="Caminho_1763" data-name="Caminho 1763" d="M161.494,214.121a1.444,1.444,0,1,0,1.444-1.444A1.446,1.446,0,0,0,161.494,214.121Z" transform="translate(-155.927 -207.971)" fill="#fff"/>
          </g>
          <path id="Caminho_1764" data-name="Caminho 1764" d="M175.049,210.816a2.273,2.273,0,0,1-2.2-1.713c-.686-2.7-3.688-3.942-6.3-3.78-.6.037-3.616.345-3.915,2.725a2.272,2.272,0,1,1-4.509-.566c.476-3.789,3.672-6.417,8.143-6.694a11.841,11.841,0,0,1,6.572,1.494,9.067,9.067,0,0,1,4.413,5.7,2.274,2.274,0,0,1-2.2,2.833Z" transform="translate(42.319 -119.37)" fill="#001929"/>
          <path id="Caminho_1765" data-name="Caminho 1765" d="M120.154,210.816a2.274,2.274,0,0,1-2.2-2.833,9.067,9.067,0,0,1,4.413-5.7,11.842,11.842,0,0,1,6.572-1.494c4.47.278,7.665,2.906,8.14,6.695a2.272,2.272,0,1,1-4.51.565c-.3-2.379-3.312-2.687-3.913-2.724-2.61-.163-5.612,1.083-6.3,3.78A2.273,2.273,0,0,1,120.154,210.816Z" transform="translate(24.92 -119.37)" fill="#001929"/>
          <path id="Caminho_1766" data-name="Caminho 1766" d="M135.62,228.513c0,13.049,19.472,13.049,19.472,0Z" transform="translate(33.697 -106.264)" fill="#d13a3b"/>
          <path id="Caminho_1766_-_Contorno" data-name="Caminho 1766 - Contorno" d="M135.076,227.969h22.5v1.515a10.984,10.984,0,0,1-3.548,8.47,11.892,11.892,0,0,1-15.406,0,10.984,10.984,0,0,1-3.548-8.47ZM154.441,231H138.214a7.627,7.627,0,0,0,2.429,4.7,8.867,8.867,0,0,0,11.368,0A7.627,7.627,0,0,0,154.441,231Z" transform="translate(32.726 -107.236)" fill="#001929"/>
          <path id="Caminho_1767" data-name="Caminho 1767" d="M151.547,231.431c2.745,0,3.545-1.329,3.545-2.918H135.62c0,1.589,3.017,2.918,4.574,2.918Z" transform="translate(33.697 -106.264)" fill="#fff"/>
          <path id="Caminho_1767_-_Contorno" data-name="Caminho 1767 - Contorno" d="M152.518,233.917H141.165c-2.147,0-6.089-1.683-6.089-4.433v-1.515h22.5v1.515C157.578,232.26,155.686,233.917,152.518,233.917Z" transform="translate(32.726 -107.236)" fill="#001929"/>
          <path id="Caminho_1768" data-name="Caminho 1768" d="M173.977,227.023c0,2.079-3.269,3.763-7.3,3.763s-7.3-1.685-7.3-3.763,3.269-3.765,7.3-3.765S173.977,224.943,173.977,227.023Z" transform="translate(43.972 -108.537)" fill="#f5b4b2"/>
          <path id="Caminho_1769" data-name="Caminho 1769" d="M133.322,227.023c0,2.079-3.27,3.763-7.3,3.763s-7.3-1.685-7.3-3.763,3.268-3.765,7.3-3.765S133.322,224.943,133.322,227.023Z" transform="translate(26.388 -108.537)" fill="#f5b4b2"/>
          <path id="Caminho_1770" data-name="Caminho 1770" d="M152.782,232.509a1.519,1.519,0,0,1-.3-.03,5.192,5.192,0,0,1-3.75-3.652,1.515,1.515,0,1,1,2.906-.857,2.149,2.149,0,0,0,1.441,1.539,1.515,1.515,0,0,1-.3,3Z" transform="translate(38.605 -107.706)" fill="#001929"/>
          <path id="Caminho_1771" data-name="Caminho 1771" fill="#001929"/>
          <path id="Caminho_1772" data-name="Caminho 1772" d="M144.65,236.9a12.189,12.189,0,0,1-2.463.318c-.243.006-1.192-.009-1.255.393-.089.554.6.938,1.057,1.054a5.105,5.105,0,0,0,3.107-.143A.842.842,0,0,0,144.65,236.9Z" transform="translate(35.991 -102.649)" fill="#001929"/>
          <g id="Grupo_900" data-name="Grupo 900" transform="translate(200.654 112.561)">
            <path id="Caminho_1773" data-name="Caminho 1773" d="M158.294,222.89a.259.259,0,0,0,0,.519A.259.259,0,0,0,158.294,222.89Z" transform="translate(-157.259 -221.257)" fill="#001929"/>
            <path id="Caminho_1774" data-name="Caminho 1774" d="M160.289,222.579a.965.965,0,0,0,0,1.928A.965.965,0,0,0,160.289,222.579Z" transform="translate(-156.69 -221.391)" fill="#001929"/>
            <path id="Caminho_1775" data-name="Caminho 1775" d="M163.834,222.319a.487.487,0,0,0,0,.973A.487.487,0,0,0,163.834,222.319Z" transform="translate(-154.958 -221.504)" fill="#001929"/>
            <path id="Caminho_1776" data-name="Caminho 1776" d="M162.52,223.671a.747.747,0,0,0,0,1.494A.747.747,0,0,0,162.52,223.671Z" transform="translate(-155.635 -220.919)" fill="#001929"/>
            <path id="Caminho_1777" data-name="Caminho 1777" d="M165.51,224.012a.831.831,0,0,0,0,1.662A.831.831,0,0,0,165.51,224.012Z" transform="translate(-154.377 -220.772)" fill="#001929"/>
            <path id="Caminho_1778" data-name="Caminho 1778" d="M167.331,221.75a.661.661,0,0,0,0,1.321A.661.661,0,0,0,167.331,221.75Z" transform="translate(-153.518 -221.75)" fill="#001929"/>
            <path id="Caminho_1779" data-name="Caminho 1779" d="M170.013,222.457a.516.516,0,0,0,0,1.031A.516.516,0,0,0,170.013,222.457Z" transform="translate(-152.297 -221.444)" fill="#001929"/>
            <path id="Caminho_1780" data-name="Caminho 1780" d="M169.715,224.759a.21.21,0,0,0,0,.42A.21.21,0,0,0,169.715,224.759Z" transform="translate(-152.298 -220.449)" fill="#001929"/>
            <path id="Caminho_1781" data-name="Caminho 1781" d="M159.748,225.914a.454.454,0,0,0,0,.908A.454.454,0,0,0,159.748,225.914Z" transform="translate(-156.712 -219.949)" fill="#001929"/>
            <path id="Caminho_1782" data-name="Caminho 1782" d="M157.893,224.288a.411.411,0,0,0,0,.822A.411.411,0,0,0,157.893,224.288Z" transform="translate(-157.495 -220.652)" fill="#001929"/>
            <path id="Caminho_1783" data-name="Caminho 1783" d="M162.432,226.465a.119.119,0,0,0,0,.238A.119.119,0,0,0,162.432,226.465Z" transform="translate(-155.41 -219.711)" fill="#001929"/>
            <path id="Caminho_1784" data-name="Caminho 1784" d="M164.624,225.929a.216.216,0,0,0,0,.433A.216.216,0,0,0,164.624,225.929Z" transform="translate(-154.504 -219.943)" fill="#001929"/>
          </g>
          <g id="Grupo_901" data-name="Grupo 901" transform="translate(144.159 112.561)">
            <path id="Caminho_1785" data-name="Caminho 1785" d="M118.856,222.89a.259.259,0,0,0,0,.519A.259.259,0,0,0,118.856,222.89Z" transform="translate(-117.821 -221.257)" fill="#001929"/>
            <path id="Caminho_1786" data-name="Caminho 1786" d="M120.851,222.579a.965.965,0,0,0,0,1.928A.965.965,0,0,0,120.851,222.579Z" transform="translate(-117.252 -221.391)" fill="#001929"/>
            <path id="Caminho_1787" data-name="Caminho 1787" d="M124.4,222.319a.487.487,0,0,0,0,.973A.487.487,0,0,0,124.4,222.319Z" transform="translate(-115.519 -221.504)" fill="#001929"/>
            <path id="Caminho_1788" data-name="Caminho 1788" d="M123.082,223.671a.747.747,0,0,0,0,1.494A.747.747,0,0,0,123.082,223.671Z" transform="translate(-116.197 -220.919)" fill="#001929"/>
            <path id="Caminho_1789" data-name="Caminho 1789" d="M126.073,224.012a.831.831,0,0,0,0,1.662A.831.831,0,0,0,126.073,224.012Z" transform="translate(-114.939 -220.772)" fill="#001929"/>
            <path id="Caminho_1790" data-name="Caminho 1790" d="M127.893,221.75a.661.661,0,0,0,0,1.321A.661.661,0,0,0,127.893,221.75Z" transform="translate(-114.08 -221.75)" fill="#001929"/>
            <path id="Caminho_1791" data-name="Caminho 1791" d="M130.576,222.457a.516.516,0,0,0,0,1.031A.516.516,0,0,0,130.576,222.457Z" transform="translate(-112.859 -221.444)" fill="#001929"/>
            <path id="Caminho_1792" data-name="Caminho 1792" d="M130.277,224.759a.21.21,0,0,0,0,.42A.21.21,0,0,0,130.277,224.759Z" transform="translate(-112.86 -220.449)" fill="#001929"/>
            <path id="Caminho_1793" data-name="Caminho 1793" d="M120.311,225.914a.454.454,0,0,0,0,.908A.454.454,0,0,0,120.311,225.914Z" transform="translate(-117.273 -219.949)" fill="#001929"/>
            <path id="Caminho_1794" data-name="Caminho 1794" d="M118.455,224.288a.411.411,0,0,0,0,.822A.411.411,0,0,0,118.455,224.288Z" transform="translate(-118.057 -220.652)" fill="#001929"/>
            <path id="Caminho_1795" data-name="Caminho 1795" d="M123,226.465a.119.119,0,0,0,0,.238A.119.119,0,0,0,123,226.465Z" transform="translate(-115.971 -219.711)" fill="#001929"/>
            <path id="Caminho_1796" data-name="Caminho 1796" d="M125.186,225.929a.216.216,0,0,0,0,.433A.216.216,0,0,0,125.186,225.929Z" transform="translate(-115.066 -219.943)" fill="#001929"/>
          </g>
        </g>
        <path id="Caminho_1797" data-name="Caminho 1797" d="M93.282,285.036a1.51,1.51,0,0,1-1.04-.414,36.972,36.972,0,0,1-10.1-15.041,28.553,28.553,0,0,1-.89-14.588c1.577-8.156,6.149-14.8,9.706-18.939,4.419-5.141,9.03-8.477,11.64-9.5a1.515,1.515,0,1,1,1.109,2.82c-4.3,1.689-16.793,12.3-19.48,26.2-1.879,9.714,1.519,18.748,10.1,26.851a1.515,1.515,0,0,1-1.04,2.616Z" transform="translate(9.206 -107.895)" fill="#001929"/>
        <path id="Caminho_1798" data-name="Caminho 1798" d="M102.266,230.967c.329,2.518-6.164,6.271-6.164,6.271s-6.877-4.144-6.177-10.045a11.024,11.024,0,0,1,7.7-4.528" transform="translate(13.913 -108.793)" fill="#eff9ff"/>
        <path id="Caminho_1798_-_Contorno" data-name="Caminho 1798 - Contorno" d="M97.058,239.969l-.766-.461c-.315-.19-7.706-4.727-6.9-11.521l.054-.455.3-.349c.047-.055.1-.123.167-.2a12.26,12.26,0,0,1,8.526-4.849,1.515,1.515,0,0,1,.316,3.013,9.216,9.216,0,0,0-6.386,3.618c-.16,3.626,3.212,6.52,4.747,7.644.567-.363,1.364-.9,2.15-1.516,2.414-1.894,2.471-2.754,2.47-2.762a1.515,1.515,0,1,1,3-.385c.216,1.654-.9,3.391-3.52,5.464a31.511,31.511,0,0,1-3.388,2.315Z" transform="translate(12.941 -109.765)" fill="#001929"/>
        <path id="Caminho_1799" data-name="Caminho 1799" d="M88.6,265.588c-3.124,3.346,1.408,8.41,2.944,9.171,2.338,1.156,5.475-.319,5.62-2.22.133-1.733-2.664-4.777-2.664-4.777s2.166-1.137,1.514-1.586C93.835,264.677,90.416,263.646,88.6,265.588Z" transform="translate(12.898 -90.69)" fill="#eff9ff"/>
        <path id="Caminho_1799_-_Contorno" data-name="Caminho 1799 - Contorno" d="M92.268,263.98h0a10.406,10.406,0,0,1,5.577,1.918,1.759,1.759,0,0,1,.776,1.561,2.144,2.144,0,0,1-.907,1.6c.955,1.264,2.05,3.066,1.934,4.567-.169,2.22-2.558,4.028-5.325,4.028a5.534,5.534,0,0,1-2.476-.565,10.877,10.877,0,0,1-4.756-6.7,5.44,5.44,0,0,1,1.377-4.863A5.043,5.043,0,0,1,92.268,263.98Zm2.252,3.542a6.113,6.113,0,0,0-2.252-.512,2.048,2.048,0,0,0-1.587.583,2.424,2.424,0,0,0-.61,2.253,8.2,8.2,0,0,0,3.119,4.526,2.533,2.533,0,0,0,1.132.251c1.3,0,2.272-.8,2.3-1.229.039-.558-1.063-2.325-2.269-3.637l-1.333-1.45Z" transform="translate(11.926 -91.661)" fill="#001929"/>
        <path id="Caminho_1800" data-name="Caminho 1800" d="M202.49,199.284l5.239,5.684,7.653-1.095-3.786,6.74,3.4,6.94-7.579-1.519-5.548,5.384-.9-7.679-6.835-3.613,7.025-3.227Z" transform="translate(59.007 -118.906)" fill="#f7933e"/>
        <path id="Caminho_1800_-_Contorno" data-name="Caminho 1800 - Contorno" d="M203.717,198.1l6.78,7.355,9.9-1.416-4.9,8.722,4.405,8.981-9.807-1.965-7.179,6.968-1.162-9.937-8.845-4.676,9.09-4.176Zm5.632,10.58-3.7-4.013-.935,5.377-4.959,2.278,4.825,2.551.634,5.421,3.917-3.8,5.35,1.072-2.4-4.9,2.672-4.758Z" transform="translate(56.813 -121.011)" fill="#001929"/>
        <g id="Grupo_903" data-name="Grupo 903" transform="translate(265.66 96.387)">
          <path id="Caminho_1801" data-name="Caminho 1801" d="M204.389,210.974l13.549,37.471a2.879,2.879,0,0,1-5.415,1.958,2.78,2.78,0,0,1-.087-.289L202.9,211.427a.78.78,0,0,1,1.491-.453Z" transform="translate(-202.875 -210.46)" fill="#001929"/>
        </g>
        <path id="Linha_1" data-name="Linha 1" d="M6.812,2.486H.971a1.515,1.515,0,1,1,0-3.03H6.812a1.515,1.515,0,1,1,0,3.03Z" transform="translate(253.115 90.473)" fill="#001929"/>
        <path id="Linha_2" data-name="Linha 2" d="M2.386,8.53A1.516,1.516,0,0,1,.912,7.36L-.5,1.317A1.515,1.515,0,0,1,2.446.626L3.862,6.669A1.516,1.516,0,0,1,2.386,8.53Z" transform="translate(260.525 79.406)" fill="#001929"/>
        <path id="Linha_3" data-name="Linha 3" d="M.973,5.948A1.515,1.515,0,0,1,.191,3.134L5.955-.327a1.515,1.515,0,1,1,1.56,2.6L1.751,5.732A1.508,1.508,0,0,1,.973,5.948Z" transform="translate(267.653 83.995)" fill="#001929"/>
        <path id="Linha_4" data-name="Linha 4" d="M6.353,7.283A1.509,1.509,0,0,1,5.346,6.9L-.037,2.1A1.515,1.515,0,1,1,1.979-.16l5.382,4.8A1.515,1.515,0,0,1,6.353,7.283Z" transform="translate(267.654 92.879)" fill="#001929"/>
        <path id="Linha_5" data-name="Linha 5" d="M.971,7.871A1.516,1.516,0,0,1-.446,5.821L1.586.437a1.515,1.515,0,0,1,2.835,1.07L2.389,6.891A1.516,1.516,0,0,1,.971,7.871Z" transform="translate(259.909 96.157)" fill="#001929"/>
      </g>
    </g>
  </g>
</svg>
