<svg xmlns="http://www.w3.org/2000/svg" width="262.909" height="234.387" viewBox="0 0 262.909 234.387">
  <g id="Grupo_1642" data-name="Grupo 1642" transform="translate(-89.161 -351.613)">
    <ellipse id="Elipse_144" data-name="Elipse 144" cx="103.732" cy="103.733" rx="103.732" ry="103.733" transform="translate(117.536 364.388)" fill="#fff" opacity="0.306"/>
    <g id="Grupo_1437" data-name="Grupo 1437" transform="translate(102.5 351.613)">
      <g id="Grupo_498" data-name="Grupo 498" transform="translate(32.327 226.429)">
        <path id="Caminho_1245" data-name="Caminho 1245" d="M973.153,3351.384c.036.379-.711.785-1.856,1.078a1.378,1.378,0,0,0-1.033,1.25c-.072,1.18-.329,1.99-.708,2.026s-.785-.71-1.078-1.856a1.379,1.379,0,0,0-1.251-1.033c-1.181-.071-1.993-.329-2.029-.708s.712-.788,1.858-1.08a1.378,1.378,0,0,0,1.035-1.251c.071-1.182.328-1.992.708-2.027s.785.71,1.078,1.857a1.379,1.379,0,0,0,1.252,1.033C972.307,3350.744,973.116,3351,973.153,3351.384Z" transform="translate(-965.195 -3347.782)" fill="#fff"/>
      </g>
      <g id="Grupo_499" data-name="Grupo 499" transform="translate(200.051 174.979)">
        <path id="Caminho_1246" data-name="Caminho 1246" d="M3158.345,2682.992c0,.471-.966.882-2.409,1.109a1.7,1.7,0,0,0-1.416,1.416c-.227,1.443-.638,2.408-1.108,2.408s-.882-.966-1.109-2.408a1.7,1.7,0,0,0-1.416-1.416c-1.444-.226-2.412-.637-2.412-1.109s.967-.885,2.41-1.11a1.7,1.7,0,0,0,1.418-1.417c.227-1.444.638-2.41,1.109-2.41s.881.966,1.108,2.41a1.7,1.7,0,0,0,1.418,1.417C3157.38,2682.107,3158.345,2682.519,3158.345,2682.992Z" transform="translate(-3148.475 -2678.056)" fill="#fff"/>
      </g>
      <g id="Grupo_500" data-name="Grupo 500" transform="translate(169.58)">
        <path id="Caminho_1247" data-name="Caminho 1247" d="M2762.778,405.808c0,.522-1.071.978-2.67,1.229a1.887,1.887,0,0,0-1.57,1.57c-.251,1.6-.707,2.671-1.229,2.671s-.978-1.071-1.229-2.67a1.887,1.887,0,0,0-1.57-1.57c-1.6-.251-2.674-.706-2.674-1.229s1.073-.982,2.673-1.231a1.888,1.888,0,0,0,1.572-1.571c.25-1.6.706-2.672,1.229-2.672s.978,1.071,1.229,2.672a1.887,1.887,0,0,0,1.572,1.571C2761.708,404.826,2762.778,405.282,2762.778,405.808Z" transform="translate(-2751.835 -400.334)" fill="#fff"/>
      </g>
      <g id="Grupo_501" data-name="Grupo 501" transform="translate(224.604 31.41)">
        <ellipse id="Elipse_54" data-name="Elipse 54" cx="1.408" cy="1.408" rx="1.408" ry="1.408" transform="translate(0 0)" fill="#fff"/>
      </g>
      <g id="Grupo_502" data-name="Grupo 502" transform="translate(235.095 179.479)">
        <circle id="Elipse_55" data-name="Elipse 55" cx="1.67" cy="1.67" r="1.67" transform="translate(0 2.361) rotate(-45)" fill="#fff"/>
      </g>
      <g id="Grupo_503" data-name="Grupo 503" transform="translate(174.01 222.47)">
        <ellipse id="Elipse_56" data-name="Elipse 56" cx="1.67" cy="1.67" rx="1.67" ry="1.67" transform="translate(0)" fill="#fff"/>
      </g>
      <g id="Grupo_504" data-name="Grupo 504" transform="translate(28.817 45.158)">
        <circle id="Elipse_57" data-name="Elipse 57" cx="1.67" cy="1.67" r="1.67" transform="translate(0 2.361) rotate(-45)" fill="#fff"/>
      </g>
      <g id="Grupo_505" data-name="Grupo 505" transform="translate(195.156 25.556)">
        <ellipse id="Elipse_58" data-name="Elipse 58" cx="1.408" cy="1.408" rx="1.408" ry="1.408" transform="translate(0 2.741) rotate(-76.717)" fill="#fff"/>
      </g>
      <g id="Grupo_506" data-name="Grupo 506" transform="translate(24.34 9.859)">
        <ellipse id="Elipse_59" data-name="Elipse 59" cx="1.67" cy="1.67" rx="1.67" ry="1.67" transform="matrix(0.924, -0.383, 0.383, 0.924, 0, 1.278)" fill="#fff"/>
      </g>
      <g id="Grupo_507" data-name="Grupo 507" transform="translate(10.586 226.203)">
        <path id="Caminho_1248" data-name="Caminho 1248" d="M685.346,3346.272a1.582,1.582,0,1,1-1.725-1.424A1.581,1.581,0,0,1,685.346,3346.272Z" transform="translate(-682.19 -3344.841)" fill="#fff"/>
      </g>
      <g id="Grupo_508" data-name="Grupo 508" transform="translate(235.993 10.346)">
        <ellipse id="Elipse_60" data-name="Elipse 60" cx="0.724" cy="0.724" rx="0.724" ry="0.724" transform="translate(0 0.554) rotate(-22.5)" fill="#fff"/>
      </g>
      <g id="Grupo_509" data-name="Grupo 509" transform="translate(203.814 232.123)">
        <ellipse id="Elipse_61" data-name="Elipse 61" cx="0.859" cy="0.859" rx="0.859" ry="0.859" transform="translate(0 1.695) rotate(-80.783)" fill="#fff"/>
      </g>
      <g id="Grupo_510" data-name="Grupo 510" transform="translate(62.041 10.342)">
        <ellipse id="Elipse_62" data-name="Elipse 62" cx="0.859" cy="0.859" rx="0.859" ry="0.859" transform="matrix(0.23, -0.973, 0.973, 0.23, 0, 1.672)" fill="#fff"/>
      </g>
      <g id="Grupo_511" data-name="Grupo 511" transform="translate(0 65.365)">
        <circle id="Elipse_63" data-name="Elipse 63" cx="0.859" cy="0.859" r="0.859" transform="translate(0 1.214) rotate(-45)" fill="#fff"/>
      </g>
      <g id="Grupo_512" data-name="Grupo 512" transform="translate(16.221 200.84)">
        <ellipse id="Elipse_64" data-name="Elipse 64" cx="0.813" cy="0.813" rx="0.813" ry="0.813" transform="translate(0 1.254) rotate(-50.442)" fill="#fff"/>
      </g>
      <g id="Grupo_513" data-name="Grupo 513" transform="translate(227.988 209.538)">
        <circle id="Elipse_65" data-name="Elipse 65" cx="0.859" cy="0.859" r="0.859" transform="translate(0 1.214) rotate(-45)" fill="#fff"/>
      </g>
      <g id="Grupo_514" data-name="Grupo 514" transform="translate(19.011 96.087)">
        <ellipse id="Elipse_66" data-name="Elipse 66" cx="1.582" cy="1.582" rx="1.582" ry="1.582" transform="translate(0 3.079) rotate(-76.718)" fill="#fff"/>
      </g>
    </g>
    <g id="Grupo_1630" data-name="Grupo 1630" transform="translate(41.955 263.266)">
      <g id="Grupo_1300" data-name="Grupo 1300" transform="translate(47.206 111.267)">
        <path id="Caminho_2521" data-name="Caminho 2521" d="M319.663,130.127c-9.305,0-17.7,8.444-30.254,8.444s-20.949-8.444-30.256-8.444c-18.391,0-38.325,26.248-35.627,47.311,3.008,23.483,29.151,94.278,47.2,94.278,8.907,0,8.863-17.687,13.419-36.669,2.083-8.677,6.247-9.718,8.329.693,3.9,19.486,7.288,35.976,15.625,35.976,18.045,0,44.707-75.4,47.2-94.278C358.066,156.385,337.583,130.127,319.663,130.127Z" transform="translate(-94.019 -103.293)" fill="#eff9ff"/>
        <path id="Caminho_2521_-_Contorno" data-name="Caminho 2521 - Contorno" d="M259.564,129.152c4.6,0,8.869,1.878,13.392,3.867,5.117,2.25,10.409,4.577,16.864,4.577s11.747-2.327,16.865-4.577c4.522-1.989,8.793-3.867,13.39-3.867a25.852,25.852,0,0,1,12.787,3.759,46.082,46.082,0,0,1,11.5,9.619,55.6,55.6,0,0,1,10.151,16.823,39.084,39.084,0,0,1,2.569,18.678c-1.232,9.342-8.414,32.87-17.868,54.589-5.147,11.824-10.168,21.317-14.924,28.217a47.236,47.236,0,0,1-7.772,9.068c-2.808,2.394-5.5,3.608-8.007,3.608a8.343,8.343,0,0,1-6.473-3.377,27.267,27.267,0,0,1-4.308-8.218c-2.464-6.8-4.365-16.3-6.2-25.5-1.061-5.306-2.448-6.39-2.761-6.39-.294,0-1.725,1.023-2.859,5.749-1.2,4.99-2.1,10.006-2.888,14.431-1.15,6.424-2.143,11.972-3.719,16.06a14.247,14.247,0,0,1-3.1,5.156,7.015,7.015,0,0,1-5.058,2.086c-2.5,0-5.174-1.143-7.958-3.4a44.675,44.675,0,0,1-7.732-8.609c-4.712-6.554-9.834-15.942-14.814-27.151a314.178,314.178,0,0,1-11.908-31.451c-3.213-10.119-5.4-18.956-6.16-24.881a39.878,39.878,0,0,1,2.574-18.807A55.083,55.083,0,0,1,235.3,142.312a44.987,44.987,0,0,1,11.413-9.469A26.209,26.209,0,0,1,259.564,129.152ZM289.82,140.37c-7.038,0-12.851-2.556-17.98-4.811-4.248-1.868-8.261-3.632-12.275-3.632-7.261,0-15.345,4.454-22.179,12.219a52.28,52.28,0,0,0-9.651,16.046,37.111,37.111,0,0,0-2.421,17.483c1.578,12.319,9.252,36.2,17.851,55.558,4.9,11.038,9.929,20.256,14.531,26.658,5.1,7.1,9.75,10.851,13.438,10.851,3.072,0,4.591-2.921,5.572-5.465,1.48-3.841,2.452-9.267,3.577-15.551.8-4.463,1.7-9.521,2.921-14.59a18.691,18.691,0,0,1,2.08-5.46c1.25-2,2.58-2.415,3.476-2.415.918,0,2.262.436,3.457,2.514a20.808,20.808,0,0,1,2.025,6.107c1.819,9.092,3.7,18.493,6.092,25.094a24.68,24.68,0,0,0,3.826,7.381,5.642,5.642,0,0,0,4.347,2.385c3.653,0,8.32-3.969,13.495-11.477,4.59-6.658,9.661-16.254,14.665-27.75,4.26-9.786,8.461-20.935,11.829-31.395,3.09-9.595,5.216-17.778,5.832-22.45a36.319,36.319,0,0,0-2.415-17.336,52.8,52.8,0,0,0-9.641-15.973,43.288,43.288,0,0,0-10.786-9.039,23.136,23.136,0,0,0-11.411-3.394c-4.013,0-8.026,1.764-12.273,3.632C302.672,137.814,296.858,140.37,289.82,140.37Z" transform="translate(-94.431 -103.705)" fill="#001929"/>
        <path id="Caminho_2522" data-name="Caminho 2522" d="M271.354,240.345c8.583.694,6.883-25.217,24.639-26.272,10.2-.606,14.707,4.468,16.21,12.333,1.59,8.32,1,16.092,9.95,15.558s33.389-39.1,32.725-63.561c-.3-11.181-5.036-23.76-10.3-33.6a19.084,19.084,0,0,0-17.648-9.9c-9.01.329-17.058,6.325-24.7,10.473-10.289,5.588-17.856-3.756-27.13-6.263-8.864-2.4-17.037-.038-22.9,7.289-7.081,8.852-7.2,21.941-4.631,32.506C249.45,186.616,262.769,239.651,271.354,240.345Z" transform="translate(-100.577 -104.667)" fill="#fff" opacity="0.7"/>
        <path id="Caminho_2523" data-name="Caminho 2523" d="M305.793,150.919c6.091.645,11.146-.837,16.948-2.493,5.635-1.608,11.827-2.58,17.265.26,11.119,5.805,16.38,20.172,18.476,31.786,1.258,6.982,2.151,14.1,1.094,21.163a48.128,48.128,0,0,1-1.413,6.306c4.389-10.049,7.418-20.71,7.179-29.537-.3-11.181-5.036-23.76-10.3-33.6a19.085,19.085,0,0,0-17.648-9.9c-9.01.329-17.058,6.325-24.7,10.473-10.289,5.588-17.855-3.756-27.13-6.263a26.615,26.615,0,0,0-3.195-.659C288.358,145.033,297.2,150.008,305.793,150.919Z" transform="translate(-111.042 -104.667)" fill="#fff"/>
        <path id="Caminho_2524" data-name="Caminho 2524" d="M287.066,141.52c4.628,3.751,10.639,4.8,16.444,3.769,6.946-1.23,14.637-4.91,17.21-10.854-4.794,2.092-9.992,4.164-16.213,4.164-11.9,0-20.063-7.58-28.806-8.373C279.515,133.966,282.887,138.133,287.066,141.52Z" transform="translate(-109.119 -103.322)" fill="#dff2fe" style="mix-blend-mode: multiply;isolation: isolate"/>
        <path id="Caminho_2525" data-name="Caminho 2525" d="M328.582,256.486c-3.4,5.049-12.565,11.446-19.635,9.53-6.94-1.88-7.534-11.634-8.859-17.325-.623-2.676-1.039-7.4-3.93-8.678a10.6,10.6,0,0,0-9.288.519A23.676,23.676,0,0,0,276,256.494c-.9,5.868-1.966,14.2-9.544,14.359-3.983.084-6.02-4.291-8.358-6.994-3.78-4.366-20.669-34.211-33.715-62.483,4.784,26.241,29.416,90.862,46.657,90.862,8.908,0,8.863-17.687,13.419-36.669,2.083-8.677,6.247-9.718,8.329.693,3.9,19.486,7.288,35.976,15.625,35.976,13.039,0,30.574-39.361,40.24-68.326C342.231,237.053,336.021,245.429,328.582,256.486Z" transform="translate(-94.337 -123.815)" fill="#dff2fe" style="mix-blend-mode: multiply;isolation: isolate"/>
        <g id="Grupo_1294" data-name="Grupo 1294" transform="translate(182.074 31.696)">
          <path id="Caminho_2526" data-name="Caminho 2526" d="M324.315,138.319s-.424.122-1.138.355c-.345.131-.753.261-1.244.463s-1.037.415-1.637.67a76.9,76.9,0,0,1-9.016,3.362c-.836.262-1.7.439-2.531.659-.849.162-1.673.363-2.485.481s-1.591.267-2.341.327-1.45.174-2.106.192l-1.784.094-1.375,0h-1.2l1.2-.061,1.371-.073,1.769-.182c.65-.05,1.344-.19,2.082-.295s1.505-.283,2.3-.439,1.6-.4,2.429-.6c.814-.258,1.651-.473,2.463-.774a75.7,75.7,0,0,0,8.745-3.768c.589-.285,1.136-.54,1.626-.762s.945-.4,1.306-.561c.723-.276,1.129-.415,1.129-.415l.018-.006a.694.694,0,0,1,.451,1.314Z" transform="translate(-297.46 -136.957)" fill="#001929"/>
        </g>
        <path id="Caminho_2527" data-name="Caminho 2527" d="M256.692,141.84c-1.1-.082-2.427.922-3.248,1.568a9.174,9.174,0,0,0-2.534,3.238.065.065,0,0,0,.113.065,11.04,11.04,0,0,1,2.762-2.861c.911-.691,2.236-.962,3.016-1.748A.156.156,0,0,0,256.692,141.84Z" transform="translate(-101.976 -106.666)" fill="#001929"/>
        <path id="Caminho_2528" data-name="Caminho 2528" d="M259.321,143.244a5.04,5.04,0,0,0-3.556,2.236c-.037.067.04.162.111.111a8.841,8.841,0,0,1,3.666-1.546C260.068,143.949,259.843,143.15,259.321,143.244Z" transform="translate(-103.374 -107.069)" fill="#001929"/>
        <path id="Caminho_2529" data-name="Caminho 2529" d="M257.487,270.96c-.533-.688-1.24-1.165-1.825-1.808a5.937,5.937,0,0,1-1.483-2.832c-.011-.058-.09-.037-.1.013-.214,1.927,1.222,4.636,3.345,4.766C257.508,271.1,257.526,271.01,257.487,270.96Z" transform="translate(-102.886 -142.511)" fill="#001929"/>
        <path id="Caminho_2530" data-name="Caminho 2530" d="M261.142,270.392c-1.016-.9-2.448-1.28-3.289-2.408a.082.082,0,0,0-.148.063,3.5,3.5,0,0,0,3.375,2.5A.089.089,0,0,0,261.142,270.392Z" transform="translate(-103.934 -142.99)" fill="#001929"/>
        <path id="Caminho_2531" data-name="Caminho 2531" d="M378.427,258.368c-.609,1.22-.825,2.6-1.457,3.841-.613,1.2-1.5,2.225-2.212,3.359a.033.033,0,0,0,.045.045c1.988-1.344,4.142-4.672,4-7.142C378.8,258.282,378.523,258.175,378.427,258.368Z" transform="translate(-137.648 -140.201)" fill="#001929"/>
        <path id="Caminho_2532" data-name="Caminho 2532" d="M377.77,255.538a.141.141,0,0,0-.255-.033,5.606,5.606,0,0,0-.627,2.117,13.773,13.773,0,0,1-.654,2.238c-.088.219.239.319.357.15C377.4,258.849,378.3,256.969,377.77,255.538Z" transform="translate(-138.071 -139.386)" fill="#001929"/>
        <path id="Caminho_2533" data-name="Caminho 2533" d="M360.191,135.055c-1.369-1-3.484-.78-4.957-.132-.068.031-.031.137.037.137.737,0,1.467-.076,2.2-.091a26.585,26.585,0,0,1,2.654.313C360.263,135.292,360.279,135.118,360.191,135.055Z" transform="translate(-132.016 -104.516)" fill="#001929"/>
        <path id="Caminho_2534" data-name="Caminho 2534" d="M363.053,137.949a3.989,3.989,0,0,0-3.948-.582c-.149.049-.134.306.038.288a4.85,4.85,0,0,1,2.822.552c.274.142,1.048.76,1.189.126A.4.4,0,0,0,363.053,137.949Z" transform="translate(-133.112 -105.302)" fill="#001929"/>
        <g id="Grupo_1299" data-name="Grupo 1299" transform="translate(0 0)">
          <path id="Caminho_2535" data-name="Caminho 2535" d="M300.583,220.976c0,11.627,17.351,11.627,17.351,0Z" transform="translate(-116.285 -129.461)" fill="#d13a3b"/>
          <path id="Caminho_2535_-_Contorno" data-name="Caminho 2535 - Contorno" d="M301,220h18.738v1.387a9.824,9.824,0,0,1-3.174,7.575,10.634,10.634,0,0,1-13.777,0,9.824,9.824,0,0,1-3.174-7.575V220Zm15.863,2.774H302.484a6.75,6.75,0,0,0,2.146,4.119,7.865,7.865,0,0,0,10.081,0A6.75,6.75,0,0,0,316.858,222.775Z" transform="translate(-116.698 -129.873)" fill="#001929"/>
          <path id="Caminho_2536" data-name="Caminho 2536" d="M314.775,223.575c2.447,0,3.159-1.183,3.159-2.6H300.583c0,1.416,2.69,2.6,4.078,2.6Z" transform="translate(-116.285 -129.461)" fill="#fff"/>
          <path id="Caminho_2536_-_Contorno" data-name="Caminho 2536 - Contorno" d="M315.188,225.375H305.073a7.167,7.167,0,0,1-3.236-.945,3.681,3.681,0,0,1-2.229-3.041V220h20.125v1.387a3.783,3.783,0,0,1-1.079,2.823A4.783,4.783,0,0,1,315.188,225.375Z" transform="translate(-116.698 -129.873)" fill="#001929"/>
          <path id="Caminho_2537" data-name="Caminho 2537" d="M356.187,214.908c0,1.853-2.913,3.354-6.505,3.354s-6.507-1.5-6.507-3.354,2.913-3.355,6.507-3.355S356.187,213.055,356.187,214.908Z" transform="translate(-128.553 -126.746)" fill="#f5b4b2"/>
          <path id="Caminho_2538" data-name="Caminho 2538" d="M283.295,214.908c0,1.853-2.913,3.354-6.507,3.354s-6.505-1.5-6.505-3.354,2.913-3.355,6.505-3.355S283.295,213.055,283.295,214.908Z" transform="translate(-107.558 -126.746)" fill="#f5b4b2"/>
          <path id="Caminho_2539" data-name="Caminho 2539" fill="#001929"/>
          <path id="Caminho_2540" data-name="Caminho 2540" transform="translate(19.634)" fill="#001929"/>
          <path id="Caminho_2541" data-name="Caminho 2541" d="M313.415,235.989a10.809,10.809,0,0,1-2.2.282c-.217,0-1.062-.006-1.118.35-.08.494.538.837.943.941a4.555,4.555,0,0,0,2.767-.128A.75.75,0,0,0,313.415,235.989Z" transform="translate(-119.025 -133.778)" fill="#001929"/>
          <g id="Grupo_1295" data-name="Grupo 1295" transform="translate(212.223 82.882)">
            <path id="Caminho_2542" data-name="Caminho 2542" d="M341.009,210.893a.231.231,0,0,0,0,.463A.231.231,0,0,0,341.009,210.893Z" transform="translate(-340.088 -209.439)" fill="#001929"/>
            <path id="Caminho_2543" data-name="Caminho 2543" d="M343.974,210.337a.859.859,0,0,0,0,1.717A.859.859,0,0,0,343.974,210.337Z" transform="translate(-340.767 -209.278)" fill="#001929"/>
            <path id="Caminho_2544" data-name="Caminho 2544" d="M350.745,209.869a.434.434,0,0,0,0,.868A.434.434,0,0,0,350.745,209.869Z" transform="translate(-342.836 -209.144)" fill="#001929"/>
            <path id="Caminho_2545" data-name="Caminho 2545" d="M348.163,212.3a.666.666,0,0,0,0,1.332A.666.666,0,0,0,348.163,212.3Z" transform="translate(-342.027 -209.842)" fill="#001929"/>
            <path id="Caminho_2546" data-name="Caminho 2546" d="M353.449,212.906a.741.741,0,0,0,0,1.481A.741.741,0,0,0,353.449,212.906Z" transform="translate(-343.529 -210.018)" fill="#001929"/>
            <path id="Caminho_2547" data-name="Caminho 2547" d="M356.863,208.85a.589.589,0,0,0,0,1.177A.589.589,0,0,0,356.863,208.85Z" transform="translate(-344.555 -208.85)" fill="#001929"/>
            <path id="Caminho_2548" data-name="Caminho 2548" d="M361.8,210.118a.459.459,0,0,0,0,.918A.459.459,0,0,0,361.8,210.118Z" transform="translate(-346.013 -209.215)" fill="#001929"/>
            <path id="Caminho_2549" data-name="Caminho 2549" d="M361.531,214.245a.187.187,0,0,0,0,.374A.187.187,0,0,0,361.531,214.245Z" transform="translate(-346.011 -210.404)" fill="#001929"/>
            <path id="Caminho_2550" data-name="Caminho 2550" d="M343.447,216.315a.406.406,0,0,0,0,.811A.406.406,0,0,0,343.447,216.315Z" transform="translate(-340.742 -211)" fill="#001929"/>
            <path id="Caminho_2551" data-name="Caminho 2551" d="M340.16,213.4a.367.367,0,0,0,0,.733A.367.367,0,0,0,340.16,213.4Z" transform="translate(-339.806 -210.161)" fill="#001929"/>
            <path id="Caminho_2552" data-name="Caminho 2552" d="M348.554,217.3a.106.106,0,0,0,0,.212A.106.106,0,0,0,348.554,217.3Z" transform="translate(-342.296 -211.285)" fill="#001929"/>
            <path id="Caminho_2553" data-name="Caminho 2553" d="M352.393,216.341a.193.193,0,0,0,0,.387A.193.193,0,0,0,352.393,216.341Z" transform="translate(-343.378 -211.008)" fill="#001929"/>
          </g>
          <g id="Grupo_1296" data-name="Grupo 1296" transform="translate(161.882 82.882)">
            <path id="Caminho_2554" data-name="Caminho 2554" d="M270.3,210.893a.231.231,0,0,0,0,.463A.231.231,0,0,0,270.3,210.893Z" transform="translate(-269.381 -209.439)" fill="#001929"/>
            <path id="Caminho_2555" data-name="Caminho 2555" d="M273.266,210.337a.859.859,0,0,0,0,1.717A.859.859,0,0,0,273.266,210.337Z" transform="translate(-270.06 -209.278)" fill="#001929"/>
            <path id="Caminho_2556" data-name="Caminho 2556" d="M280.038,209.869a.434.434,0,0,0,0,.868A.434.434,0,0,0,280.038,209.869Z" transform="translate(-272.128 -209.144)" fill="#001929"/>
            <path id="Caminho_2557" data-name="Caminho 2557" d="M277.455,212.3a.666.666,0,0,0,0,1.332A.666.666,0,0,0,277.455,212.3Z" transform="translate(-271.32 -209.842)" fill="#001929"/>
            <path id="Caminho_2558" data-name="Caminho 2558" d="M282.742,212.906a.741.741,0,0,0,0,1.481A.741.741,0,0,0,282.742,212.906Z" transform="translate(-272.822 -210.018)" fill="#001929"/>
            <path id="Caminho_2559" data-name="Caminho 2559" d="M286.156,208.85a.589.589,0,0,0,0,1.177A.589.589,0,0,0,286.156,208.85Z" transform="translate(-273.848 -208.85)" fill="#001929"/>
            <path id="Caminho_2560" data-name="Caminho 2560" d="M291.093,210.118a.459.459,0,0,0,0,.918A.459.459,0,0,0,291.093,210.118Z" transform="translate(-275.306 -209.215)" fill="#001929"/>
            <path id="Caminho_2561" data-name="Caminho 2561" d="M290.825,214.245a.187.187,0,0,0,0,.374A.187.187,0,0,0,290.825,214.245Z" transform="translate(-275.304 -210.404)" fill="#001929"/>
            <path id="Caminho_2562" data-name="Caminho 2562" d="M272.74,216.315a.406.406,0,0,0,0,.811A.406.406,0,0,0,272.74,216.315Z" transform="translate(-270.034 -211)" fill="#001929"/>
            <path id="Caminho_2563" data-name="Caminho 2563" d="M269.452,213.4a.367.367,0,0,0,0,.733A.367.367,0,0,0,269.452,213.4Z" transform="translate(-269.099 -210.161)" fill="#001929"/>
            <path id="Caminho_2564" data-name="Caminho 2564" d="M277.848,217.3a.106.106,0,0,0,0,.212A.106.106,0,0,0,277.848,217.3Z" transform="translate(-271.589 -211.285)" fill="#001929"/>
            <path id="Caminho_2565" data-name="Caminho 2565" d="M281.686,216.341a.193.193,0,0,0,0,.387A.193.193,0,0,0,281.686,216.341Z" transform="translate(-272.67 -211.008)" fill="#001929"/>
          </g>
          <g id="Grupo_1297" data-name="Grupo 1297" transform="translate(211.252 62.372)">
            <path id="Caminho_2566" data-name="Caminho 2566" d="M352.7,181.99a4.663,4.663,0,0,0-3.817,1.983,4.67,4.67,0,0,0-8.49,2.689c0,5.971,8.49,11.084,8.49,11.084s8.49-5.113,8.49-11.084A4.672,4.672,0,0,0,352.7,181.99Z" transform="translate(-339.003 -180.603)" fill="#d13a3b"/>
            <path id="Caminho_2566_-_Contorno" data-name="Caminho 2566 - Contorno" d="M345.473,181.015a6.064,6.064,0,0,1,3.818,1.358,6.055,6.055,0,0,1,9.877,4.7c0,2.87-1.573,5.826-4.674,8.785a28.643,28.643,0,0,1-4.487,3.487l-.716.431-.716-.431a28.635,28.635,0,0,1-4.487-3.487c-3.1-2.959-4.674-5.914-4.674-8.785A6.066,6.066,0,0,1,345.473,181.015Zm3.818,5.775-1.133-1.605a3.283,3.283,0,0,0-5.969,1.889c0,2.58,2.055,5.091,3.779,6.743a26.813,26.813,0,0,0,3.324,2.685,26.807,26.807,0,0,0,3.324-2.685c1.724-1.652,3.778-4.162,3.778-6.743a3.283,3.283,0,0,0-5.969-1.889Z" transform="translate(-339.415 -181.015)" fill="#001929"/>
            <path id="Caminho_2567" data-name="Caminho 2567" d="M358.941,187.069c-.4-.857-2.081-2.586-2.824-1.042a.284.284,0,0,0,.1.382,7.948,7.948,0,0,1,.763.382,1.78,1.78,0,0,1,.455,1.1,3.935,3.935,0,0,1-.242,2.615.936.936,0,0,0,1.615.944A5.094,5.094,0,0,0,358.941,187.069Z" transform="translate(-343.523 -181.588)" fill="#fff"/>
            <path id="Caminho_2568" data-name="Caminho 2568" d="M355.865,195.007a.936.936,0,0,0,0,1.87A.936.936,0,0,0,355.865,195.007Z" transform="translate(-343.2 -184.352)" fill="#fff"/>
          </g>
          <g id="Grupo_1298" data-name="Grupo 1298" transform="translate(159.914 62.372)">
            <path id="Caminho_2569" data-name="Caminho 2569" d="M280.591,181.99a4.664,4.664,0,0,0-3.818,1.983,4.671,4.671,0,0,0-8.49,2.689c0,5.971,8.49,11.084,8.49,11.084s8.489-5.113,8.489-11.084A4.671,4.671,0,0,0,280.591,181.99Z" transform="translate(-266.896 -180.603)" fill="#d13a3b"/>
            <path id="Caminho_2569_-_Contorno" data-name="Caminho 2569 - Contorno" d="M273.369,181.015a6.061,6.061,0,0,1,3.817,1.358,6.055,6.055,0,0,1,9.876,4.7c0,2.87-1.573,5.826-4.674,8.785a28.636,28.636,0,0,1-4.487,3.487l-.716.431-.716-.431a28.642,28.642,0,0,1-4.487-3.487c-3.1-2.959-4.675-5.914-4.675-8.785A6.067,6.067,0,0,1,273.369,181.015Zm3.817,5.775-1.133-1.605a3.284,3.284,0,0,0-5.97,1.889c0,2.594,2.075,5.117,3.815,6.778a26.742,26.742,0,0,0,3.287,2.65,26.814,26.814,0,0,0,3.325-2.685c1.724-1.652,3.778-4.162,3.778-6.743a3.283,3.283,0,0,0-5.969-1.889Z" transform="translate(-267.308 -181.015)" fill="#001929"/>
            <path id="Caminho_2570" data-name="Caminho 2570" d="M286.837,187.069c-.4-.857-2.081-2.586-2.824-1.042a.287.287,0,0,0,.1.382,8.017,8.017,0,0,1,.763.382,1.781,1.781,0,0,1,.455,1.1,3.931,3.931,0,0,1-.243,2.615.936.936,0,0,0,1.616.944A5.1,5.1,0,0,0,286.837,187.069Z" transform="translate(-271.417 -181.588)" fill="#fff"/>
            <path id="Caminho_2571" data-name="Caminho 2571" d="M283.758,195.007a.936.936,0,0,0,0,1.87A.936.936,0,0,0,283.758,195.007Z" transform="translate(-271.093 -184.352)" fill="#fff"/>
          </g>
        </g>
      </g>
      <g id="Grupo_1305" data-name="Grupo 1305" transform="translate(53.63 136.714)">
        <g id="Grupo_1302" data-name="Grupo 1302" transform="translate(0 0)">
          <path id="Caminho_2572" data-name="Caminho 2572" d="M149.078,130.127c-9.3,0-17.7,8.444-30.254,8.444s-20.949-8.444-30.254-8.444c-18.393,0-38.327,26.247-35.628,47.311,3.007,23.483,29.151,94.278,47.2,94.278,8.907,0,8.863-17.687,13.418-36.669,2.083-8.677,6.246-9.718,8.329.693,3.9,19.486,7.288,35.976,15.626,35.976,18.045,0,44.706-75.4,47.2-94.278C187.483,156.385,167,130.127,149.078,130.127Z" transform="translate(-51.31 -128.74)" fill="#eff9ff"/>
          <path id="Caminho_2572_-_Contorno" data-name="Caminho 2572 - Contorno" d="M88.981,129.152c4.6,0,8.867,1.878,13.389,3.867,5.117,2.25,10.409,4.577,16.864,4.577s11.748-2.327,16.865-4.577c4.522-1.988,8.793-3.867,13.389-3.867a25.854,25.854,0,0,1,12.788,3.759,46.085,46.085,0,0,1,11.5,9.619,55.6,55.6,0,0,1,10.151,16.823,39.082,39.082,0,0,1,2.569,18.678c-1.232,9.342-8.414,32.87-17.868,54.589-5.147,11.824-10.168,21.317-14.924,28.217a47.237,47.237,0,0,1-7.772,9.068c-2.808,2.394-5.5,3.608-8.007,3.608a8.345,8.345,0,0,1-6.474-3.377,27.261,27.261,0,0,1-4.308-8.218c-2.464-6.8-4.365-16.3-6.2-25.5-1.062-5.306-2.449-6.39-2.762-6.39-.293,0-1.724,1.023-2.859,5.749-1.2,4.99-2.1,10.006-2.887,14.431-1.15,6.424-2.143,11.972-3.719,16.06a14.248,14.248,0,0,1-3.1,5.156,7.014,7.014,0,0,1-5.058,2.086c-2.5,0-5.174-1.143-7.958-3.4a44.676,44.676,0,0,1-7.732-8.609c-4.712-6.554-9.835-15.942-14.814-27.151a314.146,314.146,0,0,1-11.908-31.451c-3.213-10.119-5.4-18.956-6.159-24.881A39.877,39.877,0,0,1,54.55,159.22a55.077,55.077,0,0,1,10.166-16.906,44.988,44.988,0,0,1,11.414-9.47A26.213,26.213,0,0,1,88.981,129.152Zm30.254,11.218c-7.038,0-12.852-2.556-17.981-4.812-4.248-1.868-8.26-3.632-12.273-3.632-7.263,0-15.348,4.454-22.182,12.22a52.276,52.276,0,0,0-9.65,16.045,37.11,37.11,0,0,0-2.42,17.483c1.578,12.319,9.252,36.2,17.851,55.558,4.9,11.038,9.929,20.256,14.532,26.658,5.1,7.1,9.751,10.851,13.438,10.851,3.071,0,4.591-2.921,5.572-5.465,1.48-3.841,2.452-9.267,3.577-15.551.8-4.463,1.7-9.521,2.921-14.589a18.693,18.693,0,0,1,2.08-5.46c1.25-2,2.58-2.415,3.476-2.416.918,0,2.262.436,3.457,2.514a20.811,20.811,0,0,1,2.026,6.106c1.818,9.092,3.7,18.493,6.092,25.095a24.675,24.675,0,0,0,3.826,7.381,5.643,5.643,0,0,0,4.348,2.385c3.653,0,8.32-3.969,13.495-11.477,4.59-6.658,9.66-16.254,14.664-27.75,4.259-9.786,8.46-20.935,11.829-31.395,3.09-9.595,5.216-17.778,5.832-22.45a36.317,36.317,0,0,0-2.414-17.336,52.8,52.8,0,0,0-9.641-15.973,43.29,43.29,0,0,0-10.787-9.04,23.138,23.138,0,0,0-11.412-3.394c-4.013,0-8.025,1.764-12.273,3.632C132.087,137.814,126.273,140.37,119.235,140.37Z" transform="translate(-51.721 -129.152)" fill="#001929"/>
          <path id="Caminho_2573" data-name="Caminho 2573" d="M100.769,240.345c8.586.694,6.883-25.217,24.641-26.272,10.2-.606,14.706,4.468,16.21,12.333,1.591,8.319,1,16.092,9.95,15.558s33.39-39.1,32.726-63.561c-.3-11.181-5.037-23.76-10.3-33.6a19.079,19.079,0,0,0-17.645-9.9c-9.011.328-17.06,6.325-24.7,10.473-10.289,5.588-17.857-3.756-27.131-6.263-8.863-2.4-17.037-.038-22.9,7.289-7.079,8.852-7.2,21.941-4.631,32.5C78.866,186.616,92.185,239.651,100.769,240.345Z" transform="translate(-57.868 -130.113)" fill="#fff" opacity="0.7"/>
          <path id="Caminho_2574" data-name="Caminho 2574" d="M135.209,150.918c6.091.646,11.147-.837,16.948-2.493,5.635-1.608,11.827-2.58,17.265.259,11.12,5.806,16.382,20.172,18.477,31.787,1.258,6.982,2.151,14.1,1.094,21.163a48.219,48.219,0,0,1-1.413,6.305c4.39-10.048,7.418-20.71,7.179-29.536-.3-11.181-5.037-23.76-10.3-33.6a19.079,19.079,0,0,0-17.645-9.9c-9.011.328-17.06,6.325-24.7,10.473-10.289,5.588-17.857-3.756-27.131-6.263a26.587,26.587,0,0,0-3.195-.659C117.774,145.033,126.612,150.008,135.209,150.918Z" transform="translate(-68.332 -130.113)" fill="#fff"/>
          <path id="Caminho_2575" data-name="Caminho 2575" d="M116.484,141.52c4.628,3.751,10.64,4.8,16.443,3.769,6.945-1.23,14.637-4.91,17.212-10.854-4.8,2.092-9.994,4.164-16.215,4.164-11.9,0-20.062-7.58-28.8-8.373C108.93,133.966,112.3,138.133,116.484,141.52Z" transform="translate(-66.41 -128.769)" fill="#dff2fe" style="mix-blend-mode: multiply;isolation: isolate"/>
          <path id="Caminho_2576" data-name="Caminho 2576" d="M158,256.486c-3.4,5.049-12.565,11.445-19.635,9.53-6.94-1.88-7.535-11.634-8.86-17.325-.623-2.677-1.039-7.4-3.929-8.678a10.607,10.607,0,0,0-9.29.519,23.676,23.676,0,0,0-10.87,15.962c-.9,5.869-1.964,14.2-9.543,14.36-3.983.083-6.02-4.291-8.359-6.994-3.778-4.366-20.668-34.211-33.714-62.483,4.785,26.241,29.416,90.862,46.658,90.862,8.907,0,8.863-17.687,13.418-36.669,2.083-8.677,6.246-9.718,8.329.693,3.9,19.486,7.288,35.976,15.626,35.976,13.038,0,30.572-39.361,40.238-68.326C171.647,237.053,165.438,245.429,158,256.486Z" transform="translate(-51.628 -149.262)" fill="#dff2fe" style="mix-blend-mode: multiply;isolation: isolate"/>
          <g id="Grupo_1301" data-name="Grupo 1301" transform="translate(54.199 6.249)">
            <path id="Caminho_2577" data-name="Caminho 2577" d="M153.73,138.318s-.424.122-1.138.355c-.345.132-.753.261-1.244.464s-1.037.414-1.637.669a76.734,76.734,0,0,1-9.017,3.363c-.836.262-1.7.439-2.53.659-.849.162-1.673.363-2.485.481s-1.591.267-2.342.327-1.45.174-2.106.192l-1.783.094-1.376,0h-1.2l1.2-.061,1.371-.073,1.77-.182c.65-.05,1.344-.19,2.082-.295s1.506-.283,2.3-.439,1.6-.4,2.43-.6c.813-.258,1.651-.473,2.463-.774a75.816,75.816,0,0,0,8.745-3.768c.589-.285,1.136-.54,1.626-.763s.945-.4,1.306-.56c.723-.276,1.129-.416,1.129-.416l.018-.006a.695.695,0,0,1,.451,1.314Z" transform="translate(-126.875 -136.956)" fill="#001929"/>
          </g>
          <path id="Caminho_2578" data-name="Caminho 2578" d="M86.108,141.839c-1.1-.081-2.426.922-3.247,1.569a9.171,9.171,0,0,0-2.535,3.237.066.066,0,0,0,.113.066,11.051,11.051,0,0,1,2.762-2.861c.91-.691,2.236-.962,3.017-1.748A.157.157,0,0,0,86.108,141.839Z" transform="translate(-59.266 -132.112)" fill="#001929"/>
          <path id="Caminho_2579" data-name="Caminho 2579" d="M88.736,143.244a5.045,5.045,0,0,0-3.557,2.236c-.036.067.041.161.111.111a8.845,8.845,0,0,1,3.667-1.546C89.483,143.949,89.26,143.15,88.736,143.244Z" transform="translate(-60.664 -132.516)" fill="#001929"/>
          <path id="Caminho_2580" data-name="Caminho 2580" d="M86.9,270.96c-.531-.688-1.239-1.165-1.824-1.808A5.939,5.939,0,0,1,83.6,266.32c-.012-.058-.091-.038-.1.013-.214,1.927,1.222,4.636,3.346,4.766C86.925,271.1,86.942,271.009,86.9,270.96Z" transform="translate(-60.177 -167.957)" fill="#001929"/>
          <path id="Caminho_2581" data-name="Caminho 2581" d="M90.559,270.392c-1.017-.9-2.449-1.28-3.29-2.408a.082.082,0,0,0-.148.063,3.5,3.5,0,0,0,3.375,2.5A.089.089,0,0,0,90.559,270.392Z" transform="translate(-61.225 -168.437)" fill="#001929"/>
          <path id="Caminho_2582" data-name="Caminho 2582" d="M207.842,258.368c-.609,1.22-.825,2.6-1.457,3.841-.613,1.2-1.5,2.225-2.214,3.359a.034.034,0,0,0,.046.045c1.989-1.344,4.143-4.672,4-7.142C208.21,258.282,207.938,258.175,207.842,258.368Z" transform="translate(-94.939 -165.648)" fill="#001929"/>
          <path id="Caminho_2583" data-name="Caminho 2583" d="M207.186,255.536a.14.14,0,0,0-.253-.032,5.565,5.565,0,0,0-.629,2.117,13.629,13.629,0,0,1-.654,2.238c-.088.219.238.319.357.15C206.819,258.849,207.72,256.969,207.186,255.536Z" transform="translate(-95.362 -164.833)" fill="#001929"/>
          <path id="Caminho_2584" data-name="Caminho 2584" d="M189.607,135.055c-1.368-1-3.484-.78-4.957-.132-.068.031-.031.137.038.137.736,0,1.467-.076,2.2-.091a26.6,26.6,0,0,1,2.653.313C189.679,135.292,189.7,135.118,189.607,135.055Z" transform="translate(-89.307 -129.962)" fill="#001929"/>
          <path id="Caminho_2585" data-name="Caminho 2585" d="M192.469,137.949a3.99,3.99,0,0,0-3.949-.582c-.148.049-.133.306.039.287a4.859,4.859,0,0,1,2.822.552c.274.142,1.047.76,1.188.126A.4.4,0,0,0,192.469,137.949Z" transform="translate(-90.403 -130.749)" fill="#001929"/>
        </g>
        <g id="Grupo_1304" data-name="Grupo 1304" transform="translate(37.257 22.79)">
          <path id="Caminho_2586" data-name="Caminho 2586" d="M207.418,193.18a11.661,11.661,0,0,0-10.482,6.606,11.665,11.665,0,0,0-22.176,5.086c0,12.086,22.176,26.6,22.176,26.6s22.178-14.515,22.178-26.6A11.7,11.7,0,0,0,207.418,193.18Z" transform="translate(-123.726 -169.691)" fill="#ce4d4c"/>
          <path id="Caminho_2586_-_Contorno" data-name="Caminho 2586 - Contorno" d="M186.867,192.205a12.918,12.918,0,0,1,7.017,2.063,13.164,13.164,0,0,1,3.466,3.26,13.177,13.177,0,0,1,3.466-3.26,12.913,12.913,0,0,1,7.015-2.063,13.1,13.1,0,0,1,13.083,13.08c0,5.414-3.88,11.756-11.533,18.85a95.065,95.065,0,0,1-11.272,8.912,1.387,1.387,0,0,1-1.519,0,95.072,95.072,0,0,1-11.271-8.912c-7.652-7.094-11.532-13.436-11.532-18.85A13.1,13.1,0,0,1,186.867,192.205Zm10.482,9.38h0a1.387,1.387,0,0,1-1.247-.78,10.425,10.425,0,0,0-3.721-4.206,10.15,10.15,0,0,0-5.514-1.62,10.318,10.318,0,0,0-10.306,10.306c0,4.539,3.671,10.345,10.617,16.791a95.435,95.435,0,0,0,10.172,8.135,95.442,95.442,0,0,0,10.173-8.135c6.946-6.445,10.618-12.251,10.618-16.791a10.319,10.319,0,0,0-10.309-10.306,10.145,10.145,0,0,0-5.511,1.62,10.441,10.441,0,0,0-3.724,4.206A1.387,1.387,0,0,1,197.349,201.586Z" transform="translate(-124.138 -170.103)" fill="#00121d"/>
          <path id="Caminho_2587" data-name="Caminho 2587" d="M221.02,219.893c-2.352,3.042,0-4.033.606-10.282.468-4.821-1.395-8.922.805-8.922C227.478,200.689,231.3,206.586,221.02,219.893Z" transform="translate(-136.755 -171.854)" fill="#fff"/>
          <g id="Grupo_1303" data-name="Grupo 1303">
            <path id="Caminho_2588" data-name="Caminho 2588" d="M119.635,174.585c0,7.952-3.705,14.4-8.279,14.4s-8.277-6.444-8.277-14.4,3.706-14.4,8.277-14.4S119.635,166.634,119.635,174.585Z" transform="translate(-103.079 -160.188)" fill="#00121d"/>
            <path id="Caminho_2589" data-name="Caminho 2589" d="M120.746,170.51c0,4.026-8.38-7.287-5.4-7.287S120.746,166.485,120.746,170.51Z" transform="translate(-106.428 -161.062)" fill="#fff"/>
            <path id="Caminho_2590" data-name="Caminho 2590" d="M113.191,168.19a1.87,1.87,0,1,1-1.87-1.869A1.87,1.87,0,0,1,113.191,168.19Z" transform="translate(-104.915 -161.955)" fill="#fff"/>
            <path id="Caminho_2591" data-name="Caminho 2591" d="M174.138,182.812a22.69,22.69,0,0,1,10.66,2.819,9.441,9.441,0,0,0-10.66-7.135c-7.684.781-11.564,9.373-11.564,9.373S167.6,182.662,174.138,182.812Z" transform="translate(-120.215 -165.441)" fill="#00121d"/>
            <path id="Caminho_2592" data-name="Caminho 2592" d="M171.919,172.771c-2.163,1.153-4.178,3.25-5.154,3.921s-2.542-1.442-1.284-2.542a23.38,23.38,0,0,1,6.386-4.134c4.7-2.1,9.979.2,9.979.2S178.844,169.063,171.919,172.771Z" transform="translate(-120.918 -162.764)" fill="#00121d"/>
          </g>
          <path id="Caminho_2593" data-name="Caminho 2593" d="M155.488,232.673a8.129,8.129,0,0,1-3.18-.8,6.141,6.141,0,0,0-5.708-.061,1.387,1.387,0,1,1-1.091-2.551,8.908,8.908,0,0,1,7.856.047c1.443.595,2.314.954,3.949.023a3.252,3.252,0,0,0,1.689-2.47,6.7,6.7,0,0,0-2-5.283l-1.082-1.12,1.238-.946a4.514,4.514,0,0,0,1.847-5.3,4.184,4.184,0,0,0-3.767-2.938,6.324,6.324,0,0,0-3.611,1.757c-1.6,1.24-3.6,2.784-6.466,1.638a1.387,1.387,0,1,1,1.029-2.576c1.337.534,2.157-.031,3.739-1.256a8.8,8.8,0,0,1,5.243-2.337,6.922,6.922,0,0,1,6.449,4.792,7.074,7.074,0,0,1,.139,4.338,7.578,7.578,0,0,1-1.837,3.116,9.11,9.11,0,0,1,1.825,6.5,6.055,6.055,0,0,1-3.062,4.487A6.371,6.371,0,0,1,155.488,232.673Z" transform="translate(-115.642 -174.797)" fill="#00121d"/>
        </g>
      </g>
    </g>
  </g>
</svg>
