<svg xmlns="http://www.w3.org/2000/svg" width="239.818" height="234.387" viewBox="0 0 239.818 234.387">
  <g id="Grupo_1641" data-name="Grupo 1641" transform="translate(-102.5 -351.613)">
    <ellipse id="Elipse_144" data-name="Elipse 144" cx="103.732" cy="103.733" rx="103.732" ry="103.733" transform="translate(117.536 364.388)" fill="#fff" opacity="0.306"/>
    <g id="Grupo_1437" data-name="Grupo 1437" transform="translate(102.5 351.613)">
      <g id="Grupo_498" data-name="Grupo 498" transform="translate(32.327 226.429)">
        <path id="Caminho_1245" data-name="Caminho 1245" d="M973.153,3351.384c.036.379-.711.785-1.856,1.078a1.378,1.378,0,0,0-1.033,1.25c-.072,1.18-.329,1.99-.708,2.026s-.785-.71-1.078-1.856a1.379,1.379,0,0,0-1.251-1.033c-1.181-.071-1.993-.329-2.029-.708s.712-.788,1.858-1.08a1.378,1.378,0,0,0,1.035-1.251c.071-1.182.328-1.992.708-2.027s.785.71,1.078,1.857a1.379,1.379,0,0,0,1.252,1.033C972.307,3350.744,973.116,3351,973.153,3351.384Z" transform="translate(-965.195 -3347.782)" fill="#fff"/>
      </g>
      <g id="Grupo_499" data-name="Grupo 499" transform="translate(200.051 174.979)">
        <path id="Caminho_1246" data-name="Caminho 1246" d="M3158.345,2682.992c0,.471-.966.882-2.409,1.109a1.7,1.7,0,0,0-1.416,1.416c-.227,1.443-.638,2.408-1.108,2.408s-.882-.966-1.109-2.408a1.7,1.7,0,0,0-1.416-1.416c-1.444-.226-2.412-.637-2.412-1.109s.967-.885,2.41-1.11a1.7,1.7,0,0,0,1.418-1.417c.227-1.444.638-2.41,1.109-2.41s.881.966,1.108,2.41a1.7,1.7,0,0,0,1.418,1.417C3157.38,2682.107,3158.345,2682.519,3158.345,2682.992Z" transform="translate(-3148.475 -2678.056)" fill="#fff"/>
      </g>
      <g id="Grupo_500" data-name="Grupo 500" transform="translate(169.58)">
        <path id="Caminho_1247" data-name="Caminho 1247" d="M2762.778,405.808c0,.522-1.071.978-2.67,1.229a1.887,1.887,0,0,0-1.57,1.57c-.251,1.6-.707,2.671-1.229,2.671s-.978-1.071-1.229-2.67a1.887,1.887,0,0,0-1.57-1.57c-1.6-.251-2.674-.706-2.674-1.229s1.073-.982,2.673-1.231a1.888,1.888,0,0,0,1.572-1.571c.25-1.6.706-2.672,1.229-2.672s.978,1.071,1.229,2.672a1.887,1.887,0,0,0,1.572,1.571C2761.708,404.826,2762.778,405.282,2762.778,405.808Z" transform="translate(-2751.835 -400.334)" fill="#fff"/>
      </g>
      <g id="Grupo_501" data-name="Grupo 501" transform="translate(224.604 31.41)">
        <ellipse id="Elipse_54" data-name="Elipse 54" cx="1.408" cy="1.408" rx="1.408" ry="1.408" transform="translate(0 0)" fill="#fff"/>
      </g>
      <g id="Grupo_502" data-name="Grupo 502" transform="translate(235.095 179.479)">
        <circle id="Elipse_55" data-name="Elipse 55" cx="1.67" cy="1.67" r="1.67" transform="translate(0 2.361) rotate(-45)" fill="#fff"/>
      </g>
      <g id="Grupo_503" data-name="Grupo 503" transform="translate(174.01 222.47)">
        <ellipse id="Elipse_56" data-name="Elipse 56" cx="1.67" cy="1.67" rx="1.67" ry="1.67" transform="translate(0)" fill="#fff"/>
      </g>
      <g id="Grupo_504" data-name="Grupo 504" transform="translate(28.817 45.158)">
        <circle id="Elipse_57" data-name="Elipse 57" cx="1.67" cy="1.67" r="1.67" transform="translate(0 2.361) rotate(-45)" fill="#fff"/>
      </g>
      <g id="Grupo_505" data-name="Grupo 505" transform="translate(195.156 25.556)">
        <ellipse id="Elipse_58" data-name="Elipse 58" cx="1.408" cy="1.408" rx="1.408" ry="1.408" transform="translate(0 2.741) rotate(-76.717)" fill="#fff"/>
      </g>
      <g id="Grupo_506" data-name="Grupo 506" transform="translate(24.34 9.859)">
        <ellipse id="Elipse_59" data-name="Elipse 59" cx="1.67" cy="1.67" rx="1.67" ry="1.67" transform="matrix(0.924, -0.383, 0.383, 0.924, 0, 1.278)" fill="#fff"/>
      </g>
      <g id="Grupo_507" data-name="Grupo 507" transform="translate(10.586 226.203)">
        <path id="Caminho_1248" data-name="Caminho 1248" d="M685.346,3346.272a1.582,1.582,0,1,1-1.725-1.424A1.581,1.581,0,0,1,685.346,3346.272Z" transform="translate(-682.19 -3344.841)" fill="#fff"/>
      </g>
      <g id="Grupo_508" data-name="Grupo 508" transform="translate(235.993 10.346)">
        <ellipse id="Elipse_60" data-name="Elipse 60" cx="0.724" cy="0.724" rx="0.724" ry="0.724" transform="translate(0 0.554) rotate(-22.5)" fill="#fff"/>
      </g>
      <g id="Grupo_509" data-name="Grupo 509" transform="translate(203.814 232.123)">
        <ellipse id="Elipse_61" data-name="Elipse 61" cx="0.859" cy="0.859" rx="0.859" ry="0.859" transform="translate(0 1.695) rotate(-80.783)" fill="#fff"/>
      </g>
      <g id="Grupo_510" data-name="Grupo 510" transform="translate(62.041 10.342)">
        <ellipse id="Elipse_62" data-name="Elipse 62" cx="0.859" cy="0.859" rx="0.859" ry="0.859" transform="matrix(0.23, -0.973, 0.973, 0.23, 0, 1.672)" fill="#fff"/>
      </g>
      <g id="Grupo_511" data-name="Grupo 511" transform="translate(0 65.365)">
        <circle id="Elipse_63" data-name="Elipse 63" cx="0.859" cy="0.859" r="0.859" transform="translate(0 1.214) rotate(-45)" fill="#fff"/>
      </g>
      <g id="Grupo_512" data-name="Grupo 512" transform="translate(16.221 200.84)">
        <ellipse id="Elipse_64" data-name="Elipse 64" cx="0.813" cy="0.813" rx="0.813" ry="0.813" transform="translate(0 1.254) rotate(-50.442)" fill="#fff"/>
      </g>
      <g id="Grupo_513" data-name="Grupo 513" transform="translate(227.988 209.538)">
        <circle id="Elipse_65" data-name="Elipse 65" cx="0.859" cy="0.859" r="0.859" transform="translate(0 1.214) rotate(-45)" fill="#fff"/>
      </g>
      <g id="Grupo_514" data-name="Grupo 514" transform="translate(19.011 96.087)">
        <ellipse id="Elipse_66" data-name="Elipse 66" cx="1.582" cy="1.582" rx="1.582" ry="1.582" transform="translate(0 3.079) rotate(-76.718)" fill="#fff"/>
      </g>
    </g>
    <g id="Grupo_1629" data-name="Grupo 1629" transform="translate(143.718 367.484)">
      <path id="Caminho_1647" data-name="Caminho 1647" d="M377.718,173.576c-10.565,0-20.1,9.588-34.351,9.588s-23.789-9.588-34.354-9.588c-20.885,0-43.519,29.8-40.456,53.721,3.416,26.665,33.1,107.049,53.591,107.049,10.114,0,10.063-20.082,15.238-41.637,2.364-9.852,7.092-11.033,9.456.788,4.426,22.125,8.275,40.849,17.744,40.849,20.489,0,50.763-85.617,53.589-107.049C421.327,203.392,398.068,173.576,377.718,173.576Z" transform="translate(-266.747 -157.409)" fill="#eff9ff"/>
      <path id="Caminho_1647_-_Contorno" data-name="Caminho 1647 - Contorno" d="M310,173.032c5.21,0,10.056,2.131,15.186,4.387,5.815,2.557,11.828,5.2,19.168,5.2s13.351-2.644,19.165-5.2c5.13-2.256,9.976-4.387,15.186-4.387,9.047,0,19.087,5.532,27.544,15.177A63.091,63.091,0,0,1,417.766,207.3a44.334,44.334,0,0,1,2.914,21.188c-1.4,10.6-9.552,37.314-20.285,61.973-5.843,13.423-11.543,24.2-16.942,32.033a53.6,53.6,0,0,1-8.818,10.288c-3.18,2.712-6.23,4.087-9.064,4.087-6.671,0-10.16-7.5-12.2-13.138-2.8-7.712-4.955-18.505-7.043-28.943-1.21-6.053-2.814-7.29-3.177-7.29-.536,0-2.108,1.652-3.286,6.559-1.361,5.669-2.381,11.366-3.281,16.392-1.306,7.291-2.433,13.588-4.221,18.226-2.126,5.514-5.144,8.194-9.226,8.194-2.825,0-5.856-1.294-9.01-3.848a50.682,50.682,0,0,1-8.772-9.767c-5.348-7.439-11.164-18.1-16.817-30.821-9.869-22.212-18.687-49.706-20.512-63.952a45.242,45.242,0,0,1,2.92-21.336,62.5,62.5,0,0,1,11.537-19.184C290.831,178.474,300.861,173.032,310,173.032Zm34.354,12.653c-7.983,0-14.581-2.9-20.4-5.46C319.125,178.1,314.565,176.1,310,176.1c-8.258,0-17.45,5.062-25.218,13.888a59.4,59.4,0,0,0-10.966,18.232,42.186,42.186,0,0,0-2.751,19.873c1.793,13.992,10.508,41.118,20.273,63.1,5.569,12.536,11.276,23,16.5,30.276,5.8,8.072,11.092,12.339,15.293,12.339,1.845,0,4.237-.708,6.366-6.231,1.682-4.364,2.786-10.527,4.064-17.663.907-5.068,1.936-10.812,3.318-16.568,1.767-7.363,4.383-8.909,6.267-8.909,2.808,0,4.889,3.282,6.183,9.755,2.066,10.326,4.2,21,6.919,28.5,4.029,11.117,8.013,11.117,9.322,11.117,4.162,0,9.473-4.512,15.358-13.05,5.213-7.562,10.972-18.461,16.655-31.517,10.627-24.415,18.686-50.752,20.057-61.151a41.28,41.28,0,0,0-2.743-19.7,59.989,59.989,0,0,0-10.954-18.15,49.193,49.193,0,0,0-12.259-10.273,26.314,26.314,0,0,0-12.979-3.86c-4.565,0-9.125,2-13.952,4.128C358.933,182.785,352.337,185.686,344.354,185.686Z" transform="translate(-267.734 -158.398)" fill="#001929"/>
      <path id="Caminho_1648" data-name="Caminho 1648" d="M309.712,295.972c9.747.787,7.815-28.635,27.979-29.832,11.579-.689,16.7,5.074,18.4,14.006,1.806,9.446,1.136,18.271,11.3,17.664s37.914-44.4,37.159-72.172c-.345-12.7-5.718-26.978-11.691-38.15a21.665,21.665,0,0,0-20.037-11.237c-10.231.372-19.371,7.183-28.045,11.892-11.682,6.344-20.274-4.266-30.806-7.112-10.063-2.721-19.344-.044-26,8.276-8.039,10.052-8.175,24.914-5.259,36.909C284.841,234.964,299.963,295.184,309.712,295.972Z" transform="translate(-261.039 -156.214)" fill="#fff" opacity="0.7"/>
      <path id="Caminho_1649" data-name="Caminho 1649" d="M327.828,194.429c6.915.733,12.658-.951,19.244-2.831,6.4-1.826,13.43-2.929,19.6.294,12.626,6.593,18.6,22.905,20.979,36.093,1.431,7.928,2.442,16.012,1.244,24.031a54.771,54.771,0,0,1-1.6,7.16c4.984-11.411,8.424-23.518,8.152-33.54-.345-12.7-5.718-26.978-11.691-38.15a21.665,21.665,0,0,0-20.037-11.237c-10.231.372-19.371,7.183-28.045,11.892-11.682,6.344-20.275-4.266-30.806-7.112a30.085,30.085,0,0,0-3.627-.748C308.031,187.747,318.067,193.4,327.828,194.429Z" transform="translate(-251.932 -156.214)" fill="#fff"/>
      <path id="Caminho_1650" data-name="Caminho 1650" d="M310.422,186.454c5.253,4.26,12.079,5.447,18.67,4.279,7.886-1.4,16.619-5.574,19.542-12.323-5.444,2.374-11.346,4.728-18.409,4.728-13.513,0-22.782-8.607-32.707-9.505C301.844,177.875,305.677,182.609,310.422,186.454Z" transform="translate(-253.606 -157.383)" fill="#dff2fe" style="mix-blend-mode: multiply;isolation: isolate"/>
      <path id="Caminho_1651" data-name="Caminho 1651" d="M387.209,275.892c-3.857,5.734-14.266,13-22.295,10.823-7.879-2.136-8.554-13.211-10.059-19.674-.707-3.038-1.18-8.405-4.461-9.853a12.05,12.05,0,0,0-10.549.588A26.882,26.882,0,0,0,327.5,275.9c-1.017,6.663-2.231,16.126-10.837,16.3-4.522.094-6.835-4.873-9.491-7.941-4.292-4.957-23.469-38.844-38.282-70.949,5.432,29.8,33.4,103.171,52.977,103.171,10.114,0,10.063-20.082,15.238-41.637,2.364-9.852,7.092-11.033,9.456.788,4.427,22.125,8.275,40.849,17.744,40.849,14.8,0,34.715-44.693,45.69-77.581C402.707,253.826,395.657,263.337,387.209,275.892Z" transform="translate(-266.47 -139.549)" fill="#dff2fe" style="mix-blend-mode: multiply;isolation: isolate"/>
      <g id="Grupo_885" data-name="Grupo 885" transform="translate(61.501 21.69)">
        <path id="Caminho_1652" data-name="Caminho 1652" d="M340.162,178.927l-1.289.432c-.4.148-.926.283-1.461.519l-1.833.751c-1.365.542-2.948,1.274-4.7,1.915-.877.32-1.764.7-2.7,1l-2.838.887c-.939.333-1.935.471-2.883.712-.96.193-1.884.477-2.812.581l-2.663.342a19.858,19.858,0,0,1-2.386.245l-4.947.129,4.924-.375a19.461,19.461,0,0,0,2.358-.361l2.618-.47c.91-.146,1.815-.475,2.75-.713.926-.286,1.894-.467,2.8-.842l2.748-1.012c.9-.341,1.764-.757,2.61-1.116,1.7-.716,3.221-1.516,4.582-2.138l1.873-.876c.557-.275,1.049-.426,1.451-.6l1.265-.5a.788.788,0,1,1,.575,1.468l-.033.012Z" transform="translate(-309.653 -177.386)" fill="#001929"/>
      </g>
      <path id="Caminho_1653" data-name="Caminho 1653" d="M290.26,180.112c-1.244-.094-2.757,1.045-3.689,1.781a10.421,10.421,0,0,0-2.877,3.676.074.074,0,0,0,.127.075,12.544,12.544,0,0,1,3.138-3.248c1.033-.784,2.538-1.093,3.425-1.984A.178.178,0,0,0,290.26,180.112Z" transform="translate(-259.823 -154.474)" fill="#001929"/>
      <path id="Caminho_1654" data-name="Caminho 1654" d="M290.44,180.9a5.724,5.724,0,0,0-4.038,2.539c-.042.075.046.183.126.126a10.029,10.029,0,0,1,4.163-1.757C291.287,181.7,291.035,180.789,290.44,180.9Z" transform="translate(-258.606 -154.123)" fill="#001929"/>
      <path id="Caminho_1655" data-name="Caminho 1655" d="M289.334,254.828c-.6-.78-1.406-1.322-2.071-2.052a6.755,6.755,0,0,1-1.683-3.216c-.013-.067-.1-.044-.109.016-.243,2.189,1.387,5.261,3.8,5.411C289.36,254.99,289.379,254.886,289.334,254.828Z" transform="translate(-259.03 -123.279)" fill="#001929"/>
      <path id="Caminho_1656" data-name="Caminho 1656" d="M291.384,253.222c-1.154-1.025-2.781-1.454-3.735-2.734a.092.092,0,0,0-.168.071,3.975,3.975,0,0,0,3.832,2.835A.1.1,0,0,0,291.384,253.222Z" transform="translate(-258.118 -122.862)" fill="#001929"/>
      <path id="Caminho_1657" data-name="Caminho 1657" d="M356.936,245.161c-.691,1.387-.936,2.955-1.655,4.364-.694,1.364-1.7,2.525-2.512,3.812a.037.037,0,0,0,.051.051c2.258-1.526,4.7-5.3,4.547-8.109C357.355,245.066,357.044,244.944,356.936,245.161Z" transform="translate(-228.777 -125.289)" fill="#001929"/>
      <path id="Caminho_1658" data-name="Caminho 1658" d="M355.342,243.582a.159.159,0,0,0-.287-.038,6.363,6.363,0,0,0-.713,2.406,15.552,15.552,0,0,1-.743,2.539c-.1.248.271.362.406.171C354.927,247.343,355.948,245.21,355.342,243.582Z" transform="translate(-228.41 -125.998)" fill="#001929"/>
      <path id="Caminho_1659" data-name="Caminho 1659" d="M347.527,176.718c-1.554-1.13-3.957-.886-5.629-.149-.078.035-.035.157.042.157.836-.006,1.665-.087,2.5-.1a29.66,29.66,0,0,1,3.015.355C347.609,176.988,347.627,176.792,347.527,176.718Z" transform="translate(-233.679 -156.345)" fill="#001929"/>
      <path id="Caminho_1660" data-name="Caminho 1660" d="M348.577,178.429a4.523,4.523,0,0,0-4.482-.661c-.17.057-.151.348.043.326a5.514,5.514,0,0,1,3.2.626c.312.162,1.189.864,1.349.143A.45.45,0,0,0,348.577,178.429Z" transform="translate(-232.725 -155.661)" fill="#001929"/>
      <g id="Grupo_890" data-name="Grupo 890" transform="translate(0 0)">
        <path id="Caminho_1661" data-name="Caminho 1661" d="M311.4,224.248c0,13.2,19.7,13.2,19.7,0Z" transform="translate(-247.369 -134.636)" fill="#d13a3b"/>
        <path id="Caminho_1661_-_Contorno" data-name="Caminho 1661 - Contorno" d="M310.852,223.7h22.766v1.533a11.114,11.114,0,0,1-3.59,8.569,12.031,12.031,0,0,1-15.587,0,11.114,11.114,0,0,1-3.59-8.569Zm19.592,3.066H314.027a7.717,7.717,0,0,0,2.458,4.751,8.971,8.971,0,0,0,11.5,0A7.716,7.716,0,0,0,330.444,226.77Z" transform="translate(-248.358 -135.625)" fill="#001929"/>
        <path id="Caminho_1662" data-name="Caminho 1662" d="M327.509,227.2c2.779,0,3.587-1.344,3.587-2.951H311.4c0,1.607,3.051,2.951,4.628,2.951Z" transform="translate(-247.369 -134.636)" fill="#fff"/>
        <path id="Caminho_1662_-_Contorno" data-name="Caminho 1662 - Contorno" d="M328.5,229.721H317.013c-2.172,0-6.161-1.7-6.161-4.484V223.7h22.766v1.533C333.618,228.045,331.7,229.721,328.5,229.721Z" transform="translate(-248.358 -135.625)" fill="#001929"/>
        <path id="Caminho_1663" data-name="Caminho 1663" d="M349.926,222.8c0,2.1-3.308,3.808-7.388,3.808s-7.388-1.7-7.388-3.808,3.308-3.809,7.388-3.809S349.926,220.7,349.926,222.8Z" transform="translate(-236.693 -136.998)" fill="#f5b4b2"/>
        <path id="Caminho_1664" data-name="Caminho 1664" d="M309.269,222.8c0,2.1-3.308,3.808-7.388,3.808s-7.388-1.7-7.388-3.808,3.308-3.809,7.388-3.809S309.269,220.7,309.269,222.8Z" transform="translate(-254.965 -136.998)" fill="#f5b4b2"/>
        <path id="Caminho_1665" data-name="Caminho 1665" d="M328.607,228.311a1.54,1.54,0,0,1-.3-.03,5.254,5.254,0,0,1-3.8-3.7,1.533,1.533,0,0,1,2.941-.867,2.175,2.175,0,0,0,1.459,1.558,1.533,1.533,0,0,1-.3,3.036Z" transform="translate(-242.25 -136.114)" fill="#001929"/>
        <path id="Caminho_1666" data-name="Caminho 1666" fill="#001929"/>
        <path id="Caminho_1667" data-name="Caminho 1667" d="M320.47,232.635a12.354,12.354,0,0,1-2.492.32c-.246.006-1.206-.007-1.27.4-.09.561.61.951,1.07,1.068a5.161,5.161,0,0,0,3.142-.145A.851.851,0,0,0,320.47,232.635Z" transform="translate(-244.985 -130.879)" fill="#001929"/>
        <g id="Grupo_886" data-name="Grupo 886" transform="translate(95.735 79.808)">
          <path id="Caminho_1668" data-name="Caminho 1668" d="M334.073,218.624a.263.263,0,0,0,0,.526A.263.263,0,0,0,334.073,218.624Z" transform="translate(-333.027 -216.972)" fill="#001929"/>
          <path id="Caminho_1669" data-name="Caminho 1669" d="M336.076,218.314a.976.976,0,0,0,0,1.951A.976.976,0,0,0,336.076,218.314Z" transform="translate(-332.436 -217.111)" fill="#001929"/>
          <path id="Caminho_1670" data-name="Caminho 1670" d="M339.616,218.053a.493.493,0,0,0,0,.986A.493.493,0,0,0,339.616,218.053Z" transform="translate(-330.636 -217.228)" fill="#001929"/>
          <path id="Caminho_1671" data-name="Caminho 1671" d="M338.3,219.407a.756.756,0,0,0,0,1.512A.756.756,0,0,0,338.3,219.407Z" transform="translate(-331.339 -216.62)" fill="#001929"/>
          <path id="Caminho_1672" data-name="Caminho 1672" d="M341.3,219.746a.842.842,0,0,0,0,1.683A.842.842,0,0,0,341.3,219.746Z" transform="translate(-330.032 -216.467)" fill="#001929"/>
          <path id="Caminho_1673" data-name="Caminho 1673" d="M343.116,217.484a.669.669,0,0,0,0,1.338A.669.669,0,0,0,343.116,217.484Z" transform="translate(-329.139 -217.484)" fill="#001929"/>
          <path id="Caminho_1674" data-name="Caminho 1674" d="M345.8,218.192a.521.521,0,0,0,0,1.042A.521.521,0,0,0,345.8,218.192Z" transform="translate(-327.871 -217.166)" fill="#001929"/>
          <path id="Caminho_1675" data-name="Caminho 1675" d="M345.494,220.493a.213.213,0,0,0,0,.426A.213.213,0,0,0,345.494,220.493Z" transform="translate(-327.872 -216.132)" fill="#001929"/>
          <path id="Caminho_1676" data-name="Caminho 1676" d="M335.529,221.648a.46.46,0,0,0,0,.92A.46.46,0,0,0,335.529,221.648Z" transform="translate(-332.458 -215.613)" fill="#001929"/>
          <path id="Caminho_1677" data-name="Caminho 1677" d="M333.673,220.022a.417.417,0,0,0,0,.833A.417.417,0,0,0,333.673,220.022Z" transform="translate(-333.272 -216.343)" fill="#001929"/>
          <path id="Caminho_1678" data-name="Caminho 1678" d="M338.211,222.2a.12.12,0,0,0,0,.241A.12.12,0,0,0,338.211,222.2Z" transform="translate(-331.105 -215.365)" fill="#001929"/>
          <path id="Caminho_1679" data-name="Caminho 1679" d="M340.4,221.663a.219.219,0,0,0,0,.438A.219.219,0,0,0,340.4,221.663Z" transform="translate(-330.164 -215.606)" fill="#001929"/>
        </g>
        <g id="Grupo_887" data-name="Grupo 887" transform="translate(38.572 79.808)">
          <path id="Caminho_1680" data-name="Caminho 1680" d="M294.635,218.624a.263.263,0,0,0,0,.526A.263.263,0,0,0,294.635,218.624Z" transform="translate(-293.588 -216.972)" fill="#001929"/>
          <path id="Caminho_1681" data-name="Caminho 1681" d="M296.638,218.314a.976.976,0,0,0,0,1.951A.976.976,0,0,0,296.638,218.314Z" transform="translate(-292.997 -217.111)" fill="#001929"/>
          <path id="Caminho_1682" data-name="Caminho 1682" d="M300.179,218.053a.493.493,0,0,0,0,.986A.493.493,0,0,0,300.179,218.053Z" transform="translate(-291.196 -217.228)" fill="#001929"/>
          <path id="Caminho_1683" data-name="Caminho 1683" d="M298.867,219.407a.756.756,0,0,0,0,1.512A.756.756,0,0,0,298.867,219.407Z" transform="translate(-291.9 -216.62)" fill="#001929"/>
          <path id="Caminho_1684" data-name="Caminho 1684" d="M301.858,219.746a.842.842,0,0,0,0,1.683A.842.842,0,0,0,301.858,219.746Z" transform="translate(-290.593 -216.467)" fill="#001929"/>
          <path id="Caminho_1685" data-name="Caminho 1685" d="M303.677,217.484a.669.669,0,0,0,0,1.338A.669.669,0,0,0,303.677,217.484Z" transform="translate(-289.7 -217.484)" fill="#001929"/>
          <path id="Caminho_1686" data-name="Caminho 1686" d="M306.359,218.192a.521.521,0,0,0,0,1.042A.521.521,0,0,0,306.359,218.192Z" transform="translate(-288.432 -217.166)" fill="#001929"/>
          <path id="Caminho_1687" data-name="Caminho 1687" d="M306.057,220.493a.213.213,0,0,0,0,.426A.213.213,0,0,0,306.057,220.493Z" transform="translate(-288.433 -216.132)" fill="#001929"/>
          <path id="Caminho_1688" data-name="Caminho 1688" d="M296.091,221.648a.46.46,0,0,0,0,.92A.46.46,0,0,0,296.091,221.648Z" transform="translate(-293.019 -215.613)" fill="#001929"/>
          <path id="Caminho_1689" data-name="Caminho 1689" d="M294.236,220.022a.417.417,0,0,0,0,.833A.417.417,0,0,0,294.236,220.022Z" transform="translate(-293.833 -216.343)" fill="#001929"/>
          <path id="Caminho_1690" data-name="Caminho 1690" d="M298.773,222.2a.12.12,0,0,0,0,.241A.12.12,0,0,0,298.773,222.2Z" transform="translate(-291.666 -215.365)" fill="#001929"/>
          <path id="Caminho_1691" data-name="Caminho 1691" d="M300.963,221.663a.219.219,0,0,0,0,.438A.219.219,0,0,0,300.963,221.663Z" transform="translate(-290.725 -215.606)" fill="#001929"/>
        </g>
        <g id="Grupo_888" data-name="Grupo 888" transform="translate(94.673 56.562)">
          <path id="Caminho_1692" data-name="Caminho 1692" d="M347.572,202.5a5.3,5.3,0,0,0-4.335,2.252,5.3,5.3,0,0,0-9.64,3.052c0,6.78,9.64,12.585,9.64,12.585s9.64-5.8,9.64-12.585A5.305,5.305,0,0,0,347.572,202.5Z" transform="translate(-332.064 -200.97)" fill="#d13a3b"/>
          <path id="Caminho_1692_-_Contorno" data-name="Caminho 1692 - Contorno" d="M339.892,201.959a6.837,6.837,0,0,1,4.333,1.555A6.834,6.834,0,0,1,355.4,208.8c0,7.56-9.958,13.643-10.382,13.9l-.791.476-.791-.476c-.424-.255-10.382-6.339-10.382-13.9A6.846,6.846,0,0,1,339.892,201.959Zm4.335,6.444-1.253-1.775a3.77,3.77,0,0,0-6.855,2.168c0,4.4,5.275,8.858,8.106,10.765,2.83-1.912,8.108-6.381,8.108-10.765a3.77,3.77,0,0,0-6.854-2.169Z" transform="translate(-333.053 -201.959)" fill="#001929"/>
          <path id="Caminho_1693" data-name="Caminho 1693" d="M345.6,206.3c-.451-.974-2.363-2.937-3.207-1.183a.324.324,0,0,0,.114.433,9.268,9.268,0,0,1,.865.433,2.021,2.021,0,0,1,.517,1.254,4.472,4.472,0,0,1-.275,2.97,1.063,1.063,0,0,0,1.834,1.073A5.784,5.784,0,0,0,345.6,206.3Z" transform="translate(-328.13 -200.113)" fill="#fff"/>
          <path id="Caminho_1694" data-name="Caminho 1694" d="M342.751,209.764a1.062,1.062,0,0,0,0,2.123A1.062,1.062,0,0,0,342.751,209.764Z" transform="translate(-328.412 -197.707)" fill="#fff"/>
        </g>
        <g id="Grupo_889" data-name="Grupo 889" transform="translate(36.382 56.562)">
          <path id="Caminho_1695" data-name="Caminho 1695" d="M307.354,202.5a5.292,5.292,0,0,0-4.334,2.252,5.3,5.3,0,0,0-9.64,3.052c0,6.78,9.64,12.585,9.64,12.585s9.639-5.8,9.639-12.585A5.3,5.3,0,0,0,307.354,202.5Z" transform="translate(-291.847 -200.97)" fill="#d13a3b"/>
          <path id="Caminho_1695_-_Contorno" data-name="Caminho 1695 - Contorno" d="M299.674,201.959a6.84,6.84,0,0,1,4.335,1.555,6.833,6.833,0,0,1,11.172,5.283c0,7.56-9.957,13.643-10.381,13.9l-.791.476-.791-.476c-.424-.255-10.382-6.339-10.382-13.9A6.845,6.845,0,0,1,299.674,201.959Zm4.336,6.444-1.253-1.775A3.77,3.77,0,0,0,295.9,208.8c0,4.4,5.275,8.858,8.106,10.765,2.83-1.911,8.107-6.381,8.107-10.765a3.769,3.769,0,0,0-6.853-2.169Z" transform="translate(-292.836 -201.959)" fill="#001929"/>
          <path id="Caminho_1696" data-name="Caminho 1696" d="M305.378,206.3c-.449-.974-2.363-2.937-3.206-1.183a.322.322,0,0,0,.113.433,9.457,9.457,0,0,1,.867.433,2.02,2.02,0,0,1,.516,1.254,4.456,4.456,0,0,1-.275,2.97,1.063,1.063,0,0,0,1.835,1.073A5.789,5.789,0,0,0,305.378,206.3Z" transform="translate(-287.914 -200.113)" fill="#fff"/>
          <path id="Caminho_1697" data-name="Caminho 1697" d="M302.532,209.764a1.062,1.062,0,0,0,0,2.123A1.062,1.062,0,0,0,302.532,209.764Z" transform="translate(-288.195 -197.707)" fill="#fff"/>
        </g>
      </g>
    </g>
  </g>
</svg>
