<svg xmlns="http://www.w3.org/2000/svg" xmlns:xlink="http://www.w3.org/1999/xlink" width="552.862" height="1365.929" viewBox="0 0 552.862 1365.929">
  <defs>
    <linearGradient id="linear-gradient" x1="0.5" x2="0.5" y2="1" gradientUnits="objectBoundingBox">
      <stop offset="0" stop-color="#609ce0"/>
      <stop offset="0.803" stop-color="#3275c3"/>
      <stop offset="0.921" stop-color="#1852af"/>
      <stop offset="1" stop-color="#5426a7"/>
    </linearGradient>
  </defs>
  <g id="Grupo_1644" data-name="Grupo 1644" transform="translate(92.225 61.929)">
    <rect id="Retângulo_8" data-name="Retângulo 8" width="428" height="1304" transform="translate(428 1304) rotate(180)" fill="url(#linear-gradient)"/>
    <g id="Grupo_8" data-name="Grupo 8" transform="translate(-5.457 -229.619)" opacity="0.161">
      <path id="_30" data-name="30" d="M67.482,1.625a1.546,1.546,0,0,1,3.079-.259A1.547,1.547,0,0,1,67.482,1.625ZM84.027,22.63,83.883,21.1a1.547,1.547,0,0,0-1.669-1.41,1.585,1.585,0,0,0-1.41,1.669l.144,1.525a1.547,1.547,0,0,0,1.669,1.41A1.564,1.564,0,0,0,84.027,22.63Zm12.92,23.652a1.546,1.546,0,0,0-3.079.259A1.546,1.546,0,0,0,96.947,46.282Zm6.877,25.753a1.546,1.546,0,0,0-3.079.259A1.546,1.546,0,0,0,103.823,72.035ZM111.506,97.7a1.546,1.546,0,0,0-3.079.259A1.546,1.546,0,0,0,111.506,97.7Zm-.317,49.578a1.546,1.546,0,0,0-3.079.259A1.546,1.546,0,0,0,111.19,147.279ZM109.348,170.7a1.546,1.546,0,0,0-3.079.259A1.546,1.546,0,0,0,109.348,170.7Zm-8.287,29.378a1.585,1.585,0,0,0-1.669-1.41l-.777.058a1.547,1.547,0,0,0-1.41,1.669,1.585,1.585,0,0,0,1.669,1.41l.777-.058A1.543,1.543,0,0,0,101.061,200.079ZM88.17,229.86a1.546,1.546,0,0,0-3.079.259A1.546,1.546,0,0,0,88.17,229.86ZM72.949,250.549a1.546,1.546,0,0,0-3.079.259A1.546,1.546,0,0,0,72.949,250.549ZM58.015,265.8a1.585,1.585,0,0,0-1.669-1.41l-.777.058a1.547,1.547,0,0,0-1.41,1.669,1.585,1.585,0,0,0,1.669,1.41l.777-.058A1.547,1.547,0,0,0,58.015,265.8Zm-20.6,12.632a1.546,1.546,0,0,0-3.079.259A1.546,1.546,0,0,0,37.413,278.431Zm-27.048,9.351a1.585,1.585,0,0,0-1.669-1.41l-.777.058A1.547,1.547,0,0,0,6.51,288.1a1.585,1.585,0,0,0,1.669,1.41l.777-.058A1.567,1.567,0,0,0,10.366,287.782Zm-6.1-16.516a1.546,1.546,0,0,0-3.079.259A1.546,1.546,0,0,0,4.266,271.266Zm22.616-10.934.691-.834a1.553,1.553,0,0,0-2.388-1.985c-.23.288-.46.547-.691.834a1.579,1.579,0,0,0,.2,2.187A1.609,1.609,0,0,0,26.882,260.332Zm24.026-17.61.691-.834A1.553,1.553,0,1,0,49.21,239.9c-.23.288-.46.547-.691.834a1.553,1.553,0,1,0,2.388,1.985Zm16.833-25.033a1.546,1.546,0,0,0-3.079.259A1.546,1.546,0,0,0,67.741,217.689Zm12.028-21.955a1.546,1.546,0,0,0-3.079.259A1.546,1.546,0,0,0,79.768,195.734Zm7.28-23.105a1.585,1.585,0,0,0-1.669-1.41l-.777.058a1.547,1.547,0,0,0-1.41,1.669,1.585,1.585,0,0,0,1.669,1.41l.777-.058A1.527,1.527,0,0,0,87.048,172.629Zm4.575-27.508a1.546,1.546,0,0,0-3.079.259A1.546,1.546,0,0,0,91.623,145.121Zm-.4-40.226a1.546,1.546,0,0,0-3.079.259A1.546,1.546,0,0,0,91.22,104.895ZM87.192,76.581a1.546,1.546,0,0,0-3.079.259A1.546,1.546,0,0,0,87.192,76.581ZM73.9,39.779,73.841,39a1.547,1.547,0,0,0-1.669-1.41,1.585,1.585,0,0,0-1.41,1.669l.058.777a1.547,1.547,0,0,0,1.669,1.41A1.564,1.564,0,0,0,73.9,39.779ZM82.157,54.54a1.546,1.546,0,0,0-3.079.259A1.546,1.546,0,0,0,82.157,54.54Zm-25.206-40.4a1.546,1.546,0,0,0-3.079.259A1.546,1.546,0,0,0,56.951,14.142ZM41.1,32.9a1.581,1.581,0,0,0-.2-2.187l-.834-.691a1.553,1.553,0,1,0-1.985,2.388c.288.23.547.46.834.691A1.607,1.607,0,0,0,41.1,32.9ZM52.088,47.117a1.546,1.546,0,0,0-3.079.259A1.546,1.546,0,0,0,52.088,47.117Zm9.323,27.048-.058-.777a1.547,1.547,0,0,0-1.669-1.41,1.585,1.585,0,0,0-1.41,1.669l.058.777a1.545,1.545,0,0,0,3.079-.259Zm6.5,21.149-.058-.777a1.547,1.547,0,0,0-1.669-1.41,1.585,1.585,0,0,0-1.41,1.669l.058.777a1.547,1.547,0,0,0,1.669,1.41A1.581,1.581,0,0,0,67.914,95.313Zm2.014,23.048a1.546,1.546,0,0,0-3.079.259A1.546,1.546,0,0,0,69.928,118.361Zm-.288,23.278-.058-.777a1.547,1.547,0,0,0-1.669-1.41,1.585,1.585,0,0,0-1.41,1.669l.058.777a1.547,1.547,0,0,0,1.669,1.41A1.6,1.6,0,0,0,69.64,141.639ZM62.475,166.27a1.546,1.546,0,0,0-3.079.259A1.546,1.546,0,0,0,62.475,166.27Zm-6.359,24.573a1.546,1.546,0,0,0-3.079.259A1.546,1.546,0,0,0,56.116,190.843Zm-7.683,18.473-.058-.777a1.547,1.547,0,0,0-1.669-1.41A1.585,1.585,0,0,0,45.3,208.8l.058.777a1.547,1.547,0,0,0,1.669,1.41A1.564,1.564,0,0,0,48.434,209.315Zm-16.056,16.43.691-.834a1.553,1.553,0,1,0-2.388-1.985c-.23.288-.46.547-.691.834a1.553,1.553,0,0,0,2.388,1.985Zm-13.9,13.294a1.546,1.546,0,0,0-3.079.259C15.6,241.283,18.681,241.024,18.48,239.039ZM3.086,248.908a1.546,1.546,0,0,0-3.079.259A1.546,1.546,0,0,0,3.086,248.908ZM115.1,121.382a1.546,1.546,0,0,0-3.079.259A1.546,1.546,0,0,0,115.1,121.382Zm-17.466,3.856a1.546,1.546,0,0,0-3.079.259A1.546,1.546,0,0,0,97.637,125.238Z" transform="translate(117.948 192.209) rotate(45)" fill="#fff"/>
      <g id="_31" data-name="31" transform="translate(309.706 312.344)">
        <path id="Caminho_1" data-name="Caminho 1" d="M3.06,398.459A37.491,37.491,0,0,1,2.729,383.2c.244-1.36-1.831-1.936-2.075-.576a40.249,40.249,0,0,0,.331,16.395C1.3,400.395,3.374,399.819,3.06,398.459Z" transform="translate(0.033 -315.245)" fill="#fff"/>
        <path id="Caminho_2" data-name="Caminho 2" d="M37.9,581c-1.43-4.308-2.878-8.616-4.308-12.924-.436-1.308-2.512-.75-2.075.576,1.43,4.308,2.878,8.616,4.308,12.924C36.261,582.884,38.336,582.326,37.9,581Z" transform="translate(-25.965 -468.381)" fill="#fff"/>
        <path id="Caminho_3" data-name="Caminho 3" d="M120.308,716.024l-8.616-8.616c-.977-.977-2.512.541-1.517,1.517l8.616,8.616A1.073,1.073,0,0,0,120.308,716.024Z" transform="translate(-90.687 -583.766)" fill="#fff"/>
        <path id="Caminho_4" data-name="Caminho 4" d="M240.946,808.513c-3.157-2.32-6.331-4.657-9.488-6.976-1.116-.82-2.2,1.046-1.081,1.866,3.157,2.32,6.331,4.657,9.488,6.976C240.981,811.2,242.045,809.315,240.946,808.513Z" transform="translate(-189.803 -661.569)" fill="#fff"/>
        <path id="Caminho_5" data-name="Caminho 5" d="M394.468,863.074q-5.756-1.413-11.511-2.843c-1.343-.331-1.919,1.744-.576,2.076q5.756,1.413,11.511,2.843C395.253,865.481,395.829,863.405,394.468,863.074Z" transform="translate(-315.053 -710.166)" fill="#fff"/>
        <path id="Caminho_6" data-name="Caminho 6" d="M558.868,844.247q-5.782,1.308-11.546,2.616c-1.36.314-.785,2.389.576,2.076q5.782-1.308,11.546-2.616C560.787,846.009,560.211,843.934,558.868,844.247Z" transform="translate(-451.216 -696.972)" fill="#fff"/>
        <path id="Caminho_7" data-name="Caminho 7" d="M708.422,758q-6.043,4.761-12.069,9.523c-1.081.855.453,2.372,1.517,1.517q6.043-4.761,12.069-9.523C711.038,758.667,709.5,757.149,708.422,758Z" transform="translate(-574.591 -625.589)" fill="#fff"/>
        <path id="Caminho_8" data-name="Caminho 8" d="M820.733,650.72c-1.936,3.1-3.872,6.192-5.825,9.3-.733,1.186,1.134,2.267,1.866,1.081,1.936-3.1,3.872-6.192,5.825-9.3C823.332,650.633,821.466,649.552,820.733,650.72Z" transform="translate(-672.635 -536.81)" fill="#fff"/>
        <path id="Caminho_9" data-name="Caminho 9" d="M877.4,490.039c-.471,4.8-.959,9.575-1.43,14.371-.14,1.378,2.023,1.378,2.163,0,.471-4.8.959-9.575,1.43-14.371C879.684,488.661,877.539,488.679,877.4,490.039Z" transform="translate(-723.18 -403.721)" fill="#fff"/>
        <path id="Caminho_10" data-name="Caminho 10" d="M864.094,324.752c-1.36-4.343-2.721-8.668-4.081-13.011-.419-1.326-2.494-.75-2.076.576,1.36,4.343,2.721,8.668,4.081,13.011C862.437,326.653,864.513,326.1,864.094,324.752Z" transform="translate(-708.253 -256.747)" fill="#fff"/>
        <path id="Caminho_11" data-name="Caminho 11" d="M771.683,153.007a32.6,32.6,0,0,0-9.959-13.2c-1.081-.855-2.616.663-1.517,1.517a30.612,30.612,0,0,1,9.4,12.244C770.131,154.838,772.224,154.3,771.683,153.007Z" transform="translate(-627.3 -115.209)" fill="#fff"/>
        <path id="Caminho_12" data-name="Caminho 12" d="M594,28.521a28.937,28.937,0,0,0-17.458-8.668c-1.378-.174-1.36,1.988,0,2.163a26.48,26.48,0,0,1,15.924,8.04C593.44,31.05,594.957,29.515,594,28.521Z" transform="translate(-475.131 -16.379)" fill="#fff"/>
        <path id="Caminho_13" data-name="Caminho 13" d="M378.794-.012c-5.511.331-11.005.645-16.517.977-1.378.087-1.4,2.232,0,2.163,5.511-.331,11.005-.645,16.517-.977C380.172,2.063,380.172-.1,378.794-.012Z" transform="translate(-298.228 0.015)" fill="#fff"/>
        <path id="Caminho_14" data-name="Caminho 14" d="M163.371,39.067c-4.064,2.18-8.145,4.343-12.209,6.506-1.221.645-.14,2.512,1.081,1.866,4.064-2.163,8.128-4.343,12.191-6.506C165.673,40.288,164.592,38.422,163.371,39.067Z" transform="translate(-124.35 -32.141)" fill="#fff"/>
        <path id="Caminho_15" data-name="Caminho 15" d="M93.138,184.068a30.24,30.24,0,0,0-4.273,18.592c.122,1.378,2.285,1.378,2.163,0A28.311,28.311,0,0,1,95,185.149,1.079,1.079,0,0,0,93.138,184.068Z" transform="translate(-73.25 -151.538)" fill="#fff"/>
        <path id="Caminho_16" data-name="Caminho 16" d="M118.935,463.237a20.24,20.24,0,0,1-2.581-10.29,1.082,1.082,0,0,0-2.163,0,22.516,22.516,0,0,0,2.878,11.372C117.731,465.539,119.6,464.44,118.935,463.237Z" transform="translate(-94.267 -373.081)" fill="#fff"/>
        <path id="Caminho_17" data-name="Caminho 17" d="M178,642.025c-1.43-2.878-2.878-5.756-4.308-8.616-.628-1.238-2.477-.157-1.866,1.081,1.43,2.878,2.878,5.755,4.308,8.616C176.759,644.362,178.625,643.263,178,642.025Z" transform="translate(-141.749 -522.481)" fill="#fff"/>
        <path id="Caminho_18" data-name="Caminho 18" d="M280.339,728.426c-4.064-1.674-8.145-3.349-12.209-5.023-1.273-.523-1.831,1.552-.576,2.076,4.064,1.674,8.145,3.349,12.209,5.023C281.054,731.042,281.612,728.949,280.339,728.426Z" transform="translate(-220.301 -597.162)" fill="#fff"/>
        <path id="Caminho_19" data-name="Caminho 19" d="M463.877,762.842q-5.389-1.073-10.779-2.163c-1.36-.279-1.936,1.814-.576,2.076q5.389,1.073,10.779,2.163C464.661,765.2,465.254,763.121,463.877,762.842Z" transform="translate(-372.951 -627.985)" fill="#fff"/>
        <path id="Caminho_20" data-name="Caminho 20" d="M669.594,691.208l-7.186,7.186c-.977.977.541,2.512,1.517,1.517l7.186-7.186C672.106,691.749,670.571,690.232,669.594,691.208Z" transform="translate(-546.611 -570.392)" fill="#fff"/>
        <path id="Caminho_21" data-name="Caminho 21" d="M762,567.809c-1.43,2.878-2.843,5.756-4.273,8.651-.61,1.238,1.238,2.337,1.866,1.081,1.43-2.878,2.843-5.755,4.273-8.651C764.473,567.652,762.607,566.571,762,567.809Z" transform="translate(-625.462 -468.323)" fill="#fff"/>
        <path id="Caminho_22" data-name="Caminho 22" d="M797.363,440.546a1.082,1.082,0,0,0-2.163,0v8.616a1.082,1.082,0,0,0,2.163,0C797.38,446.3,797.38,443.424,797.363,440.546Z" transform="translate(-656.503 -362.844)" fill="#fff"/>
        <path id="Caminho_23" data-name="Caminho 23" d="M758.208,291.977c-.8-1.116-2.686-.035-1.866,1.081a17.744,17.744,0,0,1,3.523,10.936,1.082,1.082,0,0,0,2.163,0A19.96,19.96,0,0,0,758.208,291.977Z" transform="translate(-624.255 -240.663)" fill="#fff"/>
        <path id="Caminho_24" data-name="Caminho 24" d="M651.906,161.411a41.493,41.493,0,0,0-8.546-10.465c-1.029-.924-2.564.61-1.517,1.517a39.521,39.521,0,0,1,8.2,10.029A1.079,1.079,0,0,0,651.906,161.411Z" transform="translate(-529.603 -124.381)" fill="#fff"/>
        <path id="Caminho_25" data-name="Caminho 25" d="M493.4,91.32c-2.389-.715-4.8-1.43-7.186-2.163a1.078,1.078,0,0,0-.576,2.075c2.389.715,4.8,1.43,7.186,2.163A1.077,1.077,0,0,0,493.4,91.32Z" transform="translate(-400.314 -73.563)" fill="#fff"/>
        <path id="Caminho_26" data-name="Caminho 26" d="M291.986,79.187a26.093,26.093,0,0,0-16.325,4.8c-1.116.8-.052,2.668,1.081,1.866a24.044,24.044,0,0,1,15.243-4.5C293.381,81.4,293.381,79.24,291.986,79.187Z" transform="translate(-227.187 -65.354)" fill="#fff"/>
        <path id="Caminho_27" data-name="Caminho 27" d="M194.213,180.9c-.715,1.919-1.43,3.837-2.163,5.756-.488,1.308,1.587,1.866,2.075.576.715-1.919,1.43-3.837,2.163-5.756C196.777,180.18,194.7,179.622,194.213,180.9Z" transform="translate(-158.488 -148.749)" fill="#fff"/>
        <path id="Caminho_28" data-name="Caminho 28" d="M167.551,292.246c-.227,3.837-.436,7.674-.663,11.494-.087,1.378,2.075,1.378,2.163,0,.227-3.837.436-7.674.663-11.494C169.783,290.851,167.62,290.851,167.551,292.246Z" transform="translate(-137.773 -240.409)" fill="#fff"/>
        <path id="Caminho_29" data-name="Caminho 29" d="M195.062,485.631q-2.512-4.317-5.023-8.616a1.079,1.079,0,0,0-1.866,1.081q2.511,4.317,5.023,8.616A1.079,1.079,0,0,0,195.062,485.631Z" transform="translate(-155.221 -393.383)" fill="#fff"/>
        <path id="Caminho_30" data-name="Caminho 30" d="M274.172,606.663a10.679,10.679,0,0,1-6.75-5.79c-.593-1.256-2.459-.157-1.866,1.081a12.708,12.708,0,0,0,8.04,6.767A1.069,1.069,0,0,0,274.172,606.663Z" transform="translate(-219.14 -495.613)" fill="#fff"/>
        <path id="Caminho_31" data-name="Caminho 31" d="M397.571,670.852c-3.61-.907-7.2-1.814-10.813-2.721-1.343-.331-1.919,1.744-.576,2.076,3.61.907,7.2,1.814,10.813,2.721A1.078,1.078,0,0,0,397.571,670.852Z" transform="translate(-318.191 -551.57)" fill="#fff"/>
        <path id="Caminho_32" data-name="Caminho 32" d="M575.721,624.708l-7.9,5.023c-1.169.75-.087,2.616,1.081,1.866l7.9-5.023C577.971,625.842,576.89,623.976,575.721,624.708Z" transform="translate(-468.366 -515.612)" fill="#fff"/>
        <path id="Caminho_33" data-name="Caminho 33" d="M672.12,497.941c-.715,2.389-1.43,4.8-2.163,7.186a1.078,1.078,0,0,0,2.076.576c.715-2.389,1.43-4.8,2.163-7.186A1.078,1.078,0,0,0,672.12,497.941Z" transform="translate(-553.062 -410.472)" fill="#fff"/>
        <path id="Caminho_34" data-name="Caminho 34" d="M693.451,366.377c-.087-1.378-2.25-1.4-2.163,0,.244,3.837.488,7.657.733,11.494.087,1.378,2.25,1.4,2.163,0Q693.817,372.142,693.451,366.377Z" transform="translate(-570.712 -301.616)" fill="#fff"/>
        <path id="Caminho_35" data-name="Caminho 35" d="M627.025,241.409a16.624,16.624,0,0,0-4.587-7.657c-1.012-.959-2.529.558-1.517,1.517a14.39,14.39,0,0,1,4.029,6.715A1.078,1.078,0,0,0,627.025,241.409Z" transform="translate(-512.344 -192.728)" fill="#fff"/>
        <path id="Caminho_36" data-name="Caminho 36" d="M509.214,158.8c-2.163-1.2-4.308-2.389-6.471-3.593a1.079,1.079,0,0,0-1.081,1.866c2.163,1.2,4.308,2.389,6.471,3.593A1.079,1.079,0,0,0,509.214,158.8Z" transform="translate(-413.719 -128.012)" fill="#fff"/>
        <path id="Caminho_37" data-name="Caminho 37" d="M363.729,142.081l-10.1,4.221c-1.256.523-.715,2.616.576,2.076l10.1-4.221C365.561,143.633,365,141.541,363.729,142.081Z" transform="translate(-291.361 -117.225)" fill="#fff"/>
        <path id="Caminho_38" data-name="Caminho 38" d="M253.087,213.173c-.959,2.163-1.919,4.308-2.878,6.471-.558,1.256,1.291,2.355,1.866,1.081.959-2.163,1.919-4.308,2.878-6.471C255.511,213.016,253.645,211.917,253.087,213.173Z" transform="translate(-206.478 -175.532)" fill="#fff"/>
        <path id="Caminho_39" data-name="Caminho 39" d="M241.6,374.677v8.616a1.082,1.082,0,0,0,2.163,0v-8.616A1.082,1.082,0,0,0,241.6,374.677Z" transform="translate(-199.457 -308.469)" fill="#fff"/>
        <path id="Caminho_40" data-name="Caminho 40" d="M281.852,483.321a11.272,11.272,0,0,1-5.25-5.825c-.506-1.273-2.581-.715-2.076.576a13.628,13.628,0,0,0,6.244,7.116C281.974,485.85,283.073,483.983,281.852,483.321Z" transform="translate(-226.576 -393.619)" fill="#fff"/>
        <path id="Caminho_41" data-name="Caminho 41" d="M385.269,544.759c-2.163-.471-4.308-.942-6.471-1.4-1.36-.3-1.936,1.779-.576,2.076,2.163.471,4.308.942,6.471,1.4C386.053,547.13,386.629,545.055,385.269,544.759Z" transform="translate(-311.609 -448.568)" fill="#fff"/>
        <path id="Caminho_42" data-name="Caminho 42" d="M493.956,529.405c-1.674.942-3.366,1.9-5.04,2.843A1.079,1.079,0,0,0,490,534.114c1.674-.942,3.366-1.9,5.04-2.843A1.079,1.079,0,0,0,493.956,529.405Z" transform="translate(-403.204 -436.947)" fill="#fff"/>
        <path id="Caminho_43" data-name="Caminho 43" d="M574.018,444.173c-.959,1.43-1.918,2.878-2.878,4.308-.767,1.151,1.1,2.232,1.866,1.081.959-1.43,1.919-2.878,2.878-4.308C576.652,444.1,574.786,443.022,574.018,444.173Z" transform="translate(-471.372 -366.296)" fill="#fff"/>
        <path id="Caminho_44" data-name="Caminho 44" d="M573.059,302.082l-3.61-10.046c-.471-1.291-2.546-.733-2.075.576l3.61,10.046C571.454,303.948,573.53,303.39,573.059,302.082Z" transform="translate(-468.354 -240.495)" fill="#fff"/>
        <path id="Caminho_45" data-name="Caminho 45" d="M481.157,223.683c-2.389-.959-4.8-1.919-7.186-2.878-1.291-.523-1.849,1.57-.576,2.075,2.389.959,4.8,1.919,7.186,2.878C481.872,226.282,482.447,224.189,481.157,223.683Z" transform="translate(-390.231 -182.223)" fill="#fff"/>
        <path id="Caminho_46" data-name="Caminho 46" d="M352.816,249.575l-4.308,4.308c-.977.977.541,2.512,1.517,1.517l4.308-4.308C355.311,250.116,353.793,248.581,352.816,249.575Z" transform="translate(-287.459 -205.778)" fill="#fff"/>
        <path id="Caminho_47" data-name="Caminho 47" d="M326.177,367.062a12.569,12.569,0,0,1-1.116-8.564c.3-1.36-1.779-1.936-2.075-.576a14.948,14.948,0,0,0,1.343,10.22C324.956,369.381,326.822,368.282,326.177,367.062Z" transform="translate(-266.348 -294.853)" fill="#fff"/>
        <path id="Caminho_48" data-name="Caminho 48" d="M393.692,457.393l-6.471-1.43c-1.343-.3-1.936,1.779-.576,2.076,2.163.471,4.308.959,6.471,1.43C394.477,459.765,395.053,457.69,393.692,457.393Z" transform="translate(-318.568 -376.412)" fill="#fff"/>
        <path id="Caminho_49" data-name="Caminho 49" d="M491.5,402.842c-1.9,2.163-3.82,4.325-5.721,6.488-.907,1.029.61,2.564,1.517,1.517,1.9-2.163,3.82-4.325,5.721-6.488C493.942,403.331,492.425,401.8,491.5,402.842Z" transform="translate(-400.818 -332.291)" fill="#fff"/>
        <path id="Caminho_50" data-name="Caminho 50" d="M449.582,287.287a8.833,8.833,0,0,0-8.843-4.849c-1.36.157-1.378,2.3,0,2.163a6.821,6.821,0,0,1,6.994,3.785C448.344,289.624,450.192,288.525,449.582,287.287Z" transform="translate(-363.016 -233.13)" fill="#fff"/>
        <path id="Caminho_51" data-name="Caminho 51" d="M417.3,345.565a5.251,5.251,0,0,1-1.012-7.011c.767-1.151-1.1-2.232-1.866-1.081a7.414,7.414,0,0,0,1.779,9.959C417.315,348.269,418.379,346.4,417.3,345.565Z" transform="translate(-341.144 -278.205)" fill="#fff"/>
        <path id="Caminho_52" data-name="Caminho 52" d="M7.212,244.182Q5.9,249.048,4.6,253.9a1.077,1.077,0,0,0,2.075.576q1.308-4.866,2.616-9.715A1.077,1.077,0,0,0,7.212,244.182Z" transform="translate(-3.753 -200.96)" fill="#fff"/>
        <path id="Caminho_53" data-name="Caminho 53" d="M59.549,139.373c-1.43,2.163-2.878,4.308-4.308,6.471-.767,1.151,1.1,2.232,1.866,1.081,1.43-2.163,2.878-4.308,4.308-6.471C62.182,139.3,60.316,138.222,59.549,139.373Z" transform="translate(-45.451 -114.656)" fill="#fff"/>
        <path id="Caminho_54" data-name="Caminho 54" d="M279.889,11.375c-1.43.174-2.878.349-4.308.541A1.123,1.123,0,0,0,274.5,13a1.1,1.1,0,0,0,1.081,1.081c1.43-.174,2.878-.349,4.308-.541a1.123,1.123,0,0,0,1.081-1.081A1.1,1.1,0,0,0,279.889,11.375Z" transform="translate(-226.618 -9.384)" fill="#fff"/>
        <path id="Caminho_55" data-name="Caminho 55" d="M513.746,2.7a1.082,1.082,0,0,0,0,2.163A1.082,1.082,0,0,0,513.746,2.7Z" transform="translate(-423.274 -2.227)" fill="#fff"/>
        <path id="Caminho_56" data-name="Caminho 56" d="M729.947,101.5a1.082,1.082,0,0,0,0,2.163A1.082,1.082,0,0,0,729.947,101.5Z" transform="translate(-601.766 -83.795)" fill="#fff"/>
        <path id="Caminho_57" data-name="Caminho 57" d="M142.946,580.4a1.082,1.082,0,0,0,0,2.163A1.082,1.082,0,0,0,142.946,580.4Z" transform="translate(-117.145 -479.169)" fill="#fff"/>
        <path id="Caminho_58" data-name="Caminho 58" d="M97.733,358.849l-.541-.541c-.977-.977-2.512.541-1.517,1.517l.541.541C97.192,361.343,98.727,359.826,97.733,358.849Z" transform="translate(-78.716 -295.553)" fill="#fff"/>
        <path id="Caminho_59" data-name="Caminho 59" d="M594.046,392a1.082,1.082,0,0,0,0,2.163A1.082,1.082,0,0,0,594.046,392Z" transform="translate(-489.569 -323.628)" fill="#fff"/>
        <path id="Caminho_60" data-name="Caminho 60" d="M514.287,673.1h-.541a1.082,1.082,0,0,0,0,2.163h.541A1.082,1.082,0,0,0,514.287,673.1Z" transform="translate(-423.274 -555.702)" fill="#fff"/>
        <path id="Caminho_61" data-name="Caminho 61" d="M791.746,392a1.082,1.082,0,0,0,0,2.163A1.082,1.082,0,0,0,791.746,392Z" transform="translate(-652.788 -323.628)" fill="#fff"/>
        <path id="Caminho_62" data-name="Caminho 62" d="M581.646,126.3a1.082,1.082,0,0,0,0,2.163A1.082,1.082,0,0,0,581.646,126.3Z" transform="translate(-479.331 -104.269)" fill="#fff"/>
        <path id="Caminho_63" data-name="Caminho 63" d="M300.546,185a1.082,1.082,0,0,0,0,2.163A1.082,1.082,0,0,0,300.546,185Z" transform="translate(-247.258 -152.731)" fill="#fff"/>
        <path id="Caminho_64" data-name="Caminho 64" d="M327.1,853.547v.541a1.082,1.082,0,0,0,2.163,0v-.541A1.082,1.082,0,0,0,327.1,853.547Z" transform="translate(-270.045 -703.812)" fill="#fff"/>
        <path id="Caminho_65" data-name="Caminho 65" d="M591.622,755.4c-.157-.366-.331-.732-.488-1.1a1.075,1.075,0,0,0-1.482-.384,1.094,1.094,0,0,0-.384,1.482c.157.366.331.733.488,1.1a1.075,1.075,0,0,0,1.483.384A1.1,1.1,0,0,0,591.622,755.4Z" transform="translate(-486.377 -622.301)" fill="#fff"/>
      </g>
      <g id="_32" data-name="32" transform="matrix(0.848, -0.53, 0.53, 0.848, 174.706, 195.564)">
        <path id="Caminho_66" data-name="Caminho 66" d="M136.432,73.295c-.07-.593-.994-.593-.942,0,.471,4.447.959,8.895,1.43,13.342.07.593.994.593.942,0C137.391,82.19,136.9,77.742,136.432,73.295Z" transform="translate(-111.855 -60.135)" fill="#fff"/>
        <path id="Caminho_67" data-name="Caminho 67" d="M154.037,230.164c-.035-.593-.977-.61-.942,0,.227,3.75.471,7.482.7,11.232.035.593.977.61.942,0Q154.369,235.8,154.037,230.164Z" transform="translate(-126.391 -189.638)" fill="#fff"/>
        <path id="Caminho_68" data-name="Caminho 68" d="M168.941,363.064c-.035-.593-.959-.61-.942,0q.34,6.671.7,13.342c.035.593.959.61.942,0Q169.272,369.735,168.941,363.064Z" transform="translate(-138.696 -299.359)" fill="#fff"/>
        <path id="Caminho_69" data-name="Caminho 69" d="M182.032,532.195c-.052-.593-.994-.593-.942,0,.4,4.221.785,8.442,1.186,12.662.052.593.994.593.942,0Q182.616,538.5,182.032,532.195Z" transform="translate(-149.502 -438.997)" fill="#fff"/>
        <path id="Caminho_70" data-name="Caminho 70" d="M196.937,669.064c-.035-.593-.977-.61-.942,0,.227,3.506.453,7.029.663,10.534.035.593.977.61.942,0Q197.286,674.34,196.937,669.064Z" transform="translate(-161.809 -551.99)" fill="#fff"/>
        <path id="Caminho_71" data-name="Caminho 71" d="M205.579,801.686c-.087-.593-.994-.349-.907.244.715,4.674,1.413,9.366,2.128,14.04.087.593.994.349.907-.244Q206.634,808.715,205.579,801.686Z" transform="translate(-168.968 -661.572)" fill="#fff"/>
        <path id="Caminho_72" data-name="Caminho 72" d="M200.732,117.595c-.052-.593-.994-.593-.942,0,.471,4.674.959,9.366,1.43,14.04.052.593.994.593.942,0Q201.456,124.623,200.732,117.595Z" transform="translate(-164.941 -96.708)" fill="#fff"/>
        <path id="Caminho_73" data-name="Caminho 73" d="M217.332,279.695c-.052-.593-.994-.593-.942,0,.436,4.378.889,8.738,1.326,13.116.052.593.994.593.942,0C218.221,288.45,217.768,284.072,217.332,279.695Z" transform="translate(-178.645 -230.536)" fill="#fff"/>
        <path id="Caminho_74" data-name="Caminho 74" d="M230.532,435.395c-.052-.593-.994-.593-.942,0,.453,4.831.907,9.68,1.378,14.511.052.593.994.593.942,0Q231.2,442.659,230.532,435.395Z" transform="translate(-189.543 -359.08)" fill="#fff"/>
        <path id="Caminho_75" data-name="Caminho 75" d="M246.837,596.364c-.035-.593-.977-.61-.942,0,.331,4.517.663,9.052.994,13.569.035.593.977.61.942,0Q247.334,603.157,246.837,596.364Z" transform="translate(-203.006 -491.969)" fill="#fff"/>
        <path id="Caminho_76" data-name="Caminho 76" d="M266.337,754.764c-.035-.593-.977-.61-.942,0,.279,4.378.541,8.738.82,13.116.035.593.977.61.942,0Q266.765,761.313,266.337,754.764Z" transform="translate(-219.105 -622.743)" fill="#fff"/>
        <path id="Caminho_77" data-name="Caminho 77" d="M277.816,905.526c-.558-4.6-1.134-9.209-1.692-13.831-.07-.593-1.012-.593-.942,0,.576,4.639,1.134,9.3,1.709,13.935A7.89,7.89,0,0,1,277.816,905.526Z" transform="translate(-227.183 -735.797)" fill="#fff"/>
        <path id="Caminho_78" data-name="Caminho 78" d="M241.879.286c-.087-.593-.994-.349-.907.244.558,3.907,1.134,7.814,1.692,11.738.087.593.994.349.907-.244Q242.734,6.163,241.879.286Z" transform="translate(-198.937 0.055)" fill="#fff"/>
        <path id="Caminho_79" data-name="Caminho 79" d="M262.379,145.386c-.087-.593-.994-.349-.907.244.645,4.517,1.308,9.034,1.953,13.569.087.593.994.349.907-.244Q263.338,152.179,262.379,145.386Z" transform="translate(-215.862 -119.738)" fill="#fff"/>
        <path id="Caminho_80" data-name="Caminho 80" d="M278.224,285.195c-.07-.593-1.012-.593-.942,0l1.308,11.72c.07.593,1.012.593.942,0Z" transform="translate(-228.916 -235.077)" fill="#fff"/>
        <path id="Caminho_81" data-name="Caminho 81" d="M297.641,446.064c-.017-.593-.959-.61-.942,0,.14,3.75.3,7.482.436,11.232.017.593.959.61.942,0Q297.867,451.7,297.641,446.064Z" transform="translate(-244.949 -367.883)" fill="#fff"/>
        <path id="Caminho_82" data-name="Caminho 82" d="M317.137,601.764c-.035-.593-.977-.61-.942,0,.262,4.378.541,8.738.8,13.116.035.593.977.61.942,0Q317.547,608.313,317.137,601.764Z" transform="translate(-261.045 -496.427)" fill="#fff"/>
        <path id="Caminho_83" data-name="Caminho 83" d="M332.832,778.995c-.052-.593-.994-.593-.942,0,.314,3.279.61,6.558.924,9.837.052.593.994.593.942,0C333.442,785.535,333.128,782.274,332.832,778.995Z" transform="translate(-274.001 -642.753)" fill="#fff"/>
        <path id="Caminho_84" data-name="Caminho 84" d="M316.679,19.186c-.087-.593-.994-.349-.907.244.628,4.221,1.256,8.424,1.884,12.645.087.593.994.349.907-.244Q317.621,25.5,316.679,19.186Z" transform="translate(-260.691 -15.548)" fill="#fff"/>
        <path id="Caminho_85" data-name="Caminho 85" d="M335.737,188.464c-.035-.593-.977-.61-.942,0,.279,3.907.541,7.814.82,11.7.035.593.977.61.942,0C336.278,196.26,336.016,192.353,335.737,188.464Z" transform="translate(-276.401 -155.211)" fill="#fff"/>
        <path id="Caminho_86" data-name="Caminho 86" d="M359.641,352.164c-.035-.593-.959-.61-.942,0,.192,3.593.366,7.168.558,10.761.035.593.959.61.942,0C360.024,359.332,359.832,355.757,359.641,352.164Z" transform="translate(-296.136 -290.36)" fill="#fff"/>
        <path id="Caminho_87" data-name="Caminho 87" d="M381.232,513.195c-.052-.593-.994-.593-.942,0l.942,10.761c.052.593.994.593.942,0Z" transform="translate(-313.96 -423.311)" fill="#fff"/>
        <path id="Caminho_88" data-name="Caminho 88" d="M395.341,658.064c-.017-.593-.959-.61-.942,0,.14,4.988.3,9.994.436,14.982.017.593.959.61.942,0Q395.567,665.563,395.341,658.064Z" transform="translate(-325.609 -542.908)" fill="#fff"/>
        <path id="Caminho_89" data-name="Caminho 89" d="M410.841,829.864c-.035-.593-.959-.61-.942,0q.235,5.154.471,10.29c.035.593.959.61.942,0Q411.076,835.026,410.841,829.864Z" transform="translate(-338.406 -684.744)" fill="#fff"/>
        <path id="Caminho_90" data-name="Caminho 90" d="M56.632,46.195c-.07-.593-.994-.593-.942,0,.471,4.378.924,8.738,1.4,13.116.07.593.994.593.942,0C57.556,54.933,57.1,50.555,56.632,46.195Z" transform="translate(-45.973 -37.761)" fill="#fff"/>
        <path id="Caminho_91" data-name="Caminho 91" d="M77.432,212.695c-.052-.593-.994-.593-.942,0q.942,9.6,1.866,19.2c.052.593.994.593.942,0C78.67,225.479,78.06,219.1,77.432,212.695Z" transform="translate(-63.146 -175.222)" fill="#fff"/>
        <path id="Caminho_92" data-name="Caminho 92" d="M100.032,416.495c-.052-.593-.994-.593-.942,0L100.4,429.61c.052.593.994.593.942,0Z" transform="translate(-81.804 -343.477)" fill="#fff"/>
        <path id="Caminho_93" data-name="Caminho 93" d="M122.724,575.095c-.07-.593-1.012-.593-.942,0,.471,3.907.959,7.8,1.43,11.7.07.593,1.012.593.942,0Q123.448,580.937,122.724,575.095Z" transform="translate(-100.537 -474.415)" fill="#fff"/>
        <path id="Caminho_94" data-name="Caminho 94" d="M142.279,719.686c-.087-.593-.994-.349-.907.244l2.407,15.435c.087.593.994.349.907-.244Z" transform="translate(-116.708 -593.874)" fill="#fff"/>
        <path id="Caminho_95" data-name="Caminho 95" d="M164.032,878.195c-.052-.593-.994-.593-.942,0,.349,4.046.7,8.11,1.029,12.156.052.593.994.593.942,0Q164.538,884.282,164.032,878.195Z" transform="translate(-134.642 -724.651)" fill="#fff"/>
        <path id="Caminho_96" data-name="Caminho 96" d="M.932,118.595c-.07-.593-.994-.593-.942,0,.436,4.064.889,8.128,1.326,12.174.07.593.994.593.942,0C1.8,126.7,1.368,122.659.932,118.595Z" transform="translate(0.012 -97.534)" fill="#fff"/>
        <path id="Caminho_97" data-name="Caminho 97" d="M16.689,263.286c-.087-.593-.977-.349-.907.244l1.674,12.191c.087.593.977.349.907-.244Q17.526,269.408,16.689,263.286Z" transform="translate(-13.024 -217.075)" fill="#fff"/>
        <path id="Caminho_98" data-name="Caminho 98" d="M32.179,427.186c-.087-.593-.994-.349-.907.244l1.779,11.25c.087.593.994.349.907-.244Z" transform="translate(-25.811 -352.389)" fill="#fff"/>
        <path id="Caminho_99" data-name="Caminho 99" d="M48.132,569.595c-.052-.593-.994-.593-.942,0,.471,4.674.942,9.366,1.413,14.04.052.593.994.593.942,0Q48.838,576.624,48.132,569.595Z" transform="translate(-38.956 -469.875)" fill="#fff"/>
        <path id="Caminho_100" data-name="Caminho 100" d="M63.988,730.486c-.087-.593-.977-.349-.907.244.645,4.674,1.273,9.366,1.919,14.04.087.593.977.349.907-.244C65.279,739.852,64.634,735.16,63.988,730.486Z" transform="translate(-52.074 -602.79)" fill="#fff"/>
      </g>
    </g>
  </g>
</svg>
