<svg xmlns="http://www.w3.org/2000/svg" width="23.3" height="19.3" viewBox="0 0 23.3 19.3">
  <g id="_387427_camera_photo_pictures_icon" data-name="387427_camera_photo_pictures_icon" transform="translate(-0.9 -0.4)">
    <circle id="Elipse_26" data-name="Elipse 26" cx="4.6" cy="4.6" r="4.6" transform="translate(7.9 6.3)" fill="#fff"/>
    <path id="Caminho_476" data-name="Caminho 476" d="M20.6,2.2H17l-.6-1A1.6,1.6,0,0,0,15,.4H10a1.6,1.6,0,0,0-1.4.8L8,2.2H4.4A3.543,3.543,0,0,0,.9,5.7V16.2a3.543,3.543,0,0,0,3.5,3.5H20.7a3.543,3.543,0,0,0,3.5-3.5V5.7A3.564,3.564,0,0,0,20.6,2.2ZM12.5,16.8a5.848,5.848,0,0,1-5.9-5.9A5.911,5.911,0,0,1,12.5,5a5.9,5.9,0,0,1,0,11.8ZM19.4,6.7a.9.9,0,1,1,.9-.9A.9.9,0,0,1,19.4,6.7Z" fill="#fff"/>
    <path id="Caminho_477" data-name="Caminho 477" d="M6.4.7H4.7a1,1,0,0,0-1,1H7.4A1.075,1.075,0,0,0,6.4.7Z" fill="#fff"/>
  </g>
</svg>
