<svg xmlns="http://www.w3.org/2000/svg" width="48" height="73" viewBox="0 0 48 73">
  <g id="Grupo_118" data-name="Grupo 118" transform="translate(48 73) rotate(180)">
    <rect id="Retângulo_10" data-name="Retângulo 10" width="48" height="73" fill="none"/>
    <g id="layer2" transform="translate(42.214 47.179) rotate(180)">
      <path id="path5939" d="M10.923.529a2.76,2.76,0,0,0-1.958.8L.492,9.808a.923.923,0,1,0,1.3,1.3l8.475-8.474a.909.909,0,0,1,1.3,0l8.455,8.455a.923.923,0,1,0,1.3-1.3L12.881,1.335A2.761,2.761,0,0,0,10.923.529Zm-6.914,11.1a.924.924,0,0,0-.91.934q0,3.06,0,6.12a2.21,2.21,0,0,0,2.245,2.148h2.1A2.21,2.21,0,0,0,9.694,18.68v-2.3c0-.143.133-.306.4-.306h1.644c.265,0,.4.164.4.306v2.3a2.21,2.21,0,0,0,2.245,2.148h2.1a2.21,2.21,0,0,0,2.245-2.148V12.56a.923.923,0,1,0-1.846,0v6.12c0,.143-.133.306-.4.306h-2.1c-.265,0-.4-.164-.4-.306v-2.3a2.21,2.21,0,0,0-2.245-2.148H10.093a2.21,2.21,0,0,0-2.245,2.148v2.3c0,.143-.133.306-.4.306h-2.1c-.265,0-.4-.164-.4-.306q0-3.06,0-6.12A.923.923,0,0,0,4.009,11.627Z" transform="translate(0)" fill="#fff"/>
    </g>
  </g>
</svg>
