<svg xmlns="http://www.w3.org/2000/svg" width="131.966" height="40.027" viewBox="0 0 131.966 40.027">
  <g id="Grupo_122" data-name="Grupo 122" transform="translate(-160.094 -236)">
    <g id="Grupo_12" data-name="Grupo 12" transform="translate(37.22 -248.337)">
      <path id="Caminho_10" data-name="Caminho 10" d="M168.715,504.351a20.143,20.143,0,1,1,20.143,20.013,20.078,20.078,0,0,1-20.143-20.013Z" fill="#a700ff"/>
      <g id="Grupo_11" data-name="Grupo 11">
        <path id="Caminho_11" data-name="Caminho 11" d="M182.772,495.361h4.114v17.978h-4.114V495.361Z" fill="#fff"/>
        <path id="Caminho_12" data-name="Caminho 12" d="M190.829,495.361h3.943v17.978h-3.943V495.361Z" fill="#fff"/>
      </g>
    </g>
    <path id="Caminho_10-2" data-name="Caminho 10" d="M168.715,498.231A13.983,13.983,0,1,1,182.7,512.124a13.938,13.938,0,0,1-13.983-13.893Z" transform="translate(95.379 -242.217)" fill="#fff"/>
    <g id="Grupo_13" data-name="Grupo 13" transform="translate(-42.947 -324.067)">
      <path id="Caminho_14" data-name="Caminho 14" d="M323.15,576.995l.093.015.1.028.086.044.076.057.068.068.2.259.176.266.155.277.133.284.119.294.093.3.079.306.05.313.033.32.01.323-.007.3-.033.294-.047.3-.065.287-.083.284-.1.28-.119.269-.14.266-.154.251-.177.249-.068.071-.075.065-.09.047-.093.036-.1.014h-.043l-.09-.007-.09-.022-.083-.033-.079-.047-.072-.061-.076-.079-.068-.079-.05-.091-.036-.1-.015-.1v-.1l.019-.1.039-.1.053-.09.155-.227.133-.234.119-.244.093-.248.076-.258.05-.263.029-.27.014-.269-.007-.263-.033-.252-.047-.251-.068-.245-.086-.237-.1-.233-.122-.227-.136-.212-.159-.208-.061-.09-.039-.1-.025-.1,0-.1.018-.1.029-.1.05-.093.072-.086.079-.079.076-.061.082-.05.09-.033.093-.018.1-.007Zm-2.67-1.348.108.015.1.039.093.054.082.075.068.087.05.1.033.1.007.111v7.844l-.007.107-.033.108-.05.1-.068.086-.082.068-.093.062-.083.029-.082.018-.082.007-.1-.007-.093-.029-.093-.043-.082-.058-3.187-2.627h-1.7l-.119-.014-.111-.033-.1-.057-.086-.068-.076-.087-.05-.1-.036-.112-.011-.115v-2.311l.011-.118.036-.108.05-.1.076-.087.086-.068.1-.053.111-.033.119-.01h1.7l3.187-2.635.09-.062.1-.043.108-.021.108,0Zm4.657-.647.093.014.093.025.086.04.076.053.071.065.251.3.234.309.22.32.2.334.18.335.165.352.148.356.125.363.111.366.09.374.072.378.05.388.025.389.014.388-.014.406-.029.4-.057.4-.076.392-.1.389-.115.384-.137.374-.162.37-.176.36-.2.349-.216.338-.234.331-.255.316-.072.068-.079.054-.083.043-.093.029-.093.011h-.028l-.09-.007-.09-.018-.082-.036-.076-.047-.072-.061-.075-.076-.076-.086-.05-.093-.029-.1-.018-.108,0-.1.029-.1.043-.1.061-.09.23-.284.2-.3.191-.3.173-.316.151-.331.133-.331.115-.342.093-.345.072-.355.054-.356.032-.36.011-.363-.011-.345-.028-.349-.047-.342-.068-.338-.083-.335-.108-.327-.122-.32-.14-.312-.158-.309-.172-.3-.191-.287-.208-.277-.223-.27-.062-.075-.043-.091-.029-.09-.014-.1,0-.093.018-.093.033-.09.05-.086.068-.072.072-.079.072-.062.083-.047.086-.036.093-.021.1-.007Z" fill="#a700ff"/>
    </g>
    <g id="Grupo_121" data-name="Grupo 121" transform="translate(-144)">
      <path id="Caminho_478" data-name="Caminho 478" d="M168.715,498.231A13.983,13.983,0,1,1,182.7,512.124a13.938,13.938,0,0,1-13.983-13.893Z" transform="translate(135.379 -242.217)" fill="#fff"/>
      <g id="Grupo_120" data-name="Grupo 120" transform="translate(0.053 -324.067)">
        <path id="Caminho_14-2" data-name="Caminho 14" d="M320.48,575.647l.108.015.1.039.093.054.082.075.068.087.05.1.033.1.007.111v7.844l-.007.107-.033.108-.05.1-.068.086-.082.068-.093.062-.083.029-.082.018-.082.007-.1-.007-.093-.029-.093-.043-.082-.058-3.187-2.627h-1.7l-.119-.014-.111-.033-.1-.057-.086-.068-.076-.087-.05-.1-.036-.112-.011-.115v-2.311l.011-.118.036-.108.05-.1.076-.087.086-.068.1-.053.111-.033.119-.01h1.7l3.187-2.635.09-.062.1-.043.108-.021.108,0Z" fill="#a700ff"/>
      </g>
    </g>
  </g>
</svg>
