<svg xmlns="http://www.w3.org/2000/svg" width="507.986" height="93.929" viewBox="0 0 507.986 93.929">
  <g id="Grupo_539" data-name="Grupo 539" transform="translate(52.791 1.489)" opacity="0.094">
    <g id="Grupo_105" data-name="Grupo 105" transform="matrix(0.259, 0.966, -0.966, 0.259, 193.292, -35.553)">
      <g id="Grupo_103" data-name="Grupo 103" transform="translate(32.968 0)">
        <path id="Caminho_398" data-name="Caminho 398" d="M131.45,59.746s-5.046-3.617-5.461-5.932,1.045-8,1.045-8-2.828,4.719-5.935,5.464-7.994-1.044-7.994-1.044,5.207,2.832,5.463,5.93-1.046,8-1.046,8,3.173-4.908,5.935-5.466S131.45,59.746,131.45,59.746Z" transform="translate(-78.212 -13.711)" fill="#fff"/>
        <path id="Caminho_399" data-name="Caminho 399" d="M159.995,72.411s-2.945-.414-3.633-1.3a14,14,0,0,1-1.333-3.623s-.152,2.628-1.3,3.634A8.516,8.516,0,0,1,150.1,72.45s2.838.044,3.635,1.3a14.743,14.743,0,0,1,1.33,3.623s.253-2.785,1.3-3.632A10.813,10.813,0,0,1,159.995,72.411Z" transform="translate(-84.963 -17.664)" fill="#fff"/>
        <path id="Caminho_400" data-name="Caminho 400" d="M131.4,11.108s-.451-1.45-.191-1.963A7.144,7.144,0,0,1,132.6,7.738a3.256,3.256,0,0,1-1.963.192,4.36,4.36,0,0,1-1.405-1.387s.6,1.322.189,1.964a7.46,7.46,0,0,1-1.383,1.405s1.343-.489,1.966-.189A5.561,5.561,0,0,1,131.4,11.108Z" transform="translate(-80.936 -6.544)" fill="#fff"/>
        <path id="Caminho_401" data-name="Caminho 401" d="M162.491,43.565s-.706-.5-.767-.827a4.059,4.059,0,0,1,.15-1.116s-.395.657-.829.762a2.492,2.492,0,0,1-1.119-.146s.728.4.766.828a4.4,4.4,0,0,1-.15,1.118s.444-.686.83-.764A3.162,3.162,0,0,1,162.491,43.565Z" transform="translate(-86.756 -12.945)" fill="#fff"/>
        <path id="Caminho_402" data-name="Caminho 402" d="M99.308,126.015s-2.945-.413-3.633-1.3a14,14,0,0,1-1.333-3.622s-.148,2.628-1.3,3.635a8.508,8.508,0,0,1-3.622,1.332s2.841.046,3.633,1.3a14.553,14.553,0,0,1,1.333,3.624s.256-2.786,1.3-3.634A10.793,10.793,0,0,1,99.308,126.015Z" transform="translate(-73.889 -27.446)" fill="#fff"/>
        <path id="Caminho_403" data-name="Caminho 403" d="M73.794,102.135s-.45-1.451-.193-1.961a7.278,7.278,0,0,1,1.386-1.407,3.274,3.274,0,0,1-1.963.19,4.355,4.355,0,0,1-1.4-1.386s.6,1.322.19,1.964a7.507,7.507,0,0,1-1.387,1.406s1.345-.491,1.964-.188A5.473,5.473,0,0,1,73.794,102.135Z" transform="translate(-70.423 -23.155)" fill="#fff"/>
        <path id="Caminho_404" data-name="Caminho 404" d="M137.4,92.57s-.451-1.45-.191-1.963a7.18,7.18,0,0,1,1.384-1.408,3.248,3.248,0,0,1-1.962.192,4.332,4.332,0,0,1-1.4-1.384s.6,1.32.186,1.961a7.44,7.44,0,0,1-1.387,1.407s1.351-.487,1.968-.189A5.534,5.534,0,0,1,137.4,92.57Z" transform="translate(-82.029 -21.409)" fill="#fff"/>
        <path id="Caminho_405" data-name="Caminho 405" d="M117.338,104.022s-.7-.506-.764-.829a4,4,0,0,1,.146-1.114s-.392.657-.825.763a2.512,2.512,0,0,1-1.12-.146s.728.392.762.828a4.144,4.144,0,0,1-.147,1.113s.446-.683.831-.761A3.135,3.135,0,0,1,117.338,104.022Z" transform="translate(-78.516 -23.977)" fill="#fff"/>
        <path id="Caminho_406" data-name="Caminho 406" d="M107.168,36.074s-.848.185-1.127.008a4.159,4.159,0,0,1-.729-.856,1.877,1.877,0,0,1,.012,1.126,2.5,2.5,0,0,1-.86.728s.781-.272,1.127-.008a4.31,4.31,0,0,1,.729.858s-.208-.79-.007-1.127A3.127,3.127,0,0,1,107.168,36.074Z" transform="translate(-76.635 -11.778)" fill="#fff"/>
        <path id="Caminho_407" data-name="Caminho 407" d="M95.823,83.446s-.844.184-1.122.011a4.178,4.178,0,0,1-.73-.858,1.853,1.853,0,0,1,.01,1.124,2.44,2.44,0,0,1-.86.73s.783-.274,1.127-.011a4.228,4.228,0,0,1,.728.858s-.208-.788-.007-1.124A3.129,3.129,0,0,1,95.823,83.446Z" transform="translate(-74.565 -20.423)" fill="#fff"/>
      </g>
      <g id="Grupo_104" data-name="Grupo 104" transform="translate(0 104.644)">
        <path id="Caminho_408" data-name="Caminho 408" d="M62.832,193.588s-3.118-5.372-2.545-7.653,4.238-6.86,4.238-6.86-4.513,3.138-7.652,2.542-6.864-4.236-6.864-4.236,3.584,4.723,2.548,7.65-4.24,6.863-4.24,6.863,4.907-3.171,7.652-2.543S62.832,193.588,62.832,193.588Z" transform="translate(-33.421 -142.363)" fill="#fff"/>
        <path id="Caminho_409" data-name="Caminho 409" d="M121.266,220.735s-2.514-1.586-2.778-2.681a14.129,14.129,0,0,1,.275-3.851s-1.216,2.334-2.678,2.779a8.513,8.513,0,0,1-3.855-.275s2.573,1.205,2.779,2.68a14.6,14.6,0,0,1-.273,3.851s1.38-2.434,2.682-2.777A10.787,10.787,0,0,1,121.266,220.735Z" transform="translate(-45.084 -149.082)" fill="#fff"/>
        <path id="Caminho_410" data-name="Caminho 410" d="M120.34,139.6s.186-1.508.634-1.868a7.2,7.2,0,0,1,1.839-.713,3.263,3.263,0,0,1-1.868-.634,4.353,4.353,0,0,1-.714-1.842s0,1.453-.634,1.87a7.387,7.387,0,0,1-1.837.713s1.426.105,1.866.633A5.548,5.548,0,0,1,120.34,139.6Z" transform="translate(-46.093 -134.546)" fill="#fff"/>
        <path id="Caminho_411" data-name="Caminho 411" d="M148,168.181s-.436-.751-.356-1.068a4.111,4.111,0,0,1,.591-.958,1.867,1.867,0,0,1-1.069.356,2.5,2.5,0,0,1-.956-.593s.5.659.354,1.069a4.3,4.3,0,0,1-.592.958s.685-.443,1.069-.356A3.164,3.164,0,0,1,148,168.181Z" transform="translate(-51.24 -140.271)" fill="#fff"/>
        <path id="Caminho_412" data-name="Caminho 412" d="M63.712,259.552s-2.519-1.588-2.779-2.682a14.2,14.2,0,0,1,.274-3.851s-1.217,2.336-2.68,2.78a8.524,8.524,0,0,1-3.853-.276s2.569,1.207,2.78,2.68a14.744,14.744,0,0,1-.273,3.851s1.373-2.434,2.681-2.777A10.8,10.8,0,0,1,63.712,259.552Z" transform="translate(-34.581 -156.165)" fill="#fff"/>
        <path id="Caminho_413" data-name="Caminho 413" d="M52.393,322.33s.184-1.509.632-1.867a7.188,7.188,0,0,1,1.839-.713A3.252,3.252,0,0,1,53,319.115a4.324,4.324,0,0,1-.715-1.839s0,1.449-.635,1.868a7.524,7.524,0,0,1-1.836.712s1.423.106,1.868.635A5.519,5.519,0,0,1,52.393,322.33Z" transform="translate(-33.694 -167.891)" fill="#fff"/>
        <path id="Caminho_414" data-name="Caminho 414" d="M86.149,217.966s.188-1.509.634-1.869a7.23,7.23,0,0,1,1.843-.712,3.276,3.276,0,0,1-1.873-.634,4.385,4.385,0,0,1-.71-1.839s0,1.449-.633,1.868a7.438,7.438,0,0,1-1.84.713s1.427.106,1.868.634A5.524,5.524,0,0,1,86.149,217.966Z" transform="translate(-39.854 -148.846)" fill="#fff"/>
        <path id="Caminho_415" data-name="Caminho 415" d="M32.124,223.7s-.437-.751-.356-1.069a4.087,4.087,0,0,1,.594-.957,1.869,1.869,0,0,1-1.069.353,2.474,2.474,0,0,1-.96-.59s.5.657.356,1.068a4.2,4.2,0,0,1-.593.958s.685-.442,1.066-.356A3.123,3.123,0,0,1,32.124,223.7Z" transform="translate(-30.096 -150.402)" fill="#fff"/>
        <path id="Caminho_416" data-name="Caminho 416" d="M72.813,161.794s-.849-.181-1.033-.455a4.094,4.094,0,0,1-.312-1.08,1.849,1.849,0,0,1-.455,1.029,2.47,2.47,0,0,1-1.079.315s.824.07,1.031.452a4.339,4.339,0,0,1,.31,1.082s.132-.806.455-1.031A3.205,3.205,0,0,1,72.813,161.794Z" transform="translate(-37.366 -139.238)" fill="#fff"/>
        <path id="Caminho_417" data-name="Caminho 417" d="M33.982,165.315s-.848-.181-1.03-.453a4.118,4.118,0,0,1-.312-1.082,1.874,1.874,0,0,1-.452,1.03,2.489,2.489,0,0,1-1.086.313s.827.07,1.033.453a4.293,4.293,0,0,1,.31,1.082s.134-.805.455-1.03A3.11,3.11,0,0,1,33.982,165.315Z" transform="translate(-30.28 -139.881)" fill="#fff"/>
      </g>
    </g>
    <g id="Grupo_538" data-name="Grupo 538" transform="matrix(0.259, 0.966, -0.966, 0.259, 433.292, -35.553)">
      <g id="Grupo_103-2" data-name="Grupo 103" transform="translate(32.968 0)">
        <path id="Caminho_398-2" data-name="Caminho 398" d="M131.45,59.746s-5.046-3.617-5.461-5.932,1.045-8,1.045-8-2.828,4.719-5.935,5.464-7.994-1.044-7.994-1.044,5.207,2.832,5.463,5.93-1.046,8-1.046,8,3.173-4.908,5.935-5.466S131.45,59.746,131.45,59.746Z" transform="translate(-78.212 -13.711)" fill="#fff"/>
        <path id="Caminho_399-2" data-name="Caminho 399" d="M159.995,72.411s-2.945-.414-3.633-1.3a14,14,0,0,1-1.333-3.623s-.152,2.628-1.3,3.634A8.516,8.516,0,0,1,150.1,72.45s2.838.044,3.635,1.3a14.743,14.743,0,0,1,1.33,3.623s.253-2.785,1.3-3.632A10.813,10.813,0,0,1,159.995,72.411Z" transform="translate(-84.963 -17.664)" fill="#fff"/>
        <path id="Caminho_400-2" data-name="Caminho 400" d="M131.4,11.108s-.451-1.45-.191-1.963A7.144,7.144,0,0,1,132.6,7.738a3.256,3.256,0,0,1-1.963.192,4.36,4.36,0,0,1-1.405-1.387s.6,1.322.189,1.964a7.46,7.46,0,0,1-1.383,1.405s1.343-.489,1.966-.189A5.561,5.561,0,0,1,131.4,11.108Z" transform="translate(-80.936 -6.544)" fill="#fff"/>
        <path id="Caminho_401-2" data-name="Caminho 401" d="M162.491,43.565s-.706-.5-.767-.827a4.059,4.059,0,0,1,.15-1.116s-.395.657-.829.762a2.492,2.492,0,0,1-1.119-.146s.728.4.766.828a4.4,4.4,0,0,1-.15,1.118s.444-.686.83-.764A3.162,3.162,0,0,1,162.491,43.565Z" transform="translate(-86.756 -12.945)" fill="#fff"/>
        <path id="Caminho_402-2" data-name="Caminho 402" d="M99.308,126.015s-2.945-.413-3.633-1.3a14,14,0,0,1-1.333-3.622s-.148,2.628-1.3,3.635a8.508,8.508,0,0,1-3.622,1.332s2.841.046,3.633,1.3a14.553,14.553,0,0,1,1.333,3.624s.256-2.786,1.3-3.634A10.793,10.793,0,0,1,99.308,126.015Z" transform="translate(-73.889 -27.446)" fill="#fff"/>
        <path id="Caminho_403-2" data-name="Caminho 403" d="M73.794,102.135s-.45-1.451-.193-1.961a7.278,7.278,0,0,1,1.386-1.407,3.274,3.274,0,0,1-1.963.19,4.355,4.355,0,0,1-1.4-1.386s.6,1.322.19,1.964a7.507,7.507,0,0,1-1.387,1.406s1.345-.491,1.964-.188A5.473,5.473,0,0,1,73.794,102.135Z" transform="translate(-70.423 -23.155)" fill="#fff"/>
        <path id="Caminho_404-2" data-name="Caminho 404" d="M137.4,92.57s-.451-1.45-.191-1.963a7.18,7.18,0,0,1,1.384-1.408,3.248,3.248,0,0,1-1.962.192,4.332,4.332,0,0,1-1.4-1.384s.6,1.32.186,1.961a7.44,7.44,0,0,1-1.387,1.407s1.351-.487,1.968-.189A5.534,5.534,0,0,1,137.4,92.57Z" transform="translate(-82.029 -21.409)" fill="#fff"/>
        <path id="Caminho_405-2" data-name="Caminho 405" d="M117.338,104.022s-.7-.506-.764-.829a4,4,0,0,1,.146-1.114s-.392.657-.825.763a2.512,2.512,0,0,1-1.12-.146s.728.392.762.828a4.144,4.144,0,0,1-.147,1.113s.446-.683.831-.761A3.135,3.135,0,0,1,117.338,104.022Z" transform="translate(-78.516 -23.977)" fill="#fff"/>
        <path id="Caminho_406-2" data-name="Caminho 406" d="M107.168,36.074s-.848.185-1.127.008a4.159,4.159,0,0,1-.729-.856,1.877,1.877,0,0,1,.012,1.126,2.5,2.5,0,0,1-.86.728s.781-.272,1.127-.008a4.31,4.31,0,0,1,.729.858s-.208-.79-.007-1.127A3.127,3.127,0,0,1,107.168,36.074Z" transform="translate(-76.635 -11.778)" fill="#fff"/>
        <path id="Caminho_407-2" data-name="Caminho 407" d="M95.823,83.446s-.844.184-1.122.011a4.178,4.178,0,0,1-.73-.858,1.853,1.853,0,0,1,.01,1.124,2.44,2.44,0,0,1-.86.73s.783-.274,1.127-.011a4.228,4.228,0,0,1,.728.858s-.208-.788-.007-1.124A3.129,3.129,0,0,1,95.823,83.446Z" transform="translate(-74.565 -20.423)" fill="#fff"/>
      </g>
      <g id="Grupo_104-2" data-name="Grupo 104" transform="translate(0 104.644)">
        <path id="Caminho_408-2" data-name="Caminho 408" d="M62.832,193.588s-3.118-5.372-2.545-7.653,4.238-6.86,4.238-6.86-4.513,3.138-7.652,2.542-6.864-4.236-6.864-4.236,3.584,4.723,2.548,7.65-4.24,6.863-4.24,6.863,4.907-3.171,7.652-2.543S62.832,193.588,62.832,193.588Z" transform="translate(-33.421 -142.363)" fill="#fff"/>
        <path id="Caminho_409-2" data-name="Caminho 409" d="M121.266,220.735s-2.514-1.586-2.778-2.681a14.129,14.129,0,0,1,.275-3.851s-1.216,2.334-2.678,2.779a8.513,8.513,0,0,1-3.855-.275s2.573,1.205,2.779,2.68a14.6,14.6,0,0,1-.273,3.851s1.38-2.434,2.682-2.777A10.787,10.787,0,0,1,121.266,220.735Z" transform="translate(-45.084 -149.082)" fill="#fff"/>
        <path id="Caminho_410-2" data-name="Caminho 410" d="M120.34,139.6s.186-1.508.634-1.868a7.2,7.2,0,0,1,1.839-.713,3.263,3.263,0,0,1-1.868-.634,4.353,4.353,0,0,1-.714-1.842s0,1.453-.634,1.87a7.387,7.387,0,0,1-1.837.713s1.426.105,1.866.633A5.548,5.548,0,0,1,120.34,139.6Z" transform="translate(-46.093 -134.546)" fill="#fff"/>
        <path id="Caminho_411-2" data-name="Caminho 411" d="M148,168.181s-.436-.751-.356-1.068a4.111,4.111,0,0,1,.591-.958,1.867,1.867,0,0,1-1.069.356,2.5,2.5,0,0,1-.956-.593s.5.659.354,1.069a4.3,4.3,0,0,1-.592.958s.685-.443,1.069-.356A3.164,3.164,0,0,1,148,168.181Z" transform="translate(-51.24 -140.271)" fill="#fff"/>
        <path id="Caminho_412-2" data-name="Caminho 412" d="M63.712,259.552s-2.519-1.588-2.779-2.682a14.2,14.2,0,0,1,.274-3.851s-1.217,2.336-2.68,2.78a8.524,8.524,0,0,1-3.853-.276s2.569,1.207,2.78,2.68a14.744,14.744,0,0,1-.273,3.851s1.373-2.434,2.681-2.777A10.8,10.8,0,0,1,63.712,259.552Z" transform="translate(-34.581 -156.165)" fill="#fff"/>
        <path id="Caminho_413-2" data-name="Caminho 413" d="M52.393,322.33s.184-1.509.632-1.867a7.188,7.188,0,0,1,1.839-.713A3.252,3.252,0,0,1,53,319.115a4.324,4.324,0,0,1-.715-1.839s0,1.449-.635,1.868a7.524,7.524,0,0,1-1.836.712s1.423.106,1.868.635A5.519,5.519,0,0,1,52.393,322.33Z" transform="translate(-33.694 -167.891)" fill="#fff"/>
        <path id="Caminho_414-2" data-name="Caminho 414" d="M86.149,217.966s.188-1.509.634-1.869a7.23,7.23,0,0,1,1.843-.712,3.276,3.276,0,0,1-1.873-.634,4.385,4.385,0,0,1-.71-1.839s0,1.449-.633,1.868a7.438,7.438,0,0,1-1.84.713s1.427.106,1.868.634A5.524,5.524,0,0,1,86.149,217.966Z" transform="translate(-39.854 -148.846)" fill="#fff"/>
        <path id="Caminho_415-2" data-name="Caminho 415" d="M32.124,223.7s-.437-.751-.356-1.069a4.087,4.087,0,0,1,.594-.957,1.869,1.869,0,0,1-1.069.353,2.474,2.474,0,0,1-.96-.59s.5.657.356,1.068a4.2,4.2,0,0,1-.593.958s.685-.442,1.066-.356A3.123,3.123,0,0,1,32.124,223.7Z" transform="translate(-30.096 -150.402)" fill="#fff"/>
        <path id="Caminho_416-2" data-name="Caminho 416" d="M72.813,161.794s-.849-.181-1.033-.455a4.094,4.094,0,0,1-.312-1.08,1.849,1.849,0,0,1-.455,1.029,2.47,2.47,0,0,1-1.079.315s.824.07,1.031.452a4.339,4.339,0,0,1,.31,1.082s.132-.806.455-1.031A3.205,3.205,0,0,1,72.813,161.794Z" transform="translate(-37.366 -139.238)" fill="#fff"/>
        <path id="Caminho_417-2" data-name="Caminho 417" d="M33.982,165.315s-.848-.181-1.03-.453a4.118,4.118,0,0,1-.312-1.082,1.874,1.874,0,0,1-.452,1.03,2.489,2.489,0,0,1-1.086.313s.827.07,1.033.453a4.293,4.293,0,0,1,.31,1.082s.134-.805.455-1.03A3.11,3.11,0,0,1,33.982,165.315Z" transform="translate(-30.28 -139.881)" fill="#fff"/>
      </g>
    </g>
  </g>
</svg>
