<svg xmlns="http://www.w3.org/2000/svg" width="199.26" height="189.157" viewBox="0 0 199.26 189.157">
  <g id="Grupo_1251" data-name="Grupo 1251" transform="translate(-122 -120.6)">
    <g id="Grupo_1250" data-name="Grupo 1250" transform="translate(122 120.6)" opacity="0.3">
      <path id="Caminho_2422" data-name="Caminho 2422" d="M10.614,132.892a47.207,47.207,0,0,1,4.768-53.835,30.883,30.883,0,0,0,7.153-18.724,58.222,58.222,0,0,1,94.4-43.488A32.043,32.043,0,0,0,143.286,23.2c24.78-4.927,52.452,11.778,53.883,46.683a26.083,26.083,0,0,1-3.084,12.239,32.393,32.393,0,0,0-1.812,23.19,44.807,44.807,0,0,1-35.89,56.6c-12.239,1.987-23.127,8.6-31.789,17.484a45.633,45.633,0,0,1-73.767-11.444,30.963,30.963,0,0,0-16.705-14.75,46.921,46.921,0,0,1-23.508-20.313Z" transform="translate(-4.348 -4.212)" fill="#fff"/>
    </g>
    <g id="_2822463_weather_wish_shooting_star_icon" data-name="2822463_weather_wish_shooting star_icon" transform="translate(145.177 151.681)">
      <path id="Caminho_2401" data-name="Caminho 2401" d="M83.086,80.281a33.341,33.341,0,0,0-5.354-14.805,50.057,50.057,0,0,0,9.441-12.661,2.453,2.453,0,0,0-1.711-3.527,39.414,39.414,0,0,0-15.53.88A42.256,42.256,0,0,0,60.9,36.7a2.459,2.459,0,0,0-3.849.65,42.418,42.418,0,0,0-4.082,15.51,39.781,39.781,0,0,0-15.372,4.1,2.451,2.451,0,0,0-.713,3.858,37.554,37.554,0,0,0,13.4,9.007,40.672,40.672,0,0,0-.808,15.427,2.446,2.446,0,0,0,3.566,1.771,55.244,55.244,0,0,0,12.548-9.4,34.281,34.281,0,0,0,14.887,5.339,2.439,2.439,0,0,0,2.615-2.681Z" transform="translate(48.352 -33.701)" fill="#fff27d"/>
      <g id="Grupo_1244" data-name="Grupo 1244" transform="translate(84.6 21.719)" opacity="0.5">
        <path id="Caminho_2402" data-name="Caminho 2402" d="M41.579,36.869A52.773,52.773,0,0,0,55,45.933a2.7,2.7,0,0,1,1.458,3.222c-1.266,4.26,3.318,6.6,6.635,3.148a2.683,2.683,0,0,1,3.239-.494,50.494,50.494,0,0,0,15.881,5.7,2,2,0,0,0,.314-.043,29.064,29.064,0,0,1,.553,3.423,2.5,2.5,0,0,1-2.77,2.665,34.356,34.356,0,0,1-14.732-5.324,55.107,55.107,0,0,1-12.635,9.442,2.4,2.4,0,0,1-3.479-1.811,40.671,40.671,0,0,1,.807-15.43A37.557,37.557,0,0,1,36.9,41.461a2.48,2.48,0,0,1,.678-3.894,37.214,37.214,0,0,1,3.522-1.54A2.188,2.188,0,0,0,41.579,36.869Z" transform="translate(-36.237 -36.028)" fill="#fff"/>
      </g>
      <path id="Caminho_2403" data-name="Caminho 2403" d="M47.122,46.226a2.46,2.46,0,0,1,3.849-.65,42.255,42.255,0,0,1,9.037,13.473,39.413,39.413,0,0,1,15.53-.88,2.453,2.453,0,0,1,1.711,3.527A66.56,66.56,0,0,1,67.79,75.46C63.7,66.316,55.144,60.09,43.666,57.756,44.134,56.445,46.461,47.475,47.122,46.226Z" transform="translate(58.276 -42.58)" fill="#750000" opacity="0.15"/>
      <path id="Caminho_2404" data-name="Caminho 2404" d="M60.574,35.041a4.843,4.843,0,0,0-.807.068A4.753,4.753,0,0,0,56.322,37.6a41.916,41.916,0,0,0-4.115,14.427,42.663,42.663,0,0,0-14.329,4.193A4.845,4.845,0,0,0,35.3,59.686a4.7,4.7,0,0,0,1.217,4.073,40.59,40.59,0,0,0,12.361,8.8A44.1,44.1,0,0,0,48.5,86.931a4.669,4.669,0,0,0,2.526,3.518,4.846,4.846,0,0,0,4.427-.015,56.591,56.591,0,0,0,11.807-8.552,35.716,35.716,0,0,0,14.329,4.744,4.714,4.714,0,0,0,3.773-1.366A4.8,4.8,0,0,0,86.749,81.4h0a35.491,35.491,0,0,0-4.717-14.255,51.854,51.854,0,0,0,8.563-11.935,4.836,4.836,0,0,0,.018-4.311,4.707,4.707,0,0,0-3.388-2.565,38.089,38.089,0,0,0-14.6.544,42.85,42.85,0,0,0-8.8-12.546A4.738,4.738,0,0,0,60.574,35.041ZM53.3,86.29A35.082,35.082,0,0,1,53.862,71.8a2.332,2.332,0,0,0-1.423-2.819,35.169,35.169,0,0,1-12.523-8.425,35.534,35.534,0,0,1,14.507-4.029,2.335,2.335,0,0,0,2.2-2.08,40.692,40.692,0,0,1,3.826-14.67,37.406,37.406,0,0,1,8.689,12.677A2.345,2.345,0,0,0,71.713,53.8a37.249,37.249,0,0,1,14.662-.877,43.905,43.905,0,0,1-8.93,12.215,2.337,2.337,0,0,0-.315,2.975A31.179,31.179,0,0,1,82.1,81.842h0a.147.147,0,0,1-.071.137,31.973,31.973,0,0,1-13.873-5,2.332,2.332,0,0,0-2.884.326A53.336,53.336,0,0,1,53.3,86.29Zm31.127-4.669Z" transform="translate(47.014 -35.041)" fill="#35456b"/>
      <path id="Caminho_2405" data-name="Caminho 2405" d="M46.5,46.012a2.368,2.368,0,0,0-1.657.677,2.306,2.306,0,0,0-.677,1.658A2.345,2.345,0,0,0,44.847,50a2.415,2.415,0,0,0,3.292,0,2.354,2.354,0,0,0,.677-1.658,2.907,2.907,0,0,0-.025-.466c-.046-.14-.093-.28-.139-.421-.071-.14-.139-.28-.21-.421a4.337,4.337,0,0,0-.3-.35,2.363,2.363,0,0,0-1.635-.677Z" transform="translate(58.949 -20.331)" fill="#35456b"/>
      <path id="Caminho_2406" data-name="Caminho 2406" d="M51.085,44.012a2.41,2.41,0,0,0-1.658.677,2.347,2.347,0,0,0-.677,1.658,2.311,2.311,0,0,0,.162.888,3.466,3.466,0,0,0,.515.77,2.444,2.444,0,0,0,3.315,0,2.688,2.688,0,0,0,.49-.769,2.312,2.312,0,0,0-2.148-3.223Z" transform="translate(65.061 -13.662)" fill="#35456b"/>
      <path id="Caminho_2407" data-name="Caminho 2407" d="M40.064,39.2a2.332,2.332,0,0,0-1.863.923q-.681.9-1.386,1.766a2.334,2.334,0,1,0,3.62,2.948q.759-.93,1.486-1.891A2.335,2.335,0,0,0,40.064,39.2Z" transform="translate(48.434 0.539)" fill="#35456b"/>
      <path id="Caminho_2408" data-name="Caminho 2408" d="M67.569,29.244a2.327,2.327,0,0,0-1.575.612c-1.081.988-2.211,1.952-3.365,2.861a2.335,2.335,0,1,0,2.9,3.664c1.24-.979,2.458-2.017,3.62-3.08a2.335,2.335,0,0,0-1.575-4.057ZM56.494,37.359a2.326,2.326,0,0,0-1.167.313c-1.268.733-2.578,1.429-3.9,2.069a2.334,2.334,0,0,0,2.034,4.2c1.425-.689,2.838-1.439,4.2-2.229a2.335,2.335,0,0,0-1.172-4.356ZM43.932,42.9a2.3,2.3,0,0,0-.7.111c-1.4.441-2.827.838-4.252,1.178a2.334,2.334,0,0,0,1.081,4.541c1.534-.365,3.075-.792,4.58-1.269a2.335,2.335,0,0,0-.7-4.561ZM12.219,44.506a2.335,2.335,0,0,0-.472,4.621c1.552.32,3.13.588,4.687.795a2.334,2.334,0,0,0,.616-4.628c-1.448-.193-2.914-.441-4.354-.74a2.43,2.43,0,0,0-.476-.048Zm18.255,1.078c-.068,0-.137,0-.205.009-1.452.127-2.936.2-4.409.223a2.335,2.335,0,1,0,.068,4.669c1.584-.024,3.183-.1,4.747-.242a2.334,2.334,0,0,0-.2-4.66Z" transform="translate(13.196 18.982)" fill="#35456b"/>
      <path id="Caminho_2409" data-name="Caminho 2409" d="M7.5,30.881a2.335,2.335,0,0,0-.882,4.5q1.118.457,2.259.872a2.335,2.335,0,1,0,1.6-4.386q-1.06-.386-2.1-.808A2.322,2.322,0,0,0,7.5,30.881Z" transform="translate(6.896 29.256)" fill="#35456b"/>
      <path id="Caminho_2410" data-name="Caminho 2410" d="M51.927,33.08a2.338,2.338,0,0,0-2.243,1.694q-.315,1.1-.647,2.2A2.335,2.335,0,1,0,53.5,38.34q.349-1.137.675-2.283a2.34,2.34,0,0,0-2.248-2.978Z" transform="translate(65.306 20.523)" fill="#35456b"/>
      <path id="Caminho_2411" data-name="Caminho 2411" d="M84.092,1.971a2.333,2.333,0,0,0-2.17,1.477Q81.07,5.6,80.139,7.711a2.335,2.335,0,1,0,4.272,1.883q.964-2.19,1.851-4.43a2.337,2.337,0,0,0-2.17-3.194Zm-5.959,12.8A2.335,2.335,0,0,0,76.076,16q-1.1,2.035-2.278,4.017A2.335,2.335,0,1,0,77.816,22.4q1.224-2.062,2.369-4.179a2.334,2.334,0,0,0-2.052-3.445ZM70.687,26.766a2.329,2.329,0,0,0-1.908.987q-1.334,1.888-2.74,3.715a2.335,2.335,0,0,0,3.7,2.845q1.46-1.9,2.85-3.865a2.335,2.335,0,0,0-1.9-3.682ZM61.868,37.788a2.331,2.331,0,0,0-1.733.769q-1.549,1.715-3.16,3.365a2.335,2.335,0,1,0,3.338,3.265q1.679-1.717,3.287-3.5a2.335,2.335,0,0,0-1.733-3.9Zm-10.063,9.9a2.327,2.327,0,0,0-1.537.577q-1.737,1.52-3.534,2.971a2.334,2.334,0,0,0,2.932,3.632q1.871-1.51,3.675-3.087a2.335,2.335,0,0,0-1.537-4.092ZM40.65,56.336a2.331,2.331,0,0,0-1.318.408q-1.9,1.3-3.857,2.533A2.335,2.335,0,1,0,37.96,63.23q2.031-1.277,4.012-2.633a2.335,2.335,0,0,0-1.322-4.261ZM28.555,63.607a2.323,2.323,0,0,0-1.08.267q-2.042,1.069-4.131,2.061a2.334,2.334,0,0,0,2,4.218q2.172-1.029,4.3-2.143a2.335,2.335,0,0,0-1.085-4.4Z" transform="translate(29.375 62.761)" fill="#35456b"/>
      <path id="Caminho_2412" data-name="Caminho 2412" d="M21.891.039a2.328,2.328,0,0,0-.83.154q-1.07.407-2.15.795a2.335,2.335,0,0,0,1.578,4.4q1.122-.4,2.232-.826a2.335,2.335,0,0,0-.83-4.518Z" transform="translate(23.176 132.128)" fill="#35456b"/>
      <path id="Caminho_2413" data-name="Caminho 2413" d="M48.029,31.7a2.337,2.337,0,0,0-2.154,1.435q-.441,1.055-.905,2.1a2.334,2.334,0,1,0,4.268,1.892q.482-1.087.946-2.189A2.339,2.339,0,0,0,48.029,31.7Z" transform="translate(59.748 25.208)" fill="#35456b"/>
      <path id="Caminho_2414" data-name="Caminho 2414" d="M95.507,5.068a2.332,2.332,0,0,0-2.036,1.189Q92.3,8.345,91.025,10.367a2.334,2.334,0,1,0,3.953,2.483q1.33-2.115,2.56-4.3a2.334,2.334,0,0,0-2.031-3.48Zm-8.075,12.24a2.336,2.336,0,0,0-1.858.917q-1.453,1.9-2.991,3.729a2.334,2.334,0,1,0,3.57,3.007q1.611-1.912,3.133-3.9a2.335,2.335,0,0,0-1.854-3.753ZM77.727,28.3a2.328,2.328,0,0,0-1.637.67q-1.707,1.679-3.486,3.275a2.335,2.335,0,1,0,3.119,3.477q1.857-1.667,3.641-3.423a2.334,2.334,0,0,0-1.637-4ZM66.59,37.831a2.321,2.321,0,0,0-1.388.459q-1.922,1.426-3.9,2.762a2.334,2.334,0,0,0,2.608,3.871q2.069-1.394,4.076-2.883a2.335,2.335,0,0,0-1.393-4.21Zm-12.345,7.9a2.315,2.315,0,0,0-1.117.286q-2.1,1.144-4.245,2.192a2.334,2.334,0,1,0,2.043,4.2q2.25-1.094,4.441-2.292a2.334,2.334,0,0,0-1.122-4.383ZM40.928,51.843A2.323,2.323,0,0,0,40.1,52q-2.237.843-4.51,1.581a2.335,2.335,0,0,0,1.445,4.441q2.377-.773,4.71-1.654a2.335,2.335,0,0,0-.823-4.52ZM26.9,56.043a2.327,2.327,0,0,0-.513.057q-2.322.522-4.681.935a2.334,2.334,0,0,0,.8,4.6q2.472-.431,4.9-.978a2.334,2.334,0,0,0-.508-4.612ZM12.419,58.237c-.062,0-.125,0-.189.008q-2.37.19-4.765.27A2.333,2.333,0,0,0,5.21,60.927a2.41,2.41,0,0,0,2.41,2.255q2.5-.084,4.984-.284a2.334,2.334,0,0,0-.185-4.661Z" transform="translate(6.953 62.727)" fill="#35456b"/>
      <path id="Caminho_2415" data-name="Caminho 2415" d="M2.33,5.126a2.335,2.335,0,0,0-.189,4.661q1.193.1,2.38.17A2.334,2.334,0,0,0,4.8,5.3c-.759-.046-1.521-.1-2.28-.163C2.458,5.128,2.394,5.126,2.33,5.126Z" transform="translate(0.001 115.813)" fill="#35456b"/>
      <path id="Caminho_2416" data-name="Caminho 2416" d="M43.233,30.417a2.333,2.333,0,0,0-1.977,1.089q-.609.966-1.243,1.916A2.335,2.335,0,1,0,43.9,36.014q.663-1,1.306-2.017a2.335,2.335,0,0,0-1.972-3.58Z" transform="translate(52.878 29.676)" fill="#35456b"/>
      <path id="Caminho_2417" data-name="Caminho 2417" d="M75.878,13.148a2.337,2.337,0,0,0-1.8.848q-1.426,1.729-2.934,3.381a2.335,2.335,0,1,0,3.452,3.146q1.583-1.737,3.085-3.554a2.335,2.335,0,0,0-1.8-3.821Zm-9.532,9.928a2.317,2.317,0,0,0-1.557.6q-1.665,1.493-3.406,2.9A2.335,2.335,0,0,0,64.319,30.2q1.83-1.481,3.584-3.053a2.334,2.334,0,0,0-1.557-4.073ZM55.432,31.459a2.321,2.321,0,0,0-1.279.383q-1.867,1.226-3.8,2.356a2.335,2.335,0,1,0,2.362,4.029q2.031-1.192,4-2.482a2.335,2.335,0,0,0-1.284-4.286ZM43.386,38.112a2.314,2.314,0,0,0-.969.212q-2.035.93-4.115,1.76a2.335,2.335,0,0,0,1.733,4.336q2.185-.872,4.325-1.851a2.334,2.334,0,0,0-.974-4.457Zm-12.9,4.765a2.317,2.317,0,0,0-.643.091q-2.144.612-4.327,1.116a2.335,2.335,0,1,0,1.049,4.551q2.3-.53,4.56-1.178a2.335,2.335,0,0,0-.638-4.58ZM17.006,45.638a2.377,2.377,0,0,0-.3.018q-2.209.28-4.446.449a2.334,2.334,0,1,0,.351,4.655q2.349-.176,4.683-.472a2.335,2.335,0,0,0-.292-4.651Z" transform="translate(13.487 56.278)" fill="#35456b"/>
      <path id="Caminho_2418" data-name="Caminho 2418" d="M7.5,13.053a2.335,2.335,0,0,0-.121,4.666q1.2.063,2.4.095h.064a2.334,2.334,0,1,0,.059-4.668q-1.135-.03-2.273-.09C7.58,13.054,7.537,13.053,7.5,13.053Z" transform="translate(6.896 89.452)" fill="#35456b"/>
      <path id="Caminho_2419" data-name="Caminho 2419" d="M40.314,33.6a2.332,2.332,0,0,0-1.879.945q-.67.906-1.375,1.792a2.335,2.335,0,1,0,3.661,2.9q.746-.944,1.466-1.913A2.334,2.334,0,0,0,40.314,33.6Z" transform="translate(48.788 19.182)" fill="#35456b"/>
      <path id="Caminho_2420" data-name="Caminho 2420" d="M75.1,21.039a2.329,2.329,0,0,0-1.646.678q-1.59,1.582-3.274,3.063a2.335,2.335,0,0,0,3.087,3.5q1.785-1.573,3.479-3.254A2.335,2.335,0,0,0,75.1,21.039ZM64.427,29.883a2.326,2.326,0,0,0-1.32.41q-1.85,1.272-3.771,2.431a2.335,2.335,0,1,0,2.417,4q2.035-1.231,4-2.58a2.335,2.335,0,0,0-1.325-4.259Zm-12.074,6.8a2.336,2.336,0,0,0-.958.207q-2.042.92-4.14,1.719a2.334,2.334,0,0,0,1.66,4.364q2.226-.846,4.4-1.826a2.335,2.335,0,0,0-.962-4.464ZM39.264,41.214a2.334,2.334,0,0,0-.563.068q-2.172.537-4.382.946a2.335,2.335,0,0,0,.848,4.592q2.346-.433,4.655-1.005a2.335,2.335,0,0,0-.559-4.6ZM7.143,42.232a2.334,2.334,0,0,0-.413,4.632q2.36.427,4.712.707a2.335,2.335,0,0,0,.552-4.637Q9.782,42.67,7.56,42.27a2.28,2.28,0,0,0-.417-.038Zm18.433,1.083c-.048,0-.1,0-.146,0q-2.23.137-4.482.141a2.335,2.335,0,0,0,0,4.669h0q2.39,0,4.76-.15a2.335,2.335,0,0,0-.141-4.664Z" transform="translate(6.421 40.493)" fill="#35456b"/>
      <path id="Caminho_2421" data-name="Caminho 2421" d="M2.333,22.5a2.335,2.335,0,0,0-.746,4.547c.757.256,1.516.5,2.284.738A2.334,2.334,0,1,0,5.24,23.322c-.727-.222-1.445-.456-2.161-.7a2.3,2.3,0,0,0-.746-.124Z" transform="translate(0.001 57.319)" fill="#35456b"/>
    </g>
    <g id="Grupo_1249" data-name="Grupo 1249" transform="translate(138.621 131.253)">
      <g id="Grupo_498" data-name="Grupo 498" transform="translate(151.958 0)">
        <path id="Caminho_1245" data-name="Caminho 1245" d="M965.2,3351.1c-.028-.289.541-.6,1.414-.821a1.05,1.05,0,0,0,.787-.952c.055-.9.25-1.516.54-1.543s.6.541.821,1.414a1.05,1.05,0,0,0,.952.787c.9.054,1.518.25,1.546.539s-.542.6-1.415.823a1.05,1.05,0,0,0-.788.953c-.054.9-.25,1.517-.539,1.544s-.6-.541-.821-1.415a1.05,1.05,0,0,0-.953-.787C965.841,3351.587,965.224,3351.391,965.2,3351.1Z" transform="translate(-965.195 -3347.782)" fill="#fff"/>
      </g>
      <g id="Grupo_499" data-name="Grupo 499" transform="translate(22.769 37.727)">
        <path id="Caminho_1246" data-name="Caminho 1246" d="M3148.475,2681.813c0-.359.736-.672,1.834-.844a1.3,1.3,0,0,0,1.079-1.079c.172-1.1.485-1.834.844-1.834s.672.735.844,1.834a1.3,1.3,0,0,0,1.079,1.079c1.1.172,1.837.485,1.837.844s-.737.674-1.835.845a1.3,1.3,0,0,0-1.08,1.079c-.172,1.1-.485,1.835-.844,1.835s-.671-.736-.844-1.835a1.3,1.3,0,0,0-1.08-1.079C3149.21,2682.487,3148.475,2682.173,3148.475,2681.813Z" transform="translate(-3148.475 -2678.056)" fill="#fff"/>
      </g>
      <g id="Grupo_500" data-name="Grupo 500" transform="translate(45.157 170.169)">
        <path id="Caminho_1247" data-name="Caminho 1247" d="M2751.835,404.5c0-.4.816-.745,2.034-.936a1.437,1.437,0,0,0,1.2-1.2c.191-1.218.538-2.034.936-2.034s.745.816.936,2.034a1.437,1.437,0,0,0,1.2,1.2c1.219.191,2.037.538,2.037.936s-.817.747-2.035.937a1.438,1.438,0,0,0-1.2,1.2c-.191,1.219-.538,2.035-.936,2.035s-.745-.815-.936-2.035a1.437,1.437,0,0,0-1.2-1.2C2752.65,405.247,2751.835,404.9,2751.835,404.5Z" transform="translate(-2751.835 -400.334)" fill="#fff"/>
      </g>
      <g id="Grupo_501" data-name="Grupo 501" transform="translate(9.441 152.437)">
        <ellipse id="Elipse_54" data-name="Elipse 54" cx="1.072" cy="1.072" rx="1.072" ry="1.072" transform="translate(0 0)" fill="#fff"/>
      </g>
      <g id="Grupo_502" data-name="Grupo 502" transform="translate(0 38.22)">
        <circle id="Elipse_55" data-name="Elipse 55" cx="1.272" cy="1.272" r="1.272" transform="translate(3.597 1.798) rotate(135)" fill="#fff"/>
      </g>
      <g id="Grupo_503" data-name="Grupo 503" transform="translate(47.574 6.533)">
        <ellipse id="Elipse_56" data-name="Elipse 56" cx="1.272" cy="1.272" rx="1.272" ry="1.272" transform="translate(0 0)" fill="#fff"/>
      </g>
      <g id="Grupo_504" data-name="Grupo 504" transform="translate(157.095 140.516)">
        <circle id="Elipse_57" data-name="Elipse 57" cx="1.272" cy="1.272" r="1.272" transform="translate(3.597 1.798) rotate(135)" fill="#fff"/>
      </g>
      <g id="Grupo_505" data-name="Grupo 505" transform="translate(31.433 156.46)">
        <ellipse id="Elipse_58" data-name="Elipse 58" cx="1.072" cy="1.072" rx="1.072" ry="1.072" transform="translate(2.58 0.493) rotate(103.283)" fill="#fff"/>
      </g>
      <g id="Grupo_506" data-name="Grupo 506" transform="translate(160.779 167.672)">
        <ellipse id="Elipse_59" data-name="Elipse 59" cx="1.272" cy="1.272" rx="1.272" ry="1.272" transform="translate(3.323 2.35) rotate(157.5)" fill="#fff"/>
      </g>
      <g id="Grupo_507" data-name="Grupo 507" transform="translate(172.167 3.824)">
        <path id="Caminho_1248" data-name="Caminho 1248" d="M682.2,3346.159a1.2,1.2,0,1,1,1.313,1.085A1.2,1.2,0,0,1,682.2,3346.159Z" transform="translate(-682.19 -3344.84)" fill="#fff"/>
      </g>
      <g id="Grupo_508" data-name="Grupo 508" transform="translate(1.471 169.183)">
        <ellipse id="Elipse_60" data-name="Elipse 60" cx="0.552" cy="0.552" rx="0.552" ry="0.552" transform="translate(1.441 1.019) rotate(157.5)" fill="#fff"/>
      </g>
      <g id="Grupo_509" data-name="Grupo 509" transform="translate(25.919 0.224)">
        <ellipse id="Elipse_61" data-name="Elipse 61" cx="0.654" cy="0.654" rx="0.654" ry="0.654" transform="translate(1.501 0.21) rotate(99.217)" fill="#fff"/>
      </g>
      <g id="Grupo_510" data-name="Grupo 510" transform="translate(133.817 169.054)">
        <ellipse id="Elipse_62" data-name="Elipse 62" cx="0.654" cy="0.654" rx="0.654" ry="0.654" transform="translate(1.574 0.301) rotate(103.282)" fill="#fff"/>
      </g>
      <g id="Grupo_511" data-name="Grupo 511" transform="translate(180.789 126.873)">
        <circle id="Elipse_63" data-name="Elipse 63" cx="0.654" cy="0.654" r="0.654" transform="translate(1.85 0.925) rotate(135)" fill="#fff"/>
      </g>
      <g id="Grupo_512" data-name="Grupo 512" transform="translate(168.541 23.805)">
        <ellipse id="Elipse_64" data-name="Elipse 64" cx="0.619" cy="0.619" rx="0.619" ry="0.619" transform="matrix(-0.637, 0.771, -0.771, -0.637, 1.744, 0.789)" fill="#fff"/>
      </g>
      <g id="Grupo_513" data-name="Grupo 513" transform="translate(7.159 17.075)">
        <circle id="Elipse_65" data-name="Elipse 65" cx="0.654" cy="0.654" r="0.654" transform="translate(1.85 0.925) rotate(135)" fill="#fff"/>
      </g>
      <g id="Grupo_514" data-name="Grupo 514" transform="translate(165.262 102.428)">
        <ellipse id="Elipse_66" data-name="Elipse 66" cx="1.205" cy="1.205" rx="1.205" ry="1.205" transform="translate(2.898 0.554) rotate(103.283)" fill="#fff"/>
      </g>
    </g>
  </g>
</svg>
