<svg xmlns="http://www.w3.org/2000/svg" width="192.822" height="189.156" viewBox="0 0 192.822 189.156">
  <g id="Grupo_1252" data-name="Grupo 1252" transform="translate(-118 -544.844)">
    <g id="Grupo_1243" data-name="Grupo 1243" transform="translate(-421.385 155.163)">
      <g id="Grupo_498" data-name="Grupo 498" transform="translate(569.005 572.776)">
        <path id="Caminho_1245" data-name="Caminho 1245" d="M971.256,3350.525c.028.289-.541.6-1.414.821a1.05,1.05,0,0,0-.787.952c-.055.9-.25,1.516-.54,1.543s-.6-.541-.821-1.414a1.05,1.05,0,0,0-.952-.787c-.9-.054-1.518-.25-1.546-.539s.542-.6,1.415-.823a1.05,1.05,0,0,0,.788-.953c.054-.9.25-1.517.539-1.544s.6.541.821,1.415a1.05,1.05,0,0,0,.953.787C970.611,3350.038,971.228,3350.234,971.256,3350.525Z" transform="translate(-965.195 -3347.782)" fill="#fff"/>
      </g>
      <g id="Grupo_499" data-name="Grupo 499" transform="translate(696.739 533.593)">
        <path id="Caminho_1246" data-name="Caminho 1246" d="M3155.992,2681.815c0,.359-.736.672-1.834.844a1.3,1.3,0,0,0-1.079,1.079c-.172,1.1-.485,1.834-.844,1.834s-.672-.735-.844-1.834a1.3,1.3,0,0,0-1.079-1.079c-1.1-.172-1.837-.485-1.837-.844s.737-.674,1.835-.845a1.3,1.3,0,0,0,1.08-1.079c.172-1.1.485-1.835.844-1.835s.671.736.844,1.835a1.3,1.3,0,0,0,1.08,1.079C3155.257,2681.141,3155.992,2681.455,3155.992,2681.815Z" transform="translate(-3148.475 -2678.056)" fill="#fff"/>
      </g>
      <g id="Grupo_500" data-name="Grupo 500" transform="translate(673.533 400.334)">
        <path id="Caminho_1247" data-name="Caminho 1247" d="M2760.169,404.5c0,.4-.816.745-2.034.936a1.437,1.437,0,0,0-1.2,1.2c-.191,1.218-.538,2.034-.936,2.034s-.745-.816-.936-2.034a1.437,1.437,0,0,0-1.2-1.2c-1.219-.191-2.037-.538-2.037-.936s.817-.747,2.035-.937a1.438,1.438,0,0,0,1.2-1.2c.191-1.219.538-2.035.936-2.035s.745.815.936,2.035a1.437,1.437,0,0,0,1.2,1.2C2759.354,403.755,2760.169,404.1,2760.169,404.5Z" transform="translate(-2751.835 -400.334)" fill="#fff"/>
      </g>
      <g id="Grupo_501" data-name="Grupo 501" transform="translate(715.438 424.255)">
        <circle id="Elipse_54" data-name="Elipse 54" cx="1.072" cy="1.072" r="1.072" transform="translate(0 0)" fill="#fff"/>
      </g>
      <g id="Grupo_502" data-name="Grupo 502" transform="translate(723.427 537.02)">
        <circle id="Elipse_55" data-name="Elipse 55" cx="1.272" cy="1.272" r="1.272" transform="translate(0 1.798) rotate(-45)" fill="#fff"/>
      </g>
      <g id="Grupo_503" data-name="Grupo 503" transform="translate(676.907 569.761)">
        <circle id="Elipse_56" data-name="Elipse 56" cx="1.272" cy="1.272" r="1.272" transform="translate(0)" fill="#fff"/>
      </g>
      <g id="Grupo_504" data-name="Grupo 504" transform="translate(566.332 434.725)">
        <circle id="Elipse_57" data-name="Elipse 57" cx="1.272" cy="1.272" r="1.272" transform="translate(0 1.798) rotate(-45)" fill="#fff"/>
      </g>
      <g id="Grupo_505" data-name="Grupo 505" transform="translate(693.011 419.797)">
        <circle id="Elipse_58" data-name="Elipse 58" cx="1.072" cy="1.072" r="1.072" transform="translate(0 2.087) rotate(-76.717)" fill="#fff"/>
      </g>
      <g id="Grupo_506" data-name="Grupo 506" transform="translate(562.922 407.842)">
        <circle id="Elipse_59" data-name="Elipse 59" cx="1.272" cy="1.272" r="1.272" transform="matrix(0.924, -0.383, 0.383, 0.924, 0, 0.973)" fill="#fff"/>
      </g>
      <g id="Grupo_507" data-name="Grupo 507" transform="translate(552.447 572.604)">
        <path id="Caminho_1248" data-name="Caminho 1248" d="M684.594,3345.931a1.2,1.2,0,1,1-1.313-1.085A1.2,1.2,0,0,1,684.594,3345.931Z" transform="translate(-682.19 -3344.841)" fill="#fff"/>
      </g>
      <g id="Grupo_508" data-name="Grupo 508" transform="translate(724.112 408.213)">
        <circle id="Elipse_60" data-name="Elipse 60" cx="0.552" cy="0.552" r="0.552" transform="translate(0 0.422) rotate(-22.5)" fill="#fff"/>
      </g>
      <g id="Grupo_509" data-name="Grupo 509" transform="translate(699.605 577.113)">
        <circle id="Elipse_61" data-name="Elipse 61" cx="0.654" cy="0.654" r="0.654" transform="translate(0 1.291) rotate(-80.783)" fill="#fff"/>
      </g>
      <g id="Grupo_510" data-name="Grupo 510" transform="translate(591.634 408.21)">
        <circle id="Elipse_62" data-name="Elipse 62" cx="0.654" cy="0.654" r="0.654" transform="matrix(0.23, -0.973, 0.973, 0.23, 0, 1.273)" fill="#fff"/>
      </g>
      <g id="Grupo_511" data-name="Grupo 511" transform="translate(544.385 450.115)">
        <circle id="Elipse_63" data-name="Elipse 63" cx="0.654" cy="0.654" r="0.654" transform="translate(0 0.925) rotate(-45)" fill="#fff"/>
      </g>
      <g id="Grupo_512" data-name="Grupo 512" transform="translate(556.738 553.288)">
        <circle id="Elipse_64" data-name="Elipse 64" cx="0.619" cy="0.619" r="0.619" transform="translate(0 0.955) rotate(-50.442)" fill="#fff"/>
      </g>
      <g id="Grupo_513" data-name="Grupo 513" transform="translate(718.015 559.913)">
        <circle id="Elipse_65" data-name="Elipse 65" cx="0.654" cy="0.654" r="0.654" transform="translate(0 0.925) rotate(-45)" fill="#fff"/>
      </g>
      <g id="Grupo_514" data-name="Grupo 514" transform="translate(558.863 473.511)">
        <circle id="Elipse_66" data-name="Elipse 66" cx="1.205" cy="1.205" r="1.205" transform="translate(0 2.345) rotate(-76.718)" fill="#fff"/>
      </g>
    </g>
    <g id="_3474247_rocket_saturn_space_icon" data-name="3474247_rocket_saturn_space_icon" transform="translate(113.652 540.632)">
      <g id="Grupo_1245" data-name="Grupo 1245" transform="translate(4.347 4.212)" opacity="0.3">
        <path id="Caminho_2422" data-name="Caminho 2422" d="M10.614,64.688a47.207,47.207,0,0,0,4.768,53.835,30.883,30.883,0,0,1,7.153,18.724,58.222,58.222,0,0,0,94.4,43.488,32.044,32.044,0,0,1,26.353-6.358c24.78,4.927,52.452-11.778,53.883-46.683a26.083,26.083,0,0,0-3.084-12.239,32.393,32.393,0,0,1-1.812-23.19,44.807,44.807,0,0,0-35.89-56.6c-12.239-1.987-23.127-8.6-31.789-17.484A45.633,45.633,0,0,0,50.827,29.624a30.963,30.963,0,0,1-16.705,14.75A46.921,46.921,0,0,0,10.614,64.688Z" transform="translate(-4.347 -4.212)" fill="#fff"/>
      </g>
      <circle id="Elipse_117" data-name="Elipse 117" cx="59.446" cy="59.446" r="59.446" transform="translate(47.839 49.572)" fill="#ff99b1"/>
      <path id="Caminho_2427" data-name="Caminho 2427" d="M36.584,97.083a59.446,59.446,0,0,1,99.008-44.346,59.43,59.43,0,1,0-83.908,83.844,59.223,59.223,0,0,1-15.1-39.5Z" transform="translate(16.023 16.703)" fill="#fff" opacity="0.3"/>
      <path id="Caminho_2428" data-name="Caminho 2428" d="M125.078,41.26A59.446,59.446,0,0,1,38.23,120.733,59.446,59.446,0,1,0,125.078,41.26Z" transform="translate(19.973 21.838)" fill="#750000" opacity="0.15"/>
      <g id="Grupo_1246" data-name="Grupo 1246" transform="translate(54.655 56.359)" opacity="0.7">
        <path id="Caminho_2429" data-name="Caminho 2429" d="M69.38,70.367c20.361-20.345,43.79-30.947,56.664-26.639-18.2-12.716-47.684-7.025-69.03,14.305S29.993,108.9,42.709,127.063C38.433,114.22,49.035,90.791,69.38,70.367Z" transform="translate(-35.998 -37.02)" fill="#fedbc1"/>
        <ellipse id="Elipse_118" data-name="Elipse 118" cx="59.446" cy="8.742" rx="59.446" ry="8.742" transform="translate(4.418 88.504) rotate(-45)" fill="#fedbc1"/>
      </g>
      <g id="Grupo_1247" data-name="Grupo 1247" transform="translate(70.108 71.538)" opacity="0.4">
        <path id="Caminho_2430" data-name="Caminho 2430" d="M102.368,103.25c-20.345,20.3-43.774,30.963-56.648,26.655,18.2,12.716,47.684,7.041,69.03-14.305s27.021-50.863,14.305-69.03C133.331,59.476,122.729,82.905,102.368,103.25Z" transform="translate(-45.72 -46.57)" fill="#fedbc1"/>
      </g>
      <path id="Caminho_2431" data-name="Caminho 2431" d="M91.745,153.821a61.035,61.035,0,1,1,61.035-61.035,61.035,61.035,0,0,1-61.035,61.035Zm0-118.892A57.856,57.856,0,1,0,149.6,92.785,57.856,57.856,0,0,0,91.745,34.929Z" transform="translate(15.54 16.233)" fill="#35456b"/>
      <circle id="Elipse_119" data-name="Elipse 119" cx="24.875" cy="24.875" r="24.875" transform="translate(64.942 65.085)" fill="#fff" opacity="0.3"/>
      <path id="Caminho_2432" data-name="Caminho 2432" d="M159.536,31.331c-5.039-5.023-18.724-.3-36.081,11.126l8.138,5.992c4.975-1.733,8.71-1.8,10.665.159,6.564,6.549-9.33,33.124-35.6,59.351s-52.8,42.168-59.366,35.62c-2.035-2.035-1.876-6.008,0-11.3l-5.627-8.392c-11.841,17.786-16.817,31.789-11.7,36.955,8.933,8.949,45.173-12.716,80.935-48.558S168.468,40.279,159.536,31.331Z" transform="translate(13.919 14.808)" fill="#ffefd1"/>
      <path id="Caminho_2433" data-name="Caminho 2433" d="M159.494,31.309a7.55,7.55,0,0,0-4.943-1.939c.445,6.469-3.958,16.975-12.032,29.532-3.91,11.683-17.325,30.438-35.906,49.035s-37.3,32.012-49.051,35.906c-12.557,8.074-23.047,12.477-29.532,12.032a7.407,7.407,0,0,0,1.955,4.943c8.933,8.949,45.173-12.716,80.935-48.558S168.427,40.258,159.494,31.309Z" transform="translate(13.96 14.83)" fill="#750000" opacity="0.2"/>
      <path id="Caminho_2434" data-name="Caminho 2434" d="M36.507,165.026a9.537,9.537,0,0,1-6.994-2.48c-7.55-7.55,3.974-27.657,11.508-38.974a1.594,1.594,0,1,1,2.654,1.764C32.1,142.679,27.543,156.078,31.77,160.306c3.64,3.656,14.305.747,28.467-7.757,15.179-9.108,33.013-23.6,50.227-40.8C148.517,73.6,166.3,40.333,159.023,33.053c-4.164-4.164-17.357.254-34.412,11.539a1.589,1.589,0,0,1-1.748-2.639c11.126-7.375,30.931-18.629,38.4-11.126C172.1,41.652,145.083,81.691,112.706,114c-17.389,17.389-35.445,32.059-50.863,41.326C53.641,160.147,43.691,165.026,36.507,165.026Z" transform="translate(13.383 14.23)" fill="#35456b"/>
      <path id="Caminho_2435" data-name="Caminho 2435" d="M45.525,140.589a7.28,7.28,0,0,1-5.388-1.939c-2.464-2.448-2.575-6.819-.318-12.954a1.592,1.592,0,0,1,2.988,1.1c-1.748,4.768-1.891,8.154-.429,9.537,1.955,1.955,8.329,1.462,20.361-5.754,11.126-6.66,24.16-17.262,36.748-29.866s23.206-25.495,29.866-36.621c7.216-12.032,7.693-18.406,5.754-20.361-1.319-1.3-4.276-1.319-8.313,0a1.589,1.589,0,1,1-.97-3.02c5.388-1.733,9.267-1.462,11.524.795,4.768,4.768-.223,15.895-5.277,24.239-6.771,11.253-17.564,24.525-30.343,37.3s-26.035,23.54-37.352,30.343C58.352,137,50.993,140.589,45.525,140.589Z" transform="translate(19.957 20.849)" fill="#35456b"/>
      <path id="Caminho_2436" data-name="Caminho 2436" d="M98.062,46.779a1.589,1.589,0,0,1-1.049-.4A57.427,57.427,0,0,0,86.919,39.34a1.6,1.6,0,1,1,1.589-2.782,61.449,61.449,0,0,1,10.649,7.423,1.589,1.589,0,0,1-1.049,2.8Z" transform="translate(48.197 18.942)" fill="#35456b"/>
      <path id="Caminho_2437" data-name="Caminho 2437" d="M43.884,100.316a1.59,1.59,0,0,1-1.192-.556A61.623,61.623,0,0,1,35.7,89.889,1.6,1.6,0,1,1,38.48,88.3a57.761,57.761,0,0,0,6.612,9.426,1.547,1.547,0,0,1-1.208,2.591Z" transform="translate(18.356 49.09)" fill="#35456b"/>
      <path id="Caminho_2438" data-name="Caminho 2438" d="M29.005,46.13h0c-6.358,5.054-10.792,12.3-11.349,18.692l-.827,9.187,9.187-.827c6.358-.556,13.638-4.959,18.692-11.349h0Z" transform="translate(7.358 24.709)" fill="#ff9797"/>
      <path id="Caminho_2439" data-name="Caminho 2439" d="M30.627,48.33a25.972,25.972,0,0,0-5.293,4.117c-5.436,5.436-4.991,14.687-4.991,14.687s9.251.445,14.687-4.991a25.972,25.972,0,0,0,4.117-5.293Z" transform="translate(9.424 26.006)" fill="#fff27d"/>
      <path id="Caminho_2440" data-name="Caminho 2440" d="M30.094,49.61a13.415,13.415,0,0,0-2.766,2.209c-2.829,2.829-2.607,7.661-2.607,7.661s4.768.223,7.661-2.607a13.415,13.415,0,0,0,2.146-2.766Z" transform="translate(12.007 26.76)" fill="#fff"/>
      <path id="Caminho_2441" data-name="Caminho 2441" d="M36.077,41.547l8.106-9.108c-5.929-2.1-11.937-1.415-15.895,2.114l-7.439,6.5c-1.287,1.113.366,3.64,2.13,3.179a31.106,31.106,0,0,1,12.541-.668,2.734,2.734,0,0,1,.556-2.019Z" transform="translate(9.457 15.941)" fill="#c9c1f5"/>
      <path id="Caminho_2442" data-name="Caminho 2442" d="M21.943,44.28,28.221,38.8a14.973,14.973,0,0,1,12.938-2.909L44.2,32.439c-5.929-2.1-11.937-1.415-15.895,2.114l-7.439,6.5C19.781,41.976,20.64,43.819,21.943,44.28Z" transform="translate(9.445 15.941)" fill="#fff" opacity="0.5"/>
      <path id="Caminho_2443" data-name="Caminho 2443" d="M50.759,61.085c3.529-4.037,4.212-10.045,2.114-15.895L43.829,53.3a2.734,2.734,0,0,1-2.146.636,31.185,31.185,0,0,1-.668,12.557c-.4,1.748,2.13,3.4,3.179,2.114Z" transform="translate(21.59 24.155)" fill="#c9c1f5"/>
      <path id="Caminho_2444" data-name="Caminho 2444" d="M52.8,45.14l-3.56,3.179a15.052,15.052,0,0,1-2.877,13.208L41.09,67.583c.556,1.192,2.241,1.955,3.1.97l6.5-7.439C54.219,57.077,54.9,51.069,52.8,45.14Z" transform="translate(21.658 24.126)" fill="#fff" opacity="0.5"/>
      <path id="Caminho_2445" data-name="Caminho 2445" d="M42.371,44.752h0C38.1,39.745,35.87,34.516,37.6,32.72h0L30.45,40.667c-1.78,1.8.254,6.819,4.292,11.635Z" transform="translate(15.005 16.804)" fill="#9eb2cc"/>
      <path id="Caminho_2446" data-name="Caminho 2446" d="M35.45,50.369c4.768,4.037,9.839,6.072,11.635,4.292l7.947-7.153h0C53.236,49.32,48.007,47.1,43,42.74Z" transform="translate(18.334 22.711)" fill="#9eb2cc"/>
      <path id="Caminho_2447" data-name="Caminho 2447" d="M35.45,50.369c4.768,4.037,9.839,6.072,11.635,4.292l7.947-7.153h0C53.236,49.32,48.007,47.1,43,42.74Z" transform="translate(18.334 22.711)" fill="#9eb2cc"/>
      <path id="Caminho_2448" data-name="Caminho 2448" d="M81.612,16.433a44.743,44.743,0,0,0-30.359,9.394,58.206,58.206,0,0,0-8.17,7.534l-8.059,9.012h0c-1.812,1.8.413,7.025,4.768,12.032h0l3.338-3.322a2.8,2.8,0,1,1,3.958,3.958l-3.322,3.338C48.774,62.654,54,64.88,55.8,63.147h0l9.012-8.059a58.206,58.206,0,0,0,7.534-8.17,44.743,44.743,0,0,0,9.267-30.486Z" transform="translate(17.71 7.151)" fill="#eef6ff"/>
      <path id="Caminho_2449" data-name="Caminho 2449" d="M59.547,26.477a15.561,15.561,0,0,0,8.488,4.768,41.581,41.581,0,0,0,1.589-14.814A41.58,41.58,0,0,0,54.81,18.021,15.561,15.561,0,0,0,59.547,26.477Z" transform="translate(29.746 7.137)" fill="#c9c1f5"/>
      <path id="Caminho_2450" data-name="Caminho 2450" d="M68.184,17.211l.985-.811h0l-1.462.3-.7.175-.795.207c-.334.079-.652.191-.985.286l-.525.159-1.16.381-.334.111-1.319.493-.191.079-1.431.588h-.1c-.493.207-1,.429-1.494.668h0l-1.589.747h0c-.525.27-1.049.588-1.589.874a19.551,19.551,0,0,0,2.972,4.18L60.38,23.9h0l1.208-1.081h0l1.16-1.033h0l1.081-.938.143-.127.97-.842.238-.207.842-.715.366-.318.683-.572.54-.445Z" transform="translate(30.153 7.184)" fill="#fff" opacity="0.5"/>
      <path id="Caminho_2451" data-name="Caminho 2451" d="M64.1,16.4Z" transform="translate(35.222 7.184)" fill="#fff" opacity="0.75"/>
      <path id="Caminho_2452" data-name="Caminho 2452" d="M67.217,19.63a72.512,72.512,0,0,0-12.43,8.535,101.483,101.483,0,0,0-7.947,7.677l-8.265,8.806L35.65,47.827A32.6,32.6,0,0,0,39,52.484h0l4.768-2.623,8.329-8.6c2.607-2.639,5.245-5.261,7.947-7.82,3.545-3.465,6.962-6.708,10.157-9.632a19.551,19.551,0,0,1-2.988-4.18Z" transform="translate(18.452 9.088)" fill="#fff" opacity="0.75"/>
      <g id="Grupo_1248" data-name="Grupo 1248" transform="translate(48.589 56.9)" opacity="0.5">
        <path id="Caminho_2453" data-name="Caminho 2453" d="M40.969,42.017h0a32.6,32.6,0,0,1-3.354-4.657l-4.387,4.768c-1.589,1.589-1.287,4.609.366,7.359Z" transform="translate(-32.182 -37.36)" fill="#fff"/>
      </g>
      <path id="Caminho_2454" data-name="Caminho 2454" d="M71.94,46.818a47,47,0,0,0,8.329-17.484h0c.143-.6.27-1.192.4-1.8v-.111c.111-.572.207-1.144.3-1.717a1.224,1.224,0,0,1,0-.238c.079-.54.143-1.065.207-1.589a3.913,3.913,0,0,1,0-.413c0-.477.1-.954.111-1.431V18.271a10.705,10.705,0,0,0-.111-1.891h0a6.98,6.98,0,0,1-.3,1.478,4.071,4.071,0,0,1-.175.731,7.851,7.851,0,0,1-.207.763c-.079.254-.191.668-.286.985s-.1.35-.159.525-.254.779-.381,1.16a2.734,2.734,0,0,0-.111.334c-.159.445-.334.874-.493,1.319l-.079.191c-.191.477-.381.954-.588,1.431v.1c-.223.493-.445,1-.683,1.494h0A71.064,71.064,0,0,1,67.522,42.431a101.493,101.493,0,0,1-7.677,7.947l-8.806,8.265-7.8,7.312c-1.8,1.8-5.372,1.208-8.345-1.017l.811.811c4.768,4.053,9.823,6.088,11.619,4.307L55.267,62.9l9.012-8.074A58.1,58.1,0,0,0,71.94,46.818Z" transform="translate(18.004 7.173)" fill="#2c4b75" opacity="0.2"/>
      <circle id="Elipse_120" data-name="Elipse 120" cx="5.579" cy="5.579" r="5.579" transform="translate(72.969 38.78)" fill="#96d7ff"/>
      <path id="Caminho_2455" data-name="Caminho 2455" d="M53.057,29.984a5.6,5.6,0,0,1,5.166,3.5,5.738,5.738,0,0,0,.413-2.1,5.579,5.579,0,0,0-11.126,0,5.738,5.738,0,0,0,.413,2.1,5.579,5.579,0,0,1,5.134-3.5Z" transform="translate(25.443 12.976)" fill="#2c4b75" opacity="0.2"/>
      <path id="Caminho_2456" data-name="Caminho 2456" d="M53.065,26a5.563,5.563,0,0,0-3.544,9.855l7.8-7.82A5.547,5.547,0,0,0,53.065,26Z" transform="translate(25.435 12.843)" fill="#fff" opacity="0.5"/>
      <path id="Caminho_2457" data-name="Caminho 2457" d="M17.422,76.185a1.589,1.589,0,0,1-1.589-1.733l.811-9.187c.6-6.851,5.182-14.448,11.953-19.789a1.59,1.59,0,0,1,1.971,2.5c-6.008,4.768-10.236,11.651-10.761,17.579l-.636,7.3,7.28-.652c5.929-.525,12.827-4.768,17.579-10.761a1.6,1.6,0,0,1,2.527,1.971c-5.356,6.755-12.97,11.349-19.8,11.953l-9.187.811Z" transform="translate(6.766 24.123)" fill="#35456b"/>
      <path id="Caminho_2458" data-name="Caminho 2458" d="M23.13,46.565a3.894,3.894,0,0,1-3.386-2.209,3.179,3.179,0,0,1,.636-3.862l7.439-6.5c4.4-3.846,10.967-4.768,17.484-2.416a1.589,1.589,0,0,1,.652,2.559l-8.09,9.044h0c-.111.1-.207.4-.175.938A1.589,1.589,0,0,1,35.8,45.707a29.2,29.2,0,0,0-11.905.668,3.655,3.655,0,0,1-.763.191Zm-.6-3.783a1,1,0,0,0,.334.477.477.477,0,0,0,.3.127,34.968,34.968,0,0,1,11.54-.954,3.624,3.624,0,0,1,.827-1.4L41.886,33.9a13.606,13.606,0,0,0-11.969,2.48Zm14.162-.668Z" transform="translate(8.846 15.373)" fill="#35456b"/>
      <path id="Caminho_2459" data-name="Caminho 2459" d="M43.835,71.19a3.576,3.576,0,0,1-1.589-.413,3.767,3.767,0,0,1-2.225-4.1,29.135,29.135,0,0,0,.668-11.889,1.612,1.612,0,0,1,1.637-1.907c.54,0,.842,0,.938-.175l9.108-8.154a1.589,1.589,0,0,1,2.559.652c2.337,6.58,1.431,13.145-2.416,17.484h0l-6.5,7.439a2.861,2.861,0,0,1-2.178,1.065Zm.27-15.354a35.334,35.334,0,0,1-.954,11.524.509.509,0,0,0,.127.3,1,1,0,0,0,.477.334l6.358-7.327a13.558,13.558,0,0,0,2.527-11.985l-7.168,6.358A3.37,3.37,0,0,1,44.105,55.836Zm7.248,5.881Z" transform="translate(20.996 23.539)" fill="#35456b"/>
      <path id="Caminho_2460" data-name="Caminho 2460" d="M35.428,54.434a1.59,1.59,0,0,1-1.208-.556c-3.8-4.5-7.168-10.808-4.212-13.765l6.978-7.788.079-.1h0a1.613,1.613,0,1,1,2.3,2.257h0c-.525.62.111,4.371,4.768,9.871a1.589,1.589,0,0,1-2.352,2.035,27.355,27.355,0,0,1-5.261-8.71l-4.276,4.673c-.747.747.159,4.594,4.323,9.537a1.509,1.509,0,0,1-1.144,2.543Z" transform="translate(14.462 16.198)" fill="#35456b"/>
      <path id="Caminho_2461" data-name="Caminho 2461" d="M45.828,57.488c-3.179,0-7.486-2.559-10.808-5.356A1.59,1.59,0,1,1,37.07,49.7c4.943,4.164,8.79,5.07,9.537,4.387l4.768-4.244a27.355,27.355,0,0,1-8.71-5.261,1.573,1.573,0,0,1,1.955-2.464c5.5,4.673,9.251,5.325,9.871,4.768h0a1.592,1.592,0,1,1,2.193,2.3h0l-.1.1-7.868,7.137a3.942,3.942,0,0,1-2.893,1.065Z" transform="translate(17.747 22.157)" fill="#35456b"/>
      <path id="Caminho_2462" data-name="Caminho 2462" d="M54.47,65.887c-3.306,0-7.8-2.75-11.269-5.706a1.6,1.6,0,0,1,2.05-2.464c5.563,4.768,9.33,5.341,9.886,4.768l.143-.127,8.949-7.947a56.76,56.76,0,0,0,7.327-7.947,43.265,43.265,0,0,0,9.155-27.959,43.376,43.376,0,0,0-27.959,9.171A56.759,56.759,0,0,0,44.806,35l-7.947,8.949-.127.127c-.556.572,0,4.339,4.768,9.9a1.589,1.589,0,0,1-2.368,2.05c-3.958-4.625-7.534-11.126-4.768-14.1h0l8.074-9.012a60.4,60.4,0,0,1,8.376-7.741,46.094,46.094,0,0,1,31.519-9.743A1.589,1.589,0,0,1,83.8,16.9a46.094,46.094,0,0,1-9.7,31.5,61.306,61.306,0,0,1-7.741,8.376l-9.012,8.074h0A3.99,3.99,0,0,1,54.47,65.887Z" transform="translate(17.116 6.557)" fill="#35456b"/>
      <path id="Caminho_2463" data-name="Caminho 2463" d="M68.662,33.434h-.207a17.007,17.007,0,0,1-9.441-5.261,17.055,17.055,0,0,1-5.261-9.441A1.589,1.589,0,0,1,54.9,17.047a43.3,43.3,0,0,1,15.386-1.589,1.589,1.589,0,0,1,1.462,1.462,43.3,43.3,0,0,1-1.589,15.386A1.589,1.589,0,0,1,68.662,33.434ZM57.234,19.717A16.26,16.26,0,0,0,61.3,25.932h0a16.022,16.022,0,0,0,6.215,4.053,40.372,40.372,0,0,0,1.192-11.46,40.484,40.484,0,0,0-11.476,1.192Z" transform="translate(29.118 6.554)" fill="#35456b"/>
      <path id="Caminho_2464" data-name="Caminho 2464" d="M53.658,39.317a7.168,7.168,0,1,1,7.168-7.168A7.168,7.168,0,0,1,53.658,39.317Zm0-11.126a3.99,3.99,0,1,0,3.99,3.99,3.99,3.99,0,0,0-3.99-3.99Z" transform="translate(24.842 12.242)" fill="#35456b"/>
      <path id="Caminho_2465" data-name="Caminho 2465" d="M49.733,38.527h0a4.021,4.021,0,0,0-5.69,0L31.438,51.1a4.037,4.037,0,0,0,0,5.706h0a4.053,4.053,0,0,0,5.69,0L49.7,44.234a4.021,4.021,0,0,0,.032-5.706Z" transform="translate(15.273 19.532)" fill="#c9c1f5"/>
      <path id="Caminho_2466" data-name="Caminho 2466" d="M46.017,38.527a4.021,4.021,0,0,0-5.69,0L36.56,42.279a4.021,4.021,0,1,1,5.706,5.643l3.751-3.751a4.021,4.021,0,0,0,0-5.643Z" transform="translate(18.988 19.532)" fill="#fff" opacity="0.5"/>
      <path id="Caminho_2467" data-name="Caminho 2467" d="M34.87,60.134A5.627,5.627,0,0,1,30.9,50.6L43.469,38.024a5.595,5.595,0,0,1,7.947,0h0a5.579,5.579,0,0,1,0,7.947L38.86,58.544A5.6,5.6,0,0,1,34.87,60.134ZM47.443,39.471a2.48,2.48,0,0,0-1.733.7L33.138,52.79a2.48,2.48,0,0,0,0,3.449,2.432,2.432,0,0,0,3.449,0L49.159,43.73a2.4,2.4,0,0,0,.715-1.717,2.526,2.526,0,0,0-2.432-2.5Z" transform="translate(14.718 18.955)" fill="#35456b"/>
    </g>
  </g>
</svg>
