<svg xmlns="http://www.w3.org/2000/svg" width="27.966" height="27.787" viewBox="0 0 27.966 27.787">
  <g id="Grupo_121" data-name="Grupo 121" transform="translate(-304.094 -242.12)">
    <path id="Caminho_478" data-name="Caminho 478" d="M168.715,498.231A13.983,13.983,0,1,1,182.7,512.124a13.938,13.938,0,0,1-13.983-13.893Z" transform="translate(135.379 -242.217)" fill="#fff" fill-rule="evenodd"/>
    <g id="Grupo_120" data-name="Grupo 120" transform="translate(0.053 -324.067)">
      <path id="Caminho_14" data-name="Caminho 14" d="M320.48,575.647l.108.015.1.039.093.054.082.075.068.087.05.1.033.1.007.111v7.844l-.007.107-.033.108-.05.1-.068.086-.082.068-.093.062-.083.029-.082.018-.082.007-.1-.007-.093-.029-.093-.043-.082-.058-3.187-2.627h-1.7l-.119-.014-.111-.033-.1-.057-.086-.068-.076-.087-.05-.1-.036-.112-.011-.115v-2.311l.011-.118.036-.108.05-.1.076-.087.086-.068.1-.053.111-.033.119-.01h1.7l3.187-2.635.09-.062.1-.043.108-.021.108,0Z" fill="#a700ff" fill-rule="evenodd"/>
    </g>
  </g>
</svg>
