<?xml version="1.0" encoding="utf-8" ?>
<svg xmlns="http://www.w3.org/2000/svg" xmlns:xlink="http://www.w3.org/1999/xlink" width="500" height="500">
	<path fill="#FEFEFE" d="M280.567 141.112C281.445 141.024 282.395 140.983 283.274 141.026C284.714 141.095 286.191 141.708 287.131 142.827C288.053 143.923 288.42 145.408 288.21 146.818C287.785 149.684 285.614 150.772 282.984 151.003C278.042 151.437 273.124 151.331 268.174 151.928Q265.345 152.288 262.545 152.827Q259.745 153.367 256.985 154.084Q254.225 154.802 251.516 155.694Q248.807 156.587 246.161 157.65Q243.516 158.714 240.943 159.945Q238.37 161.175 235.882 162.568Q233.393 163.96 230.998 165.509Q228.604 167.057 226.313 168.756C210.55 180.589 199.012 198.162 196.307 217.918C194.314 232.467 196.172 247.502 205.386 259.449C212.484 268.652 221.651 273.424 233.043 274.931Q229.587 271.912 226.598 268.429C216.696 256.998 212.523 245.43 213.642 230.402C214.617 217.305 222.756 204.494 232.57 196.128C246.643 184.13 265.924 179.423 284.141 180.961C287.278 181.225 290.433 181.948 293.503 182.627C311.692 186.653 328.238 196.216 340.201 210.577C352.788 225.688 358.506 241.856 361.082 261.117C362.087 268.626 362.587 276.127 361.868 283.694C358.801 315.985 344.813 344.183 319.589 364.867C304.132 377.543 286.063 385.271 266.343 388.224C262.978 388.727 258.812 389.704 255.478 389.313C253.659 389.101 252.019 388.336 250.894 386.853C250.109 385.817 249.638 384.489 249.904 383.187C250.186 381.807 251.396 380.405 252.703 379.892C255.037 378.976 264.594 378.43 267.648 378.019C280.673 376.265 295.405 369.795 306.158 362.399Q307.22 361.669 308.265 360.913Q309.309 360.156 310.334 359.375Q311.36 358.594 312.366 357.787Q313.371 356.981 314.357 356.15Q315.343 355.319 316.309 354.465Q317.274 353.61 318.218 352.732Q319.162 351.854 320.084 350.953Q321.006 350.053 321.906 349.129Q322.806 348.206 323.683 347.261Q324.56 346.317 325.414 345.35Q326.268 344.384 327.098 343.398Q327.927 342.411 328.733 341.404Q329.538 340.397 330.318 339.371Q331.099 338.345 331.854 337.3Q332.609 336.255 333.338 335.192Q334.068 334.129 334.771 333.048Q335.474 331.968 336.15 330.87Q336.827 329.773 337.476 328.659Q338.125 327.545 338.747 326.416Q339.369 325.286 339.963 324.142Q340.557 322.998 341.123 321.839Q341.688 320.681 342.226 319.509Q342.763 318.337 343.271 317.152Q343.78 315.968 344.259 314.771Q344.738 313.574 345.188 312.366Q345.638 311.158 346.058 309.939Q346.478 308.72 346.868 307.491Q347.258 306.262 347.618 305.024Q347.978 303.786 348.307 302.54Q348.637 301.294 348.936 300.039Q349.235 298.785 349.503 297.524Q349.771 296.263 350.008 294.996C354.526 270.356 351.397 243.449 336.845 222.497C326.216 207.195 309.123 195.469 290.655 192.169C274.563 189.293 256.351 191.197 242.727 200.83C231.712 208.618 225.263 220.254 223.006 233.379L224.824 230.651C228.175 225.946 232.907 222.031 237.978 219.297C248.895 213.41 263.518 213.336 275.193 216.922Q276.647 217.355 278.077 217.86Q279.507 218.366 280.91 218.942Q282.313 219.519 283.685 220.165Q285.057 220.812 286.396 221.526Q287.734 222.24 289.034 223.021Q290.335 223.802 291.594 224.647Q292.854 225.492 294.07 226.399Q295.285 227.306 296.454 228.273Q297.622 229.24 298.741 230.265Q299.859 231.289 300.925 232.369Q301.991 233.448 303.001 234.58Q304.011 235.711 304.963 236.892Q305.915 238.073 306.807 239.3Q307.698 240.527 308.527 241.798Q309.356 243.068 310.12 244.378Q310.884 245.689 311.581 247.036C320.023 263.154 320.593 282.98 315.198 300.148Q314.65 301.874 314.018 303.571Q313.386 305.268 312.671 306.932Q311.956 308.596 311.161 310.223Q310.365 311.85 309.49 313.436Q308.615 315.021 307.664 316.562Q306.712 318.103 305.686 319.595Q304.66 321.087 303.562 322.527Q302.463 323.967 301.295 325.352Q300.128 326.736 298.893 328.061Q297.659 329.386 296.361 330.649Q295.063 331.912 293.704 333.109Q292.346 334.307 290.93 335.436Q289.515 336.566 288.045 337.624Q286.575 338.682 285.056 339.667Q283.536 340.652 281.97 341.561Q280.403 342.47 278.794 343.301C273.868 345.845 259.386 352.221 254.341 350.424C252.89 349.906 251.972 348.804 251.401 347.404C250.937 346.266 250.885 345.241 251.42 344.119C253.172 340.45 258.421 340.326 261.889 339.224C278.826 333.841 293.529 322.902 301.72 306.858C308.62 293.343 310.771 274.8 306.019 260.237C302.249 248.681 294.992 238.325 284.574 231.867C281.766 230.126 278.665 228.862 275.72 227.372Q278.483 230.731 280.407 234.631C286.46 247.147 286.298 261.356 281.658 274.308Q281.139 275.724 280.551 277.113Q279.964 278.502 279.309 279.861Q278.655 281.22 277.935 282.546Q277.215 283.871 276.432 285.16Q275.648 286.449 274.803 287.698Q273.958 288.947 273.053 290.154Q272.148 291.36 271.185 292.521Q270.222 293.682 269.204 294.795Q268.186 295.908 267.115 296.97Q266.044 298.032 264.923 299.04Q263.801 300.049 262.632 301.001Q261.463 301.954 260.248 302.849Q259.034 303.744 257.778 304.578Q256.521 305.413 255.226 306.185Q253.931 306.957 252.599 307.666Q251.267 308.374 249.903 309.017C233.421 316.786 213.384 316.932 196.357 310.851C178.435 304.451 159.481 290.013 151.227 272.552C151.462 272.067 151.699 271.579 151.974 271.115C152.774 269.763 154.217 268.409 155.778 268.033C157.376 267.648 158.806 268.33 159.977 269.382C162.547 271.692 164.586 275.404 166.719 278.186C172.066 285.161 179.095 290.998 186.601 295.526C201.117 304.283 218.674 307.918 235.25 303.758Q236.407 303.461 237.55 303.113Q238.693 302.766 239.82 302.368Q240.946 301.971 242.054 301.525Q243.162 301.078 244.25 300.583Q245.337 300.089 246.402 299.547Q247.466 299.005 248.506 298.417Q249.546 297.829 250.559 297.196Q251.572 296.563 252.556 295.886Q253.541 295.209 254.494 294.489Q255.448 293.769 256.369 293.009Q257.29 292.248 258.177 291.448Q259.064 290.647 259.915 289.809Q260.765 288.97 261.579 288.095Q262.392 287.22 263.166 286.31Q263.94 285.4 264.673 284.457Q265.407 283.514 266.098 282.54C268.434 279.255 270.273 275.635 272.335 272.176C271.135 273.068 270.046 274.074 268.796 274.911Q267.2 275.979 265.536 276.936Q263.873 277.894 262.148 278.737Q260.424 279.581 258.646 280.306Q256.869 281.032 255.047 281.636Q253.224 282.241 251.366 282.721Q249.507 283.201 247.62 283.555Q245.733 283.909 243.827 284.135Q241.92 284.362 240.003 284.459C226.283 285.085 213.397 281.395 203.129 271.98C190.824 260.697 186.319 245.441 185.631 229.214C184.757 208.607 193.615 187.291 207.51 172.247Q208.943 170.693 210.442 169.203Q211.942 167.713 213.506 166.29Q215.069 164.867 216.693 163.515Q218.318 162.162 220 160.882Q221.682 159.601 223.419 158.396Q225.156 157.191 226.944 156.063Q228.732 154.936 230.568 153.887Q232.403 152.839 234.283 151.872Q236.163 150.906 238.084 150.022Q240.004 149.139 241.962 148.341Q243.919 147.543 245.91 146.831Q247.901 146.12 249.921 145.496Q251.94 144.873 253.986 144.338Q256.031 143.804 258.098 143.36Q260.165 142.916 262.249 142.563Q264.333 142.21 266.431 141.949C271.121 141.354 275.852 141.3 280.567 141.112ZM253.87 270.66Q254.418 270.605 254.962 270.524Q255.507 270.442 256.046 270.334Q256.586 270.226 257.12 270.092Q257.654 269.957 258.181 269.797Q258.707 269.637 259.225 269.451Q259.744 269.265 260.252 269.054Q260.761 268.844 261.258 268.608Q261.756 268.373 262.241 268.113Q262.727 267.854 263.199 267.571Q263.671 267.288 264.129 266.982Q264.587 266.677 265.029 266.349Q265.472 266.021 265.898 265.672Q266.323 265.323 266.732 264.954Q267.14 264.585 267.53 264.196Q267.92 263.807 268.29 263.4Q268.66 262.993 269.01 262.568Q269.36 262.143 269.689 261.701Q270.018 261.26 270.324 260.803Q270.631 260.346 270.915 259.874Q271.199 259.403 271.46 258.918Q271.721 258.433 271.958 257.936Q272.194 257.439 272.407 256.931Q272.619 256.423 272.806 255.905Q272.993 255.388 273.155 254.861Q273.316 254.335 273.452 253.802Q273.588 253.268 273.697 252.729Q273.806 252.189 273.889 251.645Q273.972 251.101 274.029 250.553Q274.085 250.005 274.114 249.456Q274.144 248.906 274.146 248.355Q274.149 247.805 274.125 247.255Q274.1 246.705 274.049 246.157Q273.998 245.609 273.92 245.064Q273.842 244.519 273.738 243.978Q273.633 243.438 273.502 242.903Q273.372 242.368 273.215 241.841Q273.058 241.313 272.876 240.793Q272.694 240.274 272.486 239.764Q272.279 239.254 272.047 238.755Q271.815 238.256 271.558 237.768Q271.302 237.281 271.022 236.807Q270.743 236.333 270.44 235.873Q270.137 235.413 269.813 234.969Q269.488 234.524 269.142 234.096Q268.796 233.668 268.43 233.257Q268.063 232.846 267.677 232.454Q267.291 232.061 266.886 231.688Q266.481 231.315 266.058 230.962Q265.636 230.61 265.196 230.278Q264.757 229.946 264.302 229.636Q263.847 229.326 263.377 229.039Q262.908 228.752 262.425 228.488Q261.942 228.224 261.446 227.984Q260.951 227.744 260.444 227.528Q259.938 227.313 259.421 227.122Q258.905 226.932 258.379 226.767Q257.854 226.601 257.322 226.462Q256.789 226.323 256.25 226.21Q255.712 226.097 255.168 226.01Q254.624 225.924 254.077 225.864Q253.53 225.804 252.98 225.771Q252.431 225.738 251.88 225.731Q251.33 225.725 250.78 225.746Q250.229 225.766 249.681 225.814Q249.128 225.862 248.578 225.937Q248.028 226.012 247.482 226.114Q246.936 226.217 246.396 226.345Q245.856 226.474 245.323 226.63Q244.79 226.785 244.265 226.967Q243.74 227.148 243.225 227.355Q242.71 227.562 242.206 227.794Q241.702 228.027 241.209 228.283Q240.717 228.54 240.238 228.821Q239.759 229.102 239.294 229.406Q238.83 229.71 238.381 230.036Q237.932 230.363 237.499 230.711Q237.067 231.059 236.652 231.429Q236.237 231.798 235.841 232.187Q235.445 232.576 235.069 232.984Q234.692 233.392 234.337 233.819Q233.981 234.245 233.646 234.688Q233.312 235.131 233 235.59Q232.688 236.05 232.399 236.524Q232.11 236.998 231.844 237.485Q231.579 237.973 231.338 238.473Q231.097 238.973 230.881 239.485Q230.664 239.996 230.474 240.518Q230.283 241.039 230.118 241.569Q229.954 242.1 229.815 242.637Q229.677 243.175 229.565 243.719Q229.453 244.263 229.369 244.811Q229.284 245.36 229.226 245.912Q229.168 246.465 229.138 247.019Q229.108 247.573 229.105 248.129Q229.102 248.684 229.126 249.238Q229.15 249.793 229.202 250.346Q229.254 250.899 229.332 251.448Q229.411 251.998 229.517 252.543Q229.623 253.088 229.755 253.627Q229.888 254.166 230.047 254.698Q230.206 255.23 230.391 255.754Q230.576 256.277 230.786 256.791Q230.997 257.305 231.232 257.808Q231.468 258.31 231.728 258.801Q231.988 259.291 232.272 259.768Q232.556 260.246 232.863 260.708Q233.17 261.171 233.5 261.618Q233.829 262.064 234.181 262.494Q234.532 262.924 234.904 263.337Q235.276 263.749 235.667 264.142Q236.059 264.536 236.47 264.909Q236.88 265.283 237.309 265.636Q237.738 265.989 238.183 266.32Q238.629 266.652 239.09 266.961Q239.551 267.27 240.027 267.556Q240.503 267.842 240.992 268.104Q241.482 268.366 241.983 268.604Q242.485 268.841 242.998 269.054Q243.511 269.267 244.034 269.454Q244.556 269.641 245.088 269.802Q245.619 269.964 246.158 270.098Q246.696 270.233 247.241 270.341Q247.785 270.449 248.335 270.53Q248.884 270.612 249.436 270.665Q249.989 270.719 250.544 270.746Q251.098 270.773 251.653 270.772Q252.209 270.771 252.763 270.743Q253.318 270.715 253.87 270.66Z"/>
	<path fill="#FEFEFE" d="M246.722 108.375C247.337 108.306 247.956 108.283 248.574 108.258C251.028 108.157 253.648 108.415 255.496 110.233C256.295 111.018 256.823 112.084 256.766 113.223C256.668 115.167 255.283 116.525 253.97 117.784C251.352 118.273 248.562 118.262 245.904 118.454Q241.051 118.811 236.254 119.628C209.752 124.032 186.116 139.809 170.609 161.599C154.655 184.019 148.75 211.808 152.092 238.977C152.292 240.595 152.789 242.163 153.044 243.774C153.37 245.832 152.819 246.696 151.651 248.272C150.842 248.918 149.823 249.553 148.791 249.746C147.023 250.077 145.688 249.205 144.31 248.223C141.506 242.135 141.521 234.119 141.153 227.495C139.487 197.502 151.066 167.081 171.019 144.799Q171.915 143.793 172.836 142.81Q173.757 141.826 174.702 140.866Q175.647 139.905 176.616 138.968Q177.584 138.031 178.575 137.119Q179.566 136.206 180.579 135.318Q181.593 134.43 182.628 133.567Q183.663 132.704 184.718 131.867Q185.774 131.03 186.85 130.219Q187.927 129.409 189.022 128.625Q190.118 127.841 191.233 127.084Q192.348 126.327 193.481 125.598Q194.614 124.869 195.765 124.168Q196.916 123.467 198.083 122.795Q199.251 122.123 200.435 121.48Q201.619 120.836 202.818 120.222Q204.018 119.608 205.232 119.024Q206.446 118.44 207.674 117.886Q208.902 117.332 210.144 116.808Q211.385 116.285 212.639 115.792Q213.893 115.299 215.159 114.837Q216.425 114.375 217.701 113.945Q218.978 113.514 220.265 113.115Q221.552 112.716 222.849 112.349Q224.145 111.982 225.45 111.647Q226.755 111.312 228.068 111.01Q229.381 110.707 230.701 110.437Q232.021 110.167 233.347 109.929Q234.674 109.691 236.005 109.486Q237.337 109.282 238.673 109.11Q240.01 108.938 241.35 108.799Q242.69 108.66 244.033 108.554Q245.377 108.448 246.722 108.375Z"/>
	<path fill="#FEFEFE" d="M106.761 244.796Q107.197 244.761 107.634 244.747C109.891 244.682 111.467 245.257 112.487 247.393C113.896 250.343 113.871 258.571 114.606 262.311Q115.741 267.89 117.455 273.319Q119.17 278.748 121.446 283.967Q122.164 285.6 122.937 287.208Q123.71 288.816 124.537 290.397Q125.364 291.978 126.243 293.53Q127.122 295.082 128.053 296.604Q128.984 298.126 129.966 299.616Q130.948 301.106 131.979 302.562Q133.01 304.017 134.09 305.438Q135.169 306.858 136.296 308.241Q137.422 309.625 138.595 310.969Q139.768 312.314 140.985 313.618Q142.202 314.923 143.462 316.185Q144.723 317.448 146.025 318.668Q147.327 319.887 148.669 321.063Q150.011 322.238 151.392 323.367Q152.774 324.496 154.192 325.579Q155.61 326.661 157.064 327.695Q160.18 329.956 163.475 331.948C166.346 333.668 169.581 335.245 172.022 337.558L172.283 337.808C172.743 339.25 173.16 340.542 172.526 342.004C171.877 343.501 170.342 344.323 168.91 344.917C168.601 344.974 168.634 344.978 168.261 344.986C163.237 345.1 145.858 331.655 141.341 327.632Q140.285 326.704 139.252 325.75Q138.22 324.796 137.211 323.816Q136.202 322.837 135.218 321.833Q134.234 320.829 133.274 319.801Q132.315 318.773 131.382 317.722Q130.448 316.671 129.541 315.597Q128.634 314.523 127.753 313.427Q126.873 312.33 126.02 311.213Q125.167 310.095 124.342 308.957Q123.516 307.819 122.72 306.66Q121.923 305.502 121.155 304.324Q120.387 303.147 119.648 301.95Q118.91 300.754 118.201 299.54Q117.492 298.326 116.813 297.095Q116.135 295.863 115.487 294.616Q114.839 293.368 114.222 292.104Q113.605 290.841 113.019 289.563Q112.434 288.285 111.88 286.993Q111.326 285.7 110.805 284.395Q110.283 283.089 109.794 281.771Q109.304 280.453 108.848 279.123Q108.391 277.794 107.968 276.453Q107.544 275.112 107.154 273.762Q106.763 272.411 106.406 271.051Q106.05 269.691 105.726 268.323Q105.403 266.955 105.114 265.579Q104.825 264.203 104.57 262.82Q104.315 261.438 104.094 260.049Q103.873 258.661 103.686 257.267Q103.5 255.874 103.348 254.476Q103.196 253.079 103.078 251.678Q102.961 250.276 102.878 248.873Q103.129 248.341 103.393 247.816C104.225 246.17 104.986 245.378 106.761 244.796Z"/>
	<path fill="#FEFEFE" d="M327.273 134.151Q327.738 134.111 328.203 134.094Q328.669 134.077 329.136 134.083Q329.602 134.089 330.067 134.118Q330.533 134.147 330.996 134.198Q331.459 134.25 331.92 134.324Q332.38 134.399 332.836 134.496Q333.292 134.592 333.743 134.711Q334.194 134.831 334.638 134.972Q335.082 135.113 335.519 135.276Q335.956 135.438 336.385 135.622Q336.813 135.806 337.232 136.011Q337.651 136.216 338.059 136.441Q338.467 136.666 338.864 136.911Q339.261 137.156 339.645 137.42Q340.029 137.684 340.4 137.967Q340.771 138.25 341.127 138.55Q341.484 138.851 341.825 139.168Q342.166 139.486 342.492 139.82Q342.817 140.154 343.125 140.504Q343.434 140.853 343.725 141.218Q344.016 141.582 344.288 141.96Q344.561 142.338 344.815 142.729Q345.069 143.121 345.303 143.524Q345.537 143.927 345.752 144.341Q345.966 144.755 346.159 145.179Q346.353 145.603 346.526 146.036Q346.698 146.47 346.849 146.911Q347 147.352 347.13 147.8Q347.259 148.248 347.366 148.701Q347.473 149.155 347.558 149.614Q347.642 150.072 347.705 150.534Q347.767 150.996 347.806 151.461Q347.845 151.926 347.862 152.392Q347.878 152.857 347.872 153.324Q347.865 153.79 347.836 154.255Q347.807 154.72 347.755 155.184Q347.702 155.647 347.628 156.107Q347.553 156.567 347.455 157.023Q347.358 157.479 347.239 157.93Q347.119 158.381 346.977 158.825Q346.836 159.269 346.673 159.706Q346.509 160.142 346.325 160.571Q346.14 160.999 345.935 161.417Q345.73 161.836 345.504 162.244Q345.279 162.652 345.033 163.049Q344.788 163.445 344.524 163.829Q344.259 164.213 343.976 164.583Q343.693 164.954 343.392 165.31Q343.091 165.666 342.773 166.007Q342.455 166.348 342.121 166.673Q341.787 166.998 341.437 167.306Q341.087 167.614 340.722 167.905Q340.357 168.195 339.979 168.467Q339.601 168.74 339.209 168.993Q338.818 169.247 338.415 169.48Q338.011 169.714 337.597 169.928Q337.183 170.142 336.758 170.335Q336.334 170.528 335.901 170.7Q335.467 170.872 335.026 171.023Q334.585 171.174 334.137 171.302Q333.689 171.431 333.235 171.538Q332.781 171.645 332.322 171.729Q331.864 171.813 331.402 171.875Q330.94 171.936 330.475 171.975Q330.011 172.014 329.546 172.03Q329.08 172.046 328.615 172.039Q328.149 172.032 327.685 172.002Q327.22 171.973 326.757 171.92Q326.295 171.868 325.835 171.793Q325.376 171.718 324.92 171.62Q324.465 171.523 324.015 171.403Q323.565 171.284 323.122 171.142Q322.678 171 322.242 170.837Q321.806 170.674 321.378 170.49Q320.951 170.305 320.533 170.1Q320.115 169.895 319.707 169.67Q319.3 169.444 318.904 169.199Q318.508 168.954 318.125 168.69Q317.742 168.426 317.372 168.143Q317.002 167.86 316.646 167.56Q316.29 167.26 315.95 166.942Q315.609 166.624 315.285 166.291Q314.96 165.957 314.652 165.607Q314.345 165.258 314.054 164.894Q313.764 164.53 313.492 164.152Q313.22 163.774 312.967 163.383Q312.713 162.993 312.48 162.59Q312.246 162.187 312.032 161.774Q311.818 161.36 311.625 160.937Q311.432 160.513 311.26 160.08Q311.088 159.648 310.937 159.207Q310.786 158.767 310.657 158.319Q310.528 157.872 310.421 157.419Q310.314 156.966 310.23 156.508Q310.145 156.05 310.083 155.588Q310.021 155.127 309.982 154.663Q309.943 154.199 309.926 153.734Q309.91 153.268 309.916 152.803Q309.922 152.337 309.952 151.873Q309.981 151.408 310.033 150.945Q310.085 150.482 310.159 150.023Q310.234 149.563 310.331 149.108Q310.428 148.652 310.547 148.202Q310.666 147.752 310.807 147.308Q310.948 146.865 311.111 146.428Q311.274 145.992 311.458 145.564Q311.642 145.137 311.846 144.718Q312.051 144.3 312.276 143.893Q312.501 143.485 312.746 143.089Q312.99 142.692 313.254 142.309Q313.518 141.925 313.8 141.555Q314.082 141.185 314.382 140.828Q314.683 140.473 315 140.132Q315.317 139.791 315.65 139.466Q315.984 139.141 316.333 138.833Q316.682 138.525 317.046 138.234Q317.41 137.943 317.787 137.671Q318.165 137.398 318.555 137.145Q318.946 136.891 319.348 136.657Q319.751 136.423 320.164 136.209Q320.577 135.994 321.001 135.801Q321.424 135.607 321.857 135.434Q322.289 135.262 322.73 135.111Q323.17 134.959 323.617 134.83Q324.065 134.7 324.518 134.593Q324.971 134.486 325.428 134.401Q325.886 134.316 326.348 134.253Q326.809 134.191 327.273 134.151ZM330.143 161.575Q330.352 161.544 330.559 161.502Q330.766 161.46 330.971 161.409Q331.176 161.357 331.378 161.295Q331.58 161.233 331.779 161.162Q331.978 161.09 332.173 161.009Q332.368 160.928 332.559 160.837Q332.75 160.746 332.936 160.646Q333.122 160.546 333.303 160.437Q333.484 160.328 333.659 160.21Q333.835 160.092 334.004 159.965Q334.174 159.839 334.337 159.705Q334.5 159.57 334.656 159.428Q334.812 159.285 334.961 159.135Q335.11 158.985 335.251 158.828Q335.393 158.671 335.526 158.508Q335.66 158.344 335.785 158.174Q335.91 158.003 336.027 157.827Q336.144 157.651 336.252 157.469Q336.36 157.288 336.459 157.101Q336.558 156.914 336.647 156.723Q336.737 156.531 336.817 156.336Q336.897 156.14 336.967 155.941Q337.038 155.742 337.098 155.539Q337.159 155.337 337.209 155.132Q337.26 154.926 337.3 154.719Q337.34 154.511 337.37 154.302Q337.4 154.093 337.42 153.883Q337.44 153.672 337.449 153.461Q337.459 153.25 337.458 153.039Q337.457 152.827 337.445 152.616Q337.434 152.405 337.412 152.195Q337.39 151.985 337.358 151.776Q337.326 151.567 337.284 151.36Q337.241 151.153 337.189 150.948Q337.136 150.744 337.074 150.542Q337.011 150.34 336.939 150.141Q336.867 149.943 336.785 149.748Q336.703 149.553 336.611 149.363Q336.52 149.172 336.419 148.986Q336.318 148.8 336.208 148.62Q336.099 148.439 335.98 148.264Q335.862 148.089 335.735 147.92Q335.608 147.751 335.473 147.589Q335.338 147.426 335.195 147.271Q335.052 147.115 334.901 146.967Q334.751 146.818 334.593 146.677Q334.436 146.537 334.271 146.404Q334.107 146.271 333.936 146.146Q333.766 146.021 333.589 145.905Q333.413 145.789 333.231 145.682Q333.049 145.574 332.861 145.476Q332.674 145.378 332.483 145.289Q332.291 145.2 332.095 145.121Q331.899 145.041 331.7 144.972Q331.5 144.902 331.297 144.842Q331.095 144.782 330.889 144.733Q330.684 144.683 330.476 144.643Q330.269 144.604 330.059 144.574Q329.85 144.545 329.64 144.526Q329.429 144.507 329.218 144.499Q329.007 144.49 328.795 144.492Q328.584 144.494 328.373 144.506Q328.162 144.518 327.952 144.541Q327.742 144.563 327.533 144.596Q327.325 144.629 327.119 144.672Q326.913 144.714 326.71 144.767Q326.506 144.82 326.305 144.883Q326.105 144.946 325.907 145.018Q325.71 145.091 325.516 145.173Q325.322 145.255 325.133 145.347Q324.944 145.438 324.759 145.539Q324.574 145.64 324.395 145.749Q324.215 145.859 324.041 145.977Q323.867 146.095 323.699 146.222Q323.531 146.349 323.37 146.483Q323.208 146.618 323.053 146.76Q322.898 146.903 322.751 147.053Q322.603 147.203 322.463 147.359Q322.323 147.516 322.19 147.68Q322.058 147.844 321.934 148.013Q321.81 148.183 321.694 148.359Q321.579 148.535 321.472 148.716Q321.365 148.897 321.267 149.083Q321.169 149.269 321.081 149.46Q320.992 149.651 320.913 149.846Q320.833 150.041 320.764 150.239Q320.694 150.438 320.634 150.639Q320.575 150.841 320.525 151.046Q320.475 151.25 320.435 151.456Q320.395 151.663 320.366 151.871Q320.336 152.08 320.317 152.289Q320.297 152.499 320.288 152.709Q320.279 152.919 320.28 153.129Q320.282 153.34 320.293 153.55Q320.305 153.76 320.326 153.969Q320.348 154.178 320.38 154.386Q320.412 154.594 320.454 154.8Q320.496 155.006 320.548 155.21Q320.6 155.414 320.663 155.615Q320.725 155.816 320.796 156.013Q320.868 156.211 320.95 156.405Q321.031 156.599 321.122 156.789Q321.213 156.978 321.313 157.164Q321.413 157.349 321.522 157.529Q321.63 157.709 321.748 157.883Q321.866 158.057 321.992 158.226Q322.118 158.394 322.252 158.556Q322.386 158.718 322.528 158.874Q322.67 159.029 322.819 159.177Q322.968 159.325 323.125 159.466Q323.281 159.607 323.444 159.74Q323.607 159.872 323.777 159.997Q323.946 160.122 324.121 160.238Q324.297 160.354 324.477 160.462Q324.658 160.57 324.844 160.668Q325.03 160.767 325.22 160.856Q325.411 160.946 325.605 161.025Q325.8 161.105 325.998 161.176Q326.196 161.246 326.398 161.307Q326.599 161.367 326.803 161.418Q327.007 161.468 327.214 161.509Q327.42 161.549 327.628 161.58Q327.837 161.61 328.046 161.63Q328.255 161.651 328.465 161.66Q328.676 161.67 328.886 161.67Q329.096 161.67 329.306 161.659Q329.516 161.648 329.726 161.627Q329.935 161.606 330.143 161.575Z"/>
	<path fill="#FEFEFE" d="M209.841 330.65Q210.26 330.575 210.681 330.522Q211.103 330.468 211.527 330.435Q211.951 330.402 212.376 330.39Q212.801 330.378 213.226 330.386Q213.651 330.395 214.075 330.425Q214.499 330.455 214.921 330.505Q215.343 330.556 215.762 330.628Q216.181 330.699 216.596 330.791Q217.011 330.883 217.421 330.995Q217.831 331.107 218.235 331.24Q218.639 331.372 219.036 331.524Q219.433 331.676 219.822 331.848Q220.211 332.019 220.592 332.21Q220.972 332.4 221.342 332.609Q221.712 332.818 222.072 333.045Q222.431 333.272 222.779 333.516Q223.127 333.761 223.462 334.022Q223.798 334.283 224.12 334.561Q224.442 334.838 224.75 335.131Q225.058 335.424 225.351 335.732Q225.645 336.039 225.923 336.361Q226.2 336.683 226.462 337.018Q226.723 337.353 226.968 337.701Q227.213 338.049 227.44 338.408Q227.667 338.767 227.877 339.137Q228.086 339.507 228.277 339.887Q228.468 340.267 228.64 340.656Q228.811 341.045 228.964 341.442Q229.116 341.839 229.249 342.242Q229.382 342.646 229.495 343.056Q229.607 343.466 229.7 343.881Q229.792 344.296 229.864 344.715Q229.936 345.134 229.987 345.556Q230.038 345.978 230.068 346.402Q230.098 346.826 230.108 347.251Q230.117 347.676 230.105 348.101Q230.094 348.526 230.061 348.95Q230.029 349.374 229.975 349.796Q229.922 350.218 229.847 350.636Q229.773 351.055 229.679 351.469Q229.584 351.884 229.469 352.293Q229.354 352.702 229.219 353.105Q229.084 353.509 228.929 353.905Q228.774 354.301 228.6 354.688Q228.426 355.076 228.233 355.455Q228.04 355.834 227.829 356.203Q227.618 356.572 227.388 356.93Q227.159 357.288 226.912 357.634Q226.666 357.98 226.402 358.314Q226.139 358.648 225.859 358.968Q225.58 359.288 225.285 359.594Q224.99 359.901 224.68 360.192Q224.37 360.483 224.047 360.759Q223.723 361.034 223.386 361.294Q223.049 361.553 222.7 361.795Q222.351 362.038 221.99 362.263Q221.629 362.488 221.258 362.695Q220.886 362.901 220.505 363.09Q220.124 363.278 219.734 363.447Q219.344 363.617 218.946 363.767Q218.548 363.916 218.144 364.047Q217.739 364.177 217.328 364.287Q216.918 364.397 216.502 364.486Q216.087 364.576 215.667 364.645Q215.251 364.714 214.832 364.762Q214.413 364.81 213.993 364.837Q213.572 364.865 213.151 364.872Q212.729 364.879 212.308 364.865Q211.886 364.851 211.466 364.817Q211.046 364.783 210.628 364.728Q210.21 364.674 209.795 364.598Q209.38 364.523 208.97 364.428Q208.559 364.333 208.153 364.218Q207.748 364.102 207.348 363.968Q206.949 363.833 206.557 363.679Q206.164 363.524 205.78 363.351Q205.396 363.178 205.02 362.986Q204.645 362.794 204.279 362.584Q203.914 362.374 203.559 362.147Q203.204 361.919 202.86 361.675Q202.517 361.43 202.186 361.169Q201.855 360.908 201.537 360.631Q201.219 360.354 200.915 360.062Q200.611 359.77 200.322 359.463Q200.033 359.157 199.759 358.836Q199.485 358.516 199.227 358.182Q198.969 357.849 198.727 357.503Q198.486 357.158 198.262 356.801Q198.038 356.444 197.831 356.076Q197.624 355.709 197.436 355.332Q197.248 354.954 197.078 354.568Q196.909 354.183 196.758 353.789Q196.607 353.395 196.476 352.994Q196.345 352.594 196.234 352.187Q196.122 351.781 196.031 351.369Q195.939 350.958 195.868 350.542Q195.797 350.126 195.746 349.708Q195.695 349.289 195.665 348.869Q195.634 348.448 195.625 348.027Q195.615 347.605 195.626 347.184Q195.637 346.763 195.668 346.342Q195.7 345.922 195.752 345.503Q195.803 345.085 195.876 344.67Q195.948 344.254 196.041 343.843Q196.133 343.432 196.246 343.025Q196.358 342.619 196.491 342.219Q196.623 341.818 196.774 341.425Q196.926 341.032 197.097 340.646Q197.267 340.261 197.457 339.884Q197.646 339.507 197.854 339.14Q198.061 338.773 198.286 338.417Q198.511 338.06 198.754 337.716Q198.996 337.37 199.255 337.038Q199.514 336.705 199.789 336.385Q200.064 336.066 200.354 335.76Q200.644 335.454 200.949 335.163Q201.253 334.871 201.572 334.595Q201.891 334.319 202.222 334.059Q202.554 333.799 202.898 333.555Q203.242 333.311 203.598 333.085Q203.953 332.858 204.319 332.649Q204.686 332.44 205.062 332.25Q205.438 332.059 205.822 331.887Q206.207 331.714 206.6 331.561Q206.993 331.408 207.393 331.274Q207.792 331.14 208.198 331.026Q208.604 330.912 209.015 330.818Q209.426 330.724 209.841 330.65ZM215.976 354.63C217.794 353.814 219.171 352.268 219.875 350.406C220.6 348.488 220.568 346.254 219.698 344.385C218.87 342.606 217.4 341.312 215.522 340.738C213.971 340.263 212.232 340.47 210.632 340.543C208.565 341.279 207.237 342.214 206.302 344.26C205.431 346.164 205.317 348.657 206.051 350.623Q206.162 350.927 206.304 351.218Q206.446 351.509 206.617 351.783Q206.789 352.058 206.988 352.313Q207.187 352.568 207.411 352.802Q207.635 353.035 207.883 353.244Q208.13 353.453 208.398 353.635Q208.665 353.817 208.951 353.97Q209.236 354.123 209.535 354.246C211.564 355.085 213.842 354.833 215.976 354.63Z"/>
	<path fill="#FEFEFE" d="M359.952 177.545C360.688 177.649 361.393 177.775 362.081 178.068C364.95 179.292 366.703 182.006 368.705 184.248C378.258 194.947 385.84 206.629 391.059 220.015C392.871 224.662 398.727 244.753 396.828 248.609C396.037 250.216 394.256 250.84 392.681 251.39C391.724 251.288 390.748 251.164 389.861 250.767C388.604 250.205 388.102 248.987 387.68 247.757C386.337 243.851 386.064 239.318 385.27 235.25C384.267 230.108 382.397 224.664 380.357 219.832C377.347 212.704 373.301 206.027 368.758 199.776C366.916 197.242 364.885 194.797 362.841 192.425C360.687 189.924 356.416 186.688 355.451 183.571C355.12 182.5 355.292 181.343 355.86 180.382C356.815 178.768 358.202 178.001 359.952 177.545Z"/>
	<path fill="#FEFEFE" d="M120.241 130.278C121.642 130.148 122.914 130.141 124.171 130.872C125.919 131.888 126.435 133.723 126.92 135.54C126.589 136.609 126.14 137.653 125.735 138.697C124.701 139.375 123.762 139.899 122.571 140.251C122.03 140.388 121.676 140.455 121.122 140.331C119.57 139.987 118.192 139.326 117.361 137.919C116.673 136.755 116.466 135.414 116.829 134.109C117.337 132.287 118.677 131.204 120.241 130.278Z"/>
	<path fill="#FEFEFE" d="M367.447 355.48Q367.723 355.431 368.003 355.413Q368.283 355.396 368.563 355.409Q368.843 355.423 369.12 355.467Q369.396 355.512 369.666 355.587Q369.937 355.662 370.197 355.766Q370.457 355.871 370.704 356.004Q370.951 356.137 371.181 356.296Q371.412 356.456 371.623 356.64Q371.834 356.824 372.024 357.031Q372.213 357.237 372.379 357.464Q372.544 357.69 372.683 357.934Q372.822 358.177 372.933 358.434Q373.045 358.692 373.126 358.96Q373.208 359.228 373.26 359.503Q373.311 359.779 373.332 360.058Q373.353 360.338 373.342 360.618Q373.334 360.834 373.307 361.048Q373.281 361.263 373.236 361.474Q373.191 361.685 373.128 361.892Q373.065 362.099 372.984 362.299Q372.904 362.5 372.807 362.693Q372.709 362.886 372.596 363.07Q372.482 363.253 372.353 363.427Q372.224 363.6 372.081 363.762Q371.938 363.924 371.781 364.072Q371.624 364.221 371.455 364.356Q371.286 364.491 371.107 364.611Q370.927 364.73 370.737 364.834Q370.548 364.938 370.35 365.025Q370.153 365.113 369.948 365.183Q369.744 365.253 369.534 365.305Q369.324 365.357 369.111 365.391Q368.99 365.41 368.868 365.424Q368.746 365.437 368.623 365.444Q368.501 365.452 368.378 365.453Q368.256 365.455 368.133 365.45Q368.01 365.445 367.888 365.435Q367.766 365.424 367.644 365.408Q367.523 365.391 367.402 365.369Q367.281 365.346 367.162 365.318Q367.043 365.29 366.925 365.256Q366.807 365.222 366.691 365.182Q366.575 365.142 366.461 365.097Q366.347 365.051 366.235 365Q366.123 364.949 366.014 364.893Q365.905 364.837 365.799 364.775Q365.693 364.714 365.59 364.647Q365.487 364.58 365.388 364.509Q365.288 364.437 365.192 364.361Q365.096 364.284 365.004 364.203Q364.912 364.122 364.823 364.037Q364.735 363.951 364.651 363.862Q364.568 363.772 364.488 363.679Q364.409 363.585 364.334 363.488Q364.26 363.39 364.19 363.289Q364.12 363.189 364.055 363.084Q363.99 362.98 363.93 362.873Q363.871 362.766 363.816 362.656Q363.762 362.546 363.713 362.433Q363.664 362.321 363.621 362.206Q363.577 362.091 363.539 361.974Q363.502 361.858 363.47 361.739Q363.438 361.621 363.411 361.501Q363.385 361.381 363.365 361.26Q363.345 361.139 363.33 361.017Q363.316 360.895 363.307 360.773Q363.299 360.651 363.297 360.528Q363.294 360.405 363.298 360.283Q363.301 360.16 363.311 360.038Q363.32 359.915 363.336 359.794Q363.351 359.672 363.373 359.551Q363.394 359.43 363.422 359.311Q363.449 359.191 363.482 359.073Q363.515 358.955 363.554 358.838Q363.593 358.722 363.637 358.608Q363.682 358.493 363.732 358.381Q363.782 358.269 363.837 358.16Q363.892 358.05 363.953 357.944Q364.014 357.837 364.08 357.733Q364.145 357.63 364.216 357.53Q364.287 357.429 364.362 357.333Q364.438 357.236 364.518 357.143Q364.598 357.051 364.683 356.962Q364.768 356.873 364.857 356.788Q364.945 356.704 365.038 356.624Q365.131 356.543 365.228 356.468Q365.325 356.392 365.425 356.322Q365.525 356.251 365.629 356.185Q365.732 356.12 365.839 356.059Q365.946 355.998 366.055 355.943Q366.165 355.888 366.277 355.838Q366.389 355.788 366.503 355.744Q366.618 355.699 366.734 355.661Q366.851 355.622 366.969 355.589Q367.087 355.556 367.207 355.529Q367.326 355.501 367.447 355.48Z"/>
	<path fill="#FEFEFE" d="M140.407 367.548Q140.737 367.537 141.066 367.569Q141.394 367.601 141.716 367.676Q142.037 367.751 142.346 367.868Q142.655 367.985 142.946 368.142Q143.237 368.298 143.504 368.491Q143.772 368.685 144.012 368.912Q144.252 369.138 144.46 369.395Q144.668 369.651 144.84 369.933Q145.012 370.215 145.146 370.516Q145.28 370.818 145.373 371.135Q145.466 371.452 145.517 371.778Q145.567 372.104 145.574 372.434Q145.581 372.764 145.545 373.093Q145.509 373.421 145.43 373.741Q145.35 374.062 145.23 374.369Q145.109 374.676 144.949 374.965Q144.789 375.254 144.592 375.519Q144.396 375.784 144.166 376.021Q143.936 376.258 143.677 376.463Q143.418 376.667 143.134 376.836Q142.851 377.005 142.547 377.135Q142.244 377.265 141.926 377.354Q141.608 377.443 141.281 377.49Q140.954 377.536 140.624 377.539Q140.502 377.54 140.381 377.535Q140.259 377.53 140.138 377.52Q140.017 377.509 139.896 377.492Q139.776 377.476 139.656 377.453Q139.536 377.431 139.418 377.403Q139.3 377.374 139.183 377.341Q139.066 377.307 138.951 377.267Q138.836 377.227 138.723 377.182Q138.61 377.137 138.499 377.086Q138.389 377.036 138.28 376.98Q138.172 376.924 138.067 376.863Q137.962 376.802 137.86 376.735Q137.758 376.669 137.659 376.598Q137.56 376.527 137.465 376.451Q137.37 376.375 137.278 376.295Q137.187 376.215 137.1 376.13Q137.012 376.045 136.929 375.956Q136.846 375.868 136.767 375.775Q136.689 375.682 136.614 375.585Q136.54 375.489 136.471 375.389Q136.402 375.289 136.337 375.186Q136.273 375.082 136.214 374.976Q136.154 374.87 136.1 374.761Q136.046 374.652 135.998 374.54Q135.949 374.429 135.906 374.315Q135.863 374.201 135.825 374.085Q135.788 373.97 135.756 373.852Q135.724 373.735 135.698 373.616Q135.671 373.497 135.651 373.377Q135.631 373.257 135.616 373.136Q135.602 373.015 135.593 372.894Q135.585 372.773 135.582 372.651Q135.579 372.529 135.583 372.408Q135.586 372.286 135.595 372.165Q135.604 372.043 135.619 371.923Q135.634 371.802 135.655 371.682Q135.676 371.562 135.703 371.443Q135.73 371.325 135.762 371.207Q135.795 371.09 135.833 370.974Q135.871 370.859 135.915 370.745Q135.959 370.632 136.008 370.521Q136.057 370.409 136.112 370.3Q136.167 370.192 136.226 370.086Q136.286 369.98 136.351 369.877Q136.416 369.774 136.486 369.674Q136.556 369.575 136.63 369.478Q136.705 369.382 136.784 369.29Q136.863 369.197 136.947 369.109Q137.031 369.021 137.118 368.936Q137.206 368.852 137.298 368.772Q137.39 368.692 137.485 368.617Q137.581 368.542 137.68 368.471Q137.779 368.401 137.882 368.335Q137.984 368.269 138.09 368.209Q138.195 368.148 138.304 368.093Q138.412 368.037 138.523 367.987Q138.634 367.937 138.747 367.893Q138.86 367.848 138.976 367.809Q139.091 367.77 139.208 367.737Q139.325 367.703 139.444 367.676Q139.562 367.648 139.682 367.626Q139.802 367.604 139.922 367.588Q140.043 367.572 140.164 367.562Q140.285 367.552 140.407 367.548Z"/>
</svg>
