<svg width="73" height="73" viewBox="0 0 73 73" fill="none" xmlns="http://www.w3.org/2000/svg">
<circle cx="37" cy="36" r="28" fill="white"/>
<path d="M16 29.1585V42.8415H25.3333L37 54.244V17.756L25.3333 29.1585H16ZM47.5 36C47.5 31.9635 45.12 28.4971 41.6667 26.8096V45.1676C45.12 43.5029 47.5 40.0365 47.5 36ZM41.6667 16V20.6978C48.41 22.6591 53.3333 28.7708 53.3333 36C53.3333 43.2292 48.41 49.3409 41.6667 51.3022V56C51.0233 53.9247 58 45.7605 58 36C58 26.2395 51.0233 18.0753 41.6667 16Z" fill="#2B7AFF"/>
<path d="M71 36.5C71 55.5538 55.5538 71 36.5 71C17.4462 71 2 55.5538 2 36.5C2 17.4462 17.4462 2 36.5 2C55.5538 2 71 17.4462 71 36.5Z" stroke="#2B7AFF" stroke-width="4"/>
</svg>
