<svg width="375" height="256" viewBox="0 0 375 256" fill="none" xmlns="http://www.w3.org/2000/svg">
<path fill-rule="evenodd" clip-rule="evenodd" d="M318.491 71.5682C318.482 71.2978 318.477 71.0261 318.477 70.7534C318.477 58.187 328.664 48 341.23 48C350.633 48 358.704 53.7037 362.172 61.8401C364.166 60.7198 366.467 60.0808 368.917 60.0808C375.746 60.0808 381.416 65.0431 382.517 71.5584H384.019C390.636 71.5584 396 76.9223 396 83.5391C396 90.1559 390.636 95.5199 384.019 95.5199H318.981C312.364 95.5199 307 90.1559 307 83.5391C307 77.0863 312.101 71.825 318.491 71.5682Z" fill="white"/>
<path fill-rule="evenodd" clip-rule="evenodd" d="M-24.5087 23.5682C-24.5182 23.2978 -24.523 23.0261 -24.523 22.7534C-24.523 10.187 -14.336 0 -1.76967 0C7.6333 0 15.7041 5.70374 19.1716 13.8401C21.1659 12.7198 23.467 12.0808 25.9173 12.0808C32.7459 12.0808 38.4155 17.0431 39.5168 23.5584H41.0192C47.636 23.5584 53 28.9223 53 35.5391C53 42.1559 47.636 47.5199 41.0192 47.5199H-24.0192C-30.636 47.5199 -35.9999 42.1559 -35.9999 35.5391C-35.9999 29.0863 -30.8985 23.825 -24.5087 23.5682Z" fill="white"/>
<path fill-rule="evenodd" clip-rule="evenodd" d="M1.8945 218.702C1.87967 218.28 1.87219 217.857 1.87219 217.433C1.87219 197.864 17.7359 182 37.3047 182C51.9471 182 64.515 190.882 69.915 203.551C73.0207 201.807 76.6042 200.812 80.42 200.812C91.0544 200.812 99.8837 208.54 101.598 218.686H103.938C114.241 218.686 122.594 227.039 122.594 237.343C122.594 247.647 114.241 256 103.938 256H2.65694C-7.647 256 -16 247.647 -16 237.343C-16 227.295 -8.05592 219.102 1.8945 218.702Z" fill="white"/>
<path fill-rule="evenodd" clip-rule="evenodd" d="M173.895 125.702C173.88 125.28 173.872 124.857 173.872 124.433C173.872 104.864 189.736 89 209.305 89C223.947 89 236.515 97.8817 241.915 110.551C245.021 108.807 248.604 107.812 252.42 107.812C263.054 107.812 271.884 115.54 273.598 125.686H275.938C286.241 125.686 294.594 134.039 294.594 144.343C294.594 154.647 286.241 163 275.938 163H174.657C164.353 163 156 154.647 156 144.343C156 134.295 163.944 126.102 173.895 125.702Z" fill="white"/>
<path fill-rule="evenodd" clip-rule="evenodd" d="M328.071 234.655C328.063 234.418 328.058 234.18 328.058 233.941C328.058 222.928 336.986 214 348 214C356.24 214 363.314 218.999 366.353 226.129C368.1 225.148 370.117 224.588 372.265 224.588C378.249 224.588 383.218 228.936 384.183 234.646H385.5C391.299 234.646 396 239.347 396 245.146C396 250.945 391.299 255.646 385.5 255.646H328.5C322.701 255.646 318 250.945 318 245.146C318 239.491 322.471 234.88 328.071 234.655Z" fill="white"/>
</svg>