<svg width="375" height="188" viewBox="0 0 375 188" fill="none" xmlns="http://www.w3.org/2000/svg">
<path fill-rule="evenodd" clip-rule="evenodd" d="M-44.6546 39.6776C-44.6706 39.222 -44.6787 38.7644 -44.6787 38.305C-44.6787 17.1497 -27.529 0 -6.37378 0C9.45616 0 23.0433 9.60239 28.8807 23.3001C32.2381 21.4141 36.1118 20.3385 40.2368 20.3385C51.7327 20.3385 61.2775 28.6926 63.1313 39.661H65.6606C76.7999 39.661 85.8301 48.6912 85.8301 59.8305C85.8301 70.9697 76.7999 79.9999 65.6607 79.9999H-43.8305C-54.9698 79.9999 -63.9999 70.9697 -63.9999 59.8305C-63.9999 48.9672 -55.4118 40.1098 -44.6546 39.6776Z" fill="white"/>
<path fill-rule="evenodd" clip-rule="evenodd" d="M135.895 150.702C135.88 150.28 135.872 149.857 135.872 149.433C135.872 129.864 151.736 114 171.305 114C185.947 114 198.515 122.882 203.915 135.551C207.021 133.807 210.604 132.812 214.42 132.812C225.054 132.812 233.884 140.54 235.598 150.686H237.938C248.241 150.686 256.594 159.039 256.594 169.343C256.594 179.647 248.241 188 237.938 188H136.657C126.353 188 118 179.647 118 169.343C118 159.295 125.944 151.102 135.895 150.702Z" fill="white"/>
<path fill-rule="evenodd" clip-rule="evenodd" d="M305.895 42.7017C305.88 42.2805 305.872 41.8574 305.872 41.4325C305.872 21.8637 321.736 6 341.305 6C355.947 6 368.515 14.8817 373.915 27.5515C377.021 25.8067 380.604 24.8116 384.42 24.8116C395.054 24.8116 403.884 32.5399 405.598 42.6864H407.938C418.241 42.6864 426.594 51.0394 426.594 61.3434C426.594 71.6473 418.241 80.0003 407.938 80.0003H306.657C296.353 80.0003 288 71.6473 288 61.3434C288 51.2948 295.944 43.1017 305.895 42.7017Z" fill="white"/>
</svg>