<svg width="316" height="702" viewBox="0 0 316 702" fill="none" xmlns="http://www.w3.org/2000/svg">
<ellipse cx="31.8546" cy="86.7145" rx="2.49525" ry="2.43322" fill="white"/>
<ellipse cx="73.1388" cy="-0.914383" rx="2.13878" ry="2.08562" fill="white"/>
<ellipse cx="99.2261" cy="135.031" rx="0.712928" ry="0.695206" fill="white"/>
<path d="M166.954 37.0065C166.954 38.1584 165.997 39.0921 164.816 39.0921C163.634 39.0921 162.677 38.1584 162.677 37.0065C162.677 35.8547 163.634 34.9209 164.816 34.9209C165.997 34.9209 166.954 35.8547 166.954 37.0065Z" fill="white"/>
<ellipse cx="134.16" cy="108.613" rx="2.13878" ry="2.08562" fill="white"/>
<ellipse cx="313.818" cy="1.08562" rx="2.13878" ry="2.08562" fill="white"/>
<ellipse cx="14.0313" cy="126.341" rx="1.78232" ry="1.73801" fill="white"/>
<ellipse cx="47.1827" cy="406.856" rx="1.42586" ry="1.39041" fill="white"/>
<ellipse cx="125.248" cy="529.56" rx="0.356464" ry="0.347603" fill="white"/>
<ellipse cx="58.5894" cy="540.336" rx="0.712928" ry="0.695206" fill="white"/>
<ellipse cx="-1.2968" cy="347.764" rx="1.42586" ry="1.39041" fill="white"/>
<ellipse cx="24.4259" cy="325.39" rx="1.42586" ry="1.39041" fill="white"/>
<ellipse cx="31.4259" cy="359.39" rx="1.42586" ry="1.39041" fill="white"/>
<ellipse cx="9.754" cy="222.279" rx="1.78232" ry="1.73801" fill="white"/>
<ellipse cx="54.6683" cy="56.8202" rx="1.06939" ry="1.04281" fill="white"/>
<ellipse cx="109.92" cy="37.0065" rx="2.13878" ry="2.08562" fill="white"/>
<ellipse cx="3.85462" cy="246.714" rx="2.49525" ry="2.43322" fill="white"/>
<ellipse cx="45.1388" cy="159.086" rx="2.13878" ry="2.08562" fill="white"/>
<ellipse cx="71.2261" cy="295.031" rx="0.712928" ry="0.695206" fill="white"/>
<ellipse cx="147.509" cy="157.086" rx="2.13878" ry="2.08562" fill="white"/>
<path d="M138.954 197.007C138.954 198.158 137.997 199.092 136.816 199.092C135.634 199.092 134.677 198.158 134.677 197.007C134.677 195.855 135.634 194.921 136.816 194.921C137.997 194.921 138.954 195.855 138.954 197.007Z" fill="white"/>
<ellipse cx="106.16" cy="268.613" rx="2.13878" ry="2.08562" fill="white"/>
<ellipse cx="285.818" cy="161.086" rx="2.13878" ry="2.08562" fill="white"/>
<ellipse cx="19.1827" cy="566.857" rx="1.42586" ry="1.39041" fill="white"/>
<ellipse cx="97.2481" cy="689.56" rx="0.356464" ry="0.347603" fill="white"/>
<ellipse cx="30.5894" cy="700.336" rx="0.712928" ry="0.695206" fill="white"/>
<ellipse cx="3.42586" cy="519.39" rx="1.42586" ry="1.39041" fill="white"/>
<ellipse cx="26.6683" cy="216.82" rx="1.06939" ry="1.04281" fill="white"/>
<ellipse cx="81.92" cy="197.007" rx="2.13878" ry="2.08562" fill="white"/>
</svg>