<svg width="301" height="259" viewBox="0 0 301 259" fill="none" xmlns="http://www.w3.org/2000/svg">
<path d="M256.91 186.046L257.027 186.281L257.286 186.318L263.28 187.185C263.281 187.185 263.281 187.185 263.281 187.185C263.428 187.207 263.517 187.338 263.497 187.467L263.497 187.467L263.496 187.472C263.489 187.525 263.464 187.575 263.423 187.615C263.423 187.615 263.423 187.615 263.423 187.615L259.086 191.822L258.896 192.005L258.941 192.265L259.966 198.206L259.966 198.207C259.989 198.34 259.9 198.471 259.758 198.496L259.757 198.496C259.701 198.505 259.643 198.496 259.597 198.471L259.595 198.47L254.232 195.665L254 195.544L253.768 195.665L248.406 198.47L248.405 198.471C248.363 198.493 248.315 198.503 248.267 198.499C248.219 198.496 248.173 198.479 248.134 198.451C248.096 198.424 248.066 198.386 248.049 198.343C248.031 198.3 248.026 198.253 248.034 198.207L248.034 198.206L249.059 192.265L249.104 192.005L248.915 191.822L244.577 187.614L244.577 187.614C244.528 187.567 244.501 187.503 244.5 187.437C244.499 187.371 244.524 187.307 244.571 187.259C244.611 187.219 244.662 187.193 244.717 187.185L244.718 187.185L250.714 186.318L250.973 186.281L251.09 186.046L253.769 180.643C253.769 180.642 253.769 180.642 253.77 180.642C253.833 180.516 253.989 180.464 254.115 180.526L254.116 180.527C254.166 180.551 254.205 180.591 254.23 180.64L254.23 180.64L256.91 186.046Z" fill="white" stroke="white"/>
<path d="M240.91 6.04571L241.027 6.28089L241.286 6.31845L247.28 7.18507C247.281 7.1851 247.281 7.18513 247.281 7.18516C247.428 7.20717 247.517 7.33806 247.497 7.46656L247.497 7.46655L247.496 7.47211C247.489 7.52487 247.464 7.57486 247.423 7.61467C247.423 7.6148 247.423 7.61494 247.423 7.61507L243.086 11.8215L242.896 12.0053L242.941 12.2654L243.966 18.2065L243.966 18.2069C243.989 18.3397 243.9 18.4712 243.758 18.4955L243.757 18.4957C243.701 18.5054 243.643 18.4958 243.597 18.4713L243.595 18.4701L238.232 15.6652L238 15.544L237.768 15.6652L232.406 18.4701L232.405 18.4705C232.363 18.4927 232.315 18.5028 232.267 18.4994C232.219 18.496 232.173 18.4793 232.134 18.4514C232.096 18.4237 232.066 18.386 232.049 18.3429C232.031 18.2998 232.026 18.2528 232.034 18.2072L232.034 18.2065L233.059 12.2654L233.104 12.0053L232.915 11.8215L228.577 7.61417L228.577 7.61414C228.528 7.56713 228.501 7.50345 228.5 7.43726C228.499 7.37136 228.524 7.30729 228.571 7.25914C228.611 7.21884 228.662 7.19324 228.717 7.18547L228.718 7.1853L234.714 6.31845L234.973 6.28089L235.09 6.04571L237.769 0.642698C237.769 0.642382 237.769 0.642066 237.77 0.641751C237.833 0.516191 237.989 0.464286 238.115 0.526329L238.116 0.526613C238.166 0.551081 238.205 0.591106 238.23 0.63984L238.23 0.640273L240.91 6.04571Z" fill="white" stroke="white"/>
<path d="M34.91 246.046L35.0266 246.281L35.2864 246.318L41.2805 247.185C41.2807 247.185 41.2809 247.185 41.2811 247.185C41.4277 247.207 41.517 247.338 41.4971 247.467L41.497 247.467L41.4962 247.472C41.4887 247.525 41.4636 247.575 41.4229 247.615C41.4228 247.615 41.4227 247.615 41.4225 247.615L37.0855 251.822L36.896 252.005L36.9409 252.265L37.9658 258.206L37.9658 258.207C37.9889 258.34 37.8995 258.471 37.7576 258.496L37.7569 258.496C37.7006 258.505 37.6432 258.496 37.5968 258.471L37.5945 258.47L32.2318 255.665L32 255.544L31.7683 255.665L26.4056 258.47L26.4048 258.471C26.3625 258.493 26.3147 258.503 26.2667 258.499C26.2188 258.496 26.173 258.479 26.1345 258.451C26.096 258.424 26.0665 258.386 26.0489 258.343C26.0313 258.3 26.0263 258.253 26.0342 258.207L26.0343 258.206L27.0592 252.265L27.104 252.005L26.9146 251.822L22.5767 247.614L22.5766 247.614C22.5281 247.567 22.5009 247.503 22.5 247.437C22.4991 247.371 22.5245 247.307 22.5712 247.259C22.6112 247.219 22.6622 247.193 22.7169 247.185L22.7181 247.185L28.7137 246.318L28.9735 246.281L29.0901 246.046L31.7691 240.643C31.7692 240.642 31.7694 240.642 31.7695 240.642C31.8333 240.516 31.9886 240.464 32.115 240.526L32.1155 240.527C32.1655 240.551 32.2055 240.591 32.2296 240.64L32.2298 240.64L34.91 246.046Z" fill="white" stroke="white"/>
<path d="M293.91 103.046L294.027 103.281L294.286 103.318L300.28 104.185C300.281 104.185 300.281 104.185 300.281 104.185C300.428 104.207 300.517 104.338 300.497 104.467L300.497 104.467L300.496 104.472C300.489 104.525 300.464 104.575 300.423 104.615C300.423 104.615 300.423 104.615 300.423 104.615L296.086 108.822L295.896 109.005L295.941 109.265L296.966 115.206L296.966 115.207C296.989 115.34 296.9 115.471 296.758 115.496L296.757 115.496C296.701 115.505 296.643 115.496 296.597 115.471L296.595 115.47L291.232 112.665L291 112.544L290.768 112.665L285.406 115.47L285.405 115.471C285.363 115.493 285.315 115.503 285.267 115.499C285.219 115.496 285.173 115.479 285.134 115.451C285.096 115.424 285.066 115.386 285.049 115.343C285.031 115.3 285.026 115.253 285.034 115.207L285.034 115.206L286.059 109.265L286.104 109.005L285.915 108.822L281.577 104.614L281.577 104.614C281.528 104.567 281.501 104.503 281.5 104.437C281.499 104.371 281.524 104.307 281.571 104.259C281.611 104.219 281.662 104.193 281.717 104.185L281.718 104.185L287.714 103.318L287.973 103.281L288.09 103.046L290.769 97.6427C290.769 97.6424 290.769 97.6421 290.77 97.6418C290.833 97.5162 290.989 97.4643 291.115 97.5263L291.116 97.5266C291.166 97.5511 291.205 97.5911 291.23 97.6398L291.23 97.6403L293.91 103.046Z" fill="white" stroke="white"/>
<path d="M57.91 29.0457L58.0266 29.2809L58.2864 29.3185L64.2805 30.1851C64.2807 30.1851 64.2809 30.1851 64.2811 30.1852C64.4277 30.2072 64.517 30.3381 64.4971 30.4666L64.497 30.4666L64.4962 30.4721C64.4887 30.5249 64.4636 30.5749 64.4229 30.6147C64.4228 30.6148 64.4227 30.6149 64.4225 30.6151L60.0855 34.8215L59.896 35.0053L59.9409 35.2654L60.9658 41.2065L60.9658 41.2069C60.9889 41.3397 60.8995 41.4712 60.7576 41.4955L60.7569 41.4957C60.7006 41.5054 60.6432 41.4958 60.5968 41.4713L60.5945 41.4701L55.2318 38.6652L55 38.544L54.7683 38.6652L49.4056 41.4701L49.4048 41.4705C49.3625 41.4927 49.3147 41.5028 49.2667 41.4994C49.2188 41.496 49.173 41.4793 49.1345 41.4514C49.096 41.4237 49.0665 41.386 49.0489 41.3429C49.0313 41.2998 49.0263 41.2528 49.0342 41.2072L49.0343 41.2065L50.0592 35.2654L50.104 35.0053L49.9146 34.8215L45.5767 30.6142L45.5766 30.6141C45.5281 30.5671 45.5009 30.5035 45.5 30.4373C45.4991 30.3714 45.5245 30.3073 45.5712 30.2591C45.6112 30.2188 45.6622 30.1932 45.7169 30.1855L45.7181 30.1853L51.7137 29.3185L51.9735 29.2809L52.0901 29.0457L54.7691 23.6427C54.7692 23.6424 54.7694 23.6421 54.7695 23.6418C54.8333 23.5162 54.9886 23.4643 55.115 23.5263L55.1155 23.5266C55.1655 23.5511 55.2055 23.5911 55.2296 23.6398L55.2298 23.6403L57.91 29.0457Z" fill="white" stroke="white"/>
<path d="M12.91 130.046L13.0266 130.281L13.2864 130.318L19.2805 131.185C19.2807 131.185 19.2809 131.185 19.2811 131.185C19.4277 131.207 19.517 131.338 19.4971 131.467L19.497 131.467L19.4962 131.472C19.4887 131.525 19.4636 131.575 19.4229 131.615C19.4228 131.615 19.4227 131.615 19.4225 131.615L15.0855 135.822L14.896 136.005L14.9409 136.265L15.9658 142.206L15.9658 142.207C15.9889 142.34 15.8995 142.471 15.7576 142.496L15.7569 142.496C15.7006 142.505 15.6432 142.496 15.5968 142.471L15.5945 142.47L10.2318 139.665L10 139.544L9.76831 139.665L4.40556 142.47L4.40479 142.471C4.36255 142.493 4.3147 142.503 4.26675 142.499C4.21879 142.496 4.17298 142.479 4.13449 142.451C4.09602 142.424 4.0665 142.386 4.04891 142.343C4.03133 142.3 4.02627 142.253 4.03421 142.207L4.03432 142.206L5.05917 136.265L5.10405 136.005L4.91456 135.822L0.576659 131.614L0.576626 131.614C0.528148 131.567 0.500903 131.503 0.500022 131.437C0.499145 131.371 0.524457 131.307 0.571234 131.259C0.611211 131.219 0.662161 131.193 0.716869 131.185L0.718062 131.185L6.71367 130.318L6.97347 130.281L7.09008 130.046L9.76907 124.643C9.76923 124.642 9.76939 124.642 9.76955 124.642C9.8333 124.516 9.98863 124.464 10.115 124.526L10.1155 124.527C10.1655 124.551 10.2055 124.591 10.2296 124.64L10.2298 124.64L12.91 130.046Z" fill="white" stroke="white"/>
</svg>