<svg width="323" height="547" viewBox="0 0 323 547" fill="none" xmlns="http://www.w3.org/2000/svg">
<ellipse cx="38.8546" cy="91.7145" rx="2.49525" ry="2.43322" fill="white"/>
<ellipse cx="80.1388" cy="4.08562" rx="2.13878" ry="2.08562" fill="white"/>
<ellipse cx="0.712928" cy="57.3017" rx="0.712928" ry="0.695206" fill="white"/>
<ellipse cx="106.226" cy="140.031" rx="0.712928" ry="0.695206" fill="white"/>
<ellipse cx="182.509" cy="2.08562" rx="2.13878" ry="2.08562" fill="white"/>
<path d="M173.954 42.0065C173.954 43.1584 172.997 44.0921 171.816 44.0921C170.634 44.0921 169.677 43.1584 169.677 42.0065C169.677 40.8547 170.634 39.9209 171.816 39.9209C172.997 39.9209 173.954 40.8547 173.954 42.0065Z" fill="white"/>
<ellipse cx="141.16" cy="113.613" rx="2.13878" ry="2.08562" fill="white"/>
<ellipse cx="320.818" cy="6.08562" rx="2.13878" ry="2.08562" fill="white"/>
<ellipse cx="21.0313" cy="131.341" rx="1.78232" ry="1.73801" fill="white"/>
<ellipse cx="54.1827" cy="411.856" rx="1.42586" ry="1.39041" fill="white"/>
<ellipse cx="132.248" cy="534.56" rx="0.356464" ry="0.347603" fill="white"/>
<ellipse cx="65.5894" cy="545.336" rx="0.712928" ry="0.695206" fill="white"/>
<ellipse cx="5.7032" cy="352.764" rx="1.42586" ry="1.39041" fill="white"/>
<ellipse cx="31.4259" cy="330.39" rx="1.42586" ry="1.39041" fill="white"/>
<ellipse cx="38.4259" cy="364.39" rx="1.42586" ry="1.39041" fill="white"/>
<ellipse cx="16.754" cy="227.279" rx="1.78232" ry="1.73801" fill="white"/>
<ellipse cx="61.6683" cy="61.8202" rx="1.06939" ry="1.04281" fill="white"/>
<ellipse cx="116.92" cy="42.0065" rx="2.13878" ry="2.08562" fill="white"/>
</svg>
