<svg width="375" height="746" viewBox="0 0 375 746" fill="none" xmlns="http://www.w3.org/2000/svg">
<path fill-rule="evenodd" clip-rule="evenodd" d="M318.491 561.568C318.482 561.298 318.477 561.026 318.477 560.753C318.477 548.187 328.664 538 341.23 538C350.633 538 358.704 543.704 362.172 551.84C364.166 550.72 366.467 550.081 368.917 550.081C375.746 550.081 381.416 555.043 382.517 561.558H384.019C390.636 561.558 396 566.922 396 573.539C396 580.156 390.636 585.52 384.019 585.52H318.981C312.364 585.52 307 580.156 307 573.539C307 567.086 312.101 561.825 318.491 561.568Z" fill="white"/>
<path fill-rule="evenodd" clip-rule="evenodd" d="M-24.5087 513.568C-24.5182 513.298 -24.523 513.026 -24.523 512.753C-24.523 500.187 -14.336 490 -1.76967 490C7.6333 490 15.7041 495.704 19.1716 503.84C21.1659 502.72 23.467 502.081 25.9173 502.081C32.7459 502.081 38.4155 507.043 39.5168 513.558H41.0192C47.636 513.558 53 518.922 53 525.539C53 532.156 47.636 537.52 41.0192 537.52H-24.0192C-30.636 537.52 -35.9999 532.156 -35.9999 525.539C-35.9999 519.086 -30.8985 513.825 -24.5087 513.568Z" fill="white"/>
<path fill-rule="evenodd" clip-rule="evenodd" d="M1.8945 708.702C1.87967 708.28 1.87219 707.857 1.87219 707.433C1.87219 687.864 17.7359 672 37.3047 672C51.9471 672 64.515 680.882 69.915 693.551C73.0207 691.807 76.6042 690.812 80.42 690.812C91.0544 690.812 99.8837 698.54 101.598 708.686H103.938C114.241 708.686 122.594 717.039 122.594 727.343C122.594 737.647 114.241 746 103.938 746H2.65694C-7.647 746 -16 737.647 -16 727.343C-16 717.295 -8.05592 709.102 1.8945 708.702Z" fill="white"/>
<path fill-rule="evenodd" clip-rule="evenodd" d="M173.895 615.702C173.88 615.28 173.872 614.857 173.872 614.433C173.872 594.864 189.736 579 209.305 579C223.947 579 236.515 587.882 241.915 600.551C245.021 598.807 248.604 597.812 252.42 597.812C263.054 597.812 271.884 605.54 273.598 615.686H275.938C286.241 615.686 294.594 624.039 294.594 634.343C294.594 644.647 286.241 653 275.938 653H174.657C164.353 653 156 644.647 156 634.343C156 624.295 163.944 616.102 173.895 615.702Z" fill="white"/>
<path fill-rule="evenodd" clip-rule="evenodd" d="M328.071 724.655C328.063 724.418 328.058 724.18 328.058 723.941C328.058 712.928 336.986 704 348 704C356.24 704 363.314 708.999 366.353 716.129C368.1 715.148 370.117 714.588 372.265 714.588C378.249 714.588 383.218 718.936 384.183 724.646H385.5C391.299 724.646 396 729.347 396 735.146C396 740.945 391.299 745.646 385.5 745.646H328.5C322.701 745.646 318 740.945 318 735.146C318 729.491 322.471 724.88 328.071 724.655Z" fill="white"/>
<ellipse cx="46.8546" cy="91.7145" rx="2.49525" ry="2.43322" fill="white"/>
<ellipse cx="88.1388" cy="4.08562" rx="2.13878" ry="2.08562" fill="white"/>
<ellipse cx="8.71293" cy="57.3017" rx="0.712928" ry="0.695206" fill="white"/>
<ellipse cx="114.226" cy="140.031" rx="0.712928" ry="0.695206" fill="white"/>
<ellipse cx="190.509" cy="2.08562" rx="2.13878" ry="2.08562" fill="white"/>
<path d="M181.954 42.0065C181.954 43.1584 180.997 44.0921 179.816 44.0921C178.634 44.0921 177.677 43.1584 177.677 42.0065C177.677 40.8547 178.634 39.9209 179.816 39.9209C180.997 39.9209 181.954 40.8547 181.954 42.0065Z" fill="white"/>
<ellipse cx="149.16" cy="113.613" rx="2.13878" ry="2.08562" fill="white"/>
<ellipse cx="328.818" cy="6.08562" rx="2.13878" ry="2.08562" fill="white"/>
<ellipse cx="29.0313" cy="131.341" rx="1.78232" ry="1.73801" fill="white"/>
<ellipse cx="62.1827" cy="411.856" rx="1.42586" ry="1.39041" fill="white"/>
<ellipse cx="140.248" cy="534.56" rx="0.356464" ry="0.347603" fill="white"/>
<ellipse cx="73.5894" cy="545.336" rx="0.712928" ry="0.695206" fill="white"/>
<ellipse cx="13.7032" cy="352.764" rx="1.42586" ry="1.39041" fill="white"/>
<ellipse cx="39.4259" cy="330.39" rx="1.42586" ry="1.39041" fill="white"/>
<ellipse cx="46.4259" cy="364.39" rx="1.42586" ry="1.39041" fill="white"/>
<ellipse cx="24.754" cy="227.279" rx="1.78232" ry="1.73801" fill="white"/>
<ellipse cx="69.6683" cy="61.8202" rx="1.06939" ry="1.04281" fill="white"/>
<ellipse cx="124.92" cy="42.0065" rx="2.13878" ry="2.08562" fill="white"/>
</svg>