<svg width="375" height="334" viewBox="0 0 375 334" fill="none" xmlns="http://www.w3.org/2000/svg">
<path fill-rule="evenodd" clip-rule="evenodd" d="M-26.6546 263.678C-26.6706 263.222 -26.6787 262.764 -26.6787 262.305C-26.6787 241.15 -9.52902 224 11.6262 224C27.4562 224 41.0433 233.602 46.8807 247.3C50.2381 245.414 54.1118 244.339 58.2368 244.339C69.7327 244.339 79.2775 252.693 81.1313 263.661H83.6606C94.7999 263.661 103.83 272.691 103.83 283.83C103.83 294.97 94.7999 304 83.6607 304H-25.8305C-36.9698 304 -45.9999 294.97 -45.9999 283.83C-45.9999 272.967 -37.4118 264.11 -26.6546 263.678Z" fill="white"/>
<path fill-rule="evenodd" clip-rule="evenodd" d="M276.895 296.702C276.88 296.28 276.872 295.857 276.872 295.433C276.872 275.864 292.736 260 312.305 260C326.947 260 339.515 268.882 344.915 281.551C348.021 279.807 351.604 278.812 355.42 278.812C366.054 278.812 374.884 286.54 376.598 296.686H378.938C389.241 296.686 397.594 305.039 397.594 315.343C397.594 325.647 389.241 334 378.938 334H277.657C267.353 334 259 325.647 259 315.343C259 305.295 266.944 297.102 276.895 296.702Z" fill="white"/>
<path fill-rule="evenodd" clip-rule="evenodd" d="M296.895 36.7017C296.88 36.2805 296.872 35.8574 296.872 35.4325C296.872 15.8637 312.736 0 332.305 0C346.947 0 359.515 8.88165 364.915 21.5515C368.021 19.8067 371.604 18.8116 375.42 18.8116C386.054 18.8116 394.884 26.5399 396.598 36.6864H398.938C409.241 36.6864 417.594 45.0394 417.594 55.3434C417.594 65.6473 409.241 74.0003 398.938 74.0003H297.657C287.353 74.0003 279 65.6473 279 55.3434C279 45.2948 286.944 37.1017 296.895 36.7017Z" fill="white"/>
</svg>