<svg width="323" height="547" viewBox="0 0 323 547" fill="none" xmlns="http://www.w3.org/2000/svg">
<path d="M35.91 177.046L36.0266 177.281L36.2864 177.318L42.2805 178.185C42.2807 178.185 42.2809 178.185 42.2811 178.185C42.4277 178.207 42.517 178.338 42.4971 178.467L42.497 178.467L42.4962 178.472C42.4887 178.525 42.4636 178.575 42.4229 178.615C42.4228 178.615 42.4227 178.615 42.4225 178.615L38.0855 182.822L37.896 183.005L37.9409 183.265L38.9658 189.206L38.9658 189.207C38.9889 189.34 38.8995 189.471 38.7576 189.496L38.7569 189.496C38.7006 189.505 38.6432 189.496 38.5968 189.471L38.5945 189.47L33.2318 186.665L33 186.544L32.7683 186.665L27.4056 189.47L27.4048 189.471C27.3625 189.493 27.3147 189.503 27.2667 189.499C27.2188 189.496 27.173 189.479 27.1345 189.451C27.096 189.424 27.0665 189.386 27.0489 189.343C27.0313 189.3 27.0263 189.253 27.0342 189.207L27.0343 189.206L28.0592 183.265L28.104 183.005L27.9146 182.822L23.5767 178.614L23.5766 178.614C23.5281 178.567 23.5009 178.503 23.5 178.437C23.4991 178.371 23.5245 178.307 23.5712 178.259C23.6112 178.219 23.6622 178.193 23.7169 178.185L23.7181 178.185L29.7137 177.318L29.9735 177.281L30.0901 177.046L32.7691 171.643C32.7692 171.642 32.7694 171.642 32.7695 171.642C32.8333 171.516 32.9886 171.464 33.115 171.526L33.1155 171.527C33.1655 171.551 33.2055 171.591 33.2296 171.64L33.2298 171.64L35.91 177.046Z" fill="white" stroke="white"/>
<path d="M172.91 64.0457L173.027 64.2809L173.286 64.3185L179.28 65.1851C179.281 65.1851 179.281 65.1851 179.281 65.1852C179.428 65.2072 179.517 65.3381 179.497 65.4666L179.497 65.4666L179.496 65.4721C179.489 65.5249 179.464 65.5749 179.423 65.6147C179.423 65.6148 179.423 65.6149 179.423 65.6151L175.086 69.8215L174.896 70.0053L174.941 70.2654L175.966 76.2065L175.966 76.2069C175.989 76.3397 175.9 76.4712 175.758 76.4955L175.757 76.4957C175.701 76.5054 175.643 76.4958 175.597 76.4713L175.595 76.4701L170.232 73.6652L170 73.544L169.768 73.6652L164.406 76.4701L164.405 76.4705C164.363 76.4927 164.315 76.5028 164.267 76.4994C164.219 76.496 164.173 76.4793 164.134 76.4514C164.096 76.4237 164.066 76.386 164.049 76.3429C164.031 76.2998 164.026 76.2528 164.034 76.2072L164.034 76.2065L165.059 70.2654L165.104 70.0053L164.915 69.8215L160.577 65.6142L160.577 65.6141C160.528 65.5671 160.501 65.5035 160.5 65.4373C160.499 65.3714 160.524 65.3073 160.571 65.2591C160.611 65.2188 160.662 65.1932 160.717 65.1855L160.718 65.1853L166.714 64.3185L166.973 64.2809L167.09 64.0457L169.769 58.6427C169.769 58.6424 169.769 58.6421 169.77 58.6418C169.833 58.5162 169.989 58.4643 170.115 58.5263L170.116 58.5266C170.166 58.5511 170.205 58.5911 170.23 58.6398L170.23 58.6403L172.91 64.0457Z" fill="white" stroke="white"/>
<path d="M290.91 122.046L291.027 122.281L291.286 122.318L297.28 123.185C297.281 123.185 297.281 123.185 297.281 123.185C297.428 123.207 297.517 123.338 297.497 123.467L297.497 123.467L297.496 123.472C297.489 123.525 297.464 123.575 297.423 123.615C297.423 123.615 297.423 123.615 297.423 123.615L293.086 127.822L292.896 128.005L292.941 128.265L293.966 134.206L293.966 134.207C293.989 134.34 293.9 134.471 293.758 134.496L293.757 134.496C293.701 134.505 293.643 134.496 293.597 134.471L293.595 134.47L288.232 131.665L288 131.544L287.768 131.665L282.406 134.47L282.405 134.471C282.363 134.493 282.315 134.503 282.267 134.499C282.219 134.496 282.173 134.479 282.134 134.451C282.096 134.424 282.066 134.386 282.049 134.343C282.031 134.3 282.026 134.253 282.034 134.207L282.034 134.206L283.059 128.265L283.104 128.005L282.915 127.822L278.577 123.614L278.577 123.614C278.528 123.567 278.501 123.503 278.5 123.437C278.499 123.371 278.524 123.307 278.571 123.259C278.611 123.219 278.662 123.193 278.717 123.185L278.718 123.185L284.714 122.318L284.973 122.281L285.09 122.046L287.769 116.643C287.769 116.642 287.769 116.642 287.77 116.642C287.833 116.516 287.989 116.464 288.115 116.526L288.116 116.527C288.166 116.551 288.205 116.591 288.23 116.64L288.23 116.64L290.91 122.046Z" fill="white" stroke="white"/>
<path d="M56.91 54.0457L57.0266 54.2809L57.2864 54.3185L63.2805 55.1851C63.2807 55.1851 63.2809 55.1851 63.2811 55.1852C63.4277 55.2072 63.517 55.3381 63.4971 55.4666L63.497 55.4666L63.4962 55.4721C63.4887 55.5249 63.4636 55.5749 63.4229 55.6147C63.4228 55.6148 63.4227 55.6149 63.4225 55.6151L59.0855 59.8215L58.896 60.0053L58.9409 60.2654L59.9658 66.2065L59.9658 66.2069C59.9889 66.3397 59.8995 66.4712 59.7576 66.4955L59.7569 66.4957C59.7006 66.5054 59.6432 66.4958 59.5968 66.4713L59.5945 66.4701L54.2318 63.6652L54 63.544L53.7683 63.6652L48.4056 66.4701L48.4048 66.4705C48.3625 66.4927 48.3147 66.5028 48.2667 66.4994C48.2188 66.496 48.173 66.4793 48.1345 66.4514C48.096 66.4237 48.0665 66.386 48.0489 66.3429C48.0313 66.2998 48.0263 66.2528 48.0342 66.2072L48.0343 66.2065L49.0592 60.2654L49.104 60.0053L48.9146 59.8215L44.5767 55.6142L44.5766 55.6141C44.5281 55.5671 44.5009 55.5035 44.5 55.4373C44.4991 55.3714 44.5245 55.3073 44.5712 55.2591C44.6112 55.2188 44.6622 55.1932 44.7169 55.1855L44.7181 55.1853L50.7137 54.3185L50.9735 54.2809L51.0901 54.0457L53.7691 48.6427C53.7692 48.6424 53.7694 48.6421 53.7695 48.6418C53.8333 48.5162 53.9886 48.4643 54.115 48.5263L54.1155 48.5266C54.1655 48.5511 54.2055 48.5911 54.2296 48.6398L54.2298 48.6403L56.91 54.0457Z" fill="white" stroke="white"/>
<ellipse cx="38.8546" cy="91.7145" rx="2.49525" ry="2.43322" fill="white"/>
<ellipse cx="80.1388" cy="4.08562" rx="2.13878" ry="2.08562" fill="white"/>
<ellipse cx="0.712928" cy="57.3007" rx="0.712928" ry="0.695206" fill="white"/>
<ellipse cx="106.226" cy="140.031" rx="0.712928" ry="0.695206" fill="white"/>
<ellipse cx="182.509" cy="2.08562" rx="2.13878" ry="2.08562" fill="white"/>
<path d="M173.954 42.0075C173.954 43.1593 172.997 44.0931 171.816 44.0931C170.634 44.0931 169.677 43.1593 169.677 42.0075C169.677 40.8556 170.634 39.9219 171.816 39.9219C172.997 39.9219 173.954 40.8556 173.954 42.0075Z" fill="white"/>
<ellipse cx="141.16" cy="113.613" rx="2.13878" ry="2.08562" fill="white"/>
<ellipse cx="320.818" cy="6.08562" rx="2.13878" ry="2.08562" fill="white"/>
<ellipse cx="21.0313" cy="131.342" rx="1.78232" ry="1.73801" fill="white"/>
<ellipse cx="132.248" cy="534.56" rx="0.356464" ry="0.347603" fill="white"/>
<ellipse cx="65.5894" cy="545.336" rx="0.712928" ry="0.695206" fill="white"/>
<ellipse cx="5.7032" cy="352.763" rx="1.42586" ry="1.39041" fill="white"/>
<ellipse cx="31.4259" cy="330.39" rx="1.42586" ry="1.39041" fill="white"/>
<ellipse cx="38.4259" cy="364.39" rx="1.42586" ry="1.39041" fill="white"/>
<ellipse cx="16.754" cy="227.279" rx="1.78232" ry="1.73801" fill="white"/>
<ellipse cx="61.6683" cy="61.8202" rx="1.06939" ry="1.04281" fill="white"/>
<ellipse cx="116.92" cy="42.0075" rx="2.13878" ry="2.08562" fill="white"/>
</svg>