<svg width="375" height="242" viewBox="0 0 375 242" fill="none" xmlns="http://www.w3.org/2000/svg">
<path fill-rule="evenodd" clip-rule="evenodd" d="M-11.1055 210.702C-11.1203 210.28 -11.1278 209.857 -11.1278 209.433C-11.1278 189.864 4.73588 174 24.3047 174C38.9471 174 51.515 182.882 56.915 195.551C60.0207 193.807 63.6042 192.812 67.42 192.812C78.0544 192.812 86.8837 200.54 88.598 210.686H90.9375C101.241 210.686 109.594 219.039 109.594 229.343C109.594 239.647 101.241 248 90.9375 248H-10.3431C-20.647 248 -29 239.647 -29 229.343C-29 219.295 -21.0559 211.102 -11.1055 210.702Z" fill="white"/>
<path fill-rule="evenodd" clip-rule="evenodd" d="M286.895 36.7017C286.88 36.2805 286.872 35.8574 286.872 35.4325C286.872 15.8637 302.736 0 322.305 0C336.947 0 349.515 8.88166 354.915 21.5515C358.021 19.8067 361.604 18.8116 365.42 18.8116C376.054 18.8116 384.884 26.5399 386.598 36.6864H388.938C399.241 36.6864 407.594 45.0394 407.594 55.3434C407.594 65.6473 399.241 74.0003 388.938 74.0003H287.657C277.353 74.0003 269 65.6473 269 55.3434C269 45.2948 276.944 37.1017 286.895 36.7017Z" fill="white"/>
</svg>