<svg width="35" height="35" viewBox="0 0 35 35" fill="none" xmlns="http://www.w3.org/2000/svg">
<path fill-rule="evenodd" clip-rule="evenodd" d="M29.9004 5.08699C28.286 3.46969 26.3652 2.18729 24.2493 1.3141C22.1333 0.4409 19.8643 -0.00573846 17.5737 5.5659e-05C7.96865 5.5659e-05 0.149473 7.78018 0.14559 17.3435C0.14559 20.3999 0.947308 23.3829 2.47115 26.0143L0 35L9.23819 32.5869C11.7936 33.9714 14.6565 34.6973 17.566 34.6986H17.5737C27.1769 34.6986 34.996 26.9185 34.9999 17.3551C35.0065 15.0763 34.5592 12.8188 33.6839 10.7131C32.8086 8.60732 31.5227 6.69512 29.9004 5.08699ZM17.5737 31.7716H17.5679C14.9735 31.7719 12.4269 31.0772 10.1952 29.7604L9.6672 29.4475L4.18524 30.8791L5.64697 25.5603L5.30337 25.0155C3.85288 22.7172 3.08503 20.0576 3.08846 17.3435C3.09234 9.39533 9.58955 2.92895 17.5796 2.92895C19.4824 2.92475 21.3672 3.29619 23.1249 4.02179C24.8826 4.74738 26.4782 5.81272 27.8194 7.15615C29.1678 8.49317 30.2366 10.0829 30.9639 11.8335C31.6913 13.5841 32.0628 15.4608 32.0571 17.3551C32.0532 25.3033 25.556 31.7716 17.5737 31.7716ZM25.5191 20.9737C25.0823 20.7554 22.9431 19.7083 22.5432 19.5634C22.1453 19.4185 21.856 19.347 21.5648 19.7798C21.2737 20.2125 20.4389 21.1882 20.1847 21.478C19.9304 21.7678 19.6761 21.8026 19.2412 21.5862C18.8064 21.3698 17.4029 20.9119 15.7393 19.4359C14.4445 18.2864 13.571 16.8683 13.3167 16.4336C13.0624 15.9989 13.2895 15.7651 13.5088 15.5487C13.7049 15.3555 13.9437 15.0425 14.1611 14.7894C14.3785 14.5364 14.4503 14.3567 14.5959 14.0669C14.7415 13.7771 14.6697 13.524 14.559 13.3076C14.4503 13.0893 13.5787 10.9564 13.2157 10.0889C12.8644 9.2485 12.5052 9.36055 12.2374 9.34896C11.9599 9.33767 11.6823 9.33251 11.4046 9.3335C11.1838 9.3391 10.9665 9.39004 10.7664 9.48313C10.5663 9.57622 10.3877 9.70945 10.2418 9.87446C9.84191 10.3092 8.71795 11.3563 8.71795 13.4892C8.71795 15.6221 10.2787 17.6836 10.4961 17.9734C10.7135 18.2632 13.5671 22.6391 17.9348 24.517C18.9753 24.9633 19.7867 25.2299 20.4176 25.4309C21.46 25.7612 22.4093 25.7129 23.1605 25.6028C23.9972 25.4792 25.7365 24.5557 26.0995 23.5433C26.4625 22.5309 26.4625 21.6635 26.3538 21.4819C26.2451 21.3003 25.952 21.1901 25.5191 20.9737Z" fill="black"/>
</svg>
