<svg width="30" height="30" viewBox="0 0 30 30" fill="none" xmlns="http://www.w3.org/2000/svg">
<path d="M9.26472 30.001V20.0245C8.15295 19.4598 7.41178 18.1421 7.41178 16.8245V9.29505C7.41178 7.9774 8.15295 6.84799 9.26472 6.09504V5.53034C9.26472 3.45975 7.59707 1.76562 5.55883 1.76562C3.52059 1.76562 1.85294 3.45975 1.85294 5.53034C1.85294 7.60093 3.52059 9.29505 5.55883 9.29505H1.85294C0.926472 9.29505 0 10.2362 0 11.1774V18.7068C0 19.648 0.926472 20.5892 1.85294 20.5892V30.001H9.26472Z" fill="black"/>
<path d="M28.1471 9.29505H24.4412C26.4795 9.29505 28.1471 7.60093 28.1471 5.53034C28.1471 3.45975 26.4795 1.76562 24.4412 1.76562C22.403 1.76562 20.7354 3.45975 20.7354 5.53034V6.09504C21.8471 6.84799 22.5883 7.9774 22.5883 9.29505V16.8245C22.5883 18.1421 21.8471 19.4598 20.7354 20.0245V30.001H28.1471V20.5892C29.0736 20.5892 30.0001 19.648 30.0001 18.7068V11.1774C30.0001 10.2362 29.0736 9.29505 28.1471 9.29505Z" fill="black"/>
<path d="M18.9696 3.66523C18.9809 4.16461 18.8923 4.66122 18.7091 5.1259C18.5258 5.59058 18.2515 6.01396 17.9024 6.37118C17.5532 6.7284 17.1362 7.01227 16.6759 7.20612C16.2155 7.39997 15.721 7.49989 15.2215 7.50001C14.722 7.50014 14.2275 7.40046 13.767 7.20685C13.3066 7.01323 12.8894 6.72957 12.5401 6.37252C12.1908 6.01547 11.9163 5.59223 11.7328 5.12764C11.5493 4.66306 11.4605 4.16649 11.4715 3.6671C11.4932 2.6873 11.8975 1.75491 12.5981 1.06953C13.2986 0.384148 14.2396 0.00024519 15.2197 1.17407e-07C16.1997 -0.000244955 17.1409 0.383187 17.8418 1.06822C18.5426 1.75325 18.9475 2.68543 18.9696 3.66523Z" fill="black"/>
<path d="M18.8235 7.5H11.1764C10.2205 7.5 9.26465 8.4375 9.26465 9.375V16.875C9.26465 17.8125 10.2205 18.75 11.1764 18.75V30H18.8235V18.75C19.7794 18.75 20.7353 17.8125 20.7353 16.875V9.375C20.7353 8.4375 19.7794 7.5 18.8235 7.5Z" fill="black"/>
</svg>
