<svg width="35" height="35" viewBox="0 0 35 35" fill="none" xmlns="http://www.w3.org/2000/svg">
<path d="M19.8111 34.5077L19.8017 34.5161C19.7919 34.5265 19.7812 34.536 19.7705 34.5455C19.7646 34.5507 19.7586 34.556 19.7528 34.5615L20.1473 33.5741C20.1475 33.5803 20.1485 33.5864 20.1495 33.5924C20.1506 33.5992 20.1517 33.606 20.1517 33.6131C20.1572 33.9345 20.0411 34.2461 19.8264 34.4855C19.8238 34.4887 19.8219 34.4919 19.82 34.4952C19.8175 34.4994 19.815 34.5035 19.8111 34.5077ZM19.8111 34.5077L19.709 34.4124L19.5515 34.2653L19.0801 33.8253C19.0781 33.8275 19.076 33.8297 19.074 33.8319C19.073 33.833 19.072 33.8341 19.071 33.8352C19.0698 33.8365 19.0686 33.8378 19.0675 33.8391C19.0605 33.8468 19.054 33.8545 19.0477 33.8619C19.023 33.8914 19.0032 33.9184 18.9889 33.9395M19.8111 34.5077L19.7026 34.3863L19.6492 34.3266L19.1447 33.7621L19.1353 33.7705L19.1029 33.7994L19.0941 33.8088L18.9889 33.9395M18.9889 33.9395L19.1237 34.2339L19.3067 34.6336L19.3879 34.811L18.9889 33.9395ZM17.7542 28.8507C18.1023 28.8422 18.4497 28.8179 18.7955 28.7778C18.8246 28.7797 18.8532 28.7861 18.8804 28.7968C18.9152 28.8104 18.9469 28.8307 18.9738 28.8565L19.667 28.1358L18.9738 28.8565C19.0006 28.8823 19.022 28.9131 19.0369 28.9471C19.0475 28.9715 19.0547 28.9972 19.0581 29.0234C19.0573 29.0394 19.0568 29.0573 19.0568 29.0765V30.0765H19.0798L19.1474 33.5933L19.1476 33.6022L19.1479 33.6111C19.1486 33.6285 19.1496 33.6447 19.1508 33.6594C19.1456 33.7179 19.1216 33.7736 19.0819 33.8179L19.0714 33.8296C19.0704 33.8305 19.0694 33.8314 19.0684 33.8324L19.0645 33.836C19.0354 33.8637 19.0021 33.8866 18.9659 33.9039L18.9565 33.9084C18.9148 33.9259 18.874 33.9368 18.8431 33.943C18.8305 33.9455 18.8213 33.9469 18.8169 33.9475L18.811 33.9479C18.4853 33.9736 18.1589 33.9899 17.8322 33.9969C8.72793 34.172 1.17833 26.9118 1.00311 17.8176C0.827885 8.72385 8.09169 1.17821 17.1959 1.00309L17.196 1.00308C21.7302 0.915625 25.8618 2.6951 28.909 5.61814L29.521 6.20518L30.2002 5.69733L30.4271 5.52765L30.4281 5.52692L32.9324 3.65903L33.2142 16.0613L21.3647 12.2807L23.8667 10.4162L23.868 10.4151L24.3555 10.0506L25.4207 9.25395L24.3594 8.45198C22.4037 6.97405 19.9598 6.09915 17.3117 6.15014C11.0477 6.27092 6.04872 11.4588 6.16964 17.7193C6.29003 23.9792 11.4851 28.9716 17.7491 28.8508L17.7542 28.8507ZM19.0668 28.9276L19.0664 28.9308C19.0668 28.9277 19.0671 28.9252 19.0668 28.9276ZM19.1614 33.7461L19.1624 33.7526L19.1627 33.7544L19.1614 33.7461ZM33.2223 16.4178C33.2223 16.4174 33.2223 16.417 33.2223 16.4167L33.2223 16.4177V16.4178ZM19.1628 33.755C19.1628 33.7551 19.1628 33.755 19.1627 33.7548L19.1628 33.755ZM19.066 28.9344L19.9533 28.5468L19.066 28.9344Z" stroke="black" stroke-width="2"/>
</svg>
