<svg width="28" height="25" viewBox="0 0 28 25" fill="none" xmlns="http://www.w3.org/2000/svg">
<path d="M27.3226 5.12325C26.8881 4.12069 26.2617 3.21218 25.4784 2.44858C24.6945 1.6827 23.7702 1.07406 22.7558 0.655771C21.704 0.220306 20.5759 -0.00259 19.4369 2.27053e-05C17.8391 2.27053e-05 16.2801 0.436111 14.9253 1.25983C14.6012 1.45688 14.2933 1.67331 14.0016 1.90912C13.7099 1.67331 13.402 1.45688 13.0779 1.25983C11.7231 0.436111 10.1641 2.27053e-05 8.56626 2.27053e-05C7.41566 2.27053e-05 6.30072 0.219682 5.24736 0.655771C4.22965 1.07571 3.31242 1.67977 2.52483 2.44858C1.74047 3.21132 1.1139 4.12005 0.680633 5.12325C0.230119 6.16664 0 7.27462 0 8.41491C0 9.4906 0.220396 10.6115 0.657946 11.7518C1.02419 12.7047 1.54925 13.6932 2.22016 14.6914C3.28325 16.271 4.74499 17.9184 6.56001 19.5885C9.56776 22.3568 12.5463 24.2691 12.6727 24.3467L13.4409 24.8377C13.7812 25.0541 14.2188 25.0541 14.5591 24.8377L15.3272 24.3467C15.4536 24.2659 18.429 22.3568 21.44 19.5885C23.255 17.9184 24.7167 16.271 25.7798 14.6914C26.4507 13.6932 26.979 12.7047 27.342 11.7518C27.7796 10.6115 28 9.4906 28 8.41491C28.0032 7.27462 27.7731 6.16664 27.3226 5.12325Z" fill="black"/>
</svg>
