<svg width="51" height="35" viewBox="0 0 51 35" fill="none" xmlns="http://www.w3.org/2000/svg">
<path d="M48.6295 1.75469C45.5927 0.483594 42.5536 9.39655e-08 39.516 9.39655e-08C29.8732 -0.000781156 20.2312 4.87031 10.5885 4.87031C8.17016 4.87031 5.7534 4.56406 3.33508 3.79844C3.06342 3.7125 2.79098 3.67188 2.5248 3.67188C1.17746 3.67188 0 4.7125 0 6.15703V30.943C0 31.9297 0.566024 32.8648 1.47495 33.2445C4.51175 34.5164 7.5509 35 10.5885 35C20.2312 35 29.874 30.1289 39.5168 30.1289C41.9351 30.1289 44.3519 30.4352 46.7702 31.2008C47.0418 31.2867 47.3143 31.3273 47.5805 31.3273C48.9278 31.3273 50.1053 30.2867 50.1053 28.8422V4.05703C50.1045 3.06953 49.5385 2.13516 48.6295 1.75469ZM3.75784 7.82969C5.333 8.22344 6.97705 8.42109 8.66808 8.52734C8.20774 10.8234 6.18477 12.5539 3.75784 12.5539V7.82969ZM3.75784 30.0953V26.3625C6.4486 26.3625 8.6258 28.493 8.74558 31.1594C6.98175 31.018 5.333 30.6664 3.75784 30.0953ZM25.0522 25C21.5927 25 18.7892 21.6414 18.7892 17.5C18.7892 13.3578 21.5935 10 25.0522 10C28.511 10 31.3153 13.3578 31.3153 17.5C31.3153 21.643 28.5102 25 25.0522 25ZM46.3466 27.1703C44.975 26.8273 43.551 26.6352 42.094 26.5109C42.5536 24.4734 44.247 22.9266 46.3466 22.6609V27.1703ZM46.3466 8.72422C43.9283 8.41875 42.0518 6.40391 41.9774 3.91563C43.5071 4.08516 44.9594 4.40234 46.3466 4.90469V8.72422Z" fill="black"/>
</svg>
