<svg width="212" height="222" viewBox="0 0 212 222" fill="none" xmlns="http://www.w3.org/2000/svg">
<path d="M85.8028 37.4219C40.4296 47.1013 6.47279 85.2857 3.38576 131.525C1.75374 155.97 8.88604 182.035 36.5982 201.881C86.1366 237.357 122.636 203.138 140.284 178.98C148.826 167.309 158.959 156.887 170.387 148.016C190.937 132.031 216.914 100.757 179.642 60.8785C152.627 31.9747 116.026 30.9745 85.8028 37.4219Z" fill="#F2F2F2"/>
<path d="M124.242 94.8418H86.8257V136.68H124.242V94.8418Z" fill="#CCCCCC"/>
<path d="M67.7776 199.607H48.7294L46.6885 183.28H69.8185L67.7776 199.607Z" fill="#A6C9FF"/>
<path d="M106.027 187.78L105.384 196.568C105.355 196.966 105.411 197.365 105.549 197.739C105.687 198.114 105.903 198.454 106.184 198.738C106.464 199.022 106.801 199.242 107.174 199.385C107.546 199.527 107.945 199.588 108.343 199.564L112.857 199.291C113.066 199.278 113.27 199.22 113.454 199.119C113.638 199.019 113.797 198.879 113.921 198.71C114.045 198.541 114.13 198.347 114.171 198.142C114.211 197.936 114.205 197.724 114.155 197.521L111.649 187.499L106.027 187.78Z" fill="#2F2E41"/>
<path d="M143.735 193.047C149.047 194.29 152.842 196.056 155.335 198.447C156.223 199.291 157.384 199.789 158.608 199.85C160.172 199.932 161.45 199.757 162.411 199.328H162.411C162.657 199.219 162.87 199.047 163.027 198.828C163.184 198.61 163.279 198.354 163.304 198.086C163.333 197.814 163.289 197.539 163.176 197.29C163.063 197.04 162.885 196.826 162.661 196.669L150.063 187.704L144.711 189.845L143.463 191.093C143.327 191.229 143.225 191.393 143.165 191.575C143.104 191.756 143.086 191.949 143.112 192.138C143.139 192.327 143.209 192.508 143.317 192.666C143.425 192.823 143.568 192.954 143.735 193.047H143.735Z" fill="#2F2E41"/>
<path d="M127.433 49.4985L91.4209 49.1651C91.5115 43.9198 92.7318 38.769 95.3995 34.1599C97.1515 31.1328 97.1137 27.8383 96.6914 25.0629C96.0399 20.7797 97.555 16.3974 100.922 13.6709C103.495 11.5837 106.742 10.5092 110.052 10.65L110.752 10.6791C113.029 10.7738 115.247 11.4391 117.2 12.6141C119.154 13.7891 120.781 15.4361 121.932 17.4037C123.103 19.5043 123.574 21.9226 123.28 24.309C123.052 26.5544 123.598 28.8227 124.875 31.1126C127.079 36.1408 127.557 42.5751 127.433 49.4985Z" fill="#2F2E41"/>
<path d="M151.528 188.104L144.46 189.948L110.043 114.967L112.194 188.104H105.126C97.5735 153.695 83.938 113.984 90.0683 101.446L126.637 99.2949L151.528 188.104Z" fill="#D7D0FF"/>
<path d="M109.598 36.3081C114.92 36.3081 119.235 32.2628 119.235 27.2727C119.235 22.2826 114.92 18.2373 109.598 18.2373C104.275 18.2373 99.96 22.2826 99.96 27.2727C99.96 32.2628 104.275 36.3081 109.598 36.3081Z" fill="#FFB9B9"/>
<path d="M118.032 44.9035L102.36 43.9816C103.896 40.4564 104.509 37.0618 103.896 33.8408H115.574C115.547 36.3139 116.778 40.5919 118.032 44.9035Z" fill="#FFB9B9"/>
<path d="M127.865 102.06L93.4482 104.519L96.982 43.5205L102.974 41.8303L109.735 43.3667L116.495 39.9863L120.797 41.5231L127.865 102.06Z" fill="#D7D0FF"/>
<path d="M99.2871 146.004L75.7788 140.626C82.769 117.446 95.3623 64.4158 91.2973 45.5177L103.589 39.9863L99.2871 146.004Z" fill="white"/>
<path d="M87.917 79.0117L79.0054 73.4804L86.6054 51.2213C87.4531 48.9245 89.0766 46.996 91.1954 45.7693L93.7556 44.2871L92.2192 66.7198L87.917 79.0117Z" fill="white"/>
<path d="M148.301 140.932C140.882 145.225 122.335 147.618 114.191 144.619C113.592 123.676 112.417 64.4335 116.189 39.3701L129.71 44.9015L128.481 61.4955C122.016 75.6908 140.787 125.133 148.301 140.932Z" fill="white"/>
<path d="M147.226 76.2469L138.928 73.4812L127.866 60.8818L129.71 44.9023L148.147 70.7154L147.226 76.2469Z" fill="white"/>
<path d="M121.223 88.2101C121.359 88.8058 121.725 89.3234 122.242 89.6494C122.759 89.9754 123.384 90.0831 123.98 89.949L131.023 88.354L130.005 83.8584L122.962 85.4531C122.366 85.5882 121.848 85.9545 121.521 86.4715C121.195 86.9885 121.088 87.6139 121.223 88.2101Z" fill="#FFB9B9"/>
<path d="M118.032 24.9272C112.741 22.7515 107.515 22.594 102.36 24.6199L100.209 16.9375H119.876L118.032 24.9272Z" fill="#2F2E41"/>
<path d="M127.558 83.0087L131.553 90.3838C138.272 88.5098 144.096 82.6017 149.684 75.6335L148.147 70.7168L138.621 73.1752L127.558 83.0087Z" fill="white"/>
<path d="M75.4712 59.873L83.1405 61.2425L100.67 86.1671L91.3571 83.9759L75.4712 59.873Z" fill="#63DDFF"/>
<path d="M74.1112 59.5693C73.9944 59.5711 73.8801 59.6042 73.7804 59.6653C73.6808 59.7263 73.5993 59.813 73.5446 59.9163C73.4899 60.0195 73.464 60.1356 73.4695 60.2524C73.475 60.3691 73.5118 60.4823 73.576 60.5799L89.9614 85.4406C90.0528 85.5795 90.194 85.6782 90.356 85.7162L97.9796 87.5099C98.1081 87.5401 98.2428 87.5306 98.3658 87.4825C98.4888 87.4344 98.5943 87.3501 98.6682 87.2407C98.7422 87.1313 98.7811 87.002 98.7799 86.87C98.7787 86.738 98.7374 86.6094 98.6614 86.5014L80.6713 60.9217C80.6225 60.852 80.5605 60.7926 80.4887 60.7469C80.417 60.7012 80.3369 60.6701 80.2531 60.6554L74.2341 59.5804C74.1936 59.5732 74.1524 59.5694 74.1112 59.5693Z" fill="#3F3D56"/>
<path d="M84.3325 77.3428L84.7879 81.9297L91.974 81.2164C92.5823 81.156 93.1416 80.8565 93.5291 80.3837C93.9165 79.9109 94.1002 79.3036 94.0398 78.6953C93.9795 78.087 93.68 77.5277 93.2072 77.1402C92.7344 76.7528 92.127 76.5691 91.5188 76.6294L84.3325 77.3428Z" fill="#FFB9B9"/>
<path d="M78.084 76.8106C78.0944 78.3747 78.7226 79.8712 79.8316 80.9742C80.9406 82.0771 82.4406 82.697 84.0047 82.6988H85.1863L86.0466 75.53L78.924 72.9658L78.084 76.8106Z" fill="white"/>
<path d="M43.8373 177.24C48.7421 183.808 58.9235 184.5 58.9235 184.5C58.9235 184.5 61.1527 174.541 56.2479 167.973C51.3431 161.404 41.1617 160.713 41.1617 160.713C41.1617 160.713 38.9325 170.671 43.8373 177.24Z" fill="#ABFFBE"/>
<path d="M68.8236 179.709C65.5871 184.044 58.8687 184.5 58.8687 184.5C58.8687 184.5 57.3977 177.929 60.6342 173.594C63.8708 169.26 70.5892 168.804 70.5892 168.804C70.5892 168.804 72.0601 175.375 68.8236 179.709Z" fill="#ABFFBE"/>
<path d="M212 199.488H35.2739V200.25H212V199.488Z" fill="#3F3D56"/>
<path d="M109.766 12.8671C113.148 12.8671 115.889 10.202 115.889 6.91449C115.889 3.62697 113.148 0.961914 109.766 0.961914C106.385 0.961914 103.644 3.62697 103.644 6.91449C103.644 10.202 106.385 12.8671 109.766 12.8671Z" fill="#2F2E41"/>
<path d="M102.407 5.72239C102.407 4.71054 102.777 3.73479 103.445 2.98439C104.114 2.234 105.033 1.76246 106.024 1.66124C105.892 1.6479 105.758 1.64062 105.622 1.64062C104.556 1.64063 103.534 2.07067 102.78 2.83615C102.026 3.60163 101.603 4.63984 101.603 5.72239C101.603 6.80494 102.026 7.84316 102.78 8.60864C103.534 9.37412 104.556 9.80416 105.622 9.80416C105.758 9.80416 105.892 9.79688 106.024 9.78354C105.033 9.68232 104.114 9.21078 103.445 8.46038C102.777 7.70999 102.407 6.73424 102.407 5.72239Z" fill="#2F2E41"/>
<path d="M92.7819 58.0432H99.9102V64.4262C99.9102 65.5031 99.0372 66.3762 97.9602 66.3762H94.7319C93.655 66.3762 92.7819 65.5031 92.7819 64.4262V58.0432Z" stroke="#696969" stroke-width="0.1"/>
</svg>
