<svg width="319" height="248" viewBox="0 0 319 248" fill="none" xmlns="http://www.w3.org/2000/svg">
<path d="M236.247 141.667L172.922 62.4412C170.046 65.0739 166.503 66.8649 162.68 67.6185C150.759 69.9691 139.116 61.8184 136.676 49.4133C134.951 40.6443 138.29 32.1016 144.605 27.0139L123.013 0L0 105.257L113.234 246.925L236.247 141.667Z" fill="#F2F2F2"/>
<path d="M26.6943 246.925H319" stroke="#3F3D56" stroke-width="0.8" stroke-miterlimit="10"/>
<path d="M203.546 24.0247C206.126 24.0247 208.218 21.9332 208.218 19.3532C208.218 16.7732 206.126 14.6816 203.546 14.6816C200.966 14.6816 198.875 16.7732 198.875 19.3532C198.875 21.9332 200.966 24.0247 203.546 24.0247Z" stroke="#3F3D56" stroke-width="2" stroke-miterlimit="10"/>
<path d="M267.613 164.171C270.193 164.171 272.285 162.08 272.285 159.5C272.285 156.92 270.193 154.828 267.613 154.828C265.033 154.828 262.941 156.92 262.941 159.5C262.941 162.08 265.033 164.171 267.613 164.171Z" stroke="#3F3D56" stroke-width="2" stroke-miterlimit="10"/>
<path d="M56.0586 36.0374C59.0072 36.0374 61.3976 33.9459 61.3976 31.3659C61.3976 28.7859 59.0072 26.6943 56.0586 26.6943C53.11 26.6943 50.7197 28.7859 50.7197 31.3659C50.7197 33.9459 53.11 36.0374 56.0586 36.0374Z" stroke="#3F3D56" stroke-width="2" stroke-miterlimit="10"/>
<path d="M157.498 62.7322C167.081 62.7322 174.849 54.9637 174.849 45.3808C174.849 35.7978 167.081 28.0293 157.498 28.0293C147.915 28.0293 140.146 35.7978 140.146 45.3808C140.146 54.9637 147.915 62.7322 157.498 62.7322Z" fill="#F2F2F2"/>
<path d="M51.761 36.0384H130.452C134.249 36.0384 137.933 37.3365 140.899 39.7192C143.864 42.1018 145.935 45.4274 146.77 49.1492L186.531 226.344C186.964 228.277 186.972 230.281 186.553 232.217C186.134 234.153 185.299 235.974 184.106 237.551C182.912 239.129 181.39 240.425 179.646 241.348C177.901 242.272 175.977 242.801 174.007 242.899L93.1128 246.903C88.7812 247.118 84.5198 245.741 81.124 243.031C77.7282 240.321 75.4298 236.462 74.6579 232.174L52.1031 106.895L50.4252 107.377L46.1095 83.6317L47.8368 83.1979L41.5409 48.2281C41.2713 46.7302 41.3338 45.1911 41.7241 43.7203C42.1144 42.2496 42.8228 40.8834 43.7988 39.7193C44.7748 38.5552 45.9945 37.6217 47.3707 36.9855C48.747 36.3492 50.246 36.0259 51.761 36.0384Z" fill="#3F3D56"/>
<path d="M120.175 40.042H129.34C131.972 40.042 134.525 40.9482 136.575 42.6101C138.625 44.272 140.049 46.5897 140.61 49.1784L178.689 224.875C178.908 225.887 178.908 226.934 178.688 227.946C178.469 228.957 178.035 229.909 177.416 230.736C176.798 231.563 176.009 232.246 175.104 232.739C174.2 233.231 173.2 233.521 172.174 233.589L91.7216 238.897C89.4519 239.046 87.2069 238.349 85.415 236.939C83.6231 235.529 82.4098 233.504 82.0065 231.25L49.5132 49.6503C49.3029 48.4749 49.3514 47.2674 49.6553 46.1129C49.9591 44.9584 50.511 43.8852 51.2719 42.9689C52.0329 42.0526 52.9843 41.3156 54.059 40.8098C55.1338 40.3041 56.3057 40.042 57.4921 40.042H66.1865C67.028 40.042 67.846 40.3213 68.5139 40.8366C69.1819 41.3518 69.6624 42.0744 69.8812 42.8924C70.0743 43.6146 70.4985 44.2525 71.0882 44.7074C71.6778 45.1623 72.4 45.4088 73.1429 45.4088H114.418C115.873 45.4088 117.274 44.8561 118.342 43.8611C119.409 42.866 120.064 41.5021 120.175 40.042L120.175 40.042Z" fill="white"/>
<path d="M149.49 98.7695H65.4019V100.104H149.49V98.7695Z" fill="#63DDFF"/>
<path d="M67.6282 84.0879L69.4058 81.7432L69.0976 81.5145L67.5614 83.541L61.6412 78.749L61.3975 79.0445L67.6282 84.0879Z" fill="#2F2E41"/>
<path d="M78.01 144.15L80.0838 141.806L79.7243 141.577L77.9317 143.603L71.0251 138.812L70.7407 139.107L78.01 144.15Z" fill="#2F2E41"/>
<path d="M158.715 144.436L70.9004 146.294L70.9091 146.707L158.724 144.849L158.715 144.436Z" fill="#63DDFF"/>
<path d="M161.401 156.614L71.9331 158.679L71.9426 159.092L161.41 157.027L161.401 156.614Z" fill="#63DDFF"/>
<path d="M228.239 89.4265C234.873 89.4265 240.251 84.0483 240.251 77.4139C240.251 70.7796 234.873 65.4014 228.239 65.4014C221.604 65.4014 216.226 70.7796 216.226 77.4139C216.226 84.0483 221.604 89.4265 228.239 89.4265Z" fill="#2F2E41"/>
<path d="M240.585 228.317L242.92 238.916H237.248L234.912 226.903L240.585 228.317Z" fill="#FBBEBE"/>
<path d="M213.557 228.238V238.204L208.218 238.916V228.238H213.557Z" fill="#FBBEBE"/>
<path d="M242.92 124.459C242.92 124.459 242.273 138.654 241.626 139.644C240.979 140.634 235.155 154.829 235.155 154.829L232.243 145.586C232.243 145.586 236.773 137.993 236.126 133.702C235.478 129.411 235.886 124.13 235.886 124.13L242.92 124.459Z" fill="#FBBEBE"/>
<path d="M222.9 90.7614C228.06 90.7614 232.243 86.5783 232.243 81.4183C232.243 76.2582 228.06 72.0752 222.9 72.0752C217.74 72.0752 213.557 76.2582 213.557 81.4183C213.557 86.5783 217.74 90.7614 222.9 90.7614Z" fill="#FBBEBE"/>
<path d="M231.377 81.418C231.377 81.418 231.049 94.5054 233.344 96.4685C235.639 98.4316 220.23 96.7957 220.23 96.7957C220.23 96.7957 223.509 87.6345 220.886 85.6714C218.263 83.7083 231.377 81.418 231.377 81.418Z" fill="#FBBEBE"/>
<path d="M218.717 96.7214C218.717 96.7214 220.706 93.1247 223.357 93.4517C226.009 93.7787 234.627 94.4326 234.959 95.0866C235.29 95.7405 236.285 98.0293 236.948 98.6833C237.61 99.3372 242.582 100.318 242.914 104.242C243.245 108.166 230.981 132.035 230.981 132.035C230.981 132.035 232.638 137.593 232.307 138.901C231.976 140.209 233.964 144.133 233.633 145.768C233.301 147.403 238.605 157.212 235.953 169.964V190.564C235.953 190.564 244.903 226.204 242.251 228.82C239.599 231.436 230.65 229.801 228.992 228.82C227.335 227.839 220.374 178.465 220.374 178.465L217.06 161.79L216.728 198.411C216.728 198.411 217.391 229.147 215.071 230.128C212.751 231.109 203.801 231.436 203.138 229.474C202.621 227.944 200.088 187.232 198.998 169.386C198.62 163.227 199.111 157.045 200.457 151.018C201.837 144.846 203.84 137.594 206.121 134.651C210.43 129.092 213.082 111.435 213.082 111.435L208.885 101.439C208.885 101.439 210.762 98.0293 212.751 98.0293C214.739 98.0293 218.717 96.7214 218.717 96.7214Z" fill="#2F2E41"/>
<path d="M241.745 102.774L243.592 103.936C243.592 103.936 244.897 124.785 243.846 126.08C242.796 127.374 235.492 126.742 234.942 125.602C234.391 124.461 241.745 102.774 241.745 102.774Z" fill="#2F2E41"/>
<path d="M211.511 120.632C212.44 127.319 213.254 133.271 208.504 138.656C203.731 144.106 198.348 148.945 192.469 153.07C191.887 154.671 183.335 166.43 182.9 161.739C182.465 157.049 185.42 153.372 189.618 149.405C193.817 145.439 199.691 136.833 203.005 132.111C206.319 127.389 204.955 124.444 204.839 120.5C204.724 116.556 210.208 120.68 211.511 120.632Z" fill="#FBBEBE"/>
<path d="M208.584 233.577C208.584 233.577 208.274 236.998 207.343 237.914C206.412 238.831 203.93 240.052 204.24 243.412C204.55 246.772 206.567 246.924 206.567 246.924L206.412 246.161L207.343 246.466L207.498 246.924H216.187C216.187 246.924 216.342 243.717 216.032 242.19C215.722 240.663 215.722 233.333 214.791 233.638C213.86 233.944 211.377 234.249 210.757 235.471C210.136 236.693 208.274 236.265 208.584 233.577Z" fill="#2F2E41"/>
<path d="M242.068 233.577C242.068 233.577 242.413 236.998 243.447 237.914C244.482 238.831 247.24 240.052 246.895 243.412C246.551 246.772 244.309 246.924 244.309 246.924L244.482 246.161L243.447 246.466L243.275 246.924H233.621C233.621 246.924 233.448 243.717 233.793 242.19C234.138 240.663 234.138 233.333 235.172 233.638C236.207 233.944 238.965 234.249 239.655 235.471C240.344 236.693 242.413 236.265 242.068 233.577Z" fill="#2F2E41"/>
<path d="M213.07 100.104L208.885 101.439C208.885 101.439 208.431 108.171 207.105 111.075C205.78 113.979 203.46 120.755 204.454 121.078C205.448 121.4 214.727 125.918 215.389 123.336C216.052 120.755 217.709 100.104 213.07 100.104Z" fill="#2F2E41"/>
<path d="M235.58 69.4061C238.897 69.4061 241.586 66.717 241.586 63.3998C241.586 60.0827 238.897 57.3936 235.58 57.3936C232.262 57.3936 229.573 60.0827 229.573 63.3998C229.573 66.717 232.262 69.4061 235.58 69.4061Z" fill="#2F2E41"/>
<path d="M240.219 67.5878C239.438 68.0735 238.534 68.3912 237.582 68.5143C236.63 68.6375 235.657 68.5624 234.746 68.2955C233.834 68.0286 233.01 67.5775 232.342 66.9801C231.674 66.3827 231.183 65.6563 230.908 64.8616C231.012 65.5738 231.286 66.2596 231.713 66.8758C232.141 67.4921 232.712 68.0253 233.391 68.4419C234.069 68.8585 234.841 69.1494 235.657 69.2963C236.473 69.4431 237.315 69.4427 238.131 69.295C238.947 69.1473 239.718 68.8556 240.396 68.4384C241.074 68.0211 241.645 67.4872 242.071 66.8705C242.498 66.2539 242.771 65.5677 242.874 64.8555C242.977 64.1432 242.907 63.4203 242.67 62.7324C242.805 63.6566 242.648 64.5951 242.217 65.4494C241.786 66.3037 241.096 67.0424 240.219 67.5878Z" fill="#2F2E41"/>
<path d="M231.575 88.0917C236.367 88.0917 240.251 84.2074 240.251 79.416C240.251 74.6245 236.367 70.7402 231.575 70.7402C226.784 70.7402 222.899 74.6245 222.899 79.416C222.899 84.2074 226.784 88.0917 231.575 88.0917Z" fill="#2F2E41"/>
<path d="M224.234 81.4188C228.657 81.4188 232.243 78.7297 232.243 75.4125C232.243 72.0954 228.657 69.4062 224.234 69.4062C219.812 69.4062 216.226 72.0954 216.226 75.4125C216.226 78.7297 219.812 81.4188 224.234 81.4188Z" fill="#2F2E41"/>
<path d="M221.565 84.0882C222.302 84.0882 222.899 83.1918 222.899 82.0861C222.899 80.9804 222.302 80.084 221.565 80.084C220.828 80.084 220.23 80.9804 220.23 82.0861C220.23 83.1918 220.828 84.0882 221.565 84.0882Z" fill="#E3AAAA"/>
</svg>
