<svg width="271" height="170" viewBox="0 0 271 170" fill="none" xmlns="http://www.w3.org/2000/svg">
<path d="M266.148 69.2036C256.241 30.2461 222.008 2.12419 181.826 0.996243C160.584 0.399933 138.23 7.44524 121.955 32.0994C92.862 76.1713 123.743 106.626 145.273 121.098C155.674 128.104 165.046 136.527 173.118 146.125C187.66 163.382 215.636 184.826 248.955 151.226C273.104 126.873 272.747 95.1532 266.148 69.2036Z" fill="#F2F2F2"/>
<path d="M37.1853 98.7391C36.9183 98.3437 36.6559 97.9379 36.4053 97.5328L36.8102 97.2822C37.0575 97.6822 37.3164 98.0827 37.5797 98.4727L37.1853 98.7391Z" fill="#3F3D56"/>
<path d="M34.9703 94.9818C34.5288 94.1154 34.1185 93.2203 33.7508 92.3214L34.1912 92.1411C34.5541 93.0279 34.9589 93.911 35.3945 94.7657L34.9703 94.9818ZM32.756 89.5691C32.464 88.6424 32.2073 87.6918 31.9928 86.7438L32.4572 86.6388C32.6686 87.5741 32.9218 88.5118 33.2099 89.4259L32.756 89.5691ZM31.4665 83.8652C31.3316 82.9046 31.2349 81.925 31.1789 80.9535L31.6542 80.9261C31.7093 81.8847 31.8048 82.8512 31.9379 83.7989L31.4665 83.8652ZM31.6052 78.0388L31.1294 78.0276C31.1523 77.0547 31.2155 76.0725 31.3172 75.1084L31.7906 75.1584C31.6902 76.1097 31.6278 77.0788 31.6052 78.0388ZM32.2114 72.3029L31.7438 72.2141C31.9251 71.2596 32.1486 70.3009 32.4081 69.3649L32.8669 69.492C32.6107 70.4155 32.3903 71.3613 32.2114 72.3029ZM33.7531 66.745L33.3066 66.5802C33.6432 65.6684 34.0224 64.7592 34.4336 63.8778L34.865 64.0791C34.4592 64.9486 34.0851 65.8455 33.7531 66.745ZM98.9427 65.2736C98.5706 64.3912 98.1565 63.5128 97.7119 62.6626L98.1337 62.442C98.5844 63.3038 99.0042 64.1943 99.3813 65.0886L98.9427 65.2736ZM36.1934 61.5145L35.7802 61.2784C36.2622 60.4352 36.7858 59.6011 37.3362 58.7992L37.7286 59.0686C37.1855 59.8598 36.669 60.6827 36.1934 61.5145ZM96.2697 60.1618C95.7571 59.3522 95.2043 58.5536 94.6266 57.7883L95.0066 57.5015C95.5921 58.2772 96.1523 59.0866 96.6718 59.9072L96.2697 60.1618ZM39.4596 56.7573L39.0905 56.4565C39.7045 55.7031 40.3572 54.9661 41.0306 54.2657L41.3737 54.5955C40.7093 55.2866 40.0652 56.0139 39.4596 56.7573ZM92.7944 55.5573C92.1559 54.8417 91.4801 54.1439 90.7855 53.4834L91.1135 53.1385C91.8174 53.808 92.5025 54.5151 93.1495 55.2403L92.7944 55.5573ZM43.4582 52.5979L43.1432 52.2411C43.8715 51.5982 44.6356 50.9775 45.4142 50.3963L45.699 50.7777C44.9307 51.3512 44.1768 51.9636 43.4582 52.5979ZM88.6136 51.5809C87.8669 50.9791 87.0861 50.401 86.2929 49.8627L86.5602 49.4687C87.3642 50.0145 88.1554 50.6003 88.9122 51.2102L88.6136 51.5809ZM48.0808 49.1479L47.8284 48.7444C48.6526 48.2289 49.5077 47.7418 50.3701 47.2967L50.5883 47.7198C49.7375 48.1588 48.894 48.6393 48.0808 49.1479ZM83.839 48.3409C83.0028 47.869 82.1377 47.4268 81.2678 47.0267L81.4668 46.5941C82.3485 46.9998 83.2253 47.448 84.0729 47.9262L83.839 48.3409ZM53.2047 46.5036L53.022 46.0641C53.9191 45.6915 54.8424 45.3521 55.7664 45.0552L55.9119 45.5085C55.0004 45.8012 54.0895 46.136 53.2047 46.5036ZM78.5967 45.9294C77.6958 45.6024 76.7696 45.3091 75.8439 45.0577L75.9687 44.5984C76.907 44.8532 77.8459 45.1504 78.7592 45.482L78.5967 45.9294ZM58.6942 44.7407L58.5868 44.277C59.5321 44.0578 60.4994 43.8755 61.4618 43.7349L61.5306 44.2059C60.5811 44.3446 59.6269 44.5245 58.6942 44.7407V44.7407ZM73.0283 44.4174C72.0875 44.244 71.1258 44.1075 70.1701 44.012L70.2175 43.5383C71.1861 43.6353 72.1609 43.7734 73.1145 43.9493L73.0283 44.4174ZM64.4013 43.9066L64.3714 43.4315C65.3395 43.3704 66.3266 43.3487 67.2966 43.3662L67.288 43.8422C66.3301 43.8247 65.3568 43.8464 64.4013 43.9066Z" fill="#3F3D56"/>
<path d="M100.376 69.369C100.249 68.916 100.11 68.4594 99.9644 68.0118L100.417 67.8643C100.565 68.3179 100.705 68.7808 100.834 69.24L100.376 69.369Z" fill="#3F3D56"/>
<path d="M97.4736 42.7127H96.9976C96.9976 42.2364 97.0059 41.7531 97.0226 41.2764L97.4983 41.2929C97.4819 41.7642 97.4736 42.2419 97.4736 42.7127Z" fill="#3F3D56"/>
<path d="M97.7 38.4311L97.2266 38.3807C97.3286 37.4221 97.4665 36.4557 97.6367 35.5083L98.1052 35.5924C97.9371 36.5286 97.8008 37.4838 97.7 38.4311ZM98.7134 32.7902L98.2522 32.6726C98.4905 31.7384 98.7659 30.8017 99.0706 29.8885L99.5222 30.0392C99.221 30.9417 98.9489 31.8672 98.7134 32.7902ZM174.627 27.7683C174.271 26.8849 173.879 26.0036 173.46 25.149L173.888 24.9398C174.311 25.8046 174.708 26.6964 175.069 27.5905L174.627 27.7683ZM100.528 27.3511L100.089 27.1681C100.459 26.2787 100.866 25.3907 101.3 24.5289L101.725 24.7429C101.297 25.5946 100.894 26.472 100.528 27.3511ZM172.108 22.62C171.629 21.7974 171.115 20.9813 170.578 20.1943L170.971 19.9261C171.515 20.7225 172.035 21.5483 172.519 22.3806L172.108 22.62ZM103.107 22.228L102.698 21.984C103.192 21.1575 103.722 20.3372 104.275 19.5462L104.665 19.8188C104.119 20.6006 103.595 21.4111 103.107 22.228H103.107ZM168.879 17.884C168.287 17.1369 167.661 16.4023 167.019 15.7006L167.37 15.3792C168.02 16.0892 168.653 16.8324 169.252 17.5884L168.879 17.884ZM106.391 17.5275L106.021 17.2276C106.629 16.4788 107.27 15.7427 107.929 15.0398L108.276 15.3652C107.625 16.06 106.991 16.7874 106.391 17.5275ZM165.008 13.6552C164.316 13 163.592 12.3617 162.857 11.758L163.158 11.3901C163.903 12.0008 164.635 12.6467 165.335 13.3096L165.008 13.6552ZM110.31 13.343L109.986 12.9937C110.693 12.3393 111.433 11.7019 112.184 11.0993L112.482 11.4708C111.739 12.0663 111.008 12.6962 110.31 13.343V13.343ZM160.575 10.019C159.798 9.4689 158.99 8.94013 158.176 8.44739L158.422 8.04019C159.246 8.53874 160.063 9.07378 160.85 9.63043L160.575 10.019ZM114.782 9.75827L114.511 9.36663C115.304 8.8195 116.126 8.29411 116.956 7.80487L117.198 8.21486C116.378 8.69841 115.565 9.21765 114.782 9.75826V9.75827ZM155.67 7.05181C154.821 6.61834 153.947 6.21067 153.07 5.83984L153.255 5.40149C154.143 5.77662 155.028 6.18929 155.886 6.62787L155.67 7.05181ZM119.717 6.84879L119.506 6.42253C120.368 5.99441 121.257 5.5922 122.148 5.22718L122.328 5.66763C121.448 6.02833 120.57 6.42577 119.717 6.84879V6.84879ZM150.389 4.81846C149.489 4.5119 148.565 4.23415 147.642 3.99301L147.763 3.53258C148.696 3.77651 149.632 4.05762 150.543 4.36779L150.389 4.81846ZM125.016 4.67761L124.868 4.22532C125.783 3.92549 126.721 3.65507 127.656 3.42159L127.772 3.88341C126.847 4.11409 125.92 4.38126 125.016 4.6776L125.016 4.67761ZM144.843 3.36837C143.907 3.19463 142.953 3.05274 142.007 2.94652L142.06 2.47354C143.017 2.58104 143.983 2.72455 144.93 2.90028L144.843 3.36837ZM130.577 3.29004L130.495 2.82101C131.444 2.65587 132.411 2.52303 133.37 2.42601L133.418 2.89969C132.47 2.99544 131.514 3.12676 130.577 3.29004L130.577 3.29004ZM139.147 2.72828C138.194 2.68958 137.225 2.68446 136.279 2.7127L136.265 2.23694C137.222 2.20835 138.202 2.21335 139.167 2.25274L139.147 2.72828Z" fill="#3F3D56"/>
<path d="M176.019 31.8521C175.892 31.3991 175.754 30.9418 175.611 30.4927L176.064 30.3477C176.21 30.802 176.349 31.2648 176.478 31.7231L176.019 31.8521Z" fill="#3F3D56"/>
<path d="M36.9069 104.647C41.2857 104.647 44.8353 104.381 44.8353 104.053C44.8353 103.724 41.2857 103.458 36.9069 103.458C32.5282 103.458 28.9785 103.724 28.9785 104.053C28.9785 104.381 32.5282 104.647 36.9069 104.647Z" fill="#63DDFF"/>
<path d="M100.136 75.9061C104.515 75.9061 108.064 75.6398 108.064 75.3114C108.064 74.983 104.515 74.7168 100.136 74.7168C95.7572 74.7168 92.2075 74.983 92.2075 75.3114C92.2075 75.6398 95.7572 75.9061 100.136 75.9061Z" fill="#63DDFF"/>
<path d="M178.231 45.9764C182.609 45.9764 186.159 45.7101 186.159 45.3817C186.159 45.0533 182.609 44.7871 178.231 44.7871C173.852 44.7871 170.302 45.0533 170.302 45.3817C170.302 45.7101 173.852 45.9764 178.231 45.9764Z" fill="#63DDFF"/>
<path d="M175.09 43.4299L151.249 67.2705L151.586 67.6071L175.426 43.7664L175.09 43.4299Z" fill="#3F3D56"/>
<path d="M144.337 70.3174H104.298V70.7934H144.337V70.3174Z" fill="#3F3D56"/>
<path d="M96.991 73.5613L74.5972 95.9551L74.9337 96.2916L97.3275 73.8978L96.991 73.5613Z" fill="#3F3D56"/>
<path d="M67.8278 99.0576H41.0693V99.5336H67.8278V99.0576Z" fill="#3F3D56"/>
<path d="M33.7956 102.07L7.20557 128.66L7.54212 128.997L34.1322 102.407L33.7956 102.07Z" fill="#3F3D56"/>
<path d="M36.9069 103.695C36.0366 103.695 35.1858 103.437 34.4621 102.954C33.7385 102.47 33.1744 101.783 32.8414 100.979C32.5083 100.175 32.4211 99.2902 32.5909 98.4366C32.7607 97.583 33.1798 96.7989 33.7952 96.1834C34.4106 95.568 35.1947 95.1489 36.0483 94.9791C36.9019 94.8093 37.7867 94.8964 38.5908 95.2295C39.3949 95.5625 40.0821 96.1266 40.5657 96.8502C41.0492 97.5739 41.3073 98.4247 41.3073 99.295C41.306 100.462 40.8419 101.58 40.017 102.405C39.1921 103.23 38.0736 103.694 36.9069 103.695ZM36.9069 95.3705C36.1307 95.3705 35.372 95.6007 34.7266 96.0319C34.0812 96.4631 33.5782 97.076 33.2811 97.7931C32.9841 98.5102 32.9063 99.2993 33.0577 100.061C33.2092 100.822 33.5829 101.521 34.1318 102.07C34.6806 102.619 35.3799 102.993 36.1412 103.144C36.9024 103.295 37.6915 103.218 38.4086 102.921C39.1257 102.624 39.7387 102.121 40.1699 101.475C40.6011 100.83 40.8313 100.071 40.8313 99.295C40.8301 98.2546 40.4163 97.2571 39.6806 96.5213C38.9449 95.7856 37.9474 95.3718 36.9069 95.3705Z" fill="#3F3D56"/>
<path d="M71.9903 103.695C71.12 103.695 70.2692 103.437 69.5455 102.954C68.8219 102.47 68.2579 101.783 67.9248 100.979C67.5918 100.175 67.5046 99.2901 67.6744 98.4365C67.8442 97.5829 68.2633 96.7988 68.8787 96.1834C69.4941 95.568 70.2782 95.1489 71.1318 94.9791C71.9854 94.8093 72.8702 94.8964 73.6743 95.2295C74.4784 95.5626 75.1656 96.1266 75.6492 96.8502C76.1327 97.5739 76.3908 98.4247 76.3908 99.295C76.3895 100.462 75.9255 101.58 75.1005 102.405C74.2755 103.23 73.157 103.694 71.9903 103.695ZM71.9903 95.3705C71.2141 95.3705 70.4554 95.6007 69.81 96.0319C69.1646 96.4632 68.6616 97.0761 68.3646 97.7932C68.0675 98.5103 67.9898 99.2994 68.1413 100.061C68.2927 100.822 68.6665 101.521 69.2153 102.07C69.7641 102.619 70.4634 102.993 71.2247 103.144C71.986 103.295 72.775 103.218 73.4921 102.921C74.2092 102.624 74.8222 102.121 75.2534 101.475C75.6846 100.83 75.9148 100.071 75.9148 99.295C75.9136 98.2545 75.4997 97.257 74.764 96.5213C74.0283 95.7856 73.0308 95.3717 71.9903 95.3705Z" fill="#3F3D56"/>
<path d="M100.136 74.9551C99.2659 74.9551 98.4151 74.697 97.6915 74.2135C96.9678 73.73 96.4038 73.0427 96.0708 72.2386C95.7377 71.4346 95.6506 70.5498 95.8204 69.6962C95.9902 68.8426 96.4093 68.0586 97.0247 67.4431C97.6401 66.8277 98.4242 66.4086 99.2778 66.2389C100.131 66.0691 101.016 66.1562 101.82 66.4892C102.624 66.8223 103.312 67.3863 103.795 68.1099C104.279 68.8336 104.537 69.6843 104.537 70.5546C104.535 71.7213 104.071 72.8398 103.246 73.6648C102.421 74.4898 101.303 74.9538 100.136 74.9551ZM100.136 66.6303C99.36 66.6303 98.6013 66.8605 97.9559 67.2917C97.3106 67.7229 96.8076 68.3359 96.5105 69.053C96.2135 69.7701 96.1358 70.5591 96.2873 71.3204C96.4387 72.0816 96.8125 72.7809 97.3613 73.3297C97.9102 73.8786 98.6094 74.2523 99.3707 74.4037C100.132 74.5551 100.921 74.4774 101.638 74.1804C102.355 73.8833 102.968 73.3803 103.399 72.7349C103.831 72.0896 104.061 71.3308 104.061 70.5547C104.059 69.5142 103.646 68.5167 102.91 67.781C102.174 67.0453 101.177 66.6315 100.136 66.6303V66.6303Z" fill="#3F3D56"/>
<path d="M148.499 74.9551C147.629 74.9551 146.778 74.697 146.055 74.2135C145.331 73.73 144.767 73.0427 144.434 72.2386C144.101 71.4346 144.014 70.5498 144.184 69.6962C144.353 68.8426 144.773 68.0586 145.388 67.4431C146.003 66.8277 146.787 66.4086 147.641 66.2389C148.495 66.0691 149.379 66.1562 150.183 66.4892C150.988 66.8223 151.675 67.3863 152.158 68.1099C152.642 68.8336 152.9 69.6843 152.9 70.5546C152.899 71.7213 152.435 72.8398 151.61 73.6648C150.785 74.4898 149.666 74.9538 148.499 74.9551ZM148.499 66.6303C147.723 66.6303 146.965 66.8605 146.319 67.2917C145.674 67.7229 145.171 68.3359 144.874 69.053C144.577 69.7701 144.499 70.5591 144.651 71.3204C144.802 72.0816 145.176 72.7809 145.725 73.3297C146.273 73.8786 146.973 74.2523 147.734 74.4037C148.495 74.5551 149.284 74.4774 150.001 74.1804C150.718 73.8833 151.331 73.3803 151.763 72.7349C152.194 72.0896 152.424 71.3308 152.424 70.5547C152.423 69.5142 152.009 68.5167 151.273 67.781C150.537 67.0452 149.54 66.6314 148.499 66.6303V66.6303Z" fill="#3F3D56"/>
<path d="M178.231 45.0254C177.361 45.0254 176.51 44.7673 175.786 44.2838C175.063 43.8003 174.499 43.113 174.166 42.309C173.832 41.5049 173.745 40.6201 173.915 39.7665C174.085 38.9129 174.504 38.1289 175.119 37.5135C175.735 36.8981 176.519 36.479 177.372 36.3092C178.226 36.1394 179.111 36.2265 179.915 36.5596C180.719 36.8926 181.406 37.4566 181.89 38.1802C182.373 38.9039 182.631 39.7546 182.631 40.625C182.63 41.7916 182.166 42.9101 181.341 43.7351C180.516 44.5601 179.398 45.0241 178.231 45.0254ZM178.231 36.7006C177.455 36.7006 176.696 36.9308 176.051 37.362C175.405 37.7933 174.902 38.4062 174.605 39.1233C174.308 39.8404 174.231 40.6294 174.382 41.3907C174.533 42.152 174.907 42.8512 175.456 43.4C176.005 43.9489 176.704 44.3226 177.465 44.474C178.227 44.6254 179.016 44.5477 179.733 44.2507C180.45 43.9536 181.063 43.4506 181.494 42.8052C181.925 42.1599 182.155 41.4011 182.155 40.625C182.154 39.5845 181.74 38.587 181.005 37.8513C180.269 37.1156 179.271 36.7018 178.231 36.7006V36.7006Z" fill="#3F3D56"/>
<path d="M4.40059 136.202C3.53025 136.202 2.67945 135.944 1.95579 135.461C1.23212 134.977 0.66808 134.29 0.335001 133.486C0.00192231 132.682 -0.0852384 131.797 0.0845416 130.943C0.254322 130.09 0.673417 129.306 1.28883 128.69C1.90424 128.075 2.68833 127.656 3.54194 127.486C4.39555 127.316 5.28034 127.403 6.08443 127.736C6.88852 128.069 7.57579 128.633 8.05932 129.357C8.54285 130.081 8.80094 130.932 8.80094 131.802C8.79962 132.968 8.3356 134.087 7.51066 134.912C6.68572 135.737 5.56724 136.201 4.40059 136.202ZM4.40059 127.877C3.6244 127.877 2.86563 128.108 2.22024 128.539C1.57485 128.97 1.07182 129.583 0.77477 130.3C0.477719 131.017 0.399985 131.806 0.551398 132.567C0.702811 133.329 1.07657 134.028 1.62541 134.577C2.17425 135.126 2.87353 135.499 3.6348 135.651C4.39608 135.802 5.18516 135.725 5.90227 135.428C6.61938 135.131 7.23231 134.628 7.66354 133.982C8.09477 133.337 8.32494 132.578 8.32494 131.802C8.32375 130.761 7.90991 129.764 7.17421 129.028C6.43852 128.292 5.44104 127.879 4.40059 127.877Z" fill="#3F3D56"/>
<path d="M36.9069 73.3301C35.8657 73.3301 34.8348 73.5351 33.8728 73.9336C32.9109 74.332 32.0369 74.916 31.3007 75.6523C30.5645 76.3885 29.9805 77.2625 29.582 78.2244C29.1836 79.1863 28.9785 80.2173 28.9785 81.2585C28.9785 85.6372 36.9069 100.088 36.9069 100.088C36.9069 100.088 44.8353 85.6372 44.8353 81.2585C44.8353 80.2173 44.6302 79.1863 44.2318 78.2244C43.8334 77.2625 43.2494 76.3885 42.5131 75.6523C41.7769 74.916 40.9029 74.332 39.941 73.9336C38.9791 73.5351 37.9481 73.3301 36.9069 73.3301ZM36.9069 85.4209C36.0837 85.4209 35.2789 85.1768 34.5944 84.7194C33.9099 84.262 33.3764 83.6119 33.0614 82.8514C32.7463 82.0908 32.6639 81.2539 32.8245 80.4464C32.9851 79.639 33.3815 78.8973 33.9637 78.3152C34.5458 77.7331 35.2874 77.3367 36.0949 77.1761C36.9023 77.0154 37.7392 77.0979 38.4998 77.4129C39.2604 77.728 39.9105 78.2615 40.3678 78.946C40.8252 79.6305 41.0693 80.4352 41.0693 81.2585C41.0693 82.3624 40.6308 83.4211 39.8502 84.2018C39.0696 84.9824 38.0109 85.4209 36.9069 85.4209Z" fill="#63DDFF"/>
<path d="M100.136 43.5986C98.0332 43.5986 96.0166 44.4339 94.5297 45.9208C93.0428 47.4077 92.2075 49.4243 92.2075 51.527C92.2075 55.9058 100.136 70.357 100.136 70.357C100.136 70.357 108.064 55.9058 108.064 51.527C108.064 50.4859 107.859 49.4549 107.461 48.493C107.062 47.531 106.478 46.657 105.742 45.9208C105.006 45.1846 104.132 44.6006 103.17 44.2021C102.208 43.8037 101.177 43.5986 100.136 43.5986ZM100.136 55.6894C99.3127 55.6894 98.5079 55.4453 97.8234 54.988C97.1389 54.5306 96.6054 53.8805 96.2904 53.1199C95.9753 52.3593 95.8929 51.5224 96.0535 50.715C96.2141 49.9076 96.6105 49.1659 97.1926 48.5838C97.7748 48.0017 98.5164 47.6052 99.3239 47.4446C100.131 47.284 100.968 47.3664 101.729 47.6815C102.489 47.9965 103.139 48.53 103.597 49.2145C104.054 49.899 104.298 50.7038 104.298 51.527C104.298 52.631 103.86 53.6897 103.079 54.4703C102.299 55.2509 101.24 55.6894 100.136 55.6894Z" fill="#63DDFF"/>
<path d="M236.914 18.2007C235.236 23.1692 232.663 27.6962 227.419 27.6962C222.175 27.6962 218.219 23.4366 217.923 18.2007C217.546 11.5103 222.054 8.67757 227.419 8.70528C233.757 8.73802 238.906 12.3044 236.914 18.2007Z" fill="#2F2E41"/>
<path d="M236.665 17.4512H217.924V41.1898H236.665V17.4512Z" fill="#2F2E41"/>
<path d="M237.215 35.1367H238.809C238.809 35.1367 242.705 40.096 240.934 46.8263C239.163 53.5567 240.58 54.7965 240.58 54.7965C240.58 54.7965 242.886 62.085 240.406 73.0661C237.927 84.0473 242.705 87.0316 242.705 87.0316L238.277 78.1758L235.798 54.7965L237.215 35.1367Z" fill="#575A89"/>
<path opacity="0.1" d="M237.215 35.7188H238.809C238.809 35.7188 242.705 40.678 240.934 47.4084C239.163 54.1388 240.58 55.3786 240.58 55.3786C240.58 55.3786 242.886 62.667 240.406 73.6482C237.927 84.6293 242.705 87.6136 242.705 87.6136L238.277 78.7578L235.798 55.3786L237.215 35.7188Z" fill="black"/>
<path d="M231.636 26.5465C231.636 26.5465 230.219 32.2142 230.927 32.2142C231.636 32.2142 234.116 35.2251 234.116 35.2251L235.71 41.07L234.47 45.3207L230.219 44.4352L224.905 38.5903L223.311 36.9963L221.895 31.86C221.895 31.86 223.666 29.7346 222.426 27.9634C221.186 26.1923 231.636 26.5465 231.636 26.5465Z" fill="#FBBEBE"/>
<path opacity="0.1" d="M231.636 26.5465C231.636 26.5465 230.219 32.2142 230.927 32.2142C231.636 32.2142 234.116 35.2251 234.116 35.2251L235.71 41.07L234.47 45.3207L230.219 44.4352L224.905 38.5903L223.311 36.9963L221.895 31.86C221.895 31.86 223.666 29.7346 222.426 27.9634C221.186 26.1923 231.636 26.5465 231.636 26.5465Z" fill="black"/>
<path d="M188.774 42.3096L184.877 35.9335C184.877 35.9335 180.671 26.627 177.66 29.9922C174.649 33.3574 182.221 40.1842 182.221 40.1842L186.117 45.3206L188.774 42.3096Z" fill="#FBBEBE"/>
<path d="M240.492 97.7472L237.658 118.47C237.658 118.47 238.012 120.064 234.47 125.909C230.927 131.753 221.363 144.506 221.363 144.506L218.529 139.192C218.529 139.192 221.894 122.366 227.739 118.824L227.031 93.3193L240.492 97.7472Z" fill="#D7D0FF"/>
<path d="M218.529 137.066L222.426 144.505C222.426 144.505 219.238 153.538 220.477 154.424C221.717 155.309 223.311 163.28 219.946 162.394C216.581 161.508 213.924 157.966 213.924 157.435C213.924 156.903 215.872 149.464 214.81 147.693C213.747 145.922 213.039 145.391 213.039 145.391L213 145.463L213.924 141.849C213.924 141.849 214.456 140.432 216.581 139.546L218.529 137.066Z" fill="#2F2E41"/>
<path opacity="0.1" d="M218.529 137.066L222.426 144.505C222.426 144.505 219.238 153.538 220.477 154.424C221.717 155.309 223.311 163.28 219.946 162.394C216.581 161.508 213.924 157.966 213.924 157.435C213.924 156.903 215.872 149.464 214.81 147.693C213.747 145.922 213.039 145.391 213.039 145.391L210.382 149.819L213 145.463L213.924 141.849C213.924 141.849 214.455 140.432 216.581 139.546L218.529 137.066Z" fill="black"/>
<path d="M226.5 110.962C226.5 110.962 228.448 114.396 225.437 119.533V145.037L221.363 145.569C221.363 145.569 213.137 132.066 216.147 118.782C219.158 105.499 217.5 112.462 217.5 112.462L226.5 110.962Z" fill="#D7D0FF"/>
<path d="M227.439 29.8396C231.547 29.8396 234.878 26.5091 234.878 22.4008C234.878 18.2924 231.547 14.9619 227.439 14.9619C223.33 14.9619 220 18.2924 220 22.4008C220 26.5091 223.33 29.8396 227.439 29.8396Z" fill="#FBBEBE"/>
<path d="M233.584 43.0178L226.145 33.6307L221.895 30.7969L220.123 33.0994L215.164 34.5163C215.164 34.5163 211.976 35.2248 208.611 39.1213C205.246 43.0178 199.224 45.3203 199.224 45.3203L194.265 44.4348C194.265 44.4348 188.42 41.778 188.42 41.0696C188.42 40.3611 183.283 45.8517 184.523 47.9771C185.763 50.1025 188.42 52.7592 189.837 54.1761C191.254 55.5931 191.785 59.6667 200.464 58.4269C209.142 57.1871 212.33 52.9363 212.33 52.9363C212.33 52.9363 213.924 61.0836 218.529 62.6777C223.134 64.2717 238.189 65.3344 238.189 65.3344L241.377 54.7075C241.377 54.7075 244.92 50.1025 240.137 43.3721C240.137 43.3721 240.046 39.608 239.532 37.1032C239.332 36.129 239.068 35.3452 238.721 35.0477C237.481 33.985 230.927 32.2138 230.927 32.2138C230.927 32.2138 231.99 35.7561 232.521 35.9332C233.053 36.1103 234.293 42.1323 233.584 43.0178Z" fill="white"/>
<path d="M203 114.962C211.92 114.342 225.083 109.848 227.399 110.962C227.83 111.157 227.028 98.2835 227.399 98.5757C227.569 98.7191 228.5 111.895 228.5 111.962C228.5 112.493 239.572 105.025 244 103.962C248.428 102.899 241.289 75.5188 239.34 73.5705C237.392 71.6222 238.442 64.4916 238.442 64.4916C238.442 64.4916 234.558 63.652 233.496 64.0063C232.433 64.3605 226.942 63.4749 224.994 62.4122C223.046 61.3496 220.566 62.058 218.972 61.7038C218.26 61.5461 217.901 61.8118 217.722 62.1554C217.443 62.6709 217.023 63.0956 216.51 63.3793C212.75 65.5454 214.772 82.6818 212.5 90.9619C210.02 99.9948 203 114.962 203 114.962Z" fill="white"/>
<path d="M226.145 143.442L226.854 147.339C226.854 147.339 230.573 152.652 229.511 157.08C229.511 157.08 230.396 162.925 233.584 164.519C236.772 166.113 234.116 169.833 231.105 169.655C228.094 169.478 225.26 169.833 224.906 168.947C224.551 168.061 222.426 159.383 222.426 159.383L222.5 159.462L220.655 157.966C220.655 157.966 219.238 155.309 221.186 150.881L220.694 144.085C220.694 144.085 225.614 145.214 226.145 143.442Z" fill="#2F2E41"/>
<path opacity="0.1" d="M226 104.462C226.431 104.657 227.027 98.2832 227.399 98.5753C227.493 96.9016 228.035 86.7794 227.385 86.9424L226 104.462Z" fill="black"/>
<path d="M222.977 13.2033C222.977 13.2033 222.895 12.7447 219.673 13.9529C216.451 15.1612 214.519 24.0775 216.13 29.3132C216.779 31.4232 216.251 32.9445 215.389 34.0089C212.155 38.0033 213.428 44.0027 218.14 46.0567C218.273 46.1147 218.408 46.172 218.547 46.2286L220.56 47.4369C220.56 47.4369 217.993 44.0591 219.278 39.7384C220.394 36.0569 220.531 32.1484 219.678 28.3975C219.53 27.7648 219.363 27.1126 219.173 26.4469C217.562 20.8085 218.345 21.4596 223.984 15.8212C223.984 15.8212 227.206 18.2377 230.025 19.4459C232.844 20.6541 235.261 21.8624 233.247 25.8899C231.233 29.9173 226.4 33.5421 229.622 38.7778C232.844 44.0135 233.247 41.9998 232.844 44.0135L232.442 46.0272L234.858 43.6108L233.247 46.8327C233.247 46.8327 238.483 46.8327 240.094 42.8053L240.899 43.6108C240.899 43.6108 244.121 37.9723 238.08 32.7366C238.08 32.7366 236.066 31.5283 238.885 27.5008C241.705 23.4734 239.54 14.8143 235.915 13.2033C232.29 11.5923 222.977 13.2033 222.977 13.2033Z" fill="#2F2E41"/>
<path d="M227.419 10.7044C229.489 10.7044 231.167 9.02628 231.167 6.95621C231.167 4.88613 229.489 3.20801 227.419 3.20801C225.349 3.20801 223.671 4.88613 223.671 6.95621C223.671 9.02628 225.349 10.7044 227.419 10.7044Z" fill="#2F2E41"/>
<path d="M222.921 4.95718C222.921 4.02803 223.266 3.13201 223.89 2.44294C224.513 1.75387 225.37 1.32086 226.294 1.22791C226.171 1.21566 226.046 1.20898 225.92 1.20898C224.926 1.20898 223.972 1.60388 223.269 2.30681C222.566 3.00973 222.171 3.9631 222.171 4.95719C222.171 5.95127 222.566 6.90464 223.269 7.60756C223.972 8.31049 224.926 8.70539 225.92 8.70539C226.046 8.70539 226.171 8.69871 226.294 8.68646C225.37 8.5935 224.513 8.1605 223.89 7.47143C223.266 6.78236 222.921 5.88634 222.921 4.95718Z" fill="#2F2E41"/>
<path d="M178.231 15.0557C177.189 15.0557 176.159 15.2607 175.197 15.6592C174.235 16.0576 173.361 16.6416 172.624 17.3778C171.888 18.1141 171.304 18.9881 170.906 19.95C170.507 20.9119 170.302 21.9429 170.302 22.9841C170.302 27.3628 178.231 41.814 178.231 41.814C178.231 41.814 186.159 27.3628 186.159 22.9841C186.159 21.9429 185.954 20.9119 185.556 19.95C185.157 18.9881 184.573 18.1141 183.837 17.3778C183.101 16.6416 182.227 16.0576 181.265 15.6592C180.303 15.2607 179.272 15.0557 178.231 15.0557ZM178.231 27.1465C177.407 27.1465 176.603 26.9024 175.918 26.445C175.234 25.9876 174.7 25.3375 174.385 24.577C174.07 23.8164 173.988 22.9795 174.148 22.172C174.309 21.3646 174.705 20.6229 175.287 20.0408C175.87 19.4587 176.611 19.0623 177.419 18.9017C178.226 18.741 179.063 18.8235 179.824 19.1385C180.584 19.4536 181.234 19.9871 181.692 20.6716C182.149 21.3561 182.393 22.1608 182.393 22.9841C182.393 24.088 181.955 25.1467 181.174 25.9273C180.393 26.7079 179.335 27.1465 178.231 27.1465Z" fill="#63DDFF"/>
<path d="M114.317 162.576C116.686 162.576 118.607 160.655 118.607 158.286C118.607 155.917 116.686 153.996 114.317 153.996C111.948 153.996 110.027 155.917 110.027 158.286C110.027 160.655 111.948 162.576 114.317 162.576Z" fill="#F1F1F1"/>
<path d="M141.008 144.43C143.378 144.43 145.298 142.509 145.298 140.14C145.298 137.77 143.378 135.85 141.008 135.85C138.639 135.85 136.718 137.77 136.718 140.14C136.718 142.509 138.639 144.43 141.008 144.43Z" fill="#F1F1F1"/>
<path d="M108 127.533C110.369 127.533 112.29 125.612 112.29 123.243C112.29 120.874 110.369 118.953 108 118.953C105.631 118.953 103.71 120.874 103.71 123.243C103.71 125.612 105.631 127.533 108 127.533Z" fill="#F1F1F1"/>
<path d="M270.695 168.962H124V169.595H270.695V168.962Z" fill="#3F3D56"/>
<path d="M226 51.4619C226 52.0142 224.052 52.9592 223.5 52.9592C222.948 52.9592 221 52.0142 221 51.462C222 50.9592 220.5 50.9592 223.5 50.9592C224.052 50.9592 226 50.9096 226 51.4619Z" fill="#BEBEBE"/>
<path d="M222 50.9619H223.125H224.063H225V50.9619" stroke="#696969" stroke-width="0.05"/>
<path d="M220.149 51.8234C220.089 51.1657 220.687 50.6401 221.331 50.7834L223.759 51.3229C224.193 51.4193 224.632 51.1816 224.788 50.7654C225.097 49.9418 226.303 50.0838 226.412 50.9566L226.899 54.8518C226.944 55.2182 226.779 55.5791 226.472 55.7839L225.738 56.2732C225.578 56.3799 225.39 56.4369 225.197 56.4369H224.071C224.025 56.4369 223.979 56.4336 223.933 56.4271L221.286 56.049C220.839 55.9851 220.494 55.6221 220.453 55.1721L220.149 51.8234Z" fill="white" stroke="#696969" stroke-width="0.05"/>
</svg>
