<svg width="20" height="20" viewBox="0 0 22 22" fill="none" xmlns="http://www.w3.org/2000/svg">
<path d="M14.6666 7.50838C14.6666 7.41246 14.5905 7.33398 14.4974 7.33398L13.1018 7.34052L10.9999 9.92376L8.90015 7.3427L7.50242 7.33616C7.40938 7.33616 7.33325 7.41246 7.33325 7.51056C7.33325 7.55198 7.34805 7.59122 7.37343 7.62392L10.1245 11.0028L7.37343 14.3796C7.34788 14.4115 7.3337 14.4515 7.33325 14.4929C7.33325 14.5888 7.40938 14.6673 7.50242 14.6673L8.90015 14.6608L10.9999 12.0775L13.0997 14.6586L14.4953 14.6651C14.5883 14.6651 14.6645 14.5888 14.6645 14.4907C14.6645 14.4493 14.6497 14.4101 14.6243 14.3774L11.8775 11.0007L14.6285 7.62174C14.6539 7.59122 14.6666 7.5498 14.6666 7.50838Z" fill="black"/>
<path d="M11 0C4.92545 0 0 4.92545 0 11C0 17.0746 4.92545 22 11 22C17.0746 22 22 17.0746 22 11C22 4.92545 17.0746 0 11 0ZM11 20.1339C5.9567 20.1339 1.86607 16.0433 1.86607 11C1.86607 5.9567 5.9567 1.86607 11 1.86607C16.0433 1.86607 20.1339 5.9567 20.1339 11C20.1339 16.0433 16.0433 20.1339 11 20.1339Z" fill="black"/>
</svg>