<?xml version="1.0" encoding="utf-8" ?>
<svg xmlns="http://www.w3.org/2000/svg" xmlns:xlink="http://www.w3.org/1999/xlink" width="500" height="500">
	<path fill="#FEFEFE" d="M195.098 161.734C195.306 161.729 195.514 161.723 195.722 161.733C200.769 161.991 210.312 171.204 213.715 174.945C236.727 200.244 247.571 231.935 247.158 265.944C247.064 273.738 245.481 281.358 245.114 289.15C246.606 290.363 248.121 291.565 249.552 292.848C259.604 301.864 267.01 315.387 267.668 329.023C267.856 332.925 267.224 336.972 264.425 339.921C262.507 341.942 259.914 343.036 257.135 343.06C246.626 343.15 238.43 335.624 231.354 328.87C231.582 330.409 231.681 331.929 231.697 333.485C231.737 337.465 232.265 348.491 231.2 351.801C231.011 352.39 230.63 352.888 230.19 353.313C229.229 354.243 228.173 354.815 226.868 355.104C222.864 355.992 218.12 355.525 214.013 355.522L192.563 355.5C184.423 355.506 176.159 355.844 168.037 355.499C165.902 355.409 163.047 355.022 161.613 353.284C159.759 351.037 160.143 331.719 160.364 327.668C159.722 328.365 159.024 329.004 158.33 329.648C152.525 335.029 140.111 345.183 131.895 344.708C128.647 344.52 125.977 342.901 123.839 340.534C120.73 337.094 119.965 333.023 120.226 328.531C121.045 314.419 128.372 299.687 137.576 289.116C140.049 286.276 142.788 283.8 145.587 281.293C145.179 262.995 144.302 250.531 149.129 232.261C155.181 209.358 166.895 186.56 184.321 170.299C187.628 167.212 191.183 164.016 195.098 161.734ZM163.304 317.455Q163.883 319.359 164.526 321.243L227.099 321.29C227.116 321.191 227.132 321.092 227.15 320.994C227.896 316.993 229.69 312.983 231.061 309.144Q233.689 301.871 235.593 294.376C241.283 271.468 241.157 246.159 232.915 223.868C232.105 221.677 231.03 217.155 229.815 215.383C229.675 215.179 229.619 215.157 229.444 215.03L229.173 215.064C215.089 220.019 179.055 222.585 165.292 215.981Q164.368 215.533 163.478 215.022C155.666 232.513 152.53 250.601 153.078 269.729C153.199 273.921 153.281 278.14 153.909 282.293C155.714 294.245 159.418 306.035 163.304 317.455ZM167.963 206.657C177.601 211.094 187.001 212.321 197.508 212.113C206.479 212.202 218.092 211.175 225.979 206.711C223.267 203.376 221.524 198.892 219.208 195.215C214.398 187.581 208.625 181.485 202.276 175.162C200.843 173.735 198.261 170.571 196.37 169.955C194.168 171.473 192.222 173.319 190.256 175.125Q188.451 176.757 186.738 178.486Q185.025 180.216 183.41 182.036Q181.796 183.857 180.283 185.764Q178.771 187.671 177.366 189.658Q175.961 191.646 174.668 193.707Q173.374 195.769 172.196 197.899Q171.018 200.028 169.959 202.219Q168.9 204.411 167.963 206.657ZM242.806 297.793C241.402 301.977 240.087 306.179 238.637 310.35C237.345 314.066 235.837 317.825 234.92 321.654C240.153 325.512 247.186 332.841 252.899 334.863C254.633 335.168 256.423 335.697 257.983 334.574C259.131 333.748 259.563 332.292 259.704 330.948C260.743 321.016 253.544 309.302 247.371 302.047C246.179 300.647 244.526 298.529 242.806 297.793ZM146.722 291.37C144.177 294.376 141.403 297.113 139.083 300.316C133.152 308.504 126.922 322.238 127.944 332.553C128.09 334.02 128.606 335.579 129.848 336.478C131.252 337.494 133.1 337.405 134.715 337.069C135.522 336.901 136.348 336.703 137.103 336.373C144.114 332.403 150.436 326.22 156.411 320.839C154.729 316.793 147.624 291.755 146.722 291.37ZM167.669 328.09C167.069 334.471 168.24 341.082 167.557 347.489Q181.845 347.732 196.134 347.634Q209.474 347.686 222.813 347.555L223.755 347.422C224.571 345.909 223.969 331.366 224.174 328.205L187.339 328.19C180.808 328.191 174.19 328.41 167.669 328.09Z"/>
	<path fill="#FEFEFE" d="M193.874 232.499Q194.515 232.426 195.16 232.385Q195.804 232.344 196.449 232.334Q197.095 232.324 197.74 232.346Q198.385 232.368 199.029 232.422Q199.672 232.476 200.312 232.561Q200.952 232.646 201.587 232.762Q202.222 232.879 202.85 233.026Q203.479 233.173 204.099 233.351Q204.72 233.529 205.331 233.737Q205.942 233.945 206.542 234.183Q207.143 234.421 207.73 234.688Q208.318 234.955 208.892 235.25Q209.466 235.546 210.025 235.869Q210.584 236.192 211.126 236.543Q211.668 236.893 212.193 237.269Q212.717 237.646 213.223 238.047Q213.728 238.449 214.213 238.875Q214.698 239.301 215.162 239.75Q215.626 240.199 216.067 240.671Q216.508 241.142 216.925 241.634Q217.343 242.127 217.735 242.639Q218.128 243.151 218.496 243.682Q218.863 244.213 219.204 244.762Q219.544 245.31 219.858 245.874Q220.171 246.439 220.457 247.018Q220.742 247.597 220.999 248.189Q221.256 248.781 221.483 249.385Q221.71 249.99 221.908 250.604Q222.105 251.219 222.273 251.842Q222.44 252.466 222.576 253.097Q222.712 253.728 222.818 254.365Q222.923 255.002 222.997 255.643Q223.071 256.284 223.113 256.929Q223.156 257.573 223.167 258.218Q223.177 258.864 223.157 259.509Q223.136 260.154 223.083 260.797Q223.031 261.441 222.947 262.081Q222.863 262.721 222.748 263.356Q222.633 263.992 222.487 264.62Q222.34 265.249 222.164 265.87Q221.987 266.491 221.78 267.102Q221.573 267.714 221.336 268.314Q221.099 268.915 220.833 269.503Q220.567 270.092 220.273 270.666Q219.979 271.241 219.656 271.8Q219.334 272.359 218.985 272.902Q218.636 273.445 218.26 273.97Q217.885 274.496 217.484 275.002Q217.083 275.508 216.658 275.994Q216.233 276.48 215.785 276.944Q215.336 277.409 214.866 277.85Q214.395 278.292 213.904 278.711Q213.412 279.129 212.9 279.523Q212.389 279.917 211.859 280.285Q211.328 280.653 210.781 280.995Q210.233 281.337 209.669 281.651Q209.105 281.966 208.527 282.252Q207.948 282.539 207.357 282.796Q206.765 283.054 206.161 283.283Q205.557 283.511 204.943 283.71Q204.329 283.908 203.705 284.077Q203.082 284.245 202.451 284.382Q201.821 284.52 201.184 284.626Q200.547 284.733 199.906 284.808Q199.263 284.883 198.618 284.927Q197.972 284.971 197.325 284.982Q196.678 284.994 196.031 284.974Q195.385 284.954 194.74 284.903Q194.095 284.851 193.453 284.768Q192.811 284.684 192.175 284.57Q191.538 284.455 190.907 284.309Q190.277 284.163 189.655 283.987Q189.032 283.81 188.419 283.603Q187.806 283.396 187.204 283.159Q186.602 282.922 186.012 282.656Q185.422 282.39 184.846 282.095Q184.27 281.8 183.709 281.477Q183.149 281.155 182.604 280.805Q182.06 280.455 181.534 280.078Q181.007 279.702 180.5 279.301Q179.993 278.899 179.506 278.473Q179.019 278.047 178.553 277.597Q178.088 277.148 177.645 276.676Q177.202 276.204 176.783 275.711Q176.364 275.218 175.97 274.705Q175.575 274.192 175.207 273.66Q174.838 273.129 174.496 272.579Q174.154 272.03 173.839 271.465Q173.524 270.899 173.238 270.319Q172.951 269.739 172.693 269.146Q172.436 268.552 172.207 267.947Q171.979 267.341 171.781 266.725Q171.583 266.109 171.415 265.484Q171.247 264.859 171.11 264.227Q170.973 263.595 170.868 262.956Q170.762 262.318 170.688 261.675Q170.614 261.032 170.571 260.387Q170.529 259.741 170.518 259.094Q170.508 258.447 170.529 257.8Q170.55 257.153 170.603 256.509Q170.655 255.864 170.74 255.222Q170.824 254.581 170.94 253.944Q171.056 253.307 171.203 252.677Q171.35 252.047 171.528 251.425Q171.706 250.803 171.914 250.19Q172.122 249.578 172.36 248.976Q172.598 248.374 172.865 247.785Q173.133 247.196 173.428 246.62Q173.724 246.045 174.048 245.484Q174.372 244.924 174.723 244.381Q175.074 243.837 175.451 243.311Q175.828 242.785 176.231 242.279Q176.633 241.772 177.06 241.286Q177.487 240.8 177.938 240.335Q178.388 239.871 178.861 239.429Q179.333 238.987 179.827 238.569Q180.321 238.15 180.834 237.757Q181.348 237.363 181.881 236.996Q182.413 236.628 182.963 236.287Q183.513 235.946 184.079 235.632Q184.644 235.318 185.225 235.033Q185.806 234.747 186.4 234.491Q186.994 234.234 187.6 234.007Q188.205 233.78 188.822 233.583Q189.438 233.385 190.063 233.219Q190.689 233.052 191.321 232.917Q191.954 232.781 192.592 232.676Q193.231 232.572 193.874 232.499ZM200.17 277.015Q200.617 276.934 201.06 276.83Q201.503 276.727 201.94 276.602Q202.377 276.477 202.808 276.331Q203.238 276.185 203.661 276.018Q204.084 275.851 204.498 275.664Q204.912 275.477 205.317 275.269Q205.721 275.062 206.115 274.835Q206.509 274.608 206.891 274.362Q207.274 274.116 207.644 273.851Q208.013 273.587 208.37 273.305Q208.726 273.022 209.068 272.723Q209.411 272.424 209.738 272.108Q210.065 271.792 210.376 271.461Q210.688 271.13 210.982 270.783Q211.277 270.437 211.554 270.077Q211.832 269.717 212.091 269.344Q212.351 268.97 212.592 268.585Q212.832 268.199 213.054 267.802Q213.276 267.405 213.478 266.998Q213.68 266.591 213.862 266.174Q214.044 265.758 214.205 265.332Q214.366 264.907 214.507 264.475Q214.647 264.042 214.766 263.604Q214.885 263.165 214.982 262.721Q215.079 262.277 215.155 261.828Q215.23 261.38 215.284 260.929Q215.337 260.477 215.368 260.024Q215.4 259.57 215.409 259.115Q215.418 258.661 215.405 258.207Q215.391 257.752 215.356 257.299Q215.321 256.846 215.263 256.395Q215.206 255.944 215.126 255.496Q215.046 255.048 214.945 254.605Q214.844 254.162 214.721 253.724Q214.598 253.287 214.454 252.855Q214.309 252.424 214.144 252.001Q213.979 251.577 213.794 251.162Q213.608 250.747 213.402 250.342Q213.196 249.936 212.971 249.541Q212.746 249.147 212.501 248.763Q212.257 248.38 211.994 248.009Q211.731 247.638 211.451 247.28Q211.17 246.923 210.872 246.579Q210.574 246.236 210.26 245.907Q209.946 245.579 209.616 245.266Q209.286 244.953 208.941 244.657Q208.596 244.361 208.237 244.082Q207.878 243.803 207.506 243.542Q207.133 243.281 206.749 243.038Q206.364 242.796 205.968 242.572Q205.572 242.349 205.166 242.145Q204.76 241.941 204.344 241.758Q203.928 241.574 203.503 241.411Q203.079 241.248 202.647 241.106Q202.215 240.964 201.777 240.843Q201.339 240.722 200.895 240.623Q200.452 240.524 200.003 240.446Q199.556 240.369 199.104 240.314Q198.653 240.258 198.2 240.225Q197.746 240.192 197.292 240.181Q196.837 240.17 196.383 240.181Q195.928 240.192 195.475 240.226Q195.021 240.259 194.57 240.315Q194.119 240.37 193.671 240.448Q193.221 240.526 192.775 240.626Q192.329 240.726 191.888 240.848Q191.447 240.97 191.013 241.114Q190.579 241.257 190.153 241.422Q189.727 241.586 189.309 241.772Q188.891 241.957 188.483 242.163Q188.074 242.369 187.677 242.594Q187.279 242.82 186.893 243.065Q186.507 243.31 186.134 243.573Q185.76 243.837 185.4 244.119Q185.04 244.4 184.695 244.699Q184.349 244.998 184.018 245.314Q183.687 245.63 183.373 245.961Q183.058 246.293 182.76 246.639Q182.462 246.986 182.181 247.347Q181.901 247.708 181.638 248.082Q181.376 248.456 181.132 248.843Q180.888 249.23 180.664 249.628Q180.44 250.026 180.235 250.435Q180.03 250.844 179.846 251.262Q179.662 251.68 179.499 252.107Q179.335 252.534 179.193 252.969Q179.051 253.403 178.93 253.844Q178.809 254.285 178.711 254.731Q178.612 255.178 178.535 255.628Q178.458 256.079 178.404 256.533Q178.349 256.987 178.317 257.443Q178.285 257.899 178.276 258.356Q178.266 258.813 178.279 259.27Q178.292 259.727 178.327 260.182Q178.363 260.638 178.42 261.091Q178.478 261.545 178.558 261.995Q178.638 262.445 178.74 262.891Q178.842 263.336 178.966 263.776Q179.09 264.216 179.235 264.65Q179.38 265.083 179.547 265.509Q179.713 265.935 179.901 266.352Q180.088 266.769 180.295 267.176Q180.503 267.583 180.73 267.98Q180.958 268.376 181.204 268.761Q181.451 269.146 181.716 269.519Q181.981 269.891 182.264 270.25Q182.547 270.609 182.848 270.953Q183.148 271.298 183.466 271.627Q183.783 271.956 184.116 272.269Q184.448 272.583 184.796 272.879Q185.144 273.176 185.506 273.455Q185.868 273.734 186.244 273.995Q186.619 274.255 187.007 274.498Q187.395 274.74 187.794 274.962Q188.193 275.185 188.603 275.388Q189.012 275.591 189.432 275.773Q189.851 275.956 190.278 276.117Q190.706 276.279 191.141 276.419Q191.576 276.559 192.018 276.678Q192.459 276.797 192.906 276.894Q193.352 276.991 193.803 277.065Q194.254 277.14 194.708 277.193Q195.163 277.245 195.619 277.275Q196.075 277.305 196.532 277.313Q196.989 277.321 197.446 277.306Q197.903 277.291 198.358 277.254Q198.814 277.216 199.267 277.157Q199.72 277.097 200.17 277.015Z"/>
	<path fill="#FEFEFE" d="M320.133 107.566C321.089 107.397 322.13 107.486 323.1 107.496C324.61 108.414 325.913 109.727 326.668 111.344C328.26 114.752 328.542 119.158 329.416 122.823L335.288 147.358C335.806 149.558 336.789 151.678 337.18 153.904C337.275 154.45 337.238 154.925 337.031 155.441C336.396 157.025 335.041 157.444 333.577 158.01C319.843 153.966 315.098 164.072 304.749 170.234C298.539 173.932 291.006 177.325 283.946 178.939C281.851 179.418 279.677 179.688 277.555 180.036L277.81 180.778L277.691 180.709C278.707 185.099 280.315 189.588 280.771 194.062L280.818 194.544C286.338 193.998 291.812 193.023 297.373 192.868C308.415 192.562 323.48 196.463 333.779 200.528C354.542 208.724 368.977 224.152 377.714 244.494C387.068 266.271 386.515 290.072 377.837 311.935C369.485 332.979 352.987 347.828 332.429 356.652C327.108 358.936 321.648 360.394 315.981 361.492C298.68 364.843 283.933 362.653 267.724 356.123C265.498 355.226 260.008 353.522 259.129 351.14C258.702 349.983 258.787 348.599 259.349 347.504C260.732 344.807 263.358 345.593 265.6 346.625C267.762 347.62 269.866 348.791 272.075 349.674C286.785 355.552 303.333 357.544 318.684 352.906C321.95 352.286 325.209 351.002 328.279 349.73C340.039 344.86 350.57 337.794 358.813 328.027Q359.898 326.716 360.925 325.36Q361.952 324.003 362.919 322.603Q363.886 321.203 364.791 319.761Q365.696 318.32 366.537 316.841Q367.378 315.362 368.154 313.847Q368.93 312.333 369.639 310.786Q370.348 309.239 370.988 307.663Q371.629 306.087 372.201 304.484Q372.772 302.881 373.273 301.255Q373.774 299.628 374.203 297.982Q374.633 296.335 374.99 294.672Q375.347 293.008 375.632 291.33Q375.916 289.653 376.127 287.964Q376.338 286.276 376.475 284.58Q376.612 282.883 376.675 281.183Q376.737 279.483 376.726 277.781C376.733 274.578 376.377 271.308 376.093 268.119C374.453 249.703 364.401 231.531 350.32 219.758Q349.089 218.722 347.817 217.737Q346.545 216.752 345.234 215.819Q343.923 214.887 342.575 214.008Q341.227 213.13 339.845 212.306Q338.463 211.483 337.048 210.717Q335.633 209.951 334.189 209.243Q332.744 208.534 331.272 207.885Q329.8 207.236 328.302 206.648Q326.805 206.059 325.285 205.532Q323.765 205.005 322.225 204.54Q320.685 204.074 319.127 203.672Q317.569 203.27 315.996 202.931Q314.423 202.593 312.838 202.318Q311.253 202.044 309.658 201.834Q308.063 201.624 306.46 201.479Q304.858 201.335 303.251 201.255C296.413 200.974 289.826 201.653 283.037 202.26C283.639 208.167 289.571 224.488 288.054 228.767C287.661 229.874 286.839 230.822 285.765 231.313C284.982 231.671 284.093 231.728 283.285 231.417C282.393 231.074 281.695 230.255 281.29 229.413C280.319 227.398 280.004 224.833 279.53 222.652C278.309 217.024 277.117 209.686 275.029 204.429L274.874 204.043C268.331 205.694 259.156 210.311 253.616 214.1C251.23 215.732 248.984 218.012 246.447 219.328Q246.133 219.495 245.791 219.593Q245.449 219.691 245.094 219.715Q244.739 219.74 244.386 219.69Q244.034 219.64 243.7 219.518C242.753 219.176 242.119 218.422 241.756 217.503C241.269 216.271 241.353 214.906 241.909 213.71C242.814 211.761 244.882 210.575 246.568 209.357C255.11 203.186 263.548 199.806 273.227 195.935C271.836 188.544 269.928 181.27 268.104 173.977L261.632 148.116C260.308 142.904 258.803 137.68 257.724 132.416C257.464 131.148 256.88 128.83 257.303 127.599C257.594 126.751 258.057 126.163 258.888 125.786C260.229 125.178 262.009 125.724 263.304 126.169C264.3 127.712 264.864 129.047 265.174 130.852C269.875 130.686 274.7 130.494 279.247 129.19C288.39 126.566 295.41 119.93 303.013 114.553C305.531 112.772 308.072 110.99 310.933 109.797C313.866 108.574 317.025 108.123 320.133 107.566ZM267.191 139.524C269.109 143.196 269.921 148.936 270.928 153.057C272.241 158.428 273.757 163.747 274.73 169.189C274.819 169.686 274.914 170.409 275.437 170.583C275.97 170.761 276.462 170.746 277.015 170.743C279.232 170.823 281.504 170.978 283.711 170.711C296.173 169.208 304.42 158.885 315.007 153.449C318.996 151.401 323.364 150.33 327.727 149.409C326.425 145.194 319.92 116.727 318.442 116.045C318.339 115.997 318.22 115.995 318.11 115.97C305.293 120.429 297.777 130.891 285.454 135.742C279.697 138.008 273.226 138.292 267.191 139.524Z"/>
	<path fill="#FEFEFE" d="M327.413 232.653Q327.859 232.605 328.306 232.579Q328.753 232.552 329.202 232.548Q329.65 232.544 330.098 232.561Q330.545 232.579 330.992 232.618Q331.438 232.657 331.882 232.718Q332.326 232.779 332.767 232.862Q333.207 232.945 333.643 233.049Q334.079 233.153 334.51 233.278Q334.94 233.403 335.364 233.549Q335.788 233.695 336.204 233.862Q336.62 234.029 337.027 234.215Q337.435 234.402 337.832 234.608Q338.23 234.815 338.618 235.04Q339.005 235.266 339.381 235.51Q339.757 235.754 340.12 236.016Q340.484 236.279 340.834 236.558Q341.184 236.838 341.52 237.134Q341.856 237.431 342.178 237.743Q342.499 238.056 342.805 238.384Q343.11 238.711 343.4 239.054Q343.689 239.396 343.961 239.752Q344.234 240.108 344.488 240.477Q344.743 240.846 344.979 241.227Q345.215 241.608 345.433 242Q345.65 242.392 345.848 242.794Q346.046 243.196 346.224 243.607Q346.402 244.018 346.56 244.438Q346.718 244.857 346.855 245.284Q346.992 245.711 347.108 246.144Q347.225 246.576 347.319 247.014Q347.414 247.452 347.488 247.895Q347.561 248.337 347.613 248.782Q347.665 249.227 347.695 249.674Q347.725 250.122 347.733 250.57Q347.741 251.018 347.727 251.466Q347.713 251.914 347.678 252.361Q347.642 252.807 347.585 253.252Q347.527 253.696 347.448 254.138Q347.369 254.579 347.269 255.016Q347.168 255.452 347.047 255.884Q346.925 256.315 346.783 256.74Q346.64 257.165 346.477 257.582Q346.314 258 346.13 258.409Q345.947 258.818 345.744 259.217Q345.541 259.617 345.319 260.006Q345.096 260.395 344.855 260.773Q344.614 261.151 344.355 261.517Q344.096 261.882 343.819 262.235Q343.542 262.587 343.249 262.926Q342.955 263.265 342.645 263.589Q342.335 263.912 342.01 264.221Q341.685 264.529 341.345 264.821Q341.005 265.113 340.651 265.389Q340.298 265.664 339.931 265.921Q339.564 266.179 339.185 266.418Q338.806 266.658 338.416 266.878Q338.026 267.099 337.626 267.3Q337.225 267.502 336.815 267.683Q336.405 267.865 335.987 268.026Q335.569 268.187 335.144 268.328Q334.718 268.469 334.286 268.589Q333.854 268.708 333.417 268.807Q332.98 268.905 332.538 268.982Q332.097 269.06 331.652 269.115Q331.203 269.171 330.751 269.205Q330.299 269.239 329.846 269.25Q329.394 269.261 328.941 269.251Q328.488 269.24 328.036 269.206Q327.585 269.173 327.135 269.118Q326.685 269.062 326.239 268.985Q325.793 268.907 325.351 268.808Q324.909 268.708 324.473 268.587Q324.036 268.466 323.607 268.323Q323.177 268.181 322.754 268.017Q322.332 267.854 321.918 267.669Q321.504 267.485 321.1 267.281Q320.696 267.077 320.302 266.852Q319.909 266.628 319.526 266.385Q319.144 266.142 318.775 265.88Q318.405 265.618 318.049 265.339Q317.693 265.059 317.351 264.762Q317.009 264.465 316.682 264.152Q316.355 263.838 316.043 263.509Q315.732 263.18 315.438 262.836Q315.143 262.492 314.866 262.134Q314.589 261.775 314.33 261.404Q314.071 261.032 313.83 260.649Q313.59 260.265 313.368 259.87Q313.147 259.474 312.945 259.069Q312.744 258.663 312.563 258.248Q312.381 257.833 312.221 257.409Q312.06 256.986 311.921 256.555Q311.781 256.124 311.663 255.687Q311.545 255.25 311.449 254.807Q311.352 254.364 311.278 253.918Q311.203 253.471 311.151 253.021Q311.099 252.571 311.069 252.119Q311.039 251.667 311.031 251.214Q311.023 250.761 311.038 250.309Q311.052 249.856 311.089 249.405Q311.126 248.953 311.185 248.504Q311.245 248.055 311.326 247.609Q311.407 247.164 311.51 246.723Q311.613 246.282 311.738 245.846Q311.863 245.411 312.009 244.982Q312.155 244.554 312.322 244.132Q312.489 243.711 312.676 243.299Q312.864 242.887 313.072 242.484Q313.279 242.082 313.507 241.69Q313.734 241.298 313.98 240.918Q314.227 240.538 314.492 240.171Q314.756 239.803 315.039 239.449Q315.322 239.095 315.621 238.756Q315.921 238.416 316.237 238.092Q316.553 237.767 316.885 237.459Q317.217 237.151 317.563 236.859Q317.91 236.567 318.27 236.293Q318.631 236.019 319.004 235.763Q319.378 235.507 319.764 235.269Q320.149 235.032 320.546 234.814Q320.943 234.596 321.351 234.398Q321.758 234.199 322.174 234.022Q322.591 233.844 323.016 233.687Q323.441 233.529 323.873 233.393Q324.305 233.258 324.743 233.143Q325.181 233.029 325.625 232.936Q326.068 232.843 326.515 232.772Q326.963 232.702 327.413 232.653ZM330.777 261.035C333.421 260.942 335.508 259.838 337.289 257.88C339.149 255.835 340.029 253.337 339.874 250.579C339.694 247.397 338.326 244.383 335.861 242.328C333.501 240.362 331.289 240.167 328.371 240.292C324.891 241.101 322.034 242.716 320.148 245.877C318.747 248.223 318.203 251.524 318.949 254.169C319.626 256.571 321.358 258.486 323.523 259.675C325.84 260.946 328.216 261.03 330.777 261.035Z"/>
	<path fill="#FEFEFE" d="M279.31 266.222Q279.678 266.162 280.049 266.121Q280.42 266.08 280.792 266.057Q281.164 266.033 281.537 266.029Q281.91 266.024 282.283 266.037Q282.656 266.051 283.028 266.082Q283.399 266.114 283.769 266.164Q284.139 266.214 284.506 266.282Q284.872 266.35 285.235 266.436Q285.599 266.522 285.957 266.625Q286.315 266.729 286.668 266.85Q287.021 266.971 287.367 267.109Q287.714 267.248 288.053 267.403Q288.392 267.558 288.724 267.729Q289.055 267.901 289.377 268.089Q289.7 268.276 290.013 268.479Q290.326 268.682 290.628 268.901Q290.931 269.119 291.222 269.352Q291.513 269.585 291.793 269.832Q292.073 270.079 292.34 270.339Q292.607 270.599 292.861 270.872Q293.115 271.146 293.356 271.431Q293.596 271.716 293.822 272.013Q294.048 272.31 294.26 272.617Q294.471 272.924 294.667 273.242Q294.863 273.559 295.043 273.886Q295.223 274.213 295.387 274.548Q295.551 274.883 295.698 275.226Q295.845 275.568 295.976 275.918Q296.106 276.268 296.219 276.623Q296.332 276.979 296.427 277.339Q296.522 277.7 296.6 278.065Q296.677 278.43 296.737 278.798Q296.797 279.166 296.838 279.537Q296.879 279.908 296.903 280.28Q296.926 280.652 296.931 281.025Q296.935 281.398 296.922 281.771Q296.908 282.144 296.877 282.516Q296.845 282.887 296.795 283.257Q296.745 283.627 296.677 283.994Q296.609 284.36 296.523 284.723Q296.437 285.086 296.334 285.445Q296.23 285.803 296.109 286.156Q295.988 286.509 295.85 286.855Q295.711 287.202 295.556 287.541Q295.401 287.88 295.23 288.212Q295.058 288.543 294.871 288.865Q294.683 289.188 294.48 289.501Q294.277 289.814 294.058 290.116Q293.84 290.419 293.607 290.71Q293.374 291.001 293.127 291.281Q292.88 291.561 292.62 291.828Q292.36 292.095 292.087 292.349Q291.813 292.603 291.528 292.844Q291.243 293.084 290.946 293.31Q290.65 293.536 290.342 293.748Q290.035 293.959 289.717 294.155Q289.4 294.351 289.073 294.531Q288.746 294.711 288.411 294.875Q288.076 295.039 287.733 295.186Q287.391 295.333 287.041 295.464Q286.691 295.594 286.336 295.707Q285.98 295.82 285.62 295.915Q285.259 296.01 284.894 296.088Q284.529 296.165 284.161 296.225Q283.793 296.285 283.422 296.326Q283.051 296.367 282.679 296.39Q282.307 296.414 281.934 296.418Q281.561 296.423 281.188 296.41Q280.815 296.396 280.443 296.365Q280.072 296.333 279.702 296.283Q279.332 296.233 278.965 296.165Q278.599 296.097 278.236 296.011Q277.873 295.925 277.514 295.822Q277.156 295.718 276.803 295.597Q276.45 295.476 276.104 295.338Q275.757 295.199 275.418 295.044Q275.079 294.889 274.747 294.718Q274.416 294.546 274.094 294.358Q273.771 294.171 273.458 293.968Q273.145 293.764 272.843 293.546Q272.54 293.328 272.249 293.095Q271.958 292.862 271.678 292.615Q271.398 292.368 271.131 292.108Q270.864 291.848 270.61 291.575Q270.356 291.301 270.115 291.016Q269.875 290.731 269.649 290.434Q269.423 290.137 269.211 289.83Q269 289.523 268.804 289.205Q268.608 288.888 268.428 288.561Q268.248 288.234 268.084 287.899Q267.92 287.564 267.773 287.221Q267.626 286.879 267.495 286.529Q267.365 286.179 267.252 285.824Q267.139 285.468 267.044 285.108Q266.949 284.747 266.871 284.382Q266.794 284.017 266.734 283.649Q266.674 283.281 266.633 282.91Q266.592 282.539 266.569 282.167Q266.545 281.795 266.541 281.422Q266.536 281.049 266.549 280.676Q266.563 280.303 266.594 279.931Q266.626 279.56 266.676 279.19Q266.726 278.82 266.794 278.453Q266.862 278.087 266.948 277.724Q267.034 277.361 267.137 277.002Q267.241 276.644 267.362 276.291Q267.483 275.938 267.621 275.592Q267.76 275.245 267.915 274.906Q268.07 274.567 268.241 274.235Q268.413 273.904 268.601 273.582Q268.788 273.259 268.991 272.946Q269.195 272.633 269.413 272.331Q269.631 272.028 269.864 271.737Q270.097 271.446 270.344 271.166Q270.591 270.886 270.851 270.619Q271.111 270.352 271.384 270.098Q271.658 269.844 271.943 269.603Q272.228 269.363 272.525 269.137Q272.822 268.911 273.129 268.699Q273.436 268.488 273.754 268.292Q274.071 268.096 274.398 267.916Q274.725 267.736 275.06 267.572Q275.395 267.408 275.738 267.261Q276.08 267.114 276.43 266.983Q276.78 266.853 277.135 266.74Q277.491 266.627 277.851 266.532Q278.212 266.437 278.577 266.359Q278.942 266.282 279.31 266.222ZM282.563 288.416C284.634 288.218 286.318 287.746 287.663 286.031C288.862 284.503 289.172 282.583 288.898 280.693C288.583 278.52 287.593 276.347 285.782 275.031C284.417 274.038 282.4 273.569 280.732 273.839C278.613 274.137 276.933 275.001 275.648 276.774C274.428 278.456 273.923 280.678 274.348 282.716C274.746 284.622 276.035 286.185 277.674 287.186C279.275 288.164 280.739 288.311 282.563 288.416Z"/>
	<path fill="#FEFEFE" d="M325.503 299.855Q325.819 299.798 326.138 299.757Q326.456 299.716 326.776 299.69Q327.096 299.665 327.417 299.655Q327.738 299.645 328.059 299.651Q328.38 299.657 328.701 299.679Q329.021 299.7 329.34 299.738Q329.659 299.775 329.976 299.828Q330.293 299.881 330.607 299.949Q330.92 300.018 331.23 300.102Q331.54 300.185 331.846 300.284Q332.152 300.383 332.452 300.497Q332.752 300.61 333.047 300.739Q333.341 300.867 333.629 301.01Q333.917 301.152 334.197 301.309Q334.477 301.465 334.75 301.635Q335.022 301.805 335.286 301.989Q335.55 302.172 335.804 302.368Q336.059 302.564 336.303 302.772Q336.548 302.98 336.782 303.2Q337.016 303.42 337.239 303.651Q337.461 303.883 337.673 304.124Q337.884 304.366 338.083 304.618Q338.283 304.87 338.469 305.131Q338.656 305.393 338.829 305.663Q339.003 305.933 339.163 306.211Q339.323 306.49 339.469 306.776Q339.616 307.062 339.748 307.354Q339.88 307.647 339.997 307.946Q340.115 308.245 340.218 308.549Q340.321 308.853 340.408 309.162Q340.496 309.471 340.568 309.784Q340.641 310.097 340.698 310.413Q340.755 310.729 340.797 311.048Q340.838 311.366 340.864 311.686Q340.89 312.006 340.9 312.327Q340.91 312.648 340.904 312.969Q340.898 313.29 340.877 313.611Q340.855 313.931 340.818 314.25Q340.781 314.569 340.728 314.886Q340.676 315.203 340.607 315.517Q340.539 315.831 340.456 316.141Q340.372 316.451 340.274 316.756Q340.175 317.062 340.061 317.362Q339.948 317.663 339.82 317.957Q339.692 318.252 339.549 318.54Q339.407 318.828 339.251 319.108Q339.094 319.389 338.924 319.661Q338.755 319.934 338.572 320.198Q338.388 320.462 338.193 320.716Q337.997 320.971 337.789 321.215Q337.581 321.46 337.361 321.694Q337.141 321.928 336.91 322.152Q336.679 322.375 336.438 322.586Q336.196 322.798 335.944 322.997Q335.692 323.197 335.431 323.383Q335.17 323.57 334.9 323.744Q334.63 323.918 334.352 324.078Q334.073 324.238 333.787 324.385Q333.502 324.531 333.209 324.664Q332.916 324.796 332.618 324.914Q332.319 325.031 332.015 325.134Q331.71 325.237 331.402 325.325Q331.093 325.413 330.78 325.486Q330.467 325.559 330.151 325.616Q329.835 325.673 329.516 325.715Q329.197 325.757 328.877 325.783Q328.556 325.809 328.235 325.819Q327.914 325.829 327.592 325.824Q327.271 325.818 326.95 325.797Q326.63 325.776 326.31 325.739Q325.991 325.702 325.674 325.649Q325.357 325.596 325.042 325.528Q324.728 325.46 324.418 325.376Q324.107 325.293 323.802 325.194Q323.496 325.096 323.195 324.982Q322.894 324.869 322.599 324.74Q322.305 324.612 322.016 324.47Q321.728 324.327 321.447 324.171Q321.167 324.014 320.894 323.844Q320.621 323.674 320.357 323.491Q320.093 323.308 319.838 323.112Q319.583 322.916 319.338 322.708Q319.093 322.499 318.859 322.279Q318.625 322.059 318.401 321.828Q318.178 321.597 317.966 321.355Q317.755 321.113 317.555 320.861Q317.356 320.609 317.169 320.347Q316.982 320.086 316.808 319.815Q316.634 319.545 316.474 319.266Q316.314 318.988 316.167 318.702Q316.021 318.415 315.888 318.122Q315.756 317.829 315.638 317.53Q315.521 317.231 315.418 316.927Q315.315 316.622 315.227 316.313Q315.139 316.004 315.067 315.691Q314.994 315.377 314.937 315.061Q314.88 314.745 314.839 314.426Q314.797 314.107 314.771 313.787Q314.745 313.466 314.735 313.145Q314.725 312.824 314.731 312.502Q314.737 312.181 314.759 311.86Q314.78 311.54 314.817 311.22Q314.855 310.901 314.907 310.584Q314.96 310.267 315.029 309.953Q315.097 309.639 315.181 309.328Q315.265 309.018 315.363 308.712Q315.462 308.406 315.576 308.106Q315.69 307.805 315.818 307.51Q315.947 307.215 316.089 306.927Q316.232 306.639 316.389 306.359Q316.545 306.078 316.715 305.805Q316.886 305.533 317.069 305.269Q317.253 305.005 317.449 304.75Q317.645 304.495 317.853 304.251Q318.062 304.006 318.282 303.772Q318.502 303.538 318.734 303.314Q318.965 303.091 319.207 302.88Q319.449 302.668 319.701 302.469Q319.954 302.27 320.215 302.083Q320.477 301.896 320.747 301.723Q321.018 301.549 321.297 301.389Q321.575 301.229 321.862 301.082Q322.148 300.936 322.441 300.804Q322.734 300.672 323.033 300.555Q323.332 300.437 323.637 300.334Q323.942 300.232 324.251 300.144Q324.56 300.057 324.873 299.984Q325.187 299.912 325.503 299.855ZM328.759 317.763Q328.88 317.744 329 317.72Q329.12 317.696 329.239 317.665Q329.358 317.635 329.475 317.599Q329.592 317.563 329.707 317.522Q329.822 317.48 329.935 317.433Q330.048 317.385 330.159 317.333Q330.269 317.28 330.377 317.222Q330.485 317.164 330.59 317.101Q330.695 317.038 330.796 316.969Q330.898 316.901 330.996 316.828Q331.095 316.755 331.189 316.677Q331.284 316.599 331.374 316.517Q331.465 316.434 331.551 316.348Q331.638 316.261 331.72 316.17Q331.802 316.079 331.88 315.985Q331.958 315.89 332.031 315.791Q332.104 315.693 332.172 315.591Q332.24 315.489 332.303 315.384Q332.366 315.279 332.423 315.171Q332.481 315.063 332.534 314.953Q332.586 314.842 332.633 314.729Q332.68 314.616 332.722 314.501Q332.763 314.385 332.799 314.268Q332.835 314.151 332.865 314.032Q332.895 313.913 332.919 313.793Q332.943 313.673 332.961 313.552Q332.979 313.431 332.992 313.309Q333.004 313.187 333.01 313.065Q333.017 312.943 333.017 312.82Q333.018 312.698 333.012 312.576Q333.007 312.453 332.995 312.331Q332.983 312.209 332.966 312.088Q332.949 311.967 332.925 311.847Q332.902 311.726 332.873 311.607Q332.843 311.488 332.809 311.371Q332.774 311.254 332.733 311.138Q332.692 311.022 332.646 310.909Q332.6 310.796 332.548 310.685Q332.496 310.574 332.439 310.465Q332.382 310.357 332.32 310.251Q332.258 310.146 332.19 310.044Q332.123 309.941 332.051 309.842Q331.978 309.743 331.901 309.648Q331.824 309.553 331.743 309.462Q331.661 309.37 331.575 309.283Q331.489 309.196 331.399 309.113Q331.309 309.03 331.215 308.951Q331.121 308.873 331.023 308.799Q330.926 308.725 330.824 308.656Q330.723 308.587 330.619 308.523Q330.514 308.459 330.407 308.401Q330.299 308.342 330.189 308.288Q330.079 308.235 329.966 308.187Q329.853 308.139 329.738 308.097Q329.624 308.054 329.507 308.017Q329.39 307.981 329.271 307.95Q329.153 307.918 329.033 307.893Q328.913 307.868 328.792 307.849Q328.671 307.829 328.549 307.816Q328.428 307.803 328.305 307.795Q328.183 307.788 328.061 307.786Q327.938 307.785 327.816 307.789Q327.693 307.794 327.571 307.804Q327.449 307.815 327.328 307.831Q327.205 307.848 327.084 307.87Q326.962 307.893 326.841 307.921Q326.721 307.95 326.602 307.984Q326.483 308.019 326.366 308.059Q326.249 308.1 326.134 308.146Q326.019 308.192 325.906 308.243Q325.794 308.295 325.684 308.352Q325.574 308.41 325.467 308.472Q325.36 308.535 325.256 308.602Q325.153 308.67 325.053 308.743Q324.952 308.816 324.856 308.893Q324.759 308.971 324.667 309.053Q324.574 309.135 324.486 309.222Q324.397 309.309 324.313 309.4Q324.229 309.491 324.15 309.586Q324.071 309.681 323.996 309.78Q323.921 309.879 323.852 309.981Q323.782 310.083 323.717 310.189Q323.653 310.295 323.594 310.404Q323.534 310.512 323.481 310.624Q323.427 310.735 323.379 310.849Q323.33 310.964 323.288 311.08Q323.245 311.196 323.209 311.314Q323.172 311.433 323.141 311.553Q323.11 311.673 323.085 311.794Q323.06 311.915 323.041 312.038Q323.023 312.16 323.01 312.283Q322.997 312.406 322.99 312.53Q322.983 312.654 322.983 312.777Q322.982 312.901 322.988 313.025Q322.993 313.149 323.005 313.272Q323.016 313.395 323.034 313.518Q323.052 313.641 323.075 313.762Q323.099 313.884 323.129 314.004Q323.158 314.124 323.194 314.243Q323.229 314.362 323.271 314.478Q323.312 314.595 323.359 314.71Q323.406 314.824 323.459 314.936Q323.511 315.049 323.57 315.158Q323.628 315.267 323.691 315.374Q323.755 315.48 323.823 315.583Q323.892 315.686 323.966 315.786Q324.039 315.886 324.118 315.981Q324.196 316.077 324.279 316.169Q324.362 316.261 324.45 316.349Q324.537 316.436 324.629 316.52Q324.721 316.603 324.816 316.681Q324.912 316.76 325.012 316.834Q325.111 316.908 325.214 316.976Q325.317 317.045 325.424 317.109Q325.53 317.172 325.639 317.231Q325.748 317.289 325.86 317.342Q325.973 317.395 326.087 317.442Q326.202 317.489 326.318 317.53Q326.435 317.572 326.554 317.608Q326.672 317.643 326.792 317.673Q326.913 317.703 327.034 317.727Q327.156 317.751 327.278 317.769Q327.401 317.786 327.524 317.798Q327.648 317.81 327.771 317.815Q327.895 317.821 328.019 317.821Q328.143 317.82 328.266 317.814Q328.39 317.807 328.513 317.794Q328.637 317.782 328.759 317.763Z"/>
	<path fill="#FEFEFE" d="M291.387 321.807Q291.631 321.788 291.876 321.781Q292.12 321.774 292.365 321.779Q292.609 321.785 292.854 321.802Q293.098 321.819 293.341 321.848Q293.584 321.877 293.825 321.918Q294.066 321.959 294.305 322.012Q294.544 322.065 294.78 322.13Q295.016 322.194 295.249 322.27Q295.481 322.346 295.71 322.434Q295.938 322.521 296.162 322.62Q296.386 322.718 296.605 322.827Q296.824 322.937 297.037 323.057Q297.251 323.177 297.458 323.307Q297.665 323.438 297.865 323.578Q298.066 323.719 298.259 323.869Q298.452 324.019 298.638 324.178Q298.823 324.338 299.001 324.506Q299.179 324.674 299.348 324.851Q299.517 325.028 299.677 325.213Q299.837 325.398 299.988 325.591Q300.139 325.783 300.28 325.983Q300.422 326.183 300.553 326.389Q300.684 326.596 300.805 326.809Q300.926 327.021 301.036 327.24Q301.147 327.458 301.246 327.682Q301.346 327.905 301.434 328.134Q301.522 328.362 301.599 328.594Q301.677 328.826 301.742 329.062Q301.808 329.298 301.862 329.536Q301.915 329.775 301.957 330.016Q302 330.257 302.03 330.5Q302.06 330.743 302.078 330.987Q302.096 331.231 302.102 331.476Q302.109 331.72 302.103 331.965Q302.097 332.21 302.079 332.454Q302.061 332.698 302.031 332.941Q302.001 333.184 301.96 333.425Q301.918 333.666 301.864 333.905Q301.811 334.143 301.746 334.379Q301.68 334.615 301.604 334.847Q301.527 335.08 301.439 335.308Q301.351 335.536 301.251 335.76Q301.152 335.984 301.042 336.202Q300.932 336.421 300.811 336.634Q300.691 336.847 300.56 337.053Q300.429 337.26 300.288 337.46Q300.147 337.66 299.996 337.853Q299.845 338.046 299.685 338.231Q299.525 338.416 299.356 338.593Q299.188 338.77 299.01 338.939Q298.833 339.107 298.647 339.267Q298.462 339.427 298.269 339.577Q298.076 339.728 297.876 339.868Q297.675 340.009 297.468 340.14Q297.261 340.27 297.048 340.391Q296.835 340.511 296.616 340.621Q296.398 340.73 296.174 340.829Q295.95 340.928 295.722 341.016Q295.493 341.103 295.261 341.18Q295.028 341.256 294.792 341.321Q294.556 341.386 294.317 341.439Q294.078 341.492 293.837 341.533Q293.596 341.575 293.353 341.604Q293.11 341.634 292.866 341.651Q292.623 341.668 292.379 341.674Q292.135 341.679 291.892 341.673Q291.648 341.666 291.405 341.648Q291.162 341.63 290.92 341.599Q290.678 341.569 290.438 341.527Q290.198 341.485 289.96 341.431Q289.722 341.377 289.487 341.312Q289.253 341.246 289.021 341.17Q288.79 341.093 288.562 341.005Q288.335 340.917 288.112 340.818Q287.89 340.718 287.672 340.609Q287.454 340.499 287.242 340.378Q287.03 340.258 286.825 340.127Q286.619 339.997 286.419 339.856Q286.22 339.716 286.028 339.565Q285.836 339.415 285.652 339.256Q285.467 339.096 285.291 338.928Q285.114 338.76 284.946 338.583Q284.778 338.407 284.619 338.222Q284.46 338.037 284.31 337.845Q284.16 337.653 284.02 337.454Q283.88 337.254 283.749 337.048Q283.619 336.842 283.499 336.63Q283.378 336.418 283.269 336.2Q283.159 335.982 283.06 335.76Q282.962 335.537 282.874 335.309Q282.786 335.082 282.71 334.85Q282.633 334.619 282.568 334.384Q282.503 334.149 282.449 333.911Q282.396 333.673 282.354 333.433Q282.312 333.193 282.282 332.951Q282.252 332.709 282.234 332.466Q282.216 332.223 282.21 331.979Q282.204 331.735 282.209 331.492Q282.215 331.248 282.233 331.005Q282.25 330.762 282.28 330.52Q282.31 330.278 282.351 330.038Q282.392 329.797 282.445 329.559Q282.499 329.322 282.563 329.086Q282.628 328.851 282.704 328.62Q282.78 328.388 282.868 328.161Q282.955 327.933 283.053 327.71Q283.152 327.487 283.261 327.269Q283.37 327.051 283.49 326.839Q283.61 326.626 283.74 326.42Q283.87 326.214 284.01 326.014Q284.15 325.815 284.299 325.622Q284.449 325.43 284.608 325.245Q284.766 325.06 284.934 324.883Q285.102 324.706 285.278 324.538Q285.454 324.369 285.638 324.209Q285.823 324.05 286.014 323.899Q286.206 323.749 286.405 323.608Q286.604 323.467 286.81 323.336Q287.015 323.205 287.227 323.084Q287.439 322.963 287.656 322.853Q287.874 322.743 288.096 322.643Q288.319 322.544 288.546 322.455Q288.773 322.367 289.004 322.29Q289.235 322.212 289.47 322.147Q289.705 322.081 289.943 322.027Q290.18 321.972 290.42 321.93Q290.66 321.887 290.902 321.857Q291.144 321.826 291.387 321.807ZM292.781 333.954C293.41 333.564 293.904 333.381 294.167 332.62C294.457 331.78 294.245 330.906 293.783 330.176C293.269 329.363 292.671 329.083 291.78 328.858C290.795 329.598 290.245 330.236 290.099 331.497C290.009 332.266 290.243 332.904 290.796 333.449C291.343 333.987 292.072 333.942 292.781 333.954Z"/>
</svg>
