<?xml version="1.0" encoding="utf-8" ?>
<svg xmlns="http://www.w3.org/2000/svg" xmlns:xlink="http://www.w3.org/1999/xlink" width="500" height="500">
	<path fill="#FEFEFE" d="M352.542 108.078C355.919 107.682 359.509 107.958 362.709 109.15C367.797 111.046 372.352 115.191 374.591 120.145Q374.988 121.023 375.298 121.936Q375.608 122.848 375.827 123.787Q376.046 124.725 376.172 125.681Q376.298 126.636 376.33 127.6Q376.362 128.563 376.299 129.524Q376.237 130.486 376.081 131.437Q375.925 132.388 375.677 133.319Q375.428 134.251 375.09 135.153Q374.892 135.662 374.669 136.161Q374.446 136.659 374.198 137.146Q373.951 137.633 373.68 138.107Q373.409 138.581 373.115 139.042Q372.821 139.502 372.504 139.947Q372.188 140.392 371.85 140.821Q371.512 141.25 371.153 141.662Q370.794 142.074 370.415 142.467Q370.037 142.861 369.639 143.235Q369.241 143.61 368.826 143.964Q368.41 144.319 367.978 144.652Q367.545 144.985 367.096 145.297Q366.648 145.609 366.185 145.898Q365.721 146.187 365.244 146.453Q364.767 146.719 364.278 146.961Q363.788 147.203 363.287 147.421C358.219 149.624 352.988 149.653 347.859 147.591C342.607 145.48 338.575 140.925 336.353 135.807C332.201 137.69 325.062 138.958 320.433 140.156Q304.485 144.384 288.49 148.434Q288.529 149.887 288.521 151.34C288.468 156.04 286.1 160.544 282.762 163.761C278.456 167.912 273.369 169.003 267.555 168.915C265.746 175.321 263.546 181.598 261.654 187.977C259.622 194.832 257.53 203.459 254.618 209.865Q255.568 210.377 256.462 210.983Q257.355 211.589 258.183 212.281Q259.011 212.974 259.765 213.747Q260.518 214.52 261.19 215.365C264.728 219.889 265.652 224.9 264.982 230.511C272.2 233.244 279.212 236.581 286.362 239.495Q304.196 246.755 321.856 254.426C326.213 256.312 330.656 258.058 334.959 260.053Q335.445 259.28 335.963 258.529C338.789 254.453 343.094 251.302 348.025 250.436Q348.94 250.27 349.868 250.194Q350.795 250.118 351.725 250.133Q352.655 250.148 353.58 250.254Q354.504 250.361 355.413 250.557Q356.323 250.753 357.209 251.037Q358.095 251.321 358.949 251.691Q359.802 252.06 360.616 252.512Q361.43 252.963 362.195 253.492C365.998 256.172 369.066 260.616 369.847 265.238C370.68 270.17 369.61 275.522 366.665 279.598C363.688 283.719 359.188 286.251 354.205 287.04C350.145 287.683 345.382 286.966 342.033 284.511C340.125 287.219 337.435 289.687 335.098 292.033L323.617 303.482L271.814 355.412C270.832 356.359 269.904 357.375 268.96 358.361C269.081 358.616 269.205 358.871 269.311 359.132C271.086 363.489 270.953 369.344 269.097 373.649C266.935 378.664 263.104 382.331 258.015 384.285C253.354 386.075 248.452 385.927 243.891 383.898Q243.451 383.705 243.022 383.49Q242.592 383.275 242.174 383.039Q241.755 382.803 241.349 382.547Q240.943 382.29 240.55 382.014Q240.157 381.738 239.779 381.442Q239.4 381.147 239.036 380.833Q238.673 380.519 238.325 380.187Q237.978 379.856 237.647 379.507Q237.317 379.159 237.004 378.794Q236.691 378.43 236.397 378.05Q236.102 377.671 235.827 377.277Q235.552 376.883 235.297 376.476Q235.041 376.07 234.807 375.65Q234.572 375.231 234.358 374.801Q234.145 374.371 233.953 373.931Q233.761 373.49 233.591 373.041C231.43 367.304 232.346 361.86 234.831 356.423C228 350.164 221.558 343.255 214.999 336.697C209.664 331.362 203.928 326.18 198.912 320.568C197.688 321.381 196.375 322.119 195.01 322.671C189.991 324.705 184.629 324.774 179.64 322.593C175.179 320.643 171.682 316.748 169.983 312.211Q169.648 311.312 169.403 310.385Q169.158 309.457 169.005 308.51Q168.852 307.563 168.793 306.606Q168.735 305.648 168.77 304.69Q168.806 303.731 168.936 302.78Q169.065 301.83 169.288 300.897Q169.511 299.964 169.824 299.057Q170.137 298.15 170.538 297.279C172.697 292.658 176.438 289.271 181.227 287.536C186.046 285.79 190.509 286.233 195.089 288.395C202.17 278.369 209.828 268.762 217.159 258.922C221.869 252.6 226.602 245.336 231.814 239.484C228.728 236.003 226.954 231.061 226.977 226.429C227.003 221.318 229.043 216.888 232.705 213.351C236.805 209.391 241.611 207.879 247.224 208.007C248.72 202.622 250.634 197.317 252.336 191.992C255.057 183.478 257.688 174.922 260.585 166.467C257.635 164.527 255.185 162.212 253.421 159.125C250.982 154.856 250.44 149.888 251.79 145.16Q252.043 144.294 252.379 143.456Q252.716 142.618 253.133 141.818Q253.55 141.017 254.043 140.261Q254.536 139.505 255.1 138.801Q255.665 138.096 256.296 137.451Q256.927 136.805 257.618 136.224Q258.309 135.643 259.053 135.133Q259.797 134.622 260.588 134.187Q261.003 133.952 261.43 133.738Q261.857 133.524 262.294 133.332Q262.731 133.14 263.177 132.971Q263.623 132.801 264.077 132.655Q264.531 132.508 264.993 132.384Q265.454 132.261 265.92 132.161Q266.387 132.061 266.858 131.984Q267.329 131.908 267.804 131.856Q268.278 131.803 268.755 131.775Q269.231 131.747 269.708 131.743Q270.186 131.739 270.662 131.759Q271.139 131.779 271.615 131.823Q272.09 131.867 272.562 131.935Q273.035 132.004 273.503 132.096Q273.971 132.188 274.434 132.303Q274.897 132.419 275.354 132.558C280.058 133.96 283.958 136.826 286.331 141.156C289.238 140.003 292.421 139.349 295.443 138.566Q303.558 136.409 311.749 134.558C319.473 132.756 327.156 130.616 334.834 128.616C334.721 124.432 336.119 119.993 338.575 116.608C342.051 111.818 346.735 108.958 352.542 108.078ZM238.043 243.898C233.152 251.515 227.084 258.551 221.62 265.771C214.831 274.742 208.347 283.977 201.381 292.815C204.95 297.565 206.733 302.398 205.866 308.394C205.538 310.663 204.788 312.623 203.802 314.678C206.264 316.628 208.449 319.045 210.688 321.255L224.593 335.204C227.967 338.572 237.952 347.506 239.876 350.719C243.193 347.699 248.059 346.436 252.464 346.665C257.005 346.9 260.877 349.042 264.428 351.731C264.931 351.177 265.424 350.602 265.949 350.069L317.622 298.466C323.858 292.235 329.754 285.542 336.177 279.519C333.719 275.683 332.749 271.789 332.997 267.256C327.247 265.102 321.656 262.488 315.991 260.118L282.015 245.894Q276.009 243.321 269.969 240.828C267.418 239.776 264.437 238.849 262.139 237.332C259.194 241.605 254.916 244.524 249.788 245.487C245.871 246.222 241.576 245.805 238.043 243.898Z"/>
	<path fill="#FEFEFE" d="M175.022 120.469C176.194 120.879 176.903 121.353 177.419 122.511C178.86 125.744 178.636 129.495 180.235 132.786C184.158 140.866 191.746 137.836 195.773 140.963C196.723 141.701 196.983 142.482 197.107 143.638C195.991 145.998 188.406 146.642 185.967 147.582C180.959 149.51 179.49 153.694 178.536 158.596C178.236 160.138 178.021 161.896 177.347 163.326C176.894 164.287 176.437 164.653 175.455 165.024C174.727 164.884 174.066 164.786 173.505 164.254C171.327 162.183 171.415 154.113 168.209 150.192C164.718 145.921 155.465 146.995 153.464 143.945C153.12 143.421 153.095 142.768 153.307 142.189C154.214 139.713 159.284 139.497 161.48 138.951C162.902 138.597 164.387 138.124 165.71 137.487C171.414 134.736 170.786 127.69 172.731 122.717C173.227 121.451 173.792 120.99 175.022 120.469Z"/>
	<path fill="#FEFEFE" d="M355.314 184.496C356.183 184.468 357.029 184.427 357.752 185.012C360.152 186.955 360.079 194.611 362.541 197.942C366.002 202.626 373.516 201.175 376.622 204.254C377.166 204.793 377.236 205.239 377.241 205.979C376.828 206.773 376.254 207.171 375.458 207.545C372.047 209.149 367.841 208.843 364.504 210.916C358.665 214.543 361.631 222.901 357.062 226.502C356.353 226.566 355.657 226.596 355.054 226.143C352.554 224.266 352.62 216.552 350.528 213.529C346.56 207.797 339.489 209.77 336.08 207.042C335.599 206.658 335.265 206.185 335.246 205.547C335.148 202.251 345.135 201.958 347.983 199.951C354.175 195.586 351.189 188.587 355.314 184.496Z"/>
	<path fill="#FEFEFE" d="M166.414 218.434C171.363 218.836 169.843 226.349 172.603 230.29C175.34 234.196 182.228 233.276 184.566 235.742C185.009 236.209 185.176 236.568 185.041 237.219C184.582 239.435 176.629 240.037 174.564 241.321C171.322 243.336 170.868 247.659 170.118 251.043C169.758 252.671 169.296 254.124 167.837 255.061C167.393 255.045 166.697 255.035 166.304 254.821C165.033 254.131 163.588 245.361 161.862 242.925C159.038 238.942 152.69 240.553 150.054 238.403C149.505 237.955 149.23 237.522 149.205 236.806C149.118 234.394 158.206 233.59 160.113 232.128C165.194 228.233 162.925 222.043 166.414 218.434Z"/>
	<path fill="#FEFEFE" d="M152.206 333.935C152.735 334.058 153.396 334.174 153.856 334.472C155.804 335.733 155.857 339.862 156.459 341.967C158.699 349.801 164.236 347.326 169.622 350.575C170.314 350.993 170.602 351.343 170.782 352.124C169.827 354.731 161.678 354.785 159.116 357.165C155.514 360.512 156.56 367.793 153.766 369.785C153.112 369.785 152.492 369.81 151.928 369.408C150.382 368.305 149.437 360.837 147.481 358.078C144.645 354.077 139.165 355.611 136.131 353.46C135.438 352.969 135.332 352.451 135.21 351.653C136.233 348.796 143.794 348.99 146.33 346.903C150.682 343.322 148.805 337.312 152.206 333.935Z"/>
	<path fill="#FEFEFE" d="M335.388 327.359C335.754 327.387 336.148 327.411 336.501 327.517C338.864 328.228 339.115 334.253 340.089 336.395C341.818 340.199 346.257 340.158 349.65 341.545C350.475 341.882 351.288 342.289 351.633 343.155C351.057 345.033 343.735 345.874 341.767 347.586C338.162 350.721 340.006 355.856 336.88 358.82C336.667 358.82 336.322 358.83 336.121 358.79C334.131 358.397 332.959 351.301 331.955 349.398C330.159 345.989 326.441 346.008 323.182 344.884C322.166 344.533 321.399 344.228 320.895 343.239C321.799 340.391 328.389 340.627 330.675 338.565C333.826 335.724 333.266 330.828 335.388 327.359Z"/>
</svg>
