<?xml version="1.0" encoding="utf-8" ?>
<svg xmlns="http://www.w3.org/2000/svg" xmlns:xlink="http://www.w3.org/1999/xlink" width="1000" height="1000">
	<path fill="#414286" d="M735.884 64.0151Q740.057 63.5704 744.247 63.3313Q748.437 63.0923 752.634 63.0594Q756.831 63.0265 761.024 63.2Q765.217 63.3734 769.397 63.7527Q773.577 64.132 777.733 64.7162Q781.889 65.3005 786.011 66.0883Q790.133 66.8761 794.212 67.8655Q798.29 68.8549 802.315 70.0436Q806.34 71.2322 810.302 72.6173Q814.264 74.0023 818.153 75.5804Q822.042 77.1585 825.848 78.9258Q829.655 80.693 833.37 82.6452Q837.085 84.5975 840.7 86.7299Q844.315 88.8624 847.82 91.1699Q851.326 93.4774 854.714 95.9544Q858.102 98.4314 861.364 101.072Q864.626 103.712 867.754 106.51Q870.883 109.308 873.87 112.256Q876.857 115.204 879.696 118.295Q882.534 121.386 885.218 124.613Q887.901 127.84 890.422 131.195Q892.944 134.55 895.297 138.025Q897.651 141.5 899.831 145.086Q902.011 148.673 904.012 152.362Q906.013 156.051 907.83 159.834Q909.647 163.617 911.277 167.484Q912.906 171.352 914.343 175.295Q915.78 179.238 917.022 183.247Q918.263 187.256 919.306 191.322Q920.35 195.387 921.192 199.498Q922.034 203.61 922.673 207.758Q923.312 211.906 923.746 216.08Q924.18 220.254 924.409 224.445Q924.638 228.636 924.66 232.832Q924.682 237.029 924.499 241.222Q924.315 245.415 923.925 249.594Q923.536 253.772 922.941 257.927Q922.346 262.081 921.548 266.202Q920.75 270.322 919.751 274.398Q918.751 278.474 917.553 282.496Q916.354 286.518 914.959 290.476Q913.564 294.435 911.977 298.32Q910.389 302.205 908.612 306.007Q906.835 309.809 904.874 313.519Q902.913 317.23 900.771 320.839Q898.63 324.448 896.314 327.948Q893.997 331.448 891.512 334.83Q889.027 338.212 886.378 341.467Q883.729 344.723 880.924 347.844Q878.119 350.966 875.163 353.945Q872.208 356.925 869.11 359.756Q866.011 362.587 862.778 365.262Q859.544 367.938 856.183 370.451Q852.822 372.964 849.341 375.309Q845.86 377.654 842.269 379.825Q838.677 381.996 834.983 383.988Q831.289 385.98 827.501 387.788Q823.714 389.595 819.842 391.215Q815.97 392.835 812.024 394.262Q808.077 395.689 804.065 396.921Q800.053 398.153 795.985 399.186Q791.917 400.219 787.804 401.051Q783.69 401.883 779.541 402.511Q775.391 403.14 771.216 403.564Q767.054 403.987 762.876 404.205Q758.698 404.423 754.514 404.436Q750.331 404.45 746.151 404.258Q741.972 404.066 737.807 403.67Q733.643 403.274 729.502 402.674Q725.362 402.075 721.256 401.273Q717.15 400.471 713.088 399.469Q709.026 398.467 705.018 397.267Q701.01 396.067 697.066 394.672Q693.122 393.278 689.25 391.691Q685.379 390.105 681.59 388.331Q677.801 386.557 674.104 384.6Q670.407 382.642 666.81 380.506Q663.213 378.369 659.724 376.059Q656.236 373.749 652.866 371.271Q649.495 368.793 646.25 366.153Q643.004 363.513 639.892 360.717Q636.78 357.921 633.809 354.976Q630.838 352.03 628.014 348.943Q625.191 345.856 622.522 342.634Q619.853 339.412 617.345 336.064Q614.837 332.715 612.497 329.248Q610.156 325.78 607.988 322.202Q605.82 318.624 603.83 314.944Q601.839 311.264 600.032 307.491Q598.224 303.718 596.604 299.861Q594.983 296.004 593.554 292.072Q592.124 288.141 590.889 284.143Q589.654 280.146 588.616 276.093Q587.578 272.041 586.74 267.942Q585.902 263.843 585.265 259.708Q584.629 255.573 584.196 251.412Q583.763 247.251 583.534 243.073Q583.306 238.896 583.282 234.713Q583.258 230.529 583.44 226.349Q583.621 222.17 584.007 218.004Q584.393 213.838 584.982 209.696Q585.572 205.554 586.363 201.446Q587.155 197.338 588.147 193.274Q589.139 189.209 590.329 185.199Q591.519 181.188 592.904 177.24Q594.288 173.292 595.865 169.417Q597.442 165.542 599.207 161.749Q600.971 157.955 602.92 154.253Q604.868 150.551 606.995 146.949Q609.123 143.346 611.424 139.852Q613.725 136.359 616.195 132.982Q618.665 129.605 621.297 126.353Q623.929 123.101 626.717 119.982Q629.506 116.863 632.443 113.885Q635.381 110.906 638.461 108.075Q641.542 105.244 644.757 102.567Q647.972 99.8901 651.314 97.374Q654.657 94.8579 658.119 92.5086Q661.58 90.1593 665.153 87.9824Q668.726 85.8054 672.401 83.8062Q676.076 81.8069 679.844 79.99Q683.613 78.1732 687.466 76.5432Q691.319 74.9131 695.247 73.4738Q699.175 72.0345 703.169 70.7893Q707.163 69.5442 711.214 68.4962Q715.264 67.4482 719.36 66.5999Q723.457 65.7516 727.591 65.105Q731.724 64.4584 735.884 64.0151Z"/>
	<path fill="#FEF7F3" d="M696.248 130.556C721.767 128.001 733.355 140.836 753.993 140.77C774.054 140.706 786.595 128.286 811.121 130.499C822.428 131.519 831.769 136.962 838.942 145.676C857.761 168.537 853.354 203.482 843.682 229.226C840.049 238.895 834.727 247.762 831.954 257.754C829.906 265.13 830.198 272.334 829.437 279.853C826.937 304.578 819.777 337.245 799.771 353.66C796.889 353.94 793.199 354.678 790.73 352.764C784.25 347.742 780.096 318.371 778.63 309.692C774.269 293.512 772.849 277.51 757.666 267.672Q756.496 267.608 755.326 267.556C750.749 267.359 747.208 267.967 743.46 270.859C725.125 285.002 727.159 343.025 715.475 352.444C713.034 354.411 709.428 353.662 706.517 353.455C702.955 350.258 699.597 347.019 696.74 343.161C687.144 330.199 680.253 310.077 678.373 294.034C676.908 281.529 676.146 264.049 672.801 252.238C671.127 246.326 667.805 240.464 665.238 234.878C660.233 223.989 656.329 212.017 654.864 200.078C652.633 181.896 655.168 161.764 666.919 147.086C674.423 137.714 684.31 131.946 696.248 130.556Z"/>
	<path fill="#91A2DB" d="M723.251 144.031C739.125 147.857 743.962 150.532 760.751 148.133C764.112 147.653 781.746 143.607 783.437 144.357L783.333 145.089L782.11 145.593C765.291 149.567 755.56 156.301 737.501 151.111C733.415 149.937 725.344 147.765 723.251 144.031Z"/>
	<path fill="#FEF7F3" d="M281.664 392.187C283.232 396.785 283.252 401.806 285.047 406.35C288.055 404.776 290.883 402.896 293.832 401.214C293.839 401.354 293.849 401.493 293.852 401.633C293.986 406.897 290.569 411.703 291.378 417.091C292.761 426.306 320.506 474.238 327.121 480.746C327.904 481.516 328.85 481.967 329.827 482.44C330.015 483.964 330.33 485.324 331.091 486.673C333.452 490.859 336.826 494.88 339.652 498.797Q348.959 511.826 358.602 524.609Q365.874 534.345 372.798 544.331C374.933 547.461 376.798 550.778 378.993 553.864C383.468 560.153 411.957 594.852 411.002 599.754C414.759 602.108 423.406 603.647 427.956 603.541C430.411 603.994 432.716 604.795 435.078 605.58Q435.645 602.912 436.575 600.348C438.567 594.872 441.735 589.953 447.225 587.489C453.529 584.659 459.68 585.828 465.887 588.124C467.591 589.938 469.093 591.675 470.452 593.779C473.727 601.967 472.014 606.203 471.601 614.34C482.212 615.409 492.379 618.304 502.954 619.34C504.729 620.739 507.273 622.292 507.759 624.649C507.933 625.494 507.877 626.406 507.855 627.263C518.484 629.977 530.774 632.117 541.682 633.841C550.948 635.305 560.86 636.325 569.786 639.265C571.866 639.951 573.689 641.099 575.469 642.351C576.915 644.635 578.165 647.245 579.011 649.817L579.239 651.242C580.148 656.691 581.118 662.239 581.133 667.775C582.319 674.139 581.63 681.162 581.12 687.594C580.184 699.379 578.82 711.045 576.214 722.585C573.812 733.225 570.461 743.708 567.813 754.301C566.191 760.791 565.401 768.597 562.902 774.743L561.858 774.826C561.372 776.227 561.383 777.469 561.086 778.87C560.706 788.303 559.999 797.84 560.174 807.275C560.405 819.69 561.77 832.138 562.984 844.485Q566.951 886.475 575.076 927.863C577.332 939.916 579.326 952.049 581.692 964.075C583.646 974.011 587.33 990.402 587.463 1000L535.651 1000L531.297 1000L450.677 1000L447.414 1000L334.769 1000L332.57 1000L200.645 1000L172.753 1000C175.109 992.01 176.823 983.775 178.947 975.713Q184.575 953.89 191.282 932.373C193.165 926.206 194.408 919.823 196.983 913.9C197.603 912.07 197.786 910.118 198.06 908.212C175.012 904.694 152.079 902.896 129.344 897.307C108.702 892.233 85.35 882.904 73.8536 863.877C71.5193 861.418 69.4955 858.017 67.9717 854.989C62.8975 844.902 60.3128 833.417 59.7935 822.184C58.4682 793.513 63.0168 765.425 67.7693 737.284C71.5203 715.073 75.6337 693.059 79.9993 670.965C86.9792 635.639 93.9331 597.325 105.217 563.213C112.167 542.201 120.367 520.333 135.11 503.459C138.787 499.252 142.872 495.653 147.443 492.449C160.491 483.306 175.193 476.018 189.123 468.31C208.403 457.642 227.513 446.589 247.205 436.686C248.408 436.487 249.569 436.188 250.748 435.881C250.979 432.575 252.42 428.981 253.335 425.776C261.921 413.878 270.297 401.643 281.664 392.187Z"/>
	<path fill="#F09888" d="M435.078 605.58Q435.645 602.912 436.575 600.348C438.567 594.872 441.735 589.953 447.225 587.489C453.529 584.659 459.68 585.828 465.887 588.124C467.591 589.938 469.093 591.675 470.452 593.779C473.727 601.967 472.014 606.203 471.601 614.34C482.212 615.409 492.379 618.304 502.954 619.34C504.729 620.739 507.273 622.292 507.759 624.649C507.933 625.494 507.877 626.406 507.855 627.263C518.484 629.977 530.774 632.117 541.682 633.841C550.948 635.305 560.86 636.325 569.786 639.265C571.866 639.951 573.689 641.099 575.469 642.351C576.915 644.635 578.165 647.245 579.011 649.817L579.239 651.242C580.148 656.691 581.118 662.239 581.133 667.775C582.319 674.139 581.63 681.162 581.12 687.594C580.184 699.379 578.82 711.045 576.214 722.585C573.812 733.225 570.461 743.708 567.813 754.301C566.191 760.791 565.401 768.597 562.902 774.743L561.858 774.826C561.372 776.227 561.383 777.469 561.086 778.87C560.706 788.303 559.999 797.84 560.174 807.275C560.405 819.69 561.77 832.138 562.984 844.485Q566.951 886.475 575.076 927.863C577.332 939.916 579.326 952.049 581.692 964.075C583.646 974.011 587.33 990.402 587.463 1000L535.651 1000L531.297 1000L450.677 1000L447.414 1000L334.769 1000L332.57 1000L200.645 1000L172.753 1000C175.109 992.01 176.823 983.775 178.947 975.713Q184.575 953.89 191.282 932.373C193.165 926.206 194.408 919.823 196.983 913.9C208.346 916.55 221.504 915.847 233.151 916.544L266.386 918.438C272.206 918.715 278.154 919.194 283.979 918.944C290.364 918.985 296.82 919.523 303.156 920.311C304.268 919.266 305.005 918.522 306.546 918.154C314.447 919.12 344.192 921.84 350.359 920.05L351.123 919.241L350.974 917.981L351.499 917.415C344.138 906.124 345.721 898.366 345.621 885.813L345.603 880.112C345.88 871.238 348.24 861.588 350.246 852.933C351.57 847.221 359.517 819.344 363.66 816.782C365.079 813.276 366.513 810.483 368.862 807.541L369.067 805.998C359.166 807.718 317.326 803.213 306.914 800.447C307.418 798.216 307.801 796.351 309.188 794.462C313.31 778.721 318.222 763.091 322.734 747.451L340.175 686.1Q345.21 669.01 349.909 651.825C351.544 645.975 353.475 640.433 354.538 634.422C365.84 635.904 377.074 638.236 388.393 639.831C388.665 641.887 388.849 643.699 389.865 645.557C391.838 644.167 392.972 638.368 393.92 636.006C397.49 627.857 398.558 616.258 401.767 607.554C402.063 606.676 402.341 605.736 402.744 604.903C404.153 601.986 408.208 600.873 411.002 599.754C414.759 602.108 423.406 603.647 427.956 603.541C430.411 603.994 432.716 604.795 435.078 605.58Z"/>
	<path fill="#FEF7F3" d="M435.078 605.58Q435.645 602.912 436.575 600.348C438.567 594.872 441.735 589.953 447.225 587.489C453.529 584.659 459.68 585.828 465.887 588.124C467.591 589.938 469.093 591.675 470.452 593.779C473.727 601.967 472.014 606.203 471.601 614.34C482.212 615.409 492.379 618.304 502.954 619.34C504.729 620.739 507.273 622.292 507.759 624.649C507.933 625.494 507.877 626.406 507.855 627.263C518.484 629.977 530.774 632.117 541.682 633.841C550.948 635.305 560.86 636.325 569.786 639.265C571.866 639.951 573.689 641.099 575.469 642.351C576.915 644.635 578.165 647.245 579.011 649.817L579.239 651.242C578.218 652.185 577.789 652.436 577.379 653.794C575.974 658.958 574.139 663.961 572.698 669.1Q562.139 707.244 551.08 745.246Q545.62 763.791 540.549 782.446C539.343 786.802 537.813 791.113 536.733 795.49C536.271 796.902 536.302 797.492 534.909 798.211C527.412 802.083 514.849 802.356 506.511 802.738C505.05 801.953 503.762 800.771 502.467 799.732L500.433 799.131C498.469 799.644 496.829 799.999 494.793 799.954C496.171 799.298 497.433 799.297 498.792 798.809C500.169 798.314 500.56 796.911 501.228 795.709C508.227 794.186 513.722 790.937 519.593 786.994C524.673 783.809 529.751 780.312 532.719 774.925C534.557 771.587 535.584 766.864 534.281 763.167C533.728 761.6 532.697 760.388 531.142 759.76C528.173 758.561 522.777 759.735 519.899 760.919C518.936 761.319 518.092 761.725 517.051 761.867C515.346 763.052 495.278 768.593 491.484 769.796L490.918 769.543C487.917 771.67 482.677 772.274 479.052 772.514C468.395 775.901 457.951 778.695 447.546 782.918C445.854 783.606 443.413 784.245 441.897 785.19C439.47 787.153 436.487 787.511 434.058 789.236C429.209 792.555 423.582 795.237 418.488 798.207C409.37 803.524 400.645 810.151 390.414 813.172C386.947 814.196 383.78 814.026 380.248 813.676C380.115 813.118 380.068 812.655 380.088 812.08C380.204 808.708 380.039 807.588 377.982 804.759C376.907 805.88 376.714 805.722 375.16 805.761C373.22 805.81 370.848 805.197 369.067 805.998C359.166 807.718 317.326 803.213 306.914 800.447C307.418 798.216 307.801 796.351 309.188 794.462C313.31 778.721 318.222 763.091 322.734 747.451L340.175 686.1Q345.21 669.01 349.909 651.825C351.544 645.975 353.475 640.433 354.538 634.422C365.84 635.904 377.074 638.236 388.393 639.831C388.665 641.887 388.849 643.699 389.865 645.557C391.838 644.167 392.972 638.368 393.92 636.006C397.49 627.857 398.558 616.258 401.767 607.554C402.063 606.676 402.341 605.736 402.744 604.903C404.153 601.986 408.208 600.873 411.002 599.754C414.759 602.108 423.406 603.647 427.956 603.541C430.411 603.994 432.716 604.795 435.078 605.58Z"/>
	<path fill="#414286" d="M507.855 627.263C518.484 629.977 530.774 632.117 541.682 633.841C550.948 635.305 560.86 636.325 569.786 639.265C571.866 639.951 573.689 641.099 575.469 642.351C576.915 644.635 578.165 647.245 579.011 649.817L579.239 651.242C578.218 652.185 577.789 652.436 577.379 653.794C575.974 658.958 574.139 663.961 572.698 669.1Q562.139 707.244 551.08 745.246Q545.62 763.791 540.549 782.446C539.343 786.802 537.813 791.113 536.733 795.49C536.271 796.902 536.302 797.492 534.909 798.211C527.412 802.083 514.849 802.356 506.511 802.738C505.05 801.953 503.762 800.771 502.467 799.732L500.433 799.131C498.469 799.644 496.829 799.999 494.793 799.954C496.171 799.298 497.433 799.297 498.792 798.809C500.169 798.314 500.56 796.911 501.228 795.709C508.227 794.186 513.722 790.937 519.593 786.994C524.673 783.809 529.751 780.312 532.719 774.925C534.557 771.587 535.584 766.864 534.281 763.167C533.728 761.6 532.697 760.388 531.142 759.76C528.173 758.561 522.777 759.735 519.899 760.919C518.936 761.319 518.092 761.725 517.051 761.867C517.509 759.158 518.102 756.579 518.869 753.941C522.023 745.81 524.955 731.262 527.429 722.223C532.623 703.244 538.654 684.263 542.705 665.008C536.228 663.491 529.871 662.595 523.361 661.358C515.942 659.949 508.775 658.413 501.262 657.546C501.626 651.177 503.568 645.25 505.05 639.091C505.997 635.159 506.629 631.118 507.855 627.263Z"/>
	<path fill="#6583C1" d="M435.078 605.58Q435.645 602.912 436.575 600.348C438.567 594.872 441.735 589.953 447.225 587.489C453.529 584.659 459.68 585.828 465.887 588.124C467.591 589.938 469.093 591.675 470.452 593.779C473.727 601.967 472.014 606.203 471.601 614.34C482.212 615.409 492.379 618.304 502.954 619.34C504.729 620.739 507.273 622.292 507.759 624.649C507.933 625.494 507.877 626.406 507.855 627.263C506.629 631.118 505.997 635.159 505.05 639.091C503.568 645.25 501.626 651.177 501.262 657.546L500.493 660.392C494.681 660.112 489.211 658.137 483.508 657.142C469.949 654.777 456.418 652.069 442.869 649.75C435.911 648.56 400.266 643.901 395.696 640.879C394.032 639.778 394.003 637.772 393.92 636.006C397.49 627.857 398.558 616.258 401.767 607.554C402.063 606.676 402.341 605.736 402.744 604.903C404.153 601.986 408.208 600.873 411.002 599.754C414.759 602.108 423.406 603.647 427.956 603.541C430.411 603.994 432.716 604.795 435.078 605.58Z"/>
	<path fill="#4368A6" d="M453.039 595.58C455.65 595.601 458.148 596.117 460.705 596.585C463.902 599.158 464.638 602.116 465.953 605.839C465.6 607.12 465.256 608.416 464.834 609.676C463.861 612.583 463.101 614.007 460.351 615.433C458.35 616.037 455.914 616.681 453.81 616.669C451.735 616.657 449.526 615.739 448.183 614.134C446.607 612.251 446.349 609.629 446.548 607.272C446.97 602.279 449.345 598.755 453.039 595.58Z"/>
	<path fill="#FEF7F3" d="M454.558 597.033C454.733 597.038 454.908 597.032 455.083 597.047C456.504 597.169 457.938 597.736 458.739 598.983C459.703 600.486 459.687 602.264 459.11 603.885C458.393 605.901 457.38 606.94 455.485 607.855C453.841 607.787 451.5 607.811 450.331 606.461C449.524 605.529 449.322 604.537 449.511 603.342C449.972 600.433 452.367 598.656 454.558 597.033Z"/>
	<path fill="#6583C1" d="M479.052 772.514C472.668 771.662 466.558 770.049 460.257 768.808C456.235 768.016 452.152 767.682 448.115 766.992C444.167 766.318 440.296 765.218 436.353 764.51C411.188 759.993 385.824 756.129 360.775 751.054C357.952 750.482 347.466 748.555 345.879 746.899C346.001 745.803 346.06 744.857 346.635 743.882C347.03 743.211 347.296 743.219 348.021 743.12C355.1 742.161 364.34 745.329 371.35 746.608L415.212 754.483L457.538 762.263C467.398 764.02 477.294 765.41 487.04 767.806C488.602 768.19 489.642 768.556 490.918 769.543C487.917 771.67 482.677 772.274 479.052 772.514Z"/>
	<path fill="#4368A6" d="M389.865 645.557C391.838 644.167 392.972 638.368 393.92 636.006C394.003 637.772 394.032 639.778 395.696 640.879C400.266 643.901 435.911 648.56 442.869 649.75C456.418 652.069 469.949 654.777 483.508 657.142C489.211 658.137 494.681 660.112 500.493 660.392C499.501 662.103 497.979 664.562 496.017 665.282C495.008 665.652 493.745 665.439 492.713 665.298C489.071 664.798 485.445 663.795 481.826 663.122L459.216 659.125L416.232 651.513C411.425 650.665 406.548 650.184 401.77 649.18C397.792 648.344 393.53 647.348 389.865 645.557Z"/>
	<path fill="#6583C1" d="M434.058 789.236C428.255 787.846 422.083 787.423 416.199 786.299L363.773 776.352C355.381 774.747 346.68 773.964 338.602 770.99C338.333 769.808 338.534 769.512 338.94 768.347C339.638 767.625 340.088 767.226 341.073 766.913C343.136 766.259 345.932 766.825 348.02 767.13C353.714 767.959 359.21 769.521 364.856 770.527C367.623 771.02 370.439 771.181 373.211 771.647C376.902 772.268 380.528 773.283 384.211 773.962C397.421 776.398 410.66 778.671 423.846 781.242C429.598 782.364 436.67 782.643 441.897 785.19C439.47 787.153 436.487 787.511 434.058 789.236Z"/>
	<path fill="#91A2DB" d="M306.914 800.447C307.418 798.216 307.801 796.351 309.188 794.462C312.23 795.528 316.006 795.35 319.242 795.77C334.632 797.763 350.037 799.133 365.353 801.623C368.642 802.158 372.37 802.221 375.542 803.129C376.783 803.484 377.128 803.851 377.982 804.759C376.907 805.88 376.714 805.722 375.16 805.761C373.22 805.81 370.848 805.197 369.067 805.998C359.166 807.718 317.326 803.213 306.914 800.447Z"/>
	<path fill="#6583C1" d="M361 693.36Q361.863 693.406 362.725 693.48C368.805 693.976 374.886 695.354 380.884 696.467C393.021 698.719 405.106 701.274 417.25 703.493Q448.845 709.05 480.288 715.415C485.91 716.537 491.746 717.089 497.304 718.435C499.576 718.985 501.838 719.655 503.395 721.483C503.722 722.931 503.376 723.505 502.796 724.802Q500.955 724.874 499.114 724.802C488.667 724.47 472.763 720.435 462.078 718.346L399.043 706.368C394.251 705.438 364.1 700.606 362.368 699.564C361.903 699.284 361.443 698.949 361.125 698.498C360.065 696.99 360.643 694.998 361 693.36Z"/>
	<path fill="#6583C1" d="M368.729 670.162C368.883 670.16 369.038 670.154 369.192 670.156C373.102 670.182 377.159 671.498 380.99 672.262C388.188 673.698 395.506 675.182 402.725 676.475L464.247 688.112C478.06 690.711 492.466 692.853 506.042 696.395C507.595 696.801 508.714 697.232 509.854 698.404C510.232 699.959 509.874 700.542 509.394 702.041C502.016 703.314 472.942 696.201 463.602 694.45L389.879 680.572C387.372 680.086 384.947 679.165 382.447 678.714C379.222 678.131 375.82 678.212 372.629 677.493C370.525 677.019 369.108 676.47 367.935 674.547C367.64 672.844 368.145 671.72 368.729 670.162Z"/>
	<path fill="#6583C1" d="M357.238 724.521C356.025 724.34 355.107 724.309 354.208 723.378C353.7 722.031 353.267 721.08 353.899 719.65C354.449 718.408 355.199 718.164 356.414 717.883L356.887 718.017C362.982 719.683 369.306 720.09 375.487 721.282L449.471 735.403C463.643 738.016 478.622 739.77 492.517 743.551C494.056 743.97 495.195 744.405 496.334 745.563C496.631 746.903 496.485 747.001 495.905 748.27C494.384 749.503 492.976 749.57 491.111 749.372C476.644 747.836 460.993 743.793 446.562 741.058C428.748 737.683 410.787 734.989 392.991 731.547L370.692 727.088C366.369 726.186 361.651 724.683 357.238 724.521Z"/>
	<path fill="#6583C1" d="M357.238 724.521C356.025 724.34 355.107 724.309 354.208 723.378C353.7 722.031 353.267 721.08 353.899 719.65C354.449 718.408 355.199 718.164 356.414 717.883C357.294 720.3 357.562 721.974 357.238 724.521Z"/>
	<path fill="#FEF7F3" d="M196.983 913.9C208.346 916.55 221.504 915.847 233.151 916.544L266.386 918.438C272.206 918.715 278.154 919.194 283.979 918.944C290.364 918.985 296.82 919.523 303.156 920.311C310.903 922.164 318.607 922.957 326.422 924.266C335.692 925.819 344.581 927.655 353.956 928.699C384.329 936.469 415.667 939.669 446.147 946.915L448.202 946.988C449.029 953.398 449.369 959.869 450.031 966.299C450.516 977.511 450.502 988.778 450.677 1000L447.414 1000L334.769 1000L332.57 1000L200.645 1000L172.753 1000C175.109 992.01 176.823 983.775 178.947 975.713Q184.575 953.89 191.282 932.373C193.165 926.206 194.408 919.823 196.983 913.9Z"/>
	<path fill="#B0BEDF" d="M196.983 913.9C208.346 916.55 221.504 915.847 233.151 916.544L266.386 918.438C272.206 918.715 278.154 919.194 283.979 918.944C290.364 918.985 296.82 919.523 303.156 920.311C310.903 922.164 318.607 922.957 326.422 924.266C335.692 925.819 344.581 927.655 353.956 928.699C384.329 936.469 415.667 939.669 446.147 946.915C446.712 952.068 446.737 957.217 446.714 962.395C443.946 961.085 406.341 955.932 401.338 955.193C362.358 949.432 323.747 942.859 284.544 938.663C269.229 937.024 253.111 934.344 237.666 935.367C233.259 935.659 227.038 940.567 224.307 943.866L224.635 944.543C219.606 944.002 214.368 941.765 209.465 941.688L209.458 942.214C212.327 944.624 218.503 945.708 222.149 946.206L221.964 946.592C219.98 950.614 217.18 954.188 215.099 958.157C208.515 970.72 203.027 986.057 200.645 1000L172.753 1000C175.109 992.01 176.823 983.775 178.947 975.713Q184.575 953.89 191.282 932.373C193.165 926.206 194.408 919.823 196.983 913.9Z"/>
	<path fill="#FEF7F3" d="M222.149 946.206L222.808 946.285C227.958 946.932 232.988 948.467 238.061 949.543C245.122 951.041 252.341 952.144 259.477 953.22C277.283 955.904 296.376 957.212 314.37 956.513C321.146 956.25 327.895 955.255 334.672 954.835C334.547 963.159 334.757 971.619 334.116 979.914L334.782 979.38C335.939 980.97 335.89 982.713 335.993 984.604C335.783 987.011 335.57 989.398 335.186 991.786C335.023 994.522 334.833 997.259 334.769 1000L332.57 1000L200.645 1000C203.027 986.057 208.515 970.72 215.099 958.157C217.18 954.188 219.98 950.614 221.964 946.592L222.149 946.206Z"/>
	<path fill="#91A2DB" d="M334.116 979.914L334.782 979.38C335.939 980.97 335.89 982.713 335.993 984.604C335.783 987.011 335.57 989.398 335.186 991.786C334.759 990.643 334.185 989.968 333.443 989.027Q333.903 984.48 334.116 979.914Z"/>
	<path fill="#91A2DB" d="M333.443 989.027C334.185 989.968 334.759 990.643 335.186 991.786C335.023 994.522 334.833 997.259 334.769 1000L332.57 1000Q332.699 994.489 333.443 989.027Z"/>
	<path fill="#A5B0E6" d="M222.149 946.206C218.503 945.708 212.327 944.624 209.458 942.214L209.465 941.688C214.368 941.765 219.606 944.002 224.635 944.543L225.158 944.61C237.123 946.232 248.98 949.17 260.992 950.835C269.902 952.07 278.912 952.384 287.889 952.787C304.601 953.536 320.804 953.814 337.469 952.086C337.173 959.766 337.65 977.868 335.993 984.604C335.89 982.713 335.939 980.97 334.782 979.38L334.116 979.914C334.757 971.619 334.547 963.159 334.672 954.835C327.895 955.255 321.146 956.25 314.37 956.513C296.376 957.212 277.283 955.904 259.477 953.22C252.341 952.144 245.122 951.041 238.061 949.543C232.988 948.467 227.958 946.932 222.808 946.285L222.149 946.206Z"/>
	<defs>
		<linearGradient id="gradient_0" gradientUnits="userSpaceOnUse" x1="442.71112" y1="972.94727" x2="453.74115" y2="974.98071">
			<stop offset="0" stop-color="#7D90CE"/>
			<stop offset="1" stop-color="#A6A8F2"/>
		</linearGradient>
	</defs>
	<path fill="url(#gradient_0)" d="M446.147 946.915L448.202 946.988C449.029 953.398 449.369 959.869 450.031 966.299C450.516 977.511 450.502 988.778 450.677 1000L447.414 1000Q446.936 981.2 446.714 962.395C446.737 957.217 446.712 952.068 446.147 946.915Z"/>
	<path fill="#FEF7F3" d="M579.239 651.242C580.148 656.691 581.118 662.239 581.133 667.775C582.319 674.139 581.63 681.162 581.12 687.594C580.184 699.379 578.82 711.045 576.214 722.585C573.812 733.225 570.461 743.708 567.813 754.301C566.191 760.791 565.401 768.597 562.902 774.743L561.858 774.826C561.372 776.227 561.383 777.469 561.086 778.87C560.706 788.303 559.999 797.84 560.174 807.275C560.405 819.69 561.77 832.138 562.984 844.485Q566.951 886.475 575.076 927.863C577.332 939.916 579.326 952.049 581.692 964.075C583.646 974.011 587.33 990.402 587.463 1000L535.651 1000L531.297 1000L450.677 1000C450.502 988.778 450.516 977.511 450.031 966.299C449.369 959.869 449.029 953.398 448.202 946.988C460.311 948.566 472.437 953.306 484.745 951.315C486.997 949.413 488.602 947.75 489.988 945.12C493.837 937.812 501.697 908.238 502.709 900.182L504.331 896.019C504.345 895.999 504.356 895.974 504.375 895.958C509.386 891.502 510.887 887.726 511.914 881.221C515.939 879.885 519.099 877.972 522.633 875.684C525.192 872.353 526.544 867.985 528.088 864.101C529.742 861.619 530.61 858.477 531.577 855.68C533.958 853.24 535.264 850.258 536.574 847.17C537.311 841.094 537.206 835.733 536.439 829.66C539.734 828.239 541.924 825.528 543.561 822.378C546.862 816.026 546.856 809.434 544.714 802.766C544.65 802.544 544.594 802.319 544.522 802.098C543.488 798.928 539.52 796.82 536.733 795.49C537.813 791.113 539.343 786.802 540.549 782.446Q545.62 763.791 551.08 745.246Q562.14 707.244 572.698 669.1C574.139 663.961 575.974 658.958 577.379 653.794C577.789 652.436 578.218 652.185 579.239 651.242Z"/>
	<path fill="#B0BEDF" d="M511.914 881.221C515.939 879.885 519.099 877.972 522.633 875.684C520.148 887.482 515.43 899.127 511.709 910.612C507.302 924.212 503.969 939.648 497.163 952.243C494.68 956.837 491.539 960.773 487.099 963.623C475.867 970.833 464.565 963.125 452.93 963.301C451.703 963.32 450.524 963.403 450.199 964.764C450.114 965.123 450.062 965.911 450.031 966.299C449.369 959.869 449.029 953.398 448.202 946.988C460.311 948.566 472.437 953.306 484.745 951.315C486.997 949.413 488.602 947.75 489.988 945.12C493.837 937.812 501.697 908.238 502.709 900.182L504.331 896.019C504.345 895.999 504.356 895.974 504.375 895.958C509.386 891.502 510.887 887.726 511.914 881.221Z"/>
	<path fill="#A5B0E6" d="M526.381 939.515C535.787 937.976 545.498 936.83 554.798 934.773C560.295 933.557 565.777 931.129 571.348 930.491L571.744 930.856C565.788 938.432 542.419 941.581 532.884 942.706Q531.563 942.858 530.237 942.961C531.792 953.693 532.588 964.368 533.548 975.162C534.286 983.454 535.228 991.68 535.651 1000L531.297 1000Q529.853 969.675 526.381 939.515Z"/>
	<path fill="#6583C1" d="M581.133 667.775C582.319 674.139 581.63 681.162 581.12 687.594C580.184 699.379 578.82 711.045 576.214 722.585C573.812 733.225 570.461 743.708 567.813 754.301C566.191 760.791 565.401 768.597 562.902 774.743L561.858 774.826C561.372 776.227 561.383 777.469 561.086 778.87C560.192 766.033 568.109 739.351 571.33 726.056C573.155 718.522 574.505 710.724 576.498 703.265L576.877 703.834L577.298 703.532C578.507 691.64 580.664 679.714 581.133 667.775Z"/>
	<path fill="#7D7FAE" d="M579.239 651.242C580.148 656.691 581.118 662.239 581.133 667.775C580.664 679.714 578.507 691.64 577.298 703.532L576.877 703.834L576.498 703.265C576.786 693.643 581.075 660.599 577.379 653.794C577.789 652.436 578.218 652.185 579.239 651.242Z"/>
	<path fill="#414286" d="M369.549 885.01C381.158 880.985 418.682 893.454 433.106 895.743C453.136 898.923 473.941 901.886 494.267 900.152C497.746 899.167 500.802 896.414 504.331 896.019L502.709 900.182C501.697 908.238 493.837 937.812 489.988 945.12C488.602 947.75 486.997 949.413 484.745 951.315C472.437 953.306 460.311 948.566 448.202 946.988L446.147 946.915C415.667 939.669 384.329 936.469 353.956 928.699C344.581 927.655 335.692 925.819 326.422 924.266C318.607 922.957 310.903 922.164 303.156 920.311C304.268 919.266 305.005 918.522 306.546 918.154C314.447 919.12 344.192 921.84 350.359 920.05L351.123 919.241L350.974 917.981L351.499 917.415C344.138 906.124 345.721 898.366 345.621 885.813C351.814 884.775 358.66 884.709 364.946 884.664C366.239 884.651 367.566 884.694 368.855 884.607L369.549 885.01Z"/>
	<path fill="#262852" d="M369.549 885.01C381.158 880.985 418.682 893.454 433.106 895.743C453.136 898.923 473.941 901.886 494.267 900.152C497.746 899.167 500.802 896.414 504.331 896.019L502.709 900.182C500.056 901.026 497.411 901.864 494.806 902.847C490.747 904.333 486.67 905.928 482.42 906.773C458.043 911.619 427.133 905.427 403.256 900.444C394.637 898.645 385.522 897.265 377.071 894.904L376.637 895.61C372.687 902.126 363.714 926.49 357.083 928.534C356.13 928.828 354.945 928.735 353.956 928.699C344.581 927.655 335.692 925.819 326.422 924.266C318.607 922.957 310.903 922.164 303.156 920.311C304.268 919.266 305.005 918.522 306.546 918.154C314.447 919.12 344.192 921.84 350.359 920.05L351.123 919.241L350.974 917.981L351.499 917.415C344.138 906.124 345.721 898.366 345.621 885.813C351.814 884.775 358.66 884.709 364.946 884.664C366.239 884.651 367.566 884.694 368.855 884.607L369.549 885.01Z"/>
	<path fill="#414286" d="M364.946 884.664C366.239 884.651 367.566 884.694 368.855 884.607C365.048 894.879 362.453 905.315 355.976 914.412C354.505 915.695 353.301 916.647 351.499 917.415C344.138 906.124 345.721 898.366 345.621 885.813C351.814 884.775 358.66 884.709 364.946 884.664Z"/>
	<path fill="#C5C8E9" d="M368.855 884.607L369.549 885.01C369.495 896.325 364.036 908.506 356.697 916.98L355.976 914.412C362.453 905.315 365.048 894.879 368.855 884.607Z"/>
	<path fill="#C5C8E9" d="M351.499 917.415C353.301 916.647 354.505 915.695 355.976 914.412L356.697 916.98C354.645 919.126 353.326 919.828 350.359 920.05L351.123 919.241L350.974 917.981L351.499 917.415Z"/>
	<path fill="#BA5B59" d="M363.66 816.782C365.444 816.897 367.173 817.056 368.952 816.823C360.666 837.056 358.658 852.886 359.628 874.556C359.735 876.951 359.26 881.509 360.166 883.54C360.414 884.096 360.454 883.92 361.17 884.101C362.412 884.416 363.675 884.532 364.946 884.664C358.66 884.709 351.814 884.775 345.621 885.813L345.603 880.112C345.88 871.238 348.24 861.588 350.246 852.933C351.57 847.221 359.517 819.344 363.66 816.782Z"/>
	<path fill="#A74543" d="M533.923 829.758C528.322 831.665 521.685 831.831 515.816 832.9C510.814 833.81 505.864 835.382 500.821 835.999C500.046 836.094 499.501 836.043 498.759 835.814L498.68 835.032C500.302 834.15 502.605 833.869 504.42 833.453C513.887 831.281 524.651 831.088 533.569 827.338C542.44 823.607 545.099 817.421 544.571 808.318C544.468 806.541 544.014 804.44 544.714 802.766C546.856 809.434 546.862 816.026 543.561 822.378C541.924 825.528 539.734 828.239 536.439 829.66C537.206 835.733 537.311 841.094 536.574 847.17C535.264 850.258 533.958 853.24 531.577 855.68C530.61 858.477 529.742 861.619 528.088 864.101C526.544 867.985 525.192 872.353 522.633 875.684C519.099 877.972 515.939 879.885 511.914 881.221C505.461 883.645 498.024 885.173 491.114 885.198C500.971 881.326 514.768 882.34 521.788 872.925C523.859 870.147 525.839 865.934 525.059 862.383C523.345 854.577 496.681 866.799 490.677 863.068C491.046 861.877 493.304 861.912 494.417 861.828C499.056 861.478 503.08 860.453 507.601 859.698C519.133 857.774 524.08 857.866 533.226 849.793C533.893 848.113 534.239 846.274 534.667 844.519C535.357 839.345 535.404 834.803 533.923 829.758Z"/>
	<path fill="#EDD6E0" d="M531.577 855.68C530.61 858.477 529.742 861.619 528.088 864.101C526.956 862.186 525.125 860.878 525.215 858.476C526.4 856.787 529.638 856.272 531.577 855.68Z"/>
	<path fill="#91A2DB" d="M377.982 804.759C380.039 807.588 380.204 808.708 380.088 812.08C380.068 812.655 380.115 813.118 380.248 813.676L376.59 814.322C374.221 814.685 370.465 814.802 368.952 816.823C367.173 817.056 365.444 816.897 363.66 816.782C365.079 813.276 366.513 810.483 368.862 807.541L369.067 805.998C370.848 805.197 373.22 805.81 375.16 805.761C376.714 805.722 376.907 805.88 377.982 804.759Z"/>
	<path fill="#C5C8E9" d="M377.982 804.759C380.039 807.588 380.204 808.708 380.088 812.08C380.068 812.655 380.115 813.118 380.248 813.676L376.59 814.322C376.778 813.519 377.142 812.371 377.026 811.531C376.859 810.33 375.764 809.058 374.836 808.37C373.09 807.075 370.867 807.106 368.862 807.541L369.067 805.998C370.848 805.197 373.22 805.81 375.16 805.761C376.714 805.722 376.907 805.88 377.982 804.759Z"/>
	<path fill="#BA5B59" d="M496.309 795.209C503.021 792.953 512.967 787.544 519.593 786.994C513.722 790.937 508.227 794.186 501.228 795.709C499.573 796.346 497.929 797.116 496.178 797.407L496.309 795.209Z"/>
	<path fill="#53569B" d="M496.178 797.407C497.929 797.116 499.573 796.346 501.228 795.709C500.56 796.911 500.169 798.314 498.792 798.809C497.433 799.297 496.171 799.298 494.793 799.954C496.829 799.999 498.469 799.644 500.433 799.131L502.467 799.732C500.967 800.296 500.173 801.301 499.13 802.454C496.738 802.269 494.291 802.902 492.03 801.992C490.987 800.719 491.289 799.986 491.305 798.376Q493.735 797.858 496.178 797.407Z"/>
	<path fill="#BA5B59" d="M482.848 802.321C480.829 802.507 479.07 802.674 477.121 801.953L477.379 801.331C481.991 798.985 491.124 796.52 496.309 795.209L496.178 797.407Q493.735 797.858 491.305 798.376L488.875 799.724C486.694 800.325 484.841 800.742 483.031 802.179C482.971 802.227 482.909 802.273 482.848 802.321Z"/>
	<path fill="#7D7FAE" d="M499.13 802.454C500.173 801.301 500.967 800.296 502.467 799.732C503.762 800.771 505.05 801.953 506.511 802.738C504.043 802.779 501.561 802.947 499.13 802.454Z"/>
	<path fill="#BA5B59" d="M482.848 802.321C482.909 802.273 482.971 802.227 483.031 802.179C484.841 800.742 486.694 800.325 488.875 799.724L488.895 802.054C487.652 803.015 487.113 802.872 485.518 802.678Q484.182 802.509 482.848 802.321Z"/>
	<path fill="#FEF7F3" d="M281.664 392.187C283.232 396.785 283.252 401.806 285.047 406.35C288.055 404.776 290.883 402.896 293.832 401.214C293.839 401.354 293.849 401.493 293.852 401.633C293.986 406.897 290.569 411.703 291.378 417.091C292.761 426.306 320.506 474.238 327.121 480.746C327.904 481.516 328.85 481.967 329.827 482.44C330.015 483.964 330.33 485.324 331.091 486.673C333.452 490.859 336.826 494.88 339.652 498.797Q348.959 511.826 358.602 524.609Q365.874 534.345 372.798 544.331C374.933 547.461 376.798 550.778 378.993 553.864C383.468 560.153 411.957 594.852 411.002 599.754C408.208 600.873 404.153 601.986 402.744 604.903C402.341 605.736 402.063 606.676 401.767 607.554C401.733 606.635 401.814 605.71 401.813 604.79C401.809 602.79 401.517 602.188 400.109 600.762C397.83 602.439 397.123 603.546 396.674 606.341L395.97 606.907C391.063 607.244 365.136 602.757 360.563 600.659C355.961 600.498 350.769 599.954 346.223 599.233C344.894 597.079 334.563 590.226 331.995 588.252C324.227 582.283 287.223 553.04 286.085 544.681C285.555 540.793 298.302 526.597 301.072 522.744C293.894 521.474 286.277 522.573 279.237 521.008C275.397 520.577 271.69 519.089 267.922 518.207C263.276 516.618 258.591 516.034 254.049 513.952C252.031 509.411 251.934 503.893 251.25 499.008C250.435 493.183 249.195 487.394 248.556 481.548C246.974 467.076 247.167 451.845 247.848 437.323L247.205 436.686C248.408 436.487 249.569 436.188 250.748 435.881C250.979 432.575 252.42 428.981 253.335 425.776C261.921 413.878 270.297 401.643 281.664 392.187Z"/>
	<path fill="#414286" d="M293.832 401.214C293.839 401.354 293.849 401.493 293.852 401.633C293.986 406.897 290.569 411.703 291.378 417.091C292.761 426.306 320.506 474.238 327.121 480.746C327.904 481.516 328.85 481.967 329.827 482.44C330.015 483.964 330.33 485.324 331.091 486.673C333.452 490.859 336.826 494.88 339.652 498.797Q348.959 511.826 358.602 524.609Q365.874 534.345 372.798 544.331C374.933 547.461 376.798 550.778 378.993 553.864C383.468 560.153 411.957 594.852 411.002 599.754C408.208 600.873 404.153 601.986 402.744 604.903C402.341 605.736 402.063 606.676 401.767 607.554C401.733 606.635 401.814 605.71 401.813 604.79C401.809 602.79 401.517 602.188 400.109 600.762C400.756 600.303 401.199 599.848 401.739 599.273C401.255 595.764 397.33 591.023 395.384 587.98Q383.837 569.647 370.809 552.336C359.838 537.747 348.171 523.687 337.256 509.054Q328.486 497.169 320.56 484.705C311.478 470.349 303.669 455.346 296.352 440.03C293.186 433.401 289.543 426.255 287.439 419.211C286.245 415.216 286.27 410.857 285.174 406.801C285.134 406.65 285.089 406.5 285.047 406.35C288.055 404.776 290.883 402.896 293.832 401.214Z"/>
	<path fill="#91A2DB" d="M247.205 436.686C248.408 436.487 249.569 436.188 250.748 435.881C251.495 447.111 251.234 458.392 252.14 469.621C252.721 476.821 254.287 483.899 255.063 491.075C255.839 498.26 256.211 505.501 257.518 512.62C264.205 513.225 304.901 516.44 308.142 513.92C311.193 511.548 313.095 507.229 315.705 504.33L315.518 505.051C313 514.547 303.208 526.181 297.008 534.006C294.931 536.627 291.883 539.725 290.587 542.765C290.151 543.788 290.232 544.081 290.799 545.031C292.994 548.711 298.128 552.221 301.387 555.043C316.455 568.092 331.911 580.089 348.131 591.674C352.258 594.622 356.33 597.89 360.563 600.659C355.961 600.498 350.769 599.954 346.223 599.233C344.894 597.079 334.563 590.226 331.995 588.252C324.227 582.283 287.223 553.04 286.085 544.681C285.555 540.793 298.302 526.597 301.072 522.744C293.894 521.474 286.277 522.573 279.237 521.008C275.397 520.577 271.69 519.089 267.922 518.207C263.276 516.618 258.591 516.034 254.049 513.952C252.031 509.411 251.934 503.893 251.25 499.008C250.435 493.183 249.195 487.394 248.556 481.548C246.974 467.076 247.167 451.845 247.848 437.323L247.205 436.686Z"/>
	<path fill="#B0BEDF" d="M267.922 518.207L268.376 518.202C272.194 518.131 276.034 517.331 279.875 517.124C287.91 516.693 296.054 517.303 304.019 518.385L304.475 519.058C304.244 519.376 303.977 519.876 303.643 520.078L301.072 522.744C293.894 521.474 286.277 522.573 279.237 521.008C275.397 520.577 271.69 519.089 267.922 518.207Z"/>
	<path fill="#C5C8E9" d="M279.237 521.008C283.083 520.577 287.12 520.674 290.996 520.506L284.938 520.524C285.019 520.493 285.095 520.444 285.181 520.431C287.955 520.009 300.884 518.756 302.761 519.371C303.119 519.488 303.349 519.842 303.643 520.078L301.072 522.744C293.894 521.474 286.277 522.573 279.237 521.008Z"/>
	<path fill="#414286" d="M310.532 642.451C315.07 632.098 318.407 613.158 323.24 604.934C324.097 603.476 325.397 602.192 326.732 601.17C333.43 596.042 338.411 598.218 345.664 599.163L346.223 599.233C350.769 599.954 355.961 600.498 360.563 600.659C365.136 602.757 391.063 607.244 395.97 606.907L396.674 606.341C397.123 603.546 397.83 602.439 400.109 600.762C401.517 602.188 401.809 602.79 401.813 604.79C401.814 605.71 401.733 606.635 401.767 607.554C398.558 616.258 397.49 627.857 393.92 636.006C392.972 638.368 391.838 644.167 389.865 645.557C388.849 643.699 388.665 641.887 388.393 639.831C377.074 638.236 365.84 635.904 354.538 634.422C353.475 640.433 351.544 645.975 349.909 651.825Q345.21 669.01 340.175 686.1L322.734 747.451C318.222 763.091 313.31 778.721 309.188 794.462C307.801 796.351 307.418 798.216 306.914 800.447C301.423 799.233 295.683 798.904 290.108 798.172C282.345 797.151 274.604 795.839 266.87 794.616L267.874 790.192C272.203 781.345 276.184 763.842 279.062 753.912L303.85 665.935C306.071 661.386 306.438 656.101 308.284 651.334C309.443 648.39 310.012 645.562 310.532 642.451Z"/>
	<path fill="#262852" d="M400.109 600.762C401.517 602.188 401.809 602.79 401.813 604.79C401.814 605.71 401.733 606.635 401.767 607.554C398.558 616.258 397.49 627.857 393.92 636.006C392.972 638.368 391.838 644.167 389.865 645.557C388.849 643.699 388.665 641.887 388.393 639.831C388.417 639.274 388.497 638.859 388.702 638.339C390.594 633.511 391.72 628.722 392.556 623.61C392.561 617.64 394.803 612.656 395.97 606.907L396.674 606.341C397.123 603.546 397.83 602.439 400.109 600.762Z"/>
	<path fill="#B0BEDF" d="M224.902 658.551C225.292 659.048 225.67 659.415 226.134 659.839L227.161 659.452C233.617 649.789 238.149 616.464 240.501 603.822L241.197 603.575C246.091 609.614 242.965 641.98 242.95 651.542C242.94 657.83 243.343 664.434 244.262 670.648C246.471 685.581 255.063 698.208 267.861 706.095C271.721 708.475 276.14 710.035 279.766 712.76C279.898 712.86 280.026 712.963 280.156 713.065C284.934 702.538 287.895 690.943 292.138 680.147C295.932 670.494 300.976 661.387 304.788 651.727L304.843 651.049L308.284 651.334C306.438 656.101 306.071 661.386 303.85 665.935L279.062 753.912C276.184 763.842 272.203 781.345 267.874 790.192C263.393 790.076 259.022 788.889 254.614 788.162C250.068 787.412 245.466 787.031 240.921 786.248C236.385 785.466 231.899 784.326 227.379 783.439C222.504 757.197 219.677 728.725 221.112 702.058C221.541 694.092 222.798 686.229 223.516 678.293C224.113 671.682 223.945 665.158 224.902 658.551Z"/>
	<path fill="#C5C8E9" d="M304.843 651.049L308.284 651.334C306.438 656.101 306.071 661.386 303.85 665.935L302.985 663.861L302.227 664.191L301.85 664.023C301.999 659.81 305.592 655.793 304.788 651.727L304.843 651.049Z"/>
	<path fill="#B0BEDF" d="M73.8536 863.877C74.1592 863.97 74.4678 864.052 74.7703 864.154C76.8474 864.853 78.8193 866.659 80.5127 868.021C83.8333 870.691 88.0446 872.371 91.8618 874.244C132.014 893.945 195.996 895.883 240.714 898.463Q259.263 899.577 277.842 899.973C284.411 900.146 291.351 900.711 297.893 899.969C298.361 899.916 298.826 899.834 299.291 899.757L301.745 900.276L301.88 899.995C307.548 900.941 313.762 900.779 319.501 901.002C328.106 901.337 336.78 901.923 345.385 901.687C345.051 894.751 344.564 886.97 345.603 880.112L345.621 885.813C345.721 898.366 344.138 906.124 351.499 917.415L350.974 917.981L351.123 919.241L350.359 920.05C344.192 921.84 314.447 919.12 306.546 918.154C305.005 918.522 304.268 919.266 303.156 920.311C296.82 919.523 290.364 918.985 283.979 918.944C278.154 919.194 272.206 918.715 266.386 918.438L233.151 916.544C221.504 915.847 208.346 916.55 196.983 913.9C197.603 912.07 197.786 910.118 198.06 908.212C175.012 904.694 152.079 902.896 129.344 897.307C108.702 892.233 85.35 882.904 73.8536 863.877Z"/>
	<path fill="#6583C1" d="M198.06 908.212C209.724 908.441 221.107 910.322 232.67 911.612C242.397 912.696 252.181 913.327 261.919 914.384C268.916 915.144 276.065 916.259 283.093 916.464L283.979 918.944C278.154 919.194 272.206 918.715 266.386 918.438L233.151 916.544C221.504 915.847 208.346 916.55 196.983 913.9C197.603 912.07 197.786 910.118 198.06 908.212Z"/>
	<path fill="#414286" d="M283.093 916.464C290.932 916.57 298.837 916.524 306.546 918.154C305.005 918.522 304.268 919.266 303.156 920.311C296.82 919.523 290.364 918.985 283.979 918.944L283.093 916.464Z"/>
	<path fill="#6583C1" d="M299.291 899.757L301.745 900.276C302.312 904.027 303.934 907.465 304.358 911.177L303.904 911.601C300.129 908.587 299.975 904.21 299.291 899.757Z"/>
	<defs>
		<linearGradient id="gradient_1" gradientUnits="userSpaceOnUse" x1="303.30804" y1="745.60413" x2="96.486229" y2="584.84717">
			<stop offset="0" stop-color="#7E8FC9"/>
			<stop offset="1" stop-color="#BEC4F0"/>
		</linearGradient>
	</defs>
	<path fill="url(#gradient_1)" d="M200.227 762.337C202.23 751.96 205.327 741.753 207.69 731.442C211.435 715.099 214.473 698.697 217.677 682.251C220.793 666.256 224.5 648.506 223.027 632.187C221.683 617.305 219.797 602.459 216.205 587.931C209.754 561.838 194.925 524.68 174.397 506.625C170.893 503.543 166.337 500.371 161.858 498.933C159.324 498.12 154.905 498.786 152.934 497.138C155.169 495.689 158.88 496.399 161.39 496.911C176.759 500.042 186.537 513.294 194.699 525.7C215.58 557.435 232.464 621.214 224.902 658.551C223.945 665.158 224.113 671.682 223.516 678.293C222.798 686.229 221.541 694.092 221.112 702.058C219.677 728.725 222.504 757.197 227.379 783.439C231.899 784.326 236.385 785.466 240.921 786.248C245.466 787.031 250.068 787.412 254.614 788.162C259.022 788.889 263.393 790.076 267.874 790.192L266.87 794.616C265.31 794.54 263.844 794.487 262.326 794.073C259.897 794.045 257.659 793.713 255.281 793.282C252.724 793.213 249.898 792.452 247.334 792.093C239.375 790.976 231.491 789.672 223.568 788.349C205.825 785.385 188.038 782.848 170.081 781.682C168.943 781.491 167.796 781.3 166.671 781.038C164.953 780.637 163.476 780.021 162.54 778.516L163.116 777.633C166.155 776.081 168.821 776.296 172.143 776.314L172.486 776.372C177.722 777.976 189.99 780.32 195.14 778.161C196.189 777.722 196.278 777.506 196.718 776.532C196.922 774.635 197.266 772.736 197.547 770.848C198.299 767.987 199.421 765.198 200.227 762.337Z"/>
	<path fill="#6583C1" d="M255.281 793.282C258.433 792.455 261.249 792.431 264.454 792.769L265.197 793.294C264.368 794.1 263.392 793.766 262.326 794.073C259.897 794.045 257.659 793.713 255.281 793.282Z"/>
	<path fill="#B0BEDF" d="M197.547 770.848C197.349 770.062 197.487 770.225 197.079 769.697C188.742 758.913 181.294 747.587 174.239 735.933C163 717.368 153.497 697.39 148.902 676.094C147.965 671.754 146.685 666.507 147.763 662.117C149.532 662.261 151.633 671.014 152.261 673.012C160.276 698.501 173.183 721.997 187.614 744.396C191.422 750.307 195.133 756.606 199.805 761.872C199.944 762.029 200.086 762.182 200.227 762.337C199.421 765.198 198.299 767.987 197.547 770.848Z"/>
	<path fill="#C5C8E9" d="M110.02 763.258C113.693 761.471 117.701 760.233 121.596 759.01C144.641 751.778 161.508 757.898 182.085 769.132C186.661 771.63 191.483 775.815 196.718 776.532C196.278 777.506 196.189 777.722 195.14 778.161C189.99 780.32 177.722 777.976 172.486 776.372L175.592 776.186L175.991 775.654C175.738 775.082 175.756 775.022 175.262 774.485C173.088 772.119 166.795 770.194 163.765 769.059C151.152 764.333 139.251 761.601 125.667 762.215C120.664 762.441 115.71 763.425 110.691 763.281L110.02 763.258Z"/>
	<path fill="#B0BEDF" d="M98.1115 810.843C104.115 800.217 111.589 791.878 122.275 785.756C134.012 779.031 158.945 772.799 172.143 776.314C168.821 776.296 166.155 776.081 163.116 777.633L162.54 778.516C163.476 780.021 164.953 780.637 166.671 781.038C167.796 781.3 168.943 781.491 170.081 781.682C151.917 781.466 129.935 786.793 114.989 797.137C109.172 801.162 104.248 806.237 98.6106 810.473L98.1115 810.843Z"/>
	<path fill="#91A2DB" d="M299.291 899.757C296.511 872.467 299.17 842.03 310.542 816.89C311.865 813.964 313.265 809.495 315.456 807.122C316.033 806.497 316.056 806.521 316.652 806.114L317.595 806.249C317.93 807.415 317.638 807.584 317.182 808.677C302.496 843.839 300.928 862.523 301.88 899.995L301.745 900.276L299.291 899.757Z"/>
	<path fill="#FEF7F3" d="M304.843 651.049C306.276 648.066 307.925 644.566 310.532 642.451C310.012 645.562 309.443 648.39 308.284 651.334L304.843 651.049Z"/>
	<path fill="#262852" d="M161.763 322.646C154.574 308.227 151.163 293.146 156.329 277.508C162.599 258.526 178.735 248.233 194.499 237.592C200.242 233.716 206.478 229.516 210.731 223.941C220.589 211.017 220.072 196.837 224.601 182.118C233.832 152.115 261.822 120.038 287.515 102.419C294.34 97.7381 302.356 93.698 309.785 90.0402C336.293 76.9872 364.899 74.5226 392.813 84.1447C398.928 86.2524 404.844 90.3469 410.961 91.9328C417.151 93.5381 426.783 91.4599 434.531 93.0645C464.067 99.1809 486.872 125.95 499.429 152.052C510.666 175.412 521.604 204.945 519.659 231.188C518.542 246.257 511.438 262.641 516.044 277.497C518.578 285.669 523.816 292.061 528.973 298.709C544.975 319.34 553.384 336.096 544.238 362.056C540.576 372.451 533.398 381.577 525.013 388.61C521.964 391.167 518.162 393.715 515.591 396.706C514.359 406.22 512.354 411.352 504.598 417.306C494.303 425.21 481.534 430.075 468.418 429.784C464.463 429.696 454.243 427.157 451.223 428.755C454.214 433.266 457.696 437.915 461.516 441.751L470.683 444.438C470.023 445.993 469.74 446.776 470.39 448.391C472.609 453.904 477.093 458.968 480.194 464.102C483.453 469.498 499.411 498.411 497.793 502.793C497.745 502.923 497.671 503.042 497.61 503.166C492.914 507.817 484.252 509.387 478 510.669C477.507 511.596 477.404 512.119 476.507 512.695C475.814 513.14 475.165 513.609 474.51 514.106L474.432 514.826C478.138 517.582 488.989 524.761 490.984 528.326L490.982 530.382L489.506 529.801L489.025 530.757C492.048 539.048 484.74 551.544 481.251 559.045C478.878 564.146 469.662 586.289 465.887 588.124C459.68 585.828 453.529 584.659 447.225 587.489C441.735 589.953 438.567 594.872 436.575 600.348Q435.645 602.912 435.078 605.58C432.716 604.795 430.411 603.994 427.956 603.541C423.406 603.647 414.759 602.108 411.002 599.754C411.957 594.852 383.468 560.153 378.993 553.864C376.798 550.778 374.933 547.461 372.798 544.331Q365.874 534.345 358.602 524.609Q348.959 511.826 339.652 498.797C336.826 494.88 333.452 490.859 331.091 486.673C330.33 485.324 330.015 483.964 329.827 482.44C328.85 481.967 327.904 481.516 327.121 480.746C320.506 474.238 292.761 426.306 291.378 417.091C290.569 411.703 293.986 406.897 293.852 401.633C293.849 401.493 293.839 401.354 293.832 401.214C290.883 402.896 288.055 404.776 285.047 406.35C283.252 401.806 283.232 396.785 281.664 392.187C270.297 401.643 261.921 413.878 253.335 425.776C243.951 426.591 233.697 426.706 225.148 422.038C221.791 420.205 218.887 417.401 215.224 416.182C212.163 415.163 208.859 415.439 205.74 414.736C197.769 412.939 186.944 406.877 180.752 401.638C173.755 395.72 166.97 386.815 166.012 377.392C165.561 372.951 167.485 368.437 166.899 364.083C163.766 369.94 163.027 379.292 164.923 385.61C165.953 389.041 167.59 392.246 168.58 395.696C169.633 396.491 171.342 396.305 171.879 397.101C170.441 397.721 169.05 397.304 167.657 396.73C158.395 392.912 149.161 383.443 145.619 374.042C141.916 364.213 142.828 353.452 147.249 344.002C151.152 335.66 159.697 331.539 161.763 322.646ZM167.061 321.043L169.207 321.639C168.299 318.287 166.569 315.237 165.762 311.836C162.81 299.405 164.46 285.125 170.798 273.994C175.121 266.402 182.78 257.614 190.06 252.703L190.312 251.794C189.884 251.608 189.48 251.388 189.017 251.312C175.633 259.146 164.109 267.256 160.049 283.009C156.753 295.799 161.917 309.396 167.061 321.043Z"/>
	<path fill="#B0BEDF" d="M334.074 283.315Q336.221 283.832 338.384 284.276Q340.547 284.72 342.724 285.092Q344.901 285.464 347.089 285.762Q349.277 286.061 351.473 286.286Q353.67 286.511 355.873 286.663Q358.076 286.814 360.283 286.892Q362.49 286.97 364.698 286.973Q366.907 286.977 369.114 286.907Q371.321 286.836 373.524 286.692Q375.728 286.548 377.925 286.33Q380.123 286.112 382.312 285.821Q384.501 285.53 386.679 285.165Q388.857 284.801 391.021 284.363Q393.186 283.926 395.335 283.417Q397.483 282.907 399.614 282.326Q401.744 281.745 403.854 281.093C411.738 278.628 419.188 274.729 427.611 274.699C432.979 274.68 437.903 276.895 442.97 278.43C453.375 281.583 469.274 284.873 479.845 282.067C480.741 281.829 481.654 281.511 482.477 281.083C484.144 280.217 484.623 279.537 485.141 277.754C486.253 287.529 487.046 297.917 485.827 307.721C483.139 329.344 469.073 353.353 455.574 370.219C444.679 383.831 429.047 398.183 410.868 400.131C385.066 402.896 356.861 385.41 337.62 369.664C329.643 363.136 322.711 356.015 315.173 349.076C313.335 346.819 312.03 344.266 310.645 341.719Q311.886 340.686 313.059 339.575C315.259 337.51 317.802 335.318 318.996 332.485C322.843 323.36 324.019 292.058 324.4 280.832C327.619 281.787 330.847 282.46 334.074 283.315Z"/>
	<path fill="#6583C1" d="M336.622 317.013C341.704 317.064 347.364 320.137 352.273 321.487C356.253 322.583 360.564 323.03 364.643 323.655C392.011 327.851 420.138 326.542 447.521 323.079C456.887 321.895 464.762 322.22 473.243 317.414C471.982 318.862 470.573 320.155 469.181 321.475L468.779 321.725C468.43 321.945 468.084 322.169 467.732 322.383C450.198 333.046 410.697 335.269 390.306 333.168C382.65 332.379 374.261 330.172 366.739 328.335C361.802 327.13 338.874 320.704 336.622 317.013Z"/>
	<path fill="#6583C1" d="M455.962 356.607C444.367 366.399 428.753 372.496 413.437 371.536C388.297 369.961 365.25 358.098 344.088 345.462C339.375 342.648 334.241 340.635 330.541 336.442C331.242 336.176 333.105 337.42 333.896 337.819C353.287 347.607 372.753 355.786 393.976 360.902C414.213 365.78 436.21 366.298 454.585 355.154C455.111 355.631 455.567 356.013 455.962 356.607Z"/>
	<path fill="#6583C1" d="M425.955 289.62C434.962 288.462 447.421 293.624 454.474 299.044C440.403 294.747 434.199 287.453 418.596 293.757C412.602 295.731 398.53 301.977 392.738 301.411L392.826 300.902C396.622 298.904 401.385 298.484 405.472 297.115C412.402 294.794 418.853 291.535 425.955 289.62Z"/>
	<path fill="#91A2DB" d="M454.585 355.154C456.719 353.202 459.129 352.004 461.76 350.856C460.008 353.109 458.44 355.089 455.962 356.607C455.567 356.013 455.111 355.631 454.585 355.154Z"/>
	<path fill="#FEF7F3" d="M416.324 408.479C416.79 407.132 417.051 405.725 418.297 404.895C422.83 406.014 430.203 409.979 433.607 413.226C439.269 417.42 446.618 425.827 451.223 428.755C454.214 433.266 457.696 437.915 461.516 441.751L470.683 444.438C470.023 445.993 469.74 446.776 470.39 448.391C472.609 453.904 477.093 458.968 480.194 464.102C483.453 469.498 499.411 498.411 497.793 502.793C497.745 502.923 497.671 503.042 497.61 503.166C492.914 507.817 484.252 509.387 478 510.669C477.507 511.596 477.404 512.119 476.507 512.695C475.814 513.14 475.165 513.609 474.51 514.106L474.432 514.826C478.138 517.582 488.989 524.761 490.984 528.326L490.982 530.382L489.506 529.801L489.025 530.757C492.048 539.048 484.74 551.544 481.251 559.045C478.878 564.146 469.662 586.289 465.887 588.124C459.68 585.828 453.529 584.659 447.225 587.489C441.735 589.953 438.567 594.872 436.575 600.348Q435.645 602.912 435.078 605.58C432.716 604.795 430.411 603.994 427.956 603.541C423.406 603.647 414.759 602.108 411.002 599.754C411.957 594.852 383.468 560.153 378.993 553.864C376.798 550.778 374.933 547.461 372.798 544.331Q365.874 534.345 358.602 524.609Q348.959 511.826 339.652 498.797C336.826 494.88 333.452 490.859 331.091 486.673C330.33 485.324 330.015 483.964 329.827 482.44C331.201 483.101 332.582 483.757 333.994 484.334C352.097 491.723 378.025 496.548 397.423 493.702C402.673 492.932 407.964 491.219 412.958 489.475C418.966 487.377 424.27 483.575 430.144 481.119L430.774 480.859Q430.511 474.391 429.777 467.96Q429.043 461.529 427.842 455.169Q426.64 448.808 424.978 442.552Q423.317 436.296 421.203 430.178C420.873 428.201 420.075 426.477 419.285 424.653L418.964 424.626C417.41 421.098 417.498 416.076 417.17 412.254L416.324 408.479Z"/>
	<path fill="#53569B" d="M419.285 424.653C420.871 423.875 422.34 424.219 424.071 424.319C425.631 427.469 427.406 430.7 428.377 434.085C433.43 443.568 435.374 454.854 436.743 465.384Q437.692 472.741 438.263 480.137Q438.834 487.533 439.025 494.948Q439.216 502.364 439.028 509.779Q438.839 517.195 438.271 524.591C437.816 530.33 436.912 536.032 436.307 541.756C435.697 547.518 435.56 553.326 434.928 559.083C434.315 564.662 433.182 570.183 432.382 575.737C431.007 585.286 430.545 594.121 427.956 603.541C423.406 603.647 414.759 602.108 411.002 599.754C411.957 594.852 383.468 560.153 378.993 553.864C376.798 550.778 374.933 547.461 372.798 544.331Q365.874 534.345 358.602 524.609Q348.959 511.826 339.652 498.797C336.826 494.88 333.452 490.859 331.091 486.673C330.33 485.324 330.015 483.964 329.827 482.44C331.201 483.101 332.582 483.757 333.994 484.334C352.097 491.723 378.025 496.548 397.423 493.702C402.673 492.932 407.964 491.219 412.958 489.475C418.966 487.377 424.27 483.575 430.144 481.119L430.774 480.859Q430.511 474.391 429.777 467.96Q429.043 461.529 427.842 455.169Q426.64 448.808 424.978 442.552Q423.317 436.296 421.203 430.178C420.873 428.201 420.075 426.477 419.285 424.653Z"/>
	<path fill="#B0BEDF" d="M461.516 441.751L470.683 444.438C470.023 445.993 469.74 446.776 470.39 448.391C472.609 453.904 477.093 458.968 480.194 464.102C483.453 469.498 499.411 498.411 497.793 502.793C497.745 502.923 497.671 503.042 497.61 503.166C496.694 502.676 495.634 502.379 494.656 502.026C494.692 501.912 494.75 501.802 494.763 501.683C495.275 497.24 466.011 449.525 461.516 441.751Z"/>
	<path fill="#B0BEDF" d="M416.324 408.479C416.79 407.132 417.051 405.725 418.297 404.895C422.83 406.014 430.203 409.979 433.607 413.226C432.717 414.054 432.542 414.374 432.245 415.601C431.397 419.11 431.288 422.846 430.581 426.407C430.059 429.04 428.944 431.5 428.377 434.085C427.406 430.7 425.631 427.469 424.071 424.319C422.34 424.219 420.871 423.875 419.285 424.653L418.964 424.626C417.41 421.098 417.498 416.076 417.17 412.254L416.324 408.479Z"/>
	<path fill="#7D7FAE" d="M417.17 412.254C420.953 415.797 422.605 419.45 424.071 424.319C422.34 424.219 420.871 423.875 419.285 424.653L418.964 424.626C417.41 421.098 417.498 416.076 417.17 412.254Z"/>
	<path fill="#A5B0E6" d="M463.238 511.227C461.947 510.269 459.816 508.664 459.555 507.039C462.211 506.35 465.361 506.592 468.11 506.49C475.108 506.229 483.185 505.661 489.693 502.943C491.555 502.166 492.626 501.728 494.656 502.026C495.634 502.379 496.694 502.676 497.61 503.166C492.914 507.817 484.252 509.387 478 510.669L477.043 510.615C476.263 510.566 475.729 510.469 474.961 510.268C471.965 509.483 466.112 510.145 463.238 511.227Z"/>
	<path fill="#B0BEDF" d="M463.238 511.227C466.112 510.145 471.965 509.483 474.961 510.268C475.729 510.469 476.263 510.566 477.043 510.615L478 510.669C477.507 511.596 477.404 512.119 476.507 512.695C475.814 513.14 475.165 513.609 474.51 514.106L474.432 514.826C478.138 517.582 488.989 524.761 490.984 528.326L490.982 530.382L489.506 529.801L489.025 530.757C486.113 528.464 483.002 526.519 480.021 524.331C474.315 520.145 468.821 515.581 463.238 511.227Z"/>
	<path fill="#F09888" d="M429.823 144.094C435.014 146.801 440.632 148.915 445.647 151.912C459.055 159.926 468.967 175.048 473.583 189.711C476.155 197.885 478.092 206.064 478.655 214.624L478.106 214.239C476.629 213.182 475.468 211.743 474.046 210.616C470.717 207.98 464.721 208.402 460.705 209.011C454.944 209.885 439.975 216.3 436.714 220.818C435.295 222.784 433.775 227.282 434.54 229.696C434.753 230.368 434.842 230.441 435.184 230.968C436.489 231.299 437.108 231.093 438.301 230.448C439.769 229.654 441.093 228.545 442.573 227.731C455.645 220.541 464.302 219.167 478.934 220.839C478.615 229.992 478.118 239.236 479.103 248.363C479.746 254.323 481.224 260.188 482.154 266.108C482.495 268.284 482.701 273.852 483.865 275.474C484.025 275.697 484.251 275.863 484.444 276.058L485.141 277.754C484.623 279.537 484.144 280.217 482.477 281.083C481.654 281.511 480.741 281.829 479.845 282.067C469.274 284.873 453.375 281.583 442.97 278.43C437.903 276.895 432.979 274.68 427.611 274.699C419.188 274.729 411.738 278.628 403.854 281.093Q401.744 281.745 399.614 282.326Q397.483 282.907 395.335 283.417Q393.186 283.926 391.021 284.363Q388.857 284.801 386.679 285.165Q384.501 285.53 382.312 285.821Q380.123 286.112 377.925 286.33Q375.728 286.548 373.524 286.692Q371.321 286.836 369.114 286.907Q366.907 286.977 364.698 286.973Q362.49 286.97 360.283 286.892Q358.076 286.814 355.873 286.663Q353.67 286.511 351.473 286.286Q349.277 286.061 347.089 285.762Q344.901 285.464 342.724 285.092Q340.547 284.72 338.384 284.276Q336.221 283.832 334.074 283.315C330.847 282.46 327.619 281.787 324.4 280.832L324.071 280.231L324.133 276.928C315.115 271.216 305.355 266.598 296.561 260.586L293.428 258.498C296.764 258.274 299.341 257.098 302.282 255.64C304.382 255.049 306.534 254.618 308.663 254.142C312.835 248.951 337.35 239.416 345.314 232.897C347.573 232.358 349.673 231.331 351.86 230.564C356.316 229.003 360.835 228.342 365.535 228.096C370.549 227.833 376.066 227.553 381.056 227.993C384.865 228.33 392.28 231.07 395.442 230.26C396.754 229.924 397.104 229.228 397.774 228.19C397.998 226.432 397.826 225.192 396.882 223.654C393.856 218.724 386.051 216.993 380.781 215.875L380.553 214.467C382.208 212.068 385.199 210.432 387.394 208.484C389.804 206.344 392.022 203.941 394.101 201.482C403.101 190.832 412.076 174.453 418.805 162.154C420.691 158.708 426.698 145.505 429.823 144.094Z"/>
	<path fill="#FEF7F3" d="M428.112 271.024L429.623 271.127L430.274 271.191C435.074 271.688 439.158 273.566 443.744 274.868C454.143 277.82 465.635 279.872 476.4 278.113C479.163 277.661 481.734 276.594 484.444 276.058L485.141 277.754C484.623 279.537 484.144 280.217 482.477 281.083C481.654 281.511 480.741 281.829 479.845 282.067C469.274 284.873 453.375 281.583 442.97 278.43C437.903 276.895 432.979 274.68 427.611 274.699C419.188 274.729 411.738 278.628 403.854 281.093Q401.744 281.745 399.614 282.326Q397.483 282.907 395.335 283.417Q393.186 283.926 391.021 284.363Q388.857 284.801 386.679 285.165Q384.501 285.53 382.312 285.821Q380.123 286.112 377.925 286.33Q375.728 286.548 373.524 286.692Q371.321 286.836 369.114 286.907Q366.907 286.977 364.698 286.973Q362.49 286.97 360.283 286.892Q358.076 286.814 355.873 286.663Q353.67 286.511 351.473 286.286Q349.277 286.061 347.089 285.762Q344.901 285.464 342.724 285.092Q340.547 284.72 338.384 284.276Q336.221 283.832 334.074 283.315L333.992 279.751C339.351 279.54 344.983 281.065 350.322 281.746C359.162 282.873 369.114 283.105 377.955 282.082C386.384 281.107 395.326 279.916 403.502 277.704C411.912 275.428 419.312 271.712 428.112 271.024Z"/>
	<path fill="#A74543" d="M428.112 271.024C428.141 265.503 427.304 239.504 430.238 236.78C430.374 236.653 430.534 236.554 430.682 236.441L431.251 236.918C431.441 240.785 430.534 244.836 430.432 248.755C430.246 255.924 430.693 263.1 430.561 270.267C430.264 270.592 430.028 270.942 429.623 271.127L428.112 271.024Z"/>
	<path fill="#C5C8E9" d="M324.133 276.928C327.416 278.115 330.557 279.108 333.992 279.751L334.074 283.315C330.847 282.46 327.619 281.787 324.4 280.832L324.071 280.231L324.133 276.928Z"/>
	<path fill="#E2877F" d="M302.282 255.64C304.382 255.049 306.534 254.618 308.663 254.142C304.475 257.091 301.835 260.008 296.561 260.586L293.428 258.498C296.764 258.274 299.341 257.098 302.282 255.64Z"/>
	<path fill="#262852" d="M369.034 239.943C373.062 239.949 376.779 239.871 380.624 241.327C386.721 243.636 390.225 248.969 392.814 254.621Q388.638 252.599 384.437 250.628C383.028 254.286 381.621 260.411 378.377 262.753C375.727 264.666 372.488 264.068 369.487 263.553C368.745 263.091 367.982 262.62 367.314 262.053C363.525 258.84 363.839 252.213 363.595 247.745C358.908 251.076 353.34 253.197 348.406 256.237C349.405 254.301 350.511 252.581 351.876 250.892C356.054 245.721 362.204 240.624 369.034 239.943Z"/>
	<path fill="#262852" d="M455.614 236.005C458.41 235.992 460.665 236.34 463.189 237.62C467.838 239.978 470.147 243.841 471.625 248.627Q469.494 247.387 467.324 246.217C465.909 245.468 464.766 244.997 463.163 245.496C461.382 247.433 462.287 252.04 461.019 254.671C459.649 257.514 457.495 259.411 454.58 260.486C452.864 260.749 451.321 260.895 449.719 260.136C445.559 258.167 444.325 251.578 443.162 247.617C442.443 248.913 441.908 249.908 440.696 250.826L440.201 250.402C440.415 248.143 441.584 246.077 442.883 244.253C445.856 240.074 450.54 236.894 455.614 236.005Z"/>
	<path fill="#F09888" d="M295.637 321.244C300.427 326.752 304.645 332.441 308.784 338.46C309.337 339.628 309.876 340.669 310.645 341.719C312.03 344.266 313.335 346.819 315.173 349.076C316.916 353.142 319.501 356.994 321.837 360.747C334.924 381.77 354.925 402.73 378.242 412.163C387.333 415.841 399.483 418.125 408.782 413.975C411.376 412.817 414.595 410.758 416.324 408.479L417.17 412.254C417.498 416.076 417.41 421.098 418.964 424.626L419.285 424.653C420.075 426.477 420.873 428.201 421.203 430.178Q423.317 436.296 424.978 442.552Q426.64 448.808 427.841 455.169Q429.043 461.529 429.777 467.96Q430.511 474.391 430.774 480.859L430.144 481.119C424.27 483.575 418.966 487.377 412.958 489.475C407.964 491.219 402.673 492.932 397.423 493.702C378.025 496.548 352.097 491.723 333.994 484.334C332.582 483.757 331.201 483.101 329.827 482.44C328.85 481.967 327.904 481.516 327.121 480.746C320.506 474.238 292.761 426.306 291.378 417.091C290.569 411.703 293.986 406.897 293.852 401.633C293.849 401.493 293.839 401.354 293.832 401.214C290.883 402.896 288.055 404.776 285.047 406.35C283.252 401.806 283.232 396.785 281.664 392.187C285.772 388.791 290.98 386.461 295.668 383.938C297.16 376.64 297.441 369.027 297.898 361.607C297.819 347.921 297.655 334.809 295.637 321.244Z"/>
	<path fill="#D27671" d="M295.637 321.244C300.427 326.752 304.645 332.441 308.784 338.46C309.337 339.628 309.876 340.669 310.645 341.719C312.03 344.266 313.335 346.819 315.173 349.076C316.916 353.142 319.501 356.994 321.837 360.747C334.924 381.77 354.925 402.73 378.242 412.163C387.333 415.841 399.483 418.125 408.782 413.975C411.376 412.817 414.595 410.758 416.324 408.479L417.17 412.254C417.498 416.076 417.41 421.098 418.964 424.626C416.899 428.324 418.153 435.463 417.886 439.686C417.034 434.538 418.449 428.837 416.909 423.85C414.593 422.937 408.788 428.06 406.528 429.344C401.523 432.189 394.928 432.533 389.271 432.201C382.66 431.812 376.925 429.368 371.027 426.511C348.217 415.462 331.009 396.568 316.549 376.16C310.385 367.461 305.674 358.073 298.601 350.015C298.504 353.812 298.845 357.915 297.898 361.607C297.819 347.921 297.655 334.809 295.637 321.244Z"/>
	<path fill="#B0BEDF" d="M281.664 392.187C285.772 388.791 290.98 386.461 295.668 383.938C295.406 389.48 295.474 395.917 293.832 401.214C290.883 402.896 288.055 404.776 285.047 406.35C283.252 401.806 283.232 396.785 281.664 392.187Z"/>
	<path fill="#BA5B59" d="M418.964 424.626L419.285 424.653C420.075 426.477 420.873 428.201 421.203 430.178C418.57 435.478 421.486 446.608 418.79 450.538C417.365 447.339 417.809 443.117 417.886 439.686C418.153 435.463 416.899 428.324 418.964 424.626Z"/>
	<path fill="#F09888" d="M291.627 315.529C283.466 315.729 276.48 314.696 269.707 309.81C259.64 302.55 251.883 290.621 250.034 278.3C248.813 270.164 250.092 260.07 255.25 253.415C257.978 249.894 261.665 247.689 266.109 247.205C272.588 246.499 278.342 249.161 283.281 253.092C286.629 254.964 289.957 256.86 293.428 258.498L296.561 260.586C305.355 266.598 315.115 271.216 324.133 276.928L324.071 280.231L324.4 280.832C324.019 292.058 322.843 323.36 318.996 332.485C317.802 335.318 315.259 337.51 313.059 339.575Q311.886 340.686 310.645 341.719C309.876 340.669 309.337 339.628 308.784 338.46C304.645 332.441 300.427 326.752 295.637 321.244C294.507 319.184 293.054 317.387 291.627 315.529Z"/>
	<defs>
		<linearGradient id="gradient_2" gradientUnits="userSpaceOnUse" x1="307.18256" y1="262.38052" x2="304.07501" y2="273.51685">
			<stop offset="0" stop-color="#F3E3EB"/>
			<stop offset="1" stop-color="#FCF8F4"/>
		</linearGradient>
	</defs>
	<path fill="url(#gradient_2)" d="M324.071 280.231C323.75 280.159 323.427 280.095 323.108 280.015C317.463 278.598 285.054 258.643 282.479 254.119L283.281 253.092C286.629 254.964 289.957 256.86 293.428 258.498L296.561 260.586C305.355 266.598 315.115 271.216 324.133 276.928L324.071 280.231Z"/>
	<path fill="#FEF7F3" d="M291.627 315.529C292.784 314.754 293.025 314.61 294.402 314.503C298.578 316.491 307.459 331.591 309.031 336.287C309.385 337.341 309.222 337.492 308.784 338.46C304.645 332.441 300.427 326.752 295.637 321.244C294.507 319.184 293.054 317.387 291.627 315.529Z"/>
	<path fill="#D27671" d="M265.224 257.95C272.917 259.564 280.895 264.301 285.371 270.97C285.813 271.63 286.185 272.305 286.539 273.015C286.832 274.591 287.224 275.601 286.188 277.059C284.794 279.021 281.825 280.3 279.587 281.002C278.273 286.58 277.561 291.634 280.605 296.858C281.956 299.175 283.953 301.278 285.603 303.386C283.008 302.329 280.473 301.275 277.996 299.957C273.685 298.754 270.171 295.93 267.323 292.541C260.728 284.693 258.686 274.388 259.575 264.349C261.131 261.357 262.373 259.755 265.224 257.95Z"/>
	<path fill="#BA5B59" d="M265.224 257.95C272.917 259.564 280.895 264.301 285.371 270.97C285.813 271.63 286.185 272.305 286.539 273.015C286.832 274.591 287.224 275.601 286.188 277.059C284.794 279.021 281.825 280.3 279.587 281.002C278.273 286.58 277.561 291.634 280.605 296.858C281.956 299.175 283.953 301.278 285.603 303.386C283.008 302.329 280.473 301.275 277.996 299.957C275.905 296.288 274.054 292.492 271.948 288.826C273.068 283.812 273.997 279.707 278.402 276.519C280.104 275.287 281.532 273.933 283.021 272.456C280.609 271.496 278.666 269.898 276.358 268.805C272.376 266.92 268.8 268.663 264.972 269.975C262.971 268.259 261.298 266.332 259.575 264.349C261.131 261.357 262.373 259.755 265.224 257.95Z"/>
	<path fill="#E2877F" d="M286.539 273.015C286.832 274.591 287.224 275.601 286.188 277.059C284.794 279.021 281.825 280.3 279.587 281.002C281.636 278.157 284.243 275.67 286.539 273.015Z"/>
	<path fill="#D27671" d="M423.054 137.418C425.152 140.005 427.213 142.042 429.823 144.094C426.698 145.505 420.691 158.708 418.805 162.154C412.076 174.453 403.101 190.832 394.101 201.482C392.022 203.941 389.804 206.344 387.394 208.484C385.199 210.432 382.208 212.068 380.553 214.467L380.781 215.875Q375.66 214.89 370.523 213.997Q373.157 212.005 375.668 209.862Q378.18 207.718 380.562 205.431Q382.943 203.143 385.186 200.72Q387.429 198.296 389.525 195.745Q391.621 193.193 393.564 190.523Q395.507 187.853 397.289 185.073Q399.071 182.293 400.687 179.414Q402.302 176.534 403.746 173.564C407.054 166.894 409.742 159.901 413.216 153.322C416.119 147.822 419.654 142.623 423.054 137.418Z"/>
	<path fill="#D27671" d="M312.038 238.03C316.503 237.18 321.05 236.767 325.515 235.929C333.143 234.497 337.092 232.761 345.314 232.897C337.35 239.416 312.835 248.951 308.663 254.142C306.534 254.618 304.382 255.049 302.282 255.64C307.838 250.567 310.349 245.269 312.038 238.03Z"/>
	<path fill="#A5B0E6" d="M526.204 306.967L527.26 307.471C528.714 309.281 529.143 311.24 530.155 313.255C534.534 321.967 538.256 328.153 539.52 338.152C541.226 351.647 535.383 366.726 527.258 377.299L525.574 378.743C525.162 377.112 530.967 367.565 531.916 365.424C541.987 342.716 534.545 329.089 526.511 307.796L526.204 306.967Z"/>
	<path fill="#FEF7F3" d="M470.683 444.438C487.639 452.295 505.681 458.712 523.2 465.223C536.267 470.079 550.509 474.603 562.243 482.261C571.056 488.011 577.982 495.954 583.634 504.756C589.317 513.605 593.898 523.054 598.499 532.49C609.337 554.721 618.469 577.428 628.144 600.157C636.918 620.768 645.778 641.46 655.286 661.745C660.128 672.075 665.43 682.158 670.365 692.428L671.027 694.262C676.076 689.141 680.398 683.205 684.855 677.569Q696.64 662.831 707.617 647.481C713.233 639.492 733.015 606.384 738.384 602.75C741.42 600.695 744.637 599.958 748.201 600.64L747.082 601.639C746.62 602.565 746.205 603.641 745.583 604.464C746.173 608.011 746.998 610.733 748.729 613.923C760.225 630.858 770.933 647.592 790.915 655.677C795.468 657.519 800.272 658.363 804.919 659.874C806.869 654.584 808.728 649.333 811.566 644.44C811.721 642.793 812.231 641.192 812.651 639.593C821.769 652.345 831.134 667.744 828.304 684.152C827.606 688.199 826.05 692.006 824.119 695.614C817.347 708.26 806.953 721.86 798.518 733.603Q775.12 766.784 749.482 798.267C743.962 804.976 737.993 811.481 732.084 817.847C720.86 829.941 708.345 842.084 694.77 851.467C684.109 858.836 674.631 861.492 661.708 859.152C626.221 852.728 587.889 817.785 567.921 788.507C564.491 783.479 564.469 780.254 562.902 774.743C565.401 768.597 566.191 760.791 567.813 754.301C570.461 743.708 573.812 733.225 576.214 722.585C578.82 711.045 580.184 699.379 581.12 687.594C581.63 681.162 582.319 674.139 581.133 667.775C581.118 662.239 580.148 656.691 579.239 651.242L579.011 649.817C578.165 647.245 576.915 644.635 575.469 642.351C573.689 641.099 571.866 639.951 569.786 639.265C560.86 636.325 550.948 635.305 541.682 633.841C530.774 632.117 518.484 629.977 507.855 627.263C507.877 626.406 507.933 625.494 507.759 624.649C507.273 622.292 504.729 620.739 502.954 619.34C492.379 618.304 482.212 615.409 471.601 614.34C472.014 606.203 473.727 601.967 470.452 593.779C469.093 591.675 467.591 589.938 465.887 588.124C469.662 586.289 478.878 564.146 481.251 559.045C484.74 551.544 492.048 539.048 489.025 530.757L489.506 529.801L490.982 530.382L490.984 528.326C488.989 524.761 478.138 517.582 474.432 514.826L474.51 514.106C475.165 513.609 475.814 513.14 476.507 512.695C477.404 512.119 477.507 511.596 478 510.669C484.252 509.387 492.914 507.817 497.61 503.166C497.671 503.042 497.745 502.923 497.793 502.793C499.411 498.411 483.453 469.498 480.194 464.102C477.093 458.968 472.609 453.904 470.39 448.391C469.74 446.776 470.023 445.993 470.683 444.438Z"/>
	<path fill="#B0BEDF" d="M574.238 571.251C574.269 571.385 574.302 571.518 574.332 571.652C575.968 579.194 574.936 587.31 576.147 594.946C577.003 600.344 578.278 605.677 579.14 611.076C580.894 622.062 582.292 633.016 584.314 643.976C586.782 657.348 590.137 670.797 590.803 684.429C591.344 695.505 589.655 706.038 588.37 716.965C587.324 725.851 586.518 734.965 586.052 743.9C584.255 778.341 598.804 814.952 628.202 834.311C640.14 842.172 654.53 846.834 668.81 843.832C679.143 841.659 688.575 836.783 696.902 830.374C719.064 813.32 740.014 783.728 756.619 761.143C764.464 750.472 772.764 739.756 780.075 728.73L780.836 728.671C781.172 727.528 781.768 726.509 782.32 725.46L781.313 724.434C781.516 724.385 781.723 724.348 781.923 724.287C785.897 723.079 806.103 696.201 808.684 691.589C809.255 691.827 809.307 691.863 809.997 692.065C813.221 693.009 817.657 693.668 820.668 691.757C823.167 690.172 824.275 687.266 824.731 684.463C826.502 673.586 817.902 653.133 811.566 644.44C811.721 642.793 812.231 641.192 812.651 639.593C821.769 652.345 831.134 667.744 828.304 684.152C827.606 688.199 826.05 692.006 824.119 695.614C817.347 708.26 806.953 721.86 798.518 733.603Q775.12 766.784 749.482 798.267C743.962 804.976 737.993 811.481 732.084 817.847C720.86 829.941 708.345 842.084 694.77 851.467C684.109 858.836 674.631 861.492 661.708 859.152C626.221 852.728 587.889 817.785 567.921 788.507C564.491 783.479 564.469 780.254 562.902 774.743C565.401 768.597 566.191 760.791 567.813 754.301C570.461 743.708 573.812 733.225 576.214 722.585C578.82 711.045 580.184 699.379 581.12 687.594C581.63 681.162 582.319 674.139 581.133 667.775C581.118 662.239 580.148 656.691 579.239 651.242L579.011 649.817C578.977 649.122 578.922 648.412 578.929 647.715C578.968 643.846 578.341 640.707 577.536 636.923C576.341 631.309 576.14 625.764 575.5 620.09C574.842 614.257 573.784 608.353 573.548 602.486C573.376 598.205 573.594 593.91 573.388 589.63C573.175 585.213 572.363 580.556 572.719 576.153C572.873 574.248 573.195 572.851 574.238 571.251Z"/>
	<path fill="#6583C1" d="M782.32 725.46C785.923 726.818 789.978 727.985 793.233 730.04L793.341 730.637C789.356 731.476 784.702 729.699 780.836 728.671C781.172 727.528 781.768 726.509 782.32 725.46Z"/>
	<path fill="#53569B" d="M808.684 691.589C781.527 680.737 756.336 652.653 744.108 626.462C741.541 620.964 738.581 613.802 740.968 607.786C742.151 604.806 744.22 602.954 747.082 601.639C746.62 602.565 746.205 603.641 745.583 604.464C746.173 608.011 746.998 610.733 748.729 613.923C760.225 630.858 770.933 647.592 790.915 655.677C795.468 657.519 800.272 658.363 804.919 659.874C806.869 654.584 808.728 649.333 811.566 644.44C817.902 653.133 826.502 673.586 824.731 684.463C824.275 687.266 823.167 690.172 820.668 691.757C817.657 693.668 813.221 693.009 809.997 692.065C809.307 691.863 809.255 691.827 808.684 691.589Z"/>
	<path fill="#D27671" d="M752.234 630.806C748.813 626.554 745.019 621.284 743.535 615.965C742.246 611.341 743.206 608.47 745.583 604.464C746.173 608.011 746.998 610.733 748.729 613.923C760.225 630.858 770.933 647.592 790.915 655.677C795.468 657.519 800.272 658.363 804.919 659.874C802.941 667.355 799.577 674.931 797.044 682.289C781.473 672.262 762.064 646.559 752.234 630.806Z"/>
	<path fill="#91A2DB" d="M567.845 600.327C567.774 579.322 569.507 557.815 567.696 536.873C566.891 527.576 565.646 517.835 564.04 508.647C563.356 504.735 561.408 500.702 561.393 496.767L561.978 496.372C566.784 501.276 572.905 560.27 574.238 571.251C573.195 572.851 572.873 574.248 572.719 576.153C572.363 580.556 573.175 585.213 573.388 589.63C573.594 593.91 573.376 598.205 573.548 602.486C573.784 608.353 574.842 614.257 575.5 620.09C576.14 625.764 576.341 631.309 577.536 636.923C578.341 640.707 578.968 643.846 578.929 647.715C578.922 648.412 578.977 649.122 579.011 649.817C578.165 647.245 576.915 644.635 575.469 642.351C575.416 639.823 567.117 613.799 565.838 609.146C562.758 597.942 560.42 586.643 557.724 575.352C563.088 581.119 563.478 593.157 567.845 600.327Z"/>
	<path fill="#91A2DB" d="M670.365 692.428L671.027 694.262C665.573 701.186 659.157 707.332 653.497 714.09C640.856 729.184 634.668 748.208 631.285 767.385C629.735 776.168 630.038 785.566 627.858 794.171C625.904 773.443 627.142 744.611 639.151 726.76C640.574 724.923 641.748 722.332 642.933 720.301C646.151 718.718 652.796 710.529 654.246 707.19C655.983 705.073 658.088 703.284 660.101 701.434C663.259 698.894 665.758 695.536 669.004 692.978L670.365 692.428Z"/>
	<path fill="#A5B0E6" d="M636.332 724.788C632.799 727.667 629.202 730.512 626.045 733.811C621.183 738.892 608.667 755.01 606.548 761.586C606.301 762.353 606.047 762.907 605.642 763.598L604.835 763.507C603.914 760.365 607.214 751.952 608.497 748.861C616.959 728.484 634.421 715.382 654.246 707.19C652.796 710.529 646.151 718.718 642.933 720.301C641.748 722.332 640.574 724.923 639.151 726.76L636.332 724.788Z"/>
	<path fill="#FEF7F3" d="M636.332 724.788C638.106 723.136 640.381 720.375 642.933 720.301C641.748 722.332 640.574 724.923 639.151 726.76L636.332 724.788Z"/>
	<path fill="#C5C8E9" d="M660.101 701.434C652.064 696.938 638.853 697.133 629.878 697.896C625.867 698.238 613.944 701.578 610.981 699.848C611.303 698.965 611.237 698.803 612.035 698.191C614.183 696.543 617.615 695.664 620.155 694.804C637.14 689.06 651.704 690.256 669.004 692.978C665.758 695.536 663.259 698.894 660.101 701.434Z"/>
	<path fill="#91A2DB" d="M490.984 528.326C491.886 529.911 492.691 531.49 493.428 533.159C492.657 545.822 478.415 583.725 470.452 593.779C469.093 591.675 467.591 589.938 465.887 588.124C469.662 586.289 478.878 564.146 481.251 559.045C484.74 551.544 492.048 539.048 489.025 530.757L489.506 529.801L490.982 530.382L490.984 528.326Z"/>
	<path fill="#A5B0E6" d="M740.842 702.482L741.051 702.154L740.549 700.794L740.993 700.741L740.551 701.151L741.557 701.304C742.33 702.161 742.46 701.916 743.557 701.979C746.159 703.961 748.453 706.307 751.1 708.225C759.982 714.659 770.972 720.882 781.313 724.434L782.32 725.46C781.768 726.509 781.172 727.528 780.836 728.671L780.075 728.73C768.05 726.712 748.468 711.917 740.842 702.482Z"/>
	<path fill="#91A2DB" d="M712.606 650.235C714.287 654.847 715.494 659.543 717.421 664.077C723.416 678.178 733.142 690.864 743.557 701.979C742.46 701.916 742.33 702.161 741.557 701.304L740.551 701.151L740.993 700.741L740.549 700.794L741.051 702.154L740.842 702.482C730.958 693.396 717.099 671.099 713.507 658.034C712.806 655.486 712.728 652.859 712.606 650.235Z"/>
	<path fill="#F09888" d="M831.712 478.765C834.861 472.695 837.961 468.184 844.801 465.903C848.425 464.695 852.369 464.531 855.824 466.347C859.284 468.166 862.518 471.915 863.634 475.682C864.499 478.602 863.353 486.719 863.866 487.618C868.852 488.098 874.809 489.057 878.178 493.133C880.894 496.42 881.722 500.919 881.276 505.074C880.955 508.06 879.872 512.155 878.093 514.565L876.448 517.421C881.041 518.039 885.167 518.708 888.107 522.748C890.182 525.598 890.888 529.41 890.16 532.839C889.146 537.615 886.045 542.115 883.482 546.186L881.224 549.321C871.345 567.407 854.503 590.051 838.635 603.349C833.83 607.376 825.674 609.851 821.997 614.725C818.877 618.86 814.09 634.264 812.651 639.593C812.231 641.192 811.721 642.793 811.566 644.44C808.728 649.333 806.869 654.584 804.919 659.874C800.272 658.363 795.468 657.519 790.915 655.677C770.933 647.592 760.225 630.858 748.729 613.923C746.998 610.733 746.173 608.011 745.583 604.464C746.205 603.641 746.62 602.565 747.082 601.639L748.201 600.64C751.137 594.125 755.587 587.824 757.365 580.895C759.241 573.58 757.847 565.242 757.798 557.749C757.738 548.392 758.362 538.497 760.106 529.31C763.895 509.348 776.971 497.799 793.122 486.792L794.631 484.306C807.137 483.928 816.979 481.663 827.849 475.49C827.686 477.649 827.63 479.397 828.763 481.305C829.636 480.304 830.659 479.562 831.712 478.765Z"/>
	<path fill="#F09888" d="M831.712 478.765C834.861 472.695 837.961 468.184 844.801 465.903C848.425 464.695 852.369 464.531 855.824 466.347C859.284 468.166 862.518 471.915 863.634 475.682C864.499 478.602 863.353 486.719 863.866 487.618C868.852 488.098 874.809 489.057 878.178 493.133C880.894 496.42 881.722 500.919 881.276 505.074C880.955 508.06 879.872 512.155 878.093 514.565L876.448 517.421C881.041 518.039 885.167 518.708 888.107 522.748C890.182 525.598 890.888 529.41 890.16 532.839C889.146 537.615 886.045 542.115 883.482 546.186L881.224 549.321C879.233 548.795 878.005 549.388 876.266 550.403C870.237 553.921 865.248 558.44 858.683 561.085C845.891 560.86 849.631 555.498 843.138 551.32C841.276 550.121 838.671 550.101 836.598 549.28C832.304 547.579 829.449 543.103 827.543 539.108C828.221 534.926 829.334 533.195 832.046 530.127C828.798 531.304 826.152 532.519 822.641 531.835C820.224 531.364 818.129 530.257 816.791 528.125C814.725 524.833 815.262 520.967 816.145 517.412C816.89 515.029 817.818 513.122 819.069 510.984L819.995 508.521C822.694 506.643 825.419 504.711 827.991 502.661C832.624 498.967 836.97 493.913 837.521 487.78C837.734 485.404 837.534 482.87 835.987 480.969C833.792 479.919 831.05 480.88 828.763 481.305C829.636 480.304 830.659 479.562 831.712 478.765Z"/>
	<path fill="#F09888" d="M876.448 517.421C881.041 518.039 885.167 518.708 888.107 522.748C890.182 525.598 890.888 529.41 890.16 532.839C889.146 537.615 886.045 542.115 883.482 546.186C883.289 546.21 883.095 546.232 882.902 546.258C871.478 547.804 861.717 565.039 849.309 556.046C848.153 555.208 846.977 553.915 846.808 552.437C846.671 551.237 846.936 549.901 847.766 548.993C848.373 548.331 849.334 547.769 850.078 547.26C856.02 541.068 862.007 534.982 867.611 528.475C870.253 524.68 873.384 520.887 876.448 517.421Z"/>
	<path fill="#E2877F" d="M867.611 528.475C865.11 534.287 858.339 544.133 852.169 546.644C851.482 546.923 850.802 547.113 850.078 547.26C856.02 541.068 862.007 534.982 867.611 528.475Z"/>
	<path fill="#A74543" d="M828.763 481.305C829.636 480.304 830.659 479.562 831.712 478.765C833.61 478.583 835.045 478.382 836.654 479.65C838.454 481.07 839.269 483.018 839.415 485.274C839.862 492.154 836.08 497.281 831.645 502.024C826.226 507.82 816.798 513.142 816.771 522.06C816.764 524.626 817.857 527.307 819.734 529.074C821.047 530.31 822.934 531.029 824.742 530.954C828.57 530.796 832.62 528.006 835.041 525.209C843.445 515.497 861.263 487.943 862.307 487.815C862.546 489.773 844.092 516.155 841.196 520.182C837.793 524.915 831.79 530.638 830.405 536.327C829.54 539.882 830.857 543.035 833.68 545.29C835.884 547.05 838.659 548.405 841.31 549.368C851.754 544.318 860.86 533.373 868.366 524.655C871.061 521.525 874.452 516.504 878.093 514.565L876.448 517.421C873.384 520.887 870.253 524.68 867.611 528.475C862.007 534.982 856.02 541.068 850.078 547.26C849.334 547.769 848.373 548.331 847.766 548.993C846.936 549.901 846.671 551.237 846.808 552.437C846.977 553.915 848.153 555.208 849.309 556.046C861.717 565.039 871.478 547.804 882.902 546.258C883.095 546.232 883.289 546.21 883.482 546.186L881.224 549.321C879.233 548.795 878.005 549.388 876.266 550.403C870.237 553.921 865.248 558.44 858.683 561.085C845.891 560.86 849.631 555.498 843.138 551.32C841.276 550.121 838.671 550.101 836.598 549.28C832.304 547.579 829.449 543.103 827.543 539.108C828.221 534.926 829.334 533.195 832.046 530.127C828.798 531.304 826.152 532.519 822.641 531.835C820.224 531.364 818.129 530.257 816.791 528.125C814.725 524.833 815.262 520.967 816.145 517.412C816.89 515.029 817.818 513.122 819.069 510.984L819.995 508.521C822.694 506.643 825.419 504.711 827.991 502.661C832.624 498.967 836.97 493.913 837.521 487.78C837.734 485.404 837.534 482.87 835.987 480.969C833.792 479.919 831.05 480.88 828.763 481.305Z"/>
	<path fill="#D27671" d="M808.879 516.139C811.125 515.97 813.423 515.587 815.6 516.279C816.125 517.199 816 516.799 816.145 517.412C815.262 520.967 814.725 524.833 816.791 528.125C818.129 530.257 820.224 531.364 822.641 531.835C826.152 532.519 828.798 531.304 832.046 530.127C829.334 533.195 828.221 534.926 827.543 539.108C829.449 543.103 832.304 547.579 836.598 549.28C838.671 550.101 841.276 550.121 843.138 551.32C849.631 555.498 845.891 560.86 858.683 561.085C856.555 563.066 854.392 564.741 851.994 566.383C839.252 562.793 828.351 555.813 815.223 563.048C812.5 564.549 809.809 566.441 807.398 568.403Q804.416 570.665 801.591 573.119C807.336 556.117 812.059 543.749 804.484 526.416C803.114 522.884 800.847 520.719 798.283 518.05C802.029 517.754 805.295 517.275 808.879 516.139Z"/>
	<path fill="#A74543" d="M799.704 520.865C801.504 522.536 802.791 524.63 804.484 526.416C812.059 543.749 807.336 556.117 801.591 573.119L797.997 578.131C795.772 580.613 793.791 583.471 791.734 586.104C793.366 580.996 797.196 576.607 799.621 571.796C807.236 556.685 808.37 544.284 803.037 528.343C802.66 525.437 801.171 523.345 799.704 520.865Z"/>
	<path fill="#BA5B59" d="M794.631 484.306C807.137 483.928 816.979 481.663 827.849 475.49C827.686 477.649 827.63 479.397 828.763 481.305C817.587 484.76 804.767 486.167 793.122 486.792L794.631 484.306Z"/>
	<path fill="#BA5B59" d="M803.037 528.343C801.816 526.375 796.967 519.678 797.379 517.755L797.893 517.772L797.744 517.17C801.436 515.335 805.489 514.62 809.376 513.317C813.047 512.086 816.532 510.24 819.995 508.521L819.069 510.984C817.818 513.122 816.89 515.029 816.145 517.412C816 516.799 816.125 517.199 815.6 516.279C813.423 515.587 811.125 515.97 808.879 516.139C805.295 517.275 802.029 517.754 798.283 518.05C800.847 520.719 803.114 522.884 804.484 526.416C802.791 524.63 801.504 522.536 799.704 520.865C801.171 523.345 802.66 525.437 803.037 528.343Z"/>
	<path fill="#BA5B59" d="M808.879 516.139C813.073 515.501 815.28 511.145 819.069 510.984C817.818 513.122 816.89 515.029 816.145 517.412C816 516.799 816.125 517.199 815.6 516.279C813.423 515.587 811.125 515.97 808.879 516.139Z"/>
	<path fill="#E2877F" d="M801.591 573.119Q804.416 570.665 807.398 568.403C806.107 572.148 803.663 575.75 799.884 577.406Q798.956 577.809 797.997 578.131L801.591 573.119Z"/>
	<path fill="#BA5B59" d="M781.129 603.039C784.054 604.467 786.851 606.785 789.728 608.426C793.248 610.432 804.518 614.787 806.271 617.418C805.24 617.388 804.251 617.2 803.252 616.94C796.295 615.121 784.86 609.432 781.129 603.039Z"/>
	<path fill="#F09888" d="M794.631 484.306C797.323 478.051 800.996 472.641 804.468 466.838L817.287 444.99C825.415 431.258 832.727 416.865 841.73 403.675C843.82 400.613 846.117 397.562 849.095 395.304C851.064 393.811 853.546 392.41 856.102 392.926C858.356 393.381 860.477 396.016 861.441 397.951C862.293 399.661 862.713 401.436 862.386 403.334C861.494 408.514 858.305 413.949 856.074 418.714Q848.506 435.007 840.24 450.957C836.177 458.67 830.983 466.649 828.072 474.846L827.849 475.49C816.979 481.663 807.137 483.928 794.631 484.306Z"/>
</svg>
