<?xml version="1.0" encoding="utf-8" ?>
<svg xmlns="http://www.w3.org/2000/svg" xmlns:xlink="http://www.w3.org/1999/xlink" width="1024" height="1024">
	<path fill="#252933" d="M202.375 392.7C230.384 389.676 259.446 404.078 285.696 412.018C293.697 414.439 301.917 417.153 310.357 417.197C318.896 417.24 327.214 412.977 335.074 410.102C362.083 400.225 392.215 388.834 421.272 395.191Q423.88 395.76 426.44 396.513C450.297 403.538 469.37 421.04 481.114 442.631C511.638 498.751 493.092 571.406 476.3 628.791C479.806 640.992 484.541 651.878 490.756 662.917C492.152 662.453 493.54 662.066 494.976 661.742C499.87 660.639 504.785 661.245 509.009 664.056C515.669 668.49 517.961 675.729 519.523 683.126C538.133 674.051 545.978 663.546 553.815 644.731C550.54 631.58 548.225 617.817 546.184 604.421C539.055 557.647 537.187 506.403 558.544 462.813C578.648 421.779 623.041 388.383 670.53 399.66C691.515 404.644 711.173 416.258 733.102 416.845C749.413 417.281 763.364 410.617 778.408 405.538C804.229 396.822 831.642 398.05 856.176 410.31C882.524 423.476 900.449 446.52 909.61 474.214C924.541 519.348 917.447 570.333 903.66 614.79C900.325 625.547 896.805 636.871 891.749 646.968Q896.715 651.768 901.029 657.161Q905.344 662.554 908.938 668.452C926.47 697.504 927.208 726.854 919.179 758.871C920.694 761.326 922.068 763.8 923.14 766.484Q923.456 767.269 923.732 768.068Q924.008 768.868 924.244 769.68Q924.48 770.493 924.675 771.316Q924.87 772.139 925.024 772.971Q925.178 773.803 925.29 774.641Q925.402 775.48 925.473 776.323Q925.543 777.166 925.571 778.011Q925.599 778.857 925.585 779.702Q925.571 780.548 925.515 781.392Q925.458 782.236 925.36 783.077Q925.262 783.917 925.122 784.751Q924.982 785.585 924.8 786.412Q924.619 787.238 924.396 788.054Q924.174 788.87 923.911 789.674Q923.648 790.478 923.345 791.268Q923.043 792.058 922.701 792.832C919.696 799.696 914.176 805.802 907.044 808.436C903.197 809.856 898.439 810.233 894.682 808.319C892.51 807.213 890.968 805.379 890.218 803.064C887.349 794.202 894.826 782.13 898.578 774.432C895.44 777.709 890.976 782.115 886.399 783.024C884.847 783.332 883.173 783.189 881.924 782.112C880.642 781.006 880.144 779.237 880.079 777.605C879.891 772.879 882.714 768.14 885.736 764.716C891.946 757.68 899.939 754.578 909.131 753.942C909.997 745.45 911.741 737.071 912.234 728.528C913.773 701.834 902.343 680.522 887.135 659.656C874.807 686.291 862.882 722.782 855.869 751.21C849.849 775.615 845.342 800.608 836.82 824.311C831.32 839.611 823.58 859.158 807.74 866.273Q807.125 866.548 806.498 866.793Q805.871 867.037 805.233 867.25Q804.594 867.463 803.946 867.645Q803.297 867.826 802.641 867.975Q801.984 868.124 801.321 868.241Q800.658 868.357 799.99 868.441Q799.322 868.524 798.651 868.575Q797.98 868.625 797.307 868.643Q796.634 868.66 795.961 868.644Q795.288 868.628 794.616 868.578Q793.945 868.529 793.277 868.446Q792.609 868.364 791.945 868.249Q791.282 868.133 790.625 867.985Q789.969 867.837 789.32 867.657Q788.671 867.477 788.032 867.265Q787.394 867.052 786.766 866.809C756.963 855.144 739.441 792.146 727.578 764.697C724.633 758.571 721.352 752.287 714.818 749.331C711.132 747.663 706.893 747.785 703.153 749.225C675.156 760.002 681.604 825.897 670.947 848.837C668.387 854.347 664.197 858.96 658.342 860.939C651.373 863.295 643.662 862.027 637.179 858.846C630.864 855.748 625.42 850.985 620.432 846.095C576.806 803.332 577.732 720.213 558.654 665.077C551.663 677.13 542.622 685.943 530.595 692.896C534.287 699.294 536.906 705.544 537.602 712.97C538.258 719.979 537.696 729.019 532.897 734.572C529.607 738.379 526.288 738.938 521.572 739.317C520.893 740.956 520.193 742.575 519.277 744.099C516.215 749.192 511.245 753.296 505.388 754.634C500.666 755.713 495.507 755.034 491.39 752.419C486.292 749.18 484.587 744.454 483.342 738.867C480.016 738.158 476.354 737.663 473.487 735.713C469.656 733.107 468.865 728.284 468.009 724.047C467.262 720.349 465.195 718.348 464.089 715.015C461.263 706.504 464.644 693.574 470.152 686.76C472.951 683.297 477.302 680.127 479.145 676.051C479.68 674.868 479.978 673.573 479.65 672.289C478.735 668.707 475.776 664.69 474.054 661.342C472.168 657.675 470.581 653.954 469.044 650.133C467.101 656.074 464.657 661.879 462.625 667.801Q456.855 684.692 452.395 701.975C446.656 723.995 443.099 746.548 438.122 768.751C431.422 798.649 419.412 838.872 392.052 855.983C385.464 860.103 377.834 862.404 370.071 860.48C362.837 858.688 357.359 853.731 353.058 847.877C338.418 827.949 334.933 796.336 330.66 772.399C328.703 761.439 326.537 748.5 320.699 738.917C317.796 734.15 314.868 732.15 309.607 730.844C307.972 731.248 306.393 731.747 304.83 732.379C299.604 734.492 295.178 737.787 291.868 742.402C281.498 756.864 276.677 783.495 272.145 800.672C269.47 810.814 266.357 820.91 262.247 830.573C256.82 843.327 247.843 859.514 234.086 864.765C226.976 867.478 219.637 866.611 212.822 863.602C182.185 850.076 164.837 802.9 157.9 772.177C153.226 751.475 151.262 730.266 146.309 709.616C140.974 687.37 132.597 666.85 124.451 645.576Q123.998 646.175 123.572 646.793C111.466 664.065 104.445 684.871 105.601 706.102C106.005 713.514 107.459 720.843 108.732 728.144C115.067 729.209 120.34 730.778 125.435 734.806C129.405 737.945 133.732 742.738 134.196 747.967C134.346 749.66 134.032 751.6 132.701 752.791C131.855 753.548 130.709 753.883 129.591 753.853C124.414 753.712 119.714 748.479 116.34 745.04C118.287 754.539 124.369 762.387 126.309 771.706C126.916 774.622 126.934 778.218 125.152 780.759C123.962 782.457 122.059 783.397 120.061 783.763C114.415 784.798 108.371 783.114 103.785 779.767C96.9204 774.754 92.507 766.578 91.2333 758.258C89.6374 747.832 91.726 739.474 97.9639 731.033Q96.9274 727.136 96.1561 723.178Q95.3849 719.219 94.8824 715.218Q94.38 711.217 94.1486 707.191Q93.9173 703.165 93.9581 699.132C94.2241 676.295 102.317 647.867 119.084 631.545C108.929 606.6 101.823 571.786 99.5688 544.833C96.2477 505.121 102.531 461.403 129.162 430.146Q130.015 429.14 130.893 428.155Q131.77 427.171 132.672 426.208Q133.573 425.245 134.498 424.305Q135.423 423.365 136.371 422.448Q137.319 421.531 138.289 420.637Q139.26 419.744 140.252 418.875Q141.244 418.006 142.257 417.161Q143.27 416.317 144.304 415.497Q145.338 414.678 146.391 413.885Q147.445 413.091 148.518 412.324Q149.59 411.557 150.682 410.816Q151.773 410.076 152.883 409.362Q153.992 408.649 155.119 407.963Q156.245 407.277 157.389 406.62Q158.532 405.962 159.691 405.332Q160.85 404.703 162.024 404.102Q163.199 403.502 164.387 402.93Q165.576 402.359 166.778 401.817Q167.981 401.275 169.196 400.763Q170.412 400.251 171.64 399.769Q172.867 399.287 174.107 398.835Q175.346 398.384 176.596 397.963Q177.846 397.542 179.106 397.152Q180.366 396.762 181.635 396.404Q182.904 396.045 184.182 395.718Q185.46 395.391 186.745 395.095Q188.031 394.799 189.323 394.535Q190.615 394.272 191.914 394.04Q193.212 393.808 194.516 393.608Q195.82 393.408 197.128 393.241Q198.436 393.073 199.748 392.938Q201.06 392.803 202.375 392.7Z"/>
	<path fill="#FCF4E1" d="M126.789 625.584C108.045 579.585 99.3653 511.824 118.974 464.907C129.334 440.118 148.198 419.258 173.327 409.067C215.655 391.901 250.665 411.926 290.711 423.014C292.967 423.479 295.23 423.919 297.463 424.488C287.292 427.739 273.857 429.922 263.859 424.878L261.956 424.436L261.895 424.498L260.897 424.718C262.918 427.894 272.043 430.203 275.729 431.01C276.872 431.261 278.036 431.524 279.194 431.691C300.958 433.412 317.905 426.008 337.903 419.219C369.131 407.753 402.041 394.431 434.628 409.583C456.708 419.85 471.5 440.315 479.544 462.8C485.511 479.481 487.524 497.368 487.605 515.002C487.825 563.067 472.946 608.598 457.943 653.714C452.486 670.123 446.809 686.456 442.425 703.196C432.301 741.858 429.055 782.39 411.625 818.881C405.771 831.137 396.908 845.698 383.48 850.641C378.465 852.487 373.039 852.385 368.219 849.982C358.256 845.012 353.33 832.117 350.268 822.171C346.829 811 344.536 799.497 342.449 788.01C339.026 769.159 336.576 734.473 317.38 724.649C311.971 721.881 306.12 722.116 300.495 724.11C289.84 727.887 283.048 737.315 278.576 747.242C275.492 754.088 273.164 761.274 271.138 768.497C265.178 789.747 254.491 847.512 231.563 856.533C226.545 858.507 221.27 857.674 216.476 855.479C195.545 845.895 183.083 821.026 175.632 800.377C166.463 774.966 163.99 748.656 158.492 722.422C152.601 694.313 143.023 667.216 132.088 640.708C133.743 638.046 135.647 635.154 134.862 631.86C134.41 629.961 133.053 628.37 131.387 627.388C129.996 626.569 128.316 626.099 126.789 625.584Z"/>
	<path fill="#F4C7AD" d="M374.254 413.312C349.549 431.228 325.887 442.579 294.483 437.608C290.939 437.046 281.811 436.107 279.678 433.269C279.351 432.834 279.274 432.211 279.194 431.691C300.958 433.412 317.905 426.008 337.903 419.219C339.889 421.15 342.04 421.159 344.705 421.132C354.739 421.032 364.999 416.782 374.254 413.312Z"/>
	<path fill="#F4C7AD" d="M290.711 423.014C292.967 423.479 295.23 423.919 297.463 424.488C287.292 427.739 273.857 429.922 263.859 424.878C272.428 422.375 282.637 428.081 290.711 423.014Z"/>
	<path fill="#252933" d="M204.365 599.005Q202.916 596.813 201.598 594.54C195.238 583.516 193.865 569.513 197.272 557.32Q197.551 556.289 197.882 555.273Q198.214 554.258 198.596 553.26Q198.978 552.262 199.41 551.285Q199.842 550.308 200.322 549.354Q200.803 548.401 201.332 547.472Q201.86 546.544 202.435 545.643Q203.009 544.743 203.629 543.872Q204.248 543.002 204.911 542.164Q205.574 541.326 206.278 540.523Q206.982 539.72 207.726 538.953Q208.47 538.187 209.252 537.459Q210.034 536.731 210.851 536.043Q211.669 535.355 212.52 534.71Q213.371 534.065 214.254 533.463Q215.137 532.861 216.049 532.305Q216.961 531.749 217.9 531.24C226.751 526.329 237.361 524.298 247.199 527.263C256.548 530.081 264.517 537.241 268.988 545.856C274.775 557.008 275.773 571.834 271.994 583.765C269.406 591.935 264.133 599.692 256.272 603.552C250.092 606.587 242.747 606.716 236.323 604.339C229.66 601.873 224.546 596.704 221.609 590.307C217.268 580.854 217.967 569.365 221.62 559.802C225.948 548.468 233.496 542.661 244.276 537.877C240.562 535.899 234.228 537.369 230.323 538.567C222.075 541.098 216.98 546.516 211.335 552.7C209.545 554.661 207.898 556.669 205.639 558.118C201.035 568.488 202.074 581.528 206.09 591.936Q207.463 595.569 209.386 598.943L204.365 599.005Z"/>
	<path fill="#F4C7AD" d="M205.639 558.118C205.668 558.023 205.696 557.928 205.727 557.834C208.628 549.043 215.598 542.149 223.82 538.129C233.103 533.589 242.922 533.275 252.651 536.561L244.276 537.877C240.562 535.899 234.228 537.369 230.323 538.567C222.075 541.098 216.98 546.516 211.335 552.7C209.545 554.661 207.898 556.669 205.639 558.118Z"/>
	<path fill="#FEFEF5" d="M254.046 550.79Q254.321 550.701 254.602 550.63Q254.883 550.558 255.167 550.506Q255.452 550.454 255.74 550.42Q256.027 550.387 256.316 550.372Q256.606 550.358 256.895 550.362Q257.185 550.367 257.473 550.391Q257.762 550.414 258.048 550.457Q258.334 550.5 258.617 550.561Q258.9 550.622 259.178 550.702Q259.457 550.782 259.729 550.88Q260.002 550.978 260.267 551.094Q260.532 551.21 260.789 551.343Q261.046 551.476 261.294 551.626Q261.542 551.776 261.779 551.942Q262.017 552.107 262.243 552.288Q262.469 552.469 262.682 552.665Q262.896 552.861 263.096 553.07Q263.296 553.279 263.482 553.501Q263.668 553.723 263.839 553.956Q264.01 554.19 264.165 554.435Q264.32 554.679 264.459 554.933Q264.597 555.188 264.719 555.45Q264.84 555.713 264.945 555.983Q265.049 556.253 265.135 556.53Q265.221 556.806 265.288 557.088Q265.356 557.37 265.405 557.655Q265.453 557.94 265.483 558.228Q265.513 558.516 265.524 558.805Q265.535 559.095 265.527 559.384Q265.519 559.674 265.492 559.962Q265.464 560.25 265.418 560.536Q265.372 560.822 265.307 561.104Q265.242 561.386 265.159 561.663Q265.075 561.941 264.974 562.212Q264.872 562.483 264.753 562.747Q264.634 563.01 264.498 563.266Q264.361 563.521 264.209 563.767Q264.056 564.013 263.887 564.248Q263.718 564.484 263.535 564.707Q263.351 564.931 263.153 565.142Q262.954 565.353 262.743 565.551Q262.531 565.748 262.307 565.931Q262.083 566.114 261.847 566.282Q261.611 566.45 261.365 566.602Q261.118 566.754 260.863 566.89Q260.607 567.025 260.343 567.144Q260.078 567.262 259.807 567.363Q259.535 567.463 259.258 567.546Q259.053 567.607 258.846 567.658Q258.638 567.709 258.428 567.75Q258.219 567.79 258.007 567.821Q257.796 567.851 257.583 567.871Q257.37 567.892 257.157 567.901Q256.943 567.911 256.729 567.911Q256.516 567.91 256.302 567.899Q256.089 567.888 255.876 567.866Q255.664 567.845 255.452 567.813Q255.241 567.781 255.031 567.74Q254.822 567.698 254.615 567.645Q254.407 567.593 254.203 567.531Q253.999 567.469 253.797 567.397Q253.596 567.325 253.399 567.243Q253.201 567.161 253.008 567.07Q252.815 566.979 252.626 566.878Q252.438 566.778 252.254 566.668Q252.071 566.558 251.893 566.44Q251.715 566.322 251.543 566.195Q251.371 566.068 251.206 565.933Q251.04 565.797 250.881 565.654Q250.723 565.511 250.571 565.361Q250.419 565.21 250.275 565.052Q250.131 564.894 249.995 564.73Q249.859 564.565 249.731 564.394Q249.603 564.223 249.483 564.046Q249.364 563.869 249.253 563.686Q249.142 563.503 249.04 563.315Q248.938 563.128 248.846 562.935Q248.753 562.742 248.67 562.545Q248.587 562.348 248.514 562.148Q248.44 561.947 248.377 561.743Q248.314 561.539 248.26 561.332Q248.207 561.125 248.163 560.916Q248.12 560.706 248.087 560.495Q248.054 560.284 248.031 560.072Q248.008 559.859 247.996 559.646Q247.983 559.432 247.981 559.219Q247.979 559.005 247.988 558.791Q247.996 558.578 248.015 558.365Q248.033 558.152 248.063 557.94Q248.092 557.729 248.131 557.519Q248.171 557.308 248.22 557.101Q248.27 556.893 248.329 556.688Q248.389 556.482 248.458 556.28Q248.528 556.078 248.607 555.88Q248.687 555.681 248.776 555.487Q248.864 555.292 248.963 555.103Q249.061 554.913 249.168 554.728Q249.276 554.543 249.392 554.364Q249.508 554.184 249.633 554.011Q249.758 553.838 249.891 553.67Q250.024 553.503 250.165 553.343Q250.306 553.182 250.455 553.029Q250.604 552.875 250.76 552.729Q250.916 552.583 251.079 552.445Q251.242 552.307 251.411 552.176Q251.581 552.046 251.757 551.924Q251.932 551.803 252.114 551.69Q252.295 551.577 252.482 551.472Q252.668 551.368 252.86 551.273Q253.051 551.179 253.247 551.093Q253.443 551.008 253.643 550.932Q253.843 550.856 254.046 550.79Z"/>
	<path fill="#55A0C9" d="M232.031 593.529C234.316 593.435 236.581 593.479 238.819 593.99C242.17 594.756 246.26 595.756 248.207 598.815C248.335 600.426 248.104 600.435 247.12 601.753C242.721 601.673 238.06 601.138 233.932 599.53C232.06 598.801 230.985 598.077 230.154 596.231C230.518 594.756 230.946 594.544 232.031 593.529Z"/>
	<path fill="#252933" d="M352.03 574.291C350.759 561.772 352.427 547.165 360.596 537.03Q361.044 536.469 361.52 535.931Q361.995 535.392 362.497 534.878Q362.998 534.364 363.524 533.875Q364.05 533.387 364.6 532.924Q365.15 532.462 365.721 532.028Q366.293 531.593 366.886 531.187Q367.478 530.781 368.09 530.405Q368.702 530.029 369.332 529.684Q369.961 529.338 370.607 529.024Q371.253 528.71 371.914 528.429Q372.574 528.147 373.248 527.898Q373.922 527.649 374.607 527.434Q375.292 527.219 375.987 527.038Q376.682 526.857 377.385 526.71Q378.088 526.563 378.798 526.451Q379.507 526.34 380.221 526.263C390.19 525.223 400.637 529.613 408.164 535.947C417.467 543.777 422.824 554.905 423.808 566.971C424.689 577.781 422.483 589.68 415.37 598.185C414.835 598.825 414.254 599.389 413.653 599.966L412.742 600.433C410.558 601.518 408.265 602.526 406.208 603.836C403.473 604.962 400.645 605.999 397.976 607.265C392.11 608.243 386.431 607.98 381.017 605.254C374.406 601.926 369.646 595.665 367.273 588.751C363.721 578.398 364.934 566.354 369.706 556.592C374.292 547.21 381.043 542.263 390.725 538.887C387.102 536.783 382.719 536.362 378.708 537.514C370.694 539.816 365.519 546.576 358.252 550.126C353.448 559.184 354.019 564.806 352.03 574.291Z"/>
	<path fill="#F4C7AD" d="M358.252 550.126C360.608 545.109 365.045 540.558 369.881 537.936C379.369 532.792 388.427 534.85 398.131 537.816C395.685 538.269 393.19 538.545 390.725 538.887C387.102 536.783 382.719 536.362 378.708 537.514C370.694 539.816 365.519 546.576 358.252 550.126Z"/>
	<path fill="#FEFEF5" d="M401.217 551.245Q401.425 551.196 401.635 551.156Q401.845 551.117 402.057 551.088Q402.268 551.058 402.481 551.039Q402.694 551.02 402.908 551.012Q403.121 551.003 403.335 551.005Q403.548 551.006 403.762 551.018Q403.975 551.03 404.188 551.053Q404.4 551.075 404.611 551.107Q404.823 551.14 405.032 551.182Q405.241 551.225 405.449 551.278Q405.656 551.331 405.86 551.393Q406.064 551.456 406.265 551.528Q406.466 551.601 406.664 551.683Q406.861 551.765 407.054 551.856Q407.247 551.948 407.436 552.049Q407.624 552.149 407.808 552.259Q407.991 552.369 408.169 552.487Q408.347 552.605 408.519 552.732Q408.691 552.859 408.856 552.994Q409.022 553.129 409.181 553.272Q409.34 553.415 409.492 553.565Q409.643 553.716 409.788 553.873Q409.932 554.031 410.069 554.195Q410.205 554.359 410.334 554.53Q410.462 554.701 410.583 554.878Q410.703 555.054 410.814 555.237Q410.926 555.419 411.028 555.606Q411.131 555.794 411.224 555.986Q411.317 556.178 411.401 556.375Q411.485 556.571 411.56 556.772Q411.634 556.972 411.699 557.176Q411.763 557.38 411.818 557.586Q411.873 557.793 411.917 558.002Q411.962 558.211 411.997 558.421Q412.031 558.632 412.055 558.845Q412.08 559.057 412.094 559.27Q412.108 559.484 412.112 559.697Q412.115 559.911 412.109 560.124Q412.102 560.338 412.085 560.551Q412.068 560.764 412.041 560.976Q412.014 561.188 411.976 561.398Q411.939 561.609 411.892 561.817Q411.844 562.026 411.787 562.231Q411.729 562.437 411.662 562.64Q411.594 562.843 411.517 563.042Q411.44 563.241 411.354 563.437Q411.267 563.632 411.171 563.823Q411.075 564.014 410.97 564.2Q410.865 564.386 410.751 564.567Q410.637 564.748 410.515 564.923Q410.392 565.098 410.261 565.267Q410.13 565.436 409.991 565.598Q409.853 565.761 409.706 565.916Q409.56 566.072 409.406 566.22Q409.252 566.369 409.091 566.509Q408.93 566.65 408.763 566.783Q408.595 566.916 408.422 567.04Q408.248 567.165 408.069 567.281Q407.889 567.397 407.704 567.504Q407.519 567.611 407.329 567.709Q407.14 567.807 406.945 567.896Q406.751 567.985 406.553 568.064Q406.354 568.144 406.152 568.214Q405.95 568.283 405.745 568.343Q405.463 568.425 405.175 568.489Q404.888 568.553 404.597 568.597Q404.306 568.641 404.013 568.666Q403.72 568.691 403.426 568.696Q403.132 568.701 402.838 568.687Q402.544 568.673 402.251 568.639Q401.959 568.605 401.67 568.552Q401.38 568.499 401.095 568.427Q400.81 568.355 400.53 568.264Q400.25 568.173 399.977 568.064Q399.704 567.954 399.439 567.827Q399.173 567.7 398.917 567.555Q398.661 567.41 398.415 567.249Q398.169 567.088 397.934 566.91Q397.699 566.733 397.477 566.54Q397.254 566.348 397.045 566.141Q396.836 565.934 396.641 565.714Q396.446 565.493 396.266 565.26Q396.086 565.028 395.922 564.783Q395.758 564.539 395.61 564.284Q395.463 564.03 395.333 563.766Q395.202 563.502 395.09 563.23Q394.978 562.958 394.883 562.679Q394.789 562.401 394.714 562.116Q394.639 561.832 394.583 561.543Q394.526 561.254 394.489 560.962Q394.452 560.67 394.435 560.376Q394.417 560.083 394.419 559.788Q394.422 559.494 394.443 559.201Q394.465 558.907 394.506 558.616Q394.547 558.324 394.607 558.036Q394.668 557.748 394.747 557.465Q394.826 557.182 394.924 556.904Q395.022 556.627 395.139 556.356Q395.255 556.086 395.389 555.824Q395.523 555.562 395.674 555.31Q395.825 555.057 395.992 554.815Q396.16 554.573 396.343 554.343Q396.526 554.113 396.724 553.895Q396.923 553.678 397.135 553.474Q397.347 553.27 397.572 553.08Q397.797 552.891 398.035 552.717Q398.272 552.543 398.52 552.385Q398.768 552.227 399.027 552.086Q399.285 551.945 399.552 551.822Q399.819 551.698 400.094 551.593Q400.369 551.487 400.65 551.4Q400.931 551.313 401.217 551.245Z"/>
	<path fill="#55A0C9" d="M380.61 593.509C384.667 593.393 387.453 593.952 391.131 595.573C393.715 596.712 395.977 598.123 397.021 600.834C396.919 602.306 396.732 602.451 395.821 603.638C391.968 603.628 388.369 602.717 384.837 601.207C382.338 600.138 380.169 599.033 379.117 596.426C379.317 594.817 379.502 594.725 380.61 593.509Z"/>
	<path fill="#F4C7AD" d="M209.386 598.943L210.23 600.158L209.938 600.613C212.067 601.17 213.668 601.555 215.866 601.276C218.713 601.43 221.185 602.881 223.073 604.984C225.418 607.596 227.384 611.915 227.011 615.495C226.921 616.359 226.695 617.219 226.474 618.057C228.219 619.83 229.695 621.802 230.357 624.238C231.377 627.99 230.52 631.658 228.524 634.927C224.851 640.939 218.539 645.17 211.761 646.849C203.279 648.949 192.993 648.186 185.51 643.416C180.817 640.424 177.516 635.906 176.319 630.444C175.392 626.214 176.766 621.49 179.127 617.928C182.971 612.13 189.765 610.464 196.187 609.318C197.188 603.865 200.101 602.119 204.365 599.005L209.386 598.943Z"/>
	<path fill="#55A0C9" d="M209.386 598.943L210.23 600.158L209.938 600.613C212.067 601.17 213.668 601.555 215.866 601.276C218.713 601.43 221.185 602.881 223.073 604.984C225.418 607.596 227.384 611.915 227.011 615.495C226.921 616.359 226.695 617.219 226.474 618.057C224.158 620.314 221.788 621.89 218.636 622.779C213.637 624.189 207.942 623.552 203.484 620.833C198.898 618.036 197.271 614.304 196.187 609.318C197.188 603.865 200.101 602.119 204.365 599.005L209.386 598.943Z"/>
	<path fill="#6CB6D8" d="M217.596 609.064C219.083 609.702 220.139 610.248 221.069 611.629C221.837 612.771 221.72 613.561 221.493 614.84C220.597 616.093 219.731 616.829 218.292 617.432C214.452 619.042 209.954 618.362 206.257 616.67C204.546 615.887 202.853 614.618 202.387 612.69C201.919 610.752 202.585 608.909 203.428 607.202C204.655 606.134 205.153 606.016 206.699 605.882C209.75 609.052 213.468 608.938 217.596 609.064Z"/>
	<path fill="#FEFEF5" d="M209.938 600.613C212.067 601.17 213.668 601.555 215.866 601.276C216.855 602.476 218.482 604.032 218.435 605.686C218.402 606.828 217.966 607.994 217.596 609.064C213.468 608.938 209.75 609.052 206.699 605.882C206.669 605.187 206.531 604.138 206.724 603.479C207.195 601.867 208.613 601.409 209.938 600.613Z"/>
	<path fill="#F56E60" d="M196.502 623.406L197.423 624.071C197.897 624.938 198.068 625.391 198.027 626.409C197.878 630.122 194.542 633.884 191.979 636.327C190.924 634.942 189.99 633.601 190.075 631.755C190.242 628.124 193.944 625.508 196.502 623.406Z"/>
	<path fill="#F56E60" d="M207.272 627.721C208.47 628.108 208.505 628.117 209.221 629.149C209.353 632.456 207.186 635.077 205.461 637.729C205.369 637.709 205.274 637.703 205.186 637.67C203.877 637.174 203.868 637.002 203.287 635.777C203.475 632.506 205.359 630.217 207.272 627.721Z"/>
	<path fill="#F4C7AD" d="M413.653 599.966L414.389 600.116C417.692 600.767 422.044 600.625 424.365 603.635C426.233 606.059 425.783 610.241 425.353 613.054C430.578 615.501 435.425 618.627 437.353 624.415C438.726 628.536 438.071 633.15 436.032 636.936C432.638 643.236 425.713 646.906 419.009 648.688C412.752 650.351 405.833 650.298 400.172 646.818C395.438 643.907 392.808 639.225 391.726 633.873C390.862 629.602 391.454 625.283 394.003 621.674C394.84 620.489 395.893 619.45 396.911 618.42C395.586 614.278 396.496 611.182 397.976 607.265C400.645 605.999 403.473 604.962 406.208 603.836C408.265 602.526 410.558 601.518 412.742 600.433L413.653 599.966Z"/>
	<path fill="#55A0C9" d="M413.653 599.966L414.389 600.116C417.692 600.767 422.044 600.625 424.365 603.635C426.233 606.059 425.783 610.241 425.353 613.054C422 618.07 418.163 621.527 412.012 622.688C407.56 623.528 402.678 622.786 398.957 620.101C398.242 619.585 397.572 619.004 396.911 618.42C395.586 614.278 396.496 611.182 397.976 607.265C400.645 605.999 403.473 604.962 406.208 603.836C408.265 602.526 410.558 601.518 412.742 600.433L413.653 599.966Z"/>
	<path fill="#6CB6D8" d="M412.742 600.433C414.341 602.227 415.058 603.59 415.821 605.834C417.326 606.079 418.602 606.29 419.627 607.552C420.435 608.547 420.397 609.456 420.098 610.641C419.368 613.533 415.114 616.262 412.561 617.3C410.268 618.232 406.936 618.99 404.527 618.054C403.32 617.585 402.682 616.7 402.28 615.514C401.799 614.095 402.003 612.414 402.793 611.151C403.843 609.474 405.436 608.734 405.625 606.591L406.208 603.836C408.265 602.526 410.558 601.518 412.742 600.433Z"/>
	<path fill="#FEFEF5" d="M412.742 600.433C414.341 602.227 415.058 603.59 415.821 605.834C413.716 607.138 410.277 609.43 407.698 608.904C407.149 608.792 406.727 608.534 406.246 608.28C405.978 607.697 405.742 607.225 405.625 606.591L406.208 603.836C408.265 602.526 410.558 601.518 412.742 600.433Z"/>
	<path fill="#F56E60" d="M417.859 623.053C419.625 623.454 421.157 624.316 422.337 625.702C424.546 628.298 424.447 631.678 424.228 634.88L423.347 634.969C422.422 634.636 421.857 634.366 421.132 633.67C418.535 631.182 418.022 626.437 417.859 623.053Z"/>
	<path fill="#F56E60" d="M408.128 625.202C409.953 625.556 411.334 625.955 412.525 627.47C413.156 629.202 412.864 630.486 412.559 632.271C412.125 632.358 411.42 632.518 410.995 632.52C409.678 632.528 409.356 632.123 408.458 631.289C407.745 629.313 408.029 627.266 408.128 625.202Z"/>
	<path fill="#FEFEF5" d="M200.212 418.143C203.062 417.88 208.069 418.292 210.603 419.775C211.746 420.445 212.475 421.376 212.765 422.682C213.285 425.031 211.716 427.948 210.586 429.905C204.54 440.378 193.715 446.52 182.33 449.464C178.966 450.106 174.342 450.194 171.392 448.176C169.98 447.21 169.289 445.898 169.015 444.234C168.398 440.485 171.138 435.568 173.235 432.639C179.579 423.78 189.795 419.793 200.212 418.143Z"/>
	<path fill="#252933" d="M220.809 513.772C217.118 513.881 211.417 514.257 208.711 511.282C207.738 510.214 207.807 509.772 207.902 508.446C210.774 504.254 227.424 502.004 233.194 500.076C242.04 497.12 248.768 483 255.226 480.392C256.497 479.879 257.267 480.087 258.472 480.599C260.593 482.796 260.512 485.151 260.627 488.052C262.206 491.375 262.194 494.89 260.889 498.35C258.405 504.934 252.357 509.968 245.979 512.618C237.514 516.135 229.581 516.14 220.809 513.772Z"/>
	<path fill="#F4C7AD" d="M260.627 488.052C262.206 491.375 262.194 494.89 260.889 498.35C258.405 504.934 252.357 509.968 245.979 512.618C237.514 516.135 229.581 516.14 220.809 513.772C228.02 512.95 235.188 511.372 241.789 508.285C251.003 503.977 257.187 497.642 260.627 488.052Z"/>
	<path fill="#252933" d="M361.124 492.219C360.331 489.753 358.972 485.87 360.229 483.369C360.814 482.205 361.516 481.514 362.809 481.172C364.458 480.736 365.882 481.396 367.111 482.41C373.15 487.39 377.842 494.87 384.872 498.558C390.577 501.552 404.712 502.672 407.417 508.011C407.382 509.304 407.412 509.914 406.433 510.921C404.159 513.259 399.123 513.51 396.062 513.634C394.1 514.468 392.077 514.84 389.947 514.895C381.711 515.109 373.076 510.797 367.273 505.122C363.569 501.499 361.209 497.458 361.124 492.219Z"/>
	<path fill="#F4C7AD" d="M361.124 492.219C370.46 504.442 381.063 510.482 396.062 513.634C394.1 514.468 392.077 514.84 389.947 514.895C381.711 515.109 373.076 510.797 367.273 505.122C363.569 501.499 361.209 497.458 361.124 492.219Z"/>
	<path fill="#252933" d="M313.198 620.163C319.188 619.606 325.784 620.642 331.226 623.225C337.344 626.127 343.351 631.674 345.487 638.224C346.05 639.954 346.22 641.436 345.385 643.119C339.876 646.784 332.766 636.175 328.292 633.614C324.176 631.257 319.06 630.72 314.423 630.403C305.205 632.123 301.125 635.74 294.893 642.349C293.43 643.901 291.938 645.618 290.02 646.614C288.79 647.252 287.923 647.344 286.58 646.964C285.567 646.2 284.747 645.204 284.503 643.916C283.887 640.651 285.804 637.84 287.674 635.388C294.366 626.61 302.203 621.661 313.198 620.163Z"/>
	<path fill="#FEFEF5" d="M408.538 416.097C419.091 415.423 428.727 417.421 437.072 424.249C440.369 426.947 445.793 432.577 445.852 436.988C445.868 438.155 445.615 439.209 444.681 439.969C442.952 441.375 441.022 441.477 438.887 441.394Q436.977 441.067 435.118 440.518C428.419 438.587 403.885 428.799 401.138 422.951C400.628 421.867 400.486 420.71 401.078 419.611C402.415 417.131 406.061 416.662 408.538 416.097Z"/>
	<path fill="#FCF4E1" d="M650.134 406.201C661.598 405.563 673.198 409.092 683.636 413.492C685.261 417.876 686.576 422.338 688.107 426.749C693.587 442.543 706.964 454.794 724.302 454.733C730.348 454.712 737.473 450.501 743.046 454.15C751.738 459.843 751.371 473.847 763.566 479.352C782.533 487.913 785.664 463.761 795.571 460.213C802.793 457.627 811.267 460.646 819.579 457.498C823.878 455.87 827.252 453.175 830.64 450.147C846.221 436.22 829.579 429.7 835.485 419.364C836.345 417.859 837.551 417.024 839.2 416.587C845.867 414.822 852.761 418.318 858.238 421.782C883.135 437.529 898.163 462.551 904.472 491.003C913.631 532.305 906.207 577.68 892.94 617.262C890.75 623.794 888.775 631.398 885.689 637.53C883.596 641.689 879.208 642.74 877.515 646.05C876.133 648.754 877.915 652.346 878.874 654.946C869.642 680.095 860.105 705.173 852.369 730.834Q847.23 748.137 843.241 765.741C837.441 790.426 829.344 835.691 810.877 853.687C807.035 857.431 802.12 860.173 796.625 859.998C789.378 859.769 782.794 854.749 778.124 849.566C767.092 837.225 759.754 822.329 753.444 807.159C746.314 790.023 737.989 755.033 722.983 743.929Q722.472 743.557 721.944 743.211Q721.416 742.865 720.871 742.546Q720.326 742.226 719.767 741.934Q719.207 741.642 718.633 741.378Q718.059 741.114 717.473 740.879Q716.887 740.644 716.29 740.438Q715.693 740.232 715.087 740.056Q714.481 739.88 713.866 739.734Q713.252 739.588 712.631 739.472Q712.01 739.357 711.384 739.272Q710.759 739.188 710.129 739.135Q709.5 739.081 708.869 739.059Q708.238 739.037 707.607 739.046Q706.975 739.055 706.345 739.095Q705.715 739.136 705.087 739.207Q704.46 739.278 703.837 739.381C696.153 740.7 690.339 745.976 686.001 752.142C665.144 781.791 673.479 830.923 661.283 847.336C659.004 850.403 655.709 852.582 651.861 852.977C644.428 853.741 636.317 848.689 630.836 844.065C625.777 839.797 621.648 834.552 617.786 829.21C588.555 788.78 584.654 734.557 573.715 687.328C570.554 673.68 566.463 660.257 563.129 646.65C557.366 623.121 552.93 598.881 550.781 574.737C546.754 529.5 552.429 477.365 582.693 441.425C600.179 420.658 623.11 408.521 650.134 406.201Z"/>
	<path fill="#252933" d="M728.174 592.186Q732.484 591.876 736.783 592.313C748.355 593.461 758.964 600.43 766.23 609.258C782.284 628.764 789 661.63 786.559 686.305C785.668 695.311 782.869 704.789 775.481 710.632C756.311 725.793 729.894 700.678 712.545 692.932C705.952 689.988 699.21 688.864 692.088 687.989C677.6 688.771 666.674 698.381 652.791 700.519C645.968 701.57 638.949 700.075 633.431 695.828C626.551 690.532 623.731 682.066 622.864 673.741C620.727 653.235 628.678 627.638 641.711 611.716C662.061 586.856 674.496 606.129 695.515 602.286C706.819 600.219 716.608 593.41 728.174 592.186Z"/>
	<path fill="#7E3A3A" d="M726.838 599.589Q727.657 599.505 728.479 599.456Q729.301 599.408 730.125 599.396Q730.948 599.383 731.771 599.407Q732.594 599.431 733.416 599.49Q734.237 599.55 735.055 599.645Q735.873 599.741 736.686 599.872Q737.499 600.003 738.305 600.17Q739.112 600.337 739.91 600.539Q740.709 600.74 741.497 600.977Q742.286 601.213 743.064 601.484Q743.842 601.755 744.607 602.06Q745.372 602.364 746.123 602.702Q746.874 603.039 747.609 603.41Q748.345 603.78 749.064 604.182Q749.782 604.584 750.483 605.017Q751.183 605.451 751.864 605.914C769.526 617.764 773.66 639.188 777.441 658.636C774.346 655.455 771.177 652.751 767.295 650.56C759.319 646.058 748.251 643.895 739.232 645.926C734.993 646.88 730.636 648.559 726.273 648.632C723.822 648.673 721.258 647.856 718.897 647.25C712.769 645.677 707.232 645.719 701.132 647.419C687.452 651.229 678.518 660.567 671.681 672.586C669.13 677.539 667.162 682.877 665.019 688.02C661.83 689.569 658.535 690.914 655.096 691.806C649.948 693.141 644.54 693.312 639.863 690.43C634.996 687.431 632.315 682.212 631.188 676.751C627.655 659.62 634.848 635.073 644.304 620.726C662.178 593.607 674.302 612.215 695.038 609.39C705.982 607.9 715.926 601.848 726.838 599.589Z"/>
	<path fill="#F56E60" d="M673.05 685.412C678.868 672.74 685.987 660.138 699.732 654.918C705.791 652.616 711.994 652.104 718.233 653.981C720.435 654.643 723.021 655.728 725.326 655.781C728.274 655.848 731.384 654.801 734.224 654.061C743.949 651.528 752.609 650.775 762.035 655.022C768.955 658.139 774.839 663.684 777.37 670.956C780.291 679.347 778.686 689.855 774.811 697.712Q774.404 698.524 773.918 699.292Q773.432 700.06 772.872 700.775Q772.312 701.491 771.684 702.147Q771.056 702.803 770.365 703.394Q769.674 703.984 768.928 704.503Q768.182 705.021 767.388 705.463Q766.594 705.905 765.761 706.266Q764.927 706.626 764.061 706.902C761.455 707.729 758.834 707.608 756.159 707.267C748.55 705.213 742.303 701.634 735.551 697.676C718.337 687.585 702.962 679.167 682.354 682.272Q677.73 683.925 673.05 685.412Z"/>
	<path fill="#C9534B" d="M673.05 685.412C678.868 672.74 685.987 660.138 699.732 654.918C705.791 652.616 711.994 652.104 718.233 653.981C720.435 654.643 723.021 655.728 725.326 655.781C728.274 655.848 731.384 654.801 734.224 654.061C743.949 651.528 752.609 650.775 762.035 655.022C768.955 658.139 774.839 663.684 777.37 670.956C780.291 679.347 778.686 689.855 774.811 697.712Q774.404 698.524 773.918 699.292Q773.432 700.06 772.872 700.775Q772.312 701.491 771.684 702.147Q771.056 702.803 770.365 703.394Q769.674 703.984 768.928 704.503Q768.182 705.021 767.388 705.463Q766.594 705.905 765.761 706.266Q764.927 706.626 764.061 706.902C761.455 707.729 758.834 707.608 756.159 707.267C762.459 702.992 767.689 697.902 769.116 690.051C770.141 684.413 768.497 678.57 765.067 674.03Q764.203 672.907 763.214 671.892Q762.225 670.876 761.126 669.982Q760.027 669.088 758.832 668.326Q757.636 667.565 756.361 666.947C745.601 661.698 737.233 667.226 726.448 667.402C720.758 667.495 715.484 665.364 709.905 664.729C703.369 663.985 697.419 666.117 692.342 670.163C689.255 672.623 682.819 678.287 682.354 682.272Q677.73 683.925 673.05 685.412Z"/>
	<path fill="#6CB6D8" d="M784.236 569.985C786.79 570.018 789.481 569.876 792.009 570.223L795.459 570.52C802.374 570.839 808.561 571.892 814.534 575.617C815.006 575.912 814.786 575.822 815.231 575.942C817.051 581.038 826.271 589.533 829.523 597.132C832.11 603.177 832.548 610.694 829.945 616.815Q829.773 617.228 829.58 617.632Q829.387 618.036 829.173 618.43Q828.96 618.824 828.727 619.206Q828.494 619.589 828.242 619.959Q827.99 620.329 827.719 620.685Q827.448 621.042 827.16 621.385Q826.872 621.727 826.566 622.055Q826.261 622.382 825.939 622.693Q825.617 623.005 825.28 623.299Q824.943 623.594 824.591 623.871Q824.24 624.149 823.874 624.408Q823.509 624.667 823.131 624.907Q822.753 625.147 822.363 625.367Q821.974 625.588 821.573 625.788Q821.173 625.989 820.763 626.168Q820.353 626.348 819.934 626.507C815.057 628.326 809.403 628.051 804.686 625.876C789.315 618.787 791.499 598.175 788.849 584.317C787.921 579.469 785.851 574.656 784.236 569.985Z"/>
	<path fill="#55A0C9" d="M784.236 569.985C786.79 570.018 789.481 569.876 792.009 570.223L790.508 570.853C790.307 575.226 793.335 580.607 794.264 584.943C796.457 595.179 794.974 609.046 802.432 617.37C804.744 619.951 808.001 621.325 811.446 621.385C815.105 621.45 819.348 620.344 821.948 617.625C824.819 614.623 825.609 609.696 825.294 605.706C824.598 596.885 818.15 587.473 811.462 581.979C806.406 577.825 800.294 574.774 795.459 570.52C802.374 570.839 808.561 571.892 814.534 575.617C815.006 575.912 814.786 575.822 815.231 575.942C817.051 581.038 826.271 589.533 829.523 597.132C832.11 603.177 832.548 610.694 829.945 616.815Q829.773 617.228 829.58 617.632Q829.387 618.036 829.173 618.43Q828.96 618.824 828.727 619.206Q828.494 619.589 828.242 619.959Q827.99 620.329 827.719 620.685Q827.448 621.042 827.16 621.385Q826.872 621.727 826.566 622.055Q826.261 622.382 825.939 622.693Q825.617 623.005 825.28 623.299Q824.943 623.594 824.591 623.871Q824.24 624.149 823.874 624.408Q823.509 624.667 823.131 624.907Q822.753 625.147 822.363 625.367Q821.974 625.588 821.573 625.788Q821.173 625.989 820.763 626.168Q820.353 626.348 819.934 626.507C815.057 628.326 809.403 628.051 804.686 625.876C789.315 618.787 791.499 598.175 788.849 584.317C787.921 579.469 785.851 574.656 784.236 569.985Z"/>
	<path fill="#ACE8F7" d="M800.646 581.669C802.223 582.02 803.428 582.259 804.747 583.268C805.357 584.889 805.172 585.39 804.898 587.059C803.471 586.743 802.514 586.486 801.249 585.705C800.372 584.053 800.541 583.494 800.646 581.669Z"/>
	<path fill="#6CB6D8" d="M601.638 561.871C605.387 560.44 609.806 560.574 613.759 560.473L620.659 560.913L626.122 561.669C623.688 567.358 621.516 573.245 620.128 579.281C617.976 588.642 618.705 599.18 612.813 607.289C609.953 611.225 605.841 613.967 600.988 614.651C596.313 615.31 591.492 614.117 587.812 611.125C583.741 607.816 581.174 602.703 580.749 597.494C579.519 582.424 593.02 572.893 601.69 562.851L601.638 561.871Z"/>
	<path fill="#55A0C9" d="M601.638 561.871C605.387 560.44 609.806 560.574 613.759 560.473L613.177 561.002C603.179 569.968 587.506 578.796 586.592 594.004C586.375 597.611 587.509 601.053 589.942 603.743C592.284 606.332 595.596 608.119 599.114 608.296C601.847 608.434 604.371 607.423 606.326 605.519C612.941 599.076 612.657 585.849 615.024 577.332C616.556 571.816 618.744 566.314 620.659 560.913L626.122 561.669C623.688 567.358 621.516 573.245 620.128 579.281C617.976 588.642 618.705 599.18 612.813 607.289C609.953 611.225 605.841 613.967 600.988 614.651C596.313 615.31 591.492 614.117 587.812 611.125C583.741 607.816 581.174 602.703 580.749 597.494C579.519 582.424 593.02 572.893 601.69 562.851L601.638 561.871Z"/>
	<path fill="#ACE8F7" d="M609.48 566.826C609.772 566.88 610.076 566.888 610.356 566.988C611.454 567.38 611.598 567.807 611.889 568.805C610.375 572.577 605.935 576.223 603.372 579.436C601.371 581.944 599.583 584.687 597.694 587.285C596.582 586.952 596.139 586.508 595.348 585.674C595 584.732 594.868 584.193 595.015 583.171C595.97 576.563 604.297 570.089 609.48 566.826Z"/>
	<path fill="#252933" d="M784.236 569.985C778.414 570.278 772.605 570.638 766.835 571.511C761.017 572.392 754.629 574.119 748.757 573.975C746.836 573.928 744.182 573.531 742.722 572.138C741.737 571.197 741.349 570.327 741.329 568.965C741.279 565.558 745.036 561.578 747.436 559.554C757.935 550.7 786.371 538.824 800.577 540.353C802.877 540.601 805.468 541.256 806.944 543.187C807.871 544.399 808.232 546.035 808.014 547.537C807.705 549.665 805.969 551.491 804.22 552.621C799.843 555.448 791.38 555.639 786.208 556.897C780.701 558.238 775.144 559.93 769.907 562.104C781.36 560.912 804.988 558.307 814.223 565.295C815.718 566.427 817.043 568.292 817.182 570.212C817.321 572.131 816.383 573.548 815.571 575.218C815.455 575.457 815.344 575.7 815.231 575.942C814.786 575.822 815.006 575.912 814.534 575.617C808.561 571.892 802.374 570.839 795.459 570.52L792.009 570.223C789.481 569.876 786.79 570.018 784.236 569.985Z"/>
	<path fill="#252933" d="M642.868 556.209C638.996 553.787 635.082 551.761 630.825 550.093C625.091 547.845 607.41 544.611 606.248 537.769C605.986 536.23 606.336 534.784 607.328 533.578C608.775 531.82 611.094 531.057 613.298 530.896C624.334 530.089 646.556 543.368 654.432 550.56C658.606 554.372 662.836 559.701 662.882 565.617C662.89 566.637 662.631 567.643 661.873 568.367C659.938 570.214 656.482 569.995 654.049 569.723C644.601 568.668 635.236 564.29 626.122 561.669L620.659 560.913L613.759 560.473C609.806 560.574 605.387 560.44 601.638 561.871C599.15 562.038 595.873 561.919 594.073 559.844C593.308 558.963 593.053 557.929 593.364 556.802C593.922 554.781 596.43 553.31 598.236 552.576C611.035 547.381 630.133 552.692 642.868 556.209Z"/>
	<path fill="#252933" d="M618.406 512.232C615.65 511.391 612.24 510.226 610.447 507.781C609.687 506.746 609.215 505.595 609.575 504.292C610.875 499.582 623.203 500.722 627.129 500.379C630.03 500.126 632.931 499.422 635.692 498.511C650.871 493.5 650.274 481.889 658.066 477.561C659.211 476.926 660.502 476.682 661.753 477.192C663.835 478.041 664.749 480.046 665.691 481.931C667.881 484.544 668.377 487.226 668.11 490.618C667.656 496.382 663.343 501.528 658.982 504.995C650.157 512.011 637.268 516.11 626.005 514.767C623.155 514.427 620.863 513.679 618.406 512.232Z"/>
	<path fill="#F4C7AD" d="M665.691 481.931C667.881 484.544 668.377 487.226 668.11 490.618C667.656 496.382 663.343 501.528 658.982 504.995C650.157 512.011 637.268 516.11 626.005 514.767C623.155 514.427 620.863 513.679 618.406 512.232C631.286 511.751 644.468 509.838 654.872 501.573C661.217 496.533 664.784 489.983 665.691 481.931Z"/>
	<path fill="#252933" d="M758.695 508.514C756.649 504.184 753.774 498.46 755.46 493.607C756.016 492.007 757.213 490.353 758.736 489.575C759.772 489.047 760.878 489.268 761.9 489.718C766.681 491.825 771.232 503.679 777.797 507.506C779.448 508.469 781.548 509.066 783.348 509.701C786.065 510.66 788.794 511.545 791.61 512.167C794.99 512.913 810.254 514.399 811.235 517.46C811.667 518.807 811.717 520.179 810.943 521.431C809.174 524.298 805.068 524.8 802.05 525.199C799.752 526.809 797.245 527.802 794.482 528.276C785.519 529.813 775.74 527.726 768.306 522.478C763.46 519.056 759.676 514.491 758.695 508.514Z"/>
	<path fill="#F4C7AD" d="M758.695 508.514C772.294 521.877 783.221 525.175 802.05 525.199C799.752 526.809 797.245 527.802 794.482 528.276C785.519 529.813 775.74 527.726 768.306 522.478C763.46 519.056 759.676 514.491 758.695 508.514Z"/>
	<path fill="#FEFEF5" d="M651.231 415.159C652.866 414.992 654.736 414.592 656.298 415.165C656.278 417.793 652.454 421.319 650.748 423.234C647.566 426.805 646.274 431.79 642.557 434.787C635.858 440.189 625.599 444.185 616.991 443.217C616.156 442.881 615.298 442.538 614.519 442.083C612.684 441.009 610.406 438.756 610.172 436.545C610.023 435.13 610.756 433.719 611.556 432.601C618.586 422.78 640.017 416.89 651.231 415.159Z"/>
	<path fill="#55A0C9" d="M856.811 514.272C861.35 518.427 855.208 534.047 858.798 539.548C859.551 540.702 860.224 540.641 861.457 540.812C862.418 540.493 862.953 540.286 863.649 539.508C867.974 534.672 866.009 519.806 865.355 513.676C868.092 518.293 870.433 522.773 872.055 527.902C873.444 532.726 874.269 538.501 872.353 543.279C871.325 545.842 869.453 547.95 866.863 548.987Q866.418 549.166 865.957 549.298Q865.496 549.43 865.025 549.514Q864.553 549.598 864.075 549.633Q863.597 549.668 863.117 549.654Q862.638 549.639 862.163 549.576Q861.688 549.512 861.222 549.4Q860.756 549.288 860.304 549.129Q859.851 548.97 859.418 548.765C856.587 547.421 854.682 544.805 853.618 541.924C850.483 533.439 853.321 522.22 856.811 514.272Z"/>
	<path fill="#F4C7AD" d="M693.04 702.566C698.028 702.348 702.371 702.543 706.711 705.412C708.634 706.683 711.578 709.379 711.732 711.884C711.799 712.96 711.601 713.81 710.788 714.566C708.617 716.583 705.238 715.62 702.67 715.166C697.706 714.541 692.295 715.857 687.486 714.789C685.709 714.395 684.805 713.57 683.894 712.03C683.735 711.03 683.709 710.506 684.09 709.534C685.409 706.173 689.936 703.968 693.04 702.566Z"/>
	<path fill="#F4C7AD" d="M831.396 693.158C833.177 694.027 834.094 695.026 834.687 696.92C836.237 701.87 834.292 707.687 831.986 712.084L830.625 711.69C829.868 710.856 829.337 710.265 828.926 709.192C827.061 704.318 829.178 697.535 831.396 693.158Z"/>
	<path fill="#F4C7AD" d="M815.63 725.716C816.028 725.851 816.189 725.889 816.601 726.14C818.018 727.005 818.738 728.553 818.982 730.151C819.679 734.709 817.43 739.308 814.736 742.81L812.95 742.105C812.273 741.367 811.893 740.883 811.601 739.899C810.328 735.618 813.382 729.296 815.63 725.716Z"/>
	<path fill="#7E3A3A" d="M753.585 424.251C779.913 415.965 804.629 404.666 832.828 412.339C829.09 416.263 826.636 419.76 826.746 425.441C826.79 427.71 826.812 430.079 827.127 432.328C828.433 434.982 829.418 437.481 828.437 440.424C826.934 444.933 822.38 447.839 818.27 449.742C809.696 453.709 801.831 452.019 792.782 452.617C792.595 452.726 792.406 452.834 792.219 452.945C784.721 457.415 777.628 474.492 767.713 472.131C764.422 471.348 761.355 467.881 759.73 465.063C759.6 464.836 759.477 464.605 759.351 464.377C757.178 460.432 755.072 456.387 752.638 452.597C743.643 438.59 730.45 448.375 717.069 445.307C707.302 443.067 699.562 436.427 694.358 428.086C692.232 424.011 690.785 419.778 689.284 415.451C711.43 423.22 729.77 428.585 753.585 424.251Z"/>
	<path fill="#433332" d="M827.127 432.328C828.433 434.982 829.418 437.481 828.437 440.424C826.934 444.933 822.38 447.839 818.27 449.742C809.696 453.709 801.831 452.019 792.782 452.617C792.595 452.726 792.406 452.834 792.219 452.945C784.721 457.415 777.628 474.492 767.713 472.131C764.422 471.348 761.355 467.881 759.73 465.063C759.6 464.836 759.477 464.605 759.351 464.377C760.767 461.057 760.495 456.33 760.64 452.755C761.902 454.948 763.457 458.332 765.764 459.566C772.081 462.944 780.545 450.319 785.874 448.01C795.36 443.9 806.24 449.505 815.894 445.476C821.737 443.037 824.771 437.866 827.127 432.328Z"/>
	<path fill="#C9534B" d="M689.284 415.451C711.43 423.22 729.77 428.585 753.585 424.251C750.108 429.328 742.421 431.47 736.629 432.551C726.237 434.492 716.486 433.131 707.074 428.322C703.707 426.602 700.226 424.288 696.623 423.22C695.554 424.782 695.468 426.697 694.358 428.086C692.232 424.011 690.785 419.778 689.284 415.451Z"/>
	<path fill="#FCF4E1" d="M503.615 727.501C501.738 728.276 499.858 729.034 497.872 729.486C495.428 730.042 492.51 729.865 490.395 728.398C489.133 727.524 488.213 726.139 488.124 724.577C488.049 723.26 488.569 721.802 489.553 720.892C491.211 719.358 493.069 719.07 495.257 719.118C496.488 719.145 497.401 719.108 498.594 718.813L499.042 717.913C498.456 715.484 497.745 713.193 498.645 710.746C500.3 706.244 505.287 706.773 508.837 704.831C509.85 704.278 509.956 704.204 510.312 703.082C507.902 699.858 501.258 698.842 497.826 696.398C496.537 695.479 495.71 694.592 495.454 692.974C495.698 691.632 496.295 690.825 497.302 689.938C498.816 688.606 500.767 688.304 502.718 688.536C511.708 689.607 521.032 698.097 526.315 704.965C529.543 710.315 530.525 716.207 529.069 722.33C528.497 724.736 526.947 728.75 524.686 730.095C523.463 730.823 523.15 730.763 521.875 730.431C520.751 729.295 520.754 727.947 520.554 726.442C519.993 725.065 519.591 724.236 518.43 723.229L517.413 723.139C516.451 724.124 516.404 724.709 516.045 726.016C515.837 732.887 514.343 738.899 509.035 743.701C506.718 745.797 503.471 747.841 500.209 747.54C497.364 747.277 495.201 745.277 493.499 743.139C492.169 741.467 491.413 740.096 491.132 737.976C491.516 736.922 491.243 737.113 492.377 736.524C498.232 735.017 500.306 732.276 503.615 727.501Z"/>
	<path fill="#F4C7AD" d="M516.045 726.016C515.837 732.887 514.343 738.899 509.035 743.701C506.718 745.797 503.471 747.841 500.209 747.54C497.364 747.277 495.201 745.277 493.499 743.139C492.169 741.467 491.413 740.096 491.132 737.976C491.516 736.922 491.243 737.113 492.377 736.524C493.344 738.382 494.387 740.146 496.139 741.371C497.686 742.452 499.482 742.903 501.353 742.499C508.225 741.016 512.74 731.535 516.045 726.016Z"/>
	<path fill="#F4C7AD" d="M526.315 704.965C529.543 710.315 530.525 716.207 529.069 722.33C528.497 724.736 526.947 728.75 524.686 730.095C523.463 730.823 523.15 730.763 521.875 730.431C520.751 729.295 520.754 727.947 520.554 726.442C525.326 720.722 525.849 712.053 526.315 704.965Z"/>
	<path fill="#FCF4E1" d="M471.962 713.96Q471.612 711.057 471.577 708.134C471.476 698.572 475.274 690.161 483.291 684.687C486.439 682.537 489.909 680.652 492.592 677.92L492.569 677.196Q490.785 676.931 488.993 676.727L488.592 675.999C489.404 673.492 491.321 672.139 493.606 670.993C496.901 669.339 499.586 669.004 503.106 670.324C505.545 671.238 507.718 673.496 508.824 675.814C509.698 677.646 510.576 679.604 509.892 681.592C505.438 683.079 499.74 680.111 492.917 682.843C490.728 683.72 488.709 685.093 487.908 687.41C486.417 691.72 488.733 697.104 490.629 700.962L493.799 704.076C492.5 706.663 490.594 711.786 488.1 713.17C487.547 713.367 486.996 713.569 486.459 713.808C477.869 717.63 482.405 723.281 480.064 729.689L479.321 729.789C478.098 729.315 477.492 729.163 476.799 727.948C473.674 722.465 477.829 710.241 479.408 704.478C476.73 707.527 474.316 710.656 471.962 713.96Z"/>
	<path fill="#F4C7AD" d="M490.629 700.962L493.799 704.076C492.5 706.663 490.594 711.786 488.1 713.17C487.588 709.578 489.635 704.462 490.629 700.962Z"/>
	<path fill="#252933" d="M667.946 72.2845C686.534 70.7156 712.636 74.006 731.239 77.0868C783.113 85.6773 839.627 109.113 871.021 153.25C888.328 177.582 895.327 205.932 890.278 235.403C884.559 268.784 861.607 297.428 834.499 316.627C795.459 344.276 738.587 358.756 691.232 359.499C671.367 359.811 651.447 357.687 631.886 354.379C624.15 353.077 616.552 351.318 608.938 349.439C609.946 357.651 610.623 365.816 612.085 373.977C613.224 380.336 614.983 386.549 616.271 392.874C616.711 395.038 617.422 397.282 616.177 399.152C614.377 400.222 612.499 400.39 610.489 399.784C605.871 398.393 601.091 394.948 597.26 392.101C577.78 377.628 566.191 358.767 555.495 337.5C536.447 326.409 518.467 317.42 501.861 302.481C478.702 281.647 462.884 254.356 461.247 222.827C459.618 191.454 473.668 162.176 494.356 139.285C538.762 90.152 604.375 75.3421 667.946 72.2845Z"/>
	<path fill="#FEFEF5" d="M658.605 82.2847C674.919 81.1477 691.556 82.3011 707.788 84.0098C761.892 89.7053 823.703 108.877 859.008 152.855Q859.81 153.836 860.588 154.836Q861.366 155.836 862.118 156.856Q862.871 157.875 863.598 158.913Q864.325 159.95 865.026 161.005Q865.728 162.061 866.402 163.133Q867.077 164.206 867.725 165.294Q868.373 166.383 868.994 167.488Q869.615 168.592 870.208 169.712Q870.802 170.831 871.367 171.965Q871.932 173.099 872.469 174.247Q873.006 175.395 873.515 176.555Q874.023 177.716 874.503 178.889Q874.982 180.061 875.432 181.246Q875.883 182.43 876.304 183.625Q876.724 184.82 877.115 186.026Q877.506 187.231 877.867 188.445Q878.228 189.66 878.559 190.883Q878.89 192.106 879.19 193.337Q879.491 194.568 879.76 195.806Q880.03 197.044 880.269 198.289Q880.508 199.533 880.716 200.783Q880.924 202.033 881.101 203.287Q881.278 204.542 881.424 205.8Q881.57 207.059 881.684 208.321Q881.799 209.583 881.882 210.847Q881.965 212.112 882.017 213.378Q882.069 214.643 882.09 215.91Q882.11 217.177 882.099 218.444Q882.088 219.711 882.046 220.978Q882.004 222.244 881.93 223.509Q881.856 224.774 881.751 226.037Q881.646 227.299 881.51 228.559C877.878 260.125 856.996 287.06 832.76 306.285C792.615 338.133 736.537 349.115 686.41 348.935C671.269 348.88 656.137 347.541 641.104 345.829C631.799 344.413 622.132 343.425 612.925 341.526C609.238 340.765 606.339 337.607 602.476 337.557C601.361 338.15 600.913 338.342 600.261 339.474C595.9 347.04 602.707 377.636 604.996 386.927C583.604 371.115 572.936 352.649 562.967 328.64C542.881 321.617 523.852 309.998 507.943 295.903C486.69 277.072 471.77 252.539 470.152 223.727C468.48 193.97 481.698 166.947 501.208 145.226C541.115 100.795 601.007 85.4417 658.605 82.2847Z"/>
	<path fill="#252933" d="M815.984 181.6C820.22 181.141 824.704 182.243 828.285 184.531C834.372 188.421 837.505 195.211 839.056 202.024C841.962 214.793 841.216 232.218 833.819 243.468C829.652 249.805 824.781 252.36 817.568 253.806C813.444 253.649 809.828 252.938 806.234 250.795C799.566 246.82 795.961 239.698 794.208 232.388C791.229 219.968 791.905 204.206 798.8 193.123C802.971 186.418 808.465 183.295 815.984 181.6Z"/>
	<path fill="#FEFEF5" d="M815.169 192.992C816.454 192.952 817.743 192.926 819.008 193.193C822.024 193.832 824.605 196.129 826.156 198.727C830.777 206.466 830.218 218.763 828.243 227.248C826.709 233.839 824.088 238.854 818.235 242.521C817.188 242.545 816.184 242.554 815.155 242.329C812.124 241.666 809.63 239.297 808.048 236.72C803.133 228.711 802.958 215.739 805.19 206.858C806.791 200.485 809.541 196.328 815.169 192.992Z"/>
	<path fill="#252933" d="M574.003 182.129C578.848 181.969 583.046 182.329 587.256 185.047C593.38 189.001 596.595 195.805 598.068 202.722C600.784 215.478 600.05 232.564 592.676 243.769C588.853 249.577 583.783 252.579 577.085 253.905C572.354 253.706 568.286 253.242 564.177 250.6C557.489 246.301 554.24 238.769 552.684 231.268C550.119 218.909 550.95 203.627 558.087 192.825C562.022 186.87 567.113 183.58 574.003 182.129Z"/>
	<path fill="#FEFEF5" d="M574.345 192.995C575.57 192.968 576.772 192.974 577.969 193.268C581.078 194.031 583.547 196.249 585.152 198.957C589.835 206.861 589.097 219.793 586.926 228.387C585.262 234.977 582.527 239.534 576.683 243.045C575.956 242.949 575.242 242.824 574.532 242.641C571.027 241.737 568.374 239.256 566.576 236.17C561.806 227.983 561.788 215.08 564.249 206.165C565.966 199.946 568.854 196.144 574.345 192.995Z"/>
	<path fill="#252933" d="M669.946 182.121C674.976 181.865 679.609 182.341 683.924 185.21C689.991 189.245 693.011 196.347 694.478 203.229C697.182 215.919 696.207 232.539 688.877 243.639C685.118 249.33 680.198 252.563 673.548 253.866C669.159 254.005 664.953 253.159 661.175 250.863C654.541 246.834 650.945 239.545 649.244 232.215C646.366 219.816 647.147 204.078 654.152 193.105C657.93 187.186 663.094 183.579 669.946 182.121Z"/>
	<path fill="#FEFEF5" d="M670.264 193.003C671.267 192.963 672.251 192.966 673.251 193.082C676.309 193.439 678.899 195.259 680.703 197.709C685.695 204.49 685.342 216.32 684.065 224.249C682.821 231.972 680.274 237.929 673.78 242.606C672.562 242.611 671.312 242.626 670.12 242.344C667.08 241.624 664.518 239.151 662.943 236.547C658.113 228.562 658.136 215.673 660.358 206.87C661.958 200.536 664.665 196.329 670.264 193.003Z"/>
	<path fill="#252933" d="M754.163 182.602C757.456 182.518 760.763 182.405 764.057 182.519C770.825 182.754 777.818 184.598 782.472 189.843C786.177 194.017 787.569 199.953 787.069 205.426C786.313 213.7 781.249 219.274 775.255 224.412C778.488 231.524 789.01 242.923 787.566 250.878C787.305 252.315 786.764 252.722 785.646 253.576C784.1 253.895 782.914 253.914 781.356 253.584C777.562 252.781 775.739 248.763 773.86 245.747C771.329 241.494 766.517 230.783 762.521 228.353C761.717 227.864 761.72 228.052 760.88 228.25C758.827 231.66 759.785 237.879 759.81 241.76C759.834 245.339 759.98 250.646 756.981 253.18C755.935 254.065 754.356 254.296 753.024 254.084C751.668 253.868 750.852 253.308 750.061 252.188C747.686 248.823 749.608 193.452 751.046 187.016C751.539 184.809 752.275 183.828 754.163 182.602Z"/>
	<path fill="#FEFEF5" d="M760.836 192.973C765.58 192.869 769.786 193.145 773.407 196.614C775.297 198.424 776.464 200.897 776.493 203.529C776.537 207.646 774.164 210.653 771.43 213.443C767.864 215.558 763.919 216.792 759.979 218.001Q759.947 205.471 760.836 192.973Z"/>
	<path fill="#252933" d="M708.323 182.604C717.399 182.709 728.413 181.946 735.384 188.857C739.468 192.905 741.585 198.666 741.437 204.383C741.199 213.555 735.363 219.047 729.283 224.98C732.671 232.146 740.982 242.229 739.867 250.499C739.637 252.21 739.079 253.281 737.729 254.377C736.75 254.666 736.168 254.794 735.139 254.584C731.608 253.865 729.355 250.221 727.744 247.34C723.812 239.686 719.905 232.219 714.153 225.741C713.889 232.026 714.431 238.382 713.98 244.649C713.756 247.763 713.209 251.471 710.582 253.54C709.788 254.165 708.76 254.519 707.758 254.354C706.308 254.114 705.347 253.343 704.54 252.149C703.335 250.368 702.897 248.104 702.751 245.994C702.39 240.75 703.011 235.109 703.132 229.829C703.371 219.459 703.079 195.671 705.341 186.46C705.838 184.434 706.564 183.663 708.323 182.604Z"/>
	<path fill="#FEFEF5" d="M715.027 192.96C719.798 192.891 724.037 193.314 727.628 196.884C729.519 198.765 730.699 201.315 730.642 204.006C730.556 208.042 728.089 210.947 725.279 213.554C721.685 215.54 717.94 216.701 714.048 217.958C715.058 209.764 714.879 201.207 715.027 192.96Z"/>
	<path fill="#252933" d="M527.604 180.607C532.736 180.534 538.642 181.998 542.79 185.052C544.602 186.387 545.895 187.981 546.148 190.281C546.324 191.871 545.48 194.073 544.355 195.191C540.747 198.778 532.045 192.477 527.455 192.382C525.833 192.349 524.261 192.88 523.092 194.029C521.384 195.706 520.538 198.001 520.54 200.365C520.55 210.513 535.33 213.884 541.354 220.082C544.913 223.744 546.246 228.29 546.159 233.324C546.058 239.211 544.306 244.801 539.862 248.867C535.286 253.054 529.336 254.124 523.339 253.812C521.737 253.648 520.164 253.437 518.599 253.053C514.519 252.054 508.364 250.245 506.202 246.387C505.094 244.41 504.807 242.167 505.35 239.991C509.974 234.585 522.399 243.331 528.958 242.299C530.767 242.015 532.411 241.255 533.368 239.611C534.218 238.15 534.316 236.281 534.296 234.631C534.157 223.086 512.336 221.59 508.616 206.557C507.313 201.291 508.667 195.026 511.562 190.473C515.338 184.534 521.037 182.129 527.604 180.607Z"/>
	<path fill="#252933" d="M625.859 182.12C627.187 182.026 628.495 182.043 629.825 182.104C634.405 182.314 638.515 183.826 641.596 187.427C643.085 189.167 644.333 191.879 643.967 194.225C643.71 195.867 642.366 197.716 640.831 198.397C636.901 200.141 632.992 194.272 629.458 193.428C627.637 192.993 625.848 193.346 624.273 194.341C619.883 197.116 617.377 203.478 616.233 208.382C614.064 217.683 614.664 229.236 620.016 237.448C621.297 239.414 623.119 241.398 625.536 241.839C629.521 242.568 632.012 239.495 634.983 237.501C637.328 235.927 639.031 235.785 641.745 236.393C641.925 236.434 642.104 236.478 642.283 236.52C642.958 237.264 643.737 238.062 644.162 238.981C644.898 240.57 644.778 242.85 644.029 244.41C642.277 248.064 637.32 250.694 633.636 251.848C628.224 253.542 622.137 253.406 617.145 250.578C610.555 246.846 606.892 240.214 605.046 233.1C601.902 220.988 602.799 205.046 609.4 194.157C613.245 187.813 618.681 183.89 625.859 182.12Z"/>
	<path fill="#252933" d="M856.662 177.995L857.171 178.02C859.49 178.158 861.173 178.373 862.77 180.199C864.857 185.986 860.619 216.955 859.386 224.092C858.846 227.219 858.153 228.204 855.569 230.043C854.785 230.047 854.007 230.05 853.228 229.947C851.831 229.763 850.43 229.134 849.73 227.827C847.477 223.622 848.551 187.302 850.565 182.432C851.59 179.955 854.38 178.967 856.662 177.995Z"/>
	<path fill="#252933" d="M852.045 237.94C853.276 237.983 854.399 238.142 855.567 238.537Q855.911 238.649 856.24 238.798Q856.57 238.946 856.882 239.129Q857.194 239.312 857.485 239.528Q857.775 239.743 858.041 239.988Q858.307 240.233 858.545 240.506Q858.783 240.778 858.99 241.074Q859.198 241.37 859.373 241.687Q859.547 242.003 859.687 242.337C860.474 244.261 860.261 246.466 859.475 248.354C858.156 251.525 855.947 252.928 852.875 254.161C850.225 253.759 847.719 253.173 846.127 250.806C844.989 249.116 844.868 247.143 845.381 245.215C846.382 241.459 848.806 239.746 852.045 237.94Z"/>
	<path fill="#252933" d="M903.776 379.001C904.775 378.964 906.34 379.045 907.258 379.492C908.265 379.983 908.74 380.49 909.133 381.523C909.736 383.109 909.322 385.203 908.665 386.713C905.272 394.522 893.973 399.536 886.622 402.563C886.32 402.656 886.025 402.774 885.717 402.842C884.113 403.196 882.819 403.14 881.502 402.232C881.171 400.922 881.399 400.002 881.894 398.776C885.657 389.459 894.716 382.6 903.776 379.001Z"/>
	<path fill="#252933" d="M530.73 404.856C532.816 405.111 534.86 405.493 536.771 406.413C543.737 409.769 552.484 420.218 555.001 427.467C555.337 428.435 555.586 428.756 555.117 429.712L553.9 429.539C546.521 427.586 537.713 422.629 532.243 417.282C530.176 415.261 527.927 412.651 528.053 409.566C528.138 407.459 529.225 406.196 530.73 404.856Z"/>
	<path fill="#252933" d="M865.401 358.086C866.429 358.253 867.6 358.475 868.485 359.055C869.566 359.765 870.008 360.965 870.217 362.179C871.353 368.8 860.612 382.779 856.744 387.738C855.571 388.377 855.519 388.416 854.201 388.235C853.857 387.901 853.636 387.739 853.429 387.252C851.359 382.382 854.772 371.66 856.944 367.031C858.794 363.089 861.208 359.638 865.401 358.086Z"/>
	<path fill="#252933" d="M518.772 441.385C526.561 443.032 533.534 445.175 540.216 449.768C541.718 450.8 542.966 451.704 543.279 453.552C542.201 454.821 541.558 454.916 540.02 455.474Q536.975 455.564 533.929 455.604C528.04 455.669 518.491 455.21 514.414 450.408C513.648 449.506 513.207 448.62 513.42 447.414C513.882 444.805 516.692 442.702 518.772 441.385Z"/>
	<path fill="#252933" d="M915.845 412.661C918.532 412.413 922.43 412.629 924.515 414.603C925.585 415.616 925.627 416.272 925.811 417.637C925.46 418.635 925.174 419.371 924.368 420.091C920.845 423.238 915.71 422.58 911.375 422.473C908.055 422.471 904.119 423.114 901.459 420.755C901.269 419.453 901.246 419.256 902.152 418.162C905.1 414.602 911.446 413.289 915.845 412.661Z"/>
	<path fill="#252933" d="M946.215 497.57C948.245 497.367 950.095 497.311 952.11 497.709C953.87 498.057 954.999 498.478 956.034 500.006C956.181 501.287 956.008 501.907 955.266 502.984C952.423 507.118 946.387 507.471 941.91 507.971C938.622 508.103 934.13 508.68 931.392 506.574C931.213 505.644 931.036 505.772 931.464 505.088C933.919 501.165 941.889 498.633 946.215 497.57Z"/>
	<path fill="#252933" d="M936.412 534.987C940.615 534.935 945.264 535.54 949.304 536.726C951.899 537.488 955.697 538.884 956.884 541.602C957.798 543.694 957.165 545.137 956.366 547.096C955.313 547.534 954.153 547.846 953.004 547.845C948.542 547.842 942.404 544.35 939.332 541.361C937.26 539.345 936.498 537.87 936.412 534.987Z"/>
</svg>
