<svg width="11" height="11" viewBox="0 0 11 11" fill="none" xmlns="http://www.w3.org/2000/svg">
<path d="M2.00338 8.8C2.03088 8.8 2.05838 8.79725 2.08588 8.79313L4.39862 8.3875C4.42613 8.382 4.45225 8.36963 4.4715 8.349L10.3001 2.52037C10.3129 2.50765 10.323 2.49254 10.3299 2.47591C10.3368 2.45928 10.3403 2.44145 10.3403 2.42344C10.3403 2.40543 10.3368 2.3876 10.3299 2.37096C10.323 2.35433 10.3129 2.33922 10.3001 2.3265L8.01488 0.039875C7.98875 0.01375 7.95437 0 7.91725 0C7.88012 0 7.84575 0.01375 7.81962 0.039875L1.991 5.8685C1.97037 5.88912 1.958 5.91387 1.9525 5.94137L1.54688 8.25412C1.5335 8.32778 1.53828 8.4036 1.5608 8.47499C1.58332 8.54639 1.6229 8.61122 1.67612 8.66387C1.76687 8.75187 1.881 8.8 2.00338 8.8ZM2.93012 6.402L7.91725 1.41625L8.92512 2.42412L3.938 7.40988L2.71563 7.62575L2.93012 6.402ZM10.56 9.955H0.44C0.196625 9.955 0 10.1516 0 10.395V10.89C0 10.9505 0.0495 11 0.11 11H10.89C10.9505 11 11 10.9505 11 10.89V10.395C11 10.1516 10.8034 9.955 10.56 9.955Z" fill="black"/>
</svg>
