<?xml version="1.0" encoding="utf-8"?>
<svg xmlns="http://www.w3.org/2000/svg" width="500" height="500">
  <path d="M281.706 110.456C278.563 108.747 275.338 107.209 272.443 105.084C263.637 98.6189 258.181 88.5073 256.646 77.7647C254.652 63.8067 258.107 47.8553 266.643 36.5081C272.925 28.1569 282.433 21.7919 292.922 20.392Q293.862 20.2581 294.806 20.1708Q295.751 20.0835 296.699 20.043Q297.648 20.0024 298.597 20.0088Q299.546 20.0151 300.493 20.0683Q301.44 20.1215 302.384 20.2214Q303.328 20.3213 304.266 20.4677Q305.203 20.6141 306.132 20.8067Q307.062 20.9992 307.98 21.2374Q308.899 21.4755 309.805 21.7588Q310.71 22.042 311.601 22.3697Q312.491 22.6973 313.365 23.0685Q314.238 23.4397 315.092 23.8536Q315.946 24.2675 316.779 24.7231Q317.611 25.1787 318.42 25.6748Q319.229 26.1709 320.012 26.7063Q320.796 27.2418 321.552 27.8153C329.919 34.2193 335.232 44.1162 336.601 54.5298C337.015 60.006 337.501 66.1367 336.541 71.5591C334.807 84.0145 327.701 96.6709 317.627 104.262C312.894 107.828 306.386 111.212 300.453 111.992C297.507 112.38 294.461 112.258 291.495 112.256C288.971 115.972 286.561 120.145 283.699 123.579C292.05 125.92 297.988 130.462 303.173 137.233C306.628 135.293 311.241 134.398 315.062 133.358Q317.169 132.768 319.294 132.25Q321.42 131.732 323.562 131.288Q325.704 130.843 327.86 130.472Q330.016 130.101 332.184 129.804Q334.351 129.506 336.527 129.284Q338.704 129.061 340.887 128.913Q343.069 128.765 345.256 128.692Q347.442 128.618 349.63 128.62Q351.818 128.622 354.004 128.698Q356.191 128.775 358.373 128.926Q360.556 129.077 362.732 129.303Q364.908 129.529 367.075 129.829Q369.242 130.13 371.397 130.504Q373.553 130.878 375.694 131.326Q377.836 131.774 379.96 132.295Q382.085 132.816 384.191 133.409C408.602 140.287 428.964 153.936 445.428 173.106Q450.008 178.364 454.037 184.054Q458.065 189.745 461.503 195.811C478.75 226.702 483.772 265.36 474.111 299.522C462.833 339.399 434.413 371.912 398.5 391.903C360.673 412.96 313.982 420.987 271.94 408.969C266.062 407.289 260.585 405.034 254.853 402.99C254.006 403.543 253.56 404.271 252.834 404.926C252.919 404.009 252.763 403.237 252.576 402.346L252.338 402.086C247.31 399.479 242.231 396.973 237.41 393.99C211.764 378.119 199.554 358.038 185.402 332.226C182.506 344.523 178.586 380.807 167.709 387.404C164.645 389.262 160.665 389.522 157.259 388.588C150.782 386.813 146.916 381.146 143.828 375.586C141.543 371.473 139.571 366.919 138.17 362.428C136.411 364.017 135.012 366.041 133.386 367.771C128.618 372.845 123.878 377.954 119.036 382.958C116.473 385.606 113.943 388.411 111.122 390.784C112.445 396.768 112.264 403.186 112.751 409.29C113.066 413.236 113.859 417.249 113.934 421.2C113.945 421.803 113.854 422.502 113.516 423.017C113.14 423.59 112.426 423.864 111.82 424.122C111.988 426.563 112.165 429.026 112.47 431.455C114.146 432.328 115.712 433.209 117.162 434.43C119.049 436.02 120.592 438.003 122.358 439.725C124.89 442.194 129.489 445.483 133.036 445.956C137.187 446.51 141.682 445.889 145.89 446.057C145.822 446.071 145.754 446.087 145.685 446.101C142.457 446.722 133.95 445.632 131.788 446.452C131.945 447.592 132.954 448.583 133.641 449.466C133.965 451.275 135.102 455.06 134.16 456.692C133.457 457.908 131.406 458.305 130.151 458.484C127.132 458.915 123.947 458.811 120.901 458.829C109.777 458.895 104.699 458.051 94.728 453.168C93.0271 452.335 90.8968 451.545 89.3652 450.454C88.5229 449.854 88.7314 448.732 87.8036 448.163C87.9796 448.036 88.2197 447.968 88.3315 447.782C88.9228 446.799 89.3663 442.431 89.7377 440.91C90.4153 438.133 91.6287 435.451 92.0752 432.627C92.4542 430.23 92.4558 427.807 92.7462 425.406C91.3636 425.16 89.9622 424.946 88.5922 424.64C87.3615 420.317 86.9588 415.856 85.6461 411.566C84.992 412.406 84.2106 413.301 83.7893 414.284C81.5554 419.496 82.3274 429.653 83.0185 435.265C83.3422 437.894 83.9581 440.602 84.0508 443.244C84.1042 444.767 83.403 446.928 83.6921 448.288C83.5955 448.369 83.4958 448.446 83.4022 448.53C81.5804 450.166 82.7385 454.182 76.8036 454.25C73.606 454.287 70.405 453.106 67.788 451.313C66.9412 450.733 66.1626 449.994 65.2563 449.518L65.312 449.354C65.1819 448.688 64.8066 448.323 64.424 447.79C62.6985 445.383 60.9982 442.461 59.9136 439.687C57.8331 434.366 56.9166 428.474 55.4057 422.961C54.2379 418.7 52.5101 414.422 51.6413 410.113C51.3118 408.479 51.1237 406.657 51.4507 405.01C52.1501 401.486 65.7554 394.464 69.1744 392.08C68.989 388.162 71.3812 386.34 73.1717 383.209C74.6534 380.618 72.0717 369.097 71.6783 365.585C71.1914 361.238 70.9841 356.881 70.4495 352.529C69.7973 347.219 69.5034 341.949 69.0642 336.625C68.7175 332.423 68.1171 328.242 67.7752 324.04C67.4054 319.497 67.34 314.926 67.0556 310.376C66.71 304.848 65.883 299.35 65.6866 293.805C65.2989 282.862 65.164 271.866 65.0416 260.915C65.0084 257.94 65.8799 254.019 65.1128 251.167C64.0275 250.823 63.0351 250.301 62.0173 249.797C61.2407 241.574 63.081 233.378 63.2146 225.183C63.2449 222.354 63.3895 219.525 63.427 216.695Q62.5911 216.74 61.7541 216.73C55.6259 216.649 47.8395 216.22 43.3617 211.496C37.643 205.463 39.7475 191.874 40.055 184.109L38.3794 182.276C37.9906 180.44 37.9522 178.674 37.9467 176.808C38.2079 170.195 46.0504 151.602 48.9687 145.328C54.9306 132.511 63.5391 124.704 76.7413 119.645C79.7024 118.511 82.7722 117.822 85.7411 116.74C88.2456 115.982 90.3367 115.424 92.2899 113.577C93.0982 107.467 93.0525 101.504 92.9631 95.3561C89.4304 94.8056 86.8478 94.0579 84.6092 91.0209C82.7209 88.4592 81.8079 85.0248 82.2649 81.8578C82.3802 81.059 82.6624 80.2956 82.9257 79.5367C82.9456 79.4794 82.9643 79.4217 82.9836 79.3641C79.4687 75.4589 76.8942 71.1786 77.2104 65.7233C77.3526 63.27 78.2457 60.722 80.1613 59.0806C80.8747 58.4694 81.7151 57.9654 82.5036 57.4567C83.5116 54.4622 85.0269 50.4451 88.0554 48.9593C90.6557 47.6837 93.8028 47.9167 96.3994 46.5531C97.6418 45.9007 98.7205 44.6503 99.7264 43.6775C103.004 40.5084 106.883 38.3133 111.561 39.5955C111.667 39.6245 111.774 39.6465 111.88 39.6772C112.999 40.0032 113.812 41.04 114.588 41.8618C117.884 40.4873 120.852 37.6796 124.7 39.3934C125.67 39.8256 126.246 40.5286 126.61 41.5171C126.943 42.4208 127.041 43.4509 127.061 44.409C130.488 45.727 131.99 44.5682 135.287 47.4128C136.359 50.2719 136.78 53.6166 135.45 56.4757C134.401 58.7282 132.27 60.3081 130.203 61.5743C132.327 68.1761 134.618 87.1558 133.49 94.1122C133.079 96.6466 131.979 99.0498 130.81 101.314C130.425 102.06 130.063 102.893 129.522 103.539C128.462 104.804 126.291 106.054 125.642 107.43C127.245 108.798 129.493 109.37 131.089 110.82Q133.71 113.249 136.081 115.923C136.894 116.852 138.521 119.358 139.4 119.959C139.56 120.069 139.759 120.106 139.939 120.18C155.369 115.796 172.437 120.723 186.77 126.643C191.067 128.419 195.191 130.873 199.727 131.998C211.602 132.872 217.805 132.636 229.082 128.394C233.215 126.839 237.718 124.804 242.152 124.469C244.474 124.36 246.818 123.131 249.1 122.603C257.013 120.772 265.705 119.25 273.832 120.372C275.636 120.137 279.994 112.195 281.706 110.456ZM110.598 300.094C110.074 311.795 109.562 323.438 109.531 335.152L110.279 334.444C112.522 331.393 115.56 329.148 117.162 325.628C115.859 315.608 113.178 305.776 110.759 295.974C110.533 297.389 110.537 298.671 110.598 300.094Z" style="fill: rgb(43, 127, 255);"/>
  <path d="M281.706 110.456C278.563 108.747 275.338 107.209 272.443 105.084C263.637 98.6189 258.181 88.5073 256.646 77.7647C254.652 63.8067 258.107 47.8553 266.643 36.5081C272.925 28.1569 282.433 21.7919 292.922 20.392Q293.862 20.2581 294.806 20.1708Q295.751 20.0835 296.699 20.043Q297.648 20.0024 298.597 20.0088Q299.546 20.0151 300.493 20.0683Q301.44 20.1215 302.384 20.2214Q303.328 20.3213 304.266 20.4677Q305.203 20.6141 306.132 20.8067Q307.062 20.9992 307.98 21.2374Q308.899 21.4755 309.805 21.7588Q310.71 22.042 311.601 22.3697Q312.491 22.6973 313.365 23.0685Q314.238 23.4397 315.092 23.8536Q315.946 24.2675 316.779 24.7231Q317.611 25.1787 318.42 25.6748Q319.229 26.1709 320.012 26.7063Q320.796 27.2418 321.552 27.8153C329.919 34.2193 335.232 44.1162 336.601 54.5298C337.015 60.006 337.501 66.1367 336.541 71.5591C334.807 84.0145 327.701 96.6709 317.627 104.262C312.894 107.828 306.386 111.212 300.453 111.992C297.507 112.38 294.461 112.258 291.495 112.256C288.971 115.972 286.561 120.145 283.699 123.579L270.538 142.722C268.064 146.271 264.939 149.988 262.926 153.799C261.515 156.47 263.955 159.358 260.295 164.667C249.601 180.179 238.466 195.439 227.523 210.779L192.591 259.983C180.749 276.488 168.437 292.855 157.284 309.827C157.356 328.204 158.02 337.114 146.23 352.782C143.736 356.097 140.44 359.012 138.17 362.428C136.411 364.017 135.012 366.041 133.386 367.771C128.618 372.845 123.878 377.954 119.036 382.958C116.473 385.606 113.943 388.411 111.122 390.784C112.445 396.768 112.264 403.186 112.751 409.29C113.066 413.236 113.859 417.249 113.934 421.2C113.945 421.803 113.854 422.502 113.516 423.017C113.14 423.59 112.426 423.864 111.82 424.122C111.988 426.563 112.165 429.026 112.47 431.455C114.146 432.328 115.712 433.209 117.162 434.43C119.049 436.02 120.592 438.003 122.358 439.725C124.89 442.194 129.489 445.483 133.036 445.956C137.187 446.51 141.682 445.889 145.89 446.057C145.822 446.071 145.754 446.087 145.685 446.101C142.457 446.722 133.95 445.632 131.788 446.452C131.945 447.592 132.954 448.583 133.641 449.466C133.965 451.275 135.102 455.06 134.16 456.692C133.457 457.908 131.406 458.305 130.151 458.484C127.132 458.915 123.947 458.811 120.901 458.829C109.777 458.895 104.699 458.051 94.728 453.168C93.0271 452.335 90.8968 451.545 89.3652 450.454C88.5229 449.854 88.7314 448.732 87.8036 448.163C87.9796 448.036 88.2197 447.968 88.3315 447.782C88.9228 446.799 89.3663 442.431 89.7377 440.91C90.4153 438.133 91.6287 435.451 92.0752 432.627C92.4542 430.23 92.4558 427.807 92.7462 425.406C91.3636 425.16 89.9622 424.946 88.5922 424.64C87.3615 420.317 86.9588 415.856 85.6461 411.566C84.992 412.406 84.2106 413.301 83.7893 414.284C81.5554 419.496 82.3274 429.653 83.0185 435.265C83.3422 437.894 83.9581 440.602 84.0508 443.244C84.1042 444.767 83.403 446.928 83.6921 448.288C83.5955 448.369 83.4958 448.446 83.4022 448.53C81.5804 450.166 82.7385 454.182 76.8036 454.25C73.606 454.287 70.405 453.106 67.788 451.313C66.9412 450.733 66.1626 449.994 65.2563 449.518L65.312 449.354C65.1819 448.688 64.8066 448.323 64.424 447.79C62.6985 445.383 60.9982 442.461 59.9136 439.687C57.8331 434.366 56.9166 428.474 55.4057 422.961C54.2379 418.7 52.5101 414.422 51.6413 410.113C51.3118 408.479 51.1237 406.657 51.4507 405.01C52.1501 401.486 65.7554 394.464 69.1744 392.08C68.989 388.162 71.3812 386.34 73.1717 383.209C74.6534 380.618 72.0717 369.097 71.6783 365.585C71.1914 361.238 70.9841 356.881 70.4495 352.529C69.7973 347.219 69.5034 341.949 69.0642 336.625C68.7175 332.423 68.1171 328.242 67.7752 324.04C67.4054 319.497 67.34 314.926 67.0556 310.376C66.71 304.848 65.883 299.35 65.6866 293.805C65.2989 282.862 65.164 271.866 65.0416 260.915C65.0084 257.94 65.8799 254.019 65.1128 251.167C64.0275 250.823 63.0351 250.301 62.0173 249.797C61.2407 241.574 63.081 233.378 63.2146 225.183C63.2449 222.354 63.3895 219.525 63.427 216.695Q62.5911 216.74 61.7541 216.73C55.6259 216.649 47.8395 216.22 43.3617 211.496C37.643 205.463 39.7475 191.874 40.055 184.109L38.3794 182.276C37.9906 180.44 37.9522 178.674 37.9467 176.808C38.2079 170.195 46.0504 151.602 48.9687 145.328C54.9306 132.511 63.5391 124.704 76.7413 119.645C79.7024 118.511 82.7722 117.822 85.7411 116.74C88.2456 115.982 90.3367 115.424 92.2899 113.577C93.0982 107.467 93.0525 101.504 92.9631 95.3561C89.4304 94.8056 86.8478 94.0579 84.6092 91.0209C82.7209 88.4592 81.8079 85.0248 82.2649 81.8578C82.3802 81.059 82.6624 80.2956 82.9257 79.5367C82.9456 79.4794 82.9643 79.4217 82.9836 79.3641C79.4687 75.4589 76.8942 71.1786 77.2104 65.7233C77.3526 63.27 78.2457 60.722 80.1613 59.0806C80.8747 58.4694 81.7151 57.9654 82.5036 57.4567C83.5116 54.4622 85.0269 50.4451 88.0554 48.9593C90.6557 47.6837 93.8028 47.9167 96.3994 46.5531C97.6418 45.9007 98.7205 44.6503 99.7264 43.6775C103.004 40.5084 106.883 38.3133 111.561 39.5955C111.667 39.6245 111.774 39.6465 111.88 39.6772C112.999 40.0032 113.812 41.04 114.588 41.8618C117.884 40.4873 120.852 37.6796 124.7 39.3934C125.67 39.8256 126.246 40.5286 126.61 41.5171C126.943 42.4208 127.041 43.4509 127.061 44.409C130.488 45.727 131.99 44.5682 135.287 47.4128C136.359 50.2719 136.78 53.6166 135.45 56.4757C134.401 58.7282 132.27 60.3081 130.203 61.5743C132.327 68.1761 134.618 87.1558 133.49 94.1122C133.079 96.6466 131.979 99.0498 130.81 101.314C130.425 102.06 130.063 102.893 129.522 103.539C128.462 104.804 126.291 106.054 125.642 107.43C127.245 108.798 129.493 109.37 131.089 110.82Q133.71 113.249 136.081 115.923C136.894 116.852 138.521 119.358 139.4 119.959C139.56 120.069 139.759 120.106 139.939 120.18C155.369 115.796 172.437 120.723 186.77 126.643C191.067 128.419 195.191 130.873 199.727 131.998C211.602 132.872 217.805 132.636 229.082 128.394C233.215 126.839 237.718 124.804 242.152 124.469C244.474 124.36 246.818 123.131 249.1 122.603C257.013 120.772 265.705 119.25 273.832 120.372C275.636 120.137 279.994 112.195 281.706 110.456ZM110.598 300.094C110.074 311.795 109.562 323.438 109.531 335.152L110.279 334.444C112.522 331.393 115.56 329.148 117.162 325.628C115.859 315.608 113.178 305.776 110.759 295.974C110.533 297.389 110.537 298.671 110.598 300.094Z" style="fill: rgb(30, 26, 77);"/>
  <path d="M82.5036 57.4567C83.5116 54.4622 85.0269 50.4451 88.0554 48.9593C90.6557 47.6837 93.8028 47.9167 96.3994 46.5531C97.6418 45.9007 98.7205 44.6503 99.7264 43.6775C103.004 40.5084 106.883 38.3133 111.561 39.5955C111.667 39.6245 111.774 39.6465 111.88 39.6772C112.999 40.0032 113.812 41.04 114.588 41.8618C117.884 40.4873 120.852 37.6796 124.7 39.3934C125.67 39.8256 126.246 40.5286 126.61 41.5171C126.943 42.4208 127.041 43.4509 127.061 44.409C130.488 45.727 131.99 44.5682 135.287 47.4128C136.359 50.2719 136.78 53.6166 135.45 56.4757C134.401 58.7282 132.27 60.3081 130.203 61.5743C132.327 68.1761 134.618 87.1558 133.49 94.1122C133.079 96.6466 131.979 99.0498 130.81 101.314C130.425 102.06 130.063 102.893 129.522 103.539C128.462 104.804 126.291 106.054 125.642 107.43C127.245 108.798 129.493 109.37 131.089 110.82Q133.71 113.249 136.081 115.923C136.894 116.852 138.521 119.358 139.4 119.959C139.56 120.069 139.759 120.106 139.939 120.18L139.538 120.396C139.57 121.122 139.893 121.671 140.211 122.305C140.275 122.351 140.338 122.398 140.403 122.443C142.337 123.793 144.621 124.705 146.673 125.878C153.211 129.617 158.28 134.54 160.882 141.751C163.003 141.773 165.067 141.824 167.174 142.106C167.803 142.777 168.445 143.438 169.043 144.136L169.349 144.19C173.282 144.84 181.013 144.167 184.143 146.214C185.136 147.811 184.783 150.113 184.365 151.873C183.422 155.84 181.779 159.787 180.444 163.646C178.54 169.155 176.783 174.701 174.618 180.116C178.094 185.038 179.896 192.84 178.773 198.797C178.136 202.175 175.895 205.145 173.038 207.013C170.603 208.605 167.959 209.06 165.11 209.029C163.594 212.857 163.033 216.502 159.881 219.377C157.372 219.955 155.012 219.967 152.447 219.872L151.632 219.998C150.812 221.449 152.974 235.583 153.227 238.491C153.524 241.9 153.732 245.375 153.775 248.795C152.662 249.232 151.089 249.481 150.102 250.094C142.052 252.43 131.109 254.259 122.711 254.688C117.032 254.978 111.315 254.823 105.63 254.808C100.809 254.795 95.9497 254.944 91.1375 254.606C87.8773 254.376 84.6374 253.863 81.3913 253.493C78.3792 253.149 75.3111 252.932 72.3198 252.448C70.4885 252.152 66.6581 250.745 65.1128 251.167C64.0275 250.823 63.0351 250.301 62.0173 249.797C61.2407 241.574 63.081 233.378 63.2146 225.183C63.2449 222.354 63.3895 219.525 63.427 216.695Q62.5911 216.74 61.7541 216.73C55.6259 216.649 47.8395 216.22 43.3617 211.496C37.643 205.463 39.7475 191.874 40.055 184.109L38.3794 182.276C37.9906 180.44 37.9522 178.674 37.9467 176.808C38.2079 170.195 46.0504 151.602 48.9687 145.328C54.9306 132.511 63.5391 124.704 76.7413 119.645C79.7024 118.511 82.7722 117.822 85.7411 116.74C88.2456 115.982 90.3367 115.424 92.2899 113.577C93.0982 107.467 93.0525 101.504 92.9631 95.3561C89.4304 94.8056 86.8478 94.0579 84.6092 91.0209C82.7209 88.4592 81.8079 85.0248 82.2649 81.8578C82.3802 81.059 82.6624 80.2956 82.9257 79.5367C82.9456 79.4794 82.9643 79.4217 82.9836 79.3641C79.4687 75.4589 76.8942 71.1786 77.2104 65.7233C77.3526 63.27 78.2457 60.722 80.1613 59.0806C80.8747 58.4694 81.7151 57.9654 82.5036 57.4567Z" style="fill: rgb(0, 0, 3);"/>
  <path d="M37.9467 176.808C38.2079 170.195 46.0504 151.602 48.9687 145.328C54.9306 132.511 63.5391 124.704 76.7413 119.645C79.7024 118.511 82.7722 117.822 85.7411 116.74C85.8331 116.836 85.9266 116.931 86.0169 117.029C86.4778 117.528 86.5963 118.16 87.0237 118.693C88.3926 120.402 89.9235 122.066 91.4974 123.589C94.2505 126.252 108.345 136.939 111.639 137.145C112.834 137.219 113.711 136.275 114.575 135.573C117.104 136.605 119.436 137.392 122.146 137.758C122.913 141.04 123.915 145.239 126.038 147.954C126.811 148.943 131.468 152.343 131.581 152.652C131.809 153.275 125.255 173.377 124.245 175.002C124.069 175.283 123.884 175.545 123.687 175.812C121.594 176.426 119.228 176.487 117.237 177.281C113.145 178.915 109.775 182.496 105.825 184.55C100.127 187.513 82.0014 188.173 75.2174 188.046L75.2404 187.629C75.4198 184.708 76.1546 181.853 76.6092 178.967C78.1723 169.042 81.7647 148.398 76.1151 139.903L75.7428 139.943C75.2444 141.381 77.0931 146.455 77.3447 148.385C77.5355 149.849 77.4454 151.379 77.3824 152.851C76.9672 162.536 74.0359 174.03 71.1967 183.344C64.0269 177.356 54.5816 175.907 45.5363 176.256C43.0005 176.353 40.4786 176.696 37.9467 176.808Z" style="fill: rgb(30, 26, 77);"/>
  <path d="M63.2146 225.183C71.8743 224.402 80.2153 220.403 88.4795 217.905C93.9155 216.262 99.003 215.555 104.646 215.029C106.482 214.858 109.355 214.223 111.11 214.712C111.976 214.953 112.154 215.97 112.568 216.702C113.296 217.989 114.631 218.628 116.02 218.952C119.498 219.764 123.74 219.426 127.308 219.487C133.632 219.594 139.945 219.747 146.271 219.764C148.056 219.769 150.803 219.378 152.447 219.872L151.632 219.998C150.812 221.449 152.974 235.583 153.227 238.491C153.524 241.9 153.732 245.375 153.775 248.795C152.662 249.232 151.089 249.481 150.102 250.094C142.052 252.43 131.109 254.259 122.711 254.688C117.032 254.978 111.315 254.823 105.63 254.808C100.809 254.795 95.9497 254.944 91.1375 254.606C87.8773 254.376 84.6374 253.863 81.3913 253.493C78.3792 253.149 75.3111 252.932 72.3198 252.448C70.4885 252.152 66.6581 250.745 65.1128 251.167C64.0275 250.823 63.0351 250.301 62.0173 249.797C61.2407 241.574 63.081 233.378 63.2146 225.183Z" style="fill: rgb(30, 26, 77);"/>
  <path d="M140.211 122.305C140.275 122.351 140.338 122.398 140.403 122.443C142.337 123.793 144.621 124.705 146.673 125.878C153.211 129.617 158.28 134.54 160.882 141.751C155.331 141.964 149.886 142.031 144.338 141.696C142.944 135.207 140.951 128.955 140.211 122.305Z" style="fill: rgb(30, 26, 77);"/>
  <path d="M138.376 144.03C140.898 143.924 149.708 143.786 151.588 145.172C151.834 146.957 150.382 149.495 149.686 151.093C152.456 151.715 163.92 153.669 165.919 152.689C167.306 152.008 168.385 148.706 168.997 147.298C172.248 147.222 179.614 146.709 182.401 148.208C182.541 148.471 182.598 148.666 182.574 148.967C182.265 152.753 179.258 158.821 177.905 162.557Q175.004 170.774 172.198 179.025C169.932 185.669 167.658 192.322 165.497 199.001C164.008 203.604 162.747 208.322 160.944 212.813C160.276 214.476 159.671 215.628 158.296 216.824C155.345 217.688 152.34 217.451 149.312 217.317C142.698 217.238 136.087 216.863 129.478 216.593C124.604 216.394 119.44 216.481 114.629 215.63C115.08 213.608 115.9 211.664 116.627 209.727C118.952 208.826 121.332 208.49 123.751 207.973C128.697 206.917 133.937 205.023 137.541 201.35Q137.806 199.951 138.123 198.562C139.783 197.744 141.179 196.656 142.631 195.525C142.944 194.207 142.98 192.885 143.05 191.538C144.142 190.471 145.127 189.656 145.245 188.033C145.435 185.408 144.714 181.156 142.828 179.219C140.008 176.325 131.26 176.44 127.24 176.281C128.828 169.459 131.457 162.711 133.623 156.045C134.716 152.683 135.473 148.935 136.936 145.729C137.27 144.997 137.762 144.531 138.376 144.03Z" style="fill: rgb(28, 57, 142);"/>
  <path fill="#F8F2E9" d="M120.854 178.785C126.52 178.44 133.524 178.209 138.963 179.874C140.386 180.309 141.517 180.739 142.203 182.135C142.53 182.801 142.627 183.325 142.364 184.016C139.385 185.513 128.96 182.896 125.078 183.914C124.419 184.087 124.201 184.234 123.887 184.824C124.781 186.485 140.153 185.043 142.418 186.893C142.872 187.264 143.037 187.589 142.975 188.184C142.894 188.965 141.988 189.676 141.456 190.193C138.079 190.636 125.622 190.076 123.681 191.475L123.707 191.921C126.525 193.993 138.175 190.831 140.404 193.059C140.685 193.34 140.581 193.563 140.578 193.929C138.468 197.951 127.163 195.824 123.209 197.777L123.133 198.185C124.841 199.859 131.134 198.328 133.527 198.358C134.507 198.371 135.021 198.493 135.706 199.207L135.577 199.796C131.286 204.974 118.357 207.016 111.78 206.979C109.374 206.965 106.882 206.116 104.49 206.417C98.5013 207.17 90.92 209.24 84.9404 210.646C77.4547 212.911 66.5071 213.98 58.7018 213.772C54.2522 213.653 48.7252 212.61 45.591 209.165C39.5963 202.576 43.7924 188.408 44.0317 180.301L44.0414 179.912C49.3877 178.187 55.1807 179.582 60.4078 181.211C62.6616 181.914 68.3077 183.709 69.1797 186.164C69.4352 186.884 69.3371 187.027 69.0382 187.678C67.1325 189.145 61.4458 188.871 58.8008 189.46C57.6261 189.722 55.9647 190.425 55.3024 191.455C55.4267 191.851 55.314 191.754 55.6906 191.933C56.2688 192.206 57.0295 192.166 57.6525 192.145C64.5078 191.911 71.4167 191.302 78.2766 190.93C83.9252 190.624 89.6263 190.601 95.2535 190.038C98.2112 189.742 101.627 189.346 104.423 188.295C110.231 186.113 114.537 180.646 120.562 178.868C120.659 178.839 120.757 178.813 120.854 178.785Z"/>
  <path fill="#F8F2E9" d="M103.64 62.49C107.039 64.393 111.84 63.8219 115.265 62.1927C116.256 61.7211 118.613 60.0867 119.668 60.179C119.954 60.204 120.664 60.6263 120.944 60.7656C123.493 62.0316 125.231 62.6097 128.099 62.3153L129.63 67.665C129.679 68.2528 129.76 68.8536 129.75 69.443C129.733 71.9529 130.308 74.6328 130.653 77.1204C131.71 84.7199 132.706 94.0068 128.253 100.79C124.113 107.095 116.754 107.686 110.244 105.108C108.571 104.445 105.521 102.097 103.846 102.464C103.669 103.017 103.68 103.031 103.924 103.535C105.624 107.05 110.923 109.058 114.33 110.358C114.183 111.986 113.941 114.276 115.156 115.61C115.887 116.412 116.576 116.395 117.594 116.453L117.929 116.47L118.195 116.872C117.931 118.272 116.953 119.531 116.242 120.761C116.502 121.342 116.954 122.144 116.952 122.786C116.947 124.424 115.93 126.644 115.962 129.301C114.557 130.894 113.504 132.7 111.998 134.234C105.686 131.296 95.0041 122.941 90.7131 117.492C92.1773 116.761 93.3786 115.959 94.5735 114.847C95.3847 107.289 95.3611 99.9825 94.8073 92.4081C93.5203 92.5637 92.0734 92.848 90.7855 92.6323C88.8739 92.3122 87.4686 90.952 86.4383 89.3807C84.9616 87.1284 83.9258 83.7933 84.5804 81.136C84.7798 80.3264 85.1738 79.3418 85.9934 78.9903C88.1597 78.0611 91.7836 81.2275 93.9588 81.7113C94.6536 81.8659 95.4202 81.8594 95.989 81.373C98.334 79.368 97.5112 70.6709 97.4749 67.8845C98.0163 67.8294 98.5818 67.782 99.1093 67.6442C101.302 67.0713 102.681 64.3452 103.64 62.49Z"/>
  <path d="M123.955 67.3146C125.927 67.1334 127.692 67.343 129.63 67.665C129.679 68.2528 129.76 68.8536 129.75 69.443C129.372 69.4682 129 69.5054 128.623 69.5394C126.769 69.7062 121.783 71.649 120.506 71.1093L120.495 70.6055C121.455 69.1663 122.538 68.2598 123.955 67.3146Z" style=""/>
  <path d="M120.421 79.9666C119.517 78.4872 118.466 76.9948 118.701 75.1745C118.813 74.3061 119.098 73.7636 119.802 73.2509C120.488 73.9047 120.214 76.1476 120.613 77.1818C120.67 77.3294 120.734 77.4743 120.795 77.6206C122.18 79.5275 125.176 82.8179 124.887 85.2996C124.805 85.9995 124.439 86.501 123.894 86.9321C123.105 87.556 121.332 88.0339 120.34 87.8555C119.652 87.7315 119.158 87.4887 118.608 87.0719L118.578 86.6563C120.238 85.6987 122.388 87.4514 123.516 85.0191C123.302 82.9799 121.34 81.6793 120.421 79.9666Z" style=""/>
  <path d="M108.759 69.062Q109.611 69.0109 110.464 69.0022C111.747 68.9989 113.581 69.1558 114.537 70.0957L114.541 70.6772C113.697 71.5625 109.767 71.7609 108.336 72.4487C108.25 72.4902 108.164 72.5341 108.079 72.5768C106.992 73.0217 105.416 73.8905 104.24 73.5461C103.837 73.4281 103.881 73.2831 103.719 72.9383C103.795 72.5559 103.883 72.2351 104.102 71.9057C105.224 70.219 106.807 69.3826 108.759 69.062Z" style=""/>
  <path d="M114.959 93.9088C115.473 93.9431 115.291 93.9137 115.735 93.9996C117.951 94.4285 119.999 94.4817 122.25 94.4965L122.252 94.4713L122.596 94.571L122.829 94.4152L123.012 94.5212C123.109 95.202 122.899 95.6611 122.698 96.3036C121.107 96.8457 119.092 97.0392 117.489 96.4467C116.044 95.9126 115.62 95.2661 114.959 93.9088Z" style=""/>
  <path d="M110.369 74.9247C111.401 74.9695 111.745 75.0338 112.493 75.7473C112.998 77.006 112.646 77.9216 112.175 79.1421C112.014 79.1717 111.854 79.2146 111.691 79.2311C110.95 79.3059 110.86 79.2098 110.327 78.7526C109.743 77.4674 110.048 76.2468 110.369 74.9247Z" style=""/>
  <path d="M124.446 73.1075C124.833 73.1591 125.21 73.2544 125.591 73.3391C125.936 73.6536 126.255 73.9227 126.426 74.3749C126.79 75.3405 126.525 76.3666 126.172 77.2848C125.21 77.2665 124.792 77.2469 124.078 76.5956C123.553 75.4089 124.018 74.2532 124.446 73.1075Z" style=""/>
  <path fill="#F8F2E9" d="M121.187 108.924C122.845 109.406 124.692 109.827 126.244 110.58C130.18 112.491 134.547 116.785 136.618 120.622C138.615 124.32 139.002 129.171 139.985 133.24C140.674 136.094 141.615 138.893 142.413 141.718C140.146 141.489 137.495 141.167 135.638 142.791C133.609 144.564 133.455 147.928 132.621 150.336C128.839 148.231 126.601 145.364 125.441 141.219C124.943 139.443 124.679 137.611 124.42 135.788C121.257 135.735 118.942 135.903 116.633 133.439C116.539 133.339 116.448 133.237 116.355 133.136C117.578 131.709 118.589 130.433 120.601 130.253C121.525 130.17 122.474 130.189 123.401 130.194C122.605 130.019 121.836 129.936 121.33 129.229C122.273 128.71 124.211 128.918 125.29 128.928C125.13 128.897 124.969 128.865 124.808 128.837C123.053 128.532 119.481 129.127 118.292 127.574C118.041 127.247 118.081 126.805 118.035 126.409C118.265 125.723 118.515 125.325 119.156 124.974C121.752 123.554 128.16 125.37 129.437 124.243C126.913 121.929 120.491 123.25 119.278 120.996C119.28 120.396 119.334 120.073 119.742 119.603C120.423 118.82 121.576 118.276 122.61 118.256C126.054 118.188 129.52 118.821 132.954 118.262C132.846 118.211 132.739 118.159 132.63 118.11C129.206 116.539 117.635 116.211 116.231 112.77C116.094 112.436 116.124 112.095 116.278 111.765C116.985 110.254 119.701 109.431 121.187 108.924Z"/>
  <path fill="#192F67" d="M123.401 130.194C122.605 130.019 121.836 129.936 121.33 129.229C122.273 128.71 124.211 128.918 125.29 128.928C126.346 129.116 127.376 129.362 128.415 129.626L128.677 130.128C128.435 130.539 128.587 130.452 128.149 130.574C126.877 130.929 124.723 130.383 123.401 130.194Z"/>
  <path fill="#F8F2E9" d="M173.464 183.379C173.955 183.734 174.159 184.277 174.356 184.831C176.078 189.666 177.855 195.436 175.465 200.356C174.115 203.138 171.846 205.114 168.966 206.161L165.98 206.451C167.314 201.653 169.006 196.909 170.647 192.207C171.665 189.293 172.812 186.402 173.464 183.379Z"/>
  <path d="M139.939 120.18C155.369 115.796 172.437 120.723 186.77 126.643C191.067 128.419 195.191 130.873 199.727 131.998C211.602 132.872 217.805 132.636 229.082 128.394C233.215 126.839 237.718 124.804 242.152 124.469C244.474 124.36 246.818 123.131 249.1 122.603C257.013 120.772 265.705 119.25 273.832 120.372L274.247 120.648C274.014 121.392 257.531 145.342 255.972 147.235C254.18 149.41 251.764 150.642 249.831 152.606C247.113 155.369 244.895 159.355 242.696 162.547L187.816 240.784L165.326 272.455C161.946 277.216 158.76 282.255 155.228 286.891C153.531 279.602 152.53 271.877 151.758 264.434C151.264 259.674 150.987 254.799 150.102 250.094C151.089 249.481 152.662 249.232 153.775 248.795C153.732 245.375 153.524 241.9 153.227 238.491C152.974 235.583 150.812 221.449 151.632 219.998L152.447 219.872C155.012 219.967 157.372 219.955 159.881 219.377C163.033 216.502 163.594 212.857 165.11 209.029C167.959 209.06 170.603 208.605 173.038 207.013C175.895 205.145 178.136 202.175 178.773 198.797C179.896 192.84 178.094 185.038 174.618 180.116C176.783 174.701 178.54 169.155 180.444 163.646C181.779 159.787 183.422 155.84 184.365 151.873C184.783 150.113 185.136 147.811 184.143 146.214C181.013 144.167 173.282 144.84 169.349 144.19L169.043 144.136C168.445 143.438 167.803 142.777 167.174 142.106C165.067 141.824 163.003 141.773 160.882 141.751C158.28 134.54 153.211 129.617 146.673 125.878C144.621 124.705 142.337 123.793 140.403 122.443C140.338 122.398 140.275 122.351 140.211 122.305C139.893 121.671 139.57 121.122 139.538 120.396L139.939 120.18Z" fill="#F8F2E9"/>
  <path fill="#1D3F79" d="M199.727 131.998C211.602 132.872 217.805 132.636 229.082 128.394C233.215 126.839 237.718 124.804 242.152 124.469C235.093 128.643 222.182 135.079 214.102 135.408C211.101 135.53 208.034 134.815 205.149 134.068C203.246 133.574 201.425 133.011 199.727 131.998Z"/>
  <path fill="#F8F2E9" d="M295.013 23.0817Q295.69 22.9947 296.372 22.9535C303.353 22.495 310.553 25.3029 315.756 29.8713C323.947 37.0632 327.367 47.3882 328.006 58.0026C328.824 71.5746 323.523 85.7188 314.465 95.748C308.289 102.588 300.922 106.621 291.688 107.07C285.498 107.742 278.761 105.327 273.749 101.801C265.575 96.0497 261.063 86.373 259.427 76.7381C257.312 64.2854 260.98 50.2814 268.283 40.1006C274.835 30.9676 283.934 24.9528 295.013 23.0817Z"/>
  <path d="M309.335 41.6665L309.685 42.0307C309.65 44.9717 279.405 81.0537 274.933 85.9223C274.747 85.7341 274.528 85.6316 274.543 85.3422C274.623 83.868 277.865 80.3704 278.835 79.0386C285.351 70.0909 291.862 61.2884 299.022 52.8409C302.274 49.0051 305.621 45.0607 309.335 41.6665Z" style="fill: rgb(28, 57, 142);"/>
  <path d="M288.838 30.0601L289.251 30.1598C289.32 30.6884 289.144 30.6852 288.755 31.003C287.54 31.9946 286.073 32.7268 284.798 33.6558C282.516 35.3195 280.372 37.2693 278.303 39.1916Q276.698 40.7069 275.246 42.3686Q273.794 44.0304 272.507 45.8234Q271.22 47.6165 270.11 49.5244Q269.001 51.4323 268.079 53.4375C266.844 56.057 265.861 58.7605 264.504 61.3279L264.16 61.3788C263.485 56.0489 267.984 47.4767 271.073 43.3389C275.064 37.9927 281.889 31.0367 288.838 30.0601Z" style="fill: rgb(28, 57, 142);"/>
  <path fill="#F8F2E9" d="M64.8244 398.021L65.0457 398.008L65.2806 398.351C65.1955 399.524 65.2149 400.695 65.2516 401.87C65.3715 405.715 66.2556 410.434 69.2622 413.129C72.1623 415.728 76.0107 415.172 79.5758 414.967C79.3044 416.13 79.1746 417.346 78.9953 418.527C77.7137 418.622 76.3484 418.639 75.091 418.87C73.8926 419.091 72.4616 419.569 71.7266 420.591L71.8326 421.089C73.609 422.331 76.9541 421.463 78.9299 421.152C78.9089 422.325 78.9449 423.503 78.9586 424.676C77.2954 424.65 74.4197 424.485 73.1901 425.837C72.6879 426.389 72.7249 426.583 72.7467 427.279C73.1725 427.787 73.3221 427.968 73.9727 428.187C75.5958 428.733 77.5408 427.794 78.9927 427.091C78.9419 433.353 80.7993 439.234 81.249 445.45C81.2698 446.655 81.3036 448.259 80.9023 449.408C80.5918 450.298 79.9713 451.116 79.1071 451.521C77.9519 452.062 76.5491 451.749 75.4266 451.281C73.539 450.496 71.7839 449.196 70.2386 447.875C62.4636 441.229 61.5936 431.701 59.3284 422.398C58.4893 418.952 57.2402 415.601 56.305 412.179C55.6803 409.892 55.284 407.471 54.3514 405.287C54.3122 405.196 54.2702 405.105 54.2296 405.014C57.2761 402.097 61.1237 399.99 64.8244 398.021Z"/>
  <path fill="#F8F2E9" d="M109.933 434.306C112.442 434.163 113.65 434.907 115.453 436.51C112.668 437.241 108.691 438.568 106.784 440.821L107.091 441.233L107.08 441.251C110.838 441.374 113.925 438.737 117.555 438.747C118.063 439.016 118.105 439.082 118.393 439.583C117.421 441.118 113.084 441.126 111.853 443.147C111.517 443.698 111.645 443.986 111.784 444.561C113.568 445.522 118.868 442.571 120.848 441.988C121.967 443.121 123.216 443.883 124.557 444.715C129.345 447.686 131.188 449.351 133.242 454.815C128.602 456.782 116.13 456.522 110.933 455.764C107.462 455.258 103.842 454.269 100.483 453.252C97.2896 452.285 94.1291 450.515 90.8792 449.894C90.7985 449.879 90.7173 449.866 90.6363 449.852C90.9601 445.839 92.287 442.121 92.91 438.173C98.7385 439.597 100.855 439.253 105.943 436.03C107.206 435.229 108.443 434.572 109.933 434.306Z"/>
  <path fill="#F8F2E9" d="M69.7852 395.539C70.2629 395.475 71.1848 395.295 71.6093 395.542C72.8314 396.254 74.2417 399.087 75.284 400.268C77.9057 403.239 80.9505 405.846 84.1214 408.209C83.291 409.484 82.7524 410.711 81.1872 411.093C78.74 411.369 75.1406 412.844 72.8053 412.058C70.8734 411.408 69.5653 409.388 68.7353 407.633C67.4264 404.865 66.558 399.767 67.8168 396.925C68.1782 396.109 69.0171 395.868 69.7852 395.539Z"/>
  <path fill="#F8F2E9" d="M106.049 424.861L109.187 424.772C109.256 427.01 109.585 429.279 109.828 431.507C104.952 432.604 102.39 436.12 98.8297 436.854C97.3777 436.852 95.9346 436.584 94.5016 436.371C94.4595 432.701 94.7323 428.973 94.8094 425.297C98.551 425.341 102.313 425.054 106.049 424.861Z"/>
  <path d="M110.279 334.444C110.976 334.217 111.652 333.871 112.374 334.147C112.478 334.79 111.989 335.347 111.616 335.865C106.421 343.088 100.44 349.763 95.0764 356.861Q89.4327 364.268 83.9712 371.811C82.0465 374.49 77.298 381.955 75.1645 383.732C75.0693 383.178 75.3652 382.774 75.7007 382.341C76.8209 380.896 78.2073 379.906 78.9947 378.201C79.5212 377.061 80.9765 375.976 80.8041 374.659L80.3097 374.411C78.6645 374.959 76.1596 379.456 75.353 381.067C75.0014 381.77 74.7335 382.274 74.1536 382.816L74.0327 382.61C75.83 378.218 80.3515 373.008 83.2474 369.158Q91.0055 358.834 98.9335 348.64C102.393 344.189 105.717 339.283 109.531 335.152L110.279 334.444Z" style=""/>
  <path d="M110.478 269.455C112.162 268.438 113.752 267.426 115.668 266.9C116.601 266.643 117.569 266.404 118.433 266.889C117.477 268.558 114.047 269.626 112.3 270.32Q111.95 277.981 111.3 285.623C111.032 289.018 110.645 292.569 110.759 295.974C110.533 297.389 110.537 298.671 110.598 300.094C110.199 299.395 109.812 298.716 109.684 297.911C109.032 293.827 109.544 289.327 109.746 285.204L110.478 269.455Z" style=""/>
  <path d="M109.021 394.18C109.567 394.305 109.61 394.321 109.991 394.73C109.859 395.511 109.637 395.74 109.077 396.313C107.09 398.344 104.781 400.171 102.683 402.098Q96.9965 407.357 91.532 412.847L90.991 412.731C90.6436 412.315 90.4815 412.137 90.6025 411.54C91.142 408.882 106.31 395.761 109.021 394.18Z" style=""/>
  <path fill="#F8F2E9" d="M283.699 123.579C292.05 125.92 297.988 130.462 303.173 137.233L303.274 137.447C304.597 140.22 306.39 142.762 307.685 145.549C312.705 156.347 315.065 168.683 314.982 180.569C314.953 184.783 314.495 189.015 314.029 193.199C310.773 222.407 298.423 249.107 292.517 277.657C289.754 291.015 289.309 304.638 287.701 318.154C286.308 329.862 283.42 342.54 279.531 353.673C275.929 363.98 267.69 382.326 257.643 387.216C254.554 388.719 250.428 389.062 247.167 387.881C243.68 386.618 241.743 383.649 240.3 380.417C237.063 373.169 235.369 364.539 233.953 356.776L231.716 344.013C229.688 331.729 226.336 307.604 213.22 302.268C209.802 300.877 204.857 300.871 201.488 302.405C194.843 305.432 190.88 313.314 188.609 319.835C187.812 322.126 187.082 324.512 186.525 326.871C186.155 328.434 186.116 330.861 185.402 332.226C182.506 344.523 178.586 380.807 167.709 387.404C164.645 389.262 160.665 389.522 157.259 388.588C150.782 386.813 146.916 381.146 143.828 375.586C141.543 371.473 139.571 366.919 138.17 362.428C140.44 359.012 143.736 356.097 146.23 352.782C158.02 337.114 157.356 328.204 157.284 309.827C168.437 292.855 180.749 276.488 192.591 259.983L227.523 210.779C238.466 195.439 249.601 180.179 260.295 164.667C263.955 159.358 261.515 156.47 262.926 153.799C264.939 149.988 268.064 146.271 270.538 142.722L283.699 123.579Z"/>
  <path fill="#1E4875" d="M252.338 402.086C254.188 401.366 258.608 396.364 260.25 394.724C277.254 377.733 286.936 364.242 296.661 342.138C298.339 338.324 305.176 320.867 305.524 317.597C305.865 314.391 304.221 310.614 303.787 307.404C303.197 303.041 303.246 298.523 303.433 294.13C304.141 277.477 312.679 261.642 324.89 250.527C328.04 247.66 331.554 245.21 335.03 242.76C338.563 240.269 342.719 236.864 346.772 235.333C347.552 235.038 348.117 234.929 348.934 235.094C350.811 236.507 351.364 243.519 351.706 245.881C353.793 260.255 350.84 275.445 342.026 287.125C335.501 295.772 326.887 302.41 318.497 309.113C315.886 311.199 310.736 314.663 308.865 317.241C306.401 320.636 304.991 326.609 303.613 330.676C301.387 337.248 299.005 344.511 295.54 350.534L295.777 350.304C299.486 346.676 303.045 341.743 306.573 337.788C312.78 330.829 318.05 326.112 325.943 321.074C327.799 319.889 329.711 318.502 331.708 317.574C337.543 314.863 343.685 313.145 349.865 311.437C353.686 310.381 362.289 307.487 365.754 307.417C366.273 307.406 366.636 307.502 367.1 307.745C367.484 308.491 367.443 308.966 367.184 309.765C366.548 311.735 365.442 313.691 364.522 315.544C358.201 328.28 347.437 339.855 334.556 346.022C325.57 350.324 316.477 352.334 306.657 353.688C304.921 353.927 301.86 354.599 300.228 354.153C299.155 353.86 299.507 352.912 298.644 352.516C296.881 353.678 294.768 354.887 293.291 356.389C290.821 358.901 289.149 362.789 287.32 365.81Q283.651 371.873 279.434 377.569C291.768 369.138 307.923 367.703 322.287 370.332C324.463 370.73 329.865 371.839 331.166 373.71C331.387 374.027 331.432 374.446 331.378 374.824C331.007 377.43 320.476 384.154 318.179 385.394C313.557 387.89 308.518 389.844 303.365 390.906C294.678 392.695 283.174 392.096 274.774 389.533C273.377 389.106 272.168 388.553 270.953 387.732L260.797 397.406C258.843 399.231 256.62 401.001 254.853 402.99C254.006 403.543 253.56 404.271 252.834 404.926C252.919 404.009 252.763 403.237 252.576 402.346L252.338 402.086Z"/>
  <path d="M348.152 239.95C349.175 241.831 349.747 256.453 349.527 259.309C347.417 286.637 330.201 295.737 311.513 311.69C311.052 312.095 310.873 312.43 310.238 312.445C310.158 310.073 312.356 306.28 313.335 304.023Q319.502 289.511 327.088 275.689C331.625 267.491 336.634 259.58 341.384 251.509C343.603 247.737 345.638 243.506 348.152 239.95Z" style="fill: rgb(142, 197, 255);"/>
  <path d="M344.994 239.482C345.001 239.581 345.02 239.679 345.014 239.777C344.912 241.355 341.917 245.638 340.934 247.324C332.508 261.775 323.397 275.889 316.304 291.079C315.348 293.127 308.031 310.257 307.396 310.817L307.122 310.443C304.298 300.917 305.729 288.631 308.945 279.367C314.127 264.44 322.77 254.711 335.449 245.659C338.458 243.51 341.665 241.092 344.994 239.482Z" style="fill: rgb(142, 197, 255);"/>
  <path d="M362.161 313.226C362.307 313.382 362.334 313.358 362.349 313.577C362.412 314.501 361.31 316.121 360.861 316.919C357.568 322.767 353.51 328.003 348.82 332.807C337.181 344.728 319.002 350.847 302.567 351.04L302.418 350.781C303.315 349.374 313.287 343.901 315.358 342.638C322.313 338.396 329.537 334.72 336.518 330.55Q349.742 322.484 362.161 313.226Z" style="fill: rgb(142, 197, 255);"/>
  <path d="M358.669 311.799L359.051 311.865C358.649 313.014 355.793 314.415 354.764 315.162C346.015 321.514 337.221 327.41 327.813 332.767C323.502 335.221 318.963 337.261 314.664 339.725C310.568 342.073 306.893 344.908 302.654 347.075C302.359 346.998 302.523 347.067 302.195 346.802C303.8 344.307 307.598 340.671 309.708 338.309C318.193 328.809 328.529 320.969 340.699 316.822C346.603 314.81 352.678 313.494 358.669 311.799Z" style="fill: rgb(142, 197, 255);"/>
  <path d="M327.178 375.652L327.301 375.758C326.954 376.804 322.827 379.428 321.728 380.195C307.7 389.995 294.478 390.478 278.311 387.559C278.148 387.545 277.985 387.536 277.822 387.518C277.273 387.458 276.968 387.48 276.616 387.014C276.657 386.95 276.688 386.88 276.737 386.823C277.58 385.846 282.573 384.8 284.114 384.352C286.554 383.641 288.932 382.746 291.372 382.035C299.626 379.63 308.186 377.529 316.68 376.222C320.094 375.697 323.719 375.899 327.178 375.652Z" style="fill: rgb(142, 197, 255);"/>
  <path d="M307.51 371.872C312.629 371.824 318.287 371.511 323.276 372.664C319.267 374.235 314.677 373.912 310.438 374.761C302.718 376.307 295.28 378.361 287.689 380.422C283.625 381.745 279.571 383.281 275.402 384.236C275.515 384.107 275.626 383.977 275.745 383.854C283.67 375.566 296.421 372.263 307.51 371.872Z" style="fill: rgb(142, 197, 255);"/>
  <path d="M 145.89 446.057 L 171.322 446.041 L 187.624 446.03 C 200.751 446.039 213.943 445.947 227.062 446.334 C 237.377 446.638 247.631 447.428 257.928 447.927 C 262.935 448.17 267.964 448.066 272.967 448.391 C 276.772 448.639 280.544 449.298 284.327 449.76 C 289.252 450.361 304.48 451.328 307.793 454.712 C 308.001 454.924 308.125 455.163 308.264 455.423 C 308.194 456.087 308.097 456.374 307.572 456.821 C 304.826 459.16 293.573 461.057 289.59 461.605 C 287.073 461.952 284.526 462.018 282.002 462.295 C 278.741 462.654 275.52 463.287 272.246 463.575 C 267.458 463.995 262.638 463.977 257.845 464.369 C 252.653 464.794 247.441 465.422 242.239 465.648 C 230.386 466.162 218.481 465.988 206.619 466.231 C 199.234 466.383 191.86 466.866 184.471 466.947 C 170.375 467.103 156.26 466.487 142.169 466.212 C 130 465.974 117.783 466.109 105.624 465.648 C 100.369 465.449 95.083 464.617 89.823 464.264 C 84.842 463.929 79.833 463.957 74.857 463.558 C 71.449 463.284 68.079 462.597 64.677 462.262 C 62.036 462.001 59.371 461.929 56.743 461.556 C 53.224 461.057 40.129 459.082 38.306 456.537 C 38.065 456.2 38.163 455.977 38.181 455.588 C 40.241 452.594 49.869 451.368 53.461 450.717 C 57.277 450.024 61.381 449.699 65.256 449.518 C 66.163 449.994 66.941 450.733 67.788 451.313 C 70.405 453.106 73.606 454.287 76.804 454.25 C 82.739 454.182 81.58 450.166 83.402 448.53 C 83.496 448.446 83.596 448.369 83.692 448.288 C 85.017 447.847 86.442 448.039 87.804 448.163 C 88.731 448.732 88.523 449.854 89.365 450.454 C 90.897 451.545 93.027 452.335 94.728 453.168 C 104.699 458.051 109.777 458.895 120.901 458.829 C 123.947 458.811 127.132 458.915 130.151 458.484 C 131.406 458.305 133.457 457.908 134.16 456.692 C 135.102 455.06 133.965 451.275 133.641 449.466 C 132.954 448.583 131.945 447.592 131.788 446.452 C 133.95 445.632 142.457 446.722 145.685 446.101 C 145.754 446.087 145.822 446.071 145.89 446.057 Z" style="fill: rgb(22, 36, 86);"/>
  <path fill="#F8F2E9" d="M200.817 44.3428C200.908 44.374 201.004 44.3916 201.089 44.4363C201.671 44.744 201.779 45.237 201.877 45.8484C202.189 47.7962 202.159 49.9145 202.325 51.8877C202.687 56.1928 203.446 62.3259 205.037 66.2923C209.284 76.8821 220.652 73.9819 229.261 77.6757C222.603 78.6183 211.478 78.5764 206.994 84.2954C203.466 88.7941 201.535 103.51 202.119 109.223C201.948 109.435 201.767 109.537 201.541 109.685C199.069 108.294 200.784 89.6241 195.02 83.6291C190.707 79.1427 180.521 77.9995 174.589 77.9553C179.482 74.3711 187.071 76.1878 192.743 72.6253C200.984 67.4484 198.937 52.9617 200.765 44.5689C200.782 44.4933 200.8 44.4181 200.817 44.3428Z"/>
  <path fill="#192F67" d="M345.878 99.1585C347.758 98.4414 349.872 98.1845 351.771 99.0262Q352.224 99.2276 352.63 99.5132Q353.036 99.7988 353.378 100.158Q353.721 100.517 353.987 100.935Q354.254 101.354 354.434 101.816C354.768 102.697 354.769 103.656 354.738 104.584C354.682 106.189 354.182 107.656 352.987 108.776Q352.78 108.969 352.555 109.141Q352.33 109.313 352.089 109.461Q351.848 109.61 351.593 109.733Q351.339 109.857 351.073 109.955Q350.808 110.053 350.534 110.124Q350.26 110.195 349.98 110.239Q349.7 110.282 349.417 110.298Q349.135 110.314 348.852 110.301C347.453 110.239 346.207 109.697 345.292 108.637C345.055 108.363 344.873 108.075 344.702 107.757C344.005 106.562 343.29 105.16 343.327 103.742C343.38 101.753 344.465 100.449 345.878 99.1585ZM345.87 105.43C346.174 105.999 346.476 106.586 346.918 107.063Q347.153 107.32 347.435 107.522Q347.718 107.725 348.036 107.866Q348.354 108.006 348.694 108.078Q349.034 108.15 349.382 108.151C350.267 108.156 351.048 107.768 351.665 107.147C352.79 106.013 352.887 105.146 352.921 103.578C352.548 102.663 352.149 101.681 351.355 101.048C350.139 100.079 348.743 100.136 347.285 100.344C346.345 101.263 345.509 102.215 345.525 103.611C345.532 104.222 345.689 104.852 345.87 105.43Z"/>
  <path fill="#1E4875" d="M352.921 103.578C353.638 103.621 354.023 104.357 354.738 104.584C354.682 106.189 354.182 107.656 352.987 108.776Q352.78 108.969 352.555 109.141Q352.33 109.313 352.089 109.461Q351.848 109.61 351.593 109.733Q351.339 109.857 351.073 109.955Q350.808 110.053 350.534 110.124Q350.26 110.195 349.98 110.239Q349.7 110.282 349.417 110.298Q349.135 110.314 348.852 110.301C347.453 110.239 346.207 109.697 345.292 108.637C345.055 108.363 344.873 108.075 344.702 107.757C345.242 106.789 344.987 106.254 345.87 105.43C346.174 105.999 346.476 106.586 346.918 107.063Q347.153 107.32 347.435 107.522Q347.718 107.725 348.036 107.866Q348.354 108.006 348.694 108.078Q349.034 108.15 349.382 108.151C350.267 108.156 351.048 107.768 351.665 107.147C352.79 106.013 352.887 105.146 352.921 103.578Z"/>
  <path fill="#1D3F79" d="M244.084 426.439C251.131 423.211 258.834 423.476 266.376 424.287C269.019 424.571 271.883 424.882 274.385 425.831C275.381 426.209 276.233 426.699 276.98 427.458L276.924 427.831C274.688 428.546 269.159 426.703 266.592 426.417C260.487 425.736 254.26 425.508 248.292 427.172C243.302 428.564 240.23 431.013 235.798 433.113C235.57 433.31 235.264 433.614 234.988 433.759C234.415 434.06 234.019 433.95 233.427 433.787L233.232 433.413C233.294 433.072 233.284 433.027 233.446 432.673C234.429 430.526 241.856 427.232 244.084 426.439Z"/>
  <path fill="#1E4875" d="M235.798 433.113C235.57 433.31 235.264 433.614 234.988 433.759C234.415 434.06 234.019 433.95 233.427 433.787L233.232 433.413C233.294 433.072 233.284 433.027 233.446 432.673C234.429 430.526 241.856 427.232 244.084 426.439C242.268 429.102 237.977 428.302 236.158 432.314C236.067 432.517 235.909 432.687 235.83 432.894C235.804 432.963 235.809 433.04 235.798 433.113Z"/>
  <path fill="#1E4875" d="M53.4357 74.1579C53.9224 74.1655 54.136 74.2219 54.5507 74.4776L54.6307 75.0234C53.4233 77.3752 48.9796 80.0689 46.9036 81.9057C44.6392 83.9093 42.3731 86.0217 40.2549 88.1801C37.3991 91.0901 34.4545 94.1894 31.9907 97.4404C29.8868 100.217 28.1921 103.156 25.6896 105.617C25.2521 105.707 25.0594 105.599 24.6445 105.463C24.4986 105.116 24.4199 105.051 24.4808 104.655C24.6882 103.304 26.4836 101.332 27.2981 100.217C34.1759 90.8014 43.7095 80.6368 53.4357 74.1579Z"/>
  <path fill="#1D3F79" d="M215.844 419.695C216.117 419.509 216.383 419.32 216.649 419.123L216.259 419.009C216.135 418.838 216.085 418.785 215.996 418.563C215.588 417.541 215.149 415.56 215.538 414.516L215.814 414.587C216.019 415.184 216.416 415.607 216.812 416.084C218.993 420.542 219.186 425.572 220.58 430.23C220.719 430.694 220.79 430.987 221.19 431.284L221.56 430.836C221.307 427.953 221.933 425.002 222.597 422.215C223.264 422.845 223.488 423.204 223.675 424.095C223.777 424.579 223.856 425.015 224.068 425.462C223.905 427.221 223.686 428.957 223.419 430.702C223.184 431.609 222.933 432.164 223.413 433.027C223.613 433.679 223.798 434.098 224.199 434.665C223.266 435.888 221.73 438.151 220.157 438.364C219.686 437.929 219.541 437.785 219.382 437.137C218.908 435.207 218.971 433.077 218.557 431.098C217.761 427.288 216.537 423.5 215.844 419.695Z"/>
  <path fill="#1D3F79" d="M367.907 430.42L368.159 430.352C371.852 429.325 382.482 424.344 385.337 425.15L385.372 425.626C380.788 428.693 374.666 430.175 369.507 432.086C364.74 433.169 359.821 435.087 354.956 435.524C353.874 435.748 352.797 435.993 351.7 436.13C351.292 435.921 350.937 435.704 350.569 435.431C350.411 434.919 350.386 434.83 350.511 434.313C351.145 434.204 351.787 434.127 352.425 434.036C355.314 433.173 358.285 432.77 361.228 432.139C363.465 431.659 365.685 430.98 367.907 430.42Z"/>
  <path fill="#192F67" d="M215.844 419.695C214.353 414.513 211.574 409.428 208.643 404.938C206.996 402.414 205.128 399.757 203.157 397.464C202.035 396.159 200.625 394.959 199.693 393.512C199.347 392.973 199.299 392.775 199.308 392.161L199.637 391.893C199.951 391.889 200.181 391.93 200.468 392.064C202.31 392.928 203.721 394.969 204.987 396.518C209.919 402.548 214.211 408.663 216.812 416.084C216.416 415.607 216.019 415.184 215.814 414.587L215.538 414.516C215.149 415.56 215.588 417.541 215.996 418.563C216.085 418.785 216.135 418.838 216.259 419.009L216.649 419.123C216.383 419.32 216.117 419.509 215.844 419.695Z"/>
  <path fill="#192F67" d="M40.5566 319.273L41.9739 316.833C42.4864 318.264 43.0468 319.632 43.6987 321.006C43.73 321.089 43.7605 321.172 43.7927 321.255C45.8144 326.444 49.1691 331.487 52.4001 335.998C53.384 337.371 56.9001 341.106 56.7207 342.467C56.2265 342.674 56.4202 342.704 55.9729 342.522C52.013 340.904 43.1834 326.174 41.7414 322.066C41.7012 321.952 41.6633 321.836 41.6242 321.721C41.1714 320.963 40.8853 320.092 40.5566 319.273Z"/>
  <path fill="#1E4875" d="M323.308 434.806C328.993 434.892 334.738 434.972 340.42 434.801C343.786 434.699 347.144 434.382 350.511 434.313C350.386 434.83 350.411 434.919 350.569 435.431C350.937 435.704 351.292 435.921 351.7 436.13C340.859 436.946 330.297 436.956 319.438 436.433C320.531 435.536 321.851 435.82 323.136 435.357L323.308 434.806Z"/>
  <path fill="#1E4875" d="M40.159 112.56C40.1061 113.399 40.0884 114.254 39.8997 115.075C37.5575 118.518 35.7118 122.34 33.7878 126.027C32.574 128.353 31.1968 130.696 30.1492 133.099C29.5961 134.74 28.9384 136.704 27.978 138.15C27.5801 138.749 27.5759 138.835 26.8741 138.98L26.9846 139.157C26.3121 136.583 27.7646 133.706 28.7247 131.36C32.0643 124.728 34.9992 118.026 40.159 112.56Z"/>
  <path fill="#1E4875" d="M34.5927 299.065C34.3465 297.619 34.0761 296.102 34.1685 294.629C34.2054 294.041 34.262 293.707 34.7189 293.316L35.2733 293.493C35.8066 294.2 35.9608 295.453 36.1808 296.314C36.6751 298.681 37.2731 301.013 37.8825 303.352C38.7223 308.044 40.321 312.382 41.9739 316.833L40.5566 319.273C38.4461 315.533 37.2687 310.253 36.2727 306.058Q35.3598 302.579 34.5927 299.065Z"/>
  <path fill="#192F67" d="M34.5927 299.065C34.3465 297.619 34.0761 296.102 34.1685 294.629C34.2054 294.041 34.262 293.707 34.7189 293.316L35.2733 293.493C35.8066 294.2 35.9608 295.453 36.1808 296.314C36.121 296.373 36.0621 296.433 36.0014 296.492C35.7286 296.754 35.8403 296.658 35.503 296.879Q35.0573 297.976 34.5927 299.065Z"/>
  <path fill="#1E4875" d="M44.9566 106.812C48.4247 102.619 59.1325 91.6859 64.2182 90.6225L64.7273 90.7835C64.7156 91.5409 64.3394 91.9982 63.799 92.5167C61.9564 94.2846 59.6682 95.6745 57.6923 97.3037Q51.143 102.627 45.5684 108.963C45.4261 108.322 45.474 107.688 45.4942 107.036L44.9566 106.812Z"/>
  <path fill="#1E4875" d="M252.576 402.346C252.763 403.237 252.919 404.009 252.834 404.926C246.989 410.524 241.402 416.455 235.729 422.23C235.391 421.697 235.152 421.348 234.645 420.954C238.765 416.444 242.866 411.861 247.124 407.483C248.396 406.174 251.788 403.552 252.576 402.346Z"/>
  <path fill="#192F67" d="M43.4464 361.51C40.3047 358.848 37.0388 354.751 34.7359 351.323C33.8941 350.07 32.5233 348.245 32.8318 346.702L33.3468 346.408C33.9057 346.525 34.1794 346.922 34.5363 347.338C35.6904 348.682 36.6075 350.251 37.6676 351.674Q40.2347 355.083 43.1323 358.216C44.4538 359.65 48.2449 362.886 48.0636 364.969C48.0572 365.042 48.0305 365.112 48.0139 365.184C47.1321 365.214 46.2792 364.359 45.6458 363.772C44.8733 363.056 44.1048 362.333 43.4464 361.51Z"/>
  <path fill="#192F67" d="M223.6 415.958L222.188 400.827C222.119 400.097 222.208 399.722 222.597 399.118L223.109 398.963C223.911 399.438 224.153 400.641 224.362 401.485C225.783 407.202 225.318 412.766 224.893 418.558L224.625 420.951L224.422 420.239C223.976 419.95 224.158 420.049 223.692 419.819L223.369 419.663L223.171 418.514C223.279 417.657 223.448 416.807 223.6 415.958Z"/>
  <path fill="#1D3F79" d="M223.6 415.958L223.914 414.863C224.648 415.512 224.795 417.604 224.893 418.558L224.625 420.951L224.422 420.239C223.976 419.95 224.158 420.049 223.692 419.819L223.369 419.663L223.171 418.514C223.279 417.657 223.448 416.807 223.6 415.958Z"/>
  <path fill="#1E4875" d="M27.5752 239.286C28.2487 239.239 28.9626 239.179 29.6327 239.284C30.533 239.425 31.2133 240.064 31.7261 240.782C32.2382 241.499 32.4946 242.408 32.2238 243.274C31.9302 244.213 31.2807 244.705 30.4391 245.112Q29.5009 245.248 28.5545 245.193C27.7041 245.142 27.0351 244.767 26.5077 244.101C26.0021 243.463 25.7474 242.762 25.8916 241.938C26.0992 240.754 26.6283 239.992 27.5752 239.286Z"/>
  <path fill="#1D3F79" d="M224.065 431.986C227.401 428.11 231.024 424.56 234.645 420.954C235.152 421.348 235.391 421.697 235.729 422.23C233.024 424.983 230.265 427.702 227.692 430.579C226.745 432.131 225.32 433.254 224.199 434.665C223.798 434.098 223.613 433.679 223.413 433.027L224.065 431.986Z"/>
  <path fill="#1E4875" d="M224.065 431.986C225.362 431.75 226.512 431.142 227.692 430.579C226.745 432.131 225.32 433.254 224.199 434.665C223.798 434.098 223.613 433.679 223.413 433.027L224.065 431.986Z"/>
  <path fill="#1E4875" d="M186.779 413.013C187.206 413.126 187.652 413.236 188.056 413.415C188.8 413.742 189.402 414.49 189.662 415.248C189.922 416.007 189.845 416.787 189.483 417.497C188.929 418.583 188.177 418.762 187.076 419.091C186.473 419.012 185.72 418.968 185.165 418.711C183.97 418.158 183.76 416.976 183.367 415.832Q183.67 415.339 183.985 414.854C184.836 413.557 185.261 413.322 186.779 413.013Z"/>
  <path fill="#1D3F79" d="M310.396 435.805C309.907 435.747 309.412 435.681 308.933 435.561C308.125 435.358 307.263 434.823 306.825 434.102L307.034 433.807C309.314 433.003 311.899 434.158 314.249 434.277C314.334 434.282 314.42 434.284 314.506 434.287C317.432 434.311 320.391 434.562 323.308 434.806L323.136 435.357C321.851 435.82 320.531 435.536 319.438 436.433C316.428 436.311 313.376 436.265 310.396 435.805Z"/>
  <path fill="#1D3F79" d="M44.9566 106.812L45.4942 107.036C45.474 107.688 45.4261 108.322 45.5684 108.963C43.6012 110.932 41.7545 113.001 39.8997 115.075C40.0884 114.254 40.1061 113.399 40.159 112.56C41.6388 110.493 43.1828 108.638 44.9566 106.812Z"/>
  <path fill="#1D3F79" d="M238.986 51.978C239.95 52.0099 240.265 52.0403 241.02 52.6314C241.216 53.0308 241.354 53.3105 241.302 53.7729C241.187 54.8056 240.588 55.4498 239.846 56.1066C239.289 55.8823 238.781 55.5683 238.359 55.1376C237.83 54.5985 237.657 54.164 237.643 53.4021C238.025 52.5666 238.246 52.4795 238.986 51.978Z"/>
  <path fill="#1E4875" d="M223.171 418.514L223.369 419.663L223.692 419.819C224.158 420.049 223.976 419.95 224.422 420.239L224.625 420.951C224.515 422.477 224.425 423.97 224.068 425.462C223.856 425.015 223.777 424.579 223.675 424.095C223.488 423.204 223.264 422.845 222.597 422.215C222.616 421.002 222.959 419.712 223.171 418.514Z"/>
</svg>