<svg width="141" height="134" viewBox="0 0 141 134" fill="none" xmlns="http://www.w3.org/2000/svg">
<path d="M70.5 0L96.6047 38.1667L141 51.1852L112.739 87.7901L114.068 134L70.5 118.457L26.9324 134L28.2605 87.7901L0 51.1852L44.3953 38.1667L70.5 0ZM70.5 21.8765L52.1044 48.7778L20.8171 57.9444L40.7384 83.7346L39.7933 116.296L70.5 105.346L101.201 116.296L100.262 83.7346L120.177 57.9444L88.8956 48.7778L70.5 21.8765ZM58.1457 70.9877C58.1457 74.2619 59.4473 77.4021 61.7642 79.7174C64.0811 82.0326 67.2234 83.3333 70.5 83.3333C73.7766 83.3333 76.9189 82.0326 79.2358 79.7174C81.5527 77.4021 82.8543 74.2619 82.8543 70.9877H95.2087C95.2087 77.5362 92.6054 83.8166 87.9717 88.4471C83.3379 93.0776 77.0531 95.679 70.5 95.679C63.9469 95.679 57.6621 93.0776 53.0283 88.4471C48.3946 83.8166 45.7913 77.5362 45.7913 70.9877H58.1457Z" fill="white"/>
</svg>