<svg width="335" height="269" viewBox="0 0 335 269" fill="none" xmlns="http://www.w3.org/2000/svg">
<path d="M135.5 268.695C84.9659 268.695 44 257.055 44 242.695C44 228.336 84.9659 216.695 135.5 216.695C186.034 216.695 227 228.336 227 242.695C227 257.055 186.034 268.695 135.5 268.695Z" fill="#F2F2F2"/>
<path opacity="0.1" d="M106 249.695C91.6406 249.695 80 246.337 80 242.195C80 238.053 91.6406 234.695 106 234.695C120.359 234.695 132 238.053 132 242.195C132 246.337 120.359 249.695 106 249.695Z" fill="black"/>
<path d="M220.434 198.182L187.317 231.24L173.398 217.345C172.505 216.455 171.295 215.954 170.033 215.954C168.771 215.954 167.561 216.455 166.669 217.345L166.169 216.599C164.31 218.454 164.81 222.207 166.669 224.062L184.729 242.09C185.409 242.769 186.332 243.151 187.295 243.151C188.257 243.151 189.181 242.77 189.862 242.091L227.16 204.899C229.019 203.045 229.694 199.645 227.835 197.79C225.977 195.936 222.292 196.328 220.434 198.182Z" fill="#57B894"/>
<path opacity="0.1" d="M220.434 198.182L187.317 231.24L173.398 217.345C172.505 216.455 171.295 215.954 170.033 215.954C168.771 215.954 167.561 216.455 166.669 217.345L166.169 216.599C164.31 218.454 164.81 222.207 166.669 224.062L184.729 242.09C185.409 242.769 186.332 243.151 187.295 243.151C188.257 243.151 189.181 242.77 189.862 242.091L227.16 204.899C229.019 203.045 229.694 199.645 227.835 197.79C225.977 195.936 222.292 196.328 220.434 198.182Z" fill="black"/>
<path d="M220.833 196.397L187.785 229.605L173.895 215.648C173.005 214.753 171.797 214.25 170.538 214.25C169.278 214.25 168.07 214.753 167.18 215.648C166.739 216.091 166.389 216.617 166.151 217.195C165.912 217.774 165.789 218.395 165.789 219.021C165.789 219.648 165.912 220.268 166.151 220.847C166.389 221.426 166.739 221.952 167.18 222.395L185.202 240.505C185.882 241.187 186.803 241.571 187.763 241.571C188.724 241.571 189.645 241.188 190.325 240.506L227.544 203.145C227.986 202.702 228.336 202.176 228.574 201.597C228.813 201.018 228.936 200.398 228.937 199.771C228.937 199.145 228.814 198.524 228.575 197.945C228.337 197.366 227.987 196.84 227.546 196.397C226.656 195.503 225.448 195 224.189 195C222.931 195 221.723 195.503 220.833 196.397Z" fill="#57B894"/>
<path d="M115.743 234.695C115.743 234.695 118.809 235.696 120.341 237.697C120.341 237.697 123.1 239.032 124.786 238.698C126.472 238.365 129.537 241.7 127.085 242.701C124.632 243.702 109.613 246.37 109.307 245.536C109 244.702 109 236.196 109 236.196L115.743 234.695Z" fill="#575A89"/>
<path d="M92.024 234.695C92.024 234.695 94.8747 235.904 96.0654 237.657C96.0654 237.657 98.5632 239.076 100.269 239.064C101.975 239.053 104.461 242.048 101.899 242.46C99.337 242.872 84.1855 242.746 84.0151 242.063C83.8447 241.381 85.174 234.871 85.174 234.871L92.024 234.695Z" fill="#575A89"/>
<path d="M110 133.695C106.134 133.695 103 130.785 103 127.195C103 123.605 106.134 120.695 110 120.695C113.866 120.695 117 123.605 117 127.195C117 130.785 113.866 133.695 110 133.695Z" fill="#FFB9B9"/>
<path d="M104.392 128.695C104.392 128.695 103.684 133.631 102.409 134.211C101.521 134.659 100.709 135.247 100 135.953L103.542 137.695L110.485 137.26C110.485 137.26 109.918 134.066 110.91 132.47C111.902 130.873 104.392 128.695 104.392 128.695Z" fill="#FFB9B9"/>
<path d="M90.8319 152.695C90.8319 152.695 86.7102 161.124 90.8319 169.267C94.9535 177.41 96.7456 178.695 96.7456 178.695L98 167.981L96.5576 166.938C96.5576 166.938 95.6841 163.687 96.3941 161.763C97.104 159.838 96.0288 153.838 96.0288 153.838L90.8319 152.695Z" fill="#FFB9B9"/>
<path d="M117.058 171.19C117.058 171.19 121.418 180.99 120.967 185.742C120.516 190.494 117.058 210.541 117.058 210.541C117.058 210.541 117.509 236.379 116.155 236.379C114.802 236.379 108.336 238.755 108.336 237.122C108.336 235.489 106.983 196.286 106.983 196.286C106.983 196.286 99.3135 213.511 98.5616 214.848C97.8098 216.184 92.9979 237.122 91.3437 237.122C89.6896 237.122 84.5769 235.637 85.0281 234.598C85.4792 233.558 90.5919 210.393 93.449 204.453C96.3061 198.513 95.7046 176.09 95.7046 176.09L100.517 165.695L117.058 171.19Z" fill="#2F2E41"/>
<path d="M112.734 124.713C112.734 124.713 117.002 124.414 117.307 123.365C117.612 122.317 118.222 121.418 117.917 121.418C117.612 121.418 117.46 120.669 117.46 120.669C117.46 120.669 117.155 120.519 117.002 120.669C116.85 120.819 116.697 119.621 116.697 119.621C116.697 119.621 116.545 119.171 116.393 119.471C116.24 119.77 116.24 119.621 116.088 119.171C115.935 118.722 115.173 118.422 115.173 118.422C115.173 118.422 112.277 118.572 111.82 117.973C111.362 117.374 106.18 117.823 105.113 118.572C104.046 119.321 99.3206 122.017 100.083 124.264C100.845 126.511 103.589 131.454 103.589 132.203C103.589 132.952 104.656 132.802 104.96 132.053C105.265 131.304 107.704 130.405 107.704 129.956C107.704 129.507 109.076 125.313 109.838 125.612C110.6 125.912 111.515 128.308 111.82 127.859C112.125 127.41 112.734 124.713 112.734 124.713Z" fill="#2F2E41"/>
<path d="M92 144.758C92 144.758 97.9517 135.788 99.6937 135.34C101.436 134.891 105.355 133.695 105.355 133.695C105.355 133.695 109.275 134.293 110.436 134.891C111.597 135.489 115.952 136.536 116.097 138.33C116.242 140.124 114.936 157.317 115.662 158.961C116.388 160.606 118.855 176.303 117.694 176.004C116.533 175.705 117.404 171.818 112.323 171.669C107.242 171.519 104.484 168.38 102.597 172.117C100.71 175.855 95.3388 178.695 95.3388 178.695C95.2038 177.49 95.01 176.292 94.7581 175.107C94.3226 173.014 95.9194 167.931 95.9194 167.931C95.9194 167.931 95.7743 156.121 95.1936 154.775C94.6129 153.43 92 144.758 92 144.758Z" fill="#6C63FF"/>
<path d="M94.0321 143.695L92.2958 143.997C92.2958 143.997 92.4116 147.01 91.9485 147.914C91.4855 148.819 90.6752 153.49 91.1383 153.641C91.6013 153.791 95.7685 154.695 95.7685 154.695L96 147.764L94.0321 143.695Z" fill="#6C63FF"/>
<path d="M118.5 145.5C118.5 145.5 124.272 140.812 125 142C125.728 143.188 139 136.5 143 134.5C147 132.5 150 134.5 147.5 137C145 139.5 138 143 138 143C138 143 129 149 125 149.5C121 150 111 148.695 111 148.695L118.5 145.5Z" fill="#FFB9B9"/>
<path d="M113.502 136.695L116.197 137.691C116.197 137.691 125.748 141.004 125 142C126 153 109.158 149.922 109.009 149.495C108.859 149.069 110.656 136.695 113.502 136.695Z" fill="#6C63FF"/>
<ellipse cx="242.317" cy="38.8546" rx="2.49525" ry="2.43322" transform="rotate(90 242.317 38.8546)" fill="white"/>
<ellipse cx="329.945" cy="80.1388" rx="2.13878" ry="2.08562" transform="rotate(90 329.945 80.1388)" fill="white"/>
<ellipse cx="276.729" cy="0.712928" rx="0.712928" ry="0.695206" transform="rotate(90 276.729 0.712928)" fill="white"/>
<ellipse cx="194" cy="106.226" rx="0.712928" ry="0.695206" transform="rotate(90 194 106.226)" fill="white"/>
<ellipse cx="331.945" cy="182.51" rx="2.13878" ry="2.08562" transform="rotate(90 331.945 182.51)" fill="white"/>
<path d="M292.024 173.954C290.872 173.954 289.938 172.997 289.938 171.816C289.938 170.634 290.872 169.677 292.024 169.677C293.176 169.677 294.109 170.634 294.109 171.816C294.109 172.997 293.176 173.954 292.024 173.954Z" fill="white"/>
<ellipse cx="220.418" cy="141.159" rx="2.13878" ry="2.08562" transform="rotate(90 220.418 141.159)" fill="white"/>
<ellipse cx="202.69" cy="21.0313" rx="1.78232" ry="1.73801" transform="rotate(90 202.69 21.0313)" fill="white"/>
<ellipse cx="106.751" cy="16.754" rx="1.78232" ry="1.73801" transform="rotate(90 106.751 16.754)" fill="white"/>
<ellipse cx="272.21" cy="61.668" rx="1.06939" ry="1.04281" transform="rotate(90 272.21 61.668)" fill="white"/>
<ellipse cx="292.024" cy="116.92" rx="2.13878" ry="2.08562" transform="rotate(90 292.024 116.92)" fill="white"/>
<path d="M262.001 63L263.722 70.5007L272.002 73.0008L263.722 74.7832L262.001 83.0015L259.814 74.7832L252 73.0008L259.814 70.5007L262.001 63Z" fill="white"/>
<path d="M151.681 134.848C151.553 135.945 148.528 135.991 147.973 136.429C145.779 136.174 144.104 135.077 144.231 133.98C144.359 132.883 149.337 131.554 151.532 131.81C153.726 132.066 151.809 133.751 151.681 134.848Z" fill="#FFB9B9"/>
</svg>
