<svg width="375" height="332" viewBox="0 0 375 332" fill="none" xmlns="http://www.w3.org/2000/svg">
<path d="M187.5 101L213.605 139.167L258 152.185L229.739 188.79L231.068 235L187.5 219.457L143.932 235L145.261 188.79L117 152.185L161.395 139.167L187.5 101ZM187.5 122.877L169.104 149.778L137.817 158.944L157.738 184.735L156.793 217.296L187.5 206.346L218.201 217.296L217.262 184.735L237.177 158.944L205.896 149.778L187.5 122.877Z" fill="white" fill-opacity="0.4"/>
<path d="M115.739 263.802C115.753 263.391 115.761 262.978 115.761 262.563C115.761 243.475 100.286 228 81.1973 228C66.9135 228 54.6535 236.664 49.3863 249.024C46.3569 247.323 42.8616 246.352 39.1396 246.352C28.7666 246.352 20.1542 253.89 18.4814 263.787H16.1993C6.14811 263.787 -2 271.935 -2 281.986C-2 292.038 6.14811 300.186 16.1993 300.186H114.996C125.047 300.186 133.195 292.038 133.195 281.986C133.195 272.184 125.445 264.192 115.739 263.802Z" fill="#6D6D6D"/>
<path d="M301.63 41.869C301.638 41.6294 301.643 41.3887 301.643 41.147C301.643 30.0201 292.623 21 281.496 21C273.17 21 266.023 26.0505 262.953 33.2551C261.187 32.2631 259.15 31.6974 256.98 31.6974C250.934 31.6974 245.914 36.0913 244.939 41.8603H243.608C237.75 41.8603 233 46.6098 233 52.4687C233 58.3275 237.75 63.0771 243.608 63.0771H301.197C307.056 63.0771 311.805 58.3275 311.805 52.4687C311.805 46.755 307.288 42.0963 301.63 41.869Z" fill="#CFCFCF"/>
<path d="M140.63 20.869C140.638 20.6294 140.643 20.3887 140.643 20.147C140.643 9.02013 131.623 0 120.496 0C112.17 0 105.023 5.05052 101.953 12.2551C100.187 11.2631 98.1498 10.6974 95.9803 10.6974C89.9339 10.6974 84.9137 15.0913 83.9386 20.8603H82.6084C76.7495 20.8603 72 25.6098 72 31.4687C72 37.3275 76.7495 42.0771 82.6084 42.0771H140.197C146.056 42.0771 150.805 37.3275 150.805 31.4687C150.805 25.755 146.288 21.0963 140.63 20.869Z" fill="#CFCFCF"/>
<path d="M302.456 111.802C302.442 111.391 302.435 110.978 302.435 110.563C302.435 91.4746 317.909 76 336.998 76C351.282 76 363.542 84.6645 368.809 97.0243C371.838 95.3226 375.334 94.3521 379.056 94.3521C389.429 94.3521 398.041 101.89 399.714 111.787H401.996C412.047 111.787 420.195 119.935 420.195 129.986C420.195 140.038 412.047 148.186 401.996 148.186H303.2C293.148 148.186 285 140.038 285 129.986C285 120.184 292.75 112.192 302.456 111.802Z" fill="white"/>
<path d="M-24.6547 115.678C-24.6707 115.222 -24.6788 114.764 -24.6788 114.305C-24.6788 93.1497 -7.52908 76 13.6262 76C29.4561 76 43.0433 85.6024 48.8807 99.3001C52.238 97.4141 56.1118 96.3385 60.2367 96.3385C71.7327 96.3385 81.2774 104.693 83.1313 115.661H85.6606C96.7999 115.661 105.83 124.691 105.83 135.83C105.83 146.97 96.7999 156 85.6606 156H-23.8306C-34.9698 156 -44 146.97 -44 135.83C-44 124.967 -35.4118 116.11 -24.6547 115.678Z" fill="white"/>
<path d="M299.001 269C284.071 269 271.776 280.283 270.177 294.787H268.199C258.148 294.787 250 302.935 250 312.986C250 323.038 258.148 331.186 268.199 331.186H366.996C377.047 331.186 385.195 323.038 385.195 312.986C385.195 302.935 377.047 294.787 366.996 294.787H365.234C362.195 281.729 350.484 272 336.501 272C330.145 272 324.258 274.01 319.442 277.429C314.2 272.219 306.976 269 299.001 269Z" fill="#6D6D6D"/>
</svg>