<svg width="139" height="304" xmlns="http://www.w3.org/2000/svg">

 <g>
  <title>background</title>
  <rect fill="none" id="canvas_background" height="602" width="802" y="-1" x="-1"/>
 </g>
 <g>
  <title>Layer 1</title>
  <path id="svg_1" fill="#2F2E41" d="m37.4166,148.5c-5.6352,0 -10.4757,-1.92 -14.5215,-5.761c-4.0458,-3.877 -6.0687,-8.642 -6.0687,-14.295c0,-5.688 1.7701,-10.453 5.3101,-14.294c3.5401,-3.877 8.0735,-5.816 13.6004,-5.816c4.3347,0 8.7237,0.725 13.1668,2.174l-0.7044,2.175c-4.3347,-1.305 -8.4889,-1.957 -12.4624,-1.957c-4.7322,0 -8.5973,1.703 -11.5955,5.109c-2.9983,3.406 -4.4974,7.573 -4.4974,12.501c0,4.928 1.7339,9.131 5.2018,12.609c3.5039,3.443 7.6942,5.164 12.5708,5.164c4.2625,0 7.9471,-0.653 11.0536,-1.957l0.8128,1.848c-1.3727,0.797 -3.1788,1.413 -5.4184,1.848c-2.2036,0.435 -4.3529,0.652 -6.448,0.652z"/>
  <path id="svg_2" fill="#2F2E41" d="m58.8258,147.848l0,-35.274l16.418,0l0,2.174l-13.9255,0l0,12.827l12.5709,0l0,2.12l-12.5709,0l0,15.87l14.4673,0l0,2.283l-16.9598,0zm13.6004,-40.981l-7.911,2.881l-1.8423,-0.544l9.4282,-5.218l0.3251,2.881z"/>
  <path id="svg_3" fill="#2F2E41" d="m110.793,144.206c-2.384,2.79 -6.015,4.185 -10.8914,4.185c-4.8766,0 -8.507,-1.395 -10.8911,-4.185c-2.3841,-2.79 -3.5762,-6.649 -3.5762,-11.576l0,-20.056l2.4925,0l0,20.056c0,9.022 3.9916,13.533 11.9748,13.533c7.9834,0 11.9744,-4.511 11.9744,-13.533l0,-20.056l2.493,0l0,20.056c0,4.927 -1.192,8.786 -3.576,11.576z"/>
  <path id="svg_4" fill="#2F2E41" d="m48.1367,205.261c4.6237,0 8.3263,-1.251 11.1078,-3.751c2.8176,-2.5 4.2264,-6.268 4.2264,-11.305c0,-5.036 -1.5894,-9.04 -4.7682,-12.011c-3.1427,-2.972 -7.026,-4.457 -11.6497,-4.457c-3.2872,0 -5.8158,0.072 -7.5859,0.217l0,30.926c2.1674,0.254 5.0573,0.381 8.6696,0.381zm-1.0837,-33.753c5.4184,0 9.9338,1.685 13.5461,5.055c3.6485,3.334 5.4727,7.881 5.4727,13.642c0,5.761 -1.6798,10.091 -5.0392,12.99c-3.3233,2.899 -7.622,4.348 -12.8959,4.348c-3.6485,0 -7.4053,-0.181 -11.2704,-0.543l0,-35.166c2.8898,-0.217 6.2854,-0.326 10.1867,-0.326z"/>
  <path id="svg_5" fill="#2F2E41" d="m78.0216,194.879l-5.0392,12.229l-2.5467,0l14.7383,-35.491l1.4629,0l14.8471,35.491l-2.7639,0l-5.0933,-12.229l-15.6052,0zm7.7484,-19.24c-0.5419,1.631 -1.0295,2.989 -1.463,4.076l-5.4185,13.045l13.8713,0l-5.3643,-12.99c-0.8308,-2.029 -1.3727,-3.406 -1.6255,-4.131z"/>
  <path id="svg_6" fill="#2F2E41" d="m0,227.616c2.8176,-0.217 5.68938,-0.326 8.61535,-0.326c2.96205,0 5.50875,0.725 7.64005,2.174c2.1674,1.45 3.2511,3.551 3.2511,6.305c0,2.066 -0.578,3.986 -1.734,5.761c-1.1198,1.776 -2.4744,3.117 -4.0638,4.022c2.5647,0.798 4.7141,2.175 6.448,4.131c1.7339,1.957 2.6008,4.149 2.6008,6.577c0,3.406 -1.0837,5.996 -3.251,7.772c-2.1313,1.775 -5.0753,2.663 -8.8321,2.663c-3.72071,0 -7.27883,-0.145 -10.6744,-0.435l0,-38.644zm10.9995,36.742c2.637,0 4.8043,-0.725 6.5021,-2.174c1.6978,-1.486 2.5467,-3.37 2.5467,-5.653c0,-2.282 -0.8308,-4.257 -2.4925,-5.924c-1.6255,-1.667 -3.8652,-2.808 -6.7189,-3.424c-1.33653,-0.29 -2.88983,-0.435 -4.65986,-0.435c-1.7339,0 -2.92596,0 -3.57618,0l0,17.338c1.58942,0.181 4.38895,0.272 8.39864,0.272zm5.9061,-28.643c0,-1.993 -0.8308,-3.533 -2.4925,-4.62c-1.6255,-1.087 -3.4678,-1.631 -5.52683,-1.631c-2.02289,0 -4.11802,0.073 -6.28541,0.218l0,14.838c0.4696,0 1.35462,0 2.65505,0c1.30043,0 3.21495,0.108 5.74359,0.326c1.6255,-0.87 3.0163,-2.12 4.1722,-3.75c1.1559,-1.631 1.7339,-3.425 1.7339,-5.381z"/>
  <path id="svg_7" fill="#2F2E41" d="m48.9778,266.913c-5.0211,0 -9.2294,-1.758 -12.625,-5.273c-3.3956,-3.514 -5.0934,-7.808 -5.0934,-12.881c0,-5.109 1.6978,-9.421 5.0934,-12.935c3.3956,-3.515 7.6039,-5.273 12.625,-5.273c5.0211,0 9.2294,1.758 12.625,5.273c3.3956,3.514 5.0934,7.826 5.0934,12.935c0,5.073 -1.6978,9.367 -5.0934,12.881c-3.3956,3.515 -7.6039,5.273 -12.625,5.273zm0,-34.133c-4.3348,0 -7.9471,1.54 -10.8369,4.62c-2.8537,3.08 -4.2806,6.866 -4.2806,11.359c0,4.457 1.4269,8.225 4.2806,11.305c2.8898,3.044 6.5021,4.566 10.8369,4.566c4.3709,0 7.9832,-1.522 10.8369,-4.566c2.8537,-3.08 4.2806,-6.848 4.2806,-11.305c0,-4.493 -1.4269,-8.279 -4.2806,-11.359c-2.8537,-3.08 -6.466,-4.62 -10.8369,-4.62z"/>
  <path id="svg_8" fill="#2F2E41" d="m104.921,264.63c-2.709,1.522 -6.4842,2.283 -11.3247,2.283c-4.8044,0 -9.0489,-1.74 -12.7334,-5.218c-3.6484,-3.479 -5.4727,-7.791 -5.4727,-12.936c0,-5.181 1.5895,-9.511 4.7683,-12.99c3.2149,-3.478 7.351,-5.218 12.4083,-5.218c4.0819,0 8.0732,0.635 11.9752,1.903l-0.651,2.065c-3.756,-1.159 -7.6397,-1.739 -11.6493,-1.739c-4.0097,0 -7.3872,1.54 -10.1326,4.62c-2.7092,3.043 -4.0638,6.794 -4.0638,11.25c0,4.421 1.5713,8.189 4.7141,11.306c3.1788,3.116 6.8453,4.674 10.9994,4.674c4.1542,0 7.6042,-0.58 10.3492,-1.739l0.813,1.739z"/>
  <path id="svg_9" fill="#2F2E41" d="m115.538,254.14l-5.039,12.229l-2.547,0l14.738,-35.491l1.463,0l14.847,35.491l-2.763,0l-5.094,-12.229l-15.605,0zm7.748,-19.24c-0.541,1.63 -1.029,2.989 -1.463,4.076l-5.418,13.044l13.871,0l-5.364,-12.99c-0.831,-2.029 -1.373,-3.406 -1.626,-4.13z"/>
  <path id="svg_10" fill="#2F2E41" d="m30.83537,299.371l-1.5654,3.832l-0.7911,0l4.5782,-11.121l0.4545,0l4.6118,11.121l-0.8584,0l-1.5822,-3.832l-4.8474,0zm2.4069,-6.029c-0.1684,0.511 -0.3198,0.937 -0.4545,1.277l-1.6831,4.088l4.3088,0l-1.6663,-4.071c-0.2581,-0.636 -0.4264,-1.067 -0.5049,-1.294z"/>
  <path id="svg_11" fill="#2F2E41" d="m46.45152,302.062c-0.7405,0.874 -1.8682,1.311 -3.3831,1.311c-1.5148,0 -2.6425,-0.437 -3.3831,-1.311c-0.7406,-0.875 -1.1109,-2.084 -1.1109,-3.628l0,-6.284l0.7743,0l0,6.284c0,2.827 1.2399,4.241 3.7197,4.241c2.4799,0 3.7198,-1.414 3.7198,-4.241l0,-6.284l0.7742,0l0,6.284c0,1.544 -0.3703,2.753 -1.1109,3.628z"/>
  <path id="svg_12" fill="#2F2E41" d="m52.19876,292.848l-3.7029,0l0,-0.698l8.1633,0l0,0.698l-3.703,0l0,10.355l-0.7574,0l0,-10.355z"/>
  <path id="svg_13" fill="#2F2E41" d="m62.89408,303.373c-1.5597,0 -2.8669,-0.551 -3.9217,-1.652c-1.0548,-1.101 -1.5822,-2.447 -1.5822,-4.036c0,-1.601 0.5274,-2.952 1.5822,-4.054c1.0548,-1.101 2.362,-1.652 3.9217,-1.652c1.5598,0 2.867,0.551 3.9218,1.652c1.0547,1.102 1.5821,2.453 1.5821,4.054c0,1.589 -0.5274,2.935 -1.5821,4.036c-1.0548,1.101 -2.362,1.652 -3.9218,1.652zm0,-10.695c-1.3465,0 -2.4686,0.482 -3.3663,1.447c-0.8864,0.965 -1.3297,2.152 -1.3297,3.56c0,1.396 0.4433,2.577 1.3297,3.542c0.8977,0.954 2.0198,1.431 3.3663,1.431c1.3578,0 2.4799,-0.477 3.3663,-1.431c0.8865,-0.965 1.3297,-2.146 1.3297,-3.542c0,-1.408 -0.4432,-2.595 -1.3297,-3.56c-0.8864,-0.965 -2.0085,-1.447 -3.3663,-1.447z"/>
  <path id="svg_15" fill="#2F2E41" d="m70.58938,303.203l0,-11.053l5.0999,0l0,0.681l-4.3257,0l0,4.019l3.9049,0l0,0.664l-3.9049,0l0,4.973l4.494,0l0,0.716l-5.2682,0z"/>
  <path id="svg_16" fill="#2F2E41" d="m77.87607,292.15l0.9426,0l2.9119,4.785l3.0464,-4.785l0.8416,0l-3.5009,5.416l3.5178,5.637l-0.9258,0l-3.1306,-5.075l-3.2653,5.075l-0.8585,0l3.7366,-5.723l-3.3158,-5.33z"/>
  <path id="svg_17" fill="#2F2E41" d="m88.95596,299.371l-1.5653,3.832l-0.7911,0l4.5782,-11.121l0.4545,0l4.6118,11.121l-0.8584,0l-1.5822,-3.832l-4.8475,0zm2.407,-6.029c-0.1684,0.511 -0.3198,0.937 -0.4545,1.277l-1.6831,4.088l4.3088,0l-1.6663,-4.071c-0.2581,-0.636 -0.4264,-1.067 -0.5049,-1.294z"/>
  <path id="svg_18" fill="#2F2E41" d="m103.27706,302.624l-0.455,0l-3.181,-7.817c-0.135,-0.307 -0.269,-0.665 -0.404,-1.073c0,0.011 -0.011,0.073 -0.034,0.187c-0.011,0.114 -0.028,0.267 -0.05,0.46c-0.023,0.181 -0.045,0.335 -0.067,0.46l-1.2628,8.362l-0.7574,0l1.7842,-11.121l0.454,0l3.4,8.157c0.27,0.682 0.404,1.039 0.404,1.073c0.079,-0.238 0.23,-0.59 0.455,-1.056l3.787,-8.174l0.454,0l1.667,11.121l-0.808,0l-1.195,-8.396c-0.079,-0.557 -0.118,-0.926 -0.118,-1.107l-0.488,1.124l-3.585,7.8z"/>
  <path id="svg_19" fill="#2F2E41" d="m110.86311,303.203l0,-11.053l5.1,0l0,0.681l-4.326,0l0,4.019l3.905,0l0,0.664l-3.905,0l0,4.973l4.494,0l0,0.716l-5.268,0z"/>
  <path id="svg_20" fill="#2F2E41" d="m75.7048,66.3163c0,-6.8061 -4.3628,-9.4239 -6.108,-9.4239c-1.7451,0 -6.108,2.6178 -6.108,9.4239c0,6.8062 -1.9197,9.7729 -8.0277,8.5513c-6.108,-1.2216 -23.5595,-16.9281 -23.5595,-53.7511c0,-9.2494 6.6316,-21.1165 18.1496,-21.1165c3.211,0 7.8531,2.21054 9.7728,3.31582c1.4543,0.98892 6.0033,2.96678 9.7728,2.96678c3.7695,0 8.3186,-1.97786 9.7728,-2.96678c1.9197,-1.10528 6.5618,-3.31582 9.7729,-3.31582c11.5175,0 18.1495,11.8671 18.1495,21.1165c0,36.823 -18.8476,51.4824 -23.5595,53.7511c-4.7119,2.2687 -8.0277,-1.7451 -8.0277,-8.5513zm6.9287,-53.7841l1.1367,1.7429l1.7428,1.1367l-1.7428,1.1366l-1.1367,1.7429l-1.1366,-1.7429l-1.7428,-1.1366l1.7428,-1.1367l1.1366,-1.7429zm2.3269,18.3028c-1.8897,0.5064 -3.7994,0.3958 -5.5153,-0.2082c2.1166,1.3114 4.749,1.7794 7.3439,1.0841c4.9861,-1.336 7.9451,-6.4611 6.609,-11.4472c-0.8297,-3.0964 -3.1207,-5.4111 -5.9321,-6.4008c1.9504,1.2086 3.4627,3.1336 4.1035,5.5249c1.3361,4.9861 -1.6229,10.1112 -6.609,11.4472z" clip-rule="evenodd" fill-rule="evenodd"/>
 </g>
</svg>