<?xml version="1.0" encoding="utf-8" ?>
<svg xmlns="http://www.w3.org/2000/svg" xmlns:xlink="http://www.w3.org/1999/xlink" width="500" height="500">
	<path fill="#FEFEFE" d="M243.84 131.604C246.332 131.175 249.439 131.414 251.989 131.483Q254.791 131.55 257.586 131.752Q260.381 131.955 263.163 132.291Q265.945 132.628 268.708 133.098Q271.47 133.569 274.207 134.171Q276.944 134.774 279.648 135.508Q282.353 136.243 285.019 137.106Q287.685 137.97 290.306 138.961Q292.927 139.952 295.498 141.068C298.683 142.48 301.86 143.949 304.906 145.644C310.391 148.698 325.705 158.312 327.724 164.006C328.175 165.276 328.174 166.588 327.553 167.802C326.355 170.143 324.029 170.933 321.695 171.648C317.16 170.085 313.935 166.036 310.093 163.274C295.988 153.132 281.32 147.15 264.13 144.529Q262.933 144.342 261.731 144.185Q260.53 144.028 259.325 143.9Q258.12 143.773 256.913 143.675Q255.705 143.577 254.495 143.509Q253.286 143.441 252.075 143.402Q250.863 143.364 249.652 143.355Q248.44 143.347 247.229 143.368Q246.017 143.389 244.807 143.44Q243.596 143.491 242.387 143.572Q241.178 143.653 239.972 143.763Q238.765 143.874 237.562 144.014Q236.358 144.154 235.159 144.324Q233.959 144.494 232.764 144.693Q231.569 144.892 230.379 145.12Q229.189 145.349 228.005 145.607Q226.821 145.864 225.644 146.151Q224.467 146.438 223.297 146.754Q222.127 147.069 220.965 147.414Q219.804 147.758 218.651 148.131Q217.498 148.504 216.355 148.905Q215.211 149.306 214.078 149.735Q212.945 150.164 211.823 150.621Q210.701 151.078 209.59 151.562Q208.48 152.046 207.381 152.558Q206.283 153.069 205.197 153.607Q204.112 154.146 203.04 154.711Q201.968 155.276 200.91 155.867Q199.853 156.458 198.81 157.075Q197.767 157.692 196.74 158.334Q195.712 158.976 194.701 159.644Q193.69 160.311 192.696 161.003Q191.701 161.696 190.724 162.412Q189.74 163.152 188.775 163.916Q187.81 164.679 186.863 165.466Q185.917 166.253 184.99 167.063Q184.063 167.873 183.156 168.705Q182.249 169.537 181.362 170.392Q180.476 171.246 179.611 172.121Q178.745 172.996 177.902 173.893Q177.058 174.789 176.236 175.706Q175.415 176.622 174.616 177.558Q173.817 178.495 173.041 179.45Q172.265 180.406 171.512 181.38Q170.76 182.354 170.031 183.346Q169.303 184.338 168.599 185.348Q167.895 186.358 167.215 187.384Q166.536 188.411 165.882 189.453Q165.228 190.496 164.6 191.555Q163.971 192.613 163.369 193.686Q162.766 194.76 162.19 195.848Q161.614 196.935 161.065 198.037Q160.515 199.138 159.993 200.253Q159.471 201.368 158.976 202.495Q158.48 203.621 158.013 204.76Q157.546 205.899 157.106 207.049Q156.666 208.198 156.255 209.359Q155.844 210.519 155.461 211.688Q155.078 212.858 154.723 214.037Q154.369 215.216 154.043 216.403Q153.718 217.59 153.421 218.785Q153.125 219.979 152.858 221.181Q152.59 222.382 152.352 223.59Q152.115 224.798 151.906 226.011Q151.698 227.224 151.519 228.442C149.174 249.171 151.335 269.393 160.719 288.254C163.235 293.31 167.82 297.882 169.199 303.324C167.638 306.409 165.961 307.792 162.696 308.891C161.299 308.4 160.179 307.827 159.064 306.846C156.486 304.578 154.601 301.528 152.815 298.626C143.477 283.453 139.177 264.863 138.124 247.223C137.758 241.091 138.357 234.715 139.24 228.641Q139.53 226.534 139.898 224.439Q140.265 222.344 140.71 220.264Q141.155 218.184 141.676 216.122Q142.197 214.06 142.794 212.019Q143.39 209.977 144.062 207.959Q144.734 205.941 145.479 203.949Q146.225 201.957 147.043 199.994Q147.862 198.031 148.752 196.1Q149.643 194.168 150.604 192.271Q151.565 190.373 152.595 188.513Q153.625 186.652 154.724 184.831Q155.822 183.009 156.987 181.23Q158.151 179.45 159.381 177.715Q160.611 175.979 161.903 174.29Q163.196 172.601 164.55 170.961Q165.904 169.321 167.318 167.732Q168.917 165.912 170.597 164.167Q172.278 162.421 174.035 160.754Q175.793 159.086 177.624 157.5Q179.456 155.914 181.357 154.413Q183.258 152.911 185.226 151.497Q187.193 150.084 189.223 148.761Q191.252 147.438 193.34 146.208Q195.427 144.978 197.568 143.844Q199.709 142.711 201.9 141.675Q204.09 140.639 206.325 139.704Q208.56 138.769 210.835 137.936Q213.11 137.103 215.42 136.374Q217.731 135.645 220.072 135.022Q222.413 134.398 224.78 133.882Q227.147 133.365 229.535 132.956Q231.923 132.547 234.327 132.247C237.456 131.846 240.689 131.785 243.84 131.604Z"/>
	<path fill="#FEFEFE" d="M353.094 215.988C354.006 215.934 354.947 215.983 355.818 216.277C357.518 216.85 358.818 218.063 359.598 219.67C360.912 222.379 361.01 226.038 361.379 228.999Q361.785 232.331 361.991 235.682Q362.196 239.033 362.2 242.389Q362.204 245.746 362.006 249.097Q361.808 252.449 361.409 255.782Q361.01 259.115 360.411 262.418Q359.813 265.721 359.017 268.982Q358.222 272.244 357.231 275.451Q356.241 278.659 355.06 281.801Q354.587 283.085 354.082 284.357Q353.578 285.63 353.043 286.889Q352.508 288.149 351.942 289.395Q351.376 290.641 350.78 291.873Q350.184 293.105 349.558 294.322Q348.932 295.539 348.277 296.741Q347.622 297.942 346.937 299.127Q346.253 300.312 345.54 301.48Q344.827 302.648 344.085 303.799Q343.344 304.949 342.575 306.081Q341.805 307.213 341.009 308.326Q340.212 309.439 339.389 310.532Q338.565 311.625 337.716 312.698Q336.866 313.771 335.99 314.822Q335.114 315.874 334.213 316.904Q333.312 317.934 332.386 318.942Q331.46 319.949 330.51 320.934Q329.559 321.919 328.585 322.88Q327.611 323.842 326.614 324.779Q325.617 325.717 324.597 326.629Q323.578 327.542 322.536 328.43Q321.495 329.318 320.432 330.18Q319.369 331.042 318.285 331.877Q317.201 332.713 316.098 333.522Q314.994 334.332 313.871 335.114Q312.748 335.896 311.606 336.65Q310.464 337.404 309.304 338.131Q308.144 338.857 306.967 339.555Q305.789 340.253 304.596 340.922Q303.402 341.591 302.192 342.23Q300.982 342.87 299.757 343.48Q298.532 344.09 297.292 344.67C279.066 353.041 261.734 355.853 241.752 354.344C235.173 353.848 227.781 352.826 221.574 350.522Q220.899 350.31 220.227 350.09C219.641 349.904 219.042 349.734 218.476 349.491C216.152 348.492 215.087 346.347 214.133 344.169C214.757 342.157 215.634 340.176 217.556 339.098C219.949 337.756 222.574 338.691 224.987 339.394Q226.113 339.712 227.247 340.003Q228.381 340.293 229.521 340.556Q230.661 340.819 231.808 341.053Q232.955 341.288 234.106 341.495Q235.258 341.702 236.415 341.881Q237.571 342.059 238.732 342.21Q239.893 342.36 241.057 342.482Q242.221 342.604 243.387 342.698Q244.554 342.792 245.722 342.857Q246.891 342.922 248.06 342.959Q249.23 342.996 250.4 343.004Q251.571 343.012 252.741 342.992Q253.911 342.971 255.08 342.922Q256.25 342.874 257.417 342.796Q258.585 342.719 259.751 342.613Q260.916 342.507 262.079 342.373Q263.241 342.239 264.4 342.076Q265.559 341.914 266.714 341.723Q267.869 341.532 269.018 341.313Q270.168 341.095 271.312 340.848Q272.456 340.601 273.594 340.326Q274.731 340.052 275.862 339.75Q276.992 339.447 278.115 339.117Q279.238 338.788 280.353 338.431Q281.467 338.074 282.573 337.69Q283.678 337.305 284.774 336.895Q285.87 336.484 286.955 336.046Q288.041 335.609 289.115 335.145Q290.19 334.681 291.252 334.191Q292.315 333.701 293.366 333.185Q294.416 332.67 295.454 332.128Q296.492 331.587 297.516 331.021Q298.774 330.336 300.012 329.616Q301.25 328.895 302.466 328.14Q303.683 327.385 304.878 326.595Q306.073 325.805 307.244 324.981Q308.416 324.158 309.564 323.301Q310.711 322.444 311.834 321.555Q312.957 320.666 314.054 319.745Q315.151 318.824 316.221 317.872Q317.291 316.92 318.334 315.938Q319.376 314.956 320.39 313.945Q321.404 312.934 322.389 311.894Q323.374 310.854 324.329 309.787Q325.284 308.719 326.208 307.625Q327.132 306.53 328.024 305.41Q328.916 304.29 329.776 303.144Q330.636 301.999 331.463 300.83Q332.29 299.66 333.083 298.468Q333.876 297.275 334.635 296.061Q335.394 294.846 336.118 293.61Q336.842 292.374 337.53 291.118Q338.218 289.862 338.87 288.587Q339.522 287.312 340.138 286.019Q340.753 284.726 341.332 283.415Q341.91 282.105 342.451 280.779Q342.991 279.453 343.494 278.112Q343.996 276.77 344.46 275.415Q344.925 274.061 345.35 272.693Q345.775 271.325 346.161 269.946Q346.547 268.567 346.894 267.177Q347.24 265.788 347.547 264.389Q347.853 262.99 348.12 261.582Q348.387 260.175 348.613 258.761C349.343 254.354 350.011 249.734 350.102 245.268C350.165 242.169 350.156 238.983 349.942 235.891C349.65 231.668 347.76 223.461 349.031 219.644C349.631 217.841 351.522 216.832 353.094 215.988Z"/>
	<path fill="#FEFEFE" d="M306.486 210.812Q307.188 210.786 307.891 210.793Q308.593 210.801 309.295 210.843Q309.996 210.886 310.695 210.962Q311.393 211.038 312.087 211.149Q312.781 211.259 313.469 211.403Q314.156 211.547 314.836 211.725Q315.516 211.902 316.187 212.113Q316.857 212.323 317.516 212.566Q318.176 212.809 318.822 213.084Q319.469 213.359 320.101 213.665Q320.734 213.971 321.351 214.308Q321.967 214.644 322.567 215.01Q323.167 215.377 323.748 215.772Q324.329 216.167 324.89 216.59Q325.451 217.013 325.99 217.463Q326.53 217.913 327.047 218.389Q327.564 218.864 328.058 219.365Q328.551 219.865 329.019 220.389Q329.487 220.913 329.93 221.459Q330.372 222.005 330.787 222.572Q331.202 223.139 331.588 223.726Q331.975 224.313 332.333 224.917Q332.69 225.522 333.018 226.144Q333.346 226.765 333.643 227.402Q333.94 228.039 334.205 228.689Q334.471 229.34 334.704 230.003Q334.938 230.665 335.139 231.339Q335.34 232.012 335.507 232.694Q335.675 233.377 335.809 234.066Q335.943 234.756 336.044 235.452Q336.144 236.147 336.211 236.847Q336.277 237.546 336.309 238.248Q336.341 238.95 336.339 239.653Q336.337 240.355 336.3 241.057Q336.264 241.759 336.193 242.458Q336.122 243.157 336.018 243.852Q335.913 244.546 335.774 245.235Q335.636 245.924 335.464 246.605Q335.292 247.287 335.087 247.959Q334.882 248.631 334.644 249.292Q334.406 249.953 334.137 250.602Q333.867 251.251 333.566 251.886Q333.265 252.521 332.934 253.14Q332.602 253.76 332.241 254.363Q331.879 254.965 331.489 255.549Q331.098 256.133 330.68 256.698Q330.261 257.262 329.816 257.806Q329.37 258.349 328.899 258.87Q328.427 259.391 327.931 259.888Q327.435 260.386 326.914 260.858Q326.394 261.331 325.852 261.777Q325.309 262.224 324.746 262.643Q324.182 263.063 323.599 263.454Q323.015 263.846 322.413 264.208Q321.811 264.571 321.192 264.903Q320.573 265.236 319.939 265.538Q319.305 265.84 318.656 266.111Q318.008 266.382 317.347 266.621Q316.686 266.86 316.015 267.066Q315.343 267.272 314.662 267.445Q313.981 267.619 313.292 267.758Q312.604 267.898 311.909 268.004Q311.215 268.11 310.516 268.182Q309.817 268.254 309.115 268.292Q308.406 268.33 307.696 268.333Q306.986 268.336 306.277 268.305Q305.568 268.273 304.861 268.206Q304.154 268.139 303.452 268.038Q302.749 267.936 302.052 267.8Q301.356 267.664 300.666 267.493Q299.977 267.323 299.297 267.119Q298.617 266.915 297.948 266.677Q297.279 266.44 296.623 266.17Q295.966 265.9 295.324 265.598Q294.681 265.296 294.055 264.962Q293.428 264.629 292.818 264.265Q292.209 263.901 291.618 263.507Q291.027 263.114 290.457 262.691Q289.886 262.269 289.337 261.819Q288.787 261.369 288.261 260.893Q287.735 260.417 287.233 259.915Q286.731 259.413 286.254 258.887Q285.777 258.361 285.327 257.812Q284.876 257.263 284.454 256.693Q284.031 256.123 283.637 255.532Q283.243 254.942 282.878 254.332Q282.514 253.723 282.18 253.097Q281.846 252.47 281.543 251.828Q281.241 251.186 280.97 250.53Q280.7 249.873 280.462 249.204Q280.224 248.536 280.019 247.856Q279.814 247.176 279.644 246.487Q279.473 245.798 279.336 245.101Q279.199 244.405 279.097 243.702Q278.995 243 278.928 242.293Q278.86 241.586 278.828 240.877Q278.796 240.168 278.798 239.458Q278.801 238.748 278.838 238.039Q278.876 237.33 278.948 236.624Q279.021 235.918 279.128 235.216Q279.235 234.514 279.377 233.819Q279.519 233.123 279.695 232.435Q279.871 231.747 280.08 231.069Q280.29 230.391 280.532 229.724Q280.775 229.057 281.051 228.402Q281.326 227.748 281.633 227.108Q281.941 226.468 282.279 225.844Q282.618 225.22 282.986 224.614Q283.355 224.007 283.754 223.419Q284.152 222.832 284.579 222.264Q285.006 221.697 285.46 221.152Q285.914 220.606 286.395 220.084Q286.875 219.561 287.381 219.063Q287.887 218.565 288.417 218.092Q288.947 217.62 289.499 217.174Q290.051 216.728 290.625 216.31Q291.199 215.892 291.793 215.503Q292.386 215.113 292.998 214.754Q293.611 214.394 294.24 214.065Q294.869 213.737 295.513 213.439Q296.158 213.142 296.816 212.876Q297.475 212.611 298.146 212.379Q298.816 212.146 299.498 211.947Q300.179 211.748 300.87 211.582Q301.56 211.417 302.258 211.286Q302.956 211.155 303.659 211.059Q304.362 210.962 305.069 210.9Q305.777 210.839 306.486 210.812ZM309.843 256.139Q310.252 256.081 310.657 256.002Q311.063 255.924 311.464 255.825Q311.865 255.727 312.261 255.609Q312.657 255.491 313.047 255.354Q313.436 255.217 313.819 255.061Q314.201 254.905 314.576 254.73Q314.95 254.555 315.315 254.362Q315.68 254.169 316.036 253.959Q316.391 253.748 316.735 253.52Q317.08 253.292 317.413 253.048Q317.746 252.803 318.066 252.543Q318.387 252.282 318.694 252.006Q319.001 251.73 319.295 251.439Q319.588 251.149 319.867 250.844Q320.146 250.539 320.409 250.221Q320.672 249.903 320.92 249.572Q321.167 249.241 321.398 248.899Q321.629 248.556 321.843 248.203Q322.057 247.849 322.253 247.486Q322.449 247.122 322.627 246.75Q322.805 246.377 322.965 245.996Q323.125 245.615 323.265 245.226Q323.406 244.838 323.527 244.443Q323.649 244.048 323.75 243.648Q323.852 243.248 323.934 242.843Q324.016 242.438 324.078 242.03Q324.141 241.621 324.182 241.21Q324.224 240.8 324.246 240.387Q324.268 239.975 324.269 239.562Q324.271 239.148 324.252 238.736Q324.233 238.323 324.194 237.912Q324.154 237.501 324.095 237.092Q324.036 236.683 323.956 236.278Q323.877 235.872 323.778 235.472Q323.679 235.071 323.56 234.675Q323.441 234.279 323.303 233.89Q323.165 233.501 323.008 233.119Q322.851 232.737 322.676 232.363Q322.5 231.989 322.306 231.624Q322.113 231.259 321.901 230.904Q321.69 230.55 321.461 230.206Q321.232 229.861 320.987 229.529Q320.742 229.197 320.481 228.877Q320.219 228.557 319.943 228.25Q319.666 227.943 319.375 227.651Q319.083 227.358 318.778 227.08Q318.472 226.802 318.154 226.539Q317.835 226.276 317.504 226.03Q317.172 225.783 316.829 225.553Q316.486 225.323 316.132 225.11Q315.779 224.897 315.415 224.701Q315.051 224.506 314.678 224.329Q314.305 224.151 313.923 223.993Q313.542 223.834 313.153 223.694Q312.765 223.554 312.369 223.434Q311.974 223.313 311.574 223.212Q311.173 223.111 310.768 223.03Q310.363 222.949 309.955 222.888Q309.546 222.827 309.135 222.786Q308.724 222.745 308.312 222.724Q307.899 222.703 307.486 222.703Q307.073 222.702 306.66 222.722Q306.248 222.742 305.837 222.782Q305.426 222.822 305.017 222.882Q304.609 222.942 304.205 223.022Q303.801 223.102 303.402 223.202Q303.002 223.301 302.608 223.42Q302.213 223.539 301.825 223.678Q301.437 223.816 301.057 223.973Q300.676 224.13 300.303 224.306Q299.931 224.481 299.567 224.675Q299.204 224.869 298.85 225.08Q298.496 225.291 298.154 225.519Q297.811 225.748 297.479 225.993Q297.148 226.237 296.829 226.498Q296.51 226.759 296.205 227.035Q295.899 227.311 295.607 227.602Q295.315 227.893 295.038 228.197Q294.761 228.502 294.499 228.82Q294.237 229.138 293.991 229.468Q293.745 229.798 293.516 230.14Q293.286 230.482 293.073 230.835Q292.861 231.188 292.666 231.551Q292.471 231.914 292.294 232.286Q292.117 232.658 291.958 233.038Q291.8 233.418 291.66 233.805Q291.52 234.193 291.4 234.587Q291.279 234.981 291.178 235.38Q291.077 235.779 290.996 236.183Q290.914 236.587 290.853 236.994Q290.791 237.401 290.749 237.811Q290.708 238.221 290.687 238.632Q290.665 239.044 290.664 239.455Q290.663 239.867 290.682 240.279Q290.701 240.69 290.74 241.1Q290.779 241.51 290.838 241.918Q290.897 242.326 290.976 242.73Q291.055 243.134 291.154 243.534Q291.253 243.934 291.371 244.328Q291.489 244.723 291.627 245.111Q291.764 245.5 291.92 245.881Q292.077 246.262 292.251 246.635Q292.426 247.008 292.619 247.372Q292.812 247.736 293.022 248.09Q293.233 248.444 293.46 248.787Q293.688 249.131 293.932 249.462Q294.176 249.794 294.436 250.114Q294.696 250.433 294.972 250.739Q295.247 251.046 295.537 251.338Q295.827 251.631 296.131 251.909Q296.435 252.186 296.753 252.449Q297.07 252.712 297.4 252.958Q297.729 253.205 298.071 253.436Q298.412 253.666 298.765 253.879Q299.117 254.093 299.48 254.288Q299.842 254.484 300.214 254.662Q300.585 254.84 300.965 254.999Q301.345 255.159 301.732 255.299Q302.119 255.44 302.513 255.561Q302.906 255.683 303.306 255.785Q303.705 255.887 304.108 255.969Q304.512 256.051 304.919 256.114Q305.326 256.176 305.736 256.219Q306.145 256.261 306.557 256.283Q306.968 256.306 307.38 256.308Q307.792 256.31 308.203 256.292Q308.615 256.274 309.025 256.235Q309.435 256.197 309.843 256.139Z"/>
	<path fill="#FEFEFE" d="M205.344 315.554C206.344 315.622 207.208 315.878 208.066 316.416C209.973 317.612 210.625 319.593 211.132 321.649Q210.968 322.233 210.758 322.802C210.288 324.105 209.758 325.029 208.683 325.923C206.337 327.874 203.266 329.176 200.613 330.672C194.636 334.042 188.769 337.569 182.576 340.539C172.096 345.566 156.189 352.026 144.748 347.758C141.495 346.544 139.278 344.281 137.852 341.148C137.139 338.984 136.855 336.76 136.921 334.486C137.009 331.475 137.711 328.014 140.065 325.933C141.125 324.996 142.392 324.466 143.818 324.571C146.13 324.742 147.837 326.255 149.224 327.956C149.369 330.397 148.893 332.851 149.1 335.282C149.162 336.005 149.288 336.864 149.948 337.287C151.406 338.221 154.188 337.648 155.819 337.424C167.302 335.843 180.898 328.526 190.904 322.893C195.043 320.563 200.778 316.223 205.344 315.554Z"/>
	<path fill="#FEFEFE" d="M346.581 131.536C347.725 131.458 348.882 131.36 350.008 131.643C353.591 132.545 356.044 136.623 357.759 139.622C362.699 148.261 362.597 156.107 359.957 165.506Q358.435 170.734 356.081 175.645C353.318 181.456 345.614 194.972 340.196 197.988C339.834 198.136 339.468 198.281 339.092 198.391Q338.853 198.46 338.608 198.506Q338.363 198.551 338.115 198.571Q337.867 198.592 337.618 198.588Q337.369 198.583 337.122 198.554Q336.875 198.525 336.632 198.471Q336.389 198.418 336.152 198.34Q335.916 198.262 335.688 198.161Q335.46 198.06 335.244 197.937C333.232 196.813 332.457 194.729 331.923 192.63C333.064 188.138 337.113 184.345 339.671 180.579C343.366 175.138 346.57 169.299 348.4 162.955C350.211 156.679 350.678 150.962 347.2 145.174C346.1 143.343 344.719 141.662 343.722 139.77C342.942 138.288 342.428 136.504 343.017 134.86C343.599 133.236 345.075 132.216 346.581 131.536Z"/>
	<path fill="#FEFEFE" d="M264.139 268.927Q264.435 268.887 264.732 268.861Q265.029 268.835 265.327 268.824Q265.625 268.813 265.923 268.817Q266.221 268.82 266.519 268.839Q266.817 268.857 267.113 268.89Q267.41 268.923 267.704 268.971Q267.998 269.019 268.29 269.081Q268.582 269.143 268.87 269.219Q269.158 269.296 269.443 269.386Q269.727 269.477 270.006 269.582Q270.285 269.686 270.559 269.804Q270.833 269.923 271.101 270.054Q271.368 270.186 271.629 270.33Q271.89 270.475 272.144 270.632Q272.397 270.79 272.642 270.959Q272.888 271.129 273.124 271.31Q273.361 271.492 273.588 271.685Q273.816 271.878 274.033 272.082Q274.251 272.286 274.458 272.501Q274.665 272.715 274.862 272.939Q275.058 273.164 275.243 273.398Q275.428 273.632 275.601 273.875Q275.775 274.117 275.936 274.368Q276.097 274.619 276.245 274.878Q276.394 275.137 276.53 275.402Q276.665 275.668 276.787 275.94Q276.91 276.212 277.018 276.49Q277.127 276.767 277.222 277.05Q277.317 277.333 277.398 277.62Q277.478 277.907 277.545 278.198Q277.611 278.489 277.663 278.782Q277.715 279.076 277.753 279.372Q277.79 279.668 277.813 279.965Q277.836 280.263 277.844 280.561Q277.852 280.859 277.846 281.157Q277.839 281.455 277.818 281.753Q277.797 282.05 277.761 282.346Q277.725 282.642 277.674 282.936Q277.624 283.23 277.559 283.521Q277.494 283.813 277.414 284.1Q277.335 284.388 277.242 284.671Q277.148 284.954 277.041 285.232Q276.934 285.511 276.813 285.783Q276.692 286.056 276.558 286.322Q276.423 286.589 276.276 286.848Q276.129 287.108 275.969 287.359Q275.81 287.611 275.637 287.855Q275.465 288.099 275.282 288.333Q275.098 288.568 274.902 288.794Q274.707 289.019 274.501 289.235Q274.295 289.45 274.078 289.656Q273.862 289.861 273.636 290.055Q273.409 290.249 273.173 290.432Q272.938 290.615 272.693 290.786Q272.449 290.956 272.196 291.115Q271.944 291.274 271.684 291.42Q271.424 291.566 271.157 291.699Q270.89 291.831 270.616 291.951Q270.343 292.071 270.064 292.177Q269.786 292.283 269.502 292.375Q269.218 292.467 268.93 292.545Q268.642 292.623 268.351 292.686Q268.06 292.75 267.765 292.799Q267.471 292.848 267.175 292.883Q266.882 292.917 266.589 292.937Q266.295 292.957 266 292.962Q265.706 292.968 265.411 292.959Q265.117 292.95 264.823 292.927Q264.529 292.904 264.237 292.866Q263.945 292.829 263.655 292.777Q263.365 292.726 263.078 292.66Q262.791 292.594 262.507 292.514Q262.224 292.435 261.944 292.341Q261.665 292.248 261.39 292.141Q261.116 292.034 260.847 291.914Q260.578 291.794 260.315 291.66Q260.052 291.527 259.797 291.381Q259.541 291.236 259.292 291.077Q259.043 290.919 258.803 290.749Q258.562 290.579 258.33 290.398Q258.099 290.216 257.876 290.023Q257.653 289.831 257.44 289.627Q257.227 289.424 257.024 289.211Q256.821 288.997 256.628 288.774Q256.436 288.551 256.255 288.319Q256.073 288.086 255.904 287.846Q255.734 287.605 255.576 287.356Q255.419 287.107 255.273 286.851Q255.128 286.595 254.995 286.332Q254.862 286.069 254.742 285.8Q254.623 285.531 254.516 285.256Q254.41 284.981 254.317 284.702Q254.224 284.422 254.144 284.139Q254.065 283.855 254 283.568Q253.935 283.28 253.883 282.99Q253.832 282.7 253.795 282.408Q253.758 282.116 253.735 281.822Q253.713 281.528 253.704 281.234Q253.696 280.939 253.702 280.645Q253.708 280.35 253.728 280.057Q253.748 279.763 253.783 279.47Q253.818 279.178 253.867 278.887Q253.915 278.597 253.978 278.309Q254.041 278.021 254.118 277.737Q254.195 277.453 254.286 277.172Q254.377 276.892 254.481 276.617Q254.585 276.341 254.703 276.071Q254.82 275.801 254.951 275.537Q255.081 275.273 255.225 275.015Q255.368 274.758 255.524 274.508Q255.68 274.258 255.847 274.016Q256.015 273.774 256.194 273.54Q256.374 273.306 256.564 273.082Q256.755 272.857 256.956 272.642Q257.157 272.427 257.369 272.222Q257.58 272.017 257.801 271.822Q258.022 271.628 258.253 271.444Q258.483 271.261 258.723 271.089Q258.962 270.917 259.209 270.756Q259.456 270.596 259.711 270.448Q259.966 270.3 260.227 270.165Q260.489 270.03 260.757 269.907Q261.025 269.785 261.298 269.676Q261.572 269.567 261.85 269.471Q262.129 269.375 262.412 269.293Q262.695 269.211 262.981 269.143Q263.268 269.075 263.558 269.021Q263.847 268.967 264.139 268.927Z"/>
	<path fill="#FEFEFE" d="M230.408 296.506Q230.622 296.478 230.838 296.461Q231.053 296.444 231.269 296.437Q231.485 296.43 231.701 296.434Q231.917 296.438 232.133 296.453Q232.349 296.468 232.563 296.493Q232.778 296.518 232.991 296.554Q233.204 296.589 233.415 296.636Q233.626 296.682 233.835 296.738Q234.043 296.795 234.249 296.861Q234.455 296.928 234.657 297.005Q234.859 297.081 235.057 297.168Q235.255 297.255 235.448 297.351Q235.642 297.447 235.83 297.552Q236.019 297.658 236.202 297.773Q236.385 297.887 236.563 298.011Q236.74 298.135 236.911 298.267Q237.082 298.399 237.246 298.539Q237.41 298.68 237.568 298.828Q237.725 298.976 237.875 299.132Q238.024 299.288 238.166 299.451Q238.308 299.614 238.442 299.784Q238.575 299.953 238.701 300.13Q238.826 300.306 238.942 300.488Q239.058 300.67 239.166 300.858Q239.273 301.045 239.371 301.238Q239.469 301.43 239.557 301.628Q239.646 301.825 239.724 302.026Q239.803 302.228 239.871 302.432Q239.94 302.637 239.998 302.846Q240.056 303.054 240.104 303.264Q240.153 303.475 240.19 303.688Q240.228 303.901 240.255 304.115Q240.282 304.329 240.299 304.545Q240.315 304.76 240.321 304.976Q240.327 305.192 240.323 305.408Q240.318 305.624 240.303 305.84Q240.287 306.055 240.261 306.27Q240.236 306.484 240.199 306.697Q240.163 306.91 240.116 307.121Q240.069 307.332 240.012 307.541Q239.955 307.749 239.888 307.954Q239.82 308.16 239.743 308.362Q239.666 308.563 239.579 308.761Q239.492 308.959 239.395 309.152Q239.298 309.345 239.192 309.533Q239.086 309.722 238.971 309.905Q238.855 310.087 238.731 310.264Q238.607 310.441 238.475 310.612Q238.342 310.782 238.201 310.946Q238.06 311.11 237.912 311.267Q237.763 311.423 237.607 311.573Q237.45 311.722 237.287 311.863Q237.123 312.005 236.953 312.138Q236.783 312.271 236.607 312.396Q236.43 312.52 236.248 312.636Q236.065 312.752 235.877 312.858Q235.689 312.965 235.496 313.063Q235.304 313.16 235.106 313.248Q234.909 313.335 234.707 313.413Q234.506 313.491 234.3 313.559Q234.095 313.627 233.887 313.685Q233.679 313.743 233.468 313.79Q233.257 313.837 233.044 313.874Q232.831 313.911 232.617 313.938Q232.403 313.964 232.189 313.98Q231.974 313.996 231.759 314.002Q231.544 314.007 231.328 314.002Q231.113 313.997 230.898 313.981Q230.684 313.965 230.47 313.939Q230.256 313.913 230.044 313.876Q229.832 313.84 229.622 313.793Q229.412 313.746 229.204 313.689Q228.997 313.632 228.792 313.564Q228.588 313.497 228.387 313.42Q228.186 313.343 227.989 313.256Q227.792 313.169 227.6 313.072Q227.407 312.976 227.22 312.87Q227.032 312.764 226.85 312.649Q226.668 312.534 226.492 312.411Q226.316 312.287 226.146 312.155Q225.976 312.023 225.812 311.882Q225.649 311.742 225.493 311.594Q225.337 311.446 225.188 311.29Q225.039 311.135 224.898 310.972Q224.757 310.809 224.624 310.64Q224.492 310.471 224.367 310.295Q224.243 310.119 224.127 309.938Q224.012 309.756 223.905 309.569Q223.798 309.382 223.701 309.19Q223.604 308.998 223.516 308.801Q223.428 308.605 223.35 308.404Q223.272 308.203 223.204 307.999Q223.136 307.795 223.078 307.588Q223.02 307.38 222.972 307.17Q222.924 306.961 222.887 306.749Q222.849 306.537 222.822 306.323Q222.795 306.109 222.778 305.895Q222.762 305.68 222.756 305.465Q222.75 305.25 222.754 305.035Q222.759 304.819 222.774 304.605Q222.789 304.39 222.814 304.176Q222.84 303.962 222.876 303.75Q222.912 303.538 222.958 303.328Q223.005 303.117 223.061 302.91Q223.118 302.702 223.185 302.497Q223.251 302.293 223.328 302.092Q223.404 301.89 223.491 301.693Q223.577 301.496 223.673 301.303Q223.769 301.111 223.874 300.923Q223.98 300.735 224.094 300.553Q224.208 300.37 224.331 300.194Q224.455 300.017 224.586 299.847Q224.718 299.676 224.858 299.513Q224.997 299.349 225.145 299.192Q225.293 299.036 225.448 298.887Q225.603 298.737 225.765 298.596Q225.928 298.454 226.097 298.321Q226.266 298.188 226.441 298.063Q226.616 297.938 226.798 297.822Q226.979 297.706 227.165 297.599Q227.352 297.491 227.544 297.393Q227.736 297.296 227.932 297.207Q228.128 297.119 228.329 297.04Q228.529 296.962 228.733 296.893Q228.937 296.824 229.144 296.766Q229.351 296.707 229.561 296.658Q229.771 296.61 229.983 296.572Q230.195 296.534 230.408 296.506Z"/>
</svg>
