<svg width="7" height="12" viewBox="0 0 7 12" fill="none" xmlns="http://www.w3.org/2000/svg">
<mask id="path-1-inside-1" fill="white">
<path d="M0.986364 0L0 0.978947L5.05909 6L0 11.0211L0.986364 12L7 6L0.986364 0Z"/>
</mask>
<path d="M0.986364 0L0 0.978947L5.05909 6L0 11.0211L0.986364 12L7 6L0.986364 0Z" fill="#00D7F4"/>
<path d="M0.986364 0L4.51788 -3.53954L0.995669 -7.05377L-2.5358 -3.54885L0.986364 0ZM0 0.978947L-3.52217 -2.5699L-7.0979 0.978947L-3.52217 4.5278L0 0.978947ZM5.05909 6L8.58126 9.54885L12.157 6L8.58126 2.45115L5.05909 6ZM0 11.0211L-3.52217 7.4722L-7.0979 11.0211L-3.52217 14.5699L0 11.0211ZM0.986364 12L-2.5358 15.5489L0.995671 19.0538L4.51788 15.5395L0.986364 12ZM7 6L10.5315 9.53954L14.0791 6L10.5315 2.46045L7 6ZM-2.5358 -3.54885L-3.52217 -2.5699L3.52217 4.5278L4.50853 3.54885L-2.5358 -3.54885ZM-3.52217 4.5278L1.53692 9.54885L8.58126 2.45115L3.52217 -2.5699L-3.52217 4.5278ZM1.53692 2.45115L-3.52217 7.4722L3.52217 14.5699L8.58126 9.54885L1.53692 2.45115ZM-3.52217 14.5699L-2.5358 15.5489L4.50853 8.45115L3.52217 7.4722L-3.52217 14.5699ZM4.51788 15.5395L10.5315 9.53954L3.46848 2.46045L-2.54515 8.46045L4.51788 15.5395ZM10.5315 2.46045L4.51788 -3.53954L-2.54515 3.53954L3.46848 9.53954L10.5315 2.46045Z" fill="#00D7F4" mask="url(#path-1-inside-1)"/>
</svg>
