<svg width="16" height="14" viewBox="0 0 16 14" fill="none" xmlns="http://www.w3.org/2000/svg">
<path d="M13.8048 8.80201C13.728 8.26841 13.316 7.85241 12.7856 7.72841C10.724 7.24521 10.2072 6.05801 10.12 4.74121C9.75442 4.67321 9.10402 4.59961 8.00002 4.59961C6.89602 4.59961 6.24562 4.67321 5.88002 4.74121C5.79282 6.05801 5.27602 7.24521 3.21442 7.72841C2.68402 7.85321 2.27202 8.26841 2.19522 8.80201L1.79762 11.5556C1.65762 12.5252 2.36962 13.3996 3.36002 13.3996H12.64C13.6296 13.3996 14.3424 12.5252 14.2024 11.5556L13.8048 8.80201ZM8.00002 11.3932C6.88402 11.3932 5.97922 10.4972 5.97922 9.39321C5.97922 8.28921 6.88402 7.39321 8.00002 7.39321C9.11602 7.39321 10.0208 8.28921 10.0208 9.39321C10.0208 10.4972 9.11522 11.3932 8.00002 11.3932ZM15.96 3.79961C15.9408 2.59961 12.8864 0.600409 8.00002 0.599609C3.11282 0.600409 0.0584229 2.59961 0.0400229 3.79961C0.0216229 4.99961 0.056823 6.56121 2.06802 6.30121C4.42082 5.99641 4.27602 5.17481 4.27602 4.00041C4.27602 3.18121 6.18962 2.98361 8.00002 2.98361C9.81042 2.98361 11.7232 3.18121 11.724 4.00041C11.724 5.17481 11.5792 5.99641 13.932 6.30121C15.9424 6.56121 15.9784 4.99961 15.96 3.79961Z" fill="#444444"/>
</svg>
