<svg width="101" height="84" viewBox="0 0 101 84" fill="none" xmlns="http://www.w3.org/2000/svg">
<path d="M75.1505 12.9257L75.1361 12.9309H75.1579H90.9318C96.054 12.9309 100.203 17.0582 100.203 22.1538V74.7692C100.203 79.8649 96.054 83.9922 90.9318 83.9922H9.27875C4.15652 83.9922 0.0078125 79.8649 0.0078125 74.7692V22.1538C0.0078125 17.0582 4.15652 12.9309 9.27875 12.9309H25.0526V12.9462L25.06 12.9257L28.8295 2.4488L28.8295 2.44878C29.3503 0.986546 30.7507 0.00781395 32.3133 0.00781395L67.8973 0.00781395C68.6617 0.00714165 69.4076 0.241248 70.0332 0.678147C70.6588 1.11504 71.1336 1.73343 71.3926 2.44879L75.1505 12.9257ZM31.5399 47.0769C31.5399 57.2813 39.848 65.5463 50.1053 65.5463C60.3626 65.5463 68.6706 57.2813 68.6706 47.0769C68.6706 36.8726 60.3626 28.6076 50.1053 28.6076C39.848 28.6076 31.5399 36.8726 31.5399 47.0769ZM42.2375 54.904C40.1508 52.8281 38.9786 50.0126 38.9786 47.0769C38.9786 44.1412 40.1508 41.3258 42.2375 39.2499C44.3241 37.174 47.1543 36.0078 50.1053 36.0078C53.0563 36.0078 55.8864 37.174 57.973 39.2499C60.0597 41.3258 61.232 44.1412 61.232 47.0769C61.232 50.0126 60.0597 52.8281 57.973 54.904C55.8864 56.9798 53.0563 58.146 50.1053 58.146C47.1543 58.146 44.3241 56.9798 42.2375 54.904Z" fill="#444444" stroke="white" stroke-width="0.015625"/>
</svg>
