<svg width="20" height="20" viewBox="0 0 20 20" fill="none" xmlns="http://www.w3.org/2000/svg">
<path d="M10 0C4.47768 0 0 4.47768 0 10C0 15.5223 4.47768 20 10 20C15.5223 20 20 15.5223 20 10C20 4.47768 15.5223 0 10 0ZM13.692 13.7991L12.2188 13.7924L10 11.1473L7.78348 13.7902L6.30804 13.7969C6.20982 13.7969 6.12946 13.7188 6.12946 13.6183C6.12946 13.5759 6.14509 13.5357 6.17188 13.5022L9.07589 10.0424L6.17188 6.58482C6.1449 6.55211 6.12994 6.51115 6.12946 6.46875C6.12946 6.37054 6.20982 6.29018 6.30804 6.29018L7.78348 6.29688L10 8.94197L12.2165 6.29911L13.6897 6.29241C13.7879 6.29241 13.8683 6.37054 13.8683 6.47098C13.8683 6.51339 13.8527 6.55357 13.8259 6.58705L10.9263 10.0446L13.8281 13.5045C13.8549 13.5379 13.8705 13.5781 13.8705 13.6205C13.8705 13.7188 13.7902 13.7991 13.692 13.7991Z" fill="white"/>
</svg>
