<svg width="20" height="20" viewBox="0 0 20 20" fill="none" xmlns="http://www.w3.org/2000/svg">
<path fill-rule="evenodd" clip-rule="evenodd" d="M10 18.75C12.3206 18.75 14.5462 17.8281 16.1872 16.1872C17.8281 14.5462 18.75 12.3206 18.75 10C18.75 7.67936 17.8281 5.45376 16.1872 3.81282C14.5462 2.17187 12.3206 1.25 10 1.25C7.67936 1.25 5.45376 2.17187 3.81282 3.81282C2.17187 5.45376 1.25 7.67936 1.25 10C1.25 12.3206 2.17187 14.5462 3.81282 16.1872C5.45376 17.8281 7.67936 18.75 10 18.75ZM10 20C12.6522 20 15.1957 18.9464 17.0711 17.0711C18.9464 15.1957 20 12.6522 20 10C20 7.34784 18.9464 4.8043 17.0711 2.92893C15.1957 1.05357 12.6522 0 10 0C7.34784 0 4.8043 1.05357 2.92893 2.92893C1.05357 4.8043 0 7.34784 0 10C0 12.6522 1.05357 15.1957 2.92893 17.0711C4.8043 18.9464 7.34784 20 10 20Z" fill="white"/>
<path fill-rule="evenodd" clip-rule="evenodd" d="M13.7126 6.21309C13.8875 6.03968 14.1237 5.94209 14.37 5.94141C14.6163 5.94073 14.853 6.03702 15.0289 6.20946C15.2048 6.38191 15.3057 6.61664 15.3099 6.86293C15.3141 7.10922 15.2212 7.34726 15.0513 7.52559L10.0613 13.7631C9.97556 13.8555 9.87206 13.9296 9.75699 13.9811C9.64192 14.0325 9.51766 14.0602 9.39164 14.0626C9.26561 14.0649 9.14041 14.0418 9.02352 13.9946C8.90663 13.9475 8.80045 13.8772 8.71133 13.7881L5.40507 10.4806C5.31297 10.3948 5.23909 10.2913 5.18785 10.1763C5.13661 10.0613 5.10906 9.93713 5.10684 9.81125C5.10461 9.68537 5.12777 9.56033 5.17492 9.4436C5.22207 9.32686 5.29225 9.22082 5.38128 9.1318C5.4703 9.04277 5.57634 8.97259 5.69308 8.92544C5.80981 8.87829 5.93485 8.85513 6.06073 8.85735C6.18661 8.85958 6.31075 8.88713 6.42575 8.93837C6.54075 8.98961 6.64425 9.06349 6.73007 9.15559L9.34758 11.7718L13.6888 6.24059C13.6966 6.23091 13.7049 6.22173 13.7138 6.21309H13.7126Z" fill="white"/>
</svg>
