<svg width="110" height="110" viewBox="0 0 110 110" fill="none" xmlns="http://www.w3.org/2000/svg">
<path d="M55 0C44.122 0 33.4884 3.22569 24.4437 9.26917C15.399 15.3126 8.34947 23.9025 4.18665 33.9524C0.0238306 44.0023 -1.06535 55.061 1.05683 65.7299C3.17902 76.3989 8.41726 86.199 16.1091 93.8908C23.801 101.583 33.6011 106.821 44.2701 108.943C54.939 111.065 65.9977 109.976 76.0476 105.813C86.0975 101.651 94.6874 94.601 100.731 85.5563C106.774 76.5116 110 65.878 110 55C110 40.4131 104.205 26.4236 93.8909 16.1091C83.5764 5.79462 69.5869 0 55 0ZM31.4286 95.7785V87.9214C31.2561 84.6039 32.3954 81.3517 34.6006 78.8672C36.8058 76.3827 39.8998 74.8653 43.2143 74.6428H66.7857C70.1074 74.8652 73.2075 76.3881 75.4138 78.8812C77.6201 81.3743 78.7546 84.6366 78.5714 87.9607V95.8178C71.4154 99.9865 63.2818 102.183 55 102.183C46.7183 102.183 38.5847 99.9865 31.4286 95.8178V95.7785ZM86.4286 90.0428V87.6464C86.5357 82.2904 84.5387 77.1058 80.8662 73.2056C77.1937 69.3055 72.1385 67.0006 66.7857 66.7857H43.2143C37.8581 66.9906 32.7969 69.2924 29.1223 73.1948C25.4477 77.0972 23.4541 82.2875 23.5714 87.6464V89.9643C16.4551 83.5992 11.4391 75.2234 9.18719 65.9451C6.9353 56.6669 7.55367 46.9236 10.9605 38.0045C14.3673 29.0853 20.4019 21.4109 28.2659 15.9965C36.1298 10.5822 45.4524 7.68322 55 7.68322C64.5476 7.68322 73.8702 10.5822 81.7342 15.9965C89.5981 21.4109 95.6328 29.0853 99.0396 38.0045C102.446 46.9236 103.065 56.6669 100.813 65.9451C98.5609 75.2234 93.5449 83.5992 86.4286 89.9643V90.0428Z" fill="#00D7F4"/>
<path d="M55 20C51.0444 20 47.1776 21.1437 43.8886 23.2863C40.5996 25.429 38.0362 28.4745 36.5224 32.0377C35.0087 35.6008 34.6126 39.5216 35.3843 43.3043C36.156 47.0869 38.0608 50.5614 40.8579 53.2886C43.6549 56.0157 47.2186 57.8729 51.0982 58.6253C54.9778 59.3777 58.9992 58.9916 62.6537 57.5156C66.3082 56.0397 69.4318 53.5404 71.6294 50.3336C73.827 47.1269 75 43.3567 75 39.5C75 34.3283 72.8929 29.3684 69.1421 25.7114C65.3914 22.0545 60.3043 20 55 20ZM55 51.2C52.6266 51.2 50.3066 50.5138 48.3332 49.2282C46.3598 47.9426 44.8217 46.1153 43.9135 43.9774C43.0052 41.8395 42.7676 39.487 43.2306 37.2174C43.6936 34.9479 44.8365 32.8631 46.5147 31.2268C48.193 29.5906 50.3312 28.4763 52.6589 28.0248C54.9867 27.5734 57.3995 27.8051 59.5922 28.6906C61.7849 29.5762 63.6591 31.0758 64.9776 32.9998C66.2962 34.9239 67 37.186 67 39.5C67 42.603 65.7357 45.579 63.4853 47.7731C61.2348 49.9673 58.1826 51.2 55 51.2Z" fill="#00D7F4"/>
</svg>