<svg viewBox="0 0 512 512" fill="none" xmlns="http://www.w3.org/2000/svg">
<path d="M506.499,158.874L353.139,5.514c-6.226-6.227-13.039-5.487-18.226-5.487c-13.189,0-308.271,0-316.168,0 C8.4,0.027,0.014,8.414,0.014,18.758v474.511C0.014,503.613,8.4,512,18.744,512c4.503,0,464.273,0,474.511,0 c10.344,0,18.731-8.386,18.731-18.731v-321.15C511.986,167.151,510.012,162.386,506.499,158.874z M152.528,37.489h163.654v102.687 H152.528V37.489z M379.709,474.538H132.292v-73.985h247.416V474.538z M379.709,363.092h-0.001H132.292v-73.985h247.416V363 092z M474.525,474.538h-57.356V270.376c0-10.344-8.386-18.731-18.731-18.731H113.562c-10.344,0-18.731,8.386-18.731,18.731v204.162 H37.475V37.489h77.591v121.417c0,10.344,8.386,18.731,18.731,18.731h201.115c10.344,0,18.731-8.386,18.731-18.731v-99.91
l120.882,120.882V474.538z" fill="white" stroke="white" stroke-width="0.5"/>
</svg>