<svg width="20" height="19" viewBox="0 0 20 19" fill="none" xmlns="http://www.w3.org/2000/svg">
<path d="M12.91 6.04571L13.0266 6.28089L13.2864 6.31845L19.2805 7.18507C19.2807 7.1851 19.2809 7.18513 19.2811 7.18516C19.4277 7.20717 19.517 7.33806 19.4971 7.46656L19.497 7.46655L19.4962 7.47211C19.4887 7.52487 19.4636 7.57486 19.4229 7.61467C19.4228 7.6148 19.4227 7.61494 19.4225 7.61507L15.0855 11.8215L14.896 12.0053L14.9409 12.2654L15.9658 18.2065L15.9658 18.2069C15.9889 18.3397 15.8995 18.4712 15.7576 18.4955L15.7569 18.4957C15.7006 18.5054 15.6432 18.4958 15.5968 18.4713L15.5945 18.4701L10.2318 15.6652L10 15.544L9.76831 15.6652L4.40556 18.4701L4.40479 18.4705C4.36255 18.4927 4.3147 18.5028 4.26675 18.4994C4.21879 18.496 4.17298 18.4793 4.13449 18.4514C4.09602 18.4237 4.0665 18.386 4.04891 18.3429C4.03133 18.2998 4.02627 18.2528 4.03421 18.2072L4.03432 18.2065L5.05917 12.2654L5.10405 12.0053L4.91456 11.8215L0.576659 7.61417L0.576626 7.61414C0.528148 7.56713 0.500903 7.50345 0.500022 7.43726C0.499145 7.37136 0.524457 7.30729 0.571234 7.25914C0.611211 7.21884 0.662161 7.19324 0.716869 7.18547L0.718062 7.1853L6.71367 6.31845L6.97347 6.28089L7.09008 6.04571L9.76907 0.642698C9.76923 0.642382 9.76939 0.642066 9.76955 0.641751C9.8333 0.516191 9.98863 0.464286 10.115 0.526329L10.1155 0.526613C10.1655 0.551081 10.2055 0.591106 10.2296 0.63984L10.2298 0.640273L12.91 6.04571Z" stroke="#53B8F0"/>
</svg>
