<svg width="200" height="200" viewBox="0 0 189 189" fill="none" xmlns="http://www.w3.org/2000/svg">
<circle cx="94.5" cy="94.5" r="94" fill="white" stroke="white"/>
<path d="M90.1019 114.403L118.463 78.2672C118.464 78.2666 118.464 78.266 118.465 78.2654C118.502 78.2192 118.542 78.1753 118.584 78.1341L118.816 77.9094C119.837 77.0072 121.155 76.5038 122.525 76.5C124.003 76.4959 125.423 77.0737 126.478 78.1084C127.534 79.1431 128.14 80.5517 128.165 82.0295C128.19 83.5073 127.633 84.9356 126.613 86.0057L126.598 86.0213L126.585 86.0382L93.9933 126.777C93.4811 127.326 92.8644 127.766 92.1795 128.072C91.489 128.381 90.7434 128.547 89.9872 128.561C89.231 128.575 88.4798 128.436 87.7784 128.154C87.077 127.871 86.4399 127.449 85.9051 126.914L64.3032 105.304L64.2969 105.298L64.2904 105.292C63.7377 104.777 63.2944 104.156 62.987 103.466C62.6795 102.776 62.5142 102.031 62.5009 101.275C62.4875 100.52 62.6265 99.7699 62.9094 99.0694C63.1923 98.369 63.6134 97.7327 64.1476 97.1985C64.6818 96.6644 65.3181 96.2433 66.0185 95.9603C66.719 95.6774 67.4692 95.5385 68.2246 95.5518C68.9799 95.5651 69.7248 95.7304 70.4148 96.0379C71.1048 96.3454 71.7259 96.7886 72.2409 97.3413L72.2469 97.3478L72.2532 97.3541L89.3551 114.448L89.7538 114.846L90.1019 114.403Z" fill="#2F2E41" stroke="#2F2E41"/>
</svg>