<svg id="_5883828_astronaut_capsule_landing_space_icon_1_" data-name="5883828_astronaut_capsule_landing_space_icon (1)" xmlns="http://www.w3.org/2000/svg" width="86.773" height="84.203" viewBox="0 0 86.773 84.203">
  <g id="Colors" transform="translate(1.063 0.712)">
    <path id="Caminho_479" data-name="Caminho 479" d="M49.73,416.038S60.6,410.891,60.782,399H89.356s.71,14.376,14.11,16.861" transform="translate(-44.097 -333.435)" fill="#f9b191"/>
    <g id="Grupo_123" data-name="Grupo 123" transform="translate(7.456 80.297)" opacity="0.15">
      <path id="Caminho_480" data-name="Caminho 480" d="M63.372,482H105.79l4.082,2.662H60Z" transform="translate(-60 -482)" fill="#3f456b"/>
    </g>
    <g id="Grupo_124" data-name="Grupo 124" transform="translate(42.124 66.63)" opacity="0.15">
      <path id="Caminho_481" data-name="Caminho 481" d="M255.329,405.055s-.117,11.126,6.627,16.273h10.885s-13.547-4.2-14.2-16.328Z" transform="translate(-255.329 -405)" fill="#3f456b"/>
    </g>
    <g id="Grupo_125" data-name="Grupo 125" transform="translate(16.863 65.747)" opacity="0.3">
      <path id="Caminho_482" data-name="Caminho 482" d="M113,400.02h7.6l3.046,2.4H113Z" transform="translate(-113 -400.02)" fill="#fff"/>
    </g>
    <path id="Caminho_483" data-name="Caminho 483" d="M24.846,83.64A6.854,6.854,0,1,0,31.7,90.493a6.854,6.854,0,0,0-6.853-6.853Z" transform="translate(-17.99 -74.045)" fill="#ffd2a6"/>
    <g id="Grupo_126" data-name="Grupo 126" transform="translate(0.832 10.425)" opacity="0.3">
      <path id="Caminho_484" data-name="Caminho 484" d="M26.735,88.32a4.055,4.055,0,1,0,4.055,4.055,4.055,4.055,0,0,0-4.055-4.055Z" transform="translate(-22.68 -88.32)" fill="#fff"/>
    </g>
    <g id="Grupo_127" data-name="Grupo 127" transform="translate(1.265 10.858)" opacity="0.15">
      <path id="Caminho_485" data-name="Caminho 485" d="M25.12,100.454c2.678,2.676,7.76,3.418,10.436.742s1.935-7.76-.742-10.436c0,0,2.859,5.028-.667,8.555C30.476,102.983,25.12,100.454,25.12,100.454Z" transform="translate(-25.12 -90.76)" fill="#3f456b"/>
    </g>
    <path id="Caminho_486" data-name="Caminho 486" d="M437.26,394.89a4.969,4.969,0,1,0,4.97,4.969,4.969,4.969,0,0,0-4.97-4.969Z" transform="translate(-358.759 -330.054)" fill="#b2c6ed"/>
    <g id="Grupo_128" data-name="Grupo 128" transform="translate(74.127 65.439)" opacity="0.3">
      <path id="Caminho_487" data-name="Caminho 487" d="M438.594,398.29a2.944,2.944,0,1,0,2.944,2.944,2.944,2.944,0,0,0-2.944-2.944Z" transform="translate(-435.65 -398.29)" fill="#fff"/>
    </g>
    <g id="Grupo_129" data-name="Grupo 129" transform="translate(74.441 65.747)" opacity="0.15">
      <path id="Caminho_488" data-name="Caminho 488" d="M437.42,407.066c1.952,1.943,5.635,2.485,7.578.532s1.406-5.635-.532-7.578c0,0,2.078,3.651-.483,6.212C441.31,408.9,437.42,407.066,437.42,407.066Z" transform="translate(-437.42 -400.02)" fill="#3f456b"/>
    </g>
    <path id="Caminho_489" data-name="Caminho 489" d="M161.629,81.4a20,20,0,1,1-40,0l.012-30.671a19.994,19.994,0,1,1,39.987,0Z" transform="translate(-103.236 -30.394)" fill="#f0f4f7"/>
    <g id="Grupo_130" data-name="Grupo 130" transform="translate(39.499)" opacity="0.15">
      <path id="Caminho_490" data-name="Caminho 490" d="M240.54,29.58c17.837,1.642,18.866,18.029,18.866,18.029l.177,16.108-.378,20.552s-.786,14.607-18.625,16.247c.146-.064,10.157-4.339,10.157-17.262V65.048q0-.027,0-.053v-.08c0-.018-.039-.039-.037-.064,0-1.448-.02-7-.02-18.009C250.681,33.914,240.687,29.644,240.54,29.58Z" transform="translate(-240.54 -29.58)" fill="#3f456b"/>
    </g>
    <g id="Grupo_131" data-name="Grupo 131" transform="translate(18.49 0.234)" opacity="0.5">
      <path id="Caminho_491" data-name="Caminho 491" d="M141.214,101.833c-17.832-1.64-18.866-18.025-18.866-18.025L122.17,67.7l.38-20.552s.786-14.607,18.623-16.247c-.147.064-10.161,4.339-10.161,17.26V66.5c0,.02.039.039.039.064,0,1.448.02,7,.02,18.011C131.072,97.491,141.067,101.769,141.214,101.833Z" transform="translate(-122.17 -30.9)" fill="#fff"/>
    </g>
    <g id="Grupo_132" data-name="Grupo 132" transform="translate(24.679 19.517)" opacity="0.15">
      <path id="Caminho_492" data-name="Caminho 492" d="M184.8,144.309a16.259,16.259,0,1,1-22.995,0A16.259,16.259,0,0,1,184.8,144.309Z" transform="translate(-157.04 -139.546)" fill="#3f456b"/>
    </g>
    <path id="Caminho_493" data-name="Caminho 493" d="M175.142,149.167a15.349,15.349,0,1,1-21.706,0A15.349,15.349,0,0,1,175.142,149.167Z" transform="translate(-125.699 -124.245)" fill="#767c93"/>
    <g id="Grupo_133" data-name="Grupo 133" transform="translate(23.539 20.417)" opacity="0.3">
      <path id="Caminho_494" data-name="Caminho 494" d="M180.552,156.138c-4.5-15.086-20.765-13.162-26.326-6.648a15.4,15.4,0,0,0,3.819,23.108s-3.672-2.485-4.673-8.377c-.682-4.006.277-8.251,4.057-12.331,4.97-5.369,13.391-4.723,17.113-2.742A13.265,13.265,0,0,1,180.552,156.138Z" transform="translate(-150.615 -144.615)" fill="#3f456b"/>
    </g>
    <g id="Grupo_134" data-name="Grupo 134" transform="translate(36.034 13.13)" opacity="0.15">
      <path id="Caminho_495" data-name="Caminho 495" d="M221.379,107.393a2.527,2.527,0,1,1,3.47.861A2.527,2.527,0,0,1,221.379,107.393Z" transform="translate(-221.017 -103.562)" fill="#3f456b"/>
    </g>
    <g id="Grupo_135" data-name="Grupo 135" transform="translate(36.031 53.481)" opacity="0.15">
      <path id="Caminho_496" data-name="Caminho 496" d="M221.365,334.749a2.527,2.527,0,1,1,3.47.854A2.527,2.527,0,0,1,221.365,334.749Z" transform="translate(-220.999 -330.913)" fill="#3f456b"/>
    </g>
    <path id="Caminho_497" data-name="Caminho 497" d="M348.142,149.167a15.349,15.349,0,1,1-21.706,0A15.349,15.349,0,0,1,348.142,149.167Z" transform="translate(-267.994 -124.245)" fill="#9398aa"/>
    <g id="Grupo_136" data-name="Grupo 136" transform="translate(54.114 20.842)" opacity="0.3">
      <path id="Caminho_498" data-name="Caminho 498" d="M347.225,174.366c-13.226,8.551-24.335-3.477-24.335-12.044A15.387,15.387,0,0,1,340.8,147.236s-4.412-.49-8.995,3.335c-3.12,2.6-5.147,6.453-4.925,12.01.291,7.311,7.115,12.289,11.231,13.2A13.258,13.258,0,0,0,347.225,174.366Z" transform="translate(-322.89 -147.013)" fill="#3f456b"/>
    </g>
    <g id="Grupo_137" data-name="Grupo 137" transform="translate(64.959 25.644)" opacity="0.2">
      <path id="Caminho_499" data-name="Caminho 499" d="M403.769,183.959a9.889,9.889,0,1,1-9.889-9.889,9.889,9.889,0,0,1,9.889,9.889Z" transform="translate(-383.99 -174.07)" fill="#fff"/>
    </g>
    <path id="Caminho_500" data-name="Caminho 500" d="M176.258,264.715s-2.879,1.521-3.038,3.372c0,0,1.738,5.259,11.63,5.259s11.27-6.105,11.27-6.105-1.31-3.038-3.362-3.45C192.759,263.794,185.816,271.757,176.258,264.715Z" transform="translate(-145.669 -222.222)" fill="#f0f4f7"/>
    <g id="Grupo_138" data-name="Grupo 138" transform="translate(26.979 43.462)" opacity="0.15">
      <path id="Caminho_501" data-name="Caminho 501" d="M171.514,275.275a13.419,13.419,0,0,0,10.1,4.123,15.343,15.343,0,0,0,10.9-4.938l1.045,2.469s-3.443,5.2-12.136,5.2S170,276.978,170,276.978Z" transform="translate(-170 -274.46)" fill="#3f456b"/>
    </g>
    <path id="Caminho_502" data-name="Caminho 502" d="M207.33,471.418a5.088,5.088,0,0,1,10.177,0" transform="translate(-173.725 -388.815)" fill="#9398aa"/>
    <g id="Grupo_139" data-name="Grupo 139" transform="translate(38.693 77.634)" opacity="0.15">
      <path id="Caminho_503" data-name="Caminho 503" d="M236,467s2.366,1.065,2.366,4.792h2.6S241.8,467.385,236,467Z" transform="translate(-236 -467)" fill="#3f456b"/>
    </g>
    <g id="Grupo_140" data-name="Grupo 140" transform="translate(35.517 78.257)" opacity="0.2">
      <path id="Caminho_504" data-name="Caminho 504" d="M218.147,471.538a1.352,1.352,0,1,1,.99,1.636A1.352,1.352,0,0,1,218.147,471.538Z" transform="translate(-218.108 -470.509)" fill="#fff"/>
    </g>
    <path id="Caminho_505" data-name="Caminho 505" d="M31.33,471.418a5.088,5.088,0,0,1,10.177,0" transform="translate(-28.962 -388.815)" fill="#9398aa"/>
    <g id="Grupo_141" data-name="Grupo 141" transform="translate(7.456 77.634)" opacity="0.15">
      <path id="Caminho_506" data-name="Caminho 506" d="M60,467s2.366,1.065,2.366,4.792h2.6S65.8,467.385,60,467Z" transform="translate(-60 -467)" fill="#3f456b"/>
    </g>
    <g id="Grupo_142" data-name="Grupo 142" transform="translate(4.28 78.257)" opacity="0.2">
      <path id="Caminho_507" data-name="Caminho 507" d="M42.147,471.538a1.352,1.352,0,1,1,.99,1.636,1.352,1.352,0,0,1-.99-1.636Z" transform="translate(-42.108 -470.509)" fill="#fff"/>
    </g>
    <path id="Caminho_508" data-name="Caminho 508" d="M379.33,471.418a5.088,5.088,0,0,1,10.177,0" transform="translate(-315.199 -388.815)" fill="#9398aa"/>
    <g id="Grupo_143" data-name="Grupo 143" transform="translate(69.22 77.634)" opacity="0.15">
      <path id="Caminho_509" data-name="Caminho 509" d="M408,467s2.366,1.065,2.366,4.792h2.6S413.8,467.385,408,467Z" transform="translate(-408 -467)" fill="#3f456b"/>
    </g>
    <g id="Grupo_144" data-name="Grupo 144" transform="translate(66.044 78.257)" opacity="0.2">
      <path id="Caminho_510" data-name="Caminho 510" d="M390.147,471.538a1.352,1.352,0,1,1,.99,1.636A1.352,1.352,0,0,1,390.147,471.538Z" transform="translate(-390.108 -470.509)" fill="#fff"/>
    </g>
    <path id="Caminho_511" data-name="Caminho 511" d="M200.358,184.159c0,5.429-3.173,9.829-9.829,9.829-6.964,0-9.829-4.4-9.829-9.829a9.829,9.829,0,1,1,19.658,0Z" transform="translate(-151.822 -148.639)" fill="#f0f4f7"/>
    <path id="Caminho_512" data-name="Caminho 512" d="M200.453,174.33s-4.474,1.242-5.133,7.683,1.462,10.525,3.385,11.813a3.829,3.829,0,0,1-3.173-.887,12.021,12.021,0,0,1-2.44-10.383C194.547,176.4,198.073,174.774,200.453,174.33Z" transform="translate(-161.746 -148.639)" fill="#f7f8f9"/>
    <g id="Grupo_145" data-name="Grupo 145" transform="translate(32.818 25.719)" opacity="0.15">
      <path id="Caminho_513" data-name="Caminho 513" d="M209.527,174.49a9.369,9.369,0,0,1,5.823,9.052c-.062,8.1-5.122,11.141-12.45,9.084,0,0,6.345,3.466,11.7-.151s3.944-9.815,3.521-11.458S215.821,175.195,209.527,174.49Z" transform="translate(-202.9 -174.49)" fill="#3f456b"/>
    </g>
    <path id="Caminho_514" data-name="Caminho 514" d="M213.88,213.49c0,3.954-2.737,4.97-6.114,4.97s-6.116-1.021-6.116-4.97c0-3.195,2.739-4.21,6.116-4.21S213.88,210.3,213.88,213.49Z" transform="translate(-169.054 -177.386)" fill="#8bd0f7"/>
    <g id="Grupo_146" data-name="Grupo 146" transform="translate(32.658 32.272)" opacity="0.15">
      <path id="Caminho_515" data-name="Caminho 515" d="M211.148,211.41a3.624,3.624,0,0,1,1.342,3.45c-.224,2.458-3.647,3.961-6.9,3.31s-3.6-1.913-3.6-1.913-.1,3.527,4.875,3.9,7.074-1.775,7.287-3.958-.728-4.26-3.017-4.792" transform="translate(-201.999 -211.41)" fill="#3f456b"/>
    </g>
    <g id="Grupo_147" data-name="Grupo 147" transform="translate(33.369 31.831)" opacity="0.3">
      <path id="Caminho_516" data-name="Caminho 516" d="M212.891,211.248a3.532,3.532,0,1,1-3.944-2.254A3.234,3.234,0,0,1,212.891,211.248Z" transform="translate(-206.005 -208.928)" fill="#fff"/>
    </g>
    <ellipse id="Elipse_27" data-name="Elipse 27" cx="2.648" cy="2.648" rx="2.648" ry="2.648" transform="translate(4.897 51.477)" fill="#9398aa"/>
    <ellipse id="Elipse_28" data-name="Elipse 28" cx="2.648" cy="2.648" rx="2.648" ry="2.648" transform="translate(66.838 51.477)" fill="#9398aa"/>
    <path id="Caminho_517" data-name="Caminho 517" d="M389.753,46.6a4.212,4.212,0,1,0,4.21,4.211,4.212,4.212,0,0,0-4.21-4.211Z" transform="translate(-320.306 -43.579)" fill="#f0f4f7"/>
    <g id="Grupo_148" data-name="Grupo 148" transform="translate(65.752 3.532)" opacity="0.7">
      <path id="Caminho_518" data-name="Caminho 518" d="M390.945,49.48a2.485,2.485,0,1,0,2.485,2.485A2.485,2.485,0,0,0,390.945,49.48Z" transform="translate(-388.46 -49.48)" fill="#fff"/>
    </g>
    <g id="Grupo_149" data-name="Grupo 149" transform="translate(65.707 3.493)" opacity="0.2">
      <path id="Caminho_519" data-name="Caminho 519" d="M388.21,55.215c1.643,1.645,4.767,2.1,6.411.456s1.187-4.765-.456-6.411c0,0,1.757,3.088-.41,5.255C391.5,56.769,388.21,55.215,388.21,55.215Z" transform="translate(-388.21 -49.26)" fill="#3f456b"/>
    </g>
    <g id="Grupo_150" data-name="Grupo 150" transform="translate(52.182 67.873)" opacity="0.5">
      <path id="Caminho_520" data-name="Caminho 520" d="M314.84,439.775h-1.952a.887.887,0,1,1,0-1.775h1.952a.887.887,0,0,1,0,1.775Z" transform="translate(-312 -433.385)" fill="#3f456b"/>
      <path id="Caminho_521" data-name="Caminho 521" d="M356.017,439.775h-2.13a.887.887,0,0,1,0-1.775h2.13a.887.887,0,0,1,0,1.775Z" transform="translate(-345.723 -433.385)" fill="#3f456b"/>
      <path id="Caminho_522" data-name="Caminho 522" d="M338.887,456.9a.887.887,0,0,1-.887-.887v-2.13a.887.887,0,1,1,1.775,0v2.13A.887.887,0,0,1,338.887,456.9Z" transform="translate(-333.385 -445.723)" fill="#3f456b"/>
      <path id="Caminho_523" data-name="Caminho 523" d="M338.887,415.9a.887.887,0,0,1-.887-.887v-2.13a.887.887,0,0,1,1.775,0v2.13A.887.887,0,0,1,338.887,415.9Z" transform="translate(-333.385 -412)" fill="#3f456b"/>
      <path id="Caminho_524" data-name="Caminho 524" d="M327.592,431.374A3.372,3.372,0,1,1,330.964,428,3.372,3.372,0,0,1,327.592,431.374Zm0-4.97a.662.662,0,1,0,0-.007Z" transform="translate(-322.051 -422.388)" fill="#3f456b"/>
    </g>
    <g id="Grupo_151" data-name="Grupo 151" transform="translate(4.084 26.874)" opacity="0.5">
      <path id="Caminho_525" data-name="Caminho 525" d="M43.84,208.775H41.887a.887.887,0,1,1,0-1.775H43.84a.887.887,0,1,1,0,1.775Z" transform="translate(-41 -202.385)" fill="#3f456b"/>
      <path id="Caminho_526" data-name="Caminho 526" d="M85.017,208.775h-2.13a.887.887,0,1,1,0-1.775h2.13a.887.887,0,1,1,0,1.775Z" transform="translate(-74.723 -202.385)" fill="#3f456b"/>
      <path id="Caminho_527" data-name="Caminho 527" d="M67.887,225.9a.887.887,0,0,1-.887-.887v-2.13a.887.887,0,1,1,1.775,0v2.13A.887.887,0,0,1,67.887,225.9Z" transform="translate(-62.385 -214.723)" fill="#3f456b"/>
      <path id="Caminho_528" data-name="Caminho 528" d="M67.887,184.9a.887.887,0,0,1-.887-.887v-2.13a.887.887,0,0,1,1.775,0v2.13A.887.887,0,0,1,67.887,184.9Z" transform="translate(-62.385 -181)" fill="#3f456b"/>
      <path id="Caminho_529" data-name="Caminho 529" d="M56.592,200.374A3.372,3.372,0,1,1,59.964,197,3.372,3.372,0,0,1,56.592,200.374Zm0-4.969a.662.662,0,1,0,0-.007Z" transform="translate(-51.051 -191.388)" fill="#3f456b"/>
    </g>
    <g id="Grupo_152" data-name="Grupo 152" transform="translate(19.347 64.676)" opacity="0.5">
      <path id="Caminho_530" data-name="Caminho 530" d="M127.886,405.35a.887.887,0,0,1-.733-1.388c2.11-3.083,1.745-8.965,1.741-9.025a.889.889,0,1,1,1.775-.117c.018.266.406,6.567-2.046,10.143A.887.887,0,0,1,127.886,405.35Z" transform="translate(-126.999 -393.989)" fill="#3f456b"/>
      <path id="Caminho_531" data-name="Caminho 531" d="M253.306,429.572a.887.887,0,0,1-.793-.49,22.092,22.092,0,0,1-1.5-4.579.888.888,0,1,1,1.739-.355,20.272,20.272,0,0,0,1.344,4.142.887.887,0,0,1-.793,1.281Z" transform="translate(-228.99 -418.211)" fill="#3f456b"/>
    </g>
  </g>
  <g id="Lines" transform="translate(0 0)">
    <path id="Caminho_532" data-name="Caminho 532" d="M20.734,94.114a7.742,7.742,0,1,1,7.74-7.741A7.742,7.742,0,0,1,20.734,94.114Zm0-13.707A5.967,5.967,0,1,0,26.7,86.372,5.967,5.967,0,0,0,20.734,80.407Z" transform="translate(-12.814 -69.213)" fill="#3f456b"/>
    <path id="Caminho_533" data-name="Caminho 533" d="M433.147,401.714A5.857,5.857,0,1,1,439,395.848a5.857,5.857,0,0,1-5.857,5.866Zm0-9.955a4.082,4.082,0,1,0,4.082,4.082,4.082,4.082,0,0,0-4.082-4.082Z" transform="translate(-353.583 -325.32)" fill="#3f456b"/>
    <path id="Caminho_534" data-name="Caminho 534" d="M203.653,215.234c-4.648,0-7-1.972-7-5.857a4.469,4.469,0,0,1,2.227-4.066,9.427,9.427,0,0,1,4.776-1.031c2.614,0,7,.662,7,5.1C210.655,213.261,208.3,215.234,203.653,215.234Zm0-9.185a7.782,7.782,0,0,0-3.874.784,2.681,2.681,0,0,0-1.354,2.538c0,2.865,1.564,4.082,5.229,4.082s5.227-1.223,5.227-4.082c0-.824,0-3.324-5.227-3.324Z" transform="translate(-163.878 -172.562)" fill="#3f456b"/>
    <path id="Caminho_535" data-name="Caminho 535" d="M186.426,190.763h0c-6.709,0-10.716-4.006-10.716-10.716a10.72,10.72,0,0,1,10.716-10.716h0a10.716,10.716,0,0,1,10.715,10.715,10.954,10.954,0,0,1-2.65,7.552A10.56,10.56,0,0,1,186.426,190.763Zm0-19.658a8.943,8.943,0,0,0-8.942,8.94,9.371,9.371,0,0,0,2.078,6.361c1.528,1.715,3.837,2.582,6.863,2.582a8.81,8.81,0,0,0,6.755-2.589,9.21,9.21,0,0,0,2.187-6.352,8.942,8.942,0,0,0-8.94-8.942Z" transform="translate(-146.654 -143.815)" fill="#3f456b"/>
    <path id="Caminho_536" data-name="Caminho 536" d="M137.529,98.326a20.692,20.692,0,0,1-14.811-6.166,21,21,0,0,1-6.089-14.877l.012-30.671a20.881,20.881,0,1,1,41.762,0v4.414a.887.887,0,1,1-1.775,0V46.613a19.107,19.107,0,1,0-38.212,0L118.4,77.283a19.113,19.113,0,1,0,38.224,0V72.857a.887.887,0,1,1,1.775,0v4.426a21.016,21.016,0,0,1-6.075,14.875,20.652,20.652,0,0,1-14.8,6.168Z" transform="translate(-98.059 -25.571)" fill="#3f456b"/>
    <path id="Caminho_537" data-name="Caminho 537" d="M160.146,172.134a16.238,16.238,0,1,1,11.481-27.717h0a16.236,16.236,0,0,1-11.481,27.717Zm0-30.7a14.461,14.461,0,1,0,10.219,4.242h0a14.376,14.376,0,0,0-10.219-4.236Z" transform="translate(-120.493 -119.409)" fill="#3f456b"/>
    <path id="Caminho_538" data-name="Caminho 538" d="M334.146,172.134a16.238,16.238,0,1,1,11.481-27.717h0a16.236,16.236,0,0,1-11.481,27.717Zm0-30.7a14.461,14.461,0,1,0,10.219,4.242h0a14.376,14.376,0,0,0-10.219-4.237Z" transform="translate(-263.611 -119.409)" fill="#3f456b"/>
    <path id="Caminho_539" data-name="Caminho 539" d="M122.5,225.775h-4.615a.887.887,0,1,1,0-1.775H122.5a.887.887,0,1,1,0,1.775Z" transform="translate(-98.364 -188.782)" fill="#3f456b"/>
    <path id="Caminho_540" data-name="Caminho 540" d="M168.2,268.628a.887.887,0,0,1-.832-1.194,7.687,7.687,0,0,1,4.155-4.513.887.887,0,0,1,.621,1.661,5.933,5.933,0,0,0-3.111,3.463A.887.887,0,0,1,168.2,268.628Z" transform="translate(-139.746 -220.757)" fill="#3f456b"/>
    <path id="Caminho_541" data-name="Caminho 541" d="M282.521,264.326a.887.887,0,0,1-.832-.582,5.559,5.559,0,0,0-2.918-3.253.887.887,0,1,1,.618-1.663,7.352,7.352,0,0,1,3.967,4.306.887.887,0,0,1-.532,1.139A.922.922,0,0,1,282.521,264.326Z" transform="translate(-230.927 -217.375)" fill="#3f456b"/>
    <path id="Caminho_542" data-name="Caminho 542" d="M55.887,366.919a.887.887,0,0,1-.887-.887V345.347a.887.887,0,1,1,1.775,0v20.684A.887.887,0,0,1,55.887,366.919Z" transform="translate(-47.368 -287.863)" fill="#3f456b"/>
    <path id="Caminho_543" data-name="Caminho 543" d="M80.51,337.186a.828.828,0,0,1-.208-.025l-9.085-2.183a.887.887,0,0,1,.414-1.725l9.085,2.183a.887.887,0,0,1-.206,1.75Z" transform="translate(-60.168 -278.63)" fill="#3f456b"/>
    <path id="Caminho_544" data-name="Caminho 544" d="M404.887,366.741a.887.887,0,0,1-.887-.887V345.347a.887.887,0,1,1,1.775,0v20.506A.887.887,0,0,1,404.887,366.741Z" transform="translate(-334.427 -287.863)" fill="#3f456b"/>
    <path id="Caminho_545" data-name="Caminho 545" d="M339.371,336.931a.887.887,0,0,1-.208-1.75l9.069-2.187a.887.887,0,1,1,.415,1.725l-9.068,2.186A.855.855,0,0,1,339.371,336.931Z" transform="translate(-280.539 -278.412)" fill="#3f456b"/>
    <path id="Caminho_546" data-name="Caminho 546" d="M231.887,433.987A.887.887,0,0,1,231,433.1v-6.212a.887.887,0,1,1,1.775,0V433.1A.887.887,0,0,1,231.887,433.987Z" transform="translate(-192.131 -354.931)" fill="#3f456b"/>
    <path id="Caminho_547" data-name="Caminho 547" d="M94,491.775H12.887a.887.887,0,1,1,0-1.775H94a.887.887,0,1,1,0,1.775Z" transform="translate(-12 -407.572)" fill="#3f456b"/>
    <path id="Caminho_548" data-name="Caminho 548" d="M213.394,468.193a.887.887,0,0,1-.887-.887,4.2,4.2,0,0,0-8.4,0,.887.887,0,0,1-1.775,0,5.976,5.976,0,1,1,11.952,0A.887.887,0,0,1,213.394,468.193Z" transform="translate(-168.55 -383.99)" fill="#3f456b"/>
    <path id="Caminho_549" data-name="Caminho 549" d="M37.394,468.193a.887.887,0,0,1-.887-.887,4.2,4.2,0,0,0-8.4,0,.887.887,0,0,1-1.775,0,5.976,5.976,0,1,1,11.952,0A.887.887,0,0,1,37.394,468.193Z" transform="translate(-23.787 -383.99)" fill="#3f456b"/>
    <path id="Caminho_550" data-name="Caminho 550" d="M385.394,468.193a.887.887,0,0,1-.887-.887,4.2,4.2,0,1,0-8.4,0,.887.887,0,0,1-1.775,0,5.976,5.976,0,1,1,11.952,0A.887.887,0,0,1,385.394,468.193Z" transform="translate(-310.023 -383.99)" fill="#3f456b"/>
    <path id="Caminho_551" data-name="Caminho 551" d="M44.115,321.691a3.535,3.535,0,1,1,3.535-3.535A3.535,3.535,0,0,1,44.115,321.691Zm0-5.294a1.761,1.761,0,1,0,1.761,1.759A1.761,1.761,0,0,0,44.115,316.4Z" transform="translate(-35.508 -263.319)" fill="#3f456b"/>
    <path id="Caminho_552" data-name="Caminho 552" d="M393.115,321.691a3.535,3.535,0,1,1,3.535-3.535A3.536,3.536,0,0,1,393.115,321.691Zm0-5.294a1.761,1.761,0,1,0,1.761,1.759A1.761,1.761,0,0,0,393.115,316.4Z" transform="translate(-322.566 -263.319)" fill="#3f456b"/>
    <path id="Caminho_553" data-name="Caminho 553" d="M230.887,113.952a.887.887,0,0,1-.887-.887v-.177a.887.887,0,1,1,1.775,0v.177A.887.887,0,0,1,230.887,113.952Z" transform="translate(-191.309 -96.66)" fill="#3f456b"/>
    <path id="Caminho_554" data-name="Caminho 554" d="M230.887,341.952a.887.887,0,0,1-.887-.887v-.177a.887.887,0,1,1,1.775,0v.177A.887.887,0,0,1,230.887,341.952Z" transform="translate(-191.309 -284.194)" fill="#3f456b"/>
    <path id="Caminho_555" data-name="Caminho 555" d="M385.641,51.788a5.1,5.1,0,1,1,5.1-5.1,5.1,5.1,0,0,1-5.1,5.1Zm0-8.422a3.324,3.324,0,1,0,3.322,3.324A3.324,3.324,0,0,0,385.641,43.367Z" transform="translate(-315.131 -38.747)" fill="#3f456b"/>
    <path id="Caminho_556" data-name="Caminho 556" d="M286.5,431.606a1.024,1.024,0,0,1-.163-.014c-9.407-1.745-12.837-9.144-14.046-13.4a.887.887,0,0,1,1.707-.485c1.338,4.714,4.615,10.649,12.662,12.136a.887.887,0,0,1-.16,1.761Z" transform="translate(-226.067 -347.581)" fill="#3f456b"/>
    <path id="Caminho_557" data-name="Caminho 557" d="M75.412,408.923a.887.887,0,0,1-.628-1.517,17.875,17.875,0,0,0,5.5-12.53.887.887,0,0,1,.887-.875h7.781a.887.887,0,1,1,0,1.775H82.032a19.65,19.65,0,0,1-5.994,12.891A.877.877,0,0,1,75.412,408.923Z" transform="translate(-63.424 -328.61)" fill="#3f456b"/>
  </g>
</svg>
