<svg id="_5883838_launch_launching_rocket_space_icon" data-name="5883838_launch_launching_rocket_space_icon" xmlns="http://www.w3.org/2000/svg" width="83" height="84.342" viewBox="0 0 83 84.342">
  <g id="Colors" transform="translate(0.854 0.301)">
    <g id="Grupo_206" data-name="Grupo 206" transform="translate(3.847 47.594)" opacity="0.5">
      <path id="Caminho_677" data-name="Caminho 677" d="M119.621,324.052a35.81,35.81,0,0,0-71.621,0" transform="translate(-48 -288.25)" fill="#ffbc5a"/>
    </g>
    <path id="Caminho_678" data-name="Caminho 678" d="M415,337.128a4.638,4.638,0,0,1,3.787-2.959s-2.238-4.992,1.549-7.057a6.133,6.133,0,0,1,5.964-.065c2.788,1.611,3.1,6.983.06,8.5a3.823,3.823,0,0,1,.861,4.475s4.393,3.99.3,7.847C427.524,347.869,417.6,346.626,415,337.128Z" transform="translate(-347.984 -272.16)" fill="#f0f3f7"/>
    <path id="Caminho_679" data-name="Caminho 679" d="M45.273,117a2.893,2.893,0,1,0,2.893,2.885A2.893,2.893,0,0,0,45.273,117Z" transform="translate(-39.5 -98.882)" fill="#f0f3f7"/>
    <g id="Grupo_207" data-name="Grupo 207" transform="translate(2.52 17.751)" opacity="0.7">
      <circle id="Elipse_33" data-name="Elipse 33" cx="1.713" cy="1.713" r="1.713" transform="translate(0 2.422) rotate(-45)" fill="#fff"/>
    </g>
    <g id="Grupo_208" data-name="Grupo 208" transform="translate(3.203 18.435)" opacity="0.15">
      <path id="Caminho_680" data-name="Caminho 680" d="M44.26,122.931a2.987,2.987,0,1,0,4.088-4.091s1.2,2.122-.282,3.615C46.522,124,44.26,122.931,44.26,122.931Z" transform="translate(-44.26 -118.84)" fill="#3f456b"/>
    </g>
    <path id="Caminho_681" data-name="Caminho 681" d="M449.883,15a4.522,4.522,0,1,0,4.52,4.521A4.522,4.522,0,0,0,449.883,15Z" transform="translate(-373.118 -14.438)" fill="#f0f3f7"/>
    <g id="Grupo_209" data-name="Grupo 209" transform="translate(71.686 0)" opacity="0.7">
      <circle id="Elipse_34" data-name="Elipse 34" cx="2.675" cy="2.675" r="2.675" transform="translate(0 3.783) rotate(-45)" fill="#fff"/>
    </g>
    <g id="Grupo_210" data-name="Grupo 210" transform="translate(72.752 1.068)" opacity="0.15">
      <path id="Caminho_682" data-name="Caminho 682" d="M448.32,24.333c1.482,2.485,5.427,2.823,7.191,1.057s1.962-5.708-.8-7.45c0,0,1.893,3.315-.439,5.642C451.852,26,448.32,24.333,448.32,24.333Z" transform="translate(-448.32 -17.94)" fill="#3f456b"/>
    </g>
    <g id="Grupo_211" data-name="Grupo 211" transform="translate(4.148 0.346)" opacity="0.5">
      <path id="Caminho_683" data-name="Caminho 683" d="M52.475,41.8H50.611a.861.861,0,1,1,0-1.721h1.864a.861.861,0,0,1,0,1.721Z" transform="translate(-49.75 -35.548)" fill="#3f456b"/>
      <path id="Caminho_684" data-name="Caminho 684" d="M94.093,41.8H92.011a.861.861,0,0,1,0-1.721h2.083a.861.861,0,0,1,0,1.721Z" transform="translate(-84.024 -35.548)" fill="#3f456b"/>
      <path id="Caminho_685" data-name="Caminho 685" d="M76.941,59.037a.861.861,0,0,1-.861-.861V56.111a.861.861,0,0,1,1.721,0v2.065A.861.861,0,0,1,76.941,59.037Z" transform="translate(-71.548 -48.107)" fill="#3f456b"/>
      <path id="Caminho_686" data-name="Caminho 686" d="M76.941,17.609a.861.861,0,0,1-.861-.861V14.611a.861.861,0,0,1,1.721,0v2.138A.861.861,0,0,1,76.941,17.609Z" transform="translate(-71.548 -13.75)" fill="#3f456b"/>
      <path id="Caminho_687" data-name="Caminho 687" d="M65.49,33.171a3.27,3.27,0,1,1,3.27-3.27A3.27,3.27,0,0,1,65.49,33.171Zm0-4.819a.642.642,0,1,0,0-.007Z" transform="translate(-60.074 -24.413)" fill="#3f456b"/>
    </g>
    <path id="Caminho_688" data-name="Caminho 688" d="M361.829,333.87s5.277,4.647-3.122,13.081a.062.062,0,0,1-.1,0c-8.388-8.451-3.122-13.081-3.122-13.081" transform="translate(-297.36 -278.423)" fill="#ff7866"/>
    <g id="Grupo_212" data-name="Grupo 212" transform="translate(58.737 55.447)" opacity="0.7">
      <path id="Caminho_689" data-name="Caminho 689" d="M370.144,333.87a6.418,6.418,0,0,1-.664,9.345s-.014.036-.053,0a6.3,6.3,0,0,1-.768-9.345" transform="translate(-366.9 -333.87)" fill="#ffbc5a"/>
    </g>
    <path id="Caminho_690" data-name="Caminho 690" d="M111.313,105.424v-3.907a8.269,8.269,0,0,0-4.1-7.517s-3.979,1.869-3.979,7.393v4.093A50.722,50.722,0,0,0,111.313,105.424Z" transform="translate(-89.877 -79.841)" fill="#dae1ea"/>
    <path id="Caminho_691" data-name="Caminho 691" d="M103.23,160.432V184.4h6.792l1.291-5.327V160.37A50.722,50.722,0,0,1,103.23,160.432Z" transform="translate(-89.877 -134.787)" fill="#f5f6f7"/>
    <path id="Caminho_692" data-name="Caminho 692" d="M93.893,300,92,305.852h8.95V300Z" transform="translate(-80.58 -250.383)" fill="#dae1ea"/>
    <g id="Grupo_213" data-name="Grupo 213" transform="translate(17.273 14.159)" opacity="0.15">
      <path id="Caminho_693" data-name="Caminho 693" d="M126,94a23.545,23.545,0,0,1,1.549,8.434v27.023l1.549,5.852h3.1l-2.158-5.852V102.348S130.3,96.238,126,94Z" transform="translate(-126 -94)" fill="#3f456b"/>
    </g>
    <g id="_编组_" data-name="&lt;编组&gt;" transform="translate(0 55.469)">
      <path id="Caminho_694" data-name="Caminho 694" d="M57.036,345.1V334H73.388v13.254l.052.172a13.387,13.387,0,0,1,1.5-.344,9.212,9.212,0,0,1,7.746,2.065s1.893-6.541,8.778-5.852,6.885,8.09,6.885,8.09,5.68-1.033,7.229,3.787c0,0,1.549,4.992-2.582,6.541H30.185c-1.644,0-3.055-1.47-3.723-2.842a7.765,7.765,0,0,1,.5-7.8,8.036,8.036,0,0,1,13.374.658c3.1-3.615,8.434-1.033,8.434-1.033C50.5,344.327,57.036,345.1,57.036,345.1Z" transform="translate(-25.649 -334)" fill="#f0f3f7"/>
    </g>
    <g id="_编组_2" data-name="&lt;编组&gt;" transform="translate(24.24 0.6)">
      <path id="Caminho_695" data-name="Caminho 695" d="M211.521,26.121l-.146.077-22.495-.086-.09-.048a23.448,23.448,0,0,1,11.3-10.844l.129.024A23.454,23.454,0,0,1,211.521,26.121Z" transform="translate(-184.95 -15.22)" fill="#b2c6ed"/>
      <path id="Caminho_696" data-name="Caminho 696" d="M196.8,96.9a36.993,36.993,0,0,0-3.752-18.625l-.146.077-22.495-.086-.089-.048a36.97,36.97,0,0,0-3.787,18.665c.332,6.4,2.274,13.052,4.842,19.853h20.767C194.383,110.182,196.465,103.207,196.8,96.9Z" transform="translate(-166.48 -67.376)" fill="#f5f6f7"/>
      <path id="Caminho_697" data-name="Caminho 697" d="M194.92,302c.711,1.883,1.468,3.776,2.251,5.68H213.7c.651-1.838,1.327-3.74,1.991-5.68Z" transform="translate(-190.025 -252.638)" fill="#767c93"/>
    </g>
    <path id="Caminho_698" data-name="Caminho 698" d="M107.829,333.87s5.277,4.647-3.122,13.081a.062.062,0,0,1-.1,0c-8.388-8.451-3.122-13.081-3.122-13.081" transform="translate(-87.08 -278.423)" fill="#ff7866"/>
    <g id="Grupo_214" data-name="Grupo 214" transform="translate(15.018 55.447)" opacity="0.7">
      <path id="Caminho_699" data-name="Caminho 699" d="M116.144,333.87a6.418,6.418,0,0,1-.664,9.345s-.014.036-.053,0a6.3,6.3,0,0,1-.768-9.345" transform="translate(-112.9 -333.87)" fill="#ffbc5a"/>
    </g>
    <path id="Caminho_700" data-name="Caminho 700" d="M149.852,253s-5.852.688-5.852,8.434v11.188l11.016-5.508" transform="translate(-123.629 -211.473)" fill="#b2c6ed"/>
    <path id="Caminho_701" data-name="Caminho 701" d="M308.336,253s5.68.688,5.68,8.434v11.188L303,267.114" transform="translate(-255.261 -211.473)" fill="#b2c6ed"/>
    <g id="Grupo_215" data-name="Grupo 215" transform="translate(39.305 0.562)" opacity="0.15">
      <path id="Caminho_702" data-name="Caminho 702" d="M254,15s9.651,8.546,9.639,26.047-5.852,29.376-5.852,29.376l4.819-.344a68.073,68.073,0,0,0,6.713-29.032S270.007,22.4,254,15Z" transform="translate(-254 -15)" fill="#3f456b"/>
    </g>
    <g id="Grupo_216" data-name="Grupo 216" transform="translate(30.932 0.562)" opacity="0.3">
      <path id="Caminho_703" data-name="Caminho 703" d="M210.408,26.214A44.317,44.317,0,0,1,213.732,15a34.7,34.7,0,0,0-8.372,11.016,44.4,44.4,0,0,0,5.048.2Z" transform="translate(-205.36 -15)" fill="#fff"/>
    </g>
    <g id="Grupo_217" data-name="Grupo 217" transform="translate(27.428 11.578)" opacity="0.5">
      <path id="Caminho_704" data-name="Caminho 704" d="M195.448,117.583a88.234,88.234,0,0,1-3.176-23.552A82.042,82.042,0,0,1,193.553,79.2,44.4,44.4,0,0,1,188.5,79,33.736,33.736,0,0,0,185,93.975a64.508,64.508,0,0,0,4.668,23.581C191.573,117.576,193.518,117.621,195.448,117.583Z" transform="translate(-185 -79)" fill="#fff"/>
    </g>
    <g id="Grupo_218" data-name="Grupo 218" transform="translate(32.096 50.133)" opacity="0.2">
      <path id="Caminho_705" data-name="Caminho 705" d="M212.12,303a46.541,46.541,0,0,0,2.5,5.387h5.048a51.177,51.177,0,0,1-1.773-5.365C215.97,303.065,214.025,303.021,212.12,303Z" transform="translate(-212.12 -303)" fill="#fff"/>
    </g>
    <g id="Grupo_219" data-name="Grupo 219" transform="translate(30.182 52.887)" opacity="0.3">
      <path id="Caminho_706" data-name="Caminho 706" d="M220.106,319H201l1.2,2.582h16.524Z" transform="translate(-201 -319)" fill="#3f456b"/>
    </g>
    <g id="Grupo_220" data-name="Grupo 220" transform="translate(31.387 55.641)" opacity="0.2">
      <rect id="Retângulo_56" data-name="Retângulo 56" width="16.524" height="2.582" fill="#3f456b"/>
    </g>
    <g id="Grupo_221" data-name="Grupo 221" transform="translate(45.157 55.641)" opacity="0.2">
      <path id="Caminho_707" data-name="Caminho 707" d="M290.582,348.426V335H288v14.286Z" transform="translate(-288 -335)" fill="#3f456b"/>
    </g>
    <path id="Caminho_708" data-name="Caminho 708" d="M217.808,120.234a9.584,9.584,0,1,1-9.584-9.584A9.584,9.584,0,0,1,217.808,120.234Z" transform="translate(-168.864 -93.625)" fill="#8bd0f7"/>
    <g id="Grupo_222" data-name="Grupo 222" transform="translate(29.995 22.96)" opacity="0.15">
      <path id="Caminho_709" data-name="Caminho 709" d="M200.528,145.517c-3.021,9.164,5.828,13.885,10.906,12.565A9.426,9.426,0,0,0,217.6,145.13a7.957,7.957,0,0,1-.583,5.852,8.6,8.6,0,0,1-6.357,4.778c-4.379.959-8.386-2.315-9.563-4.613A8.157,8.157,0,0,1,200.528,145.517Z" transform="translate(-199.914 -145.13)" fill="#3f456b"/>
    </g>
    <g id="Grupo_223" data-name="Grupo 223" transform="translate(33.47 17.072)" opacity="0.3">
      <path id="Caminho_710" data-name="Caminho 710" d="M231.061,119.951a5.921,5.921,0,1,1-1.93-8.148A5.921,5.921,0,0,1,231.061,119.951Z" transform="translate(-220.1 -110.92)" fill="#fff"/>
    </g>
    <rect id="Retângulo_57" data-name="Retângulo 57" width="5.508" height="19.278" rx="2.754" transform="translate(36.895 41.871)" fill="#b2c6ed"/>
    <g id="Grupo_224" data-name="Grupo 224" transform="translate(39.649 41.864)" opacity="0.15">
      <path id="Caminho_711" data-name="Caminho 711" d="M256,254.965v19.192s2.754-.086,2.754-2.668v-13.77S258.582,254.793,256,254.965Z" transform="translate(-256 -254.958)" fill="#3f456b"/>
    </g>
    <g id="Grupo_225" data-name="Grupo 225" transform="translate(47.739 41.527)" opacity="0.15">
      <path id="Caminho_712" data-name="Caminho 712" d="M311.047,254.162s-2.8,10.112-5.25,14.286l-2.8-1.334L308.336,253Z" transform="translate(-303 -253)" fill="#3f456b"/>
    </g>
    <g id="Grupo_226" data-name="Grupo 226" transform="translate(47.739 53.059)" opacity="0.15">
      <path id="Caminho_713" data-name="Caminho 713" d="M304.549,320l9.467,4.647v3.442L303,322.582Z" transform="translate(-303 -320)" fill="#3f456b"/>
    </g>
    <g id="Grupo_227" data-name="Grupo 227" transform="translate(20.371 53.059)" opacity="0.15">
      <path id="Caminho_714" data-name="Caminho 714" d="M153.467,320,144,324.647v3.442l11.016-5.508Z" transform="translate(-144 -320)" fill="#3f456b"/>
    </g>
    <g id="Grupo_228" data-name="Grupo 228" transform="translate(20.064 41.527)" opacity="0.3">
      <path id="Caminho_715" data-name="Caminho 715" d="M149.239,255.582s-6.713.344-6.369,16.524c0,0-3.442-18.417,5.508-19.106Z" transform="translate(-142.219 -253)" fill="#fff"/>
    </g>
    <g id="Grupo_229" data-name="Grupo 229" transform="translate(52.08 41.527)" opacity="0.3">
      <path id="Caminho_716" data-name="Caminho 716" d="M328.22,255.582s6.713.344,6.369,16.524c0,0,3.442-18.417-5.508-19.106Z" transform="translate(-328.22 -253)" fill="#fff"/>
    </g>
    <g id="Grupo_230" data-name="Grupo 230" transform="translate(36.893 41.871)" opacity="0.3">
      <path id="Caminho_717" data-name="Caminho 717" d="M239.991,259.1s.516-1.434,2.754-1.434,2.869,1.234,2.869,1.234.057-3.9-2.869-3.9S239.991,259.1,239.991,259.1Z" transform="translate(-239.989 -255)" fill="#fff"/>
    </g>
    <g id="Grupo_231" data-name="Grupo 231" transform="translate(0.058 72.337)" opacity="0.15">
      <path id="Caminho_718" data-name="Caminho 718" d="M106.112,439.172c-.43,2.811-2.036,3.7-4.074,3.7H30.463A5.1,5.1,0,0,1,26.14,438.3c-.668-4.238,1.053-6.3,1.053-6.3s-1.893,8.09,5.508,8.09H78.126c.861-.138,4.992-1.033,4.835-5.508,0,0-.43-1.747,1.033-1.893,1.721-.172,4.1,3.663,1.945,7.4h15.267s5.451.057,3.585-5.651A6.1,6.1,0,0,1,106.112,439.172Z" transform="translate(-25.986 -432)" fill="#3f456b"/>
    </g>
    <g id="Grupo_232" data-name="Grupo 232" transform="translate(65.08 64.847)" opacity="0.15">
      <path id="Caminho_719" data-name="Caminho 719" d="M403.75,388.487s4.862,2.5,3.83,7.659c0,0-1.2,3.615,1.549,3.787s2.454-4.475,1.485-6.971A7.217,7.217,0,0,0,403.75,388.487Z" transform="translate(-403.75 -388.485)" fill="#3f456b"/>
    </g>
    <g id="Grupo_233" data-name="Grupo 233" transform="translate(3.12 69.465)" opacity="0.5">
      <path id="Caminho_720" data-name="Caminho 720" d="M51.925,419.239a4.076,4.076,0,1,1-4.224-3.923A4.076,4.076,0,0,1,51.925,419.239Z" transform="translate(-43.776 -415.314)" fill="#fff"/>
    </g>
    <g id="Grupo_234" data-name="Grupo 234" transform="translate(23.242 68.548)" opacity="0.5">
      <path id="Caminho_721" data-name="Caminho 721" d="M166.8,412.94a3.06,3.06,0,1,1-.974-2.132,3.06,3.06,0,0,1,.974,2.132Z" transform="translate(-160.681 -409.988)" fill="#fff"/>
    </g>
    <g id="Grupo_235" data-name="Grupo 235" transform="translate(44.631 68.852)" opacity="0.5">
      <path id="Caminho_722" data-name="Caminho 722" d="M293.481,415.864a4.269,4.269,0,1,1-4.424-4.109A4.269,4.269,0,0,1,293.481,415.864Z" transform="translate(-284.947 -411.752)" fill="#fff"/>
    </g>
    <g id="Grupo_236" data-name="Grupo 236" transform="translate(57.713 65.926)" opacity="0.5">
      <path id="Caminho_723" data-name="Caminho 723" d="M369.481,398.864a4.269,4.269,0,1,1-4.424-4.109A4.269,4.269,0,0,1,369.481,398.864Z" transform="translate(-360.947 -394.752)" fill="#fff"/>
    </g>
    <g id="Grupo_237" data-name="Grupo 237" transform="translate(72.323 54.216)" opacity="0.5">
      <path id="Caminho_724" data-name="Caminho 724" d="M451.539,329.474a2.854,2.854,0,1,1-.908-1.991A2.856,2.856,0,0,1,451.539,329.474Z" transform="translate(-445.83 -326.718)" fill="#fff"/>
    </g>
    <path id="Caminho_725" data-name="Caminho 725" d="M359.467,178.811l1.291,5.336h6.792V160.18q-4.045-.046-8.09-.12Z" transform="translate(-302.003 -134.53)" fill="#f0f3f7"/>
    <path id="Caminho_726" data-name="Caminho 726" d="M363.532,94a8.265,8.265,0,0,0-4.1,7.517v3.854q4.035.077,8.09.12V101.4C367.512,95.869,363.532,94,363.532,94Z" transform="translate(-301.965 -79.841)" fill="#dae1ea"/>
    <path id="Caminho_727" data-name="Caminho 727" d="M374.057,300l1.893,5.852H367V300Z" transform="translate(-308.246 -250.383)" fill="#dae1ea"/>
    <g id="Grupo_238" data-name="Grupo 238" transform="translate(61.508 14.159)" opacity="0.15">
      <path id="Caminho_728" data-name="Caminho 728" d="M383,94a23.544,23.544,0,0,1,1.549,8.434v27.023l1.549,5.852h3.1l-2.158-5.852V102.348S387.3,96.238,383,94Z" transform="translate(-383 -94)" fill="#3f456b"/>
    </g>
    <g id="Grupo_239" data-name="Grupo 239" transform="translate(59.271 14.159)" opacity="0.5">
      <path id="Caminho_729" data-name="Caminho 729" d="M372.41,94S370,95.974,370,105.4v29.91h2.238V94" transform="translate(-370 -94)" fill="#fff"/>
    </g>
    <g id="Grupo_240" data-name="Grupo 240" transform="translate(15.207 14.159)" opacity="0.5">
      <path id="Caminho_730" data-name="Caminho 730" d="M116.41,94S114,95.974,114,105.4v29.91h2.238V94" transform="translate(-114 -94)" fill="#fff"/>
    </g>
    <g id="Grupo_241" data-name="Grupo 241" transform="translate(69.254 20.872)" opacity="0.5">
      <path id="Caminho_731" data-name="Caminho 731" d="M428.861,160.2a.861.861,0,0,1-.861-.861v-.172a.861.861,0,1,1,1.721,0v.172A.861.861,0,0,1,428.861,160.2Zm0-3.615a.861.861,0,0,1-.861-.861v-.172a.861.861,0,1,1,1.721,0v.172A.861.861,0,0,1,428.861,156.581Zm0-3.615a.861.861,0,0,1-.861-.861v-.172a.861.861,0,1,1,1.721,0v.172A.861.861,0,0,1,428.861,152.966Zm0-3.615a.861.861,0,0,1-.861-.861v-.172a.861.861,0,0,1,1.721,0v.172A.861.861,0,0,1,428.861,149.352Zm0-3.615a.861.861,0,0,1-.861-.861V144.7a.861.861,0,1,1,1.721,0v.172A.861.861,0,0,1,428.861,145.737Zm0-3.615a.861.861,0,0,1-.861-.861v-.172a.861.861,0,1,1,1.721,0v.172A.861.861,0,0,1,428.861,142.123Zm0-3.615a.861.861,0,0,1-.861-.861v-.172a.861.861,0,1,1,1.721,0v.172A.861.861,0,0,1,428.861,138.508Zm0-3.615a.861.861,0,0,1-.861-.861v-.172a.861.861,0,0,1,1.721,0v.172A.861.861,0,0,1,428.861,134.893Z" transform="translate(-428 -133)" fill="#3f456b"/>
    </g>
    <g id="Grupo_242" data-name="Grupo 242" transform="translate(77.172 27.241)" opacity="0.5">
      <path id="Caminho_732" data-name="Caminho 732" d="M474.861,179.123a.861.861,0,0,1-.861-.861v-.172a.861.861,0,1,1,1.721,0v.172A.861.861,0,0,1,474.861,179.123Zm0-3.615a.861.861,0,0,1-.861-.861v-.172a.861.861,0,1,1,1.721,0v.172A.861.861,0,0,1,474.861,175.508Zm0-3.615a.861.861,0,0,1-.861-.861v-.172a.861.861,0,1,1,1.721,0v.172A.861.861,0,0,1,474.861,171.893Z" transform="translate(-474 -170)" fill="#3f456b"/>
    </g>
    <g id="Grupo_243" data-name="Grupo 243" transform="translate(5.052 27.241)" opacity="0.5">
      <path id="Caminho_733" data-name="Caminho 733" d="M55.861,182.737a.861.861,0,0,1-.861-.861V181.7a.861.861,0,0,1,1.721,0v.172A.861.861,0,0,1,55.861,182.737Zm0-3.615a.861.861,0,0,1-.861-.861v-.172a.861.861,0,1,1,1.721,0v.172A.861.861,0,0,1,55.861,179.123Zm0-3.615a.861.861,0,0,1-.861-.861v-.172a.861.861,0,1,1,1.721,0v.172A.861.861,0,0,1,55.861,175.508Zm0-3.615a.861.861,0,0,1-.861-.861v-.172a.861.861,0,1,1,1.721,0v.172A.861.861,0,0,1,55.861,171.893Z" transform="translate(-55 -170)" fill="#3f456b"/>
    </g>
    <g id="Grupo_244" data-name="Grupo 244" transform="translate(60.82 29.651)" opacity="0.3">
      <path id="Caminho_734" data-name="Caminho 734" d="M379.861,186.926a.861.861,0,0,1-.861-.861v-1.2a.861.861,0,0,1,1.721,0v1.2A.861.861,0,0,1,379.861,186.926Z" transform="translate(-379 -184)" fill="#3f456b"/>
    </g>
    <g id="Grupo_245" data-name="Grupo 245" transform="translate(16.412 29.651)" opacity="0.3">
      <path id="Caminho_735" data-name="Caminho 735" d="M121.861,186.926a.861.861,0,0,1-.861-.861v-1.2a.861.861,0,0,1,1.721,0v1.2A.861.861,0,0,1,121.861,186.926Z" transform="translate(-121 -184)" fill="#3f456b"/>
    </g>
    <g id="Grupo_246" data-name="Grupo 246" transform="translate(74.321 67.862)" opacity="0.15">
      <path id="Caminho_736" data-name="Caminho 736" d="M462.356,406s1.356,5.68-4.916,4.906a5.983,5.983,0,0,1,5.219,2.942S466.831,410.3,462.356,406Z" transform="translate(-457.44 -406)" fill="#3f456b"/>
    </g>
    <g id="Grupo_247" data-name="Grupo 247" transform="translate(74.196 57.362)" opacity="0.15">
      <path id="Caminho_737" data-name="Caminho 737" d="M462.724,345s.577,4.819-4.759,4.647a1.185,1.185,0,0,0-1.2,1.549s.172,1.033,1.893.689c0,0,2.582,1.721.861,3.615s1.549,2.41,2.238,0a5.451,5.451,0,0,0-.573-4.274S463.989,349.647,462.724,345Z" transform="translate(-456.71 -345)" fill="#3f456b"/>
    </g>
  </g>
  <g id="Lines" transform="translate(0 0)">
    <path id="Caminho_738" data-name="Caminho 738" d="M203.861,351.2a.861.861,0,0,1-.861-.861V329.861a.861.861,0,0,1,.861-.861h16.352a.861.861,0,0,1,.861.861v13.253a.861.861,0,1,1-1.721,0V330.721H204.721v19.622A.861.861,0,0,1,203.861,351.2Z" transform="translate(-171.619 -274.091)" fill="#3f456b"/>
    <path id="Caminho_739" data-name="Caminho 739" d="M267.861,398.188a.861.861,0,0,1-.861-.861v-9.467a.861.861,0,1,1,1.721,0v9.467A.861.861,0,0,1,267.861,398.188Z" transform="translate(-224.603 -322.108)" fill="#3f456b"/>
    <path id="Caminho_740" data-name="Caminho 740" d="M98.884,402.883H26.075a5.321,5.321,0,0,1-4.5-3.325,8.459,8.459,0,0,1,8.083-12.3,8.871,8.871,0,0,1,6.713,3.442,6.916,6.916,0,0,1,5.336-1.387,11.491,11.491,0,0,1,2.42.554c2.248-6.024,8.832-5.317,8.9-5.31a.861.861,0,1,1-.2,1.711h0c-.238-.028-5.832-.592-7.332,4.962a.861.861,0,0,1-1.2.551c-.193-.093-4.782-2.238-7.4.818a.861.861,0,0,1-1.4-.127,7.105,7.105,0,0,0-5.909-3.494,6.74,6.74,0,0,0-6.458,9.827c.551,1.134,1.709,2.356,2.947,2.356H98.72c3.16-1.308,1.976-5.255,1.923-5.425-1.3-4.047-6.052-3.231-6.253-3.195a.861.861,0,0,1-1.014-.847c0-.268-.1-6.632-6.11-7.229a6.874,6.874,0,0,0-6.233,2.372A8.639,8.639,0,0,0,79.4,389.7a.861.861,0,0,1-1.377.422,8.378,8.378,0,0,0-7.057-1.878,12.234,12.234,0,0,0-1.4.32c-4.635,1.358-4.77,4.782-4.77,5.164a.861.861,0,1,1-1.721,0,6.46,6.46,0,0,1,.83-2.985,8.223,8.223,0,0,1,5.176-3.835,14.565,14.565,0,0,1,1.594-.365,9.986,9.986,0,0,1,7.51,1.549,10.564,10.564,0,0,1,1.537-2.382,8.6,8.6,0,0,1,7.709-2.964,7.827,7.827,0,0,1,6.725,4.819,11.348,11.348,0,0,1,.861,3.181c2.382-.133,6.024.652,7.258,4.475.621,2,.769,6.159-3.1,7.61A.874.874,0,0,1,98.884,402.883Z" transform="translate(-20.685 -318.541)" fill="#3f456b"/>
    <path id="Caminho_741" data-name="Caminho 741" d="M259.445,67.154h-5.357a.861.861,0,0,1,0-1.721h4.778c3.959-9.728,5.99-17.589,6.369-24.7a36.876,36.876,0,0,0-2.74-16.254,22.827,22.827,0,0,0-11.8-12.4.861.861,0,0,1,.7-1.573A24.9,24.9,0,0,1,264.08,23.8a38.632,38.632,0,0,1,2.876,17.026c-.4,7.439-2.532,15.637-6.713,25.8a.861.861,0,0,1-.8.527Z" transform="translate(-210.679 -10.351)" fill="#3f456b"/>
    <path id="Caminho_742" data-name="Caminho 742" d="M174.768,66.981h-5.293a.861.861,0,0,1-.79-.516c-4.634-10.672-6.783-18.4-7.165-25.832a38.718,38.718,0,0,1,2.9-17.04,24.91,24.91,0,0,1,12.7-13.3.861.861,0,0,1,.7,1.573A22.9,22.9,0,0,0,166,24.276a36.829,36.829,0,0,0-2.754,16.262c.372,7.091,2.41,14.507,6.8,24.717h4.727a.861.861,0,0,1,0,1.721Z" transform="translate(-137.234 -10.179)" fill="#3f456b"/>
    <path id="Caminho_743" data-name="Caminho 743" d="M204.091,126.529a10.444,10.444,0,1,1,10.438-10.442h0A10.457,10.457,0,0,1,204.091,126.529Zm0-19.166a8.723,8.723,0,1,0,8.716,8.723A8.723,8.723,0,0,0,204.091,107.363Zm9.577,8.723Z" transform="translate(-163.87 -89.176)" fill="#3f456b"/>
    <path id="Caminho_744" data-name="Caminho 744" d="M207.665,75.307h0l-22.495-.086a.861.861,0,0,1,0-1.721h0l22.495.086a.861.861,0,1,1,0,1.721Z" transform="translate(-156.146 -62.568)" fill="#3f456b"/>
    <path id="Caminho_745" data-name="Caminho 745" d="M238.615,271A3.615,3.615,0,0,1,235,267.384v-13.77a3.615,3.615,0,0,1,7.229,0v13.77A3.615,3.615,0,0,1,238.615,271Zm0-19.278a1.893,1.893,0,0,0-1.893,1.893v13.77a1.893,1.893,0,1,0,3.787,0v-13.77A1.893,1.893,0,0,0,238.615,251.721Z" transform="translate(-198.111 -208.689)" fill="#3f456b"/>
    <path id="Caminho_746" data-name="Caminho 746" d="M139.861,269.314a.861.861,0,0,1-.861-.861V257.265c0-4.348,1.771-6.642,3.258-7.8a7.377,7.377,0,0,1,3.355-1.494.861.861,0,1,1,.2,1.709c-.22.029-5.1.745-5.1,7.573v9.8l9.77-4.885a.861.861,0,1,1,.771,1.539l-11.016,5.508A.875.875,0,0,1,139.861,269.314Z" transform="translate(-118.635 -207.003)" fill="#3f456b"/>
    <path id="Caminho_747" data-name="Caminho 747" d="M309.876,269.363a.861.861,0,0,1-.385-.091l-11.016-5.508a.861.861,0,1,1,.771-1.539l9.77,4.885v-9.8c0-2.938-.847-5.109-2.518-6.451a5.441,5.441,0,0,0-2.41-1.129.861.861,0,0,1,.207-1.707,7.047,7.047,0,0,1,3.27,1.5c1.451,1.158,3.172,3.449,3.172,7.792V268.5A.861.861,0,0,1,309.876,269.363Z" transform="translate(-250.267 -207.052)" fill="#3f456b"/>
    <path id="Caminho_748" data-name="Caminho 748" d="M199.644,299.051h-7.114a.861.861,0,1,1,0-1.721h7.114a.861.861,0,0,1,0,1.721Z" transform="translate(-162.239 -247.872)" fill="#3f456b"/>
    <path id="Caminho_749" data-name="Caminho 749" d="M275.989,299.051h-7.458a.861.861,0,0,1,0-1.721h7.458a.861.861,0,1,1,0,1.721Z" transform="translate(-225.158 -247.872)" fill="#3f456b"/>
    <path id="Caminho_750" data-name="Caminho 750" d="M203.861,351.2a.861.861,0,0,1-.861-.861V329.861a.861.861,0,1,1,1.721,0v20.483A.861.861,0,0,1,203.861,351.2Z" transform="translate(-171.619 -274.091)" fill="#3f456b"/>
    <path id="Caminho_751" data-name="Caminho 751" d="M298.861,343.975a.861.861,0,0,1-.861-.861V329.861a.861.861,0,1,1,1.721,0v13.253A.861.861,0,0,1,298.861,343.975Z" transform="translate(-250.268 -274.091)" fill="#3f456b"/>
    <path id="Caminho_752" data-name="Caminho 752" d="M181.884,449.665a.857.857,0,0,1-.649-1.417c3.732-4.291,9.7-3.084,9.95-3.031a.861.861,0,0,1-.356,1.683c-.074-.016-5.245-1.033-8.3,2.477A.861.861,0,0,1,181.884,449.665Z" transform="translate(-153.43 -370.142)" fill="#3f456b"/>
    <path id="Caminho_753" data-name="Caminho 753" d="M235.861,346.7a.861.861,0,0,1-.861-.861v-9.983a.861.861,0,0,1,1.721,0v9.983A.861.861,0,0,1,235.861,346.7Z" transform="translate(-198.111 -279.058)" fill="#3f456b"/>
    <path id="Caminho_754" data-name="Caminho 754" d="M219.659,226.786c-5.2,0-7.119-1.771-7.322-1.973a.861.861,0,0,1,1.2-1.227c.052.046,1.678,1.479,6.114,1.479a9.758,9.758,0,0,0,5.981-1.859.861.861,0,0,1,1.119,1.308A11.391,11.391,0,0,1,219.659,226.786Z" transform="translate(-179.156 -186.336)" fill="#3f456b"/>
    <path id="Caminho_755" data-name="Caminho 755" d="M154.078,428.519a.861.861,0,0,1-.83-.633,8.1,8.1,0,0,1,.38-4.57.861.861,0,0,1,1.594.647,6.389,6.389,0,0,0-.315,3.468.861.861,0,0,1-.6,1.057A.87.87,0,0,1,154.078,428.519Z" transform="translate(-130.271 -351.75)" fill="#3f456b"/>
    <path id="Caminho_756" data-name="Caminho 756" d="M355.392,421.926a.861.861,0,0,1-.756-.449,11.613,11.613,0,0,0-2.22-2.862.861.861,0,0,1,1.133-1.294,13.206,13.206,0,0,1,2.6,3.334.861.861,0,0,1-.756,1.272Z" transform="translate(-295.095 -347.051)" fill="#3f456b"/>
    <path id="Caminho_757" data-name="Caminho 757" d="M339.959,202.721h-3.1a.861.861,0,1,1,0-1.721h3.1a.861.861,0,0,1,0,1.721Z" transform="translate(-281.727 -168.123)" fill="#3f456b"/>
    <path id="Caminho_758" data-name="Caminho 758" d="M363.333,126.175h-6.792a.861.861,0,1,1,0-1.721h5.931v-27.2a7.3,7.3,0,0,0-3.1-6.384A7.334,7.334,0,0,0,356.1,97.3a.72.72,0,0,1,0,.084V120.15a.861.861,0,1,1-1.721,0V97.411A9.079,9.079,0,0,1,358.9,89.12a.861.861,0,0,1,.812-.043c.182.086,4.475,2.17,4.475,8.172v28.065A.861.861,0,0,1,363.333,126.175Z" transform="translate(-296.933 -75.396)" fill="#3f456b"/>
    <path id="Caminho_759" data-name="Caminho 759" d="M372.273,302.333h-8.582a.861.861,0,1,1,0-1.721h7.4l-1.51-4.733a.861.861,0,1,1,1.639-.516l1.869,5.852a.861.861,0,0,1-.819,1.122Z" transform="translate(-303.939 -245.703)" fill="#3f456b"/>
    <path id="Caminho_760" data-name="Caminho 760" d="M363.242,157.641h-7.882a.861.861,0,1,1,0-1.721h7.882a.861.861,0,0,1,0,1.721Z" transform="translate(-297.043 -130.802)" fill="#3f456b"/>
    <path id="Caminho_761" data-name="Caminho 761" d="M149.477,202.721h-2.926a.861.861,0,0,1,0-1.721h2.926a.861.861,0,1,1,0,1.721Z" transform="translate(-124.174 -168.123)" fill="#3f456b"/>
    <path id="Caminho_762" data-name="Caminho 762" d="M105.883,126.216H99.091a.861.861,0,0,1-.861-.861V97.3c0-6,4.291-8.09,4.475-8.172a.861.861,0,0,1,.812.043,9.079,9.079,0,0,1,4.518,8.291v23.247a.861.861,0,0,1-1.721,0V97.415a.75.75,0,0,1,0-.088,7.326,7.326,0,0,0-3.27-6.42,7.3,7.3,0,0,0-3.1,6.384v27.2h5.931a.861.861,0,1,1,0,1.721Z" transform="translate(-84.883 -75.438)" fill="#3f456b"/>
    <path id="Caminho_763" data-name="Caminho 763" d="M96.445,302.723H87.863a.861.861,0,0,1-.819-1.122l1.868-5.852a.861.861,0,0,1,1.64.516L89.041,301h7.4a.861.861,0,1,1,0,1.721Z" transform="translate(-75.588 -246.093)" fill="#3f456b"/>
    <path id="Caminho_764" data-name="Caminho 764" d="M108.142,157.641h-7.882a.861.861,0,1,1,0-1.721h7.882a.861.861,0,0,1,0,1.721Z" transform="translate(-85.851 -130.802)" fill="#3f456b"/>
    <path id="Caminho_765" data-name="Caminho 765" d="M352.808,363.742a.861.861,0,0,1-.67-.318,12.743,12.743,0,0,1-3.215-7.1.862.862,0,1,1,1.721-.1,11.1,11.1,0,0,0,2.835,6.114.861.861,0,0,1-.668,1.4Z" transform="translate(-292.424 -295.956)" fill="#3f456b"/>
    <path id="Caminho_766" data-name="Caminho 766" d="M396.073,339.729a.861.861,0,0,1-.733-1.31c3.188-5.22.26-7.971.134-8.09a.861.861,0,1,1,1.141-1.289,6.261,6.261,0,0,1,1.633,2.754c.861,2.866-.312,5.67-1.441,7.517A.861.861,0,0,1,396.073,339.729Z" transform="translate(-330.724 -273.945)" fill="#3f456b"/>
    <path id="Caminho_767" data-name="Caminho 767" d="M100.542,343.691a.935.935,0,0,1-.664-.282c-3.42-3.443-5.1-6.735-4.992-9.78a6.525,6.525,0,0,1,1.919-4.549.861.861,0,1,1,1.136,1.293,4.847,4.847,0,0,0-1.338,3.362c-.06,2.344,1.3,5.059,3.943,7.883,2.449-2.6,3.771-5.048,3.931-7.276a.863.863,0,1,1,1.721.124c-.2,2.807-1.873,5.809-4.966,8.923a.911.911,0,0,1-.6.3ZM99.887,342.314Zm1.2-.112Z" transform="translate(-82.11 -273.979)" fill="#3f456b"/>
    <path id="Caminho_768" data-name="Caminho 768" d="M235.861,411.41a.861.861,0,0,1-.861-.861v-.688a.861.861,0,1,1,1.721,0v.688A.861.861,0,0,1,235.861,411.41Z" transform="translate(-198.111 -340.321)" fill="#3f456b"/>
    <path id="Caminho_769" data-name="Caminho 769" d="M35.521,345.073a.939.939,0,0,1-.1,0,.861.861,0,0,1-.759-.952l1.721-15.328a.861.861,0,0,1,.861-.764h3.5a.861.861,0,0,1,.861.747l1.859,14.014a.861.861,0,1,1-1.706.227l-1.768-13.272H38.011l-1.637,14.563A.861.861,0,0,1,35.521,345.073Z" transform="translate(-32.253 -273.288)" fill="#3f456b"/>
    <path id="Caminho_770" data-name="Caminho 770" d="M47.992,356.721H43.861a.861.861,0,1,1,0-1.721h4.131a.861.861,0,1,1,0,1.721Z" transform="translate(-39.159 -295.616)" fill="#3f456b"/>
    <path id="Caminho_771" data-name="Caminho 771" d="M46.024,385.721H40.861a.861.861,0,1,1,0-1.721h5.164a.861.861,0,1,1,0,1.721Z" transform="translate(-36.675 -319.624)" fill="#3f456b"/>
    <path id="Caminho_772" data-name="Caminho 772" d="M45.861,275.081a.861.861,0,0,1-.861-.861v-11.36a.861.861,0,1,1,1.721,0v11.36A.861.861,0,0,1,45.861,275.081Z" transform="translate(-40.815 -218.623)" fill="#3f456b"/>
    <path id="Caminho_773" data-name="Caminho 773" d="M65.861,302.4a.861.861,0,0,1-.861-.861v-5.68a.861.861,0,1,1,1.721,0v5.68A.861.861,0,0,1,65.861,302.4Z" transform="translate(-57.372 -245.943)" fill="#3f456b"/>
    <path id="Caminho_774" data-name="Caminho 774" d="M41.134,119.458a3.754,3.754,0,1,1,3.754-3.754A3.754,3.754,0,0,1,41.134,119.458Zm0-5.787a2.028,2.028,0,1,1,0,.009Z" transform="translate(-34.506 -94.4)" fill="#3f456b"/>
    <path id="Caminho_775" data-name="Caminho 775" d="M445.744,20.755a5.382,5.382,0,1,1,5.381-5.382A5.382,5.382,0,0,1,445.744,20.755Zm0-9.042a3.661,3.661,0,1,0,3.659,3.66A3.661,3.661,0,0,0,445.744,11.713Z" transform="translate(-368.124 -9.99)" fill="#3f456b"/>
    <path id="Caminho_776" data-name="Caminho 776" d="M423.456,344.63a.861.861,0,0,1-.59-1.487,4.059,4.059,0,0,0,1.472-2.99,5.784,5.784,0,0,0-1.763-3.594.861.861,0,0,1-.21-.981,2.967,2.967,0,0,0-.623-3.47.861.861,0,0,1,.172-1.43,3.455,3.455,0,0,0,1.678-3.124,4.317,4.317,0,0,0-1.783-3.861,5.279,5.279,0,0,0-5.122.076c-3.041,1.654-1.258,5.785-1.181,5.957a.861.861,0,0,1-.688,1.2,3.746,3.746,0,0,0-3.062,2.37.861.861,0,0,1-1.635-.534,5.5,5.5,0,0,1,3.442-3.325c-.647-2.172-.75-5.523,2.286-7.179a7,7,0,0,1,6.8-.055,5.97,5.97,0,0,1,2.644,5.4,5.444,5.444,0,0,1-1.73,4.01,4.666,4.666,0,0,1,.575,4.1,7.066,7.066,0,0,1,1.909,4.422,5.709,5.709,0,0,1-2.012,4.258A.861.861,0,0,1,423.456,344.63Z" transform="translate(-343.062 -267.76)" fill="#3f456b"/>
  </g>
</svg>
