<svg id="_5893396_astronaut_flag_space_spaceman_icon" data-name="5893396_astronaut_flag_space_spaceman_icon" xmlns="http://www.w3.org/2000/svg" width="87.655" height="89.063" viewBox="0 0 87.655 89.063">
  <g id="Colors" transform="translate(1.906 0.909)">
    <path id="Caminho_603" data-name="Caminho 603" d="M171.93,420.731S179.4,417.457,181.945,404H210.86s.636,13.639,14.549,16.731Z" transform="translate(-146.388 -333.487)" fill="#ffa694"/>
    <path id="Caminho_604" data-name="Caminho 604" d="M432.437,404a3.057,3.057,0,1,0,3.057,3.048A3.057,3.057,0,0,0,432.437,404Z" transform="translate(-357.019 -333.487)" fill="#f0f3f7"/>
    <g id="Grupo_173" data-name="Grupo 173" transform="translate(71.981 70.125)" opacity="0.7">
      <circle id="Elipse_32" data-name="Elipse 32" cx="1.809" cy="1.809" r="1.809" transform="translate(0 2.559) rotate(-45)" fill="#fff"/>
    </g>
    <g id="Grupo_174" data-name="Grupo 174" transform="translate(72.703 70.848)" opacity="0.15">
      <path id="Caminho_605" data-name="Caminho 605" d="M431.26,410.163a3.156,3.156,0,1,0,4.319-4.323s1.273,2.242-.3,3.819C433.65,411.292,431.26,410.163,431.26,410.163Z" transform="translate(-431.26 -405.84)" fill="#3f456b"/>
    </g>
    <g id="Grupo_175" data-name="Grupo 175" transform="translate(25.555 84.516)" opacity="0.15">
      <path id="Caminho_606" data-name="Caminho 606" d="M175.455,481h43.464l4.183,2.728H172Z" transform="translate(-172 -481)" fill="#3f456b"/>
    </g>
    <path id="Caminho_607" data-name="Caminho 607" d="M359.015,55.64a7.023,7.023,0,1,0,7.021,7.022,7.023,7.023,0,0,0-7.021-7.022Z" transform="translate(-293.703 -48.478)" fill="#f0f4f7"/>
    <g id="Grupo_176" data-name="Grupo 176" transform="translate(59.14 8.013)" opacity="0.7">
      <path id="Caminho_608" data-name="Caminho 608" d="M360.835,60.32a4.155,4.155,0,1,0,4.155,4.155,4.155,4.155,0,0,0-4.155-4.155Z" transform="translate(-356.68 -60.32)" fill="#fff"/>
    </g>
    <g id="Grupo_177" data-name="Grupo 177" transform="translate(59.584 8.456)" opacity="0.15">
      <path id="Caminho_609" data-name="Caminho 609" d="M359.12,72.693c2.744,2.742,7.951,3.5,10.693.76s1.982-7.951-.76-10.693c0,0,2.93,5.152-.684,8.765C364.608,75.284,359.12,72.693,359.12,72.693Z" transform="translate(-359.12 -62.76)" fill="#3f456b"/>
    </g>
    <path id="Caminho_610" data-name="Caminho 610" d="M35.828,423a4.346,4.346,0,1,0,4.345,4.345A4.346,4.346,0,0,0,35.828,423Z" transform="translate(-31.48 -349.032)" fill="#b2c6ed"/>
    <g id="Grupo_178" data-name="Grupo 178" transform="translate(0.527 74.494)" opacity="0.3">
      <path id="Caminho_611" data-name="Caminho 611" d="M36.951,425.89a2.571,2.571,0,1,0,2.571,2.566A2.571,2.571,0,0,0,36.951,425.89Z" transform="translate(-34.38 -425.89)" fill="#fff"/>
    </g>
    <g id="Grupo_179" data-name="Grupo 179" transform="translate(0.487 74.454)" opacity="0.15">
      <path id="Caminho_612" data-name="Caminho 612" d="M34.16,431.817c1.7,1.7,4.921,2.168,6.618.471s1.226-4.921-.464-6.618c0,0,1.819,3.188-.422,5.425C37.557,433.421,34.16,431.817,34.16,431.817Z" transform="translate(-34.16 -425.67)" fill="#3f456b"/>
    </g>
    <path id="Caminho_613" data-name="Caminho 613" d="M434.23,295.1v13.223h-14.1L420,301.629l3.573-6.529Z" transform="translate(-349.345 -244.391)" fill="#e95a6b"/>
    <g id="Grupo_180" data-name="Grupo 180" transform="translate(70.837 51.054)" opacity="0.2">
      <rect id="Retângulo_49" data-name="Retângulo 49" width="14.003" height="3.455" fill="#fff"/>
    </g>
    <g id="Grupo_181" data-name="Grupo 181" transform="translate(70.473 51.054)" opacity="0.15">
      <rect id="Retângulo_50" data-name="Retângulo 50" width="6.183" height="12.73" fill="#3f456b"/>
    </g>
    <path id="Caminho_614" data-name="Caminho 614" d="M374.219,276v8.976h-14.1V271.75h14.1Z" transform="translate(-300.355 -225.287)" fill="#e95a6b"/>
    <g id="Grupo_182" data-name="Grupo 182" transform="translate(59.744 46.508)" opacity="0.2">
      <rect id="Retângulo_51" data-name="Retângulo 51" width="14.185" height="3.455" fill="#fff"/>
    </g>
    <g id="Grupo_183" data-name="Grupo 183" transform="translate(59.744 56.146)" opacity="0.15">
      <rect id="Retângulo_52" data-name="Retângulo 52" width="14.185" height="3.455" fill="#3f456b"/>
    </g>
    <path id="Caminho_615" data-name="Caminho 615" d="M66,111.641V94.474A4.541,4.541,0,0,1,70.614,90h38.059a4.382,4.382,0,0,1,4.428,4.474v17.167" transform="translate(-59.722 -76.59)" fill="#f0f4f7"/>
    <g id="_编组_" data-name="&lt;编组&gt;" transform="translate(3.732 26.726)">
      <path id="Caminho_616" data-name="Caminho 616" d="M61.457,194.1H52.04l-.04-4.8V182.02a21.713,21.713,0,0,1,10.48-18.731l.105-.055c2.491,5.025,7.493,8.365,15.616,8.365,7.765,0,12.879-3.353,15.491-8.38l.115.06a21.754,21.754,0,0,1,10.386,18.742V189.3l.024,4.8h-9.48v29.641H82.552v-13.3s.364-5.761-4.448-5.763-4.281,5.763-4.281,5.763v13.3H61.457Z" transform="translate(-52 -163.22)" fill="#f0f4f7"/>
    </g>
    <path id="Caminho_617" data-name="Caminho 617" d="M134.642,33.822c0,9.7-5.67,17.56-17.562,17.56-12.443,0-17.56-7.862-17.56-17.56a17.561,17.561,0,1,1,35.123,0Z" transform="translate(-87.146 -16.26)" fill="#f0f4f7"/>
    <g id="Grupo_184" data-name="Grupo 184" transform="translate(19.41 0.049)" opacity="0.15">
      <path id="Caminho_618" data-name="Caminho 618" d="M150.053,16.53a16.744,16.744,0,0,1,10.4,16.185c-.111,14.478-9.153,19.9-22.247,16.229,0,0,11.339,6.192,20.914-.269s7.049-17.536,6.294-20.473S161.3,17.788,150.053,16.53Z" transform="translate(-138.21 -16.53)" fill="#3f456b"/>
    </g>
    <path id="Caminho_619" data-name="Caminho 619" d="M147.677,74.609c0,8.951-6.2,11.261-13.841,11.261S120,83.56,120,74.609c0-7.218,6.2-9.529,13.839-9.529S147.677,67.391,147.677,74.609Z" transform="translate(-103.902 -56.202)" fill="#83c5ea"/>
    <g id="Grupo_185" data-name="Grupo 185" transform="translate(16.249 9.753)" opacity="0.15">
      <path id="Caminho_620" data-name="Caminho 620" d="M141.52,69.89s3.541,2.246,3.039,7.807S136.3,86.664,128.95,85.19s-8.122-4.332-8.122-4.332-.236,7.982,11.033,8.842,16-4,16.493-8.956-1.648-9.624-6.834-10.853" transform="translate(-120.828 -69.89)" fill="#3f456b"/>
    </g>
    <g id="Grupo_186" data-name="Grupo 186" transform="translate(16.639 9.561)" opacity="0.3">
      <path id="Caminho_621" data-name="Caminho 621" d="M138.554,74.1c.651,3.6-2.29,7.142-6.567,7.916s-8.273-1.517-8.924-5.114,2.29-7.143,6.569-7.916S137.905,70.5,138.554,74.1Z" transform="translate(-122.974 -68.835)" fill="#fff"/>
    </g>
    <g id="Grupo_187" data-name="Grupo 187" transform="translate(20.287 12.648)" opacity="0.3">
      <path id="Caminho_622" data-name="Caminho 622" d="M146.69,87.043a1.875,1.875,0,1,1-2.095-1.2A1.726,1.726,0,0,1,146.69,87.043Z" transform="translate(-143.033 -85.808)" fill="#fff"/>
    </g>
    <g id="Grupo_188" data-name="Grupo 188" transform="translate(43.064 26.869)" opacity="0.15">
      <path id="Caminho_623" data-name="Caminho 623" d="M268.28,167.265a15.958,15.958,0,0,1,8.911,11.359,25.608,25.608,0,0,1,.671,4.3v11.821h3.455V181.967s-.824-12.979-10.562-17.957Z" transform="translate(-268.28 -164.01)" fill="#3f456b"/>
    </g>
    <g id="Grupo_189" data-name="Grupo 189" transform="translate(43.74 37.351)" opacity="0.15">
      <path id="Caminho_624" data-name="Caminho 624" d="M274.673,221.681A2.164,2.164,0,0,0,272,223.974v47.383h2.813Z" transform="translate(-272 -221.646)" fill="#3f456b"/>
    </g>
    <g id="Grupo_190" data-name="Grupo 190" transform="translate(10.279 37.382)" opacity="0.15">
      <path id="Caminho_625" data-name="Caminho 625" d="M90.706,221.86A2.155,2.155,0,0,0,88,224.115v17.922h2.879Z" transform="translate(-88 -221.818)" fill="#3f456b"/>
    </g>
    <g id="Grupo_191" data-name="Grupo 191" transform="translate(22.645 68.21)" opacity="0.15">
      <path id="Caminho_626" data-name="Caminho 626" d="M162.791,391.38S156,390.5,156,396.818v13.554h2.91V396.314S158.868,391.7,162.791,391.38Z" transform="translate(-156 -391.338)" fill="#3f456b"/>
    </g>
    <path id="Caminho_627" data-name="Caminho 627" d="M287.469,333.51s-.1,6.347,4.739,6.347,4.825-6.236,4.825-6.236Z" transform="translate(-240.916 -275.816)" fill="#abb2c6"/>
    <g id="Grupo_192" data-name="Grupo 192" transform="translate(50.651 57.601)" opacity="0.15">
      <path id="Caminho_628" data-name="Caminho 628" d="M312,333s1.368,5.434-2,6.063c0,0,5.274,1.211,5.274-6.063Z" transform="translate(-310 -333)" fill="#3f456b"/>
    </g>
    <path id="Caminho_629" data-name="Caminho 629" d="M50.529,333.5s-.1,7.02,5.032,7.02,5.121-6.9,5.121-6.9Z" transform="translate(-47.065 -275.808)" fill="#abb2c6"/>
    <rect id="Retângulo_53" data-name="Retângulo 53" width="23.278" height="16.549" rx="8.274" transform="translate(18.28 39.961)" fill="#f0f4f7"/>
    <path id="Caminho_630" data-name="Caminho 630" d="M285.9,90.368s.951,7.081-1.286,11.67a13.01,13.01,0,0,1,4.335,3.93v5.37s-3.412-5.728-8.013-7.787c0,0,3.122-6.965,1.671-13.183A8.5,8.5,0,0,1,285.9,90.368Z" transform="translate(-235.574 -76.749)" fill="#d8e0e5"/>
    <path id="Caminho_631" data-name="Caminho 631" d="M222.892,345.56a2.957,2.957,0,1,1,2.164,3.577A2.957,2.957,0,0,1,222.892,345.56Z" transform="translate(-188.012 -283.832)" fill="#b2c6ed"/>
    <g id="Grupo_193" data-name="Grupo 193" transform="translate(61.076 70.513)" opacity="0.15">
      <path id="Caminho_632" data-name="Caminho 632" d="M367.329,404.056s-.12,11.4,6.791,16.674h11.153s-13.881-4.3-14.549-16.731Z" transform="translate(-367.329 -404)" fill="#3f456b"/>
    </g>
    <g id="Grupo_194" data-name="Grupo 194" transform="translate(53.29 70.513)" opacity="0.15">
      <path id="Caminho_633" data-name="Caminho 633" d="M324.542,404.105s-.467,6.238,2.25,10.386c0,0,.9,1.466,2.173.6s-.182-2.728-.182-2.728-2.024-4.428-1.444-8.26l-2.8-.105" transform="translate(-324.512 -404)" fill="#3f456b"/>
    </g>
    <g id="Grupo_195" data-name="Grupo 195" transform="translate(13.188 84.88)" opacity="0.15">
      <rect id="Retângulo_54" data-name="Retângulo 54" width="12.366" height="1.819" fill="#3f456b"/>
    </g>
    <g id="Grupo_196" data-name="Grupo 196" transform="translate(34.284 84.88)" opacity="0.15">
      <rect id="Retângulo_55" data-name="Retângulo 55" width="12.366" height="1.819" fill="#3f456b"/>
    </g>
    <path id="Caminho_634" data-name="Caminho 634" d="M292.272,309.569h-9.033a.909.909,0,1,1,0-1.819h9.033a.909.909,0,0,1,0,1.819Z" transform="translate(-236.711 -254.741)" fill="#e95a6b"/>
    <path id="Caminho_635" data-name="Caminho 635" d="M58.272,309.569H49.239a.909.909,0,1,1,0-1.819h9.033a.909.909,0,1,1,0,1.819Z" transform="translate(-45.266 -254.741)" fill="#e95a6b"/>
    <path id="Caminho_636" data-name="Caminho 636" d="M114,467.569H102.239a.909.909,0,1,1,0-1.819H114a.909.909,0,1,1,0,1.819Z" transform="translate(-88.627 -384.007)" fill="#e95a6b"/>
    <path id="Caminho_637" data-name="Caminho 637" d="M229,467.569H217.239a.909.909,0,1,1,0-1.819H229a.909.909,0,1,1,0,1.819Z" transform="translate(-182.714 -384.007)" fill="#e95a6b"/>
    <g id="Grupo_197" data-name="Grupo 197" transform="translate(7.733 57.601)" opacity="0.15">
      <path id="Caminho_638" data-name="Caminho 638" d="M76,333s1.368,5.956-2,6.645c0,0,5.274,1.329,5.274-6.645Z" transform="translate(-74 -333)" fill="#3f456b"/>
    </g>
    <g id="Grupo_198" data-name="Grupo 198" transform="translate(46.468 70.517)" opacity="0.3">
      <path id="Caminho_639" data-name="Caminho 639" d="M287,404.02h18l.487,2.459H287Z" transform="translate(-287 -404.02)" fill="#fff"/>
    </g>
    <g id="Grupo_199" data-name="Grupo 199" transform="translate(16.15 10.375)" opacity="0.3">
      <path id="Caminho_640" data-name="Caminho 640" d="M121.687,87.62a7.831,7.831,0,0,0,4.69,3.548A32.29,32.29,0,0,1,124.9,76.66a23.071,23.071,0,0,1,.587-3.35C119.645,75.136,119.264,82.776,121.687,87.62Z" transform="translate(-120.283 -73.31)" fill="#fff"/>
    </g>
    <g id="Grupo_200" data-name="Grupo 200" transform="translate(15.215 0.009)" opacity="0.7">
      <path id="Caminho_641" data-name="Caminho 641" d="M122.171,44.534a7.831,7.831,0,0,1-4.69-3.548c-2.422-4.845-2.042-12.484,3.8-14.31,2.2-8.593,8.584-10.366,8.584-10.366-4.254.78-11.6,3.681-14.2,14.674s5.4,18.56,5.4,18.56c3.273,2.35,5.672,1.591,5.672,1.591A13.612,13.612,0,0,1,122.171,44.534Z" transform="translate(-115.142 -16.31)" fill="#f7f8f9"/>
    </g>
    <g id="Grupo_201" data-name="Grupo 201" transform="translate(18.279 39.961)" opacity="0.7">
      <path id="Caminho_642" data-name="Caminho 642" d="M137.31,252.611a5.193,5.193,0,0,1-2.95-4.972v-5.712s-.242-3.2,3.7-3.2h12.119s5.034-.182,5.034,3.5c0,0,.546-6.23-5.579-6.23H137.088s-5.092.78-5.092,4.752v6.887S131.794,252.667,137.31,252.611Z" transform="translate(-131.995 -236)" fill="#f7f8f9"/>
    </g>
    <g id="Grupo_202" data-name="Grupo 202" transform="translate(18.179 40.014)" opacity="0.15">
      <path id="Caminho_643" data-name="Caminho 643" d="M149.416,236.288a5.207,5.207,0,0,1,2.859,4.979v5.707s.282,3.082-3.661,3.082H136.489s-5.036.182-5.036-3.5c0,0-.546,6.23,5.579,6.23h12.548s5.239-.664,5.239-4.636v-6.881A4.91,4.91,0,0,0,149.416,236.288Z" transform="translate(-131.441 -236.288)" fill="#3f456b"/>
    </g>
    <g id="Grupo_203" data-name="Grupo 203" transform="translate(24.305 44.92)" opacity="0.3">
      <path id="Caminho_644" data-name="Caminho 644" d="M175.812,265.089h-9.773a.909.909,0,1,1,0-1.819h9.773a.909.909,0,1,1,0,1.819Z" transform="translate(-165.13 -263.27)" fill="#3f456b"/>
    </g>
    <g id="Grupo_204" data-name="Grupo 204" transform="translate(24.305 49.551)" opacity="0.3">
      <path id="Caminho_645" data-name="Caminho 645" d="M175.812,290.549h-9.773a.909.909,0,0,1,0-1.819h9.773a.909.909,0,0,1,0,1.819Z" transform="translate(-165.13 -288.73)" fill="#3f456b"/>
    </g>
    <g id="Grupo_205" data-name="Grupo 205" transform="translate(61.017 30.505)" opacity="0.5">
      <path id="Caminho_646" data-name="Caminho 646" d="M369.91,211.819h-2a.909.909,0,1,1,0-1.819h2a.909.909,0,1,1,0,1.819Z" transform="translate(-367 -205.272)" fill="#3f456b"/>
      <path id="Caminho_647" data-name="Caminho 647" d="M411.092,211.819h-2.182a.909.909,0,1,1,0-1.819h2.182a.909.909,0,1,1,0,1.819Z" transform="translate(-400.544 -205.272)" fill="#3f456b"/>
      <path id="Caminho_648" data-name="Caminho 648" d="M393.909,229a.909.909,0,0,1-.909-.909v-2.182a.909.909,0,1,1,1.819,0v2.182A.909.909,0,0,1,393.909,229Z" transform="translate(-388.272 -217.544)" fill="#3f456b"/>
      <path id="Caminho_649" data-name="Caminho 649" d="M393.909,188a.909.909,0,0,1-.909-.909v-2.182a.909.909,0,0,1,1.819,0v2.182A.909.909,0,0,1,393.909,188Z" transform="translate(-388.272 -184)" fill="#3f456b"/>
      <path id="Caminho_650" data-name="Caminho 650" d="M382.675,203.541a3.455,3.455,0,1,1,3.455-3.455A3.455,3.455,0,0,1,382.675,203.541Zm0-5.092a.679.679,0,1,0,0-.007Z" transform="translate(-376.998 -194.333)" fill="#3f456b"/>
    </g>
  </g>
  <g id="Lines" transform="translate(0 0)">
    <path id="Caminho_651" data-name="Caminho 651" d="M428.346,406.883a3.966,3.966,0,1,1,3.966-3.966A3.966,3.966,0,0,1,428.346,406.883Zm0-6.114a2.143,2.143,0,1,1,0,.009Z" transform="translate(-351.023 -328.446)" fill="#3f456b"/>
    <path id="Caminho_652" data-name="Caminho 652" d="M354.924,66.5a7.933,7.933,0,1,1,7.931-7.932A7.933,7.933,0,0,1,354.924,66.5Zm0-14.045a6.114,6.114,0,1,0,6.112,6.113A6.114,6.114,0,0,0,354.924,52.45Z" transform="translate(-287.707 -43.47)" fill="#3f456b"/>
    <path id="Caminho_653" data-name="Caminho 653" d="M31.737,428.5a5.256,5.256,0,1,1,5.254-5.255A5.256,5.256,0,0,1,31.737,428.5Zm0-8.691a3.437,3.437,0,1,0,3.435,3.436A3.437,3.437,0,0,0,31.737,419.81Z" transform="translate(-25.483 -344.023)" fill="#3f456b"/>
    <path id="Caminho_654" data-name="Caminho 654" d="M355.909,311.009A.909.909,0,0,1,355,310.1v-40.19a.909.909,0,1,1,1.819,0V310.1A.909.909,0,0,1,355.909,311.009Z" transform="translate(-294.26 -222.128)" fill="#3f456b"/>
    <path id="Caminho_655" data-name="Caminho 655" d="M370.094,282.73H355.909a.909.909,0,1,1,0-1.819h13.276V269.819H355.909a.909.909,0,1,1,0-1.819h14.185a.909.909,0,0,1,.909.909v12.912A.909.909,0,0,1,370.094,282.73Z" transform="translate(-294.26 -221.31)" fill="#3f456b"/>
    <path id="Caminho_656" data-name="Caminho 656" d="M430.912,306.73h-14a.909.909,0,0,1-.909-.909V302a.909.909,0,0,1,1.819,0v2.91H430V293.819h-9.638a.909.909,0,0,1,0-1.819h10.548a.909.909,0,0,1,.909.909v12.912A.909.909,0,0,1,430.912,306.73Z" transform="translate(-344.167 -240.946)" fill="#3f456b"/>
    <path id="Caminho_657" data-name="Caminho 657" d="M219.8,344.6a4.281,4.281,0,0,1-4.157-5.307h0A4.281,4.281,0,1,1,219.8,344.6Zm0-6.747a2.466,2.466,0,0,0-2.386,1.875h0a2.462,2.462,0,1,0,2.981-1.8,2.546,2.546,0,0,0-.607-.075Zm-3.273,1.659Z" transform="translate(-180.143 -276.974)" fill="#3f456b"/>
    <path id="Caminho_658" data-name="Caminho 658" d="M129.745,82.7c-4.514,0-7.882-.795-10.3-2.43-2.953-2.008-4.448-5.281-4.448-9.74a8.952,8.952,0,0,1,4.5-8.254c2.453-1.455,5.9-2.182,10.249-2.182,12.184,0,14.75,5.676,14.75,10.439h0c0,4.457-1.493,7.731-4.457,9.731C137.628,81.9,134.26,82.7,129.745,82.7Zm0-20.79c-4.017,0-7.156.651-9.324,1.931a7.15,7.15,0,0,0-3.6,6.689c0,3.875,1.195,6.569,3.653,8.234,2.1,1.424,5.139,2.117,9.275,2.117s7.174-.693,9.275-2.117c2.459-1.666,3.654-4.365,3.654-8.234a7.157,7.157,0,0,0-3.606-6.689C136.9,62.558,133.764,61.907,129.745,61.907Z" transform="translate(-97.905 -51.21)" fill="#3f456b"/>
    <path id="Caminho_659" data-name="Caminho 659" d="M113,48.2h0c-6.149,0-10.9-1.833-14.125-5.447-2.842-3.188-4.345-7.691-4.345-13.023A18.466,18.466,0,0,1,113,11.26h0a18.47,18.47,0,0,1,18.471,18.473c0,5.257-1.577,9.764-4.559,13.028C123.658,46.32,118.846,48.2,113,48.2Zm0-35.122A16.649,16.649,0,0,0,96.349,29.733c0,4.877,1.342,8.962,3.883,11.819,2.864,3.212,7.162,4.839,12.768,4.839,5.325,0,9.671-1.677,12.57-4.846,2.671-2.924,4.083-7.007,4.083-11.8A16.653,16.653,0,0,0,113,13.088Z" transform="translate(-81.158 -11.26)" fill="#3f456b"/>
    <path id="Caminho_660" data-name="Caminho 660" d="M293.092,108.459a.909.909,0,0,1-.909-.909V90.382a3.464,3.464,0,0,0-3.519-3.564h-1.755a.909.909,0,1,1,0-1.819h1.755A5.3,5.3,0,0,1,294,90.382V107.55A.909.909,0,0,1,293.092,108.459Z" transform="translate(-237.808 -71.589)" fill="#3f456b"/>
    <path id="Caminho_661" data-name="Caminho 661" d="M61.909,108.46A.909.909,0,0,1,61,107.55V90.383A5.46,5.46,0,0,1,66.523,85h1.569a.909.909,0,1,1,0,1.819H66.523a3.641,3.641,0,0,0-3.7,3.564V107.55A.909.909,0,0,1,61.909,108.46Z" transform="translate(-53.726 -71.59)" fill="#3f456b"/>
    <path id="Caminho_662" data-name="Caminho 662" d="M52.716,198.147c-3.224,0-5.656-2.23-5.656-5.188L47,185.685V178.41a22.466,22.466,0,0,1,5.456-14.887,21.261,21.261,0,0,1,5.5-4.641.909.909,0,0,1,.855,1.6,19.928,19.928,0,0,0-5.027,4.281,20.364,20.364,0,0,0-4.967,13.63v7.274l.06,7.274c0,2.22,1.931,3.377,3.837,3.377a3.6,3.6,0,0,0,3.637-2.351.911.911,0,1,1,1.739.546A5.379,5.379,0,0,1,52.716,198.147Z" transform="translate(-42.272 -131.96)" fill="#3f456b"/>
    <path id="Caminho_663" data-name="Caminho 663" d="M283.667,197.747h0a6.238,6.238,0,0,1-4-1.377,4.888,4.888,0,0,1-1.795-3.819.909.909,0,1,1,1.819,0,3.057,3.057,0,0,0,1.14,2.421,4.41,4.41,0,0,0,2.832.957h0a4.032,4.032,0,0,0,2.7-.935,3.155,3.155,0,0,0,1.048-2.433l-.033-6.911v-7.274a20.491,20.491,0,0,0-4.926-13.639,19.794,19.794,0,0,0-4.983-4.279.909.909,0,0,1,.862-1.6,21.129,21.129,0,0,1,5.456,4.643,22.564,22.564,0,0,1,5.412,14.883v7.274l.033,6.911a4.99,4.99,0,0,1-1.659,3.8,5.83,5.83,0,0,1-3.9,1.384Z" transform="translate(-230.455 -131.937)" fill="#3f456b"/>
    <path id="Caminho_664" data-name="Caminho 664" d="M282.909,272.738a.909.909,0,0,1-.909-.909V222.909a.909.909,0,0,1,1.819,0v48.919A.909.909,0,0,1,282.909,272.738Z" transform="translate(-234.535 -183.676)" fill="#3f456b"/>
    <path id="Caminho_665" data-name="Caminho 665" d="M176.536,407.069a.909.909,0,0,1-.909-.909V392.8a6.008,6.008,0,0,0-1.166-3.884,3.08,3.08,0,0,0-2.375-.909,2.969,2.969,0,0,0-2.33.9c-1.249,1.362-1.048,3.848-1.046,3.874s0,.055,0,.082v13.3a.909.909,0,1,1-1.819,0V392.9c-.031-.422-.182-3.355,1.513-5.212a4.757,4.757,0,0,1,3.677-1.5,4.862,4.862,0,0,1,3.706,1.489,7.7,7.7,0,0,1,1.657,5.2V406.16A.909.909,0,0,1,176.536,407.069Z" transform="translate(-140.347 -318.007)" fill="#3f456b"/>
    <path id="Caminho_666" data-name="Caminho 666" d="M99.909,272.738a.909.909,0,0,1-.909-.909V222.909a.909.909,0,1,1,1.819,0v48.919a.909.909,0,0,1-.909.909Z" transform="translate(-84.815 -183.676)" fill="#3f456b"/>
    <path id="Caminho_667" data-name="Caminho 667" d="M103.927,492.819H21.909a.909.909,0,1,1,0-1.819h82.017a.909.909,0,1,1,0,1.819Z" transform="translate(-21 -403.756)" fill="#3f456b"/>
    <path id="Caminho_668" data-name="Caminho 668" d="M146.153,249.368h-13.21A5.95,5.95,0,0,1,127,243.424v-6.481A5.95,5.95,0,0,1,132.943,231h13.21a5.95,5.95,0,0,1,5.943,5.943v6.481A5.95,5.95,0,0,1,146.153,249.368Zm-13.21-16.549a4.13,4.13,0,0,0-4.124,4.125v6.481a4.13,4.13,0,0,0,4.124,4.125h13.21a4.13,4.13,0,0,0,4.125-4.125v-6.481a4.13,4.13,0,0,0-4.125-4.125Z" transform="translate(-107.723 -191.039)" fill="#3f456b"/>
    <path id="Caminho_669" data-name="Caminho 669" d="M58,329.819H48.909a.909.909,0,1,1,0-1.819H58a.909.909,0,1,1,0,1.819Z" transform="translate(-43.09 -270.399)" fill="#3f456b"/>
    <path id="Caminho_670" data-name="Caminho 670" d="M292.366,329.819h-9.457a.909.909,0,1,1,0-1.819h9.457a.909.909,0,1,1,0,1.819Z" transform="translate(-234.535 -270.399)" fill="#3f456b"/>
    <path id="Caminho_671" data-name="Caminho 671" d="M316.584,417.549a.9.9,0,0,1-.182-.018,18.641,18.641,0,0,1-13.094-9.855,23.8,23.8,0,0,1-2.364-6.858H283.909a.909.909,0,0,1,0-1.819h17.822a.909.909,0,0,1,.909.818,21.445,21.445,0,0,0,2.308,7.065,16.62,16.62,0,0,0,11.821,8.865.909.909,0,0,1-.182,1.8Z" transform="translate(-235.354 -328.487)" fill="#3f456b"/>
    <path id="Caminho_672" data-name="Caminho 672" d="M167.807,432.718a.909.909,0,0,1-.313-1.764c6.952-2.535,8.144-12.184,8.154-12.277a.91.91,0,0,1,1.808.209,22.816,22.816,0,0,1-1.606,5.738c-1.726,4.048-4.4,6.829-7.733,8.045A.94.94,0,0,1,167.807,432.718Z" transform="translate(-140.363 -343.926)" fill="#3f456b"/>
    <path id="Caminho_673" data-name="Caminho 673" d="M321.736,408.638a.909.909,0,0,1-.864-.625,28.168,28.168,0,0,1-1.195-8.118.909.909,0,0,1,1.819.029h0a26.789,26.789,0,0,0,1.1,7.522.909.909,0,0,1-.864,1.193Z" transform="translate(-265.36 -328.486)" fill="#3f456b"/>
    <path id="Caminho_674" data-name="Caminho 674" d="M126.909,345.29a.909.909,0,0,1-.909-.909V344.2a.909.909,0,1,1,1.819,0v.182A.909.909,0,0,1,126.909,345.29Z" transform="translate(-106.905 -282.908)" fill="#3f456b"/>
    <path id="Caminho_675" data-name="Caminho 675" d="M235.109,355.9a.909.909,0,0,1-.909-.909v-.182a.909.909,0,1,1,1.819,0v.182A.909.909,0,0,1,235.109,355.9Z" transform="translate(-195.428 -291.589)" fill="#3f456b"/>
    <path id="Caminho_676" data-name="Caminho 676" d="M126.909,366.5a.909.909,0,0,1-.909-.909v-.182a.909.909,0,0,1,1.819,0v.182A.909.909,0,0,1,126.909,366.5Z" transform="translate(-106.905 -300.261)" fill="#3f456b"/>
  </g>
</svg>
