<svg xmlns="http://www.w3.org/2000/svg" width="17.761" height="17.761" viewBox="0 0 17.761 17.761">
  <path id="_754895_close_delete_cancel_no_remove_icon" data-name="754895_close_delete_cancel_no_remove_icon" d="M14.582,10.88l4.813-4.813a1.3,1.3,0,0,0,.366-.9,1.262,1.262,0,0,0-.362-.889L17.477,2.362A1.26,1.26,0,0,0,16.589,2a1.306,1.306,0,0,0-.9.365L10.88,7.179,6.067,2.365A1.306,1.306,0,0,0,5.172,2a1.26,1.26,0,0,0-.888.362L2.362,4.284A1.26,1.26,0,0,0,2,5.172a1.306,1.306,0,0,0,.365.9L7.179,10.88,2.366,15.694a1.3,1.3,0,0,0-.366.9,1.26,1.26,0,0,0,.362.888L4.284,19.4a1.26,1.26,0,0,0,.888.362,1.306,1.306,0,0,0,.9-.365l4.813-4.814,4.813,4.813a1.3,1.3,0,0,0,.9.366,1.26,1.26,0,0,0,.888-.362L19.4,17.477a1.26,1.26,0,0,0,.362-.888,1.306,1.306,0,0,0-.365-.9Z" transform="translate(-2 -2)" fill="#fff" opacity="0.4"/>
</svg>
