<svg xmlns="http://www.w3.org/2000/svg" width="18.761" height="15.243" viewBox="0 0 18.761 15.243">
  <path id="_754892_accept_check_checkmark_done_mark_icon" data-name="754892_accept_check_checkmark_done_mark_icon" d="M18.427,5.11,16.65,3.334A1.165,1.165,0,0,0,15.829,3,1.207,1.207,0,0,0,15,3.338L6.449,11.891,3.759,9.2a1.205,1.205,0,0,0-.828-.338,1.165,1.165,0,0,0-.821.334L.334,10.973A1.165,1.165,0,0,0,0,11.794a1.207,1.207,0,0,0,.338.828L5.619,17.9a1.174,1.174,0,0,0,.83.341,1.186,1.186,0,0,0,.83-.342L18.423,6.759a1.207,1.207,0,0,0,.338-.828A1.167,1.167,0,0,0,18.427,5.11Z" transform="translate(0 -3)" fill="#2560d6"/>
</svg>
