<svg xmlns="http://www.w3.org/2000/svg" width="127.118" height="124.24" viewBox="0 0 127.118 124.24">
  <g id="Grupo_1651" data-name="Grupo 1651" transform="translate(-150.441 -71.675)">
    <ellipse id="Elipse_76" data-name="Elipse 76" cx="54.985" cy="54.985" rx="54.985" ry="54.985" transform="translate(158.411 78.446)" fill="#fff" opacity="0.306"/>
    <g id="Grupo_728" data-name="Grupo 728" transform="translate(150.441 71.675)">
      <g id="Grupo_498" data-name="Grupo 498" transform="translate(17.136 120.021)">
        <path id="Caminho_1245" data-name="Caminho 1245" d="M969.413,3349.691c.019.2-.377.416-.984.572a.731.731,0,0,0-.547.663c-.038.626-.174,1.055-.376,1.074s-.416-.377-.572-.984a.731.731,0,0,0-.663-.548c-.626-.038-1.057-.174-1.076-.375s.377-.418.985-.573a.731.731,0,0,0,.548-.663c.038-.626.174-1.056.375-1.075s.416.377.572.985a.731.731,0,0,0,.664.548C968.965,3349.352,969.394,3349.489,969.413,3349.691Z" transform="translate(-965.195 -3347.782)" fill="#fff"/>
      </g>
      <g id="Grupo_499" data-name="Grupo 499" transform="translate(106.04 92.75)">
        <path id="Caminho_1246" data-name="Caminho 1246" d="M3153.707,2680.673c0,.25-.512.468-1.277.588a.9.9,0,0,0-.751.751c-.12.765-.338,1.276-.587,1.276s-.468-.512-.588-1.276a.9.9,0,0,0-.751-.751c-.765-.12-1.279-.338-1.279-.588s.513-.469,1.278-.588a.9.9,0,0,0,.752-.751c.12-.766.338-1.278.588-1.278s.467.512.587,1.278a.9.9,0,0,0,.752.751C3153.2,2680.2,3153.707,2680.422,3153.707,2680.673Z" transform="translate(-3148.475 -2678.056)" fill="#fff"/>
      </g>
      <g id="Grupo_500" data-name="Grupo 500" transform="translate(89.888)">
        <path id="Caminho_1247" data-name="Caminho 1247" d="M2757.636,403.235c0,.277-.568.518-1.416.651a1,1,0,0,0-.832.832c-.133.848-.375,1.416-.651,1.416s-.519-.568-.651-1.415a1,1,0,0,0-.833-.832c-.849-.133-1.417-.374-1.417-.651s.568-.52,1.417-.652a1,1,0,0,0,.833-.833c.133-.849.375-1.416.651-1.416s.519.568.651,1.416a1,1,0,0,0,.833.833C2757.068,402.715,2757.636,402.957,2757.636,403.235Z" transform="translate(-2751.835 -400.334)" fill="#fff"/>
      </g>
      <g id="Grupo_501" data-name="Grupo 501" transform="translate(119.054 16.649)">
        <ellipse id="Elipse_54" data-name="Elipse 54" cx="0.746" cy="0.746" rx="0.746" ry="0.746" transform="translate(0 0)" fill="#fff"/>
      </g>
      <g id="Grupo_502" data-name="Grupo 502" transform="translate(124.615 95.135)">
        <circle id="Elipse_55" data-name="Elipse 55" cx="0.885" cy="0.885" r="0.885" transform="translate(0 1.252) rotate(-45)" fill="#fff"/>
      </g>
      <g id="Grupo_503" data-name="Grupo 503" transform="translate(92.236 117.923)">
        <ellipse id="Elipse_56" data-name="Elipse 56" cx="0.885" cy="0.885" rx="0.885" ry="0.885" transform="translate(0)" fill="#fff"/>
      </g>
      <g id="Grupo_504" data-name="Grupo 504" transform="translate(15.275 23.936)">
        <circle id="Elipse_57" data-name="Elipse 57" cx="0.885" cy="0.885" r="0.885" transform="translate(0 1.252) rotate(-45)" fill="#fff"/>
      </g>
      <g id="Grupo_505" data-name="Grupo 505" transform="translate(103.445 13.546)">
        <ellipse id="Elipse_58" data-name="Elipse 58" cx="0.746" cy="0.746" rx="0.746" ry="0.746" transform="translate(0 1.453) rotate(-76.717)" fill="#fff"/>
      </g>
      <g id="Grupo_506" data-name="Grupo 506" transform="translate(12.902 5.226)">
        <ellipse id="Elipse_59" data-name="Elipse 59" cx="0.885" cy="0.885" rx="0.885" ry="0.885" transform="matrix(0.924, -0.383, 0.383, 0.924, 0, 0.677)" fill="#fff"/>
      </g>
      <g id="Grupo_507" data-name="Grupo 507" transform="translate(5.611 119.902)">
        <path id="Caminho_1248" data-name="Caminho 1248" d="M683.863,3345.6a.838.838,0,1,1-.914-.755A.838.838,0,0,1,683.863,3345.6Z" transform="translate(-682.19 -3344.841)" fill="#fff"/>
      </g>
      <g id="Grupo_508" data-name="Grupo 508" transform="translate(125.091 5.484)">
        <ellipse id="Elipse_60" data-name="Elipse 60" cx="0.384" cy="0.384" rx="0.384" ry="0.384" transform="translate(0 0.294) rotate(-22.5)" fill="#fff"/>
      </g>
      <g id="Grupo_509" data-name="Grupo 509" transform="translate(108.034 123.04)">
        <ellipse id="Elipse_61" data-name="Elipse 61" cx="0.455" cy="0.455" rx="0.455" ry="0.455" transform="translate(0 0.899) rotate(-80.783)" fill="#fff"/>
      </g>
      <g id="Grupo_510" data-name="Grupo 510" transform="translate(32.885 5.482)">
        <ellipse id="Elipse_62" data-name="Elipse 62" cx="0.455" cy="0.455" rx="0.455" ry="0.455" transform="matrix(0.23, -0.973, 0.973, 0.23, 0, 0.886)" fill="#fff"/>
      </g>
      <g id="Grupo_511" data-name="Grupo 511" transform="translate(0 34.648)">
        <circle id="Elipse_63" data-name="Elipse 63" cx="0.455" cy="0.455" r="0.455" transform="translate(0 0.644) rotate(-45)" fill="#fff"/>
      </g>
      <g id="Grupo_512" data-name="Grupo 512" transform="translate(8.598 106.458)">
        <ellipse id="Elipse_64" data-name="Elipse 64" cx="0.431" cy="0.431" rx="0.431" ry="0.431" transform="translate(0 0.665) rotate(-50.442)" fill="#fff"/>
      </g>
      <g id="Grupo_513" data-name="Grupo 513" transform="translate(120.848 111.068)">
        <circle id="Elipse_65" data-name="Elipse 65" cx="0.455" cy="0.455" r="0.455" transform="translate(0 0.644) rotate(-45)" fill="#fff"/>
      </g>
      <g id="Grupo_514" data-name="Grupo 514" transform="translate(10.077 50.932)">
        <ellipse id="Elipse_66" data-name="Elipse 66" cx="0.838" cy="0.838" rx="0.838" ry="0.838" transform="translate(0 1.632) rotate(-76.718)" fill="#fff"/>
      </g>
    </g>
    <g id="Grupo_727" data-name="Grupo 727" transform="translate(180.209 99.892)">
      <g id="Grupo_579" data-name="Grupo 579" transform="translate(34.854 15.466)">
        <g id="Grupo_554" data-name="Grupo 554" transform="translate(20.348 31.395)">
          <g id="Grupo_553" data-name="Grupo 553">
            <path id="Caminho_1274" data-name="Caminho 1274" d="M2695.126,2421.259a5.063,5.063,0,1,0-8.513,5.395c1.316,2.076,7.606,6.342,10.059,7.959a.57.57,0,0,0,.881-.528C2697.277,2431.111,2696.446,2423.342,2695.126,2421.259Z" transform="translate(-2685.676 -2418.542)" fill="#fc311d"/>
          </g>
        </g>
        <g id="Grupo_556" data-name="Grupo 556" transform="translate(21.363 31.951)">
          <g id="Grupo_555" data-name="Grupo 555">
            <path id="Caminho_1275" data-name="Caminho 1275" d="M2728.412,2440.24a3.5,3.5,0,1,0-5.88,3.726c.833,1.314,4.677,3.881,6.666,5.155a.671.671,0,0,0,1.028-.652C2729.924,2446.127,2729.244,2441.553,2728.412,2440.24Z" transform="translate(-2721.885 -2438.362)" fill="#ffb600"/>
          </g>
        </g>
        <g id="Grupo_558" data-name="Grupo 558" transform="translate(21.95 32.326)">
          <g id="Grupo_557" data-name="Grupo 557">
            <path id="Caminho_1276" data-name="Caminho 1276" d="M2746.9,2452.9a2.173,2.173,0,1,0-3.653,2.314,17.2,17.2,0,0,0,3.674,2.9.671.671,0,0,0,1.032-.654A17.2,17.2,0,0,0,2746.9,2452.9Z" transform="translate(-2742.842 -2451.729)" fill="#ff0"/>
          </g>
        </g>
        <g id="Grupo_560" data-name="Grupo 560" transform="translate(20.015 30.808)">
          <g id="Grupo_559" data-name="Grupo 559">
            <path id="Caminho_1277" data-name="Caminho 1277" d="M2685.389,2414.9a1.116,1.116,0,0,1-.637-.2c-3.243-2.246-8.866-6.328-10.079-8.43a6.306,6.306,0,0,1-.74-4.488,5.264,5.264,0,0,1,2.505-3.51,5.811,5.811,0,0,1,7.809,2.473h0c1.214,2.1,1.936,9.012,2.258,12.944a1.124,1.124,0,0,1-1.117,1.213Zm-6.373-16.338a4.155,4.155,0,0,0-2.09.554,4.3,4.3,0,0,0-2.039,2.871,5.334,5.334,0,0,0,.632,3.794c.8,1.394,4.464,4.428,9.789,8.115a.143.143,0,0,0,.225-.129c-.529-6.455-1.326-11.142-2.131-12.536A5.169,5.169,0,0,0,2679.016,2398.559Z" transform="translate(-2673.797 -2397.583)" fill="#34456b"/>
          </g>
        </g>
        <g id="Grupo_562" data-name="Grupo 562" transform="translate(18.819 29.582)">
          <g id="Grupo_561" data-name="Grupo 561">
            <path id="Caminho_1278" data-name="Caminho 1278" d="M2637.722,2355.443a5.035,5.035,0,0,1-1.9,2.732,5.214,5.214,0,0,1-3.216.881l-1.468-1.534,1.8-1.187,3.757-2.481Z" transform="translate(-2631.134 -2353.854)" fill="#04aaff"/>
          </g>
        </g>
        <g id="Grupo_564" data-name="Grupo 564" transform="translate(22.448 29.582)" opacity="0.7">
          <g id="Grupo_563" data-name="Grupo 563">
            <path id="Caminho_1279" data-name="Caminho 1279" d="M2763.556,2355.443a5.034,5.034,0,0,1-1.9,2.732,4.709,4.709,0,0,1-1.054.553c.1-.06.2-.125.305-.2a4.613,4.613,0,0,0,1.2-1.234,2.342,2.342,0,0,0,.005-2.571l-.272-.419.687-.454Z" transform="translate(-2760.598 -2353.854)" fill="#fff"/>
          </g>
        </g>
        <g id="Grupo_566" data-name="Grupo 566" transform="translate(18.061 28.904)">
          <g id="Grupo_565" data-name="Grupo 565">
            <path id="Caminho_1280" data-name="Caminho 1280" d="M2606.595,2336.052c-.182,0-.29-.01-.3-.011l-.178-.019-2-2.086,6.455-4.261,1.425,2.194-.068.219A5.419,5.419,0,0,1,2606.595,2336.052Zm-.026-.973a4.4,4.4,0,0,0,4.362-3.068l-.636-.979-4.657,3.075Z" transform="translate(-2604.123 -2329.675)" fill="#34456b"/>
          </g>
        </g>
        <g id="Grupo_568" data-name="Grupo 568" transform="translate(0.493 0.48)">
          <g id="Grupo_567" data-name="Grupo 567">
            <path id="Caminho_1281" data-name="Caminho 1281" d="M1989.655,1321.691a29.6,29.6,0,0,1-7.631,6.29,22.33,22.33,0,0,1-2.795,1.317,33.357,33.357,0,0,1-1.087-3.839,21.573,21.573,0,0,1-.454-8.459,1.821,1.821,0,0,1,.522-1.076c.846-.558,4.635.672,8.813,3.67A33.552,33.552,0,0,1,1989.655,1321.691Z" transform="translate(-1977.449 -1315.793)" fill="#ed1b24"/>
          </g>
        </g>
        <g id="Grupo_570" data-name="Grupo 570" transform="translate(0.958 0.48)" opacity="0.7">
          <g id="Grupo_569" data-name="Grupo 569">
            <path id="Caminho_1282" data-name="Caminho 1282" d="M2004.568,1323c.094-.1.184-.205.275-.306a37.508,37.508,0,0,0-2.934-2.338,25.761,25.761,0,0,0-7.865-4.042.943.943,0,0,1,.3-.387c.846-.558,4.635.672,8.813,3.67a33.529,33.529,0,0,1,2.632,2.1C2005.407,1322.118,2005,1322.555,2004.568,1323Z" transform="translate(-1994.044 -1315.793)" fill="#fff"/>
          </g>
        </g>
        <g id="Grupo_572" data-name="Grupo 572" transform="translate(0 0)">
          <g id="Grupo_571" data-name="Grupo 571">
            <path id="Caminho_1283" data-name="Caminho 1283" d="M1961.849,1313.293l-.166-.477a34.132,34.132,0,0,1-1.1-3.9c-1.043-4.749-.919-9.257.276-10.047,1.218-.8,5.419.848,9.366,3.68a34.034,34.034,0,0,1,2.671,2.129l.366.323-.323.366a27.685,27.685,0,0,1-10.615,7.739Zm-.12-13.67a.644.644,0,0,0-.335.065c-.474.345-1,3.832.139,9.023a33.106,33.106,0,0,0,.907,3.3,26.752,26.752,0,0,0,9.435-6.919c-.716-.613-1.462-1.2-2.223-1.745C1965.858,1300.623,1962.788,1299.623,1961.73,1299.623Z" transform="translate(-1959.872 -1298.67)" fill="#34456b"/>
          </g>
        </g>
        <g id="Grupo_574" data-name="Grupo 574" transform="translate(2.272 6.378)">
          <g id="Grupo_573" data-name="Grupo 573">
            <path id="Caminho_1284" data-name="Caminho 1284" d="M2063.031,1549.386a5.98,5.98,0,0,1-2.1,2.451,6.911,6.911,0,0,1-.942.531,7.619,7.619,0,0,1-2.511.687,27.279,27.279,0,0,1-3.693-1.992q-.855-.611-1.738-1.363c-.527-.449-1.061-.937-1.594-1.457q-.742-.723-1.483-1.529a47.579,47.579,0,0,1-4.595-5.919,31.585,31.585,0,0,1-3.444-7.005,22.329,22.329,0,0,0,2.795-1.317,29.6,29.6,0,0,0,7.631-6.29,32.046,32.046,0,0,1,5.544,6.34,47.458,47.458,0,0,1,3.639,6.549q.45,1,.825,1.966c.269.694.508,1.375.714,2.038.23.735.42,1.449.57,2.132A27.115,27.115,0,0,1,2063.031,1549.386Z" transform="translate(-2040.928 -1526.182)" fill="#fff"/>
          </g>
        </g>
        <g id="Grupo_576" data-name="Grupo 576" transform="translate(1.656 5.689)">
          <g id="Grupo_575" data-name="Grupo 575">
            <path id="Caminho_1285" data-name="Caminho 1285" d="M2036,1529.657l-.108-.048a27.326,27.326,0,0,1-3.778-2.041c-.589-.421-1.185-.889-1.772-1.389-.535-.456-1.079-.954-1.617-1.479-.5-.49-1.008-1.011-1.5-1.548a47.894,47.894,0,0,1-4.643-5.98,32.1,32.1,0,0,1-3.5-7.113l-.155-.446.44-.17a26.722,26.722,0,0,0,10.236-7.475l.323-.366.366.323a32.429,32.429,0,0,1,5.629,6.438,47.722,47.722,0,0,1,3.676,6.617c.305.675.586,1.345.836,1.991.271.7.515,1.4.725,2.069.233.746.428,1.477.581,2.173a27.234,27.234,0,0,1,.395,4.276v.1l-.036.091a6.442,6.442,0,0,1-2.284,2.674,8.1,8.1,0,0,1-3.7,1.3Zm-15.839-19.481a31.009,31.009,0,0,0,3.234,6.457,46.907,46.907,0,0,0,4.547,5.858c.482.524.974,1.032,1.464,1.51.523.51,1.051.993,1.57,1.436.566.483,1.139.932,1.7,1.337a25.756,25.756,0,0,0,3.493,1.892,7.267,7.267,0,0,0,3.1-1.125,5.591,5.591,0,0,0,1.886-2.144,25.766,25.766,0,0,0-.37-3.976c-.147-.668-.335-1.372-.56-2.092-.2-.652-.44-1.328-.7-2.008-.243-.63-.517-1.282-.815-1.941a46.78,46.78,0,0,0-3.6-6.481,31.344,31.344,0,0,0-5.1-5.92A27.7,27.7,0,0,1,2020.166,1510.176Z" transform="translate(-2018.932 -1501.601)" fill="#34456b"/>
          </g>
        </g>
        <g id="Grupo_578" data-name="Grupo 578" transform="translate(10.43 19.253)">
          <g id="Grupo_577" data-name="Grupo 577">
            <path id="Caminho_1286" data-name="Caminho 1286" d="M2332.379,1993.765c-.279,0-.447-.015-.478-.018l.093-.972a11.076,11.076,0,0,0,6.979-2.324,11.931,11.931,0,0,0,4.071-5.024l.925.312a12.648,12.648,0,0,1-4.411,5.494A12.223,12.223,0,0,1,2332.379,1993.765Z" transform="translate(-2331.901 -1985.427)" fill="#34456b"/>
          </g>
        </g>
      </g>
      <g id="Grupo_581" data-name="Grupo 581" transform="translate(35.347 17.153)" opacity="0.35">
        <g id="Grupo_580" data-name="Grupo 580" transform="translate(0 0)">
          <path id="Caminho_1287" data-name="Caminho 1287" d="M2000.459,1391.062a5.214,5.214,0,0,1-3.216.881l-1.468-1.534a27.262,27.262,0,0,1-3.693-1.992q-.855-.611-1.738-1.363c-.527-.449-1.061-.937-1.594-1.457q-.741-.723-1.483-1.529a47.621,47.621,0,0,1-4.595-5.919,31.591,31.591,0,0,1-3.444-7.005,33.354,33.354,0,0,1-1.087-3.839,21.573,21.573,0,0,1-.454-8.459c.784,2.617,8.359,14.771,12.8,21.254,2.815,4.111,4.845,7.493,7.088,9.123q.368.265.711.5A24.924,24.924,0,0,0,2000.459,1391.062Z" transform="translate(-1977.449 -1358.846)" fill="#34456b"/>
        </g>
      </g>
      <g id="Grupo_583" data-name="Grupo 583" transform="translate(28 41.569)">
        <g id="Grupo_582" data-name="Grupo 582" transform="translate(0)">
          <path id="Caminho_1288" data-name="Caminho 1288" d="M1732.988,2254.042c-2.047,1.446-6.49,1.268-5.791-4.691a28.406,28.406,0,0,1-7.786-2.181,8.282,8.282,0,0,1-4.021-3.467l9.313-13.932a62.311,62.311,0,0,0,4.352,8.449,16.936,16.936,0,0,0,4.254,4.137,11.546,11.546,0,0,0,1.113.672C1736.862,2244.305,1735.766,2252.08,1732.988,2254.042Z" transform="translate(-1715.39 -2229.771)" fill="#fff"/>
        </g>
      </g>
      <g id="Grupo_585" data-name="Grupo 585" transform="translate(28 41.569)" opacity="0.35">
        <g id="Grupo_584" data-name="Grupo 584" transform="translate(0)">
          <path id="Caminho_1289" data-name="Caminho 1289" d="M1734.037,2252.931a4.343,4.343,0,0,1-1.048,1.112c-2.047,1.446-6.49,1.268-5.791-4.691a28.4,28.4,0,0,1-7.785-2.181h0c-.348-.167-.688-.345-1.015-.537q-.092-.053-.183-.11a9.755,9.755,0,0,1-1.311-.938l-.095-.083c-.138-.122-.271-.248-.4-.378-.038-.04-.076-.078-.112-.119-.074-.081-.146-.161-.215-.244l-.092-.112c-.07-.088-.136-.177-.2-.269q-.044-.062-.084-.125c-.032-.046-.061-.093-.09-.14s-.054-.089-.079-.135-.038-.066-.056-.1-.026-.048-.038-.072-.037-.069-.054-.1l9.313-13.932a.01.01,0,0,0,0,0,0,0,0,0,1,0,0l.01.021c.023.055.081.189.167.387a58.5,58.5,0,0,0,4.173,8.034,16.936,16.936,0,0,0,4.254,4.137,14.567,14.567,0,0,1-6.2,4.177.867.867,0,0,0,.231,1.682,18.1,18.1,0,0,0,3.635-.093C1728.123,2253.127,1731.917,2254.135,1734.037,2252.931Z" transform="translate(-1715.39 -2229.771)" fill="#34456b"/>
        </g>
      </g>
      <g id="Grupo_587" data-name="Grupo 587" transform="translate(27.511 41.081)">
        <g id="Grupo_586" data-name="Grupo 586" transform="translate(0 0)">
          <path id="Caminho_1290" data-name="Caminho 1290" d="M1713.612,2238.346a3.859,3.859,0,0,1-1.984-.518c-1.013-.6-2.136-1.955-1.9-4.99-2.016-.3-9.68-1.683-11.716-5.856a.488.488,0,1,1,.878-.428c2.067,4.236,11.333,5.367,11.426,5.378l.485.057-.057.485c-.265,2.258.213,3.819,1.384,4.515a3.571,3.571,0,0,0,3.64-.28c1.725-1.219,2.733-4.976,2.559-7.585-.09-1.341-.479-2.287-1.069-2.6a17.212,17.212,0,0,1-5.543-4.966,61.732,61.732,0,0,1-4.4-8.535.488.488,0,1,1,.9-.381,62.129,62.129,0,0,0,4.3,8.363,16.126,16.126,0,0,0,5.192,4.655c.925.483,1.475,1.657,1.591,3.4.2,2.928-.951,7.021-2.969,8.448A4.85,4.85,0,0,1,1713.612,2238.346Z" transform="translate(-1697.961 -2212.348)" fill="#34456b"/>
        </g>
      </g>
      <g id="Grupo_589" data-name="Grupo 589" transform="translate(36.253 53.558)">
        <g id="Grupo_588" data-name="Grupo 588" transform="translate(0 0)">
          <path id="Caminho_1291" data-name="Caminho 1291" d="M2010.137,2664.769a.366.366,0,0,1-.068-.726c2.962-.563,7.718-2.721,8.683-6.358a.366.366,0,0,1,.708.188c-1.133,4.274-6.548,6.375-9.254,6.89A.348.348,0,0,1,2010.137,2664.769Z" transform="translate(-2009.771 -2657.412)" fill="#34456b"/>
        </g>
      </g>
      <g id="Grupo_591" data-name="Grupo 591" transform="translate(39.426 59.706)">
        <g id="Grupo_590" data-name="Grupo 590" transform="translate(0)">
          <path id="Caminho_1292" data-name="Caminho 1292" d="M2123.325,2877.772l1.054-.056c.353-.026.706-.05,1.052-.11a4.583,4.583,0,0,0,1.01-.278,2.672,2.672,0,0,0,.888-.581h0a.054.054,0,0,1,.076,0,.054.054,0,0,1,.011.06,2.3,2.3,0,0,1-.754.906,3.969,3.969,0,0,1-1.062.544,5.327,5.327,0,0,1-1.149.265,4.933,4.933,0,0,1-.585.036,3.664,3.664,0,0,1-.594-.041.374.374,0,0,1,.037-.742Z" transform="translate(-2122.958 -2876.729)" fill="#34456b"/>
        </g>
      </g>
      <g id="Grupo_593" data-name="Grupo 593" transform="translate(40.828 28.407)">
        <g id="Grupo_592" data-name="Grupo 592">
          <path id="Caminho_1293" data-name="Caminho 1293" d="M2172.965,1760.273" transform="translate(-2172.965 -1760.273)" fill="none" stroke="#34456b" stroke-linecap="round" stroke-width="6.207"/>
        </g>
      </g>
      <g id="Grupo_595" data-name="Grupo 595" transform="translate(45.669 30.922)">
        <g id="Grupo_594" data-name="Grupo 594">
          <path id="Caminho_1294" data-name="Caminho 1294" d="M2345.656,1850" transform="translate(-2345.656 -1849.997)" fill="#c1303d" stroke="#34456b" stroke-width="3.654"/>
        </g>
      </g>
      <g id="Grupo_597" data-name="Grupo 597" transform="translate(7.923 29.824)">
        <g id="Grupo_596" data-name="Grupo 596" transform="translate(0 0)">
          <path id="Caminho_1295" data-name="Caminho 1295" d="M1011.376,1831.182a13.967,13.967,0,0,1-2.8,1.812c-6.53,2.946-9.876-2.894-9.24-5.875.859-4.025,4.885-2.337,4.885-2.337a4.389,4.389,0,0,0,3.544-2.377c1.008-1.828,1.372-4.8.7-9.26q-.167-1.1-.419-2.325l1.257,1.813,6.512,9.39C1017.343,1825.007,1014.281,1828.843,1011.376,1831.182Z" transform="translate(-999.258 -1810.82)" fill="#fff"/>
        </g>
      </g>
      <g id="Grupo_599" data-name="Grupo 599" transform="translate(8.042 31.636)" opacity="0.35">
        <g id="Grupo_598" data-name="Grupo 598" transform="translate(0)">
          <path id="Caminho_1296" data-name="Caminho 1296" d="M1020.356,1886.577c0,.056,0,.112,0,.17,0,.009,0,.017,0,.024,0,.05,0,.1-.01.153,0,.008,0,.016,0,.024,0,.054-.01.107-.017.161s-.012.094-.019.14a.7.7,0,0,1-.011.072c-.028.168-.065.336-.109.5-.016.06-.033.12-.051.179v0c-.016.052-.033.106-.05.16l-.011.034q-.027.082-.059.165c-.021.061-.044.121-.068.181-.011.029-.023.059-.035.087-.024.062-.051.123-.078.184l-.011.024c-.016.038-.034.076-.051.114-.029.065-.061.129-.093.194-.018.039-.038.078-.059.116-.065.127-.134.254-.206.381-.029.051-.06.1-.09.154a11.744,11.744,0,0,1-.674,1.007c-.029.04-.06.079-.09.12s-.06.079-.091.12c-.061.078-.123.158-.187.236l-.184.223c-.165.2-.337.391-.513.581-.034.037-.068.074-.1.111-.391.416-.8.813-1.217,1.184-.052.046-.106.093-.159.14l-.034.029q-.112.1-.223.19-.167.141-.333.275a13.965,13.965,0,0,1-2.8,1.812c-5.344,2.41-8.555-1.062-9.2-4.037,1.369,2.242,4.236,3.927,8.394,2.052l.021-.01a2.976,2.976,0,0,0,1.494-3.848,32.876,32.876,0,0,1-1.523-4.746c1.008-1.828,1.372-4.8.7-9.26l.838-.513,6.1,8.8.408.587A3.728,3.728,0,0,1,1020.356,1886.577Z" transform="translate(-1003.513 -1875.465)" fill="#34456b"/>
        </g>
      </g>
      <g id="Grupo_601" data-name="Grupo 601" transform="translate(7.439 29.335)">
        <g id="Grupo_600" data-name="Grupo 600" transform="translate(0 0)">
          <path id="Caminho_1297" data-name="Caminho 1297" d="M988.364,1817.341a6.065,6.065,0,0,1-3.884-1.35,6.518,6.518,0,0,1-2.422-5.919,3.69,3.69,0,0,1,1.814-2.682,4.778,4.778,0,0,1,3.61-.051,3.845,3.845,0,0,0,2.718-1.586c1.53-2.093,1.725-6.167.563-11.78a.488.488,0,1,1,.956-.2c1.237,5.975.991,10.2-.731,12.555a4.8,4.8,0,0,1-3.519,1.993l-.124.013-.115-.048a3.962,3.962,0,0,0-2.91-.031,2.772,2.772,0,0,0-1.308,2.019,5.569,5.569,0,0,0,2.08,4.955c1.2.965,3.292,1.813,6.482.374,2.248-1.014,6.025-4.266,7.072-7.257a3.767,3.767,0,0,0-.068-3.047.488.488,0,0,1,.869-.446,4.7,4.7,0,0,1,.121,3.815c-1.176,3.364-5.235,6.762-7.592,7.825A8.818,8.818,0,0,1,988.364,1817.341Z" transform="translate(-981.975 -1793.386)" fill="#34456b"/>
        </g>
      </g>
      <g id="Grupo_603" data-name="Grupo 603" transform="translate(16.446 22.559)">
        <g id="Grupo_602" data-name="Grupo 602" transform="translate(0 0)">
          <path id="Caminho_1298" data-name="Caminho 1298" d="M1328.209,1585.705a15.7,15.7,0,0,1-12.158.307c-7.847-2.934-10.876-11.185-12.044-17.116a37.491,37.491,0,0,1-.735-6.538l17.478-10.684a18.529,18.529,0,0,0,3.654,7.037c2.752,3.223,6.067,4.588,8.58,7.5a13.236,13.236,0,0,1,2.28,3.76c.023.056.047.114.068.171a11.707,11.707,0,0,1,.479,1.517C1337.225,1577.489,1333.738,1583.168,1328.209,1585.705Z" transform="translate(-1303.273 -1551.675)" fill="#fff"/>
        </g>
      </g>
      <g id="Grupo_605" data-name="Grupo 605" transform="translate(18.673 40.004)" opacity="0.35">
        <g id="Grupo_604" data-name="Grupo 604" transform="translate(0 0)">
          <path id="Caminho_1299" data-name="Caminho 1299" d="M1393.271,2190.854c-5.641-2.109-8.792-6.965-10.552-11.732,1.855,4.2,4.9,8.2,9.877,10.065,11.7,4.375,22.714-5.419,19.512-15.225q.234.485.443,1.019C1416.469,2185,1405.229,2195.326,1393.271,2190.854Z" transform="translate(-1382.719 -2173.963)" fill="#34456b"/>
        </g>
      </g>
      <g id="Grupo_607" data-name="Grupo 607" transform="translate(15.958 21.811)">
        <g id="Grupo_606" data-name="Grupo 606" transform="translate(0 0)">
          <path id="Caminho_1300" data-name="Caminho 1300" d="M1304.933,1561.637a17.06,17.06,0,0,1-5.976-1.1c-5.374-2.009-9.343-6.828-11.479-13.936a39.042,39.042,0,0,1-1.618-10.176v-.274l18.254-11.157.18.61c1.813,6.15,4.953,8.488,7.99,10.749,2.593,1.931,5.042,3.755,6.577,7.676a12.039,12.039,0,0,1-2.934,13.089,15.189,15.189,0,0,1-7.459,4.123A15.835,15.835,0,0,1,1304.933,1561.637Zm-18.091-24.942a39.349,39.349,0,0,0,1.579,9.647c1.427,4.736,4.472,10.884,10.879,13.279a14.751,14.751,0,0,0,15.933-3.189,11.087,11.087,0,0,0,2.721-12.048c-1.432-3.661-3.773-5.4-6.251-7.248-3.064-2.282-6.229-4.639-8.157-10.65Z" transform="translate(-1285.861 -1524.993)" fill="#34456b"/>
        </g>
      </g>
      <g id="Grupo_609" data-name="Grupo 609" transform="translate(16.446 22.559)" opacity="0.35">
        <g id="Grupo_608" data-name="Grupo 608" transform="translate(0 0)">
          <path id="Caminho_1301" data-name="Caminho 1301" d="M1324.4,1558.712a18.723,18.723,0,0,1-20.4,10.184,37.491,37.491,0,0,1-.735-6.538l17.478-10.684A18.529,18.529,0,0,0,1324.4,1558.712Z" transform="translate(-1303.273 -1551.675)" fill="#34456b"/>
        </g>
      </g>
      <g id="Grupo_611" data-name="Grupo 611" transform="translate(30.139 18.726)" opacity="0.35">
        <g id="Grupo_610" data-name="Grupo 610" transform="translate(0 0)">
          <path id="Caminho_1302" data-name="Caminho 1302" d="M1795.667,1425.95c-2.576-.187-4.4-3.366-3.874-6.915,1.555,3.756,5.581-2.325,5.888-4.083C1804.272,1416.741,1800.391,1426.394,1795.667,1425.95Z" transform="translate(-1791.703 -1414.952)" fill="#34456b"/>
        </g>
      </g>
      <g id="Grupo_613" data-name="Grupo 613" transform="translate(23.972 16.284)" opacity="0.7">
        <g id="Grupo_612" data-name="Grupo 612" transform="translate(0 0)">
          <path id="Caminho_1303" data-name="Caminho 1303" d="M1576.33,1331.1c-1.035,3.455-4.98,2.339-4.589-.8C1572.458,1326.374,1577.129,1327.614,1576.33,1331.1Z" transform="translate(-1571.714 -1327.869)" fill="#fff"/>
        </g>
      </g>
      <g id="Grupo_650" data-name="Grupo 650" transform="translate(0)">
        <g id="Grupo_615" data-name="Grupo 615" transform="translate(0.505 0.504)">
          <g id="Grupo_614" data-name="Grupo 614">
            <path id="Caminho_1304" data-name="Caminho 1304" d="M737.647,793.776c14.449,20.4,43.494,1.353,31.774-19.679C755.127,752.86,725.123,772.58,737.647,793.776Z" transform="translate(-734.659 -764.975)" fill="#fff"/>
          </g>
        </g>
        <g id="Grupo_617" data-name="Grupo 617" transform="translate(0.505 0.504)">
          <g id="Grupo_616" data-name="Grupo 616">
            <path id="Caminho_1305" data-name="Caminho 1305" d="M737.647,793.776c14.449,20.4,43.494,1.353,31.774-19.679C755.127,752.86,725.123,772.58,737.647,793.776Z" transform="translate(-734.659 -764.975)" fill="#fff"/>
          </g>
        </g>
        <g id="Grupo_619" data-name="Grupo 619" transform="translate(0.505 0.504)">
          <g id="Grupo_618" data-name="Grupo 618">
            <path id="Caminho_1306" data-name="Caminho 1306" d="M737.647,793.776c14.449,20.4,43.494,1.353,31.774-19.679C755.127,752.86,725.123,772.58,737.647,793.776Z" transform="translate(-734.659 -764.975)" fill="#fff"/>
          </g>
        </g>
        <g id="Grupo_621" data-name="Grupo 621" transform="translate(0.144 0.144)">
          <g id="Grupo_620" data-name="Grupo 620">
            <path id="Caminho_1307" data-name="Caminho 1307" d="M740.7,790.4a17.838,17.838,0,0,1-2.957-.246c-5.036-.846-9.495-3.83-12.893-8.629l-.016-.025c-2.971-5.028-3.785-10.329-2.352-15.33a19.338,19.338,0,0,1,8.378-10.957,18.948,18.948,0,0,1,13.41-2.784c5.11.905,9.586,4.021,12.944,9.009l.016.026A19.254,19.254,0,0,1,740.7,790.4Zm-15.257-9.276c7.27,10.255,17.857,10.223,25.128,5.642,7.1-4.476,12.021-14.188,6.04-24.939-7.153-10.615-18.164-10.556-25.369-6.007C723.967,760.412,719.05,770.288,725.445,781.123Z" transform="translate(-721.796 -752.157)" fill="#34456b"/>
          </g>
        </g>
        <g id="Grupo_623" data-name="Grupo 623" transform="translate(0.563 14.819)" opacity="0.35">
          <g id="Grupo_622" data-name="Grupo 622">
            <path id="Caminho_1308" data-name="Caminho 1308" d="M739.668,1290.09c12.173,17.84,38.453,5.771,33.917-14.485-.708,6.732-2.979,7.18-6.21,10.836-9.86,11.937-27.362,5.126-30.556-8.112A18.692,18.692,0,0,0,739.668,1290.09Z" transform="translate(-736.739 -1275.605)" fill="#293856"/>
          </g>
        </g>
        <g id="Grupo_625" data-name="Grupo 625" transform="translate(0 0)">
          <g id="Grupo_624" data-name="Grupo 624">
            <path id="Caminho_1309" data-name="Caminho 1309" d="M735.7,785.539a17.981,17.981,0,0,1-2.981-.248c-5.075-.852-9.566-3.856-12.987-8.687l-.023-.035c-2.992-5.063-3.81-10.4-2.367-15.443a19.481,19.481,0,0,1,8.439-11.039,19.09,19.09,0,0,1,13.512-2.8c5.15.912,9.658,4.049,13.039,9.071l.022.036A19.4,19.4,0,0,1,735.7,785.539Zm-15.136-9.5c7.215,10.172,17.718,10.143,24.93,5.6,7.047-4.44,11.926-14.074,5.994-24.741-7.1-10.53-18.022-10.472-25.169-5.961C719.1,755.493,714.219,765.291,720.559,776.041Z" transform="translate(-716.644 -747.009)" fill="#293856"/>
          </g>
        </g>
        <g id="Grupo_627" data-name="Grupo 627" transform="translate(0 0)">
          <g id="Grupo_626" data-name="Grupo 626">
            <path id="Caminho_1310" data-name="Caminho 1310" d="M735.7,785.539a17.981,17.981,0,0,1-2.981-.248c-5.075-.852-9.566-3.856-12.987-8.687l-.023-.035c-2.992-5.063-3.81-10.4-2.367-15.443a19.481,19.481,0,0,1,8.439-11.039,19.09,19.09,0,0,1,13.512-2.8c5.15.912,9.658,4.049,13.039,9.071l.022.036A19.4,19.4,0,0,1,735.7,785.539Zm-15.136-9.5c7.215,10.172,17.718,10.143,24.93,5.6,7.047-4.44,11.926-14.074,5.994-24.741-7.1-10.53-18.022-10.472-25.169-5.961C719.1,755.493,714.219,765.291,720.559,776.041Z" transform="translate(-716.644 -747.009)" fill="#34456b"/>
          </g>
        </g>
        <g id="Grupo_629" data-name="Grupo 629" transform="translate(0.637 4.808)">
          <g id="Grupo_628" data-name="Grupo 628">
            <path id="Caminho_1311" data-name="Caminho 1311" d="M745.278,946.694c19.151,10.726,34.7-11.69,20.076-24.159C748.125,909.563,729.592,930.8,745.278,946.694Z" transform="translate(-739.356 -918.519)" fill="#34456b"/>
          </g>
        </g>
        <g id="Grupo_631" data-name="Grupo 631" transform="translate(1.214 20.101)">
          <g id="Grupo_630" data-name="Grupo 630">
            <path id="Caminho_1312" data-name="Caminho 1312" d="M759.955,1464.014c.364,19.836,28.767,20.849,31.41,2.66C782.518,1477.554,765.487,1473.492,759.955,1464.014Z" transform="translate(-759.955 -1464.014)" fill="#283553"/>
          </g>
        </g>
        <g id="Grupo_633" data-name="Grupo 633" transform="translate(0.093 2.49)">
          <g id="Grupo_632" data-name="Grupo 632">
            <path id="Caminho_1313" data-name="Caminho 1313" d="M737.382,871.414a15.487,15.487,0,0,1-3.59-.418c-4.237-1.009-7.992-3.8-10.859-8.078l0,0a19.257,19.257,0,0,1-2.792-13.091,17.884,17.884,0,0,1,6.859-12l.034-.026.038-.02a19.659,19.659,0,0,1,26.24,9.368,17.384,17.384,0,0,1,.1,13.325,17.9,17.9,0,0,1-8.2,8.968A16.8,16.8,0,0,1,737.382,871.414Zm-13.613-9.054c6.31,9.41,15.241,9.215,20.972,6.189a16.494,16.494,0,0,0,7.641-21.019,18.66,18.66,0,0,0-24.815-8.88C719.809,844.515,719.337,855.636,723.769,862.36Z" transform="translate(-719.95 -835.822)" fill="#34456b"/>
          </g>
        </g>
        <g id="Grupo_635" data-name="Grupo 635" transform="translate(0.134 4.306)">
          <g id="Grupo_634" data-name="Grupo 634">
            <path id="Caminho_1314" data-name="Caminho 1314" d="M737.9,932.591a21.083,21.083,0,0,1-10.28-2.887l-.062-.035-.05-.051c-3.769-3.819-5.863-8.227-6.053-12.749a15.635,15.635,0,0,1,3.865-11,15.348,15.348,0,0,1,10.072-5.209,18.339,18.339,0,0,1,12.851,4.042l.024.019a16.033,16.033,0,0,1,5.866,10.519,15.325,15.325,0,0,1-2.738,10.361,16.242,16.242,0,0,1-9.772,6.575A16.868,16.868,0,0,1,737.9,932.591Zm-9.727-3.729c9.821,5.467,18.323,2.02,22.4-3.832,3.7-5.313,4.223-13.411-2.944-19.532-8.6-6.469-17.022-4.143-21.55,1.034C721.569,911.682,720.312,920.859,728.169,928.863Z" transform="translate(-721.437 -900.588)" fill="#34456b"/>
          </g>
        </g>
        <g id="Grupo_637" data-name="Grupo 637" transform="translate(30.775 15.85)">
          <g id="Grupo_636" data-name="Grupo 636">
            <path id="Caminho_1315" data-name="Caminho 1315" d="M1824.144,1319.148c-1,8.759-9.86,8.5-9.75.039C1815.1,1309.968,1824.575,1310.247,1824.144,1319.148Z" transform="translate(-1814.393 -1312.372)" fill="#fff"/>
          </g>
        </g>
        <g id="Grupo_639" data-name="Grupo 639" transform="translate(30.273 15.348)">
          <g id="Grupo_638" data-name="Grupo 638">
            <path id="Caminho_1316" data-name="Caminho 1316" d="M1801.475,1308.714q-.132,0-.263-.008c-2.4-.152-4.8-2.356-4.739-6.938v-.032c.384-5,3.323-7.44,6.025-7.27,2.44.153,4.96,2.5,4.728,7.294l0,.032C1806.678,1306.594,1803.914,1308.714,1801.475,1308.714Zm-4-6.917c-.045,3.911,1.874,5.784,3.8,5.906,2.037.127,4.453-1.7,4.95-6.008.193-4.1-1.827-6.1-3.788-6.226C1800.227,1295.333,1797.816,1297.46,1797.477,1301.8Zm9.248-.061h0Z" transform="translate(-1796.472 -1294.458)" fill="#34456b"/>
          </g>
        </g>
        <g id="Grupo_641" data-name="Grupo 641" transform="translate(33.513 17.62)">
          <g id="Grupo_640" data-name="Grupo 640">
            <path id="Caminho_1317" data-name="Caminho 1317" d="M1919.432,1381c-.816,7.1-7.458,7.013-7.371.172C1912.606,1373.618,1919.825,1373.718,1919.432,1381Z" transform="translate(-1912.06 -1375.523)" fill="#fff"/>
          </g>
        </g>
        <g id="Grupo_643" data-name="Grupo 643" transform="translate(33.011 17.118)">
          <g id="Grupo_642" data-name="Grupo 642">
            <path id="Caminho_1318" data-name="Caminho 1318" d="M1897.971,1369.409c-.065,0-.13,0-.194-.006-1.843-.117-3.682-1.908-3.634-5.643v-.03c.3-4.19,2.619-6.245,4.751-6.112,1.894.119,3.835,2.049,3.622,6l0,.03C1902.056,1367.644,1899.877,1369.409,1897.971,1369.409Zm-2.824-5.622c-.035,3.066,1.327,4.526,2.693,4.613,1.486.093,3.272-1.383,3.675-4.849.171-3.261-1.27-4.842-2.683-4.931C1897.2,1358.516,1895.406,1360.26,1895.147,1363.788Zm6.869-.193h0Z" transform="translate(-1894.141 -1357.612)" fill="#34456b"/>
          </g>
        </g>
        <g id="Grupo_645" data-name="Grupo 645" transform="translate(25.029 23.226)" opacity="0.6">
          <g id="Grupo_644" data-name="Grupo 644">
            <path id="Caminho_1319" data-name="Caminho 1319" d="M1611.376,1576.846c-.418,1.359-2.225.981-1.907-.537C1609.888,1574.95,1611.694,1575.328,1611.376,1576.846Z" transform="translate(-1609.432 -1575.472)" fill="#fff"/>
          </g>
        </g>
        <g id="Grupo_647" data-name="Grupo 647" transform="translate(3.586 7.645)" opacity="0.6">
          <g id="Grupo_646" data-name="Grupo 646">
            <path id="Caminho_1320" data-name="Caminho 1320" d="M844.923,1032.927c-2.683-12.639,10.443-14.842,14.555-12.307C851.045,1021.554,847.518,1026.932,844.923,1032.927Z" transform="translate(-844.564 -1019.692)" fill="#fff"/>
          </g>
        </g>
        <g id="Grupo_649" data-name="Grupo 649" transform="translate(33.144 20.843)" opacity="0.35">
          <g id="Grupo_648" data-name="Grupo 648">
            <path id="Caminho_1321" data-name="Caminho 1321" d="M1898.964,1494.5a6.333,6.333,0,0,1,.246-2.991c1.455,4.719,6.167,2.416,7.14-1.052C1907.7,1497.472,1900.662,1501.064,1898.964,1494.5Z" transform="translate(-1898.884 -1490.459)" fill="#34456b"/>
          </g>
        </g>
      </g>
      <g id="Grupo_652" data-name="Grupo 652" transform="translate(12.392 43.297)">
        <g id="Grupo_651" data-name="Grupo 651" transform="translate(0 0)">
          <path id="Caminho_1322" data-name="Caminho 1322" d="M1159.412,2291.455a2.938,2.938,0,0,1,.261.169c.076.056.152.113.222.174s.14.123.206.187a2.681,2.681,0,0,1,.193.2,4.583,4.583,0,0,1,.641.889,5.227,5.227,0,0,1,.644,2.047c.012.177.032.353.036.529s0,.351-.007.526a3.321,3.321,0,0,1-.247,1.086,2.224,2.224,0,0,1-1.6,1.356.041.041,0,0,1-.036-.07l0,0a3.716,3.716,0,0,0,1-1.52,2.593,2.593,0,0,0,.1-.855c-.014-.156-.025-.311-.035-.466s-.046-.3-.068-.457-.071-.3-.1-.446-.092-.288-.136-.432-.114-.278-.178-.413-.13-.268-.214-.391a4.211,4.211,0,0,0-.531-.706c-.05-.054-.1-.108-.153-.157s-.1-.1-.16-.147-.11-.092-.165-.136-.12-.088-.15-.108l-.034-.022a.487.487,0,0,1,.51-.83Z" transform="translate(-1158.682 -2291.39)" fill="#34456b"/>
        </g>
      </g>
      <g id="Grupo_654" data-name="Grupo 654" transform="translate(11.608 42.093)">
        <g id="Grupo_653" data-name="Grupo 653" transform="translate(0 0)">
          <path id="Caminho_1323" data-name="Caminho 1323" d="M1130.713,2249.845a5.079,5.079,0,0,1,3.276,2.865,1.258,1.258,0,0,0,1.1-1.112,2.842,2.842,0,0,0-2.523-3.126C1131.243,2248.378,1130.713,2249.845,1130.713,2249.845Z" transform="translate(-1130.713 -2248.468)" fill="#fff"/>
        </g>
      </g>
      <g id="Grupo_656" data-name="Grupo 656" transform="translate(11.608 42.818)" opacity="0.35">
        <g id="Grupo_655" data-name="Grupo 655" transform="translate(0 0)">
          <path id="Caminho_1324" data-name="Caminho 1324" d="M1135.091,2276.709a1.257,1.257,0,0,1-1.1,1.112,5.078,5.078,0,0,0-3.277-2.864,2.656,2.656,0,0,1,.375-.653,5.063,5.063,0,0,1,2.757,1.58.694.694,0,0,0,1.171-.168l.007-.017A2.382,2.382,0,0,1,1135.091,2276.709Z" transform="translate(-1130.713 -2274.304)" fill="#34456b"/>
        </g>
      </g>
      <g id="Grupo_658" data-name="Grupo 658" transform="translate(11.056 41.672)">
        <g id="Grupo_657" data-name="Grupo 657" transform="translate(0 0)">
          <path id="Caminho_1325" data-name="Caminho 1325" d="M1114.55,2238.56l-.112-.288a4.7,4.7,0,0,0-2.986-2.609l-.452-.113.157-.438a2.424,2.424,0,0,1,2.28-1.65,3.074,3.074,0,0,1,2.209,1.2,3.216,3.216,0,0,1,.7,2.417,1.679,1.679,0,0,1-1.487,1.461Zm-2.4-3.549a5.419,5.419,0,0,1,2.92,2.606.874.874,0,0,0,.447-.678,2.389,2.389,0,0,0-.53-1.758,2.241,2.241,0,0,0-1.608-.879A1.366,1.366,0,0,0,1112.149,2235.01Z" transform="translate(-1111 -2233.457)" fill="#34456b"/>
        </g>
      </g>
      <g id="Grupo_660" data-name="Grupo 660" transform="translate(20.809 13.675)">
        <g id="Grupo_659" data-name="Grupo 659" transform="translate(0 0)">
          <path id="Caminho_1326" data-name="Caminho 1326" d="M1480.32,1256.012l-9.012,2.629c-3.147-3.9-6.95-12.833-6.95-12.833a6.623,6.623,0,0,1-2.242-.575,5.373,5.373,0,0,1-2.509-2.235,5.562,5.562,0,0,1-.522-1.246c-1.319-4.58,4.048-7.986,8.6-6.645C1474.832,1237.218,1474.108,1247.571,1480.32,1256.012Z" transform="translate(-1458.882 -1234.813)" fill="#fff"/>
        </g>
      </g>
      <g id="Grupo_662" data-name="Grupo 662" transform="translate(21.534 18.531)" opacity="0.35">
        <g id="Grupo_661" data-name="Grupo 661" transform="translate(0 0)">
          <path id="Caminho_1327" data-name="Caminho 1327" d="M1492.009,1412.781a12.735,12.735,0,0,1-4.741.8,5.374,5.374,0,0,1-2.509-2.234c2.516.124,8.893.093,9.689-3.331C1494.447,1408.02,1496.011,1410.937,1492.009,1412.781Z" transform="translate(-1484.758 -1408.02)" fill="#34456b"/>
        </g>
      </g>
      <g id="Grupo_664" data-name="Grupo 664" transform="translate(20.325 13.19)">
        <g id="Grupo_663" data-name="Grupo 663" transform="translate(0 0)">
          <path id="Caminho_1328" data-name="Caminho 1328" d="M1463.408,1239.261a9.385,9.385,0,0,1-.986-1.059,12.655,12.655,0,0,1-.846-1.169,23.758,23.758,0,0,1-1.373-2.529c-.791-1.746-1.448-3.537-2.1-5.313s-1.266-3.558-2.057-5.232a14.994,14.994,0,0,0-1.371-2.372,7.849,7.849,0,0,0-1.879-1.883l-.274-.185c-.089-.065-.191-.109-.286-.166l-.289-.161-.3-.135c-.1-.044-.2-.093-.3-.132l-.315-.107c-.105-.034-.209-.076-.315-.1l-.319-.083a7.063,7.063,0,0,0-2.633-.1,7.182,7.182,0,0,0-2.5.856,5.733,5.733,0,0,0-1.921,1.735,4.459,4.459,0,0,0-.56,1.142,4.049,4.049,0,0,0-.188,1.248,4.786,4.786,0,0,0,.183,1.263,5.143,5.143,0,0,0,.507,1.188,4.821,4.821,0,0,0,1.835,1.762,6.123,6.123,0,0,0,1.208.5c.211.062.425.115.64.156.108.021.216.038.323.052s.223.026.306.031l.311.016.121.28c.478,1.108.985,2.216,1.5,3.312s1.054,2.186,1.615,3.26c.276.54.566,1.071.856,1.6.149.263.3.523.456.783s.319.512.474.771a23.832,23.832,0,0,1,1.722,3.194v0a.169.169,0,0,1-.254.2,7.035,7.035,0,0,1-.721-.617c-.22-.223-.419-.462-.615-.7l-.144-.184-.133-.19c-.088-.127-.178-.253-.263-.382s-.173-.257-.255-.388-.159-.264-.234-.4c-.312-.532-.592-1.08-.891-1.617s-.587-1.078-.865-1.624c-.567-1.087-1.107-2.186-1.631-3.293s-1.031-2.217-1.519-3.347l.432.3c-.153-.008-.269-.021-.4-.038s-.252-.037-.376-.061q-.373-.071-.736-.179a7.08,7.08,0,0,1-1.4-.585,5.8,5.8,0,0,1-2.2-2.12,6.121,6.121,0,0,1-.6-1.412,5.759,5.759,0,0,1-.222-1.533,5.018,5.018,0,0,1,.233-1.544,5.42,5.42,0,0,1,.682-1.395,6.706,6.706,0,0,1,2.245-2.036,8.152,8.152,0,0,1,2.836-.974,8.039,8.039,0,0,1,3,.11l.366.1c.122.032.238.078.358.117l.356.122c.117.045.231.1.346.15s.23.1.344.155l.331.183c.109.064.224.117.327.19l.313.212a8.82,8.82,0,0,1,2.109,2.108,15.935,15.935,0,0,1,1.464,2.528c.824,1.746,1.443,3.545,2.093,5.316.324.886.646,1.77,1,2.637s.738,1.72,1.134,2.564.816,1.672,1.248,2.5c.221.408.43.825.646,1.24s.434.831.621,1.276l0,.008a.165.165,0,0,1-.266.185Z" transform="translate(-1441.617 -1217.478)" fill="#34456b"/>
        </g>
      </g>
      <g id="Grupo_666" data-name="Grupo 666" transform="translate(20.562 16.561)">
        <g id="Grupo_665" data-name="Grupo 665" transform="translate(0 0)">
          <path id="Caminho_1329" data-name="Caminho 1329" d="M1460.981,1338.523a1.327,1.327,0,0,1,.284,1.188,2.925,2.925,0,0,1-.447,1.071,8.987,8.987,0,0,1-.661.9,1.908,1.908,0,0,1-.22.232c-.04.038-.081.072-.122.1s-.082.064-.123.093a4.051,4.051,0,0,1-.5.3,8.583,8.583,0,0,1-2.064.7,11.466,11.466,0,0,1-2.13.255,8.163,8.163,0,0,1-2.171-.215,4.893,4.893,0,0,1-1.068-.4,3.314,3.314,0,0,1-.953-.726,2.808,2.808,0,0,1-.6-1.078,3.515,3.515,0,0,1-.121-1.185,5.1,5.1,0,0,1,.07-.569c.036-.185.056-.372.1-.554a1.46,1.46,0,0,1,.216-.51.983.983,0,0,1,.487-.379.233.233,0,0,1,.294.121l0,.01a1.162,1.162,0,0,1,.1.575,1.864,1.864,0,0,1-.1.467,2.964,2.964,0,0,0-.139.446,3.778,3.778,0,0,0-.057.451,2.54,2.54,0,0,0,.083.85,1.827,1.827,0,0,0,.392.7,3.007,3.007,0,0,0,1.531.826,7.214,7.214,0,0,0,1.909.186,10.5,10.5,0,0,0,1.948-.233,7.652,7.652,0,0,0,1.822-.612,3.082,3.082,0,0,0,.38-.228c.029-.02.057-.041.082-.062a.85.85,0,0,0,.074-.063.6.6,0,0,0,.064-.062.872.872,0,0,0,.068-.079,3.911,3.911,0,0,0,.529-.77c.136-.276.233-.554.339-.823a3.933,3.933,0,0,1,.387-.848l.038-.062a.173.173,0,0,1,.239-.057A.183.183,0,0,1,1460.981,1338.523Z" transform="translate(-1450.076 -1337.74)" fill="#34456b"/>
        </g>
      </g>
      <g id="Grupo_668" data-name="Grupo 668" transform="translate(20.517 19.512)">
        <g id="Grupo_667" data-name="Grupo 667" transform="translate(0 0)">
          <path id="Caminho_1330" data-name="Caminho 1330" d="M1448.78,1443.024s3.746-.308,4.347.831c.727,1.379-.495,2.089-1.689,2.337-1.157.24-2,.373-2.588-.526A2.849,2.849,0,0,1,1448.78,1443.024Z" transform="translate(-1448.477 -1442.986)" fill="#fff"/>
        </g>
      </g>
      <g id="Grupo_670" data-name="Grupo 670" transform="translate(20.517 20.241)" opacity="0.35">
        <g id="Grupo_669" data-name="Grupo 669" transform="translate(0 0)">
          <path id="Caminho_1331" data-name="Caminho 1331" d="M1451.454,1471.486c-1.157.24-2.005.372-2.589-.526a2.546,2.546,0,0,1-.3-1.952,2.221,2.221,0,0,0,.3.7c.583.9,1.432.766,2.589.526a2.672,2.672,0,0,0,1.743-.974C1453.806,1470.564,1452.617,1471.243,1451.454,1471.486Z" transform="translate(-1448.494 -1469.008)" fill="#34456b"/>
        </g>
      </g>
      <g id="Grupo_672" data-name="Grupo 672" transform="translate(20.095 19.085)">
        <g id="Grupo_671" data-name="Grupo 671" transform="translate(0 0)">
          <path id="Caminho_1332" data-name="Caminho 1332" d="M1435.576,1431.987a1.866,1.866,0,0,1-1.693-.894,3.256,3.256,0,0,1-.091-3.064l.107-.208.233-.019c.672-.055,4.058-.264,4.754,1.054a1.759,1.759,0,0,1,.122,1.628,2.949,2.949,0,0,1-2.1,1.317A6.7,6.7,0,0,1,1435.576,1431.987Zm-1.121-3.365a2.318,2.318,0,0,0,.134,2.012c.411.633.943.594,2.15.343a2.123,2.123,0,0,0,1.508-.852.962.962,0,0,0-.1-.878C1437.839,1428.676,1435.854,1428.541,1434.455,1428.623Z" transform="translate(-1433.441 -1427.756)" fill="#34456b"/>
        </g>
      </g>
      <g id="Grupo_674" data-name="Grupo 674" transform="translate(40.177 41.116)">
        <g id="Grupo_673" data-name="Grupo 673" transform="translate(0 0)">
          <path id="Caminho_1333" data-name="Caminho 1333" d="M2157.57,2213.621a62.668,62.668,0,0,0,5.837,7.53,16.767,16.767,0,0,0,6.166,3.772c2.634.818,2.988,8.658.617,11.082-1.748,1.787-6.152,2.4-6.561-3.579,0,0-10.231.1-13.239-3.959h0a2.531,2.531,0,0,1-.261-3.045Z" transform="translate(-2149.739 -2213.621)" fill="#fff"/>
        </g>
      </g>
      <g id="Grupo_676" data-name="Grupo 676" transform="translate(40.177 53.436)" opacity="0.35">
        <g id="Grupo_675" data-name="Grupo 675" transform="translate(0 0)">
          <path id="Caminho_1334" data-name="Caminho 1334" d="M2171.418,2660.711a5.439,5.439,0,0,1-1.217,2.414c-1.748,1.787-6.152,2.4-6.561-3.58,0,0-10.231.1-13.239-3.96a2.526,2.526,0,0,1-.65-1.7v-.014a.837.837,0,0,1,1.4-.6c.071.065.139.132.2.2,5.735,6.4,15.88,3.355,15.88,3.355-3.417,5.876,2.737,6.723,3.918,4.185C2171.209,2660.9,2171.335,2660.822,2171.418,2660.711Z" transform="translate(-2149.751 -2653.059)" fill="#34456b"/>
        </g>
      </g>
      <g id="Grupo_678" data-name="Grupo 678" transform="translate(39.738 40.621)">
        <g id="Grupo_677" data-name="Grupo 677" transform="translate(0 0)">
          <path id="Caminho_1335" data-name="Caminho 1335" d="M2152.033,2220.564a3.678,3.678,0,0,1-1.276-.222c-1.113-.411-2.475-1.544-2.8-4.593-2.061-.032-10.366-.4-13.167-4.133a3.007,3.007,0,0,1-.708-1.43.488.488,0,0,1,.962-.166,2.065,2.065,0,0,0,.473.945l.04.047c2.825,3.812,12.745,3.763,12.842,3.762l.46,0,.031.459c.155,2.271.916,3.722,2.2,4.2a3.516,3.516,0,0,0,3.523-.925c1.461-1.494,1.767-5.35,1.128-7.876-.334-1.324-.9-2.2-1.541-2.4a17.366,17.366,0,0,1-6.352-3.879,24.462,24.462,0,0,1-5.492-7.7.488.488,0,1,1,.893-.394,23.905,23.905,0,0,0,5.245,7.362l.029.027a16.269,16.269,0,0,0,5.966,3.652c1.006.313,1.766,1.382,2.2,3.091.717,2.836.334,7.048-1.377,8.8A4.788,4.788,0,0,1,2152.033,2220.564Z" transform="translate(-2134.078 -2195.963)" fill="#34456b"/>
        </g>
      </g>
      <g id="Grupo_680" data-name="Grupo 680" transform="translate(27.503 23.524)">
        <g id="Grupo_679" data-name="Grupo 679" transform="translate(0 0)">
          <path id="Caminho_1336" data-name="Caminho 1336" d="M1698.031,1591.11a.366.366,0,0,1-.032-.731c2.245-.2,8.2-1.313,8.766-3.978a.366.366,0,1,1,.716.154c-.8,3.734-9.065,4.522-9.417,4.553Z" transform="translate(-1697.665 -1586.112)" fill="#34456b"/>
        </g>
      </g>
      <g id="Grupo_682" data-name="Grupo 682" transform="translate(50.429 50.455)">
        <g id="Grupo_681" data-name="Grupo 681" transform="translate(0 0)">
          <path id="Caminho_1337" data-name="Caminho 1337" d="M2515.82,2556.388a.366.366,0,0,1-.055-.728,6.456,6.456,0,0,0,2.821-1.4c1.853-1.56,2.767-3.969,2.718-7.162a.366.366,0,0,1,.361-.372h.006a.366.366,0,0,1,.366.36c.066,4.287-1.6,6.586-3.01,7.76a7.058,7.058,0,0,1-3.15,1.538A.36.36,0,0,1,2515.82,2556.388Z" transform="translate(-2515.454 -2546.726)" fill="#34456b"/>
        </g>
      </g>
      <g id="Grupo_684" data-name="Grupo 684" transform="translate(53.714 56.481)">
        <g id="Grupo_683" data-name="Grupo 683" transform="translate(0 0)">
          <path id="Caminho_1338" data-name="Caminho 1338" d="M2632.905,2764.74l.292-.084c.1-.029.2-.062.3-.1s.2-.073.3-.106.2-.081.3-.118a6.029,6.029,0,0,0,1.118-.607l.13-.094a1.076,1.076,0,0,0,.126-.1l.244-.209c.077-.075.147-.155.224-.231.037-.04.077-.077.112-.118l.1-.129a5.275,5.275,0,0,0,.684-1.146l0,0a.054.054,0,0,1,.1.031,4.026,4.026,0,0,1-.414,1.358l-.082.163c-.029.053-.065.1-.1.154-.067.1-.132.206-.206.3l-.237.281a3.009,3.009,0,0,1-.26.26,4.7,4.7,0,0,1-1.9,1.086,3.654,3.654,0,0,1-.357.089,3.14,3.14,0,0,1-.38.054.372.372,0,0,1-.133-.729Z" transform="translate(-2632.602 -2761.668)" fill="#34456b"/>
        </g>
      </g>
      <g id="Grupo_686" data-name="Grupo 686" transform="translate(18.453 41.21)">
        <g id="Grupo_685" data-name="Grupo 685" transform="translate(0 0)">
          <path id="Caminho_1339" data-name="Caminho 1339" d="M1374.872,2222.072l.655-.934a2.713,2.713,0,0,1,1.292-.99l8.721-3.176a9.487,9.487,0,0,1,.59,1.955l-.874,2.284Z" transform="translate(-1374.872 -2216.971)" fill="#fff"/>
        </g>
      </g>
      <g id="Grupo_688" data-name="Grupo 688" transform="translate(18.23 40.86)">
        <g id="Grupo_687" data-name="Grupo 687" transform="translate(0 0)">
          <path id="Caminho_1340" data-name="Caminho 1340" d="M1367.362,2210.261a.473.473,0,0,1-.386-.744l.505-.721a3.046,3.046,0,0,1,1.458-1.119l8.721-3.176a.374.374,0,0,1,.3.023c.192.1.286.269.658,1.825.033.136.07.292.08.324l.036.116-.041.121-.953,2.491-10.343.857Zm.188-.342h0Zm-.287-.2h0Zm10.352-4.454-8.435,3.072a2.346,2.346,0,0,0-1.124.862l-.226.322,9.418-.781.755-1.972c-.014-.059-.034-.139-.061-.254C1377.875,2206.239,1377.725,2205.608,1377.615,2205.265Z" transform="translate(-1366.89 -2204.48)" fill="#34456b"/>
        </g>
      </g>
      <g id="Grupo_690" data-name="Grupo 690" transform="translate(25.456 41.137)">
        <g id="Grupo_689" data-name="Grupo 689" transform="translate(0 0)">
          <path id="Caminho_1341" data-name="Caminho 1341" d="M1634.616,2225.521a44.337,44.337,0,0,1-3.7,2.573l-1.947-3.469-4.312-7.684a32.013,32.013,0,0,1,3.664-2.52c.563-.319,1.186.447,1.555,1.031l2.726,4.3,2.333,3.68A1.55,1.55,0,0,1,1634.616,2225.521Z" transform="translate(-1624.661 -2214.346)" fill="#fff"/>
        </g>
      </g>
      <g id="Grupo_692" data-name="Grupo 692" transform="translate(28.68 46.542)" opacity="0.35">
        <g id="Grupo_691" data-name="Grupo 691" transform="translate(0 0)">
          <path id="Caminho_1342" data-name="Caminho 1342" d="M1746.369,2412.932a44.322,44.322,0,0,1-3.7,2.573l-1.947-3.469-1.088-4.465s2.2,1.486,3.939.3a3.786,3.786,0,0,0,.782-.708l2.333,3.68A1.55,1.55,0,0,1,1746.369,2412.932Z" transform="translate(-1739.637 -2407.163)" fill="#34456b"/>
        </g>
      </g>
      <g id="Grupo_694" data-name="Grupo 694" transform="translate(25.096 40.787)">
        <g id="Grupo_693" data-name="Grupo 693" transform="translate(0 0)">
          <path id="Caminho_1343" data-name="Caminho 1343" d="M1618.434,2216.315a.348.348,0,0,1-.069-.008l-.15-.029-.094-.146-6.258-11.152c-.158-.287.038-.435.467-.759.255-.193.595-.439.956-.693.438-.308,1.548-1.076,2.375-1.545.358-.2,1.1-.322,2.024,1.15l5.059,7.978a1.9,1.9,0,0,1-.413,2.56C1619.072,2216.061,1618.633,2216.315,1618.434,2216.315Zm-5.821-11.43,5.952,10.606c.358-.231,1.231-.832,3.351-2.386a1.2,1.2,0,0,0,.235-1.618l-5.06-7.98c-.431-.685-.858-1.043-1.086-.914A37.513,37.513,0,0,0,1612.614,2204.886Z" transform="translate(-1611.808 -2201.864)" fill="#34456b"/>
        </g>
      </g>
      <g id="Grupo_696" data-name="Grupo 696" transform="translate(17.881 43.63)">
        <g id="Grupo_695" data-name="Grupo 695" transform="translate(0 0)">
          <path id="Caminho_1344" data-name="Caminho 1344" d="M1368.2,2314.566l-7.09,1.06a2.558,2.558,0,0,1-2.569-1.189l-.328-.526-3.289-5.269a3.1,3.1,0,0,1-.428-1.1c-.151-.865.422-1.444,1.23-1.951l5.93-2.167a2.187,2.187,0,0,1,2.57.841l.619,1.009,4.367,7.123A1.433,1.433,0,0,1,1368.2,2314.566Z" transform="translate(-1354.471 -2303.294)" fill="#fff"/>
        </g>
      </g>
      <g id="Grupo_698" data-name="Grupo 698" transform="translate(21.623 45.614)" opacity="0.35">
        <g id="Grupo_697" data-name="Grupo 697" transform="translate(0)">
          <path id="Caminho_1345" data-name="Caminho 1345" d="M1497.924,2383.324l-7.091,1.06a2.558,2.558,0,0,1-2.569-1.189l-.328-.526a6.3,6.3,0,0,0,5.735-1.926c1.631-1.916,1.365-4.756.9-6.708l4.367,7.122A1.433,1.433,0,0,1,1497.924,2383.324Z" transform="translate(-1487.936 -2374.036)" fill="#34456b"/>
        </g>
      </g>
      <g id="Grupo_700" data-name="Grupo 700" transform="translate(17.531 43.278)">
        <g id="Grupo_699" data-name="Grupo 699" transform="translate(0 0)">
          <path id="Caminho_1346" data-name="Caminho 1346" d="M1348.926,2303.779a2.915,2.915,0,0,1-2.843-1.354l-3.617-5.795a3.465,3.465,0,0,1-.475-1.222,2.3,2.3,0,0,1,1.389-2.309l.031-.02,5.965-2.179a2.529,2.529,0,0,1,2.981.976l4.993,8.143a1.784,1.784,0,0,1-1.257,2.7l-7.116,1.063h-.05Zm.024-.35h0Zm-5.228-9.717c-.841.535-1.142.993-1.041,1.575a2.756,2.756,0,0,0,.38.972l3.617,5.795a2.212,2.212,0,0,0,2.246,1.024l7.065-1.055a1.083,1.083,0,0,0,.763-1.637l-4.986-8.132a1.828,1.828,0,0,0-2.15-.7Z" transform="translate(-1341.96 -2290.745)" fill="#34456b"/>
        </g>
      </g>
      <g id="Grupo_702" data-name="Grupo 702" transform="translate(25.673 47.483)">
        <g id="Grupo_701" data-name="Grupo 701" transform="translate(0)">
          <path id="Caminho_1347" data-name="Caminho 1347" d="M1633.1,2443.242c.1.2,1.169,1.695,1.169,1.695l.936-.484c.644-.333.747-1.415.229-2.417s-1.46-1.544-2.1-1.211l-.936.484S1632.934,2442.917,1633.1,2443.242Z" transform="translate(-1632.395 -2440.727)" fill="#22a7f0"/>
        </g>
      </g>
      <g id="Grupo_704" data-name="Grupo 704" transform="translate(25.673 47.483)">
        <g id="Grupo_703" data-name="Grupo 703" transform="translate(0)">
          <path id="Caminho_1348" data-name="Caminho 1348" d="M1633.1,2443.242c.1.2,1.169,1.695,1.169,1.695l.936-.484c.644-.333.747-1.415.229-2.417s-1.46-1.544-2.1-1.211l-.936.484S1632.934,2442.917,1633.1,2443.242Z" transform="translate(-1632.395 -2440.727)" fill="#22a7f0"/>
        </g>
      </g>
      <g id="Grupo_706" data-name="Grupo 706" transform="translate(25.673 47.483)" opacity="0.35">
        <g id="Grupo_705" data-name="Grupo 705" transform="translate(0)">
          <path id="Caminho_1349" data-name="Caminho 1349" d="M1633.1,2443.242c.1.2,1.169,1.695,1.169,1.695l.936-.484c.644-.333.747-1.415.229-2.417s-1.46-1.544-2.1-1.211l-.936.484S1632.934,2442.917,1633.1,2443.242Z" transform="translate(-1632.395 -2440.727)" fill="#34456b"/>
        </g>
      </g>
      <g id="Grupo_708" data-name="Grupo 708" transform="translate(25.226 47.116)">
        <g id="Grupo_707" data-name="Grupo 707" transform="translate(0 0)">
          <path id="Caminho_1350" data-name="Caminho 1350" d="M1618.666,2432.67l-.184-.259c-.253-.355-1.089-1.532-1.2-1.739h0c-.176-.341-.673-1.818-.729-1.985l-.1-.3,1.214-.628a1.487,1.487,0,0,1,1.45.113,3.266,3.266,0,0,1,1.508,2.917,1.486,1.486,0,0,1-.746,1.249Zm-.73-2.334c.057.106.5.75.958,1.392l.653-.338a.823.823,0,0,0,.354-.667,2.541,2.541,0,0,0-1.145-2.213.822.822,0,0,0-.749-.1l-.656.339C1617.559,2429.359,1617.839,2430.149,1617.936,2430.336Z" transform="translate(-1616.457 -2427.621)" fill="#34456b"/>
        </g>
      </g>
      <g id="Grupo_711" data-name="Grupo 711" transform="translate(24.189 47.621)">
        <g id="Grupo_709" data-name="Grupo 709" transform="translate(0 0)">
          <ellipse id="Elipse_75" data-name="Elipse 75" cx="1.313" cy="2.042" rx="1.313" ry="2.042" transform="translate(0 1.207) rotate(-27.346)" fill="#22a7f0"/>
        </g>
        <g id="Grupo_710" data-name="Grupo 710" transform="translate(0.24 0.138)">
          <path id="Caminho_1351" data-name="Caminho 1351" d="M1590.391,2455.112a2.5,2.5,0,0,1-2.012-1.508h0c-.62-1.2-.451-2.478.386-2.91s1.978.168,2.6,1.367.451,2.478-.385,2.911A1.263,1.263,0,0,1,1590.391,2455.112Zm-1.362-1.844c.454.877,1.213,1.26,1.611,1.054s.525-1.047.072-1.924-1.213-1.259-1.611-1.054-.525,1.047-.072,1.924Z" transform="translate(-1588.006 -2450.553)" fill="#34456b"/>
        </g>
      </g>
      <g id="Grupo_713" data-name="Grupo 713" transform="translate(25.164 48.495)">
        <g id="Grupo_712" data-name="Grupo 712" transform="translate(0 0)">
          <path id="Caminho_1352" data-name="Caminho 1352" d="M1616.22,2477.918c-.454-.877-1.213-1.259-1.611-1.053s-.525,1.047-.072,1.924,1.214,1.26,1.611,1.054S1616.674,2478.8,1616.22,2477.918Z" transform="translate(-1614.249 -2476.81)" fill="#22a7f0"/>
        </g>
      </g>
      <g id="Grupo_715" data-name="Grupo 715" transform="translate(25.164 48.495)" opacity="0.6">
        <g id="Grupo_714" data-name="Grupo 714" transform="translate(0)">
          <path id="Caminho_1353" data-name="Caminho 1353" d="M1614.818,2479.076c-.454-.877-.326-1.718.072-1.924a.983.983,0,0,1,1,.273c-.434-.514-.966-.714-1.278-.554-.4.206-.525,1.046-.072,1.924a2.5,2.5,0,0,0,.614.781A2.681,2.681,0,0,1,1614.818,2479.076Z" transform="translate(-1614.249 -2476.818)" fill="#fff"/>
        </g>
      </g>
      <g id="Grupo_717" data-name="Grupo 717" transform="translate(25.037 48.503)" opacity="0.35">
        <g id="Grupo_716" data-name="Grupo 716" transform="translate(0 0)">
          <path id="Caminho_1354" data-name="Caminho 1354" d="M1612.117,2478.043a2.863,2.863,0,0,0-.751-.931c.413.945.285,1.915-.319,2.227a1.276,1.276,0,0,1-1.354-.279c.028.063.058.127.091.19.518,1,1.46,1.544,2.1,1.211S1612.635,2479.045,1612.117,2478.043Z" transform="translate(-1609.693 -2477.112)" fill="#34456b"/>
        </g>
      </g>
      <g id="Grupo_724" data-name="Grupo 724" transform="translate(31.625 34.95)">
        <g id="Grupo_719" data-name="Grupo 719" transform="translate(0.488 0.488)">
          <g id="Grupo_718" data-name="Grupo 718">
            <path id="Caminho_1355" data-name="Caminho 1355" d="M1874.582,2011.073a24.779,24.779,0,0,1-10.962,8.907,2.267,2.267,0,0,0-1.371,2.8,1.521,1.521,0,0,0,1.608,1.072c3.962-.007,13.362-7.428,13.451-10.357C1877.39,2010.755,1874.582,2011.073,1874.582,2011.073Z" transform="translate(-1862.137 -2011.062)" fill="#fff"/>
          </g>
        </g>
        <g id="Grupo_721" data-name="Grupo 721" transform="translate(0.488 2.099)" opacity="0.35">
          <g id="Grupo_720" data-name="Grupo 720">
            <path id="Caminho_1356" data-name="Caminho 1356" d="M1877.308,2069.361c-.088,2.929-9.489,10.35-13.451,10.357a1.522,1.522,0,0,1-1.608-1.072,2.153,2.153,0,0,1,.148-1.705.115.115,0,0,0,.006.02,1.523,1.523,0,0,0,1.608,1.073c3.614-.005,11.755-6.184,13.223-9.491A3.14,3.14,0,0,1,1877.308,2069.361Z" transform="translate(-1862.138 -2068.542)" fill="#34456b"/>
          </g>
        </g>
        <g id="Grupo_723" data-name="Grupo 723" transform="translate(0 0)">
          <g id="Grupo_722" data-name="Grupo 722">
            <path id="Caminho_1357" data-name="Caminho 1357" d="M1846.922,2007.421a2.017,2.017,0,0,1-2.066-1.4,2.75,2.75,0,0,1,1.654-3.407,24.494,24.494,0,0,0,10.727-8.711l.125-.2.234-.027a3.415,3.415,0,0,1,2.467.724,2.726,2.726,0,0,1,.8,2.194c-.055,1.81-2.857,4.619-5.461,6.645s-6.188,4.182-8.477,4.185Zm11-12.787a25.145,25.145,0,0,1-11.054,8.884,1.774,1.774,0,0,0-1.088,2.187,1.042,1.042,0,0,0,1.14.74h0c3.853-.006,12.888-7.364,12.964-9.884a1.805,1.805,0,0,0-.484-1.443A2.259,2.259,0,0,0,1857.923,1994.634Z" transform="translate(-1844.719 -1993.658)" fill="#34456b"/>
          </g>
        </g>
      </g>
      <g id="Grupo_726" data-name="Grupo 726" transform="translate(19.503 45.295)">
        <g id="Grupo_725" data-name="Grupo 725" transform="translate(0 0)">
          <path id="Caminho_1358" data-name="Caminho 1358" d="M1419.672,2373.359a.366.366,0,0,1-.318-.183l-2.677-4.641-1.108-.171-3.186-5.13a.366.366,0,0,1,.622-.386l3.009,4.844,1.122.174,2.852,4.946a.366.366,0,0,1-.317.549Z" transform="translate(-1412.328 -2362.674)" fill="#34456b"/>
        </g>
      </g>
    </g>
  </g>
</svg>
