<svg xmlns="http://www.w3.org/2000/svg" width="65" height="65" viewBox="0 0 65 65">
  <g id="Grupo_1684" data-name="Grupo 1684" transform="translate(629 -2887)">
    <circle id="Elipse_159" data-name="Elipse 159" cx="32.5" cy="32.5" r="32.5" transform="translate(-629 2887)" fill="#2560d6"/>
    <g id="_007-washing-hands" data-name="007-washing-hands" transform="translate(-624.438 2894.347)">
      <path id="Caminho_2913" data-name="Caminho 2913" d="M78.649,303.959a3.115,3.115,0,0,0-2.366-.671l-7.7,1.016a.369.369,0,0,1-.351-.577l1.062-1.522a.771.771,0,1,0-1.265-.883l-1.062,1.522a1.912,1.912,0,0,0,1.817,2.99l7.7-1.016a1.561,1.561,0,0,1,.771,3L62.708,313.49a13.231,13.231,0,0,1-6.114.832l-1.168-.118a.774.774,0,0,0-.481.11L46.318,319.6a.771.771,0,1,0,.805,1.316l8.406-5.147.909.092a14.784,14.784,0,0,0,6.83-.93l6.908-2.693,2.538,8.247a.771.771,0,0,0,1.474-.454l-2.572-8.354,6.2-2.416a3.1,3.1,0,0,0,.833-5.3Z" transform="translate(-41.224 -271.703)" fill="#fff"/>
      <path id="Caminho_2914" data-name="Caminho 2914" d="M7.138,232.89l1.168-1.154a.771.771,0,1,0-1.084-1.1l-1.166,1.152a9.8,9.8,0,0,0-2.4,3.816l-.52,1.527L.3,239.294a.771.771,0,1,0,.935,1.227l3.019-2.3a.771.771,0,0,0,.262-.365l.6-1.749A8.252,8.252,0,0,1,7.138,232.89Z" transform="translate(0 -208.386)" fill="#fff"/>
      <path id="Caminho_2915" data-name="Caminho 2915" d="M449.265,417.557a.771.771,0,0,0-1.469.471l2.1,6.558a.771.771,0,0,0,1.469-.471Z" transform="translate(-401.712 -375.8)" fill="#fff"/>
      <path id="Caminho_2916" data-name="Caminho 2916" d="M404.879,161.873a15.2,15.2,0,0,0,2.627-4.947l2.089-6.67a.771.771,0,1,0-1.472-.461l-2.089,6.67a13.662,13.662,0,0,1-2.362,4.447l-.492.617a2.174,2.174,0,0,0-.47,1.394h0a9.474,9.474,0,0,0,.258,1.109.771.771,0,0,0,.954.5l.037-.01a.771.771,0,0,0,.526-.966l-.227-.749a.62.62,0,0,1,.129-.321Z" transform="translate(-361.296 -135.571)" fill="#fff"/>
      <path id="Caminho_2917" data-name="Caminho 2917" d="M14.708,145.514a2.473,2.473,0,1,0,2.473-2.473A2.476,2.476,0,0,0,14.708,145.514Zm3.4,0a.931.931,0,1,1-.931-.931A.932.932,0,0,1,18.112,145.514Z" transform="translate(-13.195 -129.996)" fill="#fff"/>
      <path id="Caminho_2918" data-name="Caminho 2918" d="M459.154,211.785a2.864,2.864,0,1,0,2.864,2.864A2.867,2.867,0,0,0,459.154,211.785Zm0,4.185a1.321,1.321,0,1,1,1.321-1.321A1.323,1.323,0,0,1,459.154,215.97Z" transform="translate(-409.366 -191.67)" fill="#fff"/>
      <path id="Caminho_2919" data-name="Caminho 2919" d="M17.838,35.339a3.4,3.4,0,1,0-3.4-3.4A3.4,3.4,0,0,0,17.838,35.339Zm0-5.248a1.853,1.853,0,1,1-1.853,1.853A1.855,1.855,0,0,1,17.838,30.091Z" transform="translate(-12.958 -27.277)" fill="#fff"/>
      <path id="Caminho_2920" data-name="Caminho 2920" d="M120.062,31.628l.111-.159H122.5a1.614,1.614,0,0,0,1.513-1.06l1.378-3.8a5.172,5.172,0,0,1,3.6-3.252.958.958,0,0,1,1.15,1.216l-.844,2.694a.771.771,0,1,0,1.472.461l.844-2.694a2.5,2.5,0,0,0-3-3.172,6.714,6.714,0,0,0-4.668,4.221l-1.378,3.8a.067.067,0,0,1-.063.044H121.25l.314-.449a2.765,2.765,0,0,0-1.858-4.321,2.55,2.55,0,0,0-4.251-2.625l-.463.49a2.783,2.783,0,0,0-.783-1.145c-.041-.036-.082-.07-.125-.1a3.363,3.363,0,0,0-5.083-3.5,3.364,3.364,0,0,0-5.47.29l-1.609-1.581a2.765,2.765,0,0,0-4.57,1.114,2.551,2.551,0,0,0-3.3,3.755l.406.537A2.8,2.8,0,0,0,92.708,26.8l1.474,2.011a2.554,2.554,0,0,0-1.519,3.947l.73,1.046-2.347,2.319a.771.771,0,0,0,1.084,1.1l14.652-14.478a1.014,1.014,0,0,1,1.385-.035,1.012,1.012,0,0,1,.056,1.455l-6.771,7.015a.771.771,0,0,0,1.106,1.075l8.9-9.153a1.258,1.258,0,0,1,1.816,1.74l-9.134,9.67a.771.771,0,1,0,1.121,1.059l11.316-11.98a1.009,1.009,0,0,1,1.51,1.337L107.6,37.453a.771.771,0,0,0,1.179.995L118.356,27.1a1.228,1.228,0,0,1,1.533-.281,1.226,1.226,0,0,1,.41,1.773L110.162,43.113a.771.771,0,1,0,1.265.883l.589-.843a3.864,3.864,0,0,0,2.862,1.59q.126.008.251.008a3.808,3.808,0,0,0,2.628-1.042,3.848,3.848,0,0,0,1.192-3.211,4.736,4.736,0,0,0,1.113-8.869ZM99.024,18.194a1.226,1.226,0,0,1,1.817-.109l1.29,1.268a4.038,4.038,0,0,0-2.019,1.659l-1.067-1.259a1.228,1.228,0,0,1-.022-1.558ZM94.506,32.706l-.578-.828a1.011,1.011,0,0,1,.2-1.364,1.008,1.008,0,0,1,1.443.19l.4.552Zm2.576-2.545-3.129-4.27a1.258,1.258,0,0,1,2.018-1.5l2.971,3.934Zm2.967-2.931L97.34,23.642l-.138-.183-1.915-2.536a1.009,1.009,0,0,1,1.57-1.266l2.673,3.1c-.01.118-.016.236-.016.357a4.007,4.007,0,0,0,1.516,3.143Zm10.3-5.2-.482.5a2.556,2.556,0,0,0-4.171-.875l-3.558,3.516a2.473,2.473,0,0,1,1.385-4.519h.008a1.13,1.13,0,0,0,1.094-.8,1.832,1.832,0,0,1,1.742-1.293,1.808,1.808,0,0,1,1.559.881,1.138,1.138,0,0,0,1.7.289A1.82,1.82,0,0,1,112.6,21c0,.063,0,.125,0,.187A2.8,2.8,0,0,0,110.35,22.026Zm8.124,16.992a1.3,1.3,0,0,0-.855.531,1.282,1.282,0,0,0-.223.966,2.327,2.327,0,0,1,.033.39,2.3,2.3,0,0,1-2.454,2.3,2.322,2.322,0,0,1-1.984-1.446l6.174-8.843a3.192,3.192,0,0,1-.69,6.1Z" transform="translate(-81.477 -16.191)" fill="#fff"/>
      <path id="Caminho_2921" data-name="Caminho 2921" d="M401.335,317.617a2.839,2.839,0,0,0-.339-1.344,1.407,1.407,0,0,1-.123-1.014,3.579,3.579,0,0,0-3.242-4.444,3.545,3.545,0,0,0-2.675.963,3.575,3.575,0,0,0,.219,5.4,1.389,1.389,0,0,1,.512.869c.012.074.027.15.045.225a2.868,2.868,0,0,0,2.562,2.178q.1.007.2.007a2.813,2.813,0,0,0,1.935-.764A2.85,2.85,0,0,0,401.335,317.617Zm-1.956.95a1.292,1.292,0,0,1-.98.346,1.311,1.311,0,0,1-1.169-1c-.008-.035-.015-.069-.021-.1a2.928,2.928,0,0,0-1.073-1.837,2.033,2.033,0,0,1,1.267-3.623c.044,0,.087,0,.131,0a2.035,2.035,0,0,1,1.842,2.528h0a2.945,2.945,0,0,0,.262,2.123,1.3,1.3,0,0,1-.259,1.561Z" transform="translate(-353.327 -280.51)" fill="#fff"/>
    </g>
  </g>
</svg>
