<svg xmlns="http://www.w3.org/2000/svg" width="65" height="65" viewBox="0 0 65 65">
  <g id="Grupo_1683" data-name="Grupo 1683" transform="translate(819 -2872)">
    <circle id="Elipse_160" data-name="Elipse 160" cx="32.5" cy="32.5" r="32.5" transform="translate(-819 2872)" fill="#2560d6"/>
    <g id="_006-towel" data-name="006-towel" transform="translate(-813.12 2880.347)">
      <path id="Caminho_2912" data-name="Caminho 2912" d="M50.082,4.164H44.158V3.085A3.106,3.106,0,0,0,41.074,0H22.332a.771.771,0,1,0,0,1.543H38.4a3.066,3.066,0,0,0-.415,1.543v39.93a6.972,6.972,0,0,0-3.121-.65,7.146,7.146,0,0,0-3.428.791,5.609,5.609,0,0,1-2.779.648,5.61,5.61,0,0,1-2.779-.648,7.147,7.147,0,0,0-3.428-.791,7.147,7.147,0,0,0-3.428.791,5.611,5.611,0,0,1-2.779.648,5.614,5.614,0,0,1-2.78-.648A7.611,7.611,0,0,0,11.58,42.5V4.2a2.665,2.665,0,0,1,2.662-2.662h4.49a.771.771,0,0,0,0-1.543h-4.49a4.209,4.209,0,0,0-4.2,4.164H2.571a2.571,2.571,0,1,0,0,5.142h7.467V49.825a2.831,2.831,0,0,0,2.828,2.828H36.7a2.831,2.831,0,0,0,2.828-2.828v-.978h1.8a2.831,2.831,0,0,0,2.828-2.828V37.5a.771.771,0,0,0-1.543,0v8.523A1.287,1.287,0,0,1,41.33,47.3h-1.8v-38h3.085V33.9a.771.771,0,1,0,1.543,0V9.306h5.925a2.571,2.571,0,0,0,0-5.142Zm-40.045,3.6H2.571a1.028,1.028,0,1,1,0-2.057h7.467ZM11.58,44.079a6.861,6.861,0,0,1,1.237.476,7.151,7.151,0,0,0,3.429.791,7.148,7.148,0,0,0,3.428-.791,5.611,5.611,0,0,1,2.779-.648,5.61,5.61,0,0,1,2.779.648,7.147,7.147,0,0,0,3.428.791,7.146,7.146,0,0,0,3.428-.791,5.609,5.609,0,0,1,2.779-.648,6.143,6.143,0,0,1,3.121.8v1.677a6.972,6.972,0,0,0-3.121-.651,7.146,7.146,0,0,0-3.428.791,5.609,5.609,0,0,1-2.779.648,5.61,5.61,0,0,1-2.779-.648,7.147,7.147,0,0,0-3.428-.791,7.147,7.147,0,0,0-3.428.791,5.611,5.611,0,0,1-2.779.648,5.614,5.614,0,0,1-2.78-.648,7.609,7.609,0,0,0-1.885-.656V44.079Zm26.408,5.746A1.287,1.287,0,0,1,36.7,51.111H12.866a1.287,1.287,0,0,1-1.285-1.285V47.452a6.854,6.854,0,0,1,1.237.476,7.151,7.151,0,0,0,3.428.791,7.148,7.148,0,0,0,3.428-.791,5.611,5.611,0,0,1,2.779-.648,5.61,5.61,0,0,1,2.779.648,7.147,7.147,0,0,0,3.428.791,7.146,7.146,0,0,0,3.428-.791,5.609,5.609,0,0,1,2.779-.648,6.143,6.143,0,0,1,3.122.8v1.74ZM39.53,3.081a1.542,1.542,0,0,1,3.085,0V4.164H39.531V3.085s0,0,0,0ZM50.082,7.763H39.531V5.706H50.082a1.028,1.028,0,0,1,0,2.057Z" transform="translate(0 0)" fill="#fff"/>
    </g>
  </g>
</svg>
