<svg xmlns="http://www.w3.org/2000/svg" width="65" height="65" viewBox="0 0 65 65">
  <g id="Grupo_1660" data-name="Grupo 1660" transform="translate(-435 -127)">
    <circle id="Elipse_157" data-name="Elipse 157" cx="32.5" cy="32.5" r="32.5" transform="translate(435 127)" fill="#2560d6"/>
    <g id="_003-dental-care" data-name="003-dental-care" transform="translate(450.063 134.165)">
      <path id="Caminho_2897" data-name="Caminho 2897" d="M92.633,13.434V3.344a1.83,1.83,0,0,0-1.828-1.828H86.231a2.41,2.41,0,0,0-4.648.894V14.932a6,6,0,0,0,1.961,4.433c1.294,1.176,1.645,1.361,1.645,2.013v4.391a3.751,3.751,0,0,0-1.34,2.874V48.9a3.758,3.758,0,0,0,7.516,0V39.718a.771.771,0,0,0-1.543,0V48.9a2.216,2.216,0,0,1-4.431,0V28.643a2.216,2.216,0,1,1,4.431,0v7.476a.771.771,0,1,0,1.543,0V28.643a3.751,3.751,0,0,0-1.356-2.888V21.378a6,6,0,0,0-1.961-4.433L86.787,15.8a1.17,1.17,0,0,1-.334-.536h4.352a1.83,1.83,0,0,0,1.828-1.828ZM86.4,3.059h4.4a.285.285,0,0,1,.285.285V4.485H86.4Zm0,2.968H91.09V7.618H86.4Zm0,3.133H91.09v1.591H86.4Zm.608,8.926a4.458,4.458,0,0,1,1.456,3.292v3.606a3.768,3.768,0,0,0-1.736,0v-3.61a2.718,2.718,0,0,0-.888-2.007l-1.262-1.147a4.458,4.458,0,0,1-1.456-3.292V2.41a.868.868,0,0,1,1.731-.089c0,.007,0,.014,0,.021v.011c0,.019,0,.037,0,.057V14.932a2.718,2.718,0,0,0,.888,2.007ZM86.4,13.719V12.294H91.09v1.141a.285.285,0,0,1-.285.285Z" transform="translate(-81.583 0)" fill="#fff"/>
      <path id="Caminho_2898" data-name="Caminho 2898" d="M222.3,12.87a.771.771,0,0,0-.771-.771h-7.89a1.538,1.538,0,0,0-1.536,1.536v1.821a1.537,1.537,0,0,0,.8,1.35l2.146,30.659a2.243,2.243,0,0,0,1.6,1.988l.52,2.086a3.48,3.48,0,0,0,1.659,2.188,1.691,1.691,0,0,0-.089.889l1.26,7.478a1.69,1.69,0,0,0,1.671,1.413h3.3a1.69,1.69,0,0,0,1.671-1.413l1.26-7.478a1.692,1.692,0,0,0-.089-.889,3.48,3.48,0,0,0,1.659-2.188l.52-2.086a2.243,2.243,0,0,0,1.6-1.988l2.146-30.659a1.537,1.537,0,0,0,.8-1.35V13.635a1.538,1.538,0,0,0-1.536-1.536h-7.89a.771.771,0,0,0,0,1.543l7.883-.006.006,1.815H213.649l-.006-1.808h7.89a.771.771,0,0,0,.771-.771Zm4.09,41.491-1.26,7.478a.152.152,0,0,1-.15.127h-3.3a.152.152,0,0,1-.15-.127l-1.26-7.478a.152.152,0,0,1,.15-.178h5.822A.152.152,0,0,1,226.393,54.361Zm1.594-3.194a1.941,1.941,0,0,1-1.887,1.474h-5.538a1.941,1.941,0,0,1-1.887-1.474l-.4-1.623h10.12Zm2.082-3.808a.694.694,0,0,1-.69.643H217.284a.694.694,0,0,1-.69-.643l-.108-1.549h13.691Zm.216-3.091H216.378l-.8-11.458c.815-.7,3.642-2.636,7.271.289,2.8,2.257,5.705,2.387,8.152.952Zm.855-12.215c-1.987,1.775-4.655,2-7.324-.156-2.907-2.343-5.908-2.406-8.365-.89l-.733-10.468h17.228Zm1.054-15.06-.14,2H214.609l-.14-2Z" transform="translate(-198.683 -10.855)" fill="#fff"/>
    </g>
  </g>
</svg>
