<svg xmlns="http://www.w3.org/2000/svg" width="65" height="65" viewBox="0 0 65 65">
  <g id="Grupo_1661" data-name="Grupo 1661" transform="translate(-625 -127)">
    <circle id="Elipse_158" data-name="Elipse 158" cx="32.5" cy="32.5" r="32.5" transform="translate(625 127)" fill="#2560d6"/>
    <g id="_004-mirror" data-name="004-mirror" transform="translate(636.578 135.992)">
      <path id="Caminho_2899" data-name="Caminho 2899" d="M64.95,0C55.878,0,48.5,8.119,48.5,18.1c0,8.552,5.421,15.731,12.68,17.614l-.787,8.656a4.579,4.579,0,1,0,9.121,0l-.787-8.656C75.984,33.831,81.4,26.651,81.4,18.1,81.4,8.119,74.023,0,64.95,0Zm2.922,44.517a2.934,2.934,0,1,1-5.843,0l.77-8.478a14.567,14.567,0,0,0,4.3,0ZM64.95,34.554c-8.165,0-14.809-7.381-14.809-16.454S56.785,1.645,64.95,1.645,79.759,9.027,79.759,18.1,73.115,34.554,64.95,34.554Zm0,0" transform="translate(-43.56 0)" fill="#fff"/>
      <path id="Caminho_2900" data-name="Caminho 2900" d="M93.659,32C86.4,32,80.5,38.643,80.5,46.809S86.4,61.618,93.659,61.618s13.163-6.643,13.163-14.809S100.918,32,93.659,32Zm0,27.972c-6.351,0-11.518-5.905-11.518-13.163s5.167-13.163,11.518-13.163a10.328,10.328,0,0,1,5.411,1.55l-4.292,3.577a.823.823,0,1,0,1.054,1.264l4.611-3.842a12.149,12.149,0,0,1,1.326,1.278l-4.522,3.768A.823.823,0,1,0,98.3,42.5l4.467-3.723a14.315,14.315,0,0,1,2.41,8.027C105.177,54.067,100.011,59.972,93.659,59.972Zm0,0" transform="translate(-72.269 -28.709)" fill="#fff"/>
      <path id="Caminho_2901" data-name="Caminho 2901" d="M115.191,116.936a4.119,4.119,0,0,1-4.114-4.114.823.823,0,0,0-1.645,0,4.118,4.118,0,0,1-4.114,4.114.823.823,0,1,0,0,1.645,4.118,4.118,0,0,1,4.114,4.114.823.823,0,1,0,1.645,0,4.119,4.119,0,0,1,4.114-4.114.823.823,0,1,0,0-1.645Zm-4.936,2.8a5.8,5.8,0,0,0-1.972-1.972,5.8,5.8,0,0,0,1.972-1.972,5.807,5.807,0,0,0,1.973,1.972A5.807,5.807,0,0,0,110.255,119.731Zm0,0" transform="translate(-93.801 -100.482)" fill="#fff"/>
      <path id="Caminho_2902" data-name="Caminho 2902" d="M7.9,3.291A2.471,2.471,0,0,1,5.432.823a.823.823,0,1,0-1.645,0A2.471,2.471,0,0,1,1.319,3.291a.823.823,0,1,0,0,1.645A2.471,2.471,0,0,1,3.787,7.4a.823.823,0,0,0,1.645,0A2.471,2.471,0,0,1,7.9,4.936a.823.823,0,1,0,0-1.645ZM4.61,4.939a4.158,4.158,0,0,0-.825-.825,4.158,4.158,0,0,0,.825-.825,4.16,4.16,0,0,0,.825.825A4.16,4.16,0,0,0,4.61,4.939Zm0,0" transform="translate(-0.496 0)" fill="#fff"/>
    </g>
  </g>
</svg>
