<svg xmlns="http://www.w3.org/2000/svg" width="65" height="65" viewBox="0 0 65 65">
  <g id="Grupo_1682" data-name="Grupo 1682" transform="translate(1009 -2872)">
    <circle id="Elipse_161" data-name="Elipse 161" cx="32.5" cy="32.5" r="32.5" transform="translate(-1009 2872)" fill="#2560d6"/>
    <g id="_005-tripod" data-name="005-tripod" transform="translate(-1000.174 2881.347)">
      <path id="XMLID_868_" d="M48.113,129.554a.771.771,0,0,0-.771.771v4.209a.771.771,0,0,0,1.543,0v-4.209A.771.771,0,0,0,48.113,129.554Z" transform="translate(-44.82 -116.231)" fill="#fff"/>
      <path id="XMLID_869_" d="M222.5,461.512a.771.771,0,0,0-.771.771v3.65a.771.771,0,0,0,1.543,0v-3.65A.771.771,0,0,0,222.5,461.512Z" transform="translate(-201.272 -414.051)" fill="#fff"/>
      <path id="XMLID_870_" d="M196.279,106.439a3.14,3.14,0,0,0-4.366-.071,3.139,3.139,0,0,0-4.367,4.511l3.821,3.821a.771.771,0,0,0,1.091,0l3.821-3.821A3.143,3.143,0,0,0,196.279,106.439Zm-1.091,3.349-3.276,3.276-3.276-3.276a1.6,1.6,0,1,1,2.258-2.258l.472.472a.771.771,0,0,0,1.091,0l.472-.472a1.6,1.6,0,0,1,2.258,2.258Z" transform="translate(-169.783 -94.669)" fill="#fff"/>
      <path id="XMLID_873_" d="M70.009,9.923a.771.771,0,0,0,.771-.771V6.8a3.85,3.85,0,0,0-3.846-3.846H58.407A2.555,2.555,0,0,0,55.882,0H37.91a2.555,2.555,0,0,0-2.524,2.955H33.877v-.67a1.8,1.8,0,0,0-1.8-1.8H29.055a1.8,1.8,0,0,0-1.8,1.8v.67h-.589A3.85,3.85,0,0,0,22.821,6.8v20.03a3.85,3.85,0,0,0,3.846,3.846h8.719a2.555,2.555,0,0,0,2.524,2.955h4.727V35.4a1.8,1.8,0,0,0,1.8,1.8H44.8v2.328a2.478,2.478,0,0,0-1.525,2.285v2.851a.771.771,0,1,0,1.543,0V41.814a.933.933,0,0,1,.932-.932h3.012a.933.933,0,0,1,.932.932V51.882a.771.771,0,1,0,1.543,0V49.969h1.294a1.8,1.8,0,0,0,1.8-1.8V43.341a1.8,1.8,0,0,0-1.8-1.8H51.223a2.481,2.481,0,0,0-1.616-2.054V37.2h.365a1.8,1.8,0,0,0,1.8-1.8V33.632h4.111a2.555,2.555,0,0,0,2.524-2.955h8.528a3.85,3.85,0,0,0,3.846-3.846V12.719a.771.771,0,1,0-1.543,0V26.831a2.306,2.306,0,0,1-2.3,2.3H61.888v-3.5s0-.005,0-.008,0-.005,0-.008V4.5h5.046a2.306,2.306,0,0,1,2.3,2.3v2.35A.771.771,0,0,0,70.009,9.923ZM52.789,43.341V48.17a.257.257,0,0,1-.257.257H51.238V43.084h1.294a.257.257,0,0,1,.257.257ZM37.91,1.543H55.882a1.013,1.013,0,1,1,0,2.026H37.91a1.013,1.013,0,1,1,0-2.026Zm-8.855.485h3.023a.257.257,0,0,1,.257.257v.67H28.8v-.67A.257.257,0,0,1,29.055,2.027Zm-4.692,24.8V6.8a2.306,2.306,0,0,1,2.3-2.3h1.347V29.135H26.667A2.306,2.306,0,0,1,24.364,26.831Zm23.7,12.508h-1.72V37.2h1.72ZM50.229,35.4a.257.257,0,0,1-.257.257H44.436a.257.257,0,0,1-.257-.257V33.632h6.05Zm7.312-6.266a2.544,2.544,0,0,0-1.658-.613H45.259a.771.771,0,1,0,0,1.543H55.882a1.013,1.013,0,1,1,0,2.026H37.91a1.013,1.013,0,1,1,0-2.026h3.782a.771.771,0,0,0,0-1.543H37.91a2.544,2.544,0,0,0-1.658.613H29.557v-2.74H60.345v2.74Zm2.8-4.283H29.557V4.5h6.695a2.544,2.544,0,0,0,1.658.613H55.882A2.544,2.544,0,0,0,57.541,4.5h2.8V24.852Z" transform="translate(-22.821 0)" fill="#fff"/>
      <path id="XMLID_883_" d="M411.212,122.505v3.967a2.49,2.49,0,0,0,4.98,0v-3.967a2.49,2.49,0,0,0-4.98,0Zm3.438,0v3.967a.948.948,0,0,1-1.9,0v-3.967a.948.948,0,0,1,1.9,0Z" transform="translate(-371.27 -107.673)" fill="#fff"/>
    </g>
  </g>
</svg>
