<svg xmlns="http://www.w3.org/2000/svg" width="65" height="65" viewBox="0 0 65 65">
  <g id="Grupo_1662" data-name="Grupo 1662" transform="translate(-244 -127)">
    <circle id="Elipse_162" data-name="Elipse 162" cx="32.5" cy="32.5" r="32.5" transform="translate(244 127)" fill="#2560d6"/>
    <path id="_001-dental-veneer" data-name="001-dental-veneer" d="M25.918,0C16.962,0,.023,1.263.023,6.042v6.905a1.72,1.72,0,0,0,.863,1.486v1.1a2.59,2.59,0,0,0,2.59,2.589H4.5a2.59,2.59,0,0,0,2.43,1.727h2.59a2.562,2.562,0,0,0,1.269-.345,2.585,2.585,0,0,0,2.183,1.208h3.453a2.559,2.559,0,0,0,1.27-.345,2.585,2.585,0,0,0,2.183,1.208h4.316a2.573,2.573,0,0,0,1.726-.673,2.574,2.574,0,0,0,.748.478c-5.655,2.2-12.612,6.875-17.138,10.453C3.675,36.449.332,41.205.11,45.238a.884.884,0,0,0-.009.108V45.4a6.56,6.56,0,0,0,1.131,4.073v.011a1.1,1.1,0,0,0,.132.166c.008.009.016.015.024.024l.02.019A6.649,6.649,0,0,0,5.06,51.672a8.657,8.657,0,0,0,1.715.163c3.766,0,8.532-2.148,13.65-6.188,5.906-4.657,12.644-11.286,15.42-16.3h.1a2.99,2.99,0,0,0,2.986-2.987V20.709a2.582,2.582,0,0,0,2.113-1.2,2.565,2.565,0,0,0,1.27.345h2.589a2.59,2.59,0,0,0,2.431-1.727h1.022a2.589,2.589,0,0,0,2.589-2.589v-1.1a1.721,1.721,0,0,0,.863-1.486V6.042C51.814,1.263,34.874,0,25.918,0Zm0,1.726c15.638,0,24.169,2.849,24.169,4.316v5.116a2.223,2.223,0,0,0-1.534-.577,2.567,2.567,0,0,0-1.539.518,3.367,3.367,0,0,0-3.065-1.7,4.2,4.2,0,0,0-3.094,1.372,3.694,3.694,0,0,0-3.335-1.756A4.725,4.725,0,0,0,34.2,10.393c-.086.086-.15.187-.228.28a4.057,4.057,0,0,0-3.733-2.041,5.183,5.183,0,0,0-3.669,1.517,5.28,5.28,0,0,0-.65.8A5.179,5.179,0,0,0,21.6,8.632a4.057,4.057,0,0,0-3.726,2.027,4.688,4.688,0,0,0-3.562-1.64,3.694,3.694,0,0,0-3.329,1.754A4.2,4.2,0,0,0,7.891,9.4a3.367,3.367,0,0,0-3.068,1.7,2.568,2.568,0,0,0-1.539-.518,2.224,2.224,0,0,0-1.534.573V6.042C1.75,4.575,10.28,1.726,25.918,1.726ZM32.824,13.9a6.134,6.134,0,0,0-5.173,5.956h-.006a.863.863,0,0,1-.863-.863V13.811a3.439,3.439,0,0,1,3.453-3.453,2.473,2.473,0,0,1,2.589,2.589ZM30.631,29.348h.245A122.518,122.518,0,0,1,18.8,39.93C13.935,43.771,9.477,45.8,6.11,45.745c.73-3.291,3.739-7.157,8.6-11a123.178,123.178,0,0,1,12.936-9.2v.817A2.99,2.99,0,0,0,30.631,29.348ZM2.613,15.537v-2.3c0-.154.032-.927.67-.927a1.265,1.265,0,0,1,1.056,1.375V16.4H3.476A.863.863,0,0,1,2.613,15.537Zm6.905,2.589H6.928a.863.863,0,0,1-.863-.863V12.948a1.714,1.714,0,0,1,1.822-1.822,2.5,2.5,0,0,1,2.493,2.494v3.644A.863.863,0,0,1,9.518,18.126Zm6.905.863H12.971a.863.863,0,0,1-.863-.863V12.948a2.106,2.106,0,0,1,2.206-2.206,2.976,2.976,0,0,1,2.973,2.973v4.412A.863.863,0,0,1,16.423,18.99Zm7.769.863H19.876a.863.863,0,0,1-.863-.863V12.948A2.473,2.473,0,0,1,21.6,10.358a3.453,3.453,0,0,1,3.453,3.453V18.99A.863.863,0,0,1,24.192,19.853ZM10.6,33.192c5.889-4.656,12.413-8.6,17.048-10.336v.7A115.911,115.911,0,0,0,13.635,33.4c-5.3,4.186-8.471,8.35-9.245,12.107A4.864,4.864,0,0,1,2.026,44.03C2.809,40.768,5.794,36.977,10.6,33.192Zm8.761,11.1C13.834,48.657,8.88,50.678,5.345,49.978a4.942,4.942,0,0,1-2.676-1.459,4.722,4.722,0,0,1-.821-2.331A6.988,6.988,0,0,0,4.984,47.4h.087c3.971.5,9.082-1.6,14.8-6.118C27.593,35.181,32.56,30.554,35,27.171,33.138,31.779,25.918,39.118,19.358,44.294ZM37.209,26.361a1.254,1.254,0,0,1-.432.944c.052-.15.116-.307.158-.452a1.614,1.614,0,0,0-2.906-1.31,20.858,20.858,0,0,1-1.584,2.078H30.632a1.262,1.262,0,0,1-1.261-1.26V19.982A4.429,4.429,0,0,1,33.7,15.545a.533.533,0,0,0,.113-.008,3.235,3.235,0,0,1,3.392,3.384Zm2.52-8.235a.857.857,0,0,1-.794.849v-.055a4.88,4.88,0,0,0-4.385-5.065v-.14a2.967,2.967,0,0,1,2.969-2.978,2.111,2.111,0,0,1,2.21,2.21Zm6.042-.863a.863.863,0,0,1-.863.863H42.319a.863.863,0,0,1-.863-.863V13.619a2.5,2.5,0,0,1,2.494-2.494,1.715,1.715,0,0,1,1.822,1.822Zm3.453-1.726a.863.863,0,0,1-.863.863H47.5V13.683a1.265,1.265,0,0,1,1.056-1.375c.639,0,.671.772.671.927Zm0,0" transform="translate(251.582 135.165)" fill="#fff"/>
  </g>
</svg>
