<svg xmlns="http://www.w3.org/2000/svg" width="65" height="65" viewBox="0 0 65 65">
  <g id="Grupo_1681" data-name="Grupo 1681" transform="translate(-56 -127)">
    <circle id="Elipse_163" data-name="Elipse 163" cx="32.5" cy="32.5" r="32.5" transform="translate(56 127)" fill="#2560d6"/>
    <g id="_002-idea" data-name="002-idea" transform="translate(61.742 134.347)">
      <g id="Grupo_1664" data-name="Grupo 1664" transform="translate(9.406 0)">
        <g id="Grupo_1663" data-name="Grupo 1663">
          <path id="Caminho_2903" data-name="Caminho 2903" d="M120.323,4.918A16.815,16.815,0,0,0,108.393,0h-.123A16.932,16.932,0,0,0,96.186,28.67a13.93,13.93,0,0,1,3.87,9.717v7.063a3.09,3.09,0,0,0,2.359,3v.942a3.269,3.269,0,0,0,3.265,3.265h5.4a3.269,3.269,0,0,0,3.265-3.265v-.936a3.09,3.09,0,0,0,2.383-3V38.387a14.3,14.3,0,0,1,3.976-9.829,16.932,16.932,0,0,0-.381-23.64Zm-8.034,44.471A1.21,1.21,0,0,1,111.08,50.6h-5.4a1.21,1.21,0,0,1-1.208-1.208v-.855h7.816Zm2.383-3.94a1.029,1.029,0,0,1-1.028,1.028h-10.5a1.029,1.029,0,0,1-1.028-1.028V39.6h12.558Zm-7.895-7.906V24.536h3.2V37.544h-3.2Zm12.432-10.4a16.384,16.384,0,0,0-4.515,10.4h-2.656V24.536h.924a2.985,2.985,0,0,0,2.981-2.981V21.4a2.981,2.981,0,1,0-5.962,0v1.084h-3.2V21.4a2.984,2.984,0,0,0-2.981-2.981h-.2a2.984,2.984,0,0,0-2.981,2.981v.159a2.985,2.985,0,0,0,2.981,2.981h1.127V37.544h-2.628a15.94,15.94,0,0,0-4.423-10.3,14.776,14.776,0,0,1-4.147-10.725,14.992,14.992,0,0,1,14.763-14.46,14.875,14.875,0,0,1,10.924,25.087Zm-7.172-4.666V21.4a.924.924,0,1,1,1.849,0v.159a.925.925,0,0,1-.924.924ZM104.72,21.4v1.084h-1.127a.925.925,0,0,1-.924-.924V21.4a.925.925,0,0,1,.924-.924h.2A.926.926,0,0,1,104.72,21.4Z" transform="translate(-91.459 -0.001)" fill="#fff"/>
        </g>
      </g>
      <g id="Grupo_1666" data-name="Grupo 1666" transform="translate(25.195 5.013)">
        <g id="Grupo_1665" data-name="Grupo 1665">
          <path id="Caminho_2904" data-name="Caminho 2904" d="M257.164,56.217a11.922,11.922,0,0,0-11.146-7.467,1.028,1.028,0,0,0,.007,2.057h.079a9.814,9.814,0,0,1,9.152,6.179,1.028,1.028,0,1,0,1.908-.769Z" transform="translate(-244.997 -48.749)" fill="#fff"/>
        </g>
      </g>
      <g id="Grupo_1668" data-name="Grupo 1668" transform="translate(36.165 15.904)">
        <g id="Grupo_1667" data-name="Grupo 1667">
          <path id="Caminho_2905" data-name="Caminho 2905" d="M353.425,154.952a1.028,1.028,0,1,0,.3.727A1.036,1.036,0,0,0,353.425,154.952Z" transform="translate(-351.67 -154.651)" fill="#fff"/>
        </g>
      </g>
      <g id="Grupo_1670" data-name="Grupo 1670" transform="translate(44.09 4.821)">
        <g id="Grupo_1669" data-name="Grupo 1669">
          <path id="Caminho_2906" data-name="Caminho 2906" d="M432.4,47.181a1.029,1.029,0,0,0-1.454,0L429.028,49.1a1.028,1.028,0,0,0,1.454,1.454l1.916-1.916A1.029,1.029,0,0,0,432.4,47.181Z" transform="translate(-428.727 -46.88)" fill="#fff"/>
        </g>
      </g>
      <g id="Grupo_1672" data-name="Grupo 1672" transform="translate(44.09 25.072)">
        <g id="Grupo_1671" data-name="Grupo 1671">
          <path id="Caminho_2907" data-name="Caminho 2907" d="M432.4,246.015l-1.916-1.916a1.028,1.028,0,1,0-1.454,1.454l1.916,1.916a1.028,1.028,0,0,0,1.454-1.454Z" transform="translate(-428.727 -243.798)" fill="#fff"/>
        </g>
      </g>
      <g id="Grupo_1674" data-name="Grupo 1674" transform="translate(47.887 15.904)">
        <g id="Grupo_1673" data-name="Grupo 1673">
          <path id="Caminho_2908" data-name="Caminho 2908" d="M469.389,154.655h-2.71a1.028,1.028,0,1,0,0,2.057h2.71a1.028,1.028,0,1,0,0-2.057Z" transform="translate(-465.651 -154.655)" fill="#fff"/>
        </g>
      </g>
      <g id="Grupo_1676" data-name="Grupo 1676" transform="translate(4.591 4.821)">
        <g id="Grupo_1675" data-name="Grupo 1675">
          <path id="Caminho_2909" data-name="Caminho 2909" d="M48.313,49.1,46.4,47.182a1.028,1.028,0,0,0-1.454,1.454l1.916,1.916A1.028,1.028,0,0,0,48.313,49.1Z" transform="translate(-44.641 -46.881)" fill="#fff"/>
        </g>
      </g>
      <g id="Grupo_1678" data-name="Grupo 1678" transform="translate(4.591 25.072)">
        <g id="Grupo_1677" data-name="Grupo 1677">
          <path id="Caminho_2910" data-name="Caminho 2910" d="M48.313,244.1a1.028,1.028,0,0,0-1.454,0l-1.916,1.916a1.028,1.028,0,1,0,1.454,1.454l1.916-1.916A1.029,1.029,0,0,0,48.313,244.1Z" transform="translate(-44.641 -243.796)" fill="#fff"/>
        </g>
      </g>
      <g id="Grupo_1680" data-name="Grupo 1680" transform="translate(0 15.904)">
        <g id="Grupo_1679" data-name="Grupo 1679">
          <path id="Caminho_2911" data-name="Caminho 2911" d="M3.738,154.655H1.028a1.028,1.028,0,1,0,0,2.057h2.71a1.028,1.028,0,1,0,0-2.057Z" transform="translate(0 -154.655)" fill="#fff"/>
        </g>
      </g>
    </g>
  </g>
</svg>
