<svg xmlns="http://www.w3.org/2000/svg" width="89.752" height="87.134" viewBox="0 0 89.752 87.134">
  <g id="Grupo_1657" data-name="Grupo 1657" transform="translate(-170 -67.866)">
    <g id="_2997997_search_seo_zoom_icon" data-name="2997997_search_seo_zoom_icon" transform="translate(161 57.866)">
      <g id="Grupo_1631" data-name="Grupo 1631" transform="translate(13.277 14.261)" opacity="0.3">
        <path id="Caminho_2845" data-name="Caminho 2845" d="M98.339,45.2a20.29,20.29,0,0,0-15.9-16.939,13.317,13.317,0,0,1-7.394-4.429,25.032,25.032,0,0,0-43.458,10.4,14.212,14.212,0,0,1-7.36,9.248c-9.579,4.977-14.378,17.9-5.647,30.018a11.229,11.229,0,0,0,4.3,3.32,13.918,13.918,0,0,1,6.777,7.356,19.267,19.267,0,0,0,28.828,8.547,13.566,13.566,0,0,1,11.243-1.99A19.614,19.614,0,0,0,94.1,67.876a13.581,13.581,0,0,1,1.7-9.558A20.177,20.177,0,0,0,98.339,45.2Z" transform="translate(-14 -14.981)" fill="#ededed"/>
      </g>
      <path id="Caminho_2846" data-name="Caminho 2846" d="M106.923,56.185a4.746,4.746,0,0,0,3.159,3.159q2.369.79,0,1.579a4.746,4.746,0,0,0-3.159,3.159q-.79,2.369-1.579,0a4.746,4.746,0,0,0-3.159-3.159q-2.369-.79,0-1.579a4.746,4.746,0,0,0,3.159-3.159Q106.133,53.815,106.923,56.185Z" transform="translate(-13.294 -6.503)" fill="#b9daff"/>
      <path id="Caminho_2847" data-name="Caminho 2847" d="M18.948,18.79A3.164,3.164,0,0,0,21.054,20.9q1.579.526,0,1.053a3.164,3.164,0,0,0-2.106,2.106q-.526,1.579-1.053,0a3.164,3.164,0,0,0-2.106-2.106q-1.579-.526,0-1.053A3.164,3.164,0,0,0,17.9,18.79Q18.422,17.21,18.948,18.79Z" transform="translate(-0.867 -1.156)" fill="#b9daff"/>
      <path id="Caminho_2848" data-name="Caminho 2848" d="M12.948,81.79A3.164,3.164,0,0,0,15.054,83.9q1.579.526,0,1.053a3.164,3.164,0,0,0-2.106,2.106q-.526,1.579-1.053,0A3.164,3.164,0,0,0,9.79,84.948q-1.579-.526,0-1.053A3.164,3.164,0,0,0,11.9,81.79Q12.422,80.21,12.948,81.79Z" transform="translate(0 -10.26)" fill="#b9daff"/>
      <path id="Caminho_2849" data-name="Caminho 2849" d="M82.948,10.79A3.164,3.164,0,0,0,85.054,12.9q1.579.526,0,1.053a3.164,3.164,0,0,0-2.106,2.106q-.526,1.579-1.053,0a3.164,3.164,0,0,0-2.106-2.106q-1.579-.526,0-1.053A3.164,3.164,0,0,0,81.9,10.79Q82.422,9.21,82.948,10.79Z" transform="translate(-10.115 0)" fill="#e6b7ff"/>
      <path id="Caminho_2850" data-name="Caminho 2850" d="M110.034,29.844a3.028,3.028,0,0,0,2.015,2.015q1.512.5,0,1.008a3.028,3.028,0,0,0-2.015,2.015q-.5,1.512-1.008,0a3.028,3.028,0,0,0-2.015-2.015q-1.512-.5,0-1.008a3.028,3.028,0,0,0,2.015-2.015Q109.53,28.333,110.034,29.844Z" transform="translate(-14.054 -2.758)" fill="#e6b7ff"/>
      <path id="Caminho_2851" data-name="Caminho 2851" d="M59.936,101.987a3.955,3.955,0,0,0,2.632,2.632q1.974.658,0,1.316a3.955,3.955,0,0,0-2.632,2.632q-.658,1.974-1.316,0a3.955,3.955,0,0,0-2.632-2.632q-1.974-.658,0-1.316a3.955,3.955,0,0,0,2.632-2.632Q59.277,100.013,59.936,101.987Z" transform="translate(-6.647 -13.15)" fill="#e6b7ff"/>
      <circle id="Elipse_156" data-name="Elipse 156" cx="24.861" cy="24.861" r="24.861" transform="translate(20.4 20.51)" fill="#d4edff"/>
      <path id="Caminho_2852" data-name="Caminho 2852" d="M47.186,25.726A24.857,24.857,0,0,1,71.98,48.863c.039-.566.066-1.138.066-1.717a24.861,24.861,0,1,0-49.721,0c0,.579.027,1.151.066,1.721a24.857,24.857,0,0,1,24.795-23.14Z" transform="translate(-1.925 -1.775)" fill="#2c4b75" opacity="0.2"/>
      <path id="Caminho_2853" data-name="Caminho 2853" d="M47.186,22.285A24.828,24.828,0,0,0,27.129,61.792l34.7-34.7A24.715,24.715,0,0,0,47.186,22.285Z" transform="translate(-1.925 -1.775)" fill="#fff" opacity="0.5"/>
      <path id="Caminho_2854" data-name="Caminho 2854" d="M35.278,69.5,69.535,35.239a24.925,24.925,0,0,0-2.873-3.719l-35.1,35.1A24.925,24.925,0,0,0,35.278,69.5Z" transform="translate(-3.26 -3.11)" fill="#fff" opacity="0.5"/>
      <path id="Caminho_2855" data-name="Caminho 2855" d="M81.2,77.068l-4.649-4.634a28.71,28.71,0,0,1-4.03,4.043l4.649,4.634Z" transform="translate(-9.179 -9.022)" fill="#eef6ff"/>
      <path id="Caminho_2856" data-name="Caminho 2856" d="M78.647,74.532l-2.1-2.1a28.709,28.709,0,0,1-4.03,4.043l2.1,2.094A28.7,28.7,0,0,0,78.647,74.532Z" transform="translate(-9.179 -9.022)" fill="#2c4b75" opacity="0.2"/>
      <path id="Caminho_2857" data-name="Caminho 2857" d="M46.5,18A28.544,28.544,0,1,0,75.088,46.5,28.544,28.544,0,0,0,46.5,18Zm.087,53.406A24.861,24.861,0,1,1,71.4,46.5,24.861,24.861,0,0,1,46.584,71.406Z" transform="translate(-1.301 -1.156)" fill="#eef6ff"/>
      <g id="Grupo_1632" data-name="Grupo 1632" transform="translate(16.7 43.54)" opacity="0.2">
        <path id="Caminho_2858" data-name="Caminho 2858" d="M46.591,75.916a28.541,28.541,0,0,1-28.525-26.7c-.039.622-.066,1.248-.065,1.88a28.544,28.544,0,0,0,57.088-.093c0-.606-.027-1.2-.065-1.8a28.541,28.541,0,0,1-28.432,26.71Z" transform="translate(-18 -49.206)" fill="#2c4b75"/>
      </g>
      <g id="Grupo_1633" data-name="Grupo 1633" transform="translate(16.699 16.844)" opacity="0.75">
        <path id="Caminho_2859" data-name="Caminho 2859" d="M40.191,22.506A24.958,24.958,0,0,1,52.866,22.5,28.549,28.549,0,0,1,75.018,48.432c.042-.64.07-1.284.069-1.935A28.544,28.544,0,1,0,18,46.591c0,.623.029,1.24.069,1.853A28.549,28.549,0,0,1,40.191,22.506Z" transform="translate(-18 -18)" fill="#fff"/>
      </g>
      <path id="Caminho_2860" data-name="Caminho 2860" d="M77.023,81.822a.853.853,0,0,1-.6-.249L71.77,76.939a.856.856,0,0,1,.061-1.267,27.853,27.853,0,0,0,3.91-3.923.855.855,0,0,1,.619-.314.835.835,0,0,1,.648.248l4.649,4.634a.856.856,0,0,1,0,1.21l-4.03,4.043a.852.852,0,0,1-.606.251Zm-3.387-5.439,3.385,3.374,2.822-2.831-3.384-3.374a29.562,29.562,0,0,1-2.823,2.832Z" transform="translate(-9.034 -8.877)" fill="#35456b"/>
      <path id="Caminho_2861" data-name="Caminho 2861" d="M46.393,75.8A29.4,29.4,0,1,1,46.347,17h.05a29.4,29.4,0,1,1,.047,58.8Zm0-57.088H46.35a27.688,27.688,0,0,0,.044,55.377h.046A27.688,27.688,0,0,0,46.4,18.711Zm0,53.406a25.716,25.716,0,1,1-.041-51.433H46.4a25.716,25.716,0,1,1,.042,51.433Zm0-49.722h-.039a24.005,24.005,0,1,0,.038,48.011h.04A24.005,24.005,0,1,0,46.4,22.4Z" transform="translate(-1.152 -1.012)" fill="#35456b"/>
      <rect id="Ret창ngulo_438" data-name="Ret창ngulo 438" width="11.121" height="32.838" rx="3" transform="translate(66.03 73.914) rotate(-45)" fill="#ced8ee"/>
      <path id="Caminho_2862" data-name="Caminho 2862" d="M99.667,104.394l-20.8-20.8a1.711,1.711,0,0,1,0-2.42l-1.21,1.21a2.566,2.566,0,0,0,0,3.63l19.59,19.59a2.566,2.566,0,0,0,3.63,0l1.21-1.21A1.711,1.711,0,0,1,99.667,104.394Z" transform="translate(-9.812 -10.285)" fill="#2c4b75" opacity="0.2"/>
      <rect id="Ret창ngulo_439" data-name="Ret창ngulo 439" width="3.422" height="32.838" rx="1.711" transform="translate(69.66 70.285) rotate(-45)" fill="#fff" opacity="0.5"/>
      <path id="Caminho_2863" data-name="Caminho 2863" d="M98.918,106.429a3.4,3.4,0,0,1-2.419-1l-19.59-19.59a3.421,3.421,0,0,1,0-4.839l4.234-4.234a3.426,3.426,0,0,1,4.84,0l19.59,19.59a3.421,3.421,0,0,1,0,4.839l-4.235,4.234A3.4,3.4,0,0,1,98.918,106.429ZM83.562,77.472a1.707,1.707,0,0,0-1.211.5l-4.234,4.234a1.711,1.711,0,0,0,0,2.42l19.59,19.59a1.751,1.751,0,0,0,2.419,0l4.235-4.234h0a1.711,1.711,0,0,0,0-2.42l-19.59-19.59A1.706,1.706,0,0,0,83.562,77.472Z" transform="translate(-9.668 -9.503)" fill="#35456b"/>
      <path id="Caminho_2864" data-name="Caminho 2864" d="M78.347,87.534a.856.856,0,0,1-.6-1.46l4.234-4.234a.855.855,0,0,1,1.21,1.21l-4.234,4.234A.853.853,0,0,1,78.347,87.534Z" transform="translate(-9.897 -10.345)" fill="#35456b"/>
      <path id="Caminho_2865" data-name="Caminho 2865" d="M86.125,80.267a.856.856,0,0,1-.6-1.46l1.21-1.21a.855.855,0,0,1,1.21,1.21l-1.21,1.21A.853.853,0,0,1,86.125,80.267Z" transform="translate(-11.021 -9.732)" fill="#35456b"/>
    </g>
  </g>
</svg>
