<svg xmlns="http://www.w3.org/2000/svg" width="86.111" height="104.994" viewBox="0 0 86.111 104.994">
  <g id="_5883819_astronomy_constellation_dipper_zodiac_icon" data-name="5883819_astronomy_constellation_dipper_zodiac_icon" transform="translate(86.111) rotate(90)">
    <g id="Colors" transform="translate(1.087 1.085)">
      <path id="Caminho_558" data-name="Caminho 558" d="M5.511,11.021a5.511,5.511,0,1,1,5.511-5.511,5.511,5.511,0,0,1-5.511,5.511Z" transform="translate(7.474 11.248)" fill="#f0f3f7"/>
      <g id="Grupo_153" data-name="Grupo 153" transform="translate(6.791 13.731)" opacity="0.7">
        <circle id="Elipse_29" data-name="Elipse 29" cx="3.26" cy="3.26" r="3.26" transform="translate(4.61 0) rotate(45)" fill="#fff"/>
      </g>
      <g id="Grupo_154" data-name="Grupo 154" transform="translate(8.092 11.219)" opacity="0.15">
        <path id="Caminho_559" data-name="Caminho 559" d="M0,2.641C1.807-.389,6.613-.8,8.766,1.351s2.392,6.959-.974,9.082c0,0,2.3-4.041-.535-6.876C4.306.605,0,2.641,0,2.641Z" fill="#3f456b"/>
      </g>
      <path id="Caminho_560" data-name="Caminho 560" d="M5.511,11.021a5.511,5.511,0,1,1,5.511-5.511A5.511,5.511,0,0,1,5.511,11.021Z" transform="translate(76.412 72.791)" fill="#f0f3f7"/>
      <g id="Grupo_155" data-name="Grupo 155" transform="translate(75.73 75.274)" opacity="0.7">
        <circle id="Elipse_30" data-name="Elipse 30" cx="3.26" cy="3.26" r="3.26" transform="translate(4.61 0) rotate(45)" fill="#fff"/>
      </g>
      <g id="Grupo_156" data-name="Grupo 156" transform="translate(77.03 72.762)" opacity="0.15">
        <path id="Caminho_561" data-name="Caminho 561" d="M0,2.641C1.807-.389,6.613-.8,8.766,1.351s2.392,6.959-.974,9.082c0,0,2.3-4.041-.535-6.876C4.306.605,0,2.641,0,2.641Z" fill="#3f456b"/>
      </g>
      <path id="Caminho_562" data-name="Caminho 562" d="M7.268,14.536a7.268,7.268,0,1,1,7.268-7.268A7.268,7.268,0,0,1,7.268,14.536Z" transform="translate(18.261 69.403)" fill="#7dd1d8"/>
      <g id="Grupo_157" data-name="Grupo 157" transform="translate(19.133 74.459)" opacity="0.3">
        <path id="Caminho_563" data-name="Caminho 563" d="M4.308,8.6A4.3,4.3,0,1,1,8.6,4.3,4.3,4.3,0,0,1,4.308,8.6Z" fill="#fff"/>
      </g>
      <g id="Grupo_158" data-name="Grupo 158" transform="translate(19.074 69.595)" opacity="0.2">
        <path id="Caminho_564" data-name="Caminho 564" d="M0,3.253C2.133-.7,8.657-.929,11.485,1.909a7.627,7.627,0,0,1-1.207,11.622S13.322,8.2,9.571,4.46C5.68.569,0,3.253,0,3.253Z" fill="#3f456b"/>
      </g>
      <path id="Caminho_565" data-name="Caminho 565" d="M7.268,14.536a7.268,7.268,0,1,1,7.268-7.268A7.268,7.268,0,0,1,7.268,14.536Z" transform="translate(53.708 23.517)" fill="#ffbc5a"/>
      <g id="Grupo_159" data-name="Grupo 159" transform="translate(54.58 28.573)" opacity="0.3">
        <path id="Caminho_566" data-name="Caminho 566" d="M4.308,8.6A4.3,4.3,0,1,1,8.6,4.3,4.3,4.3,0,0,1,4.308,8.6Z" fill="#fff"/>
      </g>
      <g id="Grupo_160" data-name="Grupo 160" transform="translate(54.522 24.397)" opacity="0.2">
        <path id="Caminho_567" data-name="Caminho 567" d="M0,2.565c2.838-2.84,8.227-3.627,11.065-.789S13.116,10,10.278,12.842c0,0,3.034-5.33-.707-9.071C5.68-.119,0,2.565,0,2.565Z" fill="#3f456b"/>
      </g>
      <path id="Caminho_568" data-name="Caminho 568" d="M5.2,10.4a5.2,5.2,0,1,1,5.2-5.2A5.2,5.2,0,0,1,5.2,10.4Z" transform="translate(0 55.672)" fill="#8cc0f4"/>
      <g id="Grupo_161" data-name="Grupo 161" transform="translate(0.631 59.289)" opacity="0.3">
        <path id="Caminho_569" data-name="Caminho 569" d="M3.075,6.15A3.075,3.075,0,1,1,6.15,3.082,3.075,3.075,0,0,1,3.075,6.15Z" fill="#fff"/>
      </g>
      <g id="Grupo_162" data-name="Grupo 162" transform="translate(0.583 55.758)" opacity="0.2">
        <path id="Caminho_570" data-name="Caminho 570" d="M0,2.378C1.487-.564,6.418-.636,8.447,1.393s2.175,6.524-1.087,8.336c0,0,2.175-3.812-.5-6.487C4.062.46,0,2.378,0,2.378Z" transform="translate(0 0)" fill="#3f456b"/>
      </g>
      <path id="Caminho_571" data-name="Caminho 571" d="M5.2,10.4a5.2,5.2,0,1,1,5.2-5.2A5.2,5.2,0,0,1,5.2,10.4Z" transform="translate(92.424 31.968)" fill="#8bd0f7"/>
      <g id="Grupo_163" data-name="Grupo 163" transform="translate(93.055 35.584)" opacity="0.3">
        <path id="Caminho_572" data-name="Caminho 572" d="M3.075,6.15A3.075,3.075,0,1,1,6.15,3.082,3.075,3.075,0,0,1,3.075,6.15Z" fill="#fff"/>
      </g>
      <g id="Grupo_164" data-name="Grupo 164" transform="translate(93.007 32.6)" opacity="0.2">
        <path id="Caminho_573" data-name="Caminho 573" d="M0,1.832C2.031-.2,5.885-.76,7.914,1.269s1.466,5.885-.555,7.914c0,0,2.175-3.812-.5-6.487C4.062-.086,0,1.832,0,1.832Z" fill="#3f456b"/>
      </g>
      <path id="Caminho_574" data-name="Caminho 574" d="M5.2,10.4a5.2,5.2,0,1,1,5.2-5.2A5.2,5.2,0,0,1,5.2,10.4Z" transform="translate(59.152 0)" fill="#b2c6ed"/>
      <g id="Grupo_165" data-name="Grupo 165" transform="translate(59.782 3.617)" opacity="0.3">
        <path id="Caminho_575" data-name="Caminho 575" d="M3.075,6.15A3.075,3.075,0,1,1,6.15,3.082,3.075,3.075,0,0,1,3.075,6.15Z" fill="#fff"/>
      </g>
      <g id="Grupo_166" data-name="Grupo 166" transform="translate(59.734 0.632)" opacity="0.2">
        <path id="Caminho_576" data-name="Caminho 576" d="M0,1.832C2.031-.2,5.885-.76,7.914,1.269s1.466,5.885-.555,7.914c0,0,2.175-3.812-.5-6.487C4.062-.086,0,1.832,0,1.832Z" fill="#3f456b"/>
      </g>
      <path id="Caminho_577" data-name="Caminho 577" d="M5.2,10.4a5.2,5.2,0,1,1,5.2-5.2A5.2,5.2,0,0,1,5.2,10.4Z" transform="translate(46.973 60.239)" fill="#f4b78e"/>
      <g id="Grupo_167" data-name="Grupo 167" transform="translate(47.604 63.855)" opacity="0.3">
        <path id="Caminho_578" data-name="Caminho 578" d="M3.075,6.15A3.075,3.075,0,1,1,6.15,3.082,3.075,3.075,0,0,1,3.075,6.15Z" transform="translate(0 0)" fill="#fff"/>
      </g>
      <g id="Grupo_168" data-name="Grupo 168" transform="translate(47.556 60.871)" opacity="0.2">
        <path id="Caminho_579" data-name="Caminho 579" d="M0,1.832C2.031-.2,5.885-.76,7.914,1.269s1.466,5.885-.555,7.914c0,0,2.175-3.812-.5-6.487C4.062-.086,0,1.832,0,1.832Z" transform="translate(0 0)" fill="#3f456b"/>
      </g>
      <path id="Caminho_580" data-name="Caminho 580" d="M6.23,12.461a6.23,6.23,0,1,1,6.231-6.23A6.23,6.23,0,0,1,6.23,12.461Z" transform="translate(89.549 2.673)" fill="#ff9499"/>
      <g id="Grupo_169" data-name="Grupo 169" transform="translate(89.765 6.47)" opacity="0.3">
        <ellipse id="Elipse_31" data-name="Elipse 31" cx="3.686" cy="3.686" rx="3.686" ry="3.686" transform="matrix(0.987, 0.16, -0.16, 0.987, 1.181, 0)" fill="#fff"/>
      </g>
      <g id="Grupo_170" data-name="Grupo 170" transform="translate(90.248 3.429)" opacity="0.2">
        <path id="Caminho_581" data-name="Caminho 581" d="M0,2.2C2.433-.236,7.053-.91,9.486,1.521s1.757,7.055-.676,9.486c0,0,2.61-4.567-.6-7.775C4.869-.1,0,2.2,0,2.2Z" fill="#3f456b"/>
      </g>
      <g id="Grupo_171" data-name="Grupo 171" transform="translate(19.25 35.621)" opacity="0.5">
        <path id="Caminho_582" data-name="Caminho 582" d="M3.48,0H1.087a1.087,1.087,0,0,0,0,2.175H3.48A1.087,1.087,0,0,0,3.48,0Z" transform="translate(0 5.872)" fill="#3f456b"/>
        <path id="Caminho_583" data-name="Caminho 583" d="M3.7,0H1.087a1.087,1.087,0,0,0,0,2.175H3.7A1.087,1.087,0,0,0,3.7,0Z" transform="translate(8.916 5.872)" fill="#3f456b"/>
        <path id="Caminho_584" data-name="Caminho 584" d="M1.087,0A1.087,1.087,0,0,0,0,1.087V3.7a1.087,1.087,0,0,0,2.175,0V1.087A1.087,1.087,0,0,0,1.087,0Z" transform="translate(5.654 0)" fill="#3f456b"/>
        <path id="Caminho_585" data-name="Caminho 585" d="M1.087,0A1.087,1.087,0,0,0,0,1.087V3.7a1.087,1.087,0,1,0,2.175,0V1.087A1.087,1.087,0,0,0,1.087,0Z" transform="translate(5.654 8.916)" fill="#3f456b"/>
        <path id="Caminho_586" data-name="Caminho 586" d="M4.132,0A4.132,4.132,0,1,0,8.264,4.132,4.132,4.132,0,0,0,4.132,0Zm0,6.089a.811.811,0,1,1,0,.009Z" transform="translate(2.657 2.69)" fill="#3f456b"/>
      </g>
      <g id="Grupo_172" data-name="Grupo 172" transform="translate(10.09 5.239)" opacity="0.5">
        <path id="Caminho_587" data-name="Caminho 587" d="M1.087,0A1.087,1.087,0,0,0,.435,1.957l.52.394A1.087,1.087,0,0,0,2.26.611L1.74.217A1.087,1.087,0,0,0,1.087,0ZM5.076,3.018a1.087,1.087,0,0,0-.652,1.957l.522.394a1.087,1.087,0,1,0,1.3-1.74l-.52-.394A1.087,1.087,0,0,0,5.076,3.018ZM9.066,6.037a1.087,1.087,0,0,0-.652,1.957l.522.394a1.087,1.087,0,0,0,1.3-1.74l-.52-.394A1.087,1.087,0,0,0,9.066,6.037Z" transform="translate(0 59.245)" fill="#3f456b"/>
        <path id="Caminho_588" data-name="Caminho 588" d="M15.593,0a1.087,1.087,0,0,0-.409.08l-.6.246A1.087,1.087,0,1,0,15.4,2.34l.6-.246A1.087,1.087,0,0,0,15.593,0ZM10.958,1.883a1.087,1.087,0,0,0-.409.08l-.6.246a1.089,1.089,0,1,0,.829,2.014l.6-.246a1.087,1.087,0,0,0-.411-2.094ZM6.326,3.767a1.087,1.087,0,0,0-.409.08l-.6.246A1.088,1.088,0,1,0,6.13,6.109l.6-.246a1.087,1.087,0,0,0-.409-2.1ZM1.692,5.65a1.087,1.087,0,0,0-.409.08l-.6.246A1.088,1.088,0,1,0,1.5,7.992l.6-.246a1.087,1.087,0,0,0-.409-2.1Z" transform="translate(21.656 61.52)" fill="#3f456b"/>
        <path id="Caminho_589" data-name="Caminho 589" d="M4.811,0A1.087,1.087,0,0,0,3.743.893l-.117.642a1.088,1.088,0,1,0,2.14.391l.117-.652A1.087,1.087,0,0,0,5.013.008,1.215,1.215,0,0,0,4.811,0Zm-.9,4.919a1.087,1.087,0,0,0-1.07.892l-.117.642a1.088,1.088,0,0,0,2.14.394L4.981,6.2a1.087,1.087,0,0,0-.87-1.264,1,1,0,0,0-.2-.011Zm-.9,4.921a1.087,1.087,0,0,0-1.068.889l-.117.642a1.087,1.087,0,0,0,2.138.394l.117-.642a1.087,1.087,0,0,0-.87-1.266,1.029,1.029,0,0,0-.2-.017Zm-.9,4.919a1.087,1.087,0,0,0-1.068.892l-.117.642a1.087,1.087,0,1,0,2.138.391l.12-.642a1.087,1.087,0,0,0-.87-1.266,1.027,1.027,0,0,0-.2-.017ZM1.2,19.68a1.087,1.087,0,0,0-1.068.892l-.117.642a1.088,1.088,0,0,0,2.14.391l.117-.652a1.087,1.087,0,0,0-.87-1.266,1.217,1.217,0,0,0-.2-.007Z" transform="translate(43.711 31.903)" fill="#3f456b"/>
        <path id="Caminho_590" data-name="Caminho 590" d="M1.151,0a1.089,1.089,0,1,0-.124,2.175l.652.074A1.087,1.087,0,1,0,1.93.091L1.277.015A1.23,1.23,0,0,0,1.151,0ZM6.118.589a1.089,1.089,0,1,0-.124,2.175l.652.074A1.087,1.087,0,1,0,6.9.678L6.246.6A.855.855,0,0,0,6.118.589Zm4.969.578a1.089,1.089,0,1,0-.124,2.175l.652.076a1.1,1.1,0,1,0,.248-2.177l-.652-.074a.818.818,0,0,0-.124-.009Zm4.969.578a1.089,1.089,0,0,0-.126,2.175L16.583,4a1.087,1.087,0,1,0,.252-2.159l-.652-.076a.845.845,0,0,0-.126-.024Z" transform="translate(62.754 0)" fill="#3f456b"/>
        <path id="Caminho_591" data-name="Caminho 591" d="M1.087,0H1.016A1.087,1.087,0,0,0,0,1.155l.041.652a1.09,1.09,0,1,0,2.175-.141l-.041-.652A1.087,1.087,0,0,0,1.087,0Zm.324,5H1.34A1.087,1.087,0,0,0,.324,6.157l.043.652a1.09,1.09,0,0,0,2.175-.141L2.5,6.015A1.087,1.087,0,0,0,1.411,4.991Zm.322,4.969h-.07A1.087,1.087,0,0,0,.648,11.128l.041.652a1.09,1.09,0,0,0,2.175-.139l-.041-.652A1.087,1.087,0,0,0,1.733,9.971Zm.324,5H1.986A1.087,1.087,0,0,0,.972,16.128l.041.652a1.09,1.09,0,1,0,2.175-.139l-.041-.652a1.087,1.087,0,0,0-1.089-1.016Z" transform="translate(85.757 9.755)" fill="#3f456b"/>
        <path id="Caminho_592" data-name="Caminho 592" d="M1.169,0a1.09,1.09,0,0,0-.157,2.175l.652.1A1.087,1.087,0,1,0,1.982.122l-.652-.1A.985.985,0,0,0,1.169,0ZM6.109.734A1.087,1.087,0,0,0,5.953,2.9l.652.094A1.087,1.087,0,0,0,6.923.84L6.27.744A1.339,1.339,0,0,0,6.109.734Zm4.95.729A1.087,1.087,0,0,0,10.9,3.626l.652.1a1.088,1.088,0,0,0,.318-2.153l-.652-.094a.978.978,0,0,0-.152-.013Zm4.947.731a1.087,1.087,0,0,0-.157,2.162l.652.1A1.087,1.087,0,0,0,16.82,2.3l-.652-.1a1.021,1.021,0,0,0-.154-.011Zm4.95.729A1.087,1.087,0,0,0,20.8,5.085l.652.1a1.088,1.088,0,0,0,.318-2.153l-.652-.1a1.323,1.323,0,0,0-.152-.011Z" transform="translate(56.983 26.213)" fill="#3f456b"/>
        <path id="Caminho_593" data-name="Caminho 593" d="M2.564,0A1.087,1.087,0,0,0,1.49.939L1.4,1.592a1.087,1.087,0,1,0,2.153.3l.089-.652A1.087,1.087,0,0,0,2.716.011,1.227,1.227,0,0,0,2.564,0ZM1.879,4.956A1.087,1.087,0,0,0,.8,5.893l-.089.652a1.087,1.087,0,1,0,2.153.3l.089-.652a1.087,1.087,0,0,0-.926-1.227A1.18,1.18,0,0,0,1.879,4.956ZM1.192,9.9A1.087,1.087,0,0,0,.1,10.841l-.089.652a1.087,1.087,0,1,0,2.153.3l.089-.652a1.087,1.087,0,0,0-.926-1.227A.89.89,0,0,0,1.192,9.9Z" transform="translate(50.246 6.126)" fill="#3f456b"/>
      </g>
    </g>
    <g id="Lines" transform="translate(0 0)">
      <path id="Caminho_594" data-name="Caminho 594" d="M6.6,0a6.6,6.6,0,1,0,6.6,6.6A6.6,6.6,0,0,0,6.6,0Zm0,11.021A4.423,4.423,0,1,1,11.021,6.6,4.423,4.423,0,0,1,6.6,11.021Z" transform="translate(7.474 11.245)" fill="#3f456b"/>
      <path id="Caminho_595" data-name="Caminho 595" d="M6.6,0a6.6,6.6,0,1,0,6.6,6.6A6.6,6.6,0,0,0,6.6,0Zm0,11.021A4.423,4.423,0,1,1,11.021,6.6,4.423,4.423,0,0,1,6.6,11.021Z" transform="translate(76.412 72.789)" fill="#3f456b"/>
      <path id="Caminho_596" data-name="Caminho 596" d="M8.355,0A8.355,8.355,0,1,0,16.71,8.355,8.355,8.355,0,0,0,8.355,0Zm0,14.536a6.18,6.18,0,1,1,6.18-6.18A6.18,6.18,0,0,1,8.355,14.536Z" transform="translate(18.261 69.401)" fill="#3f456b"/>
      <path id="Caminho_597" data-name="Caminho 597" d="M8.355,0A8.355,8.355,0,1,0,16.71,8.355,8.355,8.355,0,0,0,8.355,0Zm0,14.536a6.18,6.18,0,1,1,6.18-6.181A6.181,6.181,0,0,1,8.355,14.536Z" transform="translate(53.708 23.515)" fill="#3f456b"/>
      <path id="Caminho_598" data-name="Caminho 598" d="M6.287,0A6.285,6.285,0,1,0,12.57,6.284,6.285,6.285,0,0,0,6.287,0Zm0,10.393A4.11,4.11,0,1,1,10.4,6.284a4.11,4.11,0,0,1-4.108,4.109Z" transform="translate(0 55.672)" fill="#3f456b"/>
      <path id="Caminho_599" data-name="Caminho 599" d="M6.287,0A6.285,6.285,0,1,0,12.57,6.284,6.285,6.285,0,0,0,6.287,0Zm0,10.393A4.11,4.11,0,1,1,10.4,6.284,4.11,4.11,0,0,1,6.287,10.393Z" transform="translate(92.424 31.968)" fill="#3f456b"/>
      <path id="Caminho_600" data-name="Caminho 600" d="M6.287,0A6.285,6.285,0,1,0,12.57,6.284,6.285,6.285,0,0,0,6.287,0Zm0,10.393A4.11,4.11,0,1,1,10.4,6.284,4.11,4.11,0,0,1,6.287,10.393Z" transform="translate(59.152 0)" fill="#3f456b"/>
      <path id="Caminho_601" data-name="Caminho 601" d="M6.287,0A6.285,6.285,0,1,0,12.57,6.284,6.285,6.285,0,0,0,6.287,0Zm0,10.393A4.11,4.11,0,1,1,10.4,6.284,4.11,4.11,0,0,1,6.287,10.393Z" transform="translate(46.973 60.239)" fill="#3f456b"/>
      <path id="Caminho_602" data-name="Caminho 602" d="M7.318,0a7.318,7.318,0,1,0,7.318,7.317A7.318,7.318,0,0,0,7.318,0Zm0,12.459a5.143,5.143,0,1,1,5.143-5.143A5.143,5.143,0,0,1,7.318,12.459Z" transform="translate(89.549 2.673)" fill="#3f456b"/>
    </g>
  </g>
</svg>
