<svg xmlns="http://www.w3.org/2000/svg" width="88.95" height="89.063" viewBox="0 0 88.95 89.063">
  <g id="_5883806_astronaut_orbit_rocket_space_icon" data-name="5883806_astronaut_orbit_rocket_space_icon" transform="translate(-12.5 -10.628)">
    <g id="Colors" transform="translate(12.5 10.628)">
      <path id="Caminho_2303" data-name="Caminho 2303" d="M262.711,209.16a51.989,51.989,0,0,0-52.051,52.1h52.006Z" transform="translate(-174.669 -173.102)" fill="#f0f3f7"/>
      <g id="Grupo_1130" data-name="Grupo 1130" transform="translate(55.822 0)" opacity="0.5">
        <path id="Caminho_2304" data-name="Caminho 2304" d="M320.758,18.231a.908.908,0,0,1-.327-1.754c.171-.067.341-.133.514-.2a.908.908,0,1,1,.641,1.7l-.5.193A.908.908,0,0,1,320.758,18.231Zm3.93-1.408a.908.908,0,0,1-.285-1.769l.523-.171a.908.908,0,1,1,.559,1.727c-.171.056-.341.111-.51.169a.937.937,0,0,1-.287.044Zm4-1.217a.908.908,0,0,1-.242-1.784l.529-.145a.908.908,0,1,1,.478,1.753l-.519.143a.948.948,0,0,1-.247.025Zm4.048-1.023a.908.908,0,0,1-.2-1.794l.536-.12a.909.909,0,0,1,.392,1.774l-.527.118a.951.951,0,0,1-.2.022Zm4.094-.826a.908.908,0,0,1-.156-1.8l.545-.094a.908.908,0,1,1,.305,1.791l-.53.091a.968.968,0,0,1-.165.015Zm4.121-.628a.91.91,0,0,1-.114-1.816l.545-.067a.912.912,0,1,1,.225,1.811l-.534.067A.85.85,0,0,1,340.947,13.13Zm4.157-.436a.909.909,0,1,1-.071-1.816l.545-.042a.911.911,0,1,1,.133,1.816l-.545.04A.474.474,0,0,1,345.1,12.694Zm4.177-.232a.908.908,0,1,1-.029-1.816l.545-.016a.908.908,0,0,1,.045,1.816l-.545.016Z" transform="translate(-319.852 -10.628)" fill="#3f456b"/>
      </g>
      <g id="Grupo_1131" data-name="Grupo 1131" transform="translate(0 54.379)" opacity="0.5">
        <path id="Caminho_2305" data-name="Caminho 2305" d="M13.408,344.629a.908.908,0,0,1-.908-.908v-.545a.908.908,0,0,1,.908-.908h0a.908.908,0,0,1,.908.908v.545A.908.908,0,0,1,13.408,344.629Zm.1-4.177h-.044a.908.908,0,0,1-.865-.95c0-.182.018-.363.027-.545a.909.909,0,0,1,1.816.1q-.016.271-.027.545A.908.908,0,0,1,13.508,340.451Zm.3-4.177a.7.7,0,0,1-.087,0,.908.908,0,0,1-.819-.99l.054-.545a.913.913,0,0,1,1.816.182c-.018.182-.036.363-.053.545a.908.908,0,0,1-.912.815Zm.494-4.141a1.047,1.047,0,0,1-.131-.009.908.908,0,0,1-.77-1.026l.082-.545a.908.908,0,1,1,1.794.271c-.025.182-.053.363-.078.534A.908.908,0,0,1,14.3,332.133Zm.692-4.123a.941.941,0,0,1-.173-.016.908.908,0,0,1-.726-1.064c.035-.182.071-.363.105-.545a.909.909,0,1,1,1.782.363l-.1.536A.908.908,0,0,1,14.99,328.01Zm.89-4.081a.875.875,0,0,1-.214-.027.908.908,0,0,1-.668-1.09c.044-.182.087-.363.133-.534a.908.908,0,1,1,1.762.44c-.044.182-.087.351-.129.525a.908.908,0,0,1-.883.688Zm1.09-4.036a.908.908,0,0,1-.87-1.164q.076-.265.158-.529a.908.908,0,1,1,1.738.525c-.053.173-.1.345-.154.518a.908.908,0,0,1-.875.652Zm1.271-3.976a.908.908,0,0,1-.857-1.208c.06-.182.122-.347.182-.519a.909.909,0,0,1,1.713.608c-.062.169-.122.34-.182.509a.908.908,0,0,1-.85.612Zm1.469-3.91a.908.908,0,0,1-.835-1.251l.06-.151a.909.909,0,1,1,1.685.679l-.062.153a.908.908,0,0,1-.843.572Z" transform="translate(-12.5 -310.036)" fill="#3f456b"/>
      </g>
      <g id="Grupo_1132" data-name="Grupo 1132" transform="translate(42.325 45.866)" opacity="0.5">
        <circle id="Elipse_101" data-name="Elipse 101" cx="16.192" cy="16.192" r="16.192" transform="matrix(0.987, -0.159, 0.159, 0.987, 0, 5.155)" fill="#fff"/>
      </g>
      <g id="Grupo_1133" data-name="Grupo 1133" transform="translate(64.199 50.559)" opacity="0.15">
        <path id="Caminho_2306" data-name="Caminho 2306" d="M372.6,309.554c-3.4-1.976-6.442-4.39-6.624-9.839-.182-5.494,5.2-10.716,10.7-10.716a11.417,11.417,0,0,1,9.871,6.607A10.658,10.658,0,0,1,372.6,309.551Z" transform="translate(-365.975 -289)" fill="#3f456b"/>
      </g>
      <g id="Grupo_1134" data-name="Grupo 1134" transform="translate(64.302 50.642)" opacity="0.15">
        <path id="Caminho_2307" data-name="Caminho 2307" d="M373.928,309.337c-3.834-1.611-7.388-4.809-7.388-9.228a10.649,10.649,0,0,1,10.649-10.649c4.419,0,8.812,2.637,9.263,7.555a8.053,8.053,0,0,0-7.6-4.421c-5.5,0-9.886,3.874-9.388,9.19A10.626,10.626,0,0,0,373.928,309.337Z" transform="translate(-366.54 -289.46)" fill="#3f456b"/>
      </g>
      <path id="Caminho_2308" data-name="Caminho 2308" d="M96.126,358.64a9.136,9.136,0,1,0,9.136,9.135,9.136,9.136,0,0,0-9.136-9.135Z" transform="translate(-73.461 -295.433)" fill="#b2c6ed"/>
      <g id="Grupo_1135" data-name="Grupo 1135" transform="translate(14.637 64.313)" opacity="0.3">
        <path id="Caminho_2309" data-name="Caminho 2309" d="M98.5,364.73a5.405,5.405,0,1,0,5.405,5.405A5.405,5.405,0,0,0,98.5,364.73Z" transform="translate(-93.09 -364.73)" fill="#fff"/>
      </g>
      <g id="Grupo_1136" data-name="Grupo 1136" transform="translate(15.216 64.885)" opacity="0.2">
        <path id="Caminho_2310" data-name="Caminho 2310" d="M96.28,380.8c3.567,3.569,10.34,4.559,13.909.99s2.575-10.34-.992-13.907c0,0,3.814,6.7-.888,11.4C103.418,384.177,96.28,380.8,96.28,380.8Z" transform="translate(-96.28 -367.88)" fill="#3f456b"/>
      </g>
      <path id="Caminho_2311" data-name="Caminho 2311" d="M111.2,41.086c2.12,1.177,3.469,3.849,1.489,6.19-1.413,1.665-4.68,2.076-6.344.639-1.635-1.411-1.586-4.348-.352-5.915A3.944,3.944,0,0,1,111.2,41.086Z" transform="translate(-88.275 -35.071)" fill="#f2f2f2"/>
      <g id="Grupo_1137" data-name="Grupo 1137" transform="translate(17.127 6.697)" opacity="0.15">
        <path id="Caminho_2312" data-name="Caminho 2312" d="M107.584,47.5s-1.086,4.813,3.184,4.087,2.786-4.087,2.786-4.087,4.034,5.676-1.865,6.675-5.307-4.677-4.1-6.675" transform="translate(-106.797 -47.5)" fill="#3f456b"/>
      </g>
      <path id="Caminho_2313" data-name="Caminho 2313" d="M434.185,130.086c2.12,1.177,3.469,3.849,1.489,6.19-1.413,1.669-4.68,2.076-6.348.639-1.635-1.411-1.586-4.348-.352-5.915A3.949,3.949,0,0,1,434.185,130.086Z" transform="translate(-352.595 -107.906)" fill="#8bd0f7"/>
      <g id="Grupo_1138" data-name="Grupo 1138" transform="translate(75.791 22.861)" opacity="0.15">
        <path id="Caminho_2314" data-name="Caminho 2314" d="M430.584,136.5s-1.09,4.809,3.184,4.087,2.786-4.087,2.786-4.087,4.034,5.676-1.865,6.675-5.307-4.677-4.1-6.675" transform="translate(-429.798 -136.5)" fill="#3f456b"/>
      </g>
      <path id="Caminho_2315" data-name="Caminho 2315" d="M125.231,54.991c-8.418-2.474-17.3,2.608-23.591,8.825A101.711,101.711,0,0,0,87.92,80.127l8.988,9.833a101.338,101.338,0,0,0,17.474-12.2c6.756-5.708,12.586-14.076,10.877-22.683" transform="translate(-74.222 -46.41)" fill="#f5f6f7"/>
      <g id="Grupo_1139" data-name="Grupo 1139" transform="translate(33.118 16.889)" opacity="0.15">
        <path id="Caminho_2316" data-name="Caminho 2316" d="M204.148,113.273a5.554,5.554,0,1,1,.352-7.846A5.554,5.554,0,0,1,204.148,113.273Z" transform="translate(-194.847 -103.62)" fill="#3f456b"/>
      </g>
      <path id="Caminho_2317" data-name="Caminho 2317" d="M153.664,191.08s-6.1,5.812-4.275,12.258c0,0,.714,1.96-.394,2.973L146.38,208.7a1.852,1.852,0,0,1-2.746-.067l-6.193-6.773" transform="translate(-114.748 -158.306)" fill="#f5f6f7"/>
      <path id="Caminho_2318" data-name="Caminho 2318" d="M70.162,113.45s-6.322,5.594-12.577,3.2c0,0-1.874-.845-2.982.167-.908.839-2.615,2.392-2.615,2.392a1.646,1.646,0,0,0-.24,2.575l6.3,6.9" transform="translate(-44.179 -94.775)" fill="#f5f6f7"/>
      <path id="Caminho_2319" data-name="Caminho 2319" d="M75.9,166.874,53.52,142.388l1.487-2.948,23.605,25.821Z" transform="translate(-46.07 -116.045)" fill="#b2c6ed"/>
      <path id="Caminho_2320" data-name="Caminho 2320" d="M86.454,207.8l-1.725,1.573c-.834.761-1.745,1.171-2.149.726l-6.62-7.245c-.4-.44-.06-1.469.774-2.232l1.722-1.573" transform="translate(-64.296 -164.828)" fill="#636984"/>
      <g id="Grupo_1140" data-name="Grupo 1140" transform="translate(14.966 8.734)" opacity="0.7">
        <path id="Caminho_2321" data-name="Caminho 2321" d="M96.213,86.493C117.448,59.517,131,58.874,131,58.874s-15.042-3.845-36.1,26.281" transform="translate(-94.9 -58.715)" fill="#f7f7f7"/>
      </g>
      <path id="Caminho_2322" data-name="Caminho 2322" d="M205.554,97.7a5.554,5.554,0,1,1,.352-7.844,5.554,5.554,0,0,1-.352,7.844Z" transform="translate(-162.878 -73.984)" fill="#83c5ea"/>
      <g id="Grupo_1141" data-name="Grupo 1141" transform="translate(33.39 15.747)" opacity="0.15">
        <path id="Caminho_2323" data-name="Caminho 2323" d="M197.788,97.33c-3.244,4.555-.6,9.021,3.761,9.748,3,.5,6.9-3.451,5.761-7.04a4.6,4.6,0,0,1-1.326,3.138,4.984,4.984,0,0,1-4.339,1.555,5.47,5.47,0,0,1-4.5-4.192A4.706,4.706,0,0,1,197.788,97.33Z" transform="translate(-196.345 -97.33)" fill="#3f456b"/>
      </g>
      <g id="Grupo_1142" data-name="Grupo 1142" transform="translate(35.351 14.08)" opacity="0.3">
        <path id="Caminho_2324" data-name="Caminho 2324" d="M212.887,94.116a3.433,3.433,0,1,1,.218-4.849A3.433,3.433,0,0,1,212.887,94.116Z" transform="translate(-207.138 -88.15)" fill="#fff"/>
      </g>
      <g id="Grupo_1143" data-name="Grupo 1143" transform="translate(46.023 72.274)" opacity="0.15">
        <path id="Caminho_2325" data-name="Caminho 2325" d="M277.724,415.378a5.935,5.935,0,1,1-5.118-6.767A6.006,6.006,0,0,1,277.724,415.378Z" transform="translate(-265.901 -408.565)" fill="#3f456b"/>
      </g>
      <g id="Grupo_1144" data-name="Grupo 1144" transform="translate(46.265 72.535)" opacity="0.15">
        <path id="Caminho_2326" data-name="Caminho 2326" d="M271.547,421.608c-2.241-.943-4.319-2.81-4.317-5.392A6.222,6.222,0,0,1,273.451,410c2.583,0,5.149,1.542,5.411,4.415a4.7,4.7,0,0,0-4.441-2.584c-3.211,0-5.777,2.265-5.487,5.371A6.227,6.227,0,0,0,271.547,421.608Z" transform="translate(-267.23 -410)" fill="#3f456b"/>
      </g>
      <g id="Grupo_1145" data-name="Grupo 1145" transform="translate(65.801 77.919)" opacity="0.15">
        <path id="Caminho_2327" data-name="Caminho 2327" d="M381.975,443.791a3.609,3.609,0,1,1-3.111-4.114,3.649,3.649,0,0,1,3.111,4.114Z" transform="translate(-374.797 -439.647)" fill="#3f456b"/>
      </g>
      <g id="Grupo_1146" data-name="Grupo 1146" transform="translate(54.214 20.591)" opacity="0.5">
        <path id="Caminho_2328" data-name="Caminho 2328" d="M313.906,151.816h-2a.908.908,0,1,1,0-1.816h2a.908.908,0,1,1,0,1.816Z" transform="translate(-311 -145.278)" fill="#3f456b"/>
        <path id="Caminho_2329" data-name="Caminho 2329" d="M355.088,151.816h-2.18a.908.908,0,1,1,0-1.816h2.18a.908.908,0,0,1,0,1.816Z" transform="translate(-344.553 -145.278)" fill="#3f456b"/>
        <path id="Caminho_2330" data-name="Caminho 2330" d="M337.908,169a.908.908,0,0,1-.908-.908v-2.179a.908.908,0,0,1,1.816,0v2.179A.908.908,0,0,1,337.908,169Z" transform="translate(-332.278 -157.553)" fill="#3f456b"/>
        <path id="Caminho_2331" data-name="Caminho 2331" d="M337.908,128a.908.908,0,0,1-.908-.908v-2.179a.908.908,0,0,1,1.816,0v2.179A.908.908,0,0,1,337.908,128Z" transform="translate(-332.278 -124)" fill="#3f456b"/>
        <path id="Caminho_2332" data-name="Caminho 2332" d="M326.671,143.532a3.451,3.451,0,1,1,3.451-3.451A3.451,3.451,0,0,1,326.671,143.532Zm0-5.085a.678.678,0,1,0,0-.007Z" transform="translate(-321.001 -134.336)" fill="#3f456b"/>
      </g>
      <path id="Caminho_2333" data-name="Caminho 2333" d="M58,232.342s.5,6.437-10.314,5.492a.064.064,0,0,1-.067-.071c-.114-10.857,6.242-9.869,6.242-9.869" transform="translate(-41.243 -188.415)" fill="#ff7866"/>
      <g id="Grupo_1147" data-name="Grupo 1147" transform="translate(9.283 40.775)" opacity="0.7">
        <path id="Caminho_2334" data-name="Caminho 2334" d="M69.855,236.963s-.908,4.421-6.219,4.094c0,0-.027.011-.027-.029-.031-5.418,4.541-5.9,4.541-5.9" transform="translate(-63.609 -235.13)" fill="#ffbc5a"/>
      </g>
      <g id="Grupo_1148" data-name="Grupo 1148" transform="translate(79.709 74.249)" opacity="0.15">
        <path id="Caminho_2335" data-name="Caminho 2335" d="M455.083,421.582a1.865,1.865,0,1,1-1.6-2.127A1.885,1.885,0,0,1,455.083,421.582Z" transform="translate(-451.373 -419.439)" fill="#3f456b"/>
      </g>
      <g id="Grupo_1149" data-name="Grupo 1149" transform="translate(81.707 41.557)" opacity="0.15">
        <path id="Caminho_2336" data-name="Caminho 2336" d="M466.083,241.582a1.865,1.865,0,1,1-1.6-2.127A1.885,1.885,0,0,1,466.083,241.582Z" transform="translate(-462.373 -239.439)" fill="#3f456b"/>
      </g>
      <path id="Caminho_2337" data-name="Caminho 2337" d="M253.433,234a3.053,3.053,0,1,0,3.053,3.044A3.053,3.053,0,0,0,253.433,234Z" transform="translate(-207.176 -193.431)" fill="#f0f3f7"/>
      <g id="Grupo_1150" data-name="Grupo 1150" transform="translate(42.825 40.182)" opacity="0.7">
        <circle id="Elipse_102" data-name="Elipse 102" cx="1.807" cy="1.807" r="1.807" transform="translate(0 2.556) rotate(-45)" fill="#fff"/>
      </g>
      <g id="Grupo_1151" data-name="Grupo 1151" transform="translate(43.546 40.903)" opacity="0.15">
        <path id="Caminho_2338" data-name="Caminho 2338" d="M252.26,240.157a3.152,3.152,0,1,0,4.314-4.317s1.271,2.239-.3,3.814C254.647,241.285,252.26,240.157,252.26,240.157Z" transform="translate(-252.26 -235.84)" fill="#3f456b"/>
      </g>
      <g id="Grupo_1152" data-name="Grupo 1152" transform="translate(6.883 19.819)" opacity="0.3">
        <path id="Caminho_2339" data-name="Caminho 2339" d="M68.728,119.75s-4.165,5.89-9.915,5.178l-1.66-.274s-1.613-.7-2.292-.074-3.113,2.906-3.113,2.906L50.4,126.011l3.2-2.986a2.629,2.629,0,0,1,3.115-.806C58.6,123.046,64.554,124.441,68.728,119.75Z" transform="translate(-50.4 -119.75)" fill="#fff"/>
      </g>
      <g id="Grupo_1153" data-name="Grupo 1153" transform="translate(28.527 33.486)" opacity="0.15">
        <path id="Caminho_2340" data-name="Caminho 2340" d="M178.588,195a14.258,14.258,0,0,1-1.317.917,15.112,15.112,0,0,0-2.652,2.635,10.084,10.084,0,0,0-1.827,3.6,10.286,10.286,0,0,0,.129,4.506,2.051,2.051,0,0,1-.421,1.972l-1.113,1.035-1.816,1.7,1.348,1.475,3.816-2.768a3.547,3.547,0,0,0,.908-3.451C174.993,204.668,174.915,198.632,178.588,195Z" transform="translate(-169.57 -195)" fill="#3f456b"/>
      </g>
      <g id="Grupo_1154" data-name="Grupo 1154" transform="translate(20.28 8.671)" opacity="0.15">
        <path id="Caminho_2341" data-name="Caminho 2341" d="M154.911,58.37s-3.1,13.571-17.129,23.05c0,0-9.185,6.782-13.622,9.2l2.261,2.474S159.377,76.338,154.911,58.37Z" transform="translate(-124.16 -58.37)" fill="#3f456b"/>
      </g>
    </g>
    <g id="Lines" transform="translate(17.971 15.144)">
      <path id="Caminho_2342" data-name="Caminho 2342" d="M45.664,234.734q-1.008,0-2.118-.1a.97.97,0,0,1-.924-.97c-.049-4.468.957-7.628,2.99-9.392a5.67,5.67,0,0,1,4.3-1.395.908.908,0,0,1-.276,1.794,3.843,3.843,0,0,0-2.864,1c-1.462,1.291-2.263,3.774-2.33,7.209,3.451.193,5.994-.427,7.383-1.807a3.892,3.892,0,0,0,1.182-2.764.911.911,0,1,1,1.816-.143,5.69,5.69,0,0,1-1.715,4.2C51.515,233.94,49.019,234.734,45.664,234.734Zm-2.136-1.909ZM43.529,232.825Z" transform="translate(-42.621 -188.825)" fill="#3f456b"/>
      <path id="Caminho_2343" data-name="Caminho 2343" d="M104.943,45.6a5.007,5.007,0,0,1-3.269-1.1c-2.049-1.767-1.943-5.3-.47-7.163a4.851,4.851,0,0,1,6.366-1.146,5.584,5.584,0,0,1,2.85,3.745,4.506,4.506,0,0,1-1.11,3.814,5.685,5.685,0,0,1-3.865,1.816A3.113,3.113,0,0,1,104.943,45.6Zm.016-8.3a2.917,2.917,0,0,0-2.323,1.159c-.943,1.2-1.021,3.585.231,4.664a3.327,3.327,0,0,0,2.441.643,3.9,3.9,0,0,0,2.621-1.181,2.729,2.729,0,0,0,.708-2.321,3.821,3.821,0,0,0-1.945-2.488,3.551,3.551,0,0,0-1.733-.476Z" transform="translate(-89.672 -35.489)" fill="#3f456b"/>
      <path id="Caminho_2344" data-name="Caminho 2344" d="M92.814,86.762a.908.908,0,0,1-.67-.3l-8.988-9.833a.908.908,0,0,1-.091-1.11,101.493,101.493,0,0,1,13.841-16.46A37.568,37.568,0,0,1,108.185,51.2a19.212,19.212,0,0,1,13.208-1.19.908.908,0,0,1,.616.614,1.117,1.117,0,0,1,.049.162A19.2,19.2,0,0,1,119.7,63.825a37.359,37.359,0,0,1-8.827,10.52,101.328,101.328,0,0,1-17.634,12.31A.9.9,0,0,1,92.814,86.762ZM84.974,75.93l8.033,8.789a100.945,100.945,0,0,0,16.7-11.762c11.006-9.306,11.233-17.725,10.656-21.344a17.636,17.636,0,0,0-11.459,1.26,35.631,35.631,0,0,0-10.716,7.481A101.032,101.032,0,0,0,84.974,75.93Z" transform="translate(-75.598 -46.819)" fill="#3f456b"/>
      <path id="Caminho_2345" data-name="Caminho 2345" d="M197.764,95.974a6.459,6.459,0,1,1,4.359-1.689h0A6.442,6.442,0,0,1,197.764,95.974Zm0-11.106a4.646,4.646,0,1,0,3.14,8.075h0a4.648,4.648,0,0,0-2.931-8.069Zm3.752,8.747Z" transform="translate(-164.304 -74.417)" fill="#3f456b"/>
      <path id="Caminho_2346" data-name="Caminho 2346" d="M141.958,200.616H141.9a2.708,2.708,0,0,1-1.952-.963l-6.193-6.775,1.34-1.226,6.193,6.775a.923.923,0,0,0,.657.372,1.32,1.32,0,0,0,.779-.338l.027-.025,2.615-2.392c.545-.5.265-1.676.156-1.983-1.186-3.046-.561-6.538,1.807-10.095a22.558,22.558,0,0,1,3.867-4.4.908.908,0,1,1,1.166,1.393c-.105.087-7.508,6.406-5.144,12.452v.02c.343.941.594,2.831-.636,3.954l-2.606,2.383A3.068,3.068,0,0,1,141.958,200.616Z" transform="translate(-117.199 -153.225)" fill="#3f456b"/>
      <path id="Caminho_2347" data-name="Caminho 2347" d="M53.289,120.253l-6.3-6.9a2.58,2.58,0,0,1-.763-2.049,2.864,2.864,0,0,1,1.09-1.84L49.9,107.1c1.531-1.4,3.869-.363,3.968-.325l.031.015c5.828,2.906,12.7-4.043,12.772-4.114a.909.909,0,0,1,1.3,1.271,22.464,22.464,0,0,1-4.688,3.52c-3.727,2.08-7.245,2.414-10.171.963-.363-.154-1.453-.469-1.983.015l-2.615,2.392a.868.868,0,0,1-.091.071,1.061,1.061,0,0,0-.39.6.875.875,0,0,0,.3.623l6.3,6.9Z" transform="translate(-45.559 -90.25)" fill="#3f456b"/>
      <path id="Caminho_2348" data-name="Caminho 2348" d="M78.941,207.011a1.5,1.5,0,0,1-1.122-.476l-6.631-7.25c-.77-.841-.4-2.385.832-3.514l1.722-1.573a.908.908,0,1,1,1.224,1.34l-1.72,1.573a1.911,1.911,0,0,0-.647,1.026l6.431,7.038a2.979,2.979,0,0,0,.988-.654l1.722-1.573a.908.908,0,1,1,1.226,1.34l-1.722,1.573a5.024,5.024,0,0,1-1.531,1,2.235,2.235,0,0,1-.772.153Z" transform="translate(-65.67 -165.161)" fill="#3f456b"/>
      <path id="Caminho_2349" data-name="Caminho 2349" d="M465.108,383.561a.9.9,0,0,1-.545-.182.908.908,0,0,1-.182-1.271l.109-.145a.908.908,0,1,1,1.453,1.09l-.109.145a.908.908,0,0,1-.726.363Z" transform="translate(-387.631 -318.738)" fill="#3f456b"/>
      <path id="Caminho_2350" data-name="Caminho 2350" d="M372.694,307.313a11.5,11.5,0,1,1,10.534-6.871.908.908,0,0,1-1.662-.726,9.693,9.693,0,1,0-8.872,5.786.908.908,0,1,1,0,1.816Z" transform="translate(-303.343 -239.126)" fill="#3f456b"/>
      <path id="Caminho_2351" data-name="Caminho 2351" d="M206.568,258.073a.908.908,0,0,1-.908-.908,52.9,52.9,0,0,1,52.959-53,.908.908,0,1,1,0,1.816,51.081,51.081,0,0,0-51.143,51.189A.908.908,0,0,1,206.568,258.073Z" transform="translate(-176.048 -173.525)" fill="#3f456b"/>
      <path id="Caminho_2352" data-name="Caminho 2352" d="M373.557,443.788a4.281,4.281,0,0,1-.567-.036,4.593,4.593,0,1,1,5.062-3.983h0A4.575,4.575,0,0,1,373.557,443.788Zm.034-7.368a2.7,2.7,0,1,0,.334.022A2.625,2.625,0,0,0,373.592,436.42Zm3.56,3.235Z" transform="translate(-309.643 -362.107)" fill="#3f456b"/>
      <path id="Caminho_2353" data-name="Caminho 2353" d="M267.513,416.8a7,7,0,1,1,6.682-9.081.909.909,0,0,1-1.734.545,5.185,5.185,0,1,0-3.413,6.489.909.909,0,0,1,.545,1.734,6.963,6.963,0,0,1-2.08.312Z" transform="translate(-220.934 -336.083)" fill="#3f456b"/>
      <path id="Caminho_2354" data-name="Caminho 2354" d="M92.034,373.717a10.044,10.044,0,1,1,10.044-10.044,10.044,10.044,0,0,1-10.044,10.044Zm0-18.269a8.228,8.228,0,1,0,8.228,8.227A8.228,8.228,0,0,0,92.034,355.448Z" transform="translate(-74.84 -295.848)" fill="#3f456b"/>
      <path id="Caminho_2355" data-name="Caminho 2355" d="M427.948,134.6a5.007,5.007,0,0,1-3.269-1.1c-2.051-1.767-1.938-5.3-.472-7.163a4.851,4.851,0,0,1,6.366-1.146,5.577,5.577,0,0,1,2.85,3.75,4.506,4.506,0,0,1-1.11,3.814,5.685,5.685,0,0,1-3.865,1.816A3.832,3.832,0,0,1,427.948,134.6Zm.016-8.3a2.917,2.917,0,0,0-2.323,1.159c-.943,1.2-1.021,3.585.231,4.664a3.327,3.327,0,0,0,2.441.643,3.9,3.9,0,0,0,2.621-1.181,2.729,2.729,0,0,0,.708-2.321,3.821,3.821,0,0,0-1.945-2.488A3.551,3.551,0,0,0,427.965,126.307Z" transform="translate(-354.014 -108.324)" fill="#3f456b"/>
      <path id="Caminho_2356" data-name="Caminho 2356" d="M249.341,236.872a3.961,3.961,0,1,1,3.961-3.961A3.961,3.961,0,0,1,249.341,236.872Zm0-6.106a2.14,2.14,0,1,1,0,.009Z" transform="translate(-208.554 -193.813)" fill="#3f456b"/>
    </g>
  </g>
</svg>
