<svg xmlns="http://www.w3.org/2000/svg" width="92.628" height="96.919" viewBox="0 0 92.628 96.919">
  <g id="_5883837_astronomy_star_telescope_icon_1_" data-name="5883837_astronomy_star_telescope_icon (1)" transform="translate(0 0)">
    <g id="Colors" transform="translate(0.886 0)">
      <g id="Grupo_1094" data-name="Grupo 1094" transform="translate(14.742 54.124)" opacity="0.5">
        <path id="Caminho_2233" data-name="Caminho 2233" d="M92.144,293.669a.885.885,0,0,0,0-1.769h-.531a.885.885,0,0,0-.023,1.769h.554Zm3.539-.1h.051l.531-.034a.887.887,0,0,0-.117-1.769l-.531.032a.885.885,0,1,0,.05,1.769Zm-7.608-.062a.885.885,0,0,0,.064-1.769l-.531-.041a.888.888,0,0,0-.145,1.769q.265.024.531.042Zm11.658-.311h.113l.531-.073a.885.885,0,1,0-.242-1.752l-.517.069a.886.886,0,0,0,.111,1.769Zm-15.7-.129a.885.885,0,0,0,.126-1.76l-.517-.078a.885.885,0,1,0-.269,1.75l.531.08A1.027,1.027,0,0,0,84.037,293.071Zm19.71-.531a.841.841,0,0,0,.177-.018l.531-.108a.885.885,0,0,0-.366-1.732c-.177.037-.341.073-.511.106a.885.885,0,0,0,.177,1.752Zm-23.709-.195a.885.885,0,0,0,.189-1.748l-.524-.113a.885.885,0,1,0-.395,1.725l.531.119a1,1,0,0,0,.195.016ZM76.1,291.337a.885.885,0,0,0,.242-1.737l-.5-.15a.885.885,0,1,0-.515,1.693l.513.154a.886.886,0,0,0,.255.039Zm-3.855-1.288a.885.885,0,0,0,.311-1.713l-.488-.186a.885.885,0,0,0-.635,1.653l.5.189a.869.869,0,0,0,.306.055Zm-3.754-1.559a.885.885,0,0,0,.37-1.688l-.474-.221a.885.885,0,0,0-.75,1.6l.487.226a.884.884,0,0,0,.364.078Zm-3.634-1.822a.885.885,0,0,0,.426-1.66l-.458-.253a.885.885,0,0,0-.862,1.545l.469.26a.9.9,0,0,0,.421.106Zm-3.5-2.075a.885.885,0,0,0,.478-1.63l-.437-.283a.885.885,0,1,0-.97,1.479l.451.294a.884.884,0,0,0,.474.138Zm-3.342-2.318a.885.885,0,0,0,.531-1.592l-.416-.315a.888.888,0,1,0-1.072,1.415l.428.324a.884.884,0,0,0,.525.166Zm-3.169-2.55a.885.885,0,0,0,.579-1.553l-.395-.343a.885.885,0,1,0-1.168,1.329l.405.354a.885.885,0,0,0,.575.212Zm-2.983-2.765a.885.885,0,0,0,.625-1.511l-.37-.37a.885.885,0,1,0-1.26,1.239l.382.382a.885.885,0,0,0,.619.258Zm-2.781-2.969a.885.885,0,0,0,.667-1.465l-.341-.4a.885.885,0,1,0-1.345,1.15l.354.409a.885.885,0,0,0,.662.3Zm-2.566-3.158a.87.87,0,0,0,.531-.177.885.885,0,0,0,.177-1.239L46.913,269A.885.885,0,1,0,45.5,270.06l.322.432a.885.885,0,0,0,.7.34ZM44.183,267.5a.885.885,0,0,0,.741-1.366c-.1-.147-.189-.294-.283-.441a.885.885,0,1,0-1.493.95l.285.453a.885.885,0,0,0,.747.4Zm-2.095-3.487a.872.872,0,0,0,.426-.111.885.885,0,0,0,.354-1.2l-.251-.46a.885.885,0,0,0-1.557.842c.087.157.177.317.26.474a.885.885,0,0,0,.764.455Zm-1.84-3.631a.872.872,0,0,0,.371-.083.885.885,0,0,0,.43-1.175l-.218-.476a.885.885,0,1,0-1.612.729c.074.164.149.329.225.492A.885.885,0,0,0,40.248,260.383Z" transform="translate(-39.141 -258.129)" fill="#3f456b"/>
      </g>
      <g id="Grupo_1095" data-name="Grupo 1095" transform="translate(10.593 41.074)" opacity="0.5">
        <path id="Caminho_2234" data-name="Caminho 2234" d="M422.249,190.675a.894.894,0,0,0,.214-.025.885.885,0,0,0,.644-1.072c-.041-.177-.083-.338-.124-.508a.885.885,0,0,0-1.72.41q.061.265.127.531A.885.885,0,0,0,422.249,190.675Zm-.84-3.981a.9.9,0,0,0,.152-.012.885.885,0,0,0,.72-1.023c-.03-.177-.06-.343-.088-.517a.885.885,0,1,0-1.745.288q.042.265.09.531a.885.885,0,0,0,.87.74Z" transform="translate(-420.43 -184.372)" fill="#3f456b"/>
      </g>
      <g id="Grupo_1096" data-name="Grupo 1096" transform="translate(9.681 12.097)" opacity="0.5">
        <path id="Caminho_2235" data-name="Caminho 2235" d="M414.885,42.607h.03a.885.885,0,0,0,.855-.911v-.226a.885.885,0,0,0-.885-.858h-.028a.885.885,0,0,0-.86.909v.23A.885.885,0,0,0,414.885,42.607Zm0-3.767a.885.885,0,0,0,.885-.856c0-.177.012-.354.019-.531a.885.885,0,1,0-1.769-.073c0,.177-.014.354-.019.531a.885.885,0,0,0,.855.915Zm.276-4.059a.885.885,0,0,0,.885-.794c.019-.177.037-.354.057-.518a.885.885,0,0,0-1.759-.2c-.019.177-.039.354-.057.531a.885.885,0,0,0,.789.971Zm.564-4.029a.885.885,0,0,0,.871-.731c.03-.177.06-.343.092-.515a.885.885,0,1,0-1.739-.322q-.05.265-.1.531a.885.885,0,0,0,.711,1.023A.906.906,0,0,0,415.725,30.753Zm.846-3.979a.885.885,0,0,0,.856-.671c.042-.168.085-.336.129-.506a.885.885,0,0,0-1.713-.444l-.133.522a.885.885,0,0,0,.644,1.072.9.9,0,0,0,.216.027Zm1.116-3.908a.885.885,0,0,0,.849-.605c.055-.165.11-.329.166-.5a.885.885,0,1,0-1.677-.566l-.177.511a.885.885,0,0,0,.566,1.116A.872.872,0,0,0,417.687,22.865Z" transform="translate(-413.996 -20.596)" fill="#3f456b"/>
      </g>
      <circle id="Elipse_94" data-name="Elipse 94" cx="27.456" cy="27.456" r="27.456" transform="translate(52.913 77.658) rotate(-135)" fill="#8cc0f4"/>
      <g id="Grupo_1097" data-name="Grupo 1097" transform="translate(41.282 15.094)" opacity="0.3">
        <path id="Caminho_2236" data-name="Caminho 2236" d="M172.055,39.071c-1.415.8-2.282,1.718-2.208,2.7.15,1.966,3.933,3.277,8.441,2.935s8.054-2.217,7.9-4.183c-.145-1.886-3.638-3.174-7.911-2.967A15.723,15.723,0,0,0,172.055,39.071Z" transform="translate(-169.843 -37.537)" fill="#fff"/>
      </g>
      <g id="Grupo_1098" data-name="Grupo 1098" transform="translate(58.942 40.011)" opacity="0.3">
        <ellipse id="Elipse_95" data-name="Elipse 95" cx="4.349" cy="9.986" rx="4.349" ry="9.986" transform="matrix(-0.764, -0.645, 0.645, -0.764, 6.649, 20.875)" fill="#fff"/>
      </g>
      <g id="Grupo_1099" data-name="Grupo 1099" transform="translate(24.587 40.024)" opacity="0.3">
        <ellipse id="Elipse_96" data-name="Elipse 96" cx="8.595" cy="3.742" rx="8.595" ry="3.742" transform="translate(7.441 18.736) rotate(-115.65)" fill="#fff"/>
      </g>
      <g id="Grupo_1100" data-name="Grupo 1100" transform="translate(44.671 14.645)" opacity="0.3">
        <path id="Caminho_2237" data-name="Caminho 2237" d="M75.378,35A16.278,16.278,0,1,1,59.1,51.278,16.278,16.278,0,0,1,75.378,35Z" transform="translate(-59.1 -35)" fill="#fff"/>
      </g>
      <g id="Grupo_1101" data-name="Grupo 1101" transform="translate(25.519 19.366)" opacity="0.1">
        <path id="Caminho_2238" data-name="Caminho 2238" d="M132.767,100.605A27.524,27.524,0,0,1,93.842,61.68S83.028,83.069,97.189,97.233C111.928,111.971,132.767,100.605,132.767,100.605Z" transform="translate(-85.78 -61.68)" fill="#3f456b"/>
      </g>
      <g id="Grupo_1102" data-name="Grupo 1102" transform="translate(24.511 14.211)" opacity="0.3">
        <path id="Caminho_2239" data-name="Caminho 2239" d="M149.568,57.606c.382,0,.775,0,1.178-.019,12.819-.412,14.508-6.879,14.576-7.153a.885.885,0,0,0-1.718-.421,5.95,5.95,0,0,1-2.093,2.723c-2.957,2.355-7.518,2.978-10.821,3.08-6.288.2-11.044-1.394-12.718-4.273a3.647,3.647,0,0,1-.037-3.834.885.885,0,1,0-1.509-.917,5.371,5.371,0,0,0,.016,5.648C137.366,54.025,140.465,57.606,149.568,57.606Z" transform="translate(-126.168 -43.881)" fill="#3f456b"/>
        <path id="Caminho_2240" data-name="Caminho 2240" d="M177.139,118.988a22.058,22.058,0,0,0,8.974-1.622.885.885,0,0,0-.766-1.592c-.088.042-7.017,3.229-17.73-.048a.885.885,0,1,0-.517,1.691,34.229,34.229,0,0,0,10.039,1.571Z" transform="translate(-152.854 -100.97)" fill="#3f456b"/>
        <path id="Caminho_2241" data-name="Caminho 2241" d="M290.3,107.695a.885.885,0,0,0,.354-1.7c-.009,0-.908-.389-1.415-.639a.889.889,0,0,0-.791,1.592c.545.272,1.461.665,1.5.683A.9.9,0,0,0,290.3,107.695Z" transform="translate(-278.974 -92.398)" fill="#3f456b"/>
        <path id="Caminho_2242" data-name="Caminho 2242" d="M135.81,100.842a.865.865,0,0,0,.354-.073,5.582,5.582,0,0,0,1.914-1.431.885.885,0,0,0-1.357-1.134,3.947,3.947,0,0,1-1.256.945.885.885,0,0,0,.354,1.7Z" transform="translate(-98.97 -86.341)" fill="#3f456b"/>
        <path id="Caminho_2243" data-name="Caminho 2243" d="M255.1,153.885a.94.94,0,0,0,.177-.018.885.885,0,0,0,.681-1.049,18.122,18.122,0,0,0-5.005-9.174,14.651,14.651,0,0,0-8.868-4.213c-6.978-.591-7.819,5.469-7.826,5.531a.885.885,0,1,0,1.755.223,5.174,5.174,0,0,1,.978-2.215c1.062-1.366,2.719-1.964,4.942-1.769a12.884,12.884,0,0,1,7.785,3.716,16.352,16.352,0,0,1,4.508,8.272A.885.885,0,0,0,255.1,153.885Z" transform="translate(-234.25 -120.486)" fill="#3f456b"/>
        <path id="Caminho_2244" data-name="Caminho 2244" d="M231.435,254.09a5.632,5.632,0,0,0,4.423-1.89c2.965-3.348,2.051-9.979,2.01-10.262a.885.885,0,1,0-1.752.251h0a19.91,19.91,0,0,1,.115,3.478c-.094,1.676-.464,3.965-1.7,5.357a3.942,3.942,0,0,1-3.247,1.292.885.885,0,0,0-.039,1.769Z" transform="translate(-215.623 -204.265)" fill="#3f456b"/>
        <path id="Caminho_2245" data-name="Caminho 2245" d="M38.167,145.111a.884.884,0,0,0,.37-.081c7.56-3.47,12.962-.465,13.015-.435a.885.885,0,0,0,.885-1.534c-.251-.145-6.255-3.486-14.634.354a.885.885,0,0,0,.37,1.69Z" transform="translate(3.695 -122.285)" fill="#3f456b"/>
        <path id="Caminho_2246" data-name="Caminho 2246" d="M135.741,166.157a.885.885,0,0,0,.747-.41,7.067,7.067,0,0,1,2.537-2.053.885.885,0,0,0-.75-1.6A8.868,8.868,0,0,0,135,164.8a.885.885,0,0,0,.745,1.361Z" transform="translate(-100.224 -139.101)" fill="#3f456b"/>
        <path id="Caminho_2247" data-name="Caminho 2247" d="M167.406,218.666a.9.9,0,0,0,.193-.021.885.885,0,0,0,.672-1.062c-1.745-7.854,2.983-14.685,3.031-14.761a.885.885,0,1,0-1.446-1.017c-.214.3-5.225,7.555-3.312,16.163A.885.885,0,0,0,167.406,218.666Z" transform="translate(-137.704 -171.522)" fill="#3f456b"/>
        <path id="Caminho_2248" data-name="Caminho 2248" d="M104.981,45.066a.885.885,0,0,0,.7-.336,10.231,10.231,0,0,0,2.052-4.147,5.207,5.207,0,0,0,.1-1.838.885.885,0,1,0-1.745.3c.014.1.248,1.973-1.806,4.6a.885.885,0,0,0,.7,1.431Z" transform="translate(-63.119 -37.042)" fill="#3f456b"/>
        <path id="Caminho_2249" data-name="Caminho 2249" d="M172.726,41.542c.5,0,1-.019,1.525-.06A15.7,15.7,0,0,0,180.3,39.89c1.822-.964,2.771-2.224,2.67-3.539-.211-2.753-4.6-3.988-8.834-3.783a.886.886,0,1,0,.085,1.769,13.433,13.433,0,0,1,5.152.644c1.108.414,1.792.977,1.833,1.507s-.621,1.262-1.732,1.851a14.063,14.063,0,0,1-5.352,1.382,14.272,14.272,0,0,1-5.5-.548c-1.187-.414-1.946-1.014-1.992-1.566s.623-1.263,1.737-1.852a.885.885,0,1,0-.826-1.564c-1.826.964-2.778,2.226-2.677,3.551C165.035,40.008,168.315,41.542,172.726,41.542Z" transform="translate(-148.967 -32.546)" fill="#3f456b"/>
        <path id="Caminho_2250" data-name="Caminho 2250" d="M64.571,204.492a7.192,7.192,0,0,0,3.095-.846,19.171,19.171,0,0,0,5.809-4.8c4-4.738,5.287-9.761,3.008-11.678s-7.014.2-11.009,4.938-5.287,9.76-3.008,11.678a3.185,3.185,0,0,0,2.105.708Zm9.8-16.278a1.469,1.469,0,0,1,.97.292c.586.492.656,1.722.189,3.289a17.131,17.131,0,0,1-3.4,5.911,17.39,17.39,0,0,1-5.241,4.354c-1.465.725-2.688.863-3.273.372s-.655-1.723-.188-3.289a19.354,19.354,0,0,1,8.647-10.259,5.506,5.506,0,0,1,2.3-.662Z" transform="translate(-25.285 -159.233)" fill="#3f456b"/>
        <path id="Caminho_2251" data-name="Caminho 2251" d="M291.981,199.232a2.654,2.654,0,0,0,1.154-.257c1.239-.595,1.875-2.1,1.8-4.246a18.247,18.247,0,0,0-5.568-11.594c-1.622-1.4-3.2-1.845-4.436-1.251s-1.877,2.1-1.8,4.246a18.268,18.268,0,0,0,5.566,11.594A5.263,5.263,0,0,0,291.981,199.232Zm-5.89-15.835a3.742,3.742,0,0,1,2.123,1.079,16.528,16.528,0,0,1,4.954,10.32c.051,1.355-.246,2.321-.794,2.585h0c-.548.262-1.488-.11-2.514-1a16.542,16.542,0,0,1-4.956-10.32c-.049-1.355.248-2.321.8-2.585A.913.913,0,0,1,286.091,183.4Z" transform="translate(-281.86 -155.249)" fill="#3f456b"/>
        <path id="Caminho_2252" data-name="Caminho 2252" d="M61.177,171.414a.885.885,0,0,0,.7-.341c5.588-7.164,12.079-4.954,12.352-4.866a.885.885,0,0,0,.6-1.663,11.214,11.214,0,0,0-4.8-.395c-2.518.306-6.217,1.568-9.544,5.839a.885.885,0,0,0,.7,1.43Z" transform="translate(-22.883 -140.79)" fill="#3f456b"/>
        <path id="Caminho_2253" data-name="Caminho 2253" d="M110.953,246.383a17.177,17.177,0,0,0,5.805-1.239.885.885,0,1,0-.621-1.656c-3.335,1.251-6.039,1.461-7.608.594a3.39,3.39,0,0,1-1.649-2.459c-1.076-5.131,1.164-7.852,1.26-7.962A.885.885,0,0,0,106.8,232.5c-.12.138-2.918,3.441-1.653,9.484a5.121,5.121,0,0,0,2.528,3.647A6.651,6.651,0,0,0,110.953,246.383Z" transform="translate(-72.729 -196.873)" fill="#3f456b"/>
        <path id="Caminho_2254" data-name="Caminho 2254" d="M201.776,271.857a.885.885,0,0,0,.708-1.407c-1.891-2.589-1.668-8.341-1.415-10.34a.885.885,0,1,0-1.757-.216c-.039.322-.936,7.923,1.75,11.6A.885.885,0,0,0,201.776,271.857Z" transform="translate(-174.716 -219.029)" fill="#3f456b"/>
        <path id="Caminho_2255" data-name="Caminho 2255" d="M263.669,186.283a.885.885,0,0,0,.885-.872,19.386,19.386,0,0,0-5.718-14.289.885.885,0,1,0-1.171,1.325h0a17.915,17.915,0,0,1,5.12,12.937.885.885,0,0,0,.871.9Z" transform="translate(-246.917 -146.408)" fill="#3f456b"/>
        <path id="Caminho_2256" data-name="Caminho 2256" d="M91.965,107.891A4.936,4.936,0,0,0,95.875,106a3.788,3.788,0,0,0,.81-2.7,2.844,2.844,0,0,0-2.767-2.551,3.294,3.294,0,0,0-2.974,1.267,1.815,1.815,0,0,0-.1,2.044,2.3,2.3,0,0,0,2.3.812.885.885,0,1,0-.272-1.748,1.083,1.083,0,0,1-.5-.028,1.142,1.142,0,0,1,.078-.147,1.708,1.708,0,0,1,1.354-.433,1.1,1.1,0,0,1,1.127.991,2.01,2.01,0,0,1-.456,1.415,3.21,3.21,0,0,1-5.071-.09,2.728,2.728,0,0,1-.453-2.332,3.114,3.114,0,0,1,1.8-1.976,10.6,10.6,0,0,1,3.139-.653c.4-.042.81-.087,1.214-.145l.837-.12c1.217-.177,2.477-.354,3.716-.605a19.923,19.923,0,0,0,8.56-3.634,18.107,18.107,0,0,0,5.027-6.039.885.885,0,1,0-1.592-.775,16.341,16.341,0,0,1-4.535,5.426,17.948,17.948,0,0,1-7.815,3.289c-1.189.244-2.42.419-3.611.587l-.842.12c-.372.055-.748.1-1.148.138a12.076,12.076,0,0,0-3.664.793,4.878,4.878,0,0,0-2.781,3.116,4.468,4.468,0,0,0,.708,3.824,4.841,4.841,0,0,0,3.9,2.036Z" transform="translate(-65.558 -78.233)" fill="#3f456b"/>
        <path id="Caminho_2257" data-name="Caminho 2257" d="M193.684,206.256a7.206,7.206,0,0,0,2.583-.46.885.885,0,0,0-.683-1.633,5.216,5.216,0,0,1-4.121-.221.885.885,0,1,0-.858,1.546A6.268,6.268,0,0,0,193.684,206.256Z" transform="translate(-167.278 -173.514)" fill="#3f456b"/>
        <path id="Caminho_2258" data-name="Caminho 2258" d="M310.663,111.807a.885.885,0,0,0,.177-1.753,11.825,11.825,0,0,1-5.011-2.3.885.885,0,0,0-1.164,1.332,13.555,13.555,0,0,0,5.828,2.712A.837.837,0,0,0,310.663,111.807Z" transform="translate(-302.237 -94.267)" fill="#3f456b"/>
        <path id="Caminho_2259" data-name="Caminho 2259" d="M48.97,110.863a.874.874,0,0,0,.49-.149,19.9,19.9,0,0,1,5.524-2.252.885.885,0,1,0-.4-1.723,21.41,21.41,0,0,0-6.106,2.5.885.885,0,0,0,.49,1.621Z" transform="translate(-1.029 -93.588)" fill="#3f456b"/>
        <path id="Caminho_2260" data-name="Caminho 2260" d="M90.168,222.513a.885.885,0,0,0,.863-.7c.639-2.935,4.1-5.266,5.149-5.91a.888.888,0,1,0-.927-1.515c-1.534.945-5.186,3.521-5.95,7.042a.885.885,0,0,0,.676,1.062A.861.861,0,0,0,90.168,222.513Z" transform="translate(-49.23 -182.11)" fill="#3f456b"/>
        <path id="Caminho_2261" data-name="Caminho 2261" d="M303.991,229.418h.06a.885.885,0,0,0,.825-.941,6.014,6.014,0,0,0-1.136-3.425.885.885,0,1,0-1.352,1.143,4.468,4.468,0,0,1,.722,2.4.885.885,0,0,0,.881.823Z" transform="translate(-295.171 -190.733)" fill="#3f456b"/>
      </g>
      <path id="Caminho_2262" data-name="Caminho 2262" d="M389.37,350.64a6.37,6.37,0,1,1-6.37,6.37A6.37,6.37,0,0,1,389.37,350.64Z" transform="translate(-375.821 -280.148)" fill="#ffd2a6"/>
      <g id="Grupo_1103" data-name="Grupo 1103" transform="translate(11.603 71.264)" opacity="0.3">
        <path id="Caminho_2263" data-name="Caminho 2263" d="M391.176,355a3.769,3.769,0,1,1-2.669,1.1,3.769,3.769,0,0,1,2.669-1.1Z" transform="translate(-387.4 -355)" fill="#fff"/>
      </g>
      <g id="Grupo_1104" data-name="Grupo 1104" transform="translate(7.489 71.667)" opacity="0.2">
        <path id="Caminho_2264" data-name="Caminho 2264" d="M400.895,366.288c-2.488,2.488-7.212,3.185-9.7.692s-1.8-7.212.692-9.7c0,0-2.654,4.671.619,7.95C395.916,368.641,400.895,366.288,400.895,366.288Z" transform="translate(-389.64 -357.28)" fill="#3f456b"/>
      </g>
      <path id="Caminho_2265" data-name="Caminho 2265" d="M46.386,118.127l18.7-5.057L60.146,94.16l-18.7,5.057Z" transform="translate(15.267 -69.047)" fill="#9398aa"/>
      <path id="Caminho_2266" data-name="Caminho 2266" d="M154.132,157.716l28.582-7.284-3.74-14.332-28.583,7.286Z" transform="translate(-121.639 -103.567)" fill="#dae1ea"/>
      <rect id="Retângulo_292" data-name="Retângulo 292" width="7.329" height="26.112" transform="translate(6.303 57.198) rotate(-104.63)" fill="#9398aa"/>
      <g id="Grupo_1105" data-name="Grupo 1105" transform="translate(5.718 48.361)" opacity="0.2">
        <rect id="Retângulo_293" data-name="Retângulo 293" width="2.316" height="26.112" transform="translate(0.585 8.836) rotate(-104.63)" fill="#3f456b"/>
      </g>
      <g id="Grupo_1106" data-name="Grupo 1106" transform="translate(57.317 28.147)" opacity="0.2">
        <rect id="Retângulo_294" data-name="Retângulo 294" width="4.974" height="19.478" transform="translate(1.256 9.732) rotate(-104.63)" fill="#fff"/>
      </g>
      <g id="Grupo_1107" data-name="Grupo 1107" transform="translate(4.574 45.537)" opacity="0.2">
        <rect id="Retângulo_295" data-name="Retângulo 295" width="1.571" height="26.112" transform="translate(0.397 8.115) rotate(-104.63)" fill="#fff"/>
      </g>
      <rect id="Retângulo_296" data-name="Retângulo 296" width="7.329" height="26.112" transform="translate(9.31 41.273) rotate(-104.63)" fill="#9398aa"/>
      <g id="Grupo_1108" data-name="Grupo 1108" transform="translate(8.725 32.438)" opacity="0.2">
        <rect id="Retângulo_297" data-name="Retângulo 297" width="2.316" height="26.112" transform="translate(0.585 8.836) rotate(-104.63)" fill="#3f456b"/>
      </g>
      <g id="Grupo_1109" data-name="Grupo 1109" transform="translate(7.581 29.615)" opacity="0.2">
        <rect id="Retângulo_298" data-name="Retângulo 298" width="1.571" height="26.112" transform="translate(0.397 8.115) rotate(-104.63)" fill="#fff"/>
      </g>
      <g id="Grupo_1110" data-name="Grupo 1110" transform="translate(31.499 42.97)" opacity="0.2">
        <rect id="Retângulo_299" data-name="Retângulo 299" width="4.05" height="29.185" transform="translate(1.023 11.29) rotate(-104.63)" fill="#3f456b"/>
      </g>
      <g id="Grupo_1111" data-name="Grupo 1111" transform="translate(29.376 35.007)" opacity="0.5">
        <rect id="Retângulo_300" data-name="Retângulo 300" width="4.05" height="29.185" transform="translate(1.023 11.29) rotate(-104.63)" fill="#fff"/>
      </g>
      <rect id="Retângulo_301" data-name="Retângulo 301" width="10.995" height="4.123" transform="translate(2.777 60.013) rotate(-104.63)" fill="#9398aa"/>
      <path id="Caminho_2267" data-name="Caminho 2267" d="M24.14,114.122c2.845-.612,4.653-6.244,3.73-10.343-1.017-4.512-5.131-8.006-8.243-7.254" transform="translate(56.098 -70.909)" fill="#a6dcf7"/>
      <ellipse id="Elipse_97" data-name="Elipse 97" cx="4.733" cy="4.733" rx="4.733" ry="4.733" transform="translate(37.744 46.81)" fill="#9398aa"/>
      <g id="Grupo_1112" data-name="Grupo 1112" transform="translate(27.567 43.607)" opacity="0.2">
        <rect id="Retângulo_302" data-name="Retângulo 302" width="6.69" height="2.316" transform="translate(1.69 7.058) rotate(-104.63)" fill="#3f456b"/>
      </g>
      <g id="Grupo_1113" data-name="Grupo 1113" transform="translate(28.708 38.974)" opacity="0.2">
        <rect id="Retângulo_303" data-name="Retângulo 303" width="15.042" height="2.32" transform="translate(3.754 15.145) rotate(-104.452)" fill="#3f456b"/>
      </g>
      <g id="Grupo_1114" data-name="Grupo 1114" transform="translate(56.79 29.42)" opacity="0.2">
        <rect id="Retângulo_304" data-name="Retângulo 304" width="19.602" height="2.32" transform="translate(4.892 19.561) rotate(-104.452)" fill="#3f456b"/>
      </g>
      <g id="Grupo_1115" data-name="Grupo 1115" transform="translate(73.213 25.048)" opacity="0.2">
        <rect id="Retângulo_305" data-name="Retângulo 305" width="19.602" height="2.32" transform="translate(4.892 19.561) rotate(-104.452)" fill="#fff"/>
      </g>
      <g id="Grupo_1116" data-name="Grupo 1116" transform="translate(7.222 33.698)" opacity="0.2">
        <rect id="Retângulo_306" data-name="Retângulo 306" width="6.69" height="2.316" transform="translate(1.69 7.058) rotate(-104.63)" fill="#3f456b"/>
      </g>
      <g id="Grupo_1117" data-name="Grupo 1117" transform="translate(54.918 32.035)" opacity="0.2">
        <rect id="Retângulo_307" data-name="Retângulo 307" width="15.648" height="2.316" transform="translate(3.952 15.726) rotate(-104.63)" fill="#3f456b"/>
      </g>
      <g id="Grupo_1118" data-name="Grupo 1118" transform="translate(1.8 55.199)" opacity="0.2">
        <rect id="Retângulo_308" data-name="Retângulo 308" width="3.296" height="4.301" transform="translate(0.833 4.276) rotate(-104.63)" fill="#3f456b"/>
      </g>
      <g id="Grupo_1119" data-name="Grupo 1119" transform="translate(0.397 49.796)" opacity="0.2">
        <rect id="Retângulo_309" data-name="Retângulo 309" width="3.378" height="4.406" transform="translate(0.853 4.381) rotate(-104.63)" fill="#fff"/>
      </g>
      <g id="Grupo_1120" data-name="Grupo 1120" transform="translate(79.014 30.481)" opacity="0.2">
        <path id="Caminho_2268" data-name="Caminho 2268" d="M24.445,124.5s1.806,8.809-4.128,7.52l1.239,5.308S27.69,134.084,24.445,124.5Z" transform="translate(-20.317 -124.5)" fill="#3f456b"/>
      </g>
      <g id="Grupo_1121" data-name="Grupo 1121" transform="translate(77.832 26.931)" opacity="0.5">
        <path id="Caminho_2269" data-name="Caminho 2269" d="M26.946,109.014c1.032,1.9,2.686,3.008,3.693,2.456s.989-2.532-.042-4.436-2.686-3.008-3.694-2.456S25.915,107.11,26.946,109.014Z" transform="translate(-26.159 -104.436)" fill="#fff"/>
      </g>
      <ellipse id="Elipse_98" data-name="Elipse 98" cx="2.64" cy="2.64" rx="2.64" ry="2.64" transform="translate(9.228 60.403)" fill="#9398aa"/>
      <ellipse id="Elipse_99" data-name="Elipse 99" cx="2.64" cy="2.64" rx="2.64" ry="2.64" transform="translate(56.772 60.165) rotate(-157.5)" fill="#9398aa"/>
      <path id="Caminho_2270" data-name="Caminho 2270" d="M58.3,331a4.92,4.92,0,1,1-4.92,4.921A4.92,4.92,0,0,1,58.3,331Z" transform="translate(15.018 -263.983)" fill="#b2c6ed"/>
      <g id="Grupo_1122" data-name="Grupo 1122" transform="translate(70.613 66.407)" opacity="0.3">
        <circle id="Elipse_100" data-name="Elipse 100" cx="2.912" cy="2.912" r="2.912" transform="translate(4.119 8.237) rotate(-135)" fill="#fff"/>
      </g>
      <g id="Grupo_1123" data-name="Grupo 1123" transform="translate(68.438 67.567)" opacity="0.15">
        <path id="Caminho_2271" data-name="Caminho 2271" d="M65.74,341.069c-1.615,2.705-5.908,3.073-7.829,1.152s-2.136-6.214.871-8.111c0,0-2.054,3.609.478,6.141C61.894,342.886,65.74,341.069,65.74,341.069Z" transform="translate(-56.49 -334.11)" fill="#3f456b"/>
      </g>
      <g id="Grupo_1124" data-name="Grupo 1124" transform="translate(60.153 38.798)" opacity="0.2">
        <rect id="Retângulo_310" data-name="Retângulo 310" width="5.326" height="19.512" transform="translate(1.329 10.027) rotate(-104.452)" fill="#3f456b"/>
      </g>
      <g id="Grupo_1125" data-name="Grupo 1125" transform="translate(35.491 39.761)" opacity="0.5">
        <path id="Caminho_2272" data-name="Caminho 2272" d="M242.7,180.676a.858.858,0,0,0,.219-.028l7.608-1.946a.885.885,0,1,0-.439-1.713l-7.608,1.946a.885.885,0,0,0,.219,1.741Z" transform="translate(-241.814 -176.952)" fill="#3f456b"/>
      </g>
      <g id="Grupo_1126" data-name="Grupo 1126" transform="translate(46.289 34.318)" opacity="0.3">
        <path id="Caminho_2273" data-name="Caminho 2273" d="M208.419,162.255a.885.885,0,0,0,.858-1.1l-3.539-14.331a.885.885,0,0,0-1.716.425l3.539,14.332a.885.885,0,0,0,.858.672Z" transform="translate(-204.004 -146.187)" fill="#3f456b"/>
      </g>
      <g id="Grupo_1127" data-name="Grupo 1127" transform="translate(70.841 28.017)" opacity="0.5">
        <path id="Caminho_2274" data-name="Caminho 2274" d="M60.946,113.521a.84.84,0,0,0,.226-.03l4.446-1.177a.885.885,0,1,0-.451-1.711l-4.448,1.178a.885.885,0,0,0,.226,1.739Z" transform="translate(-60.063 -110.573)" fill="#3f456b"/>
        <path id="Caminho_2275" data-name="Caminho 2275" d="M55.07,135.7a.83.83,0,0,0,.226-.03l4.448-1.177a.885.885,0,0,0-.453-1.711l-4.448,1.178a.885.885,0,0,0,.226,1.739Z" transform="translate(-53.149 -128.828)" fill="#3f456b"/>
        <path id="Caminho_2276" data-name="Caminho 2276" d="M49.214,157.169a.84.84,0,0,0,.226-.03l4.446-1.178a.885.885,0,1,0-.453-1.709l-4.446,1.177a.885.885,0,0,0,.226,1.741Z" transform="translate(-46.285 -146.492)" fill="#3f456b"/>
        <path id="Caminho_2277" data-name="Caminho 2277" d="M43.513,178.68a.9.9,0,0,0,.226-.03l4.448-1.178a.885.885,0,1,0-.453-1.709l-4.446,1.177a.885.885,0,0,0,.225,1.741Z" transform="translate(-39.576 -164.196)" fill="#3f456b"/>
      </g>
      <g id="Grupo_1128" data-name="Grupo 1128" transform="translate(37.965 51.624)" opacity="0.2">
        <path id="Caminho_2278" data-name="Caminho 2278" d="M238.2,244a5.321,5.321,0,0,1-9.2.354s.531,4.423,4.777,4.423S238.2,244,238.2,244" transform="translate(-229 -244)" fill="#3f456b"/>
      </g>
      <g id="Grupo_1129" data-name="Grupo 1129" transform="translate(37.965 46.67)" opacity="0.2">
        <path id="Caminho_2279" data-name="Caminho 2279" d="M229,220.777a5.321,5.321,0,0,1,9.2-.354S237.67,216,233.423,216,229,220.777,229,220.777" transform="translate(-229 -216)" fill="#fff"/>
      </g>
    </g>
    <g id="Lines" transform="translate(0 10.488)">
      <path id="Caminho_2280" data-name="Caminho 2280" d="M54.185,337.61a5.805,5.805,0,1,0-5.805-5.805,5.805,5.805,0,0,0,5.805,5.805Zm0-9.841a4.036,4.036,0,1,1-4.036,4.036A4.036,4.036,0,0,1,54.185,327.769Z" transform="translate(20.019 -270.356)" fill="#3f456b"/>
      <path id="Caminho_2281" data-name="Caminho 2281" d="M385.254,360.148A7.254,7.254,0,1,0,378,352.894,7.254,7.254,0,0,0,385.254,360.148Zm0-12.739a5.485,5.485,0,1,1-5.485,5.485A5.485,5.485,0,0,1,385.254,347.409Z" transform="translate(-370.82 -286.521)" fill="#3f456b"/>
      <path id="Caminho_2282" data-name="Caminho 2282" d="M182.885,347.769h24.77a.885.885,0,1,0,0-1.769h-24.77a.885.885,0,1,0,0,1.769Z" transform="translate(-152.172 -286.817)" fill="#3f456b"/>
      <path id="Caminho_2283" data-name="Caminho 2283" d="M42.268,114.892a.86.86,0,0,0,.232-.03l18.7-5.057a.885.885,0,0,0,.625-1.078L56.883,89.818a.881.881,0,0,0-1.086-.632L37.1,94.243a.885.885,0,0,0-.625,1.078L41.4,114.232a.883.883,0,0,0,.863.66Zm17.619-6.566-16.985,4.6-4.489-17.2,16.985-4.6Z" transform="translate(20.271 -75.416)" fill="#3f456b"/>
      <path id="Caminho_2284" data-name="Caminho 2284" d="M150.013,154.532a.85.85,0,0,0,.219-.028l5.234-1.334a.885.885,0,1,0-.437-1.714l-4.381,1.116-3.3-12.619,26.867-6.847,3.3,12.619-12.771,3.256a.885.885,0,1,0,.437,1.713l13.634-3.464a.885.885,0,0,0,.637-1.081l-3.742-14.332a.885.885,0,0,0-1.074-.633l-28.582,7.284a.885.885,0,0,0-.639,1.081l3.742,14.331a.885.885,0,0,0,.855.653Z" transform="translate(-116.636 -109.985)" fill="#3f456b"/>
      <path id="Caminho_2285" data-name="Caminho 2285" d="M314.9,208.6a.9.9,0,0,0,.225-.028l25.271-6.6a.885.885,0,0,0,.632-1.079l-1.851-7.091a.885.885,0,0,0-1.079-.633l-25.264,6.6a.885.885,0,0,0-.633,1.079l1.852,7.091A.885.885,0,0,0,314.9,208.6Zm24.187-8.112-23.553,6.148-1.4-5.381,23.553-6.148Z" transform="translate(-307.715 -161.009)" fill="#3f456b"/>
      <path id="Caminho_2286" data-name="Caminho 2286" d="M363.651,172.392a.885.885,0,0,0,.856-1.109l-1.69-6.47a.885.885,0,1,0-1.713.448l1.69,6.472A.885.885,0,0,0,363.651,172.392Z" transform="translate(-339.853 -137.143)" fill="#3f456b"/>
      <path id="Caminho_2287" data-name="Caminho 2287" d="M297.9,118.6a.9.9,0,0,0,.225-.028l25.271-6.6a.885.885,0,0,0,.632-1.079l-1.851-7.091a.885.885,0,0,0-1.079-.633l-25.264,6.6a.885.885,0,0,0-.633,1.079l1.852,7.091A.885.885,0,0,0,297.9,118.6Zm24.187-8.112-23.553,6.148-1.4-5.381,23.553-6.148Z" transform="translate(-287.707 -86.933)" fill="#3f456b"/>
      <path id="Caminho_2288" data-name="Caminho 2288" d="M265.507,269.521a.886.886,0,0,0,.223-.028L291,262.9a.885.885,0,1,0-.448-1.713l-25.264,6.6a.885.885,0,0,0,.223,1.741Z" transform="translate(-249.908 -216.985)" fill="#3f456b"/>
      <path id="Caminho_2289" data-name="Caminho 2289" d="M456,233.856a.827.827,0,0,0,.225-.03l3.988-1.04a.885.885,0,0,0,.633-1.079l-2.778-10.637a.885.885,0,0,0-1.079-.633L453,221.478a.885.885,0,0,0-.633,1.079l2.778,10.637A.885.885,0,0,0,456,233.856Zm2.91-2.551-2.277.594-2.33-8.926,2.277-.594Z" transform="translate(-452.337 -183.446)" fill="#3f456b"/>
      <path id="Caminho_2290" data-name="Caminho 2290" d="M20.022,111.349a.979.979,0,0,0,.188-.019,4.8,4.8,0,0,0,2.911-2.3,12.964,12.964,0,0,0,1.5-9.108,10.628,10.628,0,0,0-3.639-5.849,8.563,8.563,0,0,0-5.5-2.09.885.885,0,1,0,.057,1.769c3.438-.119,6.623,3.362,7.352,6.564a11.225,11.225,0,0,1-1.26,7.767,3.235,3.235,0,0,1-1.794,1.516.885.885,0,0,0,.177,1.75Z" transform="translate(61.1 -77.74)" fill="#3f456b"/>
      <path id="Caminho_2291" data-name="Caminho 2291" d="M229.368,223.025a5.618,5.618,0,1,0-5.618-5.618A5.618,5.618,0,0,0,229.368,223.025Zm0-9.466a3.848,3.848,0,1,1-3.848,3.848,3.848,3.848,0,0,1,3.848-3.848Z" transform="translate(-186.005 -176.353)" fill="#3f456b"/>
      <path id="Caminho_2292" data-name="Caminho 2292" d="M412.1,295.669a3.524,3.524,0,1,0-3.524-3.525A3.524,3.524,0,0,0,412.1,295.669Zm0-5.278a1.755,1.755,0,1,1-1.755,1.753A1.755,1.755,0,0,1,412.1,290.391Z" transform="translate(-399.351 -239.59)" fill="#3f456b"/>
      <path id="Caminho_2293" data-name="Caminho 2293" d="M185.08,230.365a.885.885,0,0,0,.856-1.108l-1.3-4.993a.885.885,0,0,0-1.711.448l1.3,5A.885.885,0,0,0,185.08,230.365Z" transform="translate(-129.756 -186.098)" fill="#3f456b"/>
      <path id="Caminho_2294" data-name="Caminho 2294" d="M166.383,259.909a3.524,3.524,0,1,0-3.523-3.524A3.525,3.525,0,0,0,166.383,259.909Zm0-5.278a1.755,1.755,0,1,1-1.753,1.753,1.755,1.755,0,0,1,1.753-1.753Z" transform="translate(-110.155 -210.157)" fill="#3f456b"/>
      <path id="Caminho_2295" data-name="Caminho 2295" d="M250.885,307.063a.885.885,0,0,0,.885-.885V266.5a.885.885,0,0,0-1.769,0v39.674A.885.885,0,0,0,250.885,307.063Z" transform="translate(-207.433 -220.659)" fill="#3f456b"/>
      <path id="Caminho_2296" data-name="Caminho 2296" d="M142.768,304.911a.9.9,0,0,0,.395-.092.885.885,0,0,0,.4-1.187L123.6,263.469a.888.888,0,1,0-1.592.787l19.96,40.164A.885.885,0,0,0,142.768,304.911Z" transform="translate(-76.655 -218.481)" fill="#3f456b"/>
      <path id="Caminho_2297" data-name="Caminho 2297" d="M267.156,304.921a.885.885,0,0,0,.793-.494l19.785-40.164a.887.887,0,1,0-1.592-.782l-19.785,40.164a.885.885,0,0,0,.4,1.185A.9.9,0,0,0,267.156,304.921Z" transform="translate(-246.366 -218.491)" fill="#3f456b"/>
      <path id="Caminho_2298" data-name="Caminho 2298" d="M443.921,163.186a.849.849,0,0,0,.219-.028l3.813-.978a.885.885,0,1,0-.441-1.713l-3.816.978a.885.885,0,0,0,.219,1.741Z" transform="translate(-438.462 -134.081)" fill="#3f456b"/>
      <path id="Caminho_2299" data-name="Caminho 2299" d="M250.885,239.769h.177a.885.885,0,1,0,0-1.769h-.177a.885.885,0,0,0,0,1.769Z" transform="translate(-207.61 -197.926)" fill="#3f456b"/>
      <path id="Caminho_2300" data-name="Caminho 2300" d="M57.288,30.674a.885.885,0,0,0,.825-.561,26.582,26.582,0,0,1,47.874-3.344.885.885,0,1,0,1.539-.872,28.353,28.353,0,0,0-51.055,3.567.885.885,0,0,0,.5,1.147.869.869,0,0,0,.318.064Z" transform="translate(-29.053 -11.506)" fill="#3f456b"/>
      <path id="Caminho_2301" data-name="Caminho 2301" d="M345,165.888a.874.874,0,0,0,.177-.018.885.885,0,0,0,.69-1.044,26.719,26.719,0,0,1-.54-5.358c0-.563.018-1.132.051-1.691a.886.886,0,0,0-1.769-.111c-.037.6-.055,1.2-.055,1.8a28.532,28.532,0,0,0,.58,5.711A.885.885,0,0,0,345,165.888Z" transform="translate(-318.106 -131.122)" fill="#3f456b"/>
      <path id="Caminho_2302" data-name="Caminho 2302" d="M64.657,221.094a28.4,28.4,0,0,0,27.789-22.748.886.886,0,0,0-1.736-.354,26.58,26.58,0,0,1-49.681,6.925.885.885,0,0,0-1.573.81A28.258,28.258,0,0,0,64.657,221.094Z" transform="translate(-10.859 -164.413)" fill="#3f456b"/>
    </g>
  </g>
</svg>
