<svg xmlns="http://www.w3.org/2000/svg" width="342.192" height="283.479" viewBox="0 0 342.192 283.479">
  <g id="Grupo_518" data-name="Grupo 518" transform="translate(-42.711 -290.558)">
    <g id="Grupo_105" data-name="Grupo 105" transform="translate(42.711 290.558)">
      <g id="Grupo_101" data-name="Grupo 101" transform="translate(280.37 141.039)">
        <path id="Caminho_378" data-name="Caminho 378" d="M372.1,210.692s6.726-.971,8.293-3.011,3.013-8.3,3.013-8.3.37,6,3.011,8.3,8.293,3.011,8.293,3.011-6.487.131-8.293,3.013S383.408,222,383.408,222s-.611-6.365-3.013-8.294S372.1,210.692,372.1,210.692Z" transform="translate(-346.549 -167.928)" fill="#fff"/>
        <path id="Caminho_379" data-name="Caminho 379" d="M343.535,208.952s3.066,1.081,4.186.564a15.339,15.339,0,0,0,3.118-2.852s-1.177,2.631-.564,4.188a9.3,9.3,0,0,0,2.846,3.117s-2.776-1.385-4.181-.563a16,16,0,0,0-3.12,2.849s1.155-2.835.561-4.186A11.744,11.744,0,0,0,343.535,208.952Z" transform="translate(-343.535 -168.696)" fill="#fff"/>
        <path id="Caminho_380" data-name="Caminho 380" d="M398.455,168.091s1.171-1.181,1.173-1.81a7.812,7.812,0,0,0-.632-2.064s.955,1.116,1.806,1.174a4.767,4.767,0,0,0,2.065-.639s-1.244.983-1.173,1.815a8.1,8.1,0,0,0,.636,2.062s-1.06-1.154-1.81-1.174A6.072,6.072,0,0,0,398.455,168.091Z" transform="translate(-349.329 -164.218)" fill="#fff"/>
        <path id="Caminho_381" data-name="Caminho 381" d="M356.35,182.44s.937-.135,1.159-.42a4.653,4.653,0,0,0,.421-1.157,2.025,2.025,0,0,0,.418,1.157,2.7,2.7,0,0,0,1.157.42s-.907.019-1.157.42a4.772,4.772,0,0,0-.418,1.159s-.086-.889-.421-1.159A3.529,3.529,0,0,0,356.35,182.44Z" transform="translate(-344.887 -165.974)" fill="#fff"/>
        <path id="Caminho_382" data-name="Caminho 382" d="M372.75,284.469s3.066,1.082,4.185.564a15.252,15.252,0,0,0,3.116-2.848s-1.174,2.627-.566,4.185a9.356,9.356,0,0,0,2.853,3.117s-2.777-1.384-4.187-.562a15.926,15.926,0,0,0-3.112,2.848s1.151-2.835.558-4.185A11.829,11.829,0,0,0,372.75,284.469Z" transform="translate(-346.617 -176.664)" fill="#fff"/>
        <path id="Caminho_383" data-name="Caminho 383" d="M407.718,275.419s1.167-1.183,1.171-1.811a7.783,7.783,0,0,0-.632-2.065s.96,1.116,1.809,1.173a4.735,4.735,0,0,0,2.063-.636s-1.245.982-1.174,1.813a8.1,8.1,0,0,0,.641,2.063s-1.062-1.153-1.816-1.173A6.008,6.008,0,0,0,407.718,275.419Z" transform="translate(-350.307 -175.541)" fill="#fff"/>
        <path id="Caminho_384" data-name="Caminho 384" d="M355.648,237.66s1.169-1.184,1.175-1.813a7.975,7.975,0,0,0-.637-2.063s.957,1.116,1.812,1.173a4.766,4.766,0,0,0,2.063-.639s-1.247.985-1.175,1.814a8.164,8.164,0,0,0,.636,2.062s-1.059-1.152-1.81-1.173A6.014,6.014,0,0,0,355.648,237.66Z" transform="translate(-344.813 -171.557)" fill="#fff"/>
        <path id="Caminho_385" data-name="Caminho 385" d="M368.621,256.891s.938-.135,1.157-.419a4.512,4.512,0,0,0,.421-1.158,2.052,2.052,0,0,0,.418,1.158,2.72,2.72,0,0,0,1.159.419s-.9.017-1.159.42a4.637,4.637,0,0,0-.418,1.158s-.084-.888-.421-1.158A3.437,3.437,0,0,0,368.621,256.891Z" transform="translate(-346.182 -173.829)" fill="#fff"/>
        <path id="Caminho_386" data-name="Caminho 386" d="M408.985,201.2s.731.606,1.087.579a4.467,4.467,0,0,0,1.144-.464,2.023,2.023,0,0,0-.578,1.086,2.71,2.71,0,0,0,.466,1.14s-.62-.659-1.088-.576a4.639,4.639,0,0,0-1.14.467s.6-.661.575-1.088A3.51,3.51,0,0,0,408.985,201.2Z" transform="translate(-350.429 -168.119)" fill="#fff"/>
        <path id="Caminho_387" data-name="Caminho 387" d="M397.258,248.477s.734.6,1.092.575a4.516,4.516,0,0,0,1.138-.466,2.052,2.052,0,0,0-.577,1.089,2.726,2.726,0,0,0,.465,1.139s-.617-.658-1.089-.576a4.617,4.617,0,0,0-1.14.466s.6-.66.577-1.088A3.417,3.417,0,0,0,397.258,248.477Z" transform="translate(-349.191 -173.108)" fill="#fff"/>
      </g>
      <g id="Grupo_102" data-name="Grupo 102" transform="translate(182.849 9.478)">
        <path id="Caminho_388" data-name="Caminho 388" d="M347.482,56.211s1.333-6.665-.066-8.823-6.807-5.614-6.807-5.614,5.78,1.661,8.82-.063,5.615-6.808,5.615-6.808-2.047,6.155.064,8.823,6.811,5.614,6.811,5.614-6.205-1.555-8.827.062S347.482,56.211,347.482,56.211Z" transform="translate(-245.706 -19.014)" fill="#fff"/>
        <path id="Caminho_389" data-name="Caminho 389" d="M276.652,100.635s2.045-2.531,1.928-3.756a15.248,15.248,0,0,0-1.639-3.893s2.084,1.987,3.756,1.932a9.31,9.31,0,0,0,3.893-1.641s-2.235,2.154-1.935,3.755a16.1,16.1,0,0,0,1.645,3.892s-2.289-2.036-3.759-1.932A11.815,11.815,0,0,0,276.652,100.635Z" transform="translate(-238.958 -25.142)" fill="#fff"/>
        <path id="Caminho_390" data-name="Caminho 390" d="M252.23,23.037s-.724-1.5-1.314-1.714a7.854,7.854,0,0,0-2.157-.089s1.369-.529,1.71-1.315a4.784,4.784,0,0,0,.09-2.158s.507,1.5,1.314,1.711a8.142,8.142,0,0,0,2.158.089s-1.439.613-1.713,1.318A6.052,6.052,0,0,0,252.23,23.037Z" transform="translate(-236.015 -17.206)" fill="#fff"/>
        <path id="Caminho_391" data-name="Caminho 391" d="M235.473,58.642s.189-.93-.011-1.231a4.407,4.407,0,0,0-.95-.784,2.037,2.037,0,0,0,1.234-.01,2.722,2.722,0,0,0,.783-.95s-.287.86.008,1.232a4.7,4.7,0,0,0,.953.784,2.211,2.211,0,0,0-1.233.007A3.483,3.483,0,0,0,235.473,58.642Z" transform="translate(-234.512 -21.205)" fill="#fff"/>
        <path id="Caminho_392" data-name="Caminho 392" d="M343.646,118.829s2.045-2.529,1.933-3.755a15.336,15.336,0,0,0-1.644-3.892s2.086,1.988,3.754,1.932a9.328,9.328,0,0,0,3.895-1.642s-2.236,2.156-1.929,3.757a15.867,15.867,0,0,0,1.641,3.891s-2.286-2.036-3.756-1.931A11.823,11.823,0,0,0,343.646,118.829Z" transform="translate(-246.026 -27.062)" fill="#fff"/>
        <path id="Caminho_393" data-name="Caminho 393" d="M391.437,60.08s-.722-1.5-1.316-1.712a7.817,7.817,0,0,0-2.156-.089s1.375-.53,1.71-1.317a4.783,4.783,0,0,0,.091-2.156s.507,1.5,1.309,1.712a8.227,8.227,0,0,0,2.162.09s-1.44.611-1.71,1.314A6.073,6.073,0,0,0,391.437,60.08Z" transform="translate(-250.702 -21.114)" fill="#fff"/>
        <path id="Caminho_394" data-name="Caminho 394" d="M309.85,86.2s-.724-1.5-1.314-1.711a7.869,7.869,0,0,0-2.159-.089s1.377-.531,1.71-1.316a4.722,4.722,0,0,0,.089-2.157s.512,1.5,1.319,1.711a8.148,8.148,0,0,0,2.159.089s-1.443.614-1.716,1.315A6.1,6.1,0,0,0,309.85,86.2Z" transform="translate(-242.094 -23.87)" fill="#fff"/>
        <path id="Caminho_395" data-name="Caminho 395" d="M363.056,73.858s.185-.93-.008-1.234a4.556,4.556,0,0,0-.952-.783,2.037,2.037,0,0,0,1.234-.01,2.737,2.737,0,0,0,.781-.951s-.287.86.009,1.233a4.677,4.677,0,0,0,.948.784s-.863-.217-1.232.009A3.464,3.464,0,0,0,363.056,73.858Z" transform="translate(-247.973 -22.81)" fill="#fff"/>
        <path id="Caminho_396" data-name="Caminho 396" d="M304.467,28.384s.812-.486.909-.834a4.431,4.431,0,0,0-.062-1.229s.374.753.835.905a2.7,2.7,0,0,0,1.23-.057s-.828.367-.905.834a4.73,4.73,0,0,0,.054,1.232s-.419-.788-.83-.909A3.459,3.459,0,0,0,304.467,28.384Z" transform="translate(-241.893 -18.109)" fill="#fff"/>
        <path id="Caminho_397" data-name="Caminho 397" d="M342.363,19.2s.811-.486.905-.833a4.509,4.509,0,0,0-.059-1.23s.372.753.833.906a2.724,2.724,0,0,0,1.23-.057s-.826.366-.9.833a4.854,4.854,0,0,0,.055,1.23s-.42-.786-.834-.905A3.408,3.408,0,0,0,342.363,19.2Z" transform="translate(-245.891 -17.14)" fill="#fff"/>
      </g>
      <g id="Grupo_103" data-name="Grupo 103" transform="translate(36.072 0)">
        <path id="Caminho_398" data-name="Caminho 398" d="M133.177,61.057s-5.521-3.957-5.975-6.49,1.143-8.75,1.143-8.75-3.094,5.163-6.494,5.979-8.747-1.142-8.747-1.142,5.7,3.1,5.978,6.489-1.144,8.752-1.144,8.752,3.472-5.37,6.494-5.981S133.177,61.057,133.177,61.057Z" transform="translate(-74.926 -10.687)" fill="#fff"/>
        <path id="Caminho_399" data-name="Caminho 399" d="M160.926,72.875s-3.223-.453-3.975-1.427a15.321,15.321,0,0,1-1.458-3.964s-.166,2.875-1.428,3.976a9.318,9.318,0,0,1-3.964,1.457s3.106.048,3.978,1.425a16.131,16.131,0,0,1,1.455,3.964s.277-3.048,1.426-3.974A11.831,11.831,0,0,1,160.926,72.875Z" transform="translate(-78.829 -12.973)" fill="#fff"/>
        <path id="Caminho_400" data-name="Caminho 400" d="M131.719,11.538s-.494-1.587-.209-2.148a7.817,7.817,0,0,1,1.515-1.539,3.562,3.562,0,0,1-2.148.21,4.77,4.77,0,0,1-1.538-1.517s.654,1.446.207,2.149a8.163,8.163,0,0,1-1.513,1.538s1.47-.535,2.151-.207A6.084,6.084,0,0,1,131.719,11.538Z" transform="translate(-76.501 -6.544)" fill="#fff"/>
        <path id="Caminho_401" data-name="Caminho 401" d="M162.732,43.748s-.773-.549-.839-.9a4.442,4.442,0,0,1,.165-1.221s-.432.719-.907.834a2.727,2.727,0,0,1-1.225-.16s.8.434.838.906a4.811,4.811,0,0,1-.164,1.223s.486-.75.908-.835A3.459,3.459,0,0,1,162.732,43.748Z" transform="translate(-79.866 -10.245)" fill="#fff"/>
        <path id="Caminho_402" data-name="Caminho 402" d="M100.239,126.479s-3.222-.452-3.975-1.427a15.318,15.318,0,0,1-1.459-3.964s-.162,2.875-1.426,3.977a9.309,9.309,0,0,1-3.964,1.457s3.108.05,3.975,1.426a15.923,15.923,0,0,1,1.458,3.965s.28-3.048,1.427-3.976A11.809,11.809,0,0,1,100.239,126.479Z" transform="translate(-72.427 -18.629)" fill="#fff"/>
        <path id="Caminho_403" data-name="Caminho 403" d="M74.112,102.565s-.493-1.588-.211-2.146a7.963,7.963,0,0,1,1.516-1.539,3.582,3.582,0,0,1-2.148.208,4.765,4.765,0,0,1-1.537-1.516s.651,1.446.208,2.149a8.213,8.213,0,0,1-1.517,1.539s1.471-.537,2.149-.206A5.989,5.989,0,0,1,74.112,102.565Z" transform="translate(-70.423 -16.148)" fill="#fff"/>
        <path id="Caminho_404" data-name="Caminho 404" d="M137.717,93s-.494-1.587-.209-2.148a7.856,7.856,0,0,1,1.514-1.54,3.554,3.554,0,0,1-2.147.21,4.74,4.74,0,0,1-1.536-1.514s.651,1.445.2,2.146a8.14,8.14,0,0,1-1.517,1.539s1.479-.533,2.153-.207A6.055,6.055,0,0,1,137.717,93Z" transform="translate(-77.133 -15.139)" fill="#fff"/>
        <path id="Caminho_405" data-name="Caminho 405" d="M117.579,104.205s-.77-.554-.836-.907a4.376,4.376,0,0,1,.16-1.219s-.429.719-.9.835a2.748,2.748,0,0,1-1.225-.16s.8.429.834.906a4.534,4.534,0,0,1-.161,1.218s.488-.748.91-.833A3.43,3.43,0,0,1,117.579,104.205Z" transform="translate(-75.102 -16.623)" fill="#fff"/>
        <path id="Caminho_406" data-name="Caminho 406" d="M107.422,36.154s-.928.2-1.233.009a4.551,4.551,0,0,1-.8-.937,2.054,2.054,0,0,1,.013,1.232,2.731,2.731,0,0,1-.941.8s.854-.3,1.233-.009a4.716,4.716,0,0,1,.8.939s-.228-.864-.008-1.233A3.422,3.422,0,0,1,107.422,36.154Z" transform="translate(-74.014 -9.57)" fill="#fff"/>
        <path id="Caminho_407" data-name="Caminho 407" d="M96.077,83.526s-.924.2-1.228.013a4.571,4.571,0,0,1-.8-.939,2.027,2.027,0,0,1,.011,1.23,2.67,2.67,0,0,1-.941.8s.857-.3,1.233-.012a4.626,4.626,0,0,1,.8.938s-.227-.862-.007-1.23A3.424,3.424,0,0,1,96.077,83.526Z" transform="translate(-72.818 -14.568)" fill="#fff"/>
      </g>
      <g id="Grupo_104" data-name="Grupo 104" transform="translate(0 114.497)">
        <path id="Caminho_408" data-name="Caminho 408" d="M64.2,195.114s-3.412-5.878-2.785-8.373,4.637-7.506,4.637-7.506-4.938,3.434-8.372,2.782-7.51-4.634-7.51-4.634,3.921,5.167,2.788,8.371-4.639,7.509-4.639,7.509,5.369-3.47,8.372-2.783S64.2,195.114,64.2,195.114Z" transform="translate(-32.018 -139.065)" fill="#fff"/>
        <path id="Caminho_409" data-name="Caminho 409" d="M122.117,221.35s-2.751-1.735-3.04-2.933a15.46,15.46,0,0,1,.3-4.214s-1.33,2.554-2.93,3.04a9.314,9.314,0,0,1-4.218-.3s2.815,1.319,3.04,2.932a15.97,15.97,0,0,1-.3,4.214s1.51-2.663,2.935-3.039A11.8,11.8,0,0,1,122.117,221.35Z" transform="translate(-38.761 -142.95)" fill="#fff"/>
        <path id="Caminho_410" data-name="Caminho 410" d="M120.583,140.078s.2-1.65.693-2.044a7.877,7.877,0,0,1,2.013-.78,3.57,3.57,0,0,1-2.044-.693,4.763,4.763,0,0,1-.781-2.015s0,1.59-.694,2.046a8.082,8.082,0,0,1-2.01.78s1.56.115,2.042.692A6.07,6.07,0,0,1,120.583,140.078Z" transform="translate(-39.345 -134.546)" fill="#fff"/>
        <path id="Caminho_411" data-name="Caminho 411" d="M148.187,168.394s-.477-.822-.39-1.169a4.5,4.5,0,0,1,.647-1.048,2.043,2.043,0,0,1-1.17.389,2.738,2.738,0,0,1-1.047-.648s.548.721.387,1.17a4.709,4.709,0,0,1-.648,1.048s.75-.485,1.17-.389A3.462,3.462,0,0,1,148.187,168.394Z" transform="translate(-42.321 -137.856)" fill="#fff"/>
        <path id="Caminho_412" data-name="Caminho 412" d="M64.563,260.167s-2.756-1.738-3.04-2.935a15.536,15.536,0,0,1,.3-4.213s-1.332,2.556-2.932,3.041a9.327,9.327,0,0,1-4.216-.3s2.811,1.32,3.041,2.932a16.132,16.132,0,0,1-.3,4.213s1.5-2.663,2.934-3.039A11.82,11.82,0,0,1,64.563,260.167Z" transform="translate(-32.689 -147.045)" fill="#fff"/>
        <path id="Caminho_413" data-name="Caminho 413" d="M52.636,322.806s.2-1.651.691-2.043a7.865,7.865,0,0,1,2.013-.78,3.558,3.558,0,0,1-2.041-.7,4.731,4.731,0,0,1-.782-2.012s0,1.586-.7,2.044a8.233,8.233,0,0,1-2.009.779s1.557.115,2.044.7A6.039,6.039,0,0,1,52.636,322.806Z" transform="translate(-32.176 -153.825)" fill="#fff"/>
        <path id="Caminho_414" data-name="Caminho 414" d="M86.392,218.442s.206-1.651.693-2.045a7.911,7.911,0,0,1,2.016-.779,3.585,3.585,0,0,1-2.049-.694,4.8,4.8,0,0,1-.777-2.013s0,1.586-.692,2.044a8.139,8.139,0,0,1-2.013.78s1.562.116,2.044.693A6.044,6.044,0,0,1,86.392,218.442Z" transform="translate(-35.738 -142.814)" fill="#fff"/>
        <path id="Caminho_415" data-name="Caminho 415" d="M32.315,223.913s-.478-.822-.39-1.17a4.472,4.472,0,0,1,.649-1.047,2.045,2.045,0,0,1-1.17.386,2.707,2.707,0,0,1-1.05-.646s.55.718.39,1.168a4.6,4.6,0,0,1-.649,1.048s.75-.484,1.166-.389A3.417,3.417,0,0,1,32.315,223.913Z" transform="translate(-30.096 -143.713)" fill="#fff"/>
        <path id="Caminho_416" data-name="Caminho 416" d="M73.084,161.939s-.928-.2-1.13-.5a4.48,4.48,0,0,1-.342-1.182,2.023,2.023,0,0,1-.5,1.126,2.7,2.7,0,0,1-1.181.344s.9.077,1.128.495a4.748,4.748,0,0,1,.339,1.184s.145-.882.5-1.128A3.507,3.507,0,0,1,73.084,161.939Z" transform="translate(-34.299 -137.259)" fill="#fff"/>
        <path id="Caminho_417" data-name="Caminho 417" d="M34.253,165.46s-.928-.2-1.127-.5a4.505,4.505,0,0,1-.342-1.183,2.05,2.05,0,0,1-.495,1.127,2.723,2.723,0,0,1-1.188.343s.9.077,1.13.5a4.7,4.7,0,0,1,.339,1.184s.147-.881.5-1.127A3.4,3.4,0,0,1,34.253,165.46Z" transform="translate(-30.202 -137.63)" fill="#fff"/>
      </g>
    </g>
    <ellipse id="Elipse_25" data-name="Elipse 25" cx="64.21" cy="11.853" rx="64.21" ry="11.853" transform="translate(149.597 530.909)" opacity="0.098"/>
    <g id="Grupo_112" data-name="Grupo 112" transform="translate(106.051 355.726)">
      <g id="Grupo_111" data-name="Grupo 111" transform="translate(29.717 17.881)">
        <path id="Caminho_418" data-name="Caminho 418" d="M189.793,151.651c-10.929,0-20.79,9.918-35.537,9.918s-24.607-9.918-35.535-9.918c-21.606,0-45.021,30.83-41.853,55.571,3.533,27.584,34.24,110.74,55.436,110.74,10.466,0,10.411-20.776,15.764-43.073,2.446-10.191,7.338-11.414,9.781.815,4.579,22.888,8.562,42.258,18.355,42.258,21.2,0,52.514-88.567,55.439-110.74C234.905,182.493,210.843,151.651,189.793,151.651Z" transform="translate(-76.579 -151.651)" fill="#eff9ff" stroke="#35456b" stroke-width="2"/>
        <path id="Caminho_419" data-name="Caminho 419" d="M125.368,279.505c10.084.815,8.083-29.62,28.943-30.861,11.978-.709,17.273,5.25,19.04,14.49,1.868,9.772,1.174,18.9,11.685,18.273s39.221-45.926,38.442-74.659c-.357-13.134-5.917-27.909-12.094-39.466a22.414,22.414,0,0,0-20.727-11.624c-10.585.386-20.037,7.429-29.011,12.3-12.088,6.563-20.975-4.413-31.868-7.358-10.412-2.813-20.013-.046-26.9,8.562-8.317,10.4-8.458,25.772-5.441,38.181C99.64,216.393,115.284,278.689,125.368,279.505Z" transform="translate(-76.601 -151.656)" fill="#fff" opacity="0.7"/>
        <path id="Caminho_420" data-name="Caminho 420" d="M153.563,174.463c7.155.758,13.093-.984,19.907-2.929,6.62-1.889,13.893-3.03,20.28.3,13.061,6.821,19.243,23.7,21.7,37.337,1.479,8.2,2.526,16.564,1.286,24.86a56.344,56.344,0,0,1-1.659,7.406c5.154-11.8,8.714-24.326,8.433-34.693-.357-13.134-5.917-27.909-12.094-39.466a22.414,22.414,0,0,0-20.727-11.624c-10.585.386-20.037,7.429-29.011,12.3-12.088,6.563-20.975-4.413-31.868-7.358a31.437,31.437,0,0,0-3.753-.773C133.084,167.551,143.466,173.393,153.563,174.463Z" transform="translate(-76.635 -151.656)" fill="#fff"/>
        <path id="Caminho_421" data-name="Caminho 421" d="M133.821,165c5.434,4.406,12.5,5.634,19.314,4.427,8.159-1.445,17.192-5.768,20.214-12.75-5.632,2.456-11.736,4.892-19.044,4.892-13.978,0-23.565-8.9-33.834-9.835C124.949,156.125,128.909,161.021,133.821,165Z" transform="translate(-76.629 -151.651)" fill="#bee5fb" style="mix-blend-mode: multiply;isolation: isolate"/>
        <path id="Caminho_422" data-name="Caminho 422" d="M199.9,276.035c-3.99,5.931-14.759,13.444-23.063,11.193-8.152-2.208-8.849-13.665-10.407-20.35-.731-3.144-1.221-8.7-4.615-10.195a12.461,12.461,0,0,0-10.913.611,27.809,27.809,0,0,0-12.768,18.75c-1.052,6.892-2.305,16.68-11.208,16.866-4.68.1-7.072-5.041-9.819-8.216-4.44-5.127-24.277-40.184-39.6-73.394,5.621,30.823,34.554,106.728,54.8,106.728,10.466,0,10.411-20.776,15.764-43.073,2.446-10.191,7.338-11.414,9.781.815,4.579,22.888,8.562,42.258,18.355,42.258,15.315,0,35.911-46.234,47.266-80.256C215.932,253.208,208.637,263.047,199.9,276.035Z" transform="translate(-76.58 -151.718)" fill="#dff2fe" style="mix-blend-mode: multiply;isolation: isolate"/>
        <g id="Grupo_106" data-name="Grupo 106" transform="translate(42.744 49.721)">
          <path id="Caminho_423" data-name="Caminho 423" d="M135.268,209.376a7.949,7.949,0,1,1-7.948-7.948A7.948,7.948,0,0,1,135.268,209.376Z" transform="translate(-119.371 -201.428)" fill="#35456b"/>
          <path id="Caminho_424" data-name="Caminho 424" d="M132.628,211.73a2.343,2.343,0,1,1-2.343-2.345A2.344,2.344,0,0,1,132.628,211.73Z" transform="translate(-119.381 -201.437)" fill="#fff"/>
          <path id="Caminho_425" data-name="Caminho 425" d="M129.45,207.871a1.512,1.512,0,1,1-1.51-1.512A1.51,1.51,0,0,1,129.45,207.871Z" transform="translate(-119.379 -201.434)" fill="#fff"/>
        </g>
        <g id="Grupo_107" data-name="Grupo 107" transform="translate(100.46 49.721)">
          <path id="Caminho_426" data-name="Caminho 426" d="M177.153,209.376a7.949,7.949,0,1,0,7.948-7.948A7.948,7.948,0,0,0,177.153,209.376Z" transform="translate(-177.153 -201.428)" fill="#35456b"/>
          <path id="Caminho_427" data-name="Caminho 427" d="M179.805,211.73a2.344,2.344,0,1,0,2.345-2.345A2.344,2.344,0,0,0,179.805,211.73Z" transform="translate(-177.156 -201.437)" fill="#fff"/>
          <path id="Caminho_428" data-name="Caminho 428" d="M182.984,207.871a1.512,1.512,0,1,0,1.512-1.512A1.511,1.511,0,0,0,182.984,207.871Z" transform="translate(-177.16 -201.434)" fill="#fff"/>
        </g>
        <path id="Caminho_429" data-name="Caminho 429" d="M194.482,195.466c-1.9-7.473-14.5-7.609-15.353-.815" transform="translate(-76.695 -151.694)" fill="none" stroke="#35456b" stroke-linecap="round" stroke-linejoin="round" stroke-width="2.449"/>
        <path id="Caminho_430" data-name="Caminho 430" d="M118.741,195.466c1.9-7.473,14.5-7.609,15.353-.815" transform="translate(-76.627 -151.694)" fill="none" stroke="#35456b" stroke-linecap="round" stroke-linejoin="round" stroke-width="2.449"/>
        <g id="Grupo_108" data-name="Grupo 108" transform="translate(62.037 5.711)">
          <path id="Caminho_431" data-name="Caminho 431" d="M170.23,158.967s-.5.144-1.336.418c-.406.154-.886.307-1.461.544s-1.218.487-1.923.787a90.229,90.229,0,0,1-10.591,3.949c-.983.309-1.995.516-2.974.774-1,.19-1.965.426-2.92.565s-1.868.314-2.75.384-1.7.2-2.473.226l-2.095.11-1.616.005h-1.406l1.4-.071,1.609-.086,2.08-.213c.763-.059,1.578-.224,2.445-.347s1.769-.332,2.7-.515,1.882-.466,2.854-.7c.955-.3,1.938-.555,2.892-.909a88.977,88.977,0,0,0,10.273-4.426c.691-.335,1.335-.634,1.911-.9s1.11-.474,1.533-.658c.848-.325,1.327-.488,1.327-.488l.02-.006a.815.815,0,1,1,.53,1.542Z" transform="translate(-138.686 -157.368)" fill="#35456b"/>
        </g>
        <path id="Caminho_432" data-name="Caminho 432" d="M106.509,161.458c-1.289-.1-2.852,1.082-3.816,1.841a10.79,10.79,0,0,0-2.977,3.8.076.076,0,0,0,.131.078,13,13,0,0,1,3.247-3.361c1.068-.811,2.624-1.13,3.543-2.053A.184.184,0,0,0,106.509,161.458Z" transform="translate(-76.605 -151.662)" fill="#4b3956"/>
        <path id="Caminho_433" data-name="Caminho 433" d="M107.959,162.635a5.916,5.916,0,0,0-4.178,2.626c-.042.078.048.19.131.13a10.4,10.4,0,0,1,4.307-1.817C108.836,163.462,108.573,162.523,107.959,162.635Z" transform="translate(-76.61 -151.663)" fill="#4b3956"/>
        <path id="Caminho_434" data-name="Caminho 434" d="M106.375,271.137c-.626-.808-1.456-1.368-2.145-2.123a7.011,7.011,0,0,1-1.741-3.327c-.013-.069-.107-.044-.112.014-.251,2.266,1.435,5.445,3.931,5.6C106.4,271.306,106.42,271.2,106.375,271.137Z" transform="translate(-76.608 -151.78)" fill="#423656"/>
        <path id="Caminho_435" data-name="Caminho 435" d="M109.442,269.91c-1.194-1.061-2.876-1.5-3.865-2.828a.1.1,0,0,0-.174.074,4.109,4.109,0,0,0,3.964,2.933A.105.105,0,0,0,109.442,269.91Z" transform="translate(-76.612 -151.781)" fill="#423656"/>
        <path id="Caminho_436" data-name="Caminho 436" d="M207.714,259.052c-.716,1.433-.968,3.056-1.711,4.512-.721,1.412-1.758,2.613-2.6,3.946-.021.03.021.073.051.052,2.335-1.578,4.868-5.486,4.7-8.39C208.148,258.951,207.827,258.825,207.714,259.052Z" transform="translate(-76.722 -151.772)" fill="#423656"/>
        <path id="Caminho_437" data-name="Caminho 437" d="M206.448,256.681a.164.164,0,0,0-.3-.039,6.55,6.55,0,0,0-.739,2.487,16.065,16.065,0,0,1-.768,2.63c-.1.255.28.374.418.175C206.018,260.571,207.073,258.365,206.448,256.681Z" transform="translate(-76.724 -151.769)" fill="#423656"/>
        <path id="Caminho_438" data-name="Caminho 438" d="M192.891,156c-1.606-1.17-4.092-.915-5.823-.153-.079.035-.035.16.044.16.866,0,1.723-.089,2.59-.107,1.065-.02,2.066.286,3.12.369C192.976,156.284,193,156.081,192.891,156Z" transform="translate(-76.704 -151.655)" fill="#4b3956"/>
        <path id="Caminho_439" data-name="Caminho 439" d="M194.97,158.485a4.685,4.685,0,0,0-4.64-.684c-.173.058-.156.36.049.337a5.714,5.714,0,0,1,3.312.649c.326.168,1.233.892,1.4.149A.464.464,0,0,0,194.97,158.485Z" transform="translate(-76.707 -151.658)" fill="#4b3956"/>
        <path id="Caminho_440" data-name="Caminho 440" d="M144.146,230.129c0,13.659,20.382,13.659,20.382,0" transform="translate(-76.655 -151.74)" fill="none" stroke="#35456b" stroke-linecap="round" stroke-width="1.632"/>
        <path id="Caminho_441" data-name="Caminho 441" d="M195.091,226.182c0,2.176-3.421,3.939-7.642,3.939s-7.643-1.763-7.643-3.939,3.42-3.942,7.643-3.942S195.091,224,195.091,226.182Z" transform="translate(-76.696 -151.731)" fill="#f5b4b2"/>
        <path id="Caminho_442" data-name="Caminho 442" d="M134.061,226.182c0,2.176-3.421,3.939-7.643,3.939s-7.64-1.763-7.64-3.939,3.422-3.942,7.64-3.942S134.061,224,134.061,226.182Z" transform="translate(-76.627 -151.731)" fill="#f5b4b2"/>
        <path id="Caminho_443" data-name="Caminho 443" d="M163.852,228.5a3.846,3.846,0,0,0,2.717,2.717" transform="translate(-76.678 -151.738)" fill="none" stroke="#35456b" stroke-linecap="round" stroke-width="1.632"/>
        <path id="Caminho_444" data-name="Caminho 444" d="M156.01,242.708a12.837,12.837,0,0,1-2.579.331c-.256.006-1.246-.008-1.314.411-.093.579.633.982,1.109,1.1a5.35,5.35,0,0,0,3.249-.151A.88.88,0,0,0,156.01,242.708Z" transform="translate(-76.664 -151.754)" fill="#4b3956"/>
        <g id="Grupo_109" data-name="Grupo 109" transform="translate(100.291 68.25)">
          <path id="Caminho_445" data-name="Caminho 445" d="M178.069,221.688a.272.272,0,0,0,0,.543A.272.272,0,0,0,178.069,221.688Z" transform="translate(-176.984 -219.98)" fill="#35456b"/>
          <path id="Caminho_446" data-name="Caminho 446" d="M180.755,221.223a1.009,1.009,0,0,0,0,2.017A1.009,1.009,0,0,0,180.755,221.223Z" transform="translate(-176.986 -219.979)" fill="#35456b"/>
          <path id="Caminho_447" data-name="Caminho 447" d="M186.285,220.831a.51.51,0,0,0,0,1.019A.51.51,0,0,0,186.285,220.831Z" transform="translate(-176.993 -219.979)" fill="#35456b"/>
          <path id="Caminho_448" data-name="Caminho 448" d="M184.2,222.862a.783.783,0,0,0,0,1.564A.783.783,0,0,0,184.2,222.862Z" transform="translate(-176.99 -219.981)" fill="#35456b"/>
          <path id="Caminho_449" data-name="Caminho 449" d="M188.649,223.373a.87.87,0,0,0,0,1.74A.87.87,0,0,0,188.649,223.373Z" transform="translate(-176.995 -219.982)" fill="#35456b"/>
          <path id="Caminho_450" data-name="Caminho 450" d="M191.456,219.978a.691.691,0,0,0,0,1.381A.691.691,0,0,0,191.456,219.978Z" transform="translate(-176.999 -219.978)" fill="#35456b"/>
          <path id="Caminho_451" data-name="Caminho 451" d="M195.549,221.038a.54.54,0,0,0,0,1.08A.54.54,0,0,0,195.549,221.038Z" transform="translate(-177.003 -219.979)" fill="#35456b"/>
          <path id="Caminho_452" data-name="Caminho 452" d="M195.234,224.493a.22.22,0,0,0,0,.441A.22.22,0,0,0,195.234,224.493Z" transform="translate(-177.003 -219.983)" fill="#35456b"/>
          <path id="Caminho_453" data-name="Caminho 453" d="M180.165,226.227a.476.476,0,0,0,0,.952A.476.476,0,0,0,180.165,226.227Z" transform="translate(-176.986 -219.985)" fill="#35456b"/>
          <path id="Caminho_454" data-name="Caminho 454" d="M177.4,223.787a.431.431,0,0,0,0,.861A.431.431,0,0,0,177.4,223.787Z" transform="translate(-176.983 -219.982)" fill="#35456b"/>
          <path id="Caminho_455" data-name="Caminho 455" d="M184.344,227.055a.124.124,0,0,0,0,.249A.124.124,0,0,0,184.344,227.055Z" transform="translate(-176.991 -219.986)" fill="#35456b"/>
          <path id="Caminho_456" data-name="Caminho 456" d="M187.586,226.25a.227.227,0,0,0,0,.453A.227.227,0,0,0,187.586,226.25Z" transform="translate(-176.995 -219.985)" fill="#35456b"/>
        </g>
        <g id="Grupo_110" data-name="Grupo 110" transform="translate(41.159 68.25)">
          <path id="Caminho_457" data-name="Caminho 457" d="M118.87,221.688a.272.272,0,0,0,0,.543A.272.272,0,0,0,118.87,221.688Z" transform="translate(-117.786 -219.98)" fill="#35456b"/>
          <path id="Caminho_458" data-name="Caminho 458" d="M121.555,221.223a1.009,1.009,0,0,0,0,2.017A1.009,1.009,0,0,0,121.555,221.223Z" transform="translate(-117.788 -219.979)" fill="#35456b"/>
          <path id="Caminho_459" data-name="Caminho 459" d="M127.087,220.831a.51.51,0,0,0,0,1.019A.51.51,0,0,0,127.087,220.831Z" transform="translate(-117.795 -219.979)" fill="#35456b"/>
          <path id="Caminho_460" data-name="Caminho 460" d="M125,222.862a.783.783,0,0,0,0,1.564A.783.783,0,0,0,125,222.862Z" transform="translate(-117.792 -219.981)" fill="#35456b"/>
          <path id="Caminho_461" data-name="Caminho 461" d="M129.449,223.373a.871.871,0,0,0,0,1.74A.871.871,0,0,0,129.449,223.373Z" transform="translate(-117.797 -219.982)" fill="#35456b"/>
          <path id="Caminho_462" data-name="Caminho 462" d="M132.259,219.978a.691.691,0,0,0,0,1.381A.691.691,0,0,0,132.259,219.978Z" transform="translate(-117.8 -219.978)" fill="#35456b"/>
          <path id="Caminho_463" data-name="Caminho 463" d="M136.349,221.038a.54.54,0,0,0,0,1.08A.54.54,0,0,0,136.349,221.038Z" transform="translate(-117.805 -219.979)" fill="#35456b"/>
          <path id="Caminho_464" data-name="Caminho 464" d="M136.035,224.493a.22.22,0,0,0,0,.441A.22.22,0,0,0,136.035,224.493Z" transform="translate(-117.805 -219.983)" fill="#35456b"/>
          <path id="Caminho_465" data-name="Caminho 465" d="M120.965,226.227a.476.476,0,0,0,0,.952A.476.476,0,0,0,120.965,226.227Z" transform="translate(-117.788 -219.985)" fill="#35456b"/>
          <path id="Caminho_466" data-name="Caminho 466" d="M118.2,223.787a.431.431,0,0,0,0,.861A.431.431,0,0,0,118.2,223.787Z" transform="translate(-117.785 -219.982)" fill="#35456b"/>
          <path id="Caminho_467" data-name="Caminho 467" d="M125.146,227.055a.124.124,0,0,0,0,.249A.124.124,0,0,0,125.146,227.055Z" transform="translate(-117.793 -219.986)" fill="#35456b"/>
          <path id="Caminho_468" data-name="Caminho 468" d="M128.388,226.25a.227.227,0,0,0,0,.453A.227.227,0,0,0,128.388,226.25Z" transform="translate(-117.796 -219.985)" fill="#35456b"/>
        </g>
      </g>
      <path id="Caminho_469" data-name="Caminho 469" d="M230.918,202.687c9.063-.1,46.27-20.585,25.328-58.547" transform="translate(-47.036 -133.762)" fill="none" stroke="#35456b" stroke-linecap="round" stroke-linejoin="round" stroke-width="2"/>
      <path id="Caminho_470" data-name="Caminho 470" d="M227.957,199.259c.614-2.585,8.363-3.845,8.363-3.845s5.189,6.611,2.311,12.125a11.538,11.538,0,0,1-9.216,1.568" transform="translate(-47.033 -133.819)" fill="#eff9ff" stroke="#35456b" stroke-linecap="round" stroke-width="2"/>
      <path id="Caminho_471" data-name="Caminho 471" d="M256.964,145.208c4.3-2.115,1.749-8.753.529-10.069-1.857-2-5.476-1.723-6.327.084-.771,1.647.833,5.665.833,5.665s-2.541.309-2.068.991C251.507,144.153,254.468,146.435,256.964,145.208Z" transform="translate(-47.058 -133.75)" fill="#eff9ff" stroke="#35456b" stroke-width="2"/>
      <path id="Caminho_472" data-name="Caminho 472" d="M78.458,202.687c-9.064-.1-46.27-20.585-25.328-58.547" transform="translate(-46.829 -133.762)" fill="none" stroke="#35456b" stroke-linecap="round" stroke-linejoin="round" stroke-width="2"/>
      <path id="Caminho_473" data-name="Caminho 473" d="M81.442,199.259c-.613-2.585-8.362-3.845-8.362-3.845s-5.189,6.611-2.313,12.125a11.542,11.542,0,0,0,9.217,1.568" transform="translate(-46.855 -133.819)" fill="#eff9ff" stroke="#35456b" stroke-linecap="round" stroke-width="1.632"/>
      <path id="Caminho_474" data-name="Caminho 474" d="M52.436,145.208c-4.3-2.115-1.748-8.753-.528-10.069,1.858-2,5.477-1.723,6.325.084.773,1.647-.832,5.665-.832,5.665s2.541.309,2.07.991C57.894,144.153,54.934,146.435,52.436,145.208Z" transform="translate(-46.832 -133.75)" fill="#eff9ff" stroke="#35456b" stroke-width="2"/>
    </g>
  </g>
</svg>
