<svg width="53" height="52" viewBox="0 0 53 52" fill="none" xmlns="http://www.w3.org/2000/svg">
<path id="001-dental-veneer" d="M26.4998 0.164795C17.5436 0.164795 0.60498 1.42778 0.60498 6.20696V13.1124C0.606587 13.7262 0.93559 14.2926 1.46786 14.5987V15.7019C1.46786 17.132 2.6272 18.2913 4.05771 18.2913H5.07966C5.44402 19.3221 6.41657 20.013 7.51003 20.0179H10.0999C10.5458 20.015 10.9836 19.8961 11.3693 19.6724C11.8417 20.4232 12.6656 20.8791 13.5522 20.8807H17.0049C17.4512 20.8783 17.8887 20.7594 18.2747 20.5357C18.7467 21.2861 19.5711 21.7424 20.4576 21.744H24.7737C25.4128 21.7416 26.0282 21.5018 26.4998 21.0707C26.7196 21.2724 26.9726 21.4339 27.2474 21.5488C21.5929 23.7526 14.6356 28.4233 10.1091 32.0018C4.25615 36.6138 0.913094 41.3701 0.691349 45.4025C0.686127 45.4383 0.683315 45.4744 0.682511 45.5106V45.5692C0.599758 47.0146 0.997053 48.4467 1.81333 49.6426V49.6538C1.8519 49.7133 1.89609 49.7691 1.9455 49.8202C1.95313 49.829 1.96157 49.835 1.9696 49.8438L1.99009 49.8627C2.96545 50.8935 4.2449 51.5853 5.64126 51.8368C6.20607 51.948 6.78092 52.0027 7.35657 51.9998C11.1226 51.9998 15.889 49.8523 21.0068 45.8119C26.9124 41.1548 33.6503 34.5257 36.4266 29.5127H36.531C38.1796 29.5107 39.5153 28.1746 39.5173 26.526V20.8739C40.3778 20.8506 41.1704 20.4003 41.6303 19.6724C42.0164 19.8961 42.4543 20.015 42.9002 20.0179H45.4896C46.5831 20.013 47.556 19.3221 47.9204 18.2913H48.9423C50.3724 18.2913 51.5318 17.132 51.5318 15.7019V14.5987C52.064 14.2926 52.393 13.7262 52.3951 13.1124V6.20696C52.3951 1.42778 35.456 0.164795 26.4998 0.164795ZM26.4998 1.89096C42.1381 1.89096 50.6685 4.7395 50.6685 6.20696V11.3232C50.2495 10.9428 49.7008 10.7363 49.1348 10.7463C48.5792 10.7479 48.0393 10.9295 47.5958 11.2641C46.9739 10.167 45.7909 9.50945 44.5307 9.56046C43.3521 9.56287 42.2293 10.061 41.4363 10.9327C40.7293 9.78141 39.4502 9.10773 38.1009 9.17643C36.854 9.18004 35.6593 9.67656 34.7767 10.5575C34.6908 10.6435 34.6269 10.7447 34.5489 10.8371C33.7897 9.50663 32.3455 8.71727 30.8158 8.7964C29.44 8.7948 28.1199 9.34073 27.1466 10.3133C26.9043 10.5579 26.6866 10.8255 26.4966 11.1123C25.5377 9.66692 23.9188 8.79761 22.1842 8.7964C20.6597 8.71727 19.2196 9.50021 18.4579 10.823C17.5669 9.78221 16.2654 9.18285 14.8955 9.18325C13.549 9.11657 12.2735 9.78904 11.5669 10.9371C10.7744 10.065 9.65116 9.56649 8.47253 9.56368C7.21115 9.51145 6.0265 10.1695 5.40425 11.2677C4.96076 10.9331 4.42045 10.7515 3.86488 10.7499C3.29927 10.7391 2.75093 10.944 2.33114 11.3232V6.20696C2.33114 4.7395 10.8619 1.89096 26.4998 1.89096ZM33.4053 14.0617C30.4635 14.528 28.2818 17.04 28.2324 20.0179H28.2264C27.7495 20.0179 27.3631 19.6314 27.3631 19.1546V13.9757C27.3595 13.0586 27.7218 12.1784 28.3702 11.5301C29.0186 10.8817 29.8991 10.519 30.8158 10.523C31.5124 10.4892 32.1909 10.7511 32.6838 11.2444C33.1771 11.7373 33.439 12.4158 33.4053 13.1124V14.0617ZM31.2127 29.5127H31.4582C27.668 33.3005 23.6336 36.8356 19.3807 40.0951C14.5167 43.9355 10.0581 45.9645 6.69174 45.9103C7.42125 42.619 10.4305 38.7538 15.2908 34.9118C19.4003 31.5691 23.7212 28.4948 28.2264 25.7085V26.526C28.228 28.1746 29.5641 29.5107 31.2127 29.5127ZM3.19442 15.7019V13.3996C3.19442 13.2454 3.22616 12.4729 3.86488 12.4729C4.5249 12.5801 4.98727 13.1823 4.92059 13.8479V16.5651H4.05771C3.58087 16.5651 3.19442 16.1787 3.19442 15.7019ZM10.0999 18.2913H7.51003C7.0336 18.2913 6.64715 17.9048 6.64715 17.428V13.1124C6.61541 12.6199 6.79699 12.1379 7.14567 11.7888C7.49476 11.4401 7.97682 11.2585 8.46932 11.2902C9.84599 11.2914 10.9615 12.4074 10.9628 13.7841V17.428C10.9628 17.9048 10.5763 18.2913 10.0999 18.2913ZM17.0049 19.1546H13.5522C13.0758 19.1546 12.6893 18.7681 12.6893 18.2913V13.1124C12.6604 12.5187 12.8833 11.9406 13.3035 11.5204C13.7237 11.1002 14.3018 10.8773 14.8955 10.9062C16.5369 10.9078 17.867 12.2383 17.8682 13.8797V18.2913C17.8682 18.7681 17.4818 19.1546 17.0049 19.1546ZM24.7737 20.0179H20.4576C19.9812 20.0179 19.5948 19.6314 19.5948 19.1546V13.1124C19.561 12.4158 19.8229 11.7373 20.3158 11.2444C20.8091 10.7511 21.4876 10.4892 22.1842 10.523C24.0911 10.523 25.6369 12.0688 25.6369 13.9757V19.1546C25.6369 19.6314 25.2505 20.0179 24.7737 20.0179ZM11.1785 33.3571C17.0672 28.7013 23.5918 24.7601 28.2264 23.0215V23.7208C23.3203 26.6509 18.6379 29.9402 14.217 33.5608C8.91442 37.7471 5.7457 41.9112 4.97241 45.6676C4.0573 45.4178 3.2354 44.906 2.60752 44.195C3.39046 40.9331 6.37519 37.1421 11.1785 33.3571ZM19.9398 44.4585C14.4155 48.8215 9.46195 50.8425 5.92648 50.1423C4.90291 49.9503 3.96652 49.4397 3.25026 48.6837C2.77463 47.9936 2.49143 47.1889 2.42956 46.353C3.36114 47.0049 4.43732 47.4195 5.56534 47.5613H5.65251C9.62304 48.0663 14.734 45.9577 20.4524 41.4432C28.1746 35.346 33.1413 30.7191 35.5797 27.3355C33.7194 31.9439 26.4998 39.2828 19.9398 44.4585ZM37.7904 26.526C37.7896 26.8884 37.6325 27.2326 37.3585 27.4704C37.4104 27.3202 37.475 27.1639 37.5164 27.0189C37.7249 26.2533 37.3457 25.4498 36.6226 25.124C35.8991 24.7978 35.0463 25.0457 34.6104 25.7085C34.1263 26.4336 33.5973 27.1274 33.0265 27.7862H31.2135C30.5178 27.7858 29.9537 27.2218 29.9525 26.526V20.1472C29.9473 17.7353 31.8735 15.7625 34.285 15.7103C34.3228 15.7115 34.3605 15.7087 34.3979 15.7019C35.3094 15.6561 36.1976 15.9979 36.8435 16.6423C37.4895 17.2866 37.8334 18.174 37.7904 19.0855V26.526ZM40.3107 18.2913C40.3079 18.738 39.962 19.108 39.5165 19.1405V19.0855C39.6278 16.5021 37.7044 14.2802 35.1318 14.0203V13.8805C35.129 13.0915 35.4408 12.3335 35.9979 11.7747C36.5551 11.2159 37.3119 10.9022 38.1009 10.9026C38.6954 10.8741 39.2743 11.0974 39.6949 11.5184C40.1159 11.939 40.3392 12.5179 40.3107 13.1124V18.2913ZM46.3529 17.428C46.3529 17.9048 45.9664 18.2913 45.4896 18.2913H42.9002C42.4233 18.2913 42.0369 17.9048 42.0369 17.428V13.7841C42.0385 12.4074 43.154 11.2914 44.5307 11.2902C45.0232 11.2585 45.5053 11.4401 45.854 11.7888C46.203 12.1379 46.3846 12.6199 46.3529 13.1124V17.428ZM49.8056 15.7019C49.8056 16.1787 49.4192 16.5651 48.9423 16.5651H48.079V13.8479C48.0124 13.1823 48.4751 12.5801 49.1348 12.4729C49.7735 12.4729 49.8056 13.2454 49.8056 13.3996V15.7019Z" fill="white"/>
</svg>
