<svg width="54" height="53" viewBox="0 0 54 53" fill="none" xmlns="http://www.w3.org/2000/svg">
<g id="002-idea">
<g id="Grupo 521">
<g id="Grupo 520">
<path id="Caminho 1249" d="M39.0106 5.26394C35.8143 2.09014 31.5825 0.346924 27.0811 0.346924C27.0403 0.346924 26.9987 0.347027 26.958 0.347335C22.5632 0.37829 18.4023 2.10012 15.2414 5.19566C12.08 8.29182 10.273 12.4161 10.1536 16.8084C10.0291 21.3856 11.7057 25.7208 14.8745 29.0154C17.3699 31.6098 18.7441 35.0606 18.7441 38.7322V45.7954C18.7441 47.2466 19.7516 48.4661 21.1036 48.7932V49.735C21.1036 51.5354 22.5683 53.0002 24.3687 53.0002H29.7677C31.5681 53.0002 33.0328 51.5354 33.0328 49.735V48.7987C34.3966 48.48 35.4157 47.2549 35.4157 45.7954V38.7324C35.4157 35.1088 36.8277 31.6182 39.3917 28.9036C42.3716 25.7489 44.0127 21.6207 44.0127 17.2796C44.0127 12.7341 42.2363 8.46685 39.0106 5.26394ZM30.9762 49.7351C30.9762 50.4014 30.4341 50.9435 29.7678 50.9435H24.3688C23.7025 50.9435 23.1604 50.4014 23.1604 49.7351V48.8802H30.9762V49.7351ZM33.359 45.7954C33.359 46.3622 32.8979 46.8235 32.331 46.8235H32.0046H22.132H21.8291C21.2621 46.8235 20.801 46.3622 20.801 45.7954V39.9465H33.359V45.7954ZM25.4645 37.8897V24.8819H28.6684V37.8896L25.4645 37.8897ZM37.8967 27.4913C35.1692 30.379 33.5838 34.0435 33.3813 37.8896H30.7251V24.8819H31.6495C33.2932 24.8819 34.6306 23.5446 34.6306 21.9008V21.7414C34.6306 20.0975 33.2932 18.7602 31.6495 18.7602C30.0057 18.7602 28.6684 20.0975 28.6684 21.7414V22.8252H25.4645V21.7414C25.4645 20.0975 24.1272 18.7602 22.4834 18.7602H22.2809C20.6371 18.7602 19.2998 20.0975 19.2998 21.7414V21.9008C19.2998 23.5445 20.6371 24.8819 22.2809 24.8819H23.4078V37.8896H20.7798C20.5835 33.9999 19.0305 30.3692 16.3569 27.5896C13.5731 24.6953 12.1001 20.8863 12.2097 16.8643C12.425 8.9468 19.0475 2.45995 26.9724 2.40401C30.9723 2.37593 34.7279 3.90987 37.5615 6.72343C40.3955 9.5373 41.956 13.2863 41.956 17.2796C41.956 21.0935 40.5143 24.72 37.8967 27.4913ZM30.7251 22.8252V21.7414C30.7251 21.2316 31.1398 20.8169 31.6495 20.8169C32.1592 20.8169 32.5739 21.2317 32.5739 21.7414V21.9008C32.5739 22.4105 32.1592 22.8252 31.6495 22.8252H30.7251ZM23.4077 21.7414V22.8252H22.2808C21.7711 22.8252 21.3564 22.4105 21.3564 21.9008V21.7414C21.3564 21.2316 21.7711 20.8169 22.2808 20.8169H22.4833C22.993 20.8169 23.4077 21.2318 23.4077 21.7414Z" fill="white"/>
</g>
</g>
<g id="Grupo 523">
<g id="Grupo 522">
<path id="Caminho 1250" d="M38.1036 12.8278C37.2202 10.6347 35.7177 8.76827 33.7588 7.43034C31.7507 6.05899 29.397 5.34324 26.958 5.36041C26.39 5.36441 25.9328 5.82812 25.9368 6.39609C25.9408 6.96161 26.4005 7.41718 26.9649 7.41718C26.9674 7.41718 26.97 7.41718 26.9724 7.41718C26.9965 7.41707 27.0201 7.41697 27.0441 7.41697C31.0938 7.41697 34.6811 9.83625 36.1959 13.5963C36.3574 13.9972 36.7429 14.2407 37.1501 14.2407C37.278 14.2407 37.4082 14.2168 37.5341 14.166C38.0608 13.9537 38.316 13.3546 38.1036 12.8278Z" fill="white"/>
</g>
</g>
<g id="Grupo 525">
<g id="Grupo 524">
<path id="Caminho 1251" d="M38.6623 16.552C38.471 16.3608 38.2057 16.2507 37.9352 16.2507C37.6648 16.2507 37.3995 16.3608 37.2082 16.552C37.0159 16.7433 36.9069 17.0087 36.9069 17.2791C36.9069 17.5506 37.0159 17.8149 37.2082 18.0062C37.3995 18.1985 37.6638 18.3075 37.9352 18.3075C38.2057 18.3075 38.471 18.1985 38.6623 18.0062C38.8535 17.8149 38.9636 17.5506 38.9636 17.2791C38.9636 17.0087 38.8536 16.7433 38.6623 16.552Z" fill="white"/>
</g>
</g>
<g id="Grupo 527">
<g id="Grupo 526">
<path id="Caminho 1252" d="M48.503 5.46916C48.1013 5.06757 47.4503 5.06757 47.0485 5.46916L45.1325 7.38514C44.7309 7.78673 44.7309 8.4379 45.1325 8.83959C45.3333 9.04043 45.5965 9.1408 45.8598 9.1408C46.123 9.1408 46.3861 9.04043 46.5869 8.83959L48.503 6.9236C48.9045 6.52202 48.9045 5.87084 48.503 5.46916Z" fill="white"/>
</g>
</g>
<g id="Grupo 529">
<g id="Grupo 528">
<path id="Caminho 1253" d="M48.5028 27.6359L46.5869 25.7199C46.1854 25.3183 45.5344 25.3183 45.1325 25.7199C44.7309 26.1215 44.7309 26.7727 45.1325 27.1742L47.0485 29.0902C47.2494 29.2911 47.5125 29.3914 47.7757 29.3914C48.0388 29.3914 48.302 29.291 48.5028 29.0902C48.9044 28.6886 48.9044 28.0375 48.5028 27.6359Z" fill="white"/>
</g>
</g>
<g id="Grupo 531">
<g id="Grupo 530">
<path id="Caminho 1254" d="M52.3666 16.2512H49.6569C49.089 16.2512 48.6285 16.7116 48.6285 17.2796C48.6285 17.8476 49.089 18.308 49.6569 18.308H52.3666C52.9345 18.308 53.395 17.8476 53.395 17.2796C53.395 16.7116 52.9345 16.2512 52.3666 16.2512Z" fill="white"/>
</g>
</g>
<g id="Grupo 533">
<g id="Grupo 532">
<path id="Caminho 1255" d="M9.00398 7.38514L7.0881 5.46915C6.68641 5.06757 6.03545 5.06757 5.63365 5.46915C5.23207 5.87074 5.23207 6.52192 5.63365 6.9236L7.54964 8.83958C7.75048 9.04043 8.01365 9.1408 8.27681 9.1408C8.53997 9.1408 8.80314 9.04043 9.00398 8.83958C9.40557 8.4379 9.40557 7.78683 9.00398 7.38514Z" fill="white"/>
</g>
</g>
<g id="Grupo 535">
<g id="Grupo 534">
<path id="Caminho 1256" d="M9.00398 25.7197C8.6024 25.318 7.95132 25.318 7.54964 25.7197L5.63365 27.6358C5.23207 28.0374 5.23207 28.6886 5.63365 29.0902C5.8345 29.291 6.09766 29.3914 6.36082 29.3914C6.62399 29.3914 6.88715 29.2909 7.088 29.0902L9.00398 27.1742C9.40557 26.7725 9.40557 26.1214 9.00398 25.7197Z" fill="white"/>
</g>
</g>
<g id="Grupo 537">
<g id="Grupo 536">
<path id="Caminho 1257" d="M4.4797 16.2512H1.77001C1.20213 16.2512 0.741623 16.7116 0.741623 17.2796C0.741623 17.8476 1.20213 18.308 1.77001 18.308H4.4797C5.04758 18.308 5.50809 17.8476 5.50809 17.2796C5.50809 16.7116 5.04758 16.2512 4.4797 16.2512Z" fill="white"/>
</g>
</g>
</g>
</svg>
