<svg width="49" height="53" viewBox="0 0 49 53" fill="none" xmlns="http://www.w3.org/2000/svg">
<g id="005-tripod">
<path id="XMLID_868_" d="M4.11919 13.6697C3.69313 13.6697 3.3479 14.015 3.3479 14.441V18.6504C3.3479 19.0763 3.69313 19.4216 4.11919 19.4216C4.54525 19.4216 4.89048 19.0763 4.89048 18.6504V14.441C4.89048 14.015 4.54515 13.6697 4.11919 13.6697Z" fill="white"/>
<path id="XMLID_869_" d="M22.0527 47.8079C21.6266 47.8079 21.2814 48.1532 21.2814 48.5791V52.2287C21.2814 52.6546 21.6266 52.9999 22.0527 52.9999C22.4787 52.9999 22.824 52.6546 22.824 52.2287V48.5791C22.824 48.1532 22.4787 47.8079 22.0527 47.8079Z" fill="white"/>
<path id="XMLID_870_" d="M27.3228 12.1177C26.7299 11.5248 25.9415 11.1982 25.1028 11.1982C24.2985 11.1982 23.5402 11.4987 22.9564 12.0467C22.3725 11.4987 21.6142 11.1982 20.8098 11.1982C19.9712 11.1982 19.1828 11.5248 18.5899 12.1177C17.3659 13.3418 17.3659 15.3336 18.5899 16.5576L22.4109 20.3786C22.5556 20.5233 22.7517 20.6046 22.9564 20.6046C23.161 20.6046 23.3571 20.5233 23.5019 20.3786L27.3228 16.5576C28.5469 15.3336 28.5469 13.3419 27.3228 12.1177ZM26.232 15.4669L22.9564 18.7426L19.6807 15.4669C19.058 14.8442 19.058 13.8311 19.6807 13.2085C19.9823 12.9069 20.3832 12.7408 20.8097 12.7408C21.2362 12.7408 21.6373 12.9069 21.9389 13.2085L22.4109 13.6805C22.5555 13.8251 22.7517 13.9063 22.9563 13.9063C23.1608 13.9063 23.3571 13.8249 23.5017 13.6804L23.9737 13.2084C24.5963 12.5858 25.6093 12.5856 26.232 13.2084C26.8547 13.8312 26.8547 14.8443 26.232 15.4669Z" fill="white"/>
<path id="XMLID_873_" d="M48.0144 10.2693C48.4404 10.2693 48.7857 9.92393 48.7857 9.49798V7.1477C48.7857 5.02696 47.0603 3.30175 44.9397 3.30175H36.4117C36.4323 3.17155 36.4432 3.03817 36.4432 2.90222C36.4432 1.49302 35.2967 0.34668 33.8876 0.34668H15.9153C14.5062 0.34668 13.3597 1.49302 13.3597 2.90222C13.3597 3.03817 13.3706 3.17145 13.3912 3.30175H11.8827V2.63134C11.8827 1.63905 11.0753 0.831666 10.083 0.831666H7.06045C6.06816 0.831666 5.26078 1.63905 5.26078 2.63134V3.30175H4.67213C2.55149 3.30175 0.826172 5.02707 0.826172 7.1477V27.1781C0.826172 29.2987 2.55149 31.024 4.67213 31.024H13.3911C13.3705 31.1542 13.3596 31.2877 13.3596 31.4236C13.3596 32.8327 14.506 33.979 15.9152 33.979H20.6417V35.7478C20.6417 36.7401 21.449 37.5475 22.4413 37.5475H22.8063V39.8755C21.9118 40.2487 21.2814 41.1321 21.2814 42.1603V45.0117C21.2814 45.4377 21.6266 45.783 22.0527 45.783C22.4787 45.783 22.824 45.4377 22.824 45.0117V42.1603C22.824 41.6463 23.242 41.2283 23.756 41.2283H26.7684C27.2823 41.2283 27.7005 41.6463 27.7005 42.1603V52.2287C27.7005 52.6547 28.0457 53 28.4718 53C28.8978 53 29.243 52.6547 29.243 52.2287V50.3161H30.5372C31.5295 50.3161 32.3367 49.5089 32.3367 48.5166V43.6877C32.3367 42.6954 31.5295 41.888 30.5372 41.888H29.2277C29.1233 40.9389 28.4805 40.1496 27.6118 39.8338V37.5474H27.9771C28.9694 37.5474 29.7767 36.7401 29.7767 35.7477V33.9789H33.8877C35.2968 33.9789 36.4433 32.8326 36.4433 31.4234C36.4433 31.2874 36.4324 31.1541 36.4118 31.0238H44.9398C47.0604 31.0238 48.7858 29.2985 48.7858 27.1779V13.0655C48.7858 12.6396 48.4405 12.2943 48.0145 12.2943C47.5884 12.2943 47.2432 12.6396 47.2432 13.0655V27.178C47.2432 28.448 46.2099 29.4814 44.9398 29.4814H39.8933V25.9782C39.8933 25.9755 39.8937 25.9729 39.8937 25.9702C39.8937 25.9676 39.8933 25.965 39.8933 25.9623V4.84422H44.9398C46.21 4.84422 47.2432 5.87754 47.2432 7.1476V9.49787C47.2431 9.92393 47.5884 10.2693 48.0144 10.2693ZM30.7941 43.6877V48.5166C30.7941 48.6583 30.6788 48.7736 30.5371 48.7736H29.2429V43.4306H30.5371C30.6788 43.4306 30.7941 43.5459 30.7941 43.6877ZM15.9153 1.88926H33.8876C34.4462 1.88926 34.9006 2.3436 34.9006 2.90222C34.9006 3.46073 34.4462 3.91508 33.8876 3.91508H15.9153C15.3568 3.91508 14.9023 3.46073 14.9023 2.90222C14.9023 2.3436 15.3568 1.88926 15.9153 1.88926ZM7.06046 2.37414H10.083C10.2248 2.37414 10.3401 2.48953 10.3401 2.63124V3.30164H6.80336V2.63124C6.80336 2.48953 6.91864 2.37414 7.06046 2.37414ZM2.36876 27.1781V7.1477C2.36876 5.87754 3.40208 4.84432 4.67213 4.84432H6.01963V29.4815H4.67213C3.40208 29.4815 2.36876 28.4481 2.36876 27.1781ZM26.0692 39.6856H24.3489V37.5474H26.0692V39.6856ZM28.2341 35.7478C28.2341 35.8895 28.1188 36.0049 27.9771 36.0049H22.4414C22.2997 36.0049 22.1844 35.8896 22.1844 35.7478V33.979H28.2341L28.2341 35.7478ZM35.5458 29.4815C35.0991 29.0995 34.5201 28.8681 33.8876 28.8681H23.2645C22.8385 28.8681 22.4932 29.2135 22.4932 29.6394C22.4932 30.0654 22.8385 30.4107 23.2645 30.4107H33.8876C34.4462 30.4107 34.9006 30.8651 34.9006 31.4237C34.9006 31.9822 34.4462 32.4365 33.8876 32.4365H15.9153C15.3568 32.4365 14.9023 31.9822 14.9023 31.4236C14.9023 30.8651 15.3568 30.4107 15.9153 30.4107H19.6971C20.1231 30.4107 20.4683 30.0654 20.4683 29.6394C20.4683 29.2135 20.1231 28.8681 19.6971 28.8681H15.9153C15.2828 28.8681 14.7038 29.0995 14.2571 29.4815H7.56221V26.7415H38.3506V29.4815H35.5458ZM38.3506 25.199H7.56221V4.84422H14.2571C14.7038 5.22616 15.2828 5.45755 15.9153 5.45755H33.8876C34.5201 5.45755 35.0991 5.22616 35.5458 4.84422H38.3505L38.3506 25.199Z" fill="white"/>
<path id="XMLID_883_" d="M40.7678 15.1789V19.1456C40.7678 20.5186 41.8848 21.6357 43.258 21.6357C44.6311 21.6357 45.7481 20.5186 45.7481 19.1456V15.1789C45.7481 13.8058 44.6311 12.6887 43.258 12.6887C41.8848 12.6887 40.7678 13.8058 40.7678 15.1789ZM44.2054 15.1789V19.1456C44.2054 19.6681 43.7803 20.0931 43.2579 20.0931C42.7354 20.0931 42.3102 19.6681 42.3102 19.1456V15.1789C42.3102 14.6563 42.7354 14.2313 43.2579 14.2313C43.7804 14.2313 44.2054 14.6563 44.2054 15.1789Z" fill="white"/>
</g>
</svg>
