<svg width="53" height="53" viewBox="0 0 53 53" fill="none" xmlns="http://www.w3.org/2000/svg">
<g id="006-towel">
<path id="Caminho 1264" d="M50.0824 4.51064H44.1579V3.43187C44.1657 1.74367 42.7449 0.339202 41.0735 0.34671C41.0734 0.34671 41.0737 0.34671 41.0735 0.34671H22.3316C21.9056 0.34671 21.5603 0.692042 21.5603 1.118C21.5603 1.54396 21.9056 1.88929 22.3316 1.88929H38.4026C38.1392 2.34342 37.9875 2.87016 37.9875 3.43187V43.3619C37.2547 43.033 36.3724 42.7115 34.8662 42.7115C33.1443 42.7115 32.2379 43.132 31.4383 43.5029C30.6885 43.8508 30.041 44.1512 28.6595 44.1512C27.2779 44.1512 26.6304 43.8508 25.8806 43.5029C25.0809 43.132 24.1745 42.7115 22.4525 42.7115C20.7305 42.7115 19.8241 43.132 19.0244 43.5029C18.2745 43.8507 17.627 44.1512 16.2454 44.1512C14.8637 44.1512 14.2159 43.8508 13.4658 43.503C12.9516 43.2646 12.3824 43.0017 11.5803 42.8472V4.55095C11.5803 3.08334 12.7743 1.88928 14.242 1.88928H18.7324C19.1583 1.88928 19.5036 1.54395 19.5036 1.11799C19.5036 0.692037 19.1583 0.346705 18.7324 0.346705H14.242C11.9373 0.346705 10.0606 2.21096 10.0388 4.51064H2.57096C1.15333 4.51064 0 5.66397 0 7.0816C0 8.49923 1.15333 9.65257 2.57096 9.65257H10.0377V50.172C10.0377 51.7314 11.3063 53 12.8657 53H36.7025C38.2619 53 39.5305 51.7314 39.5305 50.172V49.194H41.3298C42.8892 49.194 44.1579 47.9254 44.1579 46.3659V37.843C44.1579 37.417 43.8125 37.0717 43.3866 37.0717C42.9606 37.0717 42.6153 37.417 42.6153 37.843V46.3659C42.6153 47.0748 42.0387 47.6514 41.3298 47.6514H39.5305V9.65257H42.6153V34.2436C42.6153 34.6696 42.9606 35.0149 43.3866 35.0149C43.8125 35.0149 44.1579 34.6696 44.1579 34.2436V9.65257H50.0824C51.5 9.65257 52.6534 8.49923 52.6534 7.0816C52.6534 5.66397 51.5 4.51064 50.0824 4.51064ZM10.0377 8.10999H2.57096C2.00391 8.10999 1.54258 7.64866 1.54258 7.08161C1.54258 6.51455 2.00391 6.05322 2.57096 6.05322H10.0377V8.10999ZM11.5802 44.4263C12.0456 44.5456 12.4135 44.7156 12.8168 44.9025C13.6166 45.2734 14.5234 45.6938 16.2453 45.6938C17.9673 45.6938 18.8738 45.2733 19.6735 44.9023C20.4234 44.5545 21.0709 44.254 22.4525 44.254C23.8341 44.254 24.4816 44.5544 25.2314 44.9023C26.0311 45.2733 26.9375 45.6938 28.6595 45.6938C30.3814 45.6938 31.2877 45.2733 32.0874 44.9023C32.8372 44.5544 33.4847 44.254 34.8662 44.254C36.427 44.254 37.0112 44.6228 37.9875 45.0582V46.7351C37.2548 46.4062 36.3724 46.0846 34.8662 46.0846C33.1443 46.0846 32.2379 46.5051 31.4383 46.876C30.6885 47.2239 30.041 47.5243 28.6595 47.5243C27.2779 47.5243 26.6304 47.2239 25.8806 46.876C25.0809 46.5051 24.1745 46.0846 22.4525 46.0846C20.7305 46.0846 19.8241 46.5051 19.0244 46.876C18.2745 47.2238 17.627 47.5243 16.2454 47.5243C14.8637 47.5243 14.2159 47.2239 13.4658 46.8761C12.9517 46.6377 12.3824 46.3748 11.5803 46.2203L11.5802 44.4263ZM37.988 50.172C37.988 50.8809 37.4113 51.4575 36.7025 51.4575H12.8657C12.1569 51.4575 11.5802 50.8809 11.5802 50.172V47.7994C12.0456 47.9187 12.4135 48.0886 12.8168 48.2757C13.6166 48.6465 14.5233 49.0669 16.2452 49.0669C17.9672 49.0669 18.8737 48.6464 19.6734 48.2754C20.4233 47.9276 21.0708 47.6272 22.4524 47.6272C23.834 47.6272 24.4815 47.9275 25.2313 48.2754C26.031 48.6464 26.9374 49.0669 28.6594 49.0669C30.3813 49.0669 31.2876 48.6464 32.0873 48.2754C32.8371 47.9275 33.4846 47.6272 34.8661 47.6272C36.4271 47.6272 37.0113 47.996 37.9878 48.4316L37.988 50.172ZM39.5303 3.42786C39.5325 2.57913 40.2235 1.88929 41.0727 1.88929C41.9091 1.88929 42.6201 2.59209 42.6153 3.43187V4.51064H39.5305V3.43187C39.5305 3.43053 39.5303 3.4292 39.5303 3.42786ZM50.0824 8.10999H39.5305V6.05322H50.0824C50.6494 6.05322 51.1108 6.51456 51.1108 7.08161C51.1108 7.64866 50.6494 8.10999 50.0824 8.10999Z" fill="white"/>
</g>
</svg>
