<svg width="19" height="16" viewBox="0 0 19 16" fill="none" xmlns="http://www.w3.org/2000/svg">
<path id="754892_accept_check_checkmark_done_mark_icon" d="M18.4266 2.86683L16.6502 1.09101C16.3705 0.810773 16.0258 0.756836 15.8294 0.756836C15.5486 0.756836 15.2261 0.870573 15.0016 1.09453L6.44901 9.64767L3.75918 6.95785C3.53464 6.7333 3.21219 6.61957 2.93137 6.61957C2.73496 6.61957 2.39024 6.6735 2.11058 6.95374L0.334176 8.73015C0.0539371 9.0098 0 9.35453 0 9.55093C0 9.83176 0.113737 10.1542 0.337693 10.3788L5.61884 15.6587C5.83049 15.8698 6.12538 15.9999 6.44901 15.9999C6.77497 15.9999 7.07397 15.8622 7.27917 15.6576L18.423 4.51602C18.647 4.29148 18.7607 3.96903 18.7607 3.6882C18.7607 3.4918 18.7068 3.14707 18.4266 2.86683Z" fill="#2560D6"/>
</svg>
