<svg width="23" height="23" viewBox="0 0 23 23" fill="none" xmlns="http://www.w3.org/2000/svg">
<path id="Vector" d="M5.47619 0C2.45662 0 0 2.45662 0 5.47619V17.5238C0 20.5434 2.45662 23 5.47619 23H17.5238C20.5434 23 23 20.5434 23 17.5238V5.47619C23 2.45662 20.5434 0 17.5238 0H5.47619ZM9.38225 4.92857H13.6177C14.0958 4.92857 14.5452 5.18315 14.7921 5.59277L15.7965 7.26879C15.9438 7.51412 16.2143 7.66667 16.5013 7.66667H19.4405C19.8934 7.66667 20.2619 8.03521 20.2619 8.4881V17.25C20.2619 17.7029 19.8934 18.0714 19.4405 18.0714H3.55952C3.10664 18.0714 2.7381 17.7029 2.7381 17.25V8.4881C2.7381 8.03521 3.10664 7.66667 3.55952 7.66667H6.4987C6.7851 7.66667 7.05623 7.51415 7.20354 7.26772L8.20787 5.59277C8.4543 5.18315 8.90418 4.92857 9.38225 4.92857ZM4.38095 5.47619H5.47619C5.77848 5.47619 6.02381 5.72152 6.02381 6.02381V6.57143H3.83333V6.02381C3.83333 5.72152 4.07867 5.47619 4.38095 5.47619ZM16.4286 8.4881C16.2833 8.4881 16.144 8.54579 16.0413 8.64849C15.9386 8.75119 15.881 8.89048 15.881 9.03571C15.881 9.18095 15.9386 9.32024 16.0413 9.42294C16.144 9.52564 16.2833 9.58333 16.4286 9.58333C16.5738 9.58333 16.7131 9.52564 16.8158 9.42294C16.9185 9.32024 16.9762 9.18095 16.9762 9.03571C16.9762 8.89048 16.9185 8.75119 16.8158 8.64849C16.7131 8.54579 16.5738 8.4881 16.4286 8.4881ZM11.5 8.7619C9.23505 8.7619 7.39286 10.6041 7.39286 12.869C7.39286 15.134 9.23505 16.9762 11.5 16.9762C13.765 16.9762 15.6071 15.134 15.6071 12.869C15.6071 10.6041 13.765 8.7619 11.5 8.7619ZM11.5 9.85714C13.1604 9.85714 14.5119 11.2087 14.5119 12.869C14.5119 14.5294 13.1604 15.881 11.5 15.881C9.83962 15.881 8.4881 14.5294 8.4881 12.869C8.4881 11.2087 9.83962 9.85714 11.5 9.85714Z" fill="#2560D6"/>
</svg>
