<svg width="18" height="19" viewBox="0 0 18 19" fill="none" xmlns="http://www.w3.org/2000/svg">
<path id="754895_close_delete_cancel_no_remove_icon" opacity="0.4" d="M12.5816 9.5L17.3947 4.68684C17.6377 4.4439 17.7607 4.09503 17.7607 3.79119C17.7607 3.5787 17.7024 3.20572 17.3992 2.90252L15.4772 0.981187C15.1747 0.677986 14.8017 0.619629 14.5892 0.619629C14.2853 0.619629 13.9365 0.742685 13.6935 0.984993L8.88037 5.79879L4.06721 0.984993C3.82427 0.742685 3.4754 0.619629 3.17156 0.619629C2.95907 0.619629 2.58609 0.677986 2.28352 0.981187L0.361558 2.90315C0.0583568 3.20572 0 3.5787 0 3.79119C0 4.09503 0.123056 4.4439 0.365364 4.68684L5.17916 9.5L0.365998 14.3132C0.123056 14.5561 0 14.905 0 15.2088C0 15.4213 0.0583568 15.7943 0.361558 16.0968L2.28352 18.0188C2.58609 18.322 2.95907 18.3804 3.17156 18.3804C3.4754 18.3804 3.82427 18.2573 4.06721 18.015L8.88037 13.2012L13.6935 18.0144C13.9365 18.2573 14.2853 18.3804 14.5892 18.3804C14.8017 18.3804 15.1747 18.322 15.4772 18.0188L17.3992 16.0968C17.7024 15.7943 17.7607 15.4213 17.7607 15.2088C17.7607 14.905 17.6377 14.5561 17.3954 14.3132L12.5816 9.5Z" fill="#898989"/>
</svg>
