<svg width="76" height="76" viewBox="0 0 76 76" fill="none" xmlns="http://www.w3.org/2000/svg">
<path id="Caminho 2896" fill-rule="evenodd" clip-rule="evenodd" d="M53.46 30.835C51.571 31.341 49.661 31.231 47.945 30.627C50.062 31.938 52.694 32.406 55.289 31.711C60.275 30.375 63.234 25.25 61.898 20.264C61.068 17.167 58.777 14.853 55.966 13.863C57.916 15.072 59.429 16.997 60.069 19.388C61.405 24.374 58.447 29.499 53.46 30.835ZM51.134 12.532L52.27 14.275L54.013 15.412L52.27 16.548L51.134 18.291L49.997 16.548L48.254 15.412L49.997 14.275L51.134 12.532ZM44.205 66.316C44.205 59.51 39.842 56.892 38.097 56.892C36.352 56.892 31.989 59.51 31.989 66.316C31.989 73.122 30.069 76.089 23.961 74.868C17.853 73.646 0.402008 57.94 0.402008 21.117C0.402008 11.867 7.03301 0 18.551 0C21.762 0 26.404 2.211 28.324 3.316C29.778 4.305 34.327 6.283 38.097 6.283C41.866 6.283 46.415 4.305 47.87 3.316C49.789 2.211 54.431 0 57.642 0C69.16 0 75.792 11.867 75.792 21.117C75.792 57.94 56.944 72.599 52.233 74.868C47.521 77.136 44.205 73.122 44.205 66.316Z" fill="white"/>
</svg>
