<svg width="97" height="96" viewBox="0 0 97 96" fill="none" xmlns="http://www.w3.org/2000/svg">
<g id="whitening">
<path id="Vector" d="M16.5547 50.1168C16.5144 49.9044 16.4326 49.7022 16.3141 49.5215C16.1956 49.3408 16.0427 49.1852 15.864 49.0636C15.5032 48.818 15.0597 48.7258 14.6309 48.8072C14.2021 48.8887 13.8233 49.1372 13.5777 49.498C13.3321 49.8588 13.2399 50.3023 13.3214 50.7311C13.4029 51.1599 13.6513 51.5387 14.0121 51.7843C14.3729 52.0299 14.8165 52.122 15.2452 52.0406C15.674 51.9591 16.0529 51.7107 16.2984 51.3499C16.544 50.9891 16.6362 50.5455 16.5547 50.1168Z" fill="#2560D6"/>
<path id="Vector_2" d="M54.6755 78.8448L54.0288 76.2258C53.727 74.9871 53.018 73.8855 52.0154 73.0978C51.0129 72.3101 49.7748 71.882 48.4998 71.882C47.2248 71.882 45.9867 72.3101 44.9841 73.0978C43.9816 73.8855 43.2725 74.9871 42.9708 76.2258L40.0446 88.2053C39.7647 89.3443 39.106 90.3543 38.1766 91.0698C37.2472 91.7853 36.1023 92.1637 34.9296 92.143C33.757 92.1224 32.6261 91.7038 31.7225 90.956C30.8189 90.2083 30.1963 89.1756 29.9566 88.0275C29.0028 83.4362 27.6286 76.7108 26.5293 71.3435C24.5246 61.8052 20.5315 58.8467 18.6723 55.581C18.4579 55.208 18.1041 54.9354 17.6888 54.8232C17.2734 54.711 16.8305 54.7684 16.4575 54.9828C16.0844 55.1972 15.8118 55.551 15.6997 55.9664C15.5875 56.3817 15.6449 56.8246 15.8593 57.1977C17.9125 60.7705 21.5176 63.2117 23.3606 72.0063C24.46 77.3898 25.8665 84.0667 26.788 88.6742C27.183 90.5384 28.1996 92.2131 29.6713 93.4238C31.143 94.6344 32.9823 95.3091 34.8877 95.3373C36.7931 95.3655 38.6516 94.7455 40.1584 93.5789C41.6652 92.4123 42.731 90.7684 43.181 88.9167L46.1071 76.9372C46.2341 76.4047 46.5422 75.933 46.9787 75.6027C47.4152 75.2724 47.9529 75.1041 48.4998 75.1265C50.8601 75.1265 50.9733 77.3252 51.5391 79.6208C51.6551 80.0223 51.9221 80.3633 52.2841 80.5722C52.6461 80.7811 53.0749 80.8418 53.4805 80.7414C53.8862 80.641 54.2373 80.3874 54.4601 80.0338C54.6829 79.6802 54.76 79.2541 54.6755 78.8448Z" fill="#2560D6"/>
<path id="Vector_3" d="M83.5171 41.4675C85.0641 40.272 86.9616 39.6187 88.9167 39.6083C89.3455 39.6083 89.7567 39.438 90.0599 39.1348C90.3631 38.8316 90.5334 38.4204 90.5334 37.9917C90.5334 37.5629 90.3631 37.1517 90.0599 36.8485C89.7567 36.5453 89.3455 36.375 88.9167 36.375C87.7485 36.3771 86.5913 36.1486 85.5115 35.7025C84.4318 35.2564 83.4507 34.6015 82.6246 33.7754C81.7985 32.9493 81.1436 31.9683 80.6975 30.8885C80.2515 29.8088 80.0229 28.6516 80.0251 27.4833C80.0251 27.0546 79.8547 26.6434 79.5515 26.3402C79.2484 26.037 78.8372 25.8667 78.4084 25.8667C77.9796 25.8667 77.5684 26.037 77.2652 26.3402C76.962 26.6434 76.7917 27.0546 76.7917 27.4833C76.7901 28.2353 76.6978 28.9844 76.5169 29.7143C73.0438 26.6344 68.6756 24.7478 64.0524 24.3308C54.3524 23.4902 52.2669 28.9707 42.0496 25.4463C38.9623 24.3974 35.6807 24.0467 32.4415 24.4194C29.2023 24.7922 26.0861 25.8792 23.3179 27.6021C20.5496 29.3249 18.1982 31.6406 16.4331 34.3822C14.6681 37.1238 13.5336 40.2229 13.1112 43.456C13.0576 43.8848 13.1766 44.3173 13.4418 44.6583C13.7071 44.9994 14.097 45.2212 14.5258 45.2747C14.9546 45.3283 15.3871 45.2094 15.7281 44.9441C16.0692 44.6788 16.291 44.2889 16.3446 43.8602C16.704 41.1035 17.6708 38.4609 19.1753 36.1232C20.6797 33.7854 22.6843 31.8107 25.0443 30.3414C27.4044 28.8722 30.0611 27.9451 32.8229 27.6269C35.5847 27.3088 38.3826 27.6076 41.0149 28.5018C45.8843 30.1908 51.1805 30.1908 56.0499 28.5018C59.3086 27.3838 62.8135 27.1908 66.1753 27.9442C69.5371 28.6976 72.6243 30.368 75.0942 32.7698C74.2657 33.8969 73.1816 34.8114 71.931 35.4381C70.6803 36.0648 69.2989 36.3859 67.9001 36.375C67.4713 36.375 67.0601 36.5453 66.7569 36.8485C66.4537 37.1517 66.2834 37.5629 66.2834 37.9917C66.2834 38.4204 66.4537 38.8316 66.7569 39.1348C67.0601 39.438 67.4713 39.6083 67.9001 39.6083C70.257 39.6126 72.5161 40.5508 74.1827 42.2174C75.8493 43.8839 76.7874 46.1431 76.7917 48.5C76.7917 48.9288 76.962 49.34 77.2652 49.6432C77.5684 49.9463 77.9796 50.1167 78.4084 50.1167C78.8372 50.1167 79.2484 49.9463 79.5515 49.6432C79.8547 49.34 80.0251 48.9288 80.0251 48.5C80.0297 47.3109 80.2716 46.1348 80.7364 45.0403C81.126 49.8042 79.628 54.5304 76.5654 58.2C73.482 62.049 71.3893 66.5952 70.4706 71.4405C66.7846 89.5148 67.1079 89.5633 65.2487 91.0668C64.5719 91.6185 63.7664 91.9898 62.9074 92.1463C62.0483 92.3028 61.1637 92.2393 60.3358 91.9617C59.5079 91.6841 58.7638 91.2015 58.1726 90.5588C57.5815 89.9162 57.1627 89.1343 56.9552 88.2862L56.1792 85.0528C56.0632 84.6513 55.7962 84.3104 55.4343 84.1014C55.0723 83.8925 54.6435 83.8319 54.2378 83.9323C53.8321 84.0326 53.4811 84.2862 53.2583 84.6398C53.0355 84.9934 52.9583 85.4196 53.0429 85.8288L53.8189 89.0622C54.1596 90.4368 54.8415 91.7033 55.8014 92.7445C56.7613 93.7858 57.9682 94.5682 59.3106 95.0195C60.653 95.4707 62.0875 95.5762 63.4815 95.3261C64.8755 95.076 66.1839 94.4785 67.2857 93.5888C70.3412 91.1153 70.0664 89.5633 73.6392 72.0872C74.45 67.764 76.3097 63.7059 79.0551 60.2693C81.1978 57.6914 82.7154 54.6529 83.4894 51.3913C84.2635 48.1297 84.2729 44.7333 83.5171 41.4675ZM78.4084 42.4537C77.3391 40.6 75.8001 39.061 73.9464 37.9917C74.8569 37.4402 75.7075 36.7954 76.4846 36.0678C79.7179 32.8345 77.0019 32.7052 80.3484 36.0678C83.6949 39.4305 83.5817 36.6175 80.3484 39.9317C79.5889 40.6792 78.9361 41.5278 78.4084 42.4537Z" fill="#2560D6"/>
<path id="Vector_4" d="M48.5002 38.3473C54.0371 38.244 59.4605 36.7604 64.2789 34.0308C64.5717 33.785 64.7679 33.4434 64.8328 33.0667C64.8976 32.6899 64.8268 32.3024 64.633 31.9729C64.4391 31.6434 64.1348 31.3932 63.774 31.2668C63.4132 31.1404 63.0193 31.146 62.6622 31.2825C58.3204 33.6848 53.4611 34.9995 48.5002 35.114C43.5614 34.9891 38.7255 33.6748 34.4029 31.2825C34.0458 31.146 33.6519 31.1404 33.2911 31.2668C32.9303 31.3932 32.626 31.6434 32.4322 31.9729C32.2384 32.3024 32.1676 32.6899 32.2324 33.0667C32.2972 33.4434 32.4934 33.785 32.7862 34.0308C37.5854 36.75 42.9854 38.2333 48.5002 38.3473Z" fill="#2560D6"/>
<path id="Vector_5" d="M6.46667 46.8833H1.61667C1.1879 46.8833 0.776694 47.0536 0.473511 47.3568C0.170327 47.66 0 48.0712 0 48.5C0 48.9287 0.170327 49.3399 0.473511 49.6431C0.776694 49.9463 1.1879 50.1166 1.61667 50.1166H6.46667C6.89543 50.1166 7.30664 49.9463 7.60982 49.6431C7.91301 49.3399 8.08333 48.9287 8.08333 48.5C8.08333 48.0712 7.91301 47.66 7.60982 47.3568C7.30664 47.0536 6.89543 46.8833 6.46667 46.8833Z" fill="#2560D6"/>
<path id="Vector_6" d="M95.3837 46.8833H90.5337C90.1049 46.8833 89.6937 47.0536 89.3905 47.3568C89.0873 47.66 88.917 48.0712 88.917 48.5C88.917 48.9287 89.0873 49.3399 89.3905 49.6431C89.6937 49.9463 90.1049 50.1166 90.5337 50.1166H95.3837C95.8124 50.1166 96.2236 49.9463 96.5268 49.6431C96.83 49.3399 97.0003 48.9287 97.0003 48.5C97.0003 48.0712 96.83 47.66 96.5268 47.3568C96.2236 47.0536 95.8124 46.8833 95.3837 46.8833Z" fill="#2560D6"/>
<path id="Vector_7" d="M50.1166 6.46667V1.61667C50.1166 1.1879 49.9463 0.776694 49.6431 0.473511C49.3399 0.170327 48.9287 0 48.5 0C48.0712 0 47.66 0.170327 47.3568 0.473511C47.0536 0.776694 46.8833 1.1879 46.8833 1.61667V6.46667C46.8833 6.89543 47.0536 7.30664 47.3568 7.60982C47.66 7.91301 48.0712 8.08333 48.5 8.08333C48.9287 8.08333 49.3399 7.91301 49.6431 7.60982C49.9463 7.30664 50.1166 6.89543 50.1166 6.46667Z" fill="#2560D6"/>
<path id="Vector_8" d="M11.317 68.1101L7.12982 70.5351C6.7568 70.7495 6.48421 71.1033 6.37203 71.5187C6.25985 71.934 6.31727 72.377 6.53166 72.75C6.74604 73.123 7.09983 73.3956 7.51519 73.5078C7.93055 73.6199 8.37346 73.5625 8.74649 73.3481L12.9337 70.9231C13.3067 70.7088 13.5793 70.355 13.6914 69.9396C13.8036 69.5243 13.7462 69.0813 13.5318 68.7083C13.3174 68.3353 12.9637 68.0627 12.5483 67.9505C12.1329 67.8383 11.69 67.8958 11.317 68.1101Z" fill="#2560D6"/>
<path id="Vector_9" d="M84.9074 29.1001C85.4894 29.1001 85.2954 29.1001 89.9029 26.4649C90.2759 26.2505 90.5485 25.8967 90.6607 25.4814C90.7729 25.066 90.7155 24.6231 90.5011 24.2501C90.3949 24.0654 90.2534 23.9034 90.0847 23.7734C89.9159 23.6433 89.7232 23.5478 89.5175 23.4923C89.1022 23.3801 88.6593 23.4375 88.2863 23.6519L84.0667 26.0769C83.7526 26.2546 83.507 26.5323 83.369 26.8658C83.2309 27.1993 83.2085 27.5694 83.3052 27.9171C83.4019 28.2649 83.6122 28.5702 83.9025 28.7846C84.1929 28.999 84.5466 29.11 84.9074 29.1001Z" fill="#2560D6"/>
<path id="Vector_10" d="M26.0768 12.9333C26.2912 13.3063 26.6449 13.5789 27.0603 13.6911C27.4757 13.8033 27.9186 13.7458 28.2916 13.5315C28.6646 13.3171 28.9372 12.9633 29.0494 12.5479C29.1616 12.1326 29.1042 11.6897 28.8898 11.3166L26.4648 7.12946C26.3586 6.94475 26.2171 6.78277 26.0484 6.65274C25.8796 6.52272 25.6869 6.42721 25.4812 6.37167C25.0659 6.25949 24.623 6.31691 24.2499 6.53129C23.8769 6.74567 23.6043 7.09946 23.4922 7.51482C23.38 7.93018 23.4374 8.3731 23.6518 8.74612L26.0768 12.9333Z" fill="#2560D6"/>
<path id="Vector_11" d="M70.9233 12.9333L73.3483 8.74612C73.4544 8.56142 73.5231 8.35761 73.5505 8.14634C73.5779 7.93508 73.5634 7.72048 73.5079 7.51482C73.4523 7.30915 73.3568 7.11644 73.2268 6.94769C73.0968 6.77893 72.9348 6.63744 72.7501 6.53129C72.5654 6.42513 72.3616 6.3564 72.1503 6.32901C71.9391 6.30163 71.7245 6.31612 71.5188 6.37166C71.3131 6.42721 71.1204 6.52272 70.9517 6.65274C70.7829 6.78276 70.6414 6.94475 70.5353 7.12945L68.1103 11.3166C68.0041 11.5013 67.9354 11.7051 67.908 11.9164C67.8806 12.1277 67.8951 12.3423 67.9506 12.5479C68.0062 12.7536 68.1017 12.9463 68.2317 13.1151C68.3617 13.2838 68.5237 13.4253 68.7084 13.5315C68.8931 13.6376 69.0969 13.7063 69.3082 13.7337C69.5195 13.7611 69.7341 13.7466 69.9397 13.6911C70.1454 13.6355 70.3381 13.54 70.5069 13.41C70.6756 13.28 70.8171 13.118 70.9233 12.9333Z" fill="#2560D6"/>
<path id="Vector_12" d="M7.09711 26.4649C11.7046 29.1001 11.5268 29.1001 12.0926 29.1001C12.4506 29.1026 12.7992 28.9862 13.0839 28.7692C13.3686 28.5522 13.5732 28.2468 13.6657 27.901C13.7582 27.5552 13.7333 27.1885 13.5948 26.8584C13.4564 26.5282 13.2124 26.2534 12.9009 26.0769L8.71377 23.6519C8.34075 23.4375 7.89784 23.3801 7.48247 23.4923C7.06711 23.6045 6.71333 23.877 6.49894 24.2501C6.28456 24.6231 6.22714 25.066 6.33932 25.4814C6.4515 25.8967 6.72408 26.2505 7.09711 26.4649Z" fill="#2560D6"/>
<path id="Vector_13" d="M89.9025 70.5351L85.683 68.1101C85.31 67.8958 84.8671 67.8383 84.4517 67.9505C84.0363 68.0627 83.6826 68.3353 83.4682 68.7083C83.2538 69.0813 83.1964 69.5243 83.3086 69.9396C83.4207 70.355 83.6933 70.7088 84.0663 70.9231L88.2535 73.3481C88.6265 73.5668 89.0712 73.6283 89.4895 73.5192C89.9079 73.4101 90.2658 73.1392 90.4845 72.7661C90.7032 72.3931 90.7647 71.9485 90.6556 71.5301C90.5464 71.1117 90.2755 70.7538 89.9025 70.5351Z" fill="#2560D6"/>
</g>
</svg>
