<svg width="88" height="96" viewBox="0 0 88 96" fill="none" xmlns="http://www.w3.org/2000/svg">
<g id="Group">
<g id="Group_2">
<g id="Group_3">
<g id="Group_4">
<g id="Group_5">
<path id="Vector" d="M50.2506 96C47.4715 96 45.1786 93.4602 43.4363 88.4508C42.6711 86.2508 39.9501 76.9454 39.6631 75.9993C38.4873 72.1242 33.9021 72.1182 32.7247 75.9993C32.4376 76.9454 29.7168 86.2508 28.9516 88.4508C27.7837 91.8085 25.7266 96.2397 21.535 95.9515C17.5278 95.6759 16.1461 91.8239 15.6031 88.4056C15.1989 85.8603 14.3619 82.8246 13.0441 79.1255C12.4342 77.4125 15.0836 76.4691 15.6937 78.1818C17.0701 82.0461 17.9491 85.2462 18.3809 87.9644C19.577 95.4961 24.2596 93.3784 26.2951 87.5269C27.037 85.3938 29.7421 76.1425 30.0333 75.1827C32 68.7005 40.3763 68.6632 42.3543 75.1827C42.6454 76.1425 45.3505 85.3938 46.0926 87.5269C48.1278 93.3782 52.8109 95.4962 54.0068 87.9646C54.9891 81.7799 58.0172 74.4732 61.2229 66.7375C63.7041 60.7501 66.2678 54.5641 67.8855 48.7993L63.9143 38.4624H60.4382C59.442 38.4624 58.5192 37.926 58.0298 37.062L53.5244 29.1065L50.2216 30.1504C48.6781 30.6377 46.9938 29.6584 46.6737 28.0672L45.5804 22.6249C44.767 22.9406 44.0131 23.3271 43.2456 23.7334C38.5662 26.1986 33.821 26.1986 29.1417 23.7334C29.1293 23.7268 29.117 23.7201 29.1046 23.7131C26.2387 22.0911 22.9512 21.2994 19.6017 21.42C10.8118 21.7386 3.02639 28.8697 2.81864 37.8362C2.62627 46.1388 6.96651 56.6109 11.1637 66.7379C11.8254 68.3347 12.5097 69.9854 13.1568 71.584C13.8393 73.2693 11.2321 74.3249 10.55 72.6395C9.90707 71.0517 9.22513 69.4062 8.56551 67.8149C4.25639 57.4182 -0.199353 46.6676 0.00689643 37.7713C0.248771 27.3377 9.23376 18.9817 19.4995 18.6098C23.3634 18.4693 27.1561 19.3841 30.4705 21.255C34.3212 23.2776 38.0658 23.2777 41.9165 21.255C43.2771 20.4868 44.7349 19.8731 46.2494 19.4308C47.1548 19.2688 47.7458 19.6264 48.0224 20.5037L49.4189 27.4549L52.7067 26.4155C53.9477 26.0233 55.3125 26.558 55.9521 27.687L60.4619 35.6503H63.9435C65.0817 35.6503 66.1195 36.3613 66.5258 37.4195L70.6767 48.2238C70.7841 48.5032 70.7993 48.8098 70.7205 49.0985C69.0649 55.16 66.3988 61.5933 63.8205 67.8145C60.6801 75.3922 57.714 82.5498 56.7839 88.4059C56.2232 91.9414 54.973 96 50.2506 96Z" fill="#2560D6"/>
</g>
</g>
<g id="Group_6">
<g id="Group_7">
<path id="Vector_2" d="M73.3782 38.7395C72.4544 38.7395 71.7452 37.7298 72.0527 36.8628L75.9051 26.0077L73.2595 23.7656C72.4979 23.1198 72.1429 22.1126 72.3325 21.1366L74.0738 12.1841L70.8807 10.8453C69.3859 10.2187 68.7362 8.37842 69.5299 6.95923L73.018 0.720179C73.3733 0.0854927 74.1539 -0.174007 74.8176 0.121868C76.8612 1.0318 78.7435 2.2648 80.4122 3.78674C81.7557 5.01186 79.86 7.09048 78.5172 5.86461C77.3905 4.8373 76.1526 3.96224 74.8244 3.2533L72.0182 8.27248L75.1949 9.60448C76.3982 10.109 77.0914 11.4009 76.8437 12.6761L75.1004 21.639L77.7509 23.8854C78.6212 24.6232 78.9503 25.8378 78.5702 26.9083L76.2432 33.4655C78.0107 32.0255 79.4593 30.6073 80.6254 29.1794C82.5975 26.765 83.8225 23.8237 84.1682 20.6735C84.5068 17.5877 83.9948 14.4431 82.6877 11.5796C81.9328 9.92529 84.4913 8.75773 85.2463 10.4117C86.7636 13.7358 87.3576 17.3906 86.9636 20.9801C86.5586 24.6716 85.1202 28.1221 82.8036 30.9584C81.0898 33.0564 77.7109 36.3965 73.3782 38.7395Z" fill="#2560D6"/>
</g>
</g>
</g>
<g id="Group_8">
<g id="Group_9">
<path id="Vector_3" d="M76.8167 50.8946C76.2471 50.8946 75.711 50.5461 75.4995 49.9811L73.5675 44.8202C72.9298 43.1173 75.564 42.1313 76.2015 43.8339L78.1335 48.9949C78.454 49.851 77.703 50.8946 76.8167 50.8946Z" fill="#2560D6"/>
</g>
</g>
<g id="Group_10">
<g id="Group_11">
<path id="Vector_4" d="M69.365 33.1334C68.7954 33.1334 68.2594 32.7849 68.0479 32.2199L66.1159 27.059C65.4782 25.3563 68.1124 24.3699 68.7499 26.0728L70.6819 31.2337C71.0023 32.0898 70.2514 33.1334 69.365 33.1334Z" fill="#2560D6"/>
</g>
</g>
<g id="Group_12">
<g id="Group_13">
<path id="Vector_5" d="M84.9068 42.258C84.8912 42.258 84.8759 42.2578 84.8603 42.2573L79.3525 42.0786C77.5343 42.0193 77.6284 39.2059 79.4436 39.2676L84.9514 39.4463C86.7436 39.5046 86.6926 42.258 84.9068 42.258Z" fill="#2560D6"/>
</g>
</g>
</g>
<g id="Group_14">
<g id="Group_15">
<path id="Vector_6" d="M9.94824 40.5625C9.17162 40.5625 8.54199 39.9331 8.54199 39.1563C8.54199 32.8439 13.6774 27.7085 19.9896 27.7085C21.8078 27.7085 21.8078 30.521 19.9896 30.521C15.2282 30.521 11.3545 34.3947 11.3545 39.1563C11.3545 39.9331 10.7249 40.5625 9.94824 40.5625Z" fill="#2560D6"/>
</g>
</g>
</g>
</svg>
