<svg width="79" height="79" viewBox="0 0 79 79" fill="none" xmlns="http://www.w3.org/2000/svg">
<g id="Frame 5">
<rect width="79" height="79" rx="39.5" fill="url(#paint0_linear_346_13579)"/>
<g id="Group">
<path id="Vector" d="M59.7646 21.2753C57.9937 19.5044 54.5725 19.5791 49.8708 21.4915C47.028 22.6477 43.8885 24.4264 41.0169 26.4778C39.685 25.5527 37.9099 25.3348 35.9511 25.8704C33.6266 26.5059 31.1094 28.1947 28.6714 30.7545C27.1009 32.4034 27.1813 34.4059 28.8868 36.1113L31.3802 38.6047C31.3308 39.3966 31.4217 40.1762 31.6524 40.9499C31.6704 41.0103 31.6893 41.0702 31.7089 41.13C29.0129 40.8662 26.2982 41.8118 24.3461 43.7638C24.0255 44.0844 24.0255 44.6043 24.3461 44.925L26.1145 46.6935C25.0575 46.9933 24.0944 47.551 23.313 48.3324C22.0571 49.5883 21.5422 51.4933 21.0879 53.1739C20.7122 54.5638 20.3238 56.0011 19.6286 56.4024C19.3378 56.5706 19.1299 56.8419 19.0432 57.1665C18.9565 57.491 19.0013 57.8298 19.1694 58.1207C19.308 58.3603 19.5246 58.5495 19.7805 58.6545C20.0123 58.7537 21.1235 59.2002 22.5274 59.2859C23.7751 59.3619 24.8987 59.1302 25.852 58.6079C25.8025 59.2006 26.1823 59.7642 26.7765 59.9248C26.8079 59.9333 26.8399 59.9399 26.8721 59.9446C27.1272 59.9819 27.387 60 27.6498 60C29.419 59.9999 31.3128 59.1752 32.6532 57.7793C33.4911 56.9068 34.0354 55.8867 34.2504 54.8293L36.115 56.6938C36.2753 56.8542 36.4854 56.9343 36.6955 56.9343C36.9056 56.9343 37.1158 56.8542 37.2761 56.6938C39.2294 54.7405 40.1742 52.0264 39.9099 49.3302C40.4187 49.4967 40.9496 49.6098 41.5048 49.6527C41.672 49.6656 41.8395 49.672 42.0081 49.672C42.1493 49.672 42.2911 49.6667 42.4333 49.6576L44.9289 52.1531C45.8201 53.0443 46.7924 53.4918 47.753 53.4917C48.6306 53.4917 49.4984 53.1182 50.2857 52.3684C52.849 49.927 54.5389 47.4064 55.1724 45.0792C55.7046 43.1242 55.4861 41.3534 54.563 40.024C56.2734 37.6307 57.8125 35.0267 58.9577 32.5333C60.0677 30.1164 60.742 27.9672 60.9618 26.1454C61.2239 23.9704 60.8212 22.3319 59.7646 21.2753ZM31.4685 56.6419C30.4241 57.7295 28.9099 58.3832 27.5685 58.357C27.6415 57.8306 27.6088 57.2711 27.4705 56.7147C27.397 56.4188 27.1657 56.188 26.8697 56.1153C26.5737 56.0426 26.2617 56.1397 26.0594 56.3678C24.5181 58.1054 22.16 57.6912 21.0441 57.3608C21.8905 56.4978 22.2726 55.0841 22.6731 53.6024C23.0934 52.0475 23.528 50.4397 24.4741 49.4936C25.2826 48.6851 26.3559 48.1963 27.5202 48.0993L32.6642 53.2433C32.9357 54.8314 32.035 56.0521 31.4685 56.6419ZM36.6635 54.9202L26.1197 44.3764C27.9189 42.9349 30.3003 42.393 32.561 42.934C33.2855 44.1148 34.2327 45.1408 35.0659 45.974C35.9635 46.8715 36.9702 47.787 38.1067 48.4826C38.6464 50.7426 38.1051 53.1215 36.6635 54.9202ZM49.1529 51.1794C48.5205 51.7816 47.5151 52.4174 46.0899 50.992L44.3632 49.2654C46.1986 48.645 48.13 47.3109 50.2023 45.2385C51.3136 44.1273 52.4273 42.8443 53.4952 41.4613C54.4226 43.5247 53.4638 47.0737 49.1529 51.1794ZM57.4652 31.8479C55.4713 36.1891 52.2434 40.8751 49.0411 44.0774C46.2239 46.8946 43.7999 48.1822 41.631 48.0155C39.8 47.8742 38.1911 46.6814 36.8201 45.3895L40.7368 41.4727C41.4082 41.9126 42.1825 42.1329 42.9568 42.1329C43.9944 42.1329 45.032 41.738 45.8219 40.9481C47.2029 39.5672 47.3766 37.4294 46.3433 35.8578L49.131 33.0701C49.6094 33.3434 50.1448 33.4807 50.6805 33.4807C51.4802 33.4807 52.2799 33.1763 52.8887 32.5675C54.1063 31.3499 54.1063 29.3688 52.8887 28.1512C51.6711 26.9337 49.69 26.9337 48.4724 28.1512C47.8826 28.7411 47.5578 29.5252 47.5578 30.3594C47.5578 30.9122 47.7013 31.4426 47.9692 31.9096L45.1822 34.6966C43.6106 33.6634 41.4728 33.8371 40.0919 35.218C38.7095 36.6003 38.5369 38.7414 39.5738 40.3134L35.6595 44.2276C33.0594 41.4589 32.0001 38.9201 34.2399 35.3144C34.4791 34.9292 34.3609 34.4229 33.9757 34.1837C33.5904 33.9444 33.0842 34.0627 32.845 34.4479C32.3738 35.2063 32.0167 35.9466 31.7711 36.6733L30.0478 34.9501C28.6225 33.5248 29.2582 32.5194 29.8605 31.8871C33.9653 27.5772 37.5164 26.6183 39.5794 27.5452C39.0357 27.9649 38.5057 28.3926 37.9945 28.8262C37.6487 29.1195 37.6062 29.6377 37.8995 29.9835C38.1928 30.3293 38.7109 30.3719 39.0568 30.0785C42.483 27.1723 46.7569 24.5308 50.4894 23.0126C54.4153 21.4158 57.3728 21.2057 58.6034 22.4365C59.9698 23.8028 59.5443 27.3211 57.4652 31.8479ZM44.6607 36.3792C45.6003 37.3187 45.6003 38.8474 44.6607 39.7869C43.7212 40.7264 42.1925 40.7264 41.253 39.7869C40.3136 38.8473 40.3136 37.3186 41.253 36.3791C42.1926 35.4396 43.7212 35.4397 44.6607 36.3792ZM49.6336 31.4063C49.3539 31.1267 49.1999 30.7549 49.1999 30.3595C49.1999 29.964 49.3539 29.5922 49.6336 29.3125C49.9222 29.0238 50.3014 28.8796 50.6805 28.8796C51.0597 28.8796 51.4389 29.0239 51.7275 29.3125C52.0071 29.5922 52.1612 29.964 52.1612 30.3595C52.1612 30.7549 52.0072 31.1268 51.7275 31.4063C51.1502 31.9837 50.2108 31.9837 49.6336 31.4063Z" fill="white"/>
<path id="Vector_2" d="M35.833 31.1609H35.8325C35.379 31.1609 35.0117 31.5285 35.0117 31.982C35.0117 32.4355 35.3796 32.803 35.833 32.803C36.2865 32.803 36.6541 32.4355 36.6541 31.982C36.6541 31.5285 36.2865 31.1609 35.833 31.1609Z" fill="white"/>
</g>
</g>
<defs>
<linearGradient id="paint0_linear_346_13579" x1="-42.3279" y1="3.5405" x2="-4.51739" y2="112.084" gradientUnits="userSpaceOnUse">
<stop stop-color="#A004FD"/>
<stop offset="0.576245" stop-color="#2560D6"/>
<stop offset="1" stop-color="#3F7FFF"/>
</linearGradient>
</defs>
</svg>
