<svg width="22" height="21" viewBox="0 0 22 21" fill="none" xmlns="http://www.w3.org/2000/svg">
<g id="layer2">
<path id="path5939" d="M10.7097 -0.00732419C9.9992 -0.00741658 9.28848 0.260606 8.75164 0.797338C5.913 3.63695 2.80705 6.74283 0.27792 9.27196C-0.0858918 9.62734 -0.0934803 10.21 0.260832 10.5749C0.622531 10.9473 1.21994 10.9481 1.58271 10.5767C4.60414 7.55494 7.04627 5.114 10.0573 2.10294C10.4256 1.73475 10.994 1.73458 11.3621 2.10294C14.1804 4.92121 16.9986 7.73947 19.8169 10.5577C20.1797 10.9291 20.7771 10.9284 21.1388 10.556C21.4931 10.1911 21.4855 9.60842 21.1217 9.25304C18.3036 6.43488 15.4859 3.61636 12.6678 0.798238C12.1312 0.261244 11.4202 -0.00723169 10.7097 -0.00732419ZM3.79572 11.0903C3.2872 11.0978 2.87967 11.5153 2.88563 12.0238C2.8853 14.0639 2.88654 16.1039 2.88654 18.144C2.88666 19.3581 3.93817 20.292 5.13112 20.2921H7.23603C8.42898 20.292 9.48048 19.3581 9.48062 18.144V15.8462C9.48063 15.7037 9.61389 15.5399 9.87889 15.5399H11.5225C11.7875 15.5399 11.9207 15.7037 11.9207 15.8462V18.144C11.9209 19.3581 12.9724 20.292 14.1653 20.2921H16.2702C17.4632 20.292 18.5147 19.3581 18.5148 18.144V12.0238C18.5209 11.5047 18.0977 11.0827 17.5786 11.0903C17.0701 11.0978 16.6625 11.5153 16.6685 12.0238V18.144C16.6685 18.2865 16.5352 18.4503 16.2702 18.4503H14.1653C13.9003 18.4503 13.767 18.2865 13.767 18.144V15.8462C13.7669 14.6321 12.7154 13.6982 11.5225 13.698H9.87889C8.68594 13.6982 7.63444 14.6321 7.63431 15.8462V18.144C7.63429 18.2865 7.50104 18.4503 7.23603 18.4503H5.13112C4.86611 18.4503 4.73286 18.2865 4.73284 18.144C4.73272 16.1039 4.73194 14.0639 4.73194 12.0238C4.73804 11.5047 4.31483 11.0827 3.79572 11.0903Z" fill="#AEAEAE"/>
</g>
</svg>
