<svg width="160" height="160" viewBox="0 0 160 160" fill="none" xmlns="http://www.w3.org/2000/svg">
<g id="Frame 1">
<rect width="160" height="160" rx="80" fill="#BCBCBC"/>
<path id="Vector" d="M80.5595 80.5594C75.021 80.5594 70.2798 78.5874 66.3357 74.6433C62.3917 70.6992 60.4196 65.958 60.4196 60.4195C60.4196 54.8811 62.3917 50.1398 66.3357 46.1957C70.2798 42.2517 75.021 40.2797 80.5595 40.2797C86.098 40.2797 90.8392 42.2517 94.7833 46.1957C98.7273 50.1398 100.699 54.8811 100.699 60.4195C100.699 65.958 98.7273 70.6992 94.7833 74.6433C90.8392 78.5874 86.098 80.5594 80.5595 80.5594ZM40.2798 120.839V106.741C40.2798 103.888 41.0141 101.266 42.4826 98.8741C43.9511 96.4825 45.9022 94.6573 48.3357 93.3985C53.5385 90.7971 58.8252 88.8461 64.1959 87.5454C69.5665 86.2447 75.021 85.5943 80.5595 85.5943C86.098 85.5943 91.5525 86.2447 96.9231 87.5454C102.294 88.8461 107.58 90.7971 112.783 93.3985C115.217 94.6573 117.168 96.4825 118.636 98.8741C120.105 101.266 120.839 103.888 120.839 106.741V120.839H40.2798Z" fill="#E7E7E7"/>
</g>
</svg>
