<svg width="10" height="13" viewBox="0 0 10 13" fill="none" xmlns="http://www.w3.org/2000/svg">
<path id="Vector" d="M1.25 13C0.90625 13 0.611979 12.8788 0.367188 12.6363C0.122396 12.3938 0 12.1024 0 11.7619V5.57143C0 5.23095 0.122396 4.93948 0.367188 4.69702C0.611979 4.45456 0.90625 4.33333 1.25 4.33333H1.875V3.09524C1.875 2.23889 2.17969 1.50893 2.78906 0.905357C3.39844 0.301786 4.13542 0 5 0C5.86458 0 6.60156 0.301786 7.21094 0.905357C7.82031 1.50893 8.125 2.23889 8.125 3.09524V4.33333H8.75C9.09375 4.33333 9.38802 4.45456 9.63281 4.69702C9.8776 4.93948 10 5.23095 10 5.57143V11.7619C10 12.1024 9.8776 12.3938 9.63281 12.6363C9.38802 12.8788 9.09375 13 8.75 13H1.25ZM5 9.90476C5.34375 9.90476 5.63802 9.78353 5.88281 9.54107C6.1276 9.29861 6.25 9.00714 6.25 8.66667C6.25 8.32619 6.1276 8.03472 5.88281 7.79226C5.63802 7.5498 5.34375 7.42857 5 7.42857C4.65625 7.42857 4.36198 7.5498 4.11719 7.79226C3.8724 8.03472 3.75 8.32619 3.75 8.66667C3.75 9.00714 3.8724 9.29861 4.11719 9.54107C4.36198 9.78353 4.65625 9.90476 5 9.90476ZM3.125 4.33333H6.875V3.09524C6.875 2.57937 6.69271 2.14087 6.32812 1.77976C5.96354 1.41865 5.52083 1.2381 5 1.2381C4.47917 1.2381 4.03646 1.41865 3.67188 1.77976C3.30729 2.14087 3.125 2.57937 3.125 3.09524V4.33333Z" fill="#227FE6"/>
</svg>
