<svg width="30" height="30" viewBox="0 0 30 30" fill="none" xmlns="http://www.w3.org/2000/svg">
<path id="1159615_accept_checkmark_circle_yes_check_icon" d="M14.5684 0C6.52274 0 0 6.52274 0 14.5684C0 22.614 6.52274 29.1367 14.5684 29.1367C22.614 29.1367 29.1367 22.614 29.1367 14.5684C29.1367 6.52274 22.614 0 14.5684 0ZM23.7115 11.0856L13.9992 20.7978C13.6204 21.1775 13.1232 21.3669 12.6259 21.3669C12.1286 21.3669 11.6314 21.1775 11.2526 20.7978L6.39648 15.9417C6.06238 15.6076 5.82734 15.1453 5.82734 14.5684C5.82734 13.5058 6.70339 12.6259 7.76979 12.6259C8.26706 12.6259 8.76433 12.8153 9.1431 13.195L12.6259 16.6779L20.9648 8.33893C21.3436 7.95918 21.8409 7.76979 22.3382 7.76979C23.4046 7.76979 24.2806 8.64972 24.2806 9.71224C24.2806 10.2891 24.0456 10.7514 23.7115 11.0856Z" fill="#5427A8"/>
</svg>
