<svg width="30" height="30" viewBox="0 0 30 30" fill="none" xmlns="http://www.w3.org/2000/svg">
<g id="shield_locked">
<mask id="mask0_41_3149" style="mask-type:alpha" maskUnits="userSpaceOnUse" x="0" y="0" width="30" height="30">
<rect id="Bounding box" width="30" height="30" fill="#70ADF0"/>
</mask>
<g mask="url(#mask0_41_3149)">
<path id="shield_locked_2" d="M15 27.5001C12.1042 26.7709 9.71354 25.1094 7.82812 22.5157C5.94271 19.9219 5 17.0417 5 13.8751V6.25006L15 2.50006L25 6.25006V13.8751C25 14.0834 24.9948 14.2917 24.9844 14.5001C24.974 14.7084 24.9583 14.9167 24.9375 15.1251C24.75 15.0834 24.5573 15.0521 24.3594 15.0313C24.1615 15.0105 23.9583 15.0001 23.75 15.0001C23.5208 15.0001 23.3021 15.0105 23.0938 15.0313C22.8854 15.0521 22.6667 15.0834 22.4375 15.1251C22.4583 14.9167 22.474 14.7136 22.4844 14.5157C22.4948 14.3178 22.5 14.1042 22.5 13.8751V7.96881L15 5.15631L7.5 7.96881V13.8751C7.5 16.3959 8.20833 18.6876 9.625 20.7501C11.0417 22.8126 12.8333 24.1876 15 24.8751C15.4375 24.7292 15.8646 24.5521 16.2813 24.3438C16.6979 24.1355 17.1042 23.8959 17.5 23.6251V26.5626C17.1042 26.7709 16.6979 26.9532 16.2813 27.1094C15.8646 27.2657 15.4375 27.3959 15 27.5001ZM21.0625 27.5001C20.7708 27.5001 20.5208 27.3959 20.3125 27.1876C20.1042 26.9792 20 26.7292 20 26.4376V22.3126C20 22.0209 20.1042 21.7709 20.3125 21.5626C20.5208 21.3542 20.7708 21.2501 21.0625 21.2501H21.25V20.0001C21.25 19.3126 21.4948 18.724 21.9844 18.2344C22.474 17.7449 23.0625 17.5001 23.75 17.5001C24.4375 17.5001 25.026 17.7449 25.5156 18.2344C26.0052 18.724 26.25 19.3126 26.25 20.0001V21.2501H26.4375C26.7292 21.2501 26.9792 21.3542 27.1875 21.5626C27.3958 21.7709 27.5 22.0209 27.5 22.3126V26.4376C27.5 26.7292 27.3958 26.9792 27.1875 27.1876C26.9792 27.3959 26.7292 27.5001 26.4375 27.5001H21.0625ZM22.5 21.2501H25V20.0001C25 19.6459 24.8802 19.349 24.6406 19.1094C24.401 18.8699 24.1042 18.7501 23.75 18.7501C23.3958 18.7501 23.099 18.8699 22.8594 19.1094C22.6198 19.349 22.5 19.6459 22.5 20.0001V21.2501Z" fill="#227FE6"/>
</g>
</g>
</svg>
