<svg id="visual" viewBox="0 0 900 600" width="900" height="600" xmlns="http://www.w3.org/2000/svg" xmlns:xlink="http://www.w3.org/1999/xlink" version="1.1"><path d="M0 90L21.5 92.7C43 95.3 86 100.7 128.8 96.3C171.7 92 214.3 78 257.2 74.3C300 70.7 343 77.3 385.8 83.5C428.7 89.7 471.3 95.3 514.2 93.5C557 91.7 600 82.3 642.8 80.2C685.7 78 728.3 83 771.2 81.5C814 80 857 72 878.5 68L900 64L900 0L878.5 0C857 0 814 0 771.2 0C728.3 0 685.7 0 642.8 0C600 0 557 0 514.2 0C471.3 0 428.7 0 385.8 0C343 0 300 0 257.2 0C214.3 0 171.7 0 128.8 0C86 0 43 0 21.5 0L0 0Z" fill="#6d28d9" stroke-linecap="round" stroke-linejoin="miter"></path></svg>