<svg xmlns="http://www.w3.org/2000/svg" width="391.413" height="228.422" viewBox="0 0 391.413 228.422">
  <g id="Grupo_100" data-name="Grupo 100" transform="translate(-20.847 -1073.089)" opacity="0.397">
    <g id="Grupo_95" data-name="Grupo 95" transform="translate(303.847 1203.244)">
      <path id="Caminho_267" data-name="Caminho 267" d="M757.792,1590.48a8.728,8.728,0,0,0,5.43-6.83c2.659-15.232,15.286-26.77,30.46-26.77a30,30,0,0,1,22.6,10.449,17.163,17.163,0,0,0,14.422,6,21.053,21.053,0,0,1,7.64.79,24.1,24.1,0,0,1,17.1,20.606c1.729,14.954-9.256,27.667-23.052,27.667H763.339a16.1,16.1,0,0,1-15.815-13.077C745.935,1600.708,750.731,1592.977,757.792,1590.48Z" transform="translate(-747.219 -1556.88)" fill="#afcff4"/>
    </g>
    <g id="Grupo_96" data-name="Grupo 96" transform="translate(20.847 1129)">
      <path id="Caminho_267-2" data-name="Caminho 267" d="M757.792,1590.48a8.728,8.728,0,0,0,5.43-6.83c2.659-15.232,15.286-26.77,30.46-26.77a30,30,0,0,1,22.6,10.449,17.163,17.163,0,0,0,14.422,6,21.053,21.053,0,0,1,7.64.79,24.1,24.1,0,0,1,17.1,20.606c1.729,14.954-9.256,27.667-23.052,27.667H763.339a16.1,16.1,0,0,1-15.815-13.077C745.935,1600.708,750.731,1592.977,757.792,1590.48Z" transform="translate(-747.219 -1556.88)" fill="#afcff4"/>
    </g>
    <g id="Grupo_97" data-name="Grupo 97" transform="translate(196.847 1134.601)">
      <path id="Caminho_267-3" data-name="Caminho 267" d="M752.208,1572.734a4.118,4.118,0,0,0,2.562-3.222c1.255-7.187,7.213-12.631,14.372-12.631a14.155,14.155,0,0,1,10.666,4.93,8.1,8.1,0,0,0,6.8,2.831,9.937,9.937,0,0,1,3.6.373,11.373,11.373,0,0,1,8.07,9.723c.816,7.056-4.367,13.054-10.877,13.054H754.825a7.6,7.6,0,0,1-7.462-6.17A7.8,7.8,0,0,1,752.208,1572.734Z" transform="translate(-747.219 -1556.88)" fill="#afcff4"/>
    </g>
    <g id="Grupo_99" data-name="Grupo 99" transform="translate(337.847 1073.089)">
      <path id="Caminho_267-4" data-name="Caminho 267" d="M752.208,1572.734a4.118,4.118,0,0,0,2.562-3.222c1.255-7.187,7.213-12.631,14.372-12.631a14.155,14.155,0,0,1,10.666,4.93,8.1,8.1,0,0,0,6.8,2.831,9.937,9.937,0,0,1,3.6.373,11.373,11.373,0,0,1,8.07,9.723c.816,7.056-4.367,13.054-10.877,13.054H754.825a7.6,7.6,0,0,1-7.462-6.17A7.8,7.8,0,0,1,752.208,1572.734Z" transform="translate(-747.219 -1556.88)" fill="#afcff4"/>
    </g>
    <g id="Grupo_98" data-name="Grupo 98" transform="translate(20.847 1236)">
      <path id="Caminho_267-5" data-name="Caminho 267" d="M757.792,1590.48a8.728,8.728,0,0,0,5.43-6.83c2.659-15.232,15.286-26.77,30.46-26.77a30,30,0,0,1,22.6,10.449,17.163,17.163,0,0,0,14.422,6,21.053,21.053,0,0,1,7.64.79,24.1,24.1,0,0,1,17.1,20.606c1.729,14.954-9.256,27.667-23.052,27.667H763.339a16.1,16.1,0,0,1-15.815-13.077C745.935,1600.708,750.731,1592.977,757.792,1590.48Z" transform="translate(-747.219 -1556.88)" fill="#bbd6f5"/>
    </g>
  </g>
</svg>
