<svg xmlns="http://www.w3.org/2000/svg" width="173.812" height="196.226" viewBox="0 0 173.812 196.226">
  <g id="Grupo_966" data-name="Grupo 966" transform="translate(297.565 -2470.647)">
    <ellipse id="Elipse_85" data-name="Elipse 85" cx="86.607" cy="15.988" rx="86.607" ry="15.988" transform="translate(-297.565 2634.897)" opacity="0.098"/>
    <g id="Grupo_965" data-name="Grupo 965" transform="translate(-288.098 2470.647)">
      <path id="Caminho_1993" data-name="Caminho 1993" d="M390.576,40.351a22.09,22.09,0,0,0-5.213.665c-.856.208-1.31,2.255-2.171,2.54-.911.3-2.227-1.163-3.146-.8-7.714,3.039-15.818,7.879-26.307,7.879-15.29,0-25.511-10.282-36.841-10.282-22.4,0-46.669,31.962-43.385,57.61,3.662,28.6,35.495,114.8,57.47,114.8,10.846,0,10.792-21.537,16.339-44.652,2.537-10.565,7.607-11.833,10.142.844,4.746,23.729,8.875,43.808,19.027,43.808,21.974,0,54.441-91.815,57.47-114.8,1.107-8.4-.822-17.469-4.686-25.878-.185-.4-1.645-.35-1.837-.749-.389-.8,1.753-1.357.053-2.834-2.411-2.8-13.936-5.075-13.936-5.075S397.709,40.606,390.576,40.351Z" transform="translate(-271.571 -34.168)" fill="#eff9ff"/>
      <path id="Caminho_1993_-_Contorno" data-name="Caminho 1993 - Contorno" d="M317.995,39.807c5.587,0,10.783,2.285,16.285,4.7,6.236,2.742,12.685,5.578,20.556,5.578s14.317-2.835,20.553-5.577c1.774-.78,3.45-1.517,5.152-2.187a2.509,2.509,0,0,1,.922-.172,4.518,4.518,0,0,1,2.035.631c.072.036.156.079.241.121.069-.115.14-.239.2-.34a3.639,3.639,0,0,1,2.136-2.045,23.614,23.614,0,0,1,5.6-.712h.059c2.043.073,4.536,1.42,7.623,4.118a76.958,76.958,0,0,1,7.737,8.1c3.983,4.709,7.409,9.45,8.526,11.022,2.951.615,11.591,2.613,14.133,5.391a2.953,2.953,0,0,1,1.138,2.449,2.516,2.516,0,0,1-.121.593,2.012,2.012,0,0,1,1.1,1.02c4.246,9.24,5.914,18.5,4.822,26.779-1.5,11.372-10.242,40.015-21.754,66.461-6.266,14.395-12.379,25.953-18.169,34.352a57.479,57.479,0,0,1-9.457,11.033c-3.411,2.908-6.681,4.383-9.721,4.383-7.152,0-10.894-8.041-13.086-14.089-3-8.278-5.315-19.849-7.553-31.04-1.3-6.491-3.017-7.817-3.406-7.817-.575,0-2.262,1.772-3.526,7.035-1.459,6.078-2.552,12.187-3.517,17.576-1.4,7.82-2.609,14.573-4.526,19.547-2.28,5.914-5.516,8.789-9.895,8.789-3.03,0-6.281-1.388-9.663-4.126a54.357,54.357,0,0,1-9.407-10.474c-5.736-7.978-11.972-19.407-18.035-33.053-10.583-23.821-20.04-53.305-22-68.582a48.517,48.517,0,0,1,3.132-22.88,67.03,67.03,0,0,1,12.372-20.573C297.438,45.643,308.195,39.807,317.995,39.807Zm36.841,13.57c-8.562,0-15.637-3.111-21.88-5.856-5.176-2.276-10.066-4.426-14.962-4.426-8.856,0-18.713,5.429-27.043,14.894a63.709,63.709,0,0,0-11.761,19.553,45.237,45.237,0,0,0-2.95,21.311c1.922,15,11.268,44.095,21.739,67.665,5.972,13.443,12.093,24.671,17.7,32.469,6.224,8.657,11.9,13.232,16.4,13.232,1.979,0,4.543-.76,6.827-6.683,1.8-4.68,2.987-11.29,4.358-18.944.973-5.434,2.075-11.593,3.556-17.764,1.9-7.9,4.7-9.554,6.722-9.555h0c3.011,0,5.242,3.519,6.63,10.46,2.214,11.071,4.5,22.519,7.42,30.564,4.321,11.922,8.592,11.922,10,11.922,4.464,0,10.159-4.839,16.47-13.994,5.591-8.11,11.767-19.8,17.862-33.8,11.4-26.184,20.039-54.427,21.509-65.579.989-7.5-.5-15.937-4.3-24.429l-.015,0a2.643,2.643,0,0,1-2.058-1.266,2.26,2.26,0,0,1,.345-2.409l-.057-.067c-1.407-1.636-8.454-3.636-13.008-4.534l-.653-.129-.38-.546c-.039-.057-3.984-5.723-8.733-11.335-8.264-9.765-11.779-10.976-12.927-11.033a20.145,20.145,0,0,0-4.521.555c-.1.147-.233.379-.33.548a3.884,3.884,0,0,1-1.985,2.02,2.5,2.5,0,0,1-.782.123,4.474,4.474,0,0,1-2.013-.625c-.149-.076-.355-.18-.5-.239-1.564.623-3.138,1.315-4.8,2.045C370.471,50.266,363.4,53.377,354.836,53.377Z" transform="translate(-272.669 -35.268)" fill="#223659"/>
      <path id="Caminho_1994" data-name="Caminho 1994" d="M379.974,77.084s7.371-7.226,9.673-8.546c-.019-.017-.031-.033-.051-.05-2.411-2.8-13.936-5.075-13.936-5.075s-15.488-22.3-22.729-23.042a7.3,7.3,0,0,1-1.121.645,40.669,40.669,0,0,1-3.564,3.477c-.211.319-.4.6-.533.827-.727,1.183-1.4,2.4-2.092,3.6-.27,1.183,1.447,10.975,1.447,10.975a15.716,15.716,0,0,1-5.495,5.282c-.047.757,7.061-.634,8.1,1.732a11.594,11.594,0,0,0,4.051,5.165l11.089,4.17,4.139-2.333Z" transform="translate(-233.676 -34.156)" fill="#c3d4de" style="mix-blend-mode: multiply;isolation: isolate"/>
      <path id="Caminho_1995" data-name="Caminho 1995" d="M412.477,76.254a13.071,13.071,0,0,1-1.582.673c-1.985.695-4.842.339-6.926.432-2.321.1-4.634.337-6.954.211-9.123-.494-18.4-7.582-21.389-16.2a20.928,20.928,0,0,1,1.219-16.333c-8.759,2.077-16.8,7.786-24.5,11.965-12.528,6.8-21.742-4.574-33.036-7.626-10.79-2.916-20.746-.048-27.883,8.875-8.622,10.779-8.768,26.716-5.639,39.58,2.28,9.381,18.5,73.96,28.951,74.806s8.381-30.708,30-31.991c12.418-.737,17.908,5.442,19.737,15.02,1.937,10.131,1.218,19.6,12.116,18.943s40.658-47.61,39.849-77.4A75.985,75.985,0,0,0,412.477,76.254Z" transform="translate(-265.633 -31.57)" fill="#fff" opacity="0.5"/>
      <path id="Caminho_1996" data-name="Caminho 1996" d="M364.641,45.421c-7.907,2.433-15.239,7.543-22.283,11.368-12.53,6.8-21.744-4.574-33.036-7.626a32.974,32.974,0,0,0-3.889-.805c7.28,8.006,18.041,14.064,28.51,15.173,7.416.785,13.574-1.021,20.637-3.037a48.892,48.892,0,0,1,8.47-1.724A21.048,21.048,0,0,1,364.641,45.421Z" transform="translate(-253.71 -31.357)" fill="#fff"/>
      <path id="Caminho_1997" data-name="Caminho 1997" d="M367.265,122.389c5.344-12.237,9.032-25.221,8.74-35.966A77.082,77.082,0,0,0,371.71,64.5a12.753,12.753,0,0,1-3.19,1.635c-1.985.695-4.842.339-6.926.432q-.615.03-1.229.068a79.737,79.737,0,0,1,7.287,22.3c1.533,8.5,2.619,17.171,1.332,25.773A59.069,59.069,0,0,1,367.265,122.389Z" transform="translate(-223.258 -20.78)" fill="#fff"/>
      <path id="Caminho_1998" data-name="Caminho 1998" d="M316.291,54.159c5.635,4.565,12.954,5.841,20.022,4.588,8.457-1.5,17.822-5.98,20.959-13.217-5.84,2.548-12.169,5.07-19.743,5.07-14.491,0-24.43-9.23-35.075-10.193C307.094,44.959,311.2,50.032,316.291,54.159Z" transform="translate(-255.362 -34.136)" fill="#dff2fe" style="mix-blend-mode: multiply;isolation: isolate"/>
      <path id="Caminho_1999" data-name="Caminho 1999" d="M400.711,147.2c-4.139,6.151-15.3,13.938-23.91,11.6-8.451-2.291-9.175-14.166-10.787-21.1-.759-3.259-1.265-9.014-4.786-10.568a12.918,12.918,0,0,0-11.313.634,28.813,28.813,0,0,0-13.234,19.436c-1.091,7.147-2.392,17.294-11.622,17.485-4.85.1-7.332-5.224-10.179-8.516-4.6-5.316-25.166-41.656-41.052-76.085,5.826,31.954,35.818,110.641,56.813,110.641,10.846,0,10.792-21.537,16.341-44.652,2.535-10.565,7.605-11.833,10.141.844,4.745,23.729,8.875,43.808,19.027,43.808,15.878,0,37.228-47.928,49-83.2C417.33,123.535,409.768,133.735,400.711,147.2Z" transform="translate(-271.23 -12.138)" fill="#dff2fe" style="mix-blend-mode: multiply;isolation: isolate"/>
      <path id="Caminho_2000" data-name="Caminho 2000" d="M318.2,81.754a8.24,8.24,0,1,1-8.241-8.24A8.241,8.241,0,0,1,318.2,81.754Z" transform="translate(-255.768 -15.783)" fill="#223659"/>
      <path id="Caminho_2001" data-name="Caminho 2001" d="M312.288,81.244a2.43,2.43,0,1,1-2.429-2.429A2.429,2.429,0,0,1,312.288,81.244Z" transform="translate(-252.604 -12.845)" fill="#fff"/>
      <path id="Caminho_2002" data-name="Caminho 2002" d="M309.555,78.366a1.568,1.568,0,1,1-1.568-1.567A1.569,1.569,0,0,1,309.555,78.366Z" transform="translate(-253.162 -13.963)" fill="#fff"/>
      <path id="Caminho_2003" data-name="Caminho 2003" d="M340.213,81.754a8.24,8.24,0,1,0,8.241-8.24A8.242,8.242,0,0,0,340.213,81.754Z" transform="translate(-234.429 -15.783)" fill="#223659"/>
      <path id="Caminho_2004" data-name="Caminho 2004" d="M341.98,81.244a2.43,2.43,0,1,0,2.429-2.429A2.43,2.43,0,0,0,341.98,81.244Z" transform="translate(-233.45 -12.845)" fill="#fff"/>
      <path id="Caminho_2005" data-name="Caminho 2005" d="M344.1,78.366a1.567,1.567,0,1,0,1.567-1.567A1.567,1.567,0,0,0,344.1,78.366Z" transform="translate(-232.276 -13.963)" fill="#fff"/>
      <path id="Caminho_2006" data-name="Caminho 2006" d="M361.527,76.951c-5.172,0-13.952-2.355-18.281-5.734a2.466,2.466,0,1,1,3.035-3.887c3.328,2.6,11.062,4.69,15.246,4.69a2.466,2.466,0,0,1,0,4.931Z" transform="translate(-234.472 -20.7)" fill="#223659"/>
      <path id="Caminho_2007" data-name="Caminho 2007" d="M301.976,76.951a2.466,2.466,0,0,1,0-4.931c4.184,0,11.917-2.092,15.245-4.69a2.466,2.466,0,0,1,3.034,3.887C315.927,74.6,307.148,76.951,301.976,76.951Z" transform="translate(-258.191 -20.699)" fill="#223659"/>
      <path id="Caminho_2009" data-name="Caminho 2009" d="M295.669,46.888c-1.334-.1-2.955,1.121-3.954,1.909a11.182,11.182,0,0,0-3.085,3.943.079.079,0,0,0,.137.079,13.449,13.449,0,0,1,3.363-3.483c1.108-.841,2.725-1.17,3.673-2.128A.189.189,0,0,0,295.669,46.888Z" transform="translate(-263.03 -30.547)" fill="#001929"/>
      <path id="Caminho_2010" data-name="Caminho 2010" d="M295.669,47.673a6.13,6.13,0,0,0-4.33,2.722c-.045.082.048.2.134.135a10.8,10.8,0,0,1,4.466-1.884C296.576,48.531,296.3,47.558,295.669,47.673Z" transform="translate(-261.529 -30.114)" fill="#001929"/>
      <path id="Caminho_2011" data-name="Caminho 2011" d="M294.551,121.989c-.647-.838-1.508-1.419-2.221-2.2a7.213,7.213,0,0,1-1.8-3.446c-.014-.073-.11-.047-.117.014-.261,2.349,1.488,5.645,4.073,5.8C294.579,122.163,294.6,122.049,294.551,121.989Z" transform="translate(-262.053 7.931)" fill="#001929"/>
      <path id="Caminho_2012" data-name="Caminho 2012" d="M296.6,120.2c-1.237-1.1-2.983-1.559-4.007-2.933a.1.1,0,0,0-.18.078,4.263,4.263,0,0,0,4.111,3.04A.109.109,0,0,0,296.6,120.2Z" transform="translate(-260.928 8.446)" fill="#001929"/>
      <path id="Caminho_2013" data-name="Caminho 2013" d="M362.173,111.946c-.741,1.488-1,3.168-1.775,4.68-.746,1.461-1.822,2.708-2.694,4.088a.039.039,0,0,0,.053.054c2.423-1.638,5.045-5.689,4.878-8.7C362.621,111.842,362.29,111.711,362.173,111.946Z" transform="translate(-224.737 5.452)" fill="#001929"/>
      <path id="Caminho_2014" data-name="Caminho 2014" d="M360.4,110.367a.17.17,0,0,0-.308-.04,6.79,6.79,0,0,0-.765,2.579,16.814,16.814,0,0,1-.8,2.725c-.107.264.291.389.434.183C359.958,114.4,361.054,112.112,360.4,110.367Z" transform="translate(-224.283 4.577)" fill="#001929"/>
      <path id="Caminho_2015" data-name="Caminho 2015" d="M357.826,91.464c0,2.255-3.547,4.085-7.924,4.085s-7.922-1.829-7.922-4.085,3.548-4.085,7.922-4.085S357.826,89.207,357.826,91.464Z" transform="translate(-233.45 -8.098)" fill="#f5b4b2"/>
      <path id="Caminho_2016" data-name="Caminho 2016" d="M317.169,91.464c0,2.255-3.547,4.085-7.924,4.085s-7.921-1.829-7.921-4.085,3.546-4.085,7.921-4.085S317.169,89.207,317.169,91.464Z" transform="translate(-255.987 -8.098)" fill="#f5b4b2"/>
      <path id="Caminho_2017" data-name="Caminho 2017" d="M321.752,99.908a1.644,1.644,0,0,1-1.633-1.477,11.376,11.376,0,0,1,2.911-8.541,7.508,7.508,0,0,1,5.82-2.565,7.406,7.406,0,0,1,6.047,3.73,17.507,17.507,0,0,1,2.277,6.054,1.644,1.644,0,0,1-3.229.619c-.315-1.641-1.62-7-5.2-7.118a4.36,4.36,0,0,0-3.311,1.521,8.183,8.183,0,0,0-2.045,5.965,1.645,1.645,0,0,1-1.637,1.811Z" transform="translate(-246.395 -8.929)" fill="#223659"/>
      <path id="Caminho_2019" data-name="Caminho 2019" d="M346.538,44.941c-1.727,3.9-.881,8.121-.036,12.348.846,2.537-2.535,4.226-4.93,5.353,1.5-.168,1.71-1.079,0,0a28.026,28.026,0,0,1,4.93-.283c4.226,1.691,5.072,6.763,9.3,8.451,3.379,1.691,6.76,2.537,9.295,1.691,4.226-.844,9.3.846,13.523,1.691,4.226,0,11.76-7.546,10.977-8.236-1.152-2.011-13.936-5.075-13.936-5.075s.051,4.7-1.879,4.239c-3.12-.751-7.365-1.578-8.195-.746-3.1,3.1-13.857-4.079-13.237-5.676C353.615,55.434,346.538,44.941,346.538,44.941Z" transform="translate(-233.676 -31.623)" fill="#accee0" style="mix-blend-mode: multiply;isolation: isolate"/>
      <path id="Caminho_2020" data-name="Caminho 2020" d="M379.238,68.033c-6.033.126-6.887-2.495-12.873-.685-5.872,1.775-10.779.493-14.239-4.851-3.236-5-3.185-11.281-6.272-16.212-.74,3.3-.048,6.777.648,10.259.729,2.188-1.689,3.746-3.9,4.857a3.491,3.491,0,0,0-1.026.5,28.026,28.026,0,0,1,4.93-.283c4.226,1.691,5.072,6.763,9.3,8.451,3.379,1.691,6.76,2.537,9.295,1.691,4.226-.844,9.3.846,13.523,1.691,2.122,0,8.557-6.395,10.352-8.241C388.8,65.217,379.414,68.03,379.238,68.033Z" transform="translate(-233.676 -30.878)" fill="#accee0" style="mix-blend-mode: multiply;isolation: isolate"/>
      <g id="Grupo_964" data-name="Grupo 964" transform="translate(65.952 4.885)">
        <path id="Caminho_2008" data-name="Caminho 2008" d="M345.738,46.151l-1.276.539c-.821.334-1.963.846-3.328,1.469-.7.3-1.452.631-2.249.979s-1.646.709-2.549,1.024-1.808.707-2.773.984-1.94.56-2.917.842-1.988.42-2.964.633a26.084,26.084,0,0,1-2.886.494c-1.893.168-3.643.46-5.161.469l-5.047.081,5.027-.345c1.506-.087,3.235-.471,5.093-.732a26.222,26.222,0,0,0,2.826-.637c.95-.263,1.937-.445,2.882-.776l2.817-.976c.929-.319,1.8-.754,2.666-1.107s1.68-.749,2.45-1.138l2.176-1.085c1.352-.7,2.482-1.282,3.278-1.657l1.247-.6a.845.845,0,0,1,.74,1.52l-.039.017Z" transform="translate(-314.587 -36.74)" fill="#223659"/>
        <path id="Caminho_2018" data-name="Caminho 2018" d="M385.159,79.47l-11.018-2.838c-.372.255-.869.58-1.408.89-1.928,1.107-3.262,1.379-4.325.882-.768-.359-2.038-.785-3.382-1.237-5.2-1.748-11.682-3.924-11.682-8.517a.267.267,0,0,0-.122-.247c-.958-.846-4.441-.925-6.587-.657l-7.465.932,6.4-3.96c2.172-1.347,4.324-3.154,4.786-3.99-1.29-2.352-2.472-7.769-1.549-10.489a18.778,18.778,0,0,1,9.149-10.256l1.378,2.985-.689-1.492.693,1.49a15.682,15.682,0,0,0-7.418,8.33c-.552,1.627.4,6.423,1.4,7.989a2.584,2.584,0,0,1,.318,2.005c-.147.641-.55,1.624-2.228,3.16A7.529,7.529,0,0,1,355.4,65.94a3.53,3.53,0,0,1,1.234,2.711c0,1.047,1.49,2.073,2.739,2.749a44.723,44.723,0,0,0,6.7,2.652c1.4.47,2.621.88,3.54,1.289a11.565,11.565,0,0,0,3.205-1.8l.633-.479,10.879,2.8,9.061-7.686,2.127,2.507Z" transform="translate(-304.487 -39.982)" fill="#223659"/>
        <g id="Grupo_933" data-name="Grupo 933" transform="translate(27.999 25.341)">
          <path id="Caminho_2021" data-name="Caminho 2021" d="M346.842,57.4l-7.111,2.239.261-.254-1.132,2.576-.2.449-.368-.291L336.119,60.4l.294.032L332.6,61.823l3.573-1.921.141-.076.153.108,2.269,1.591-.565.158.981-2.637.062-.168.2-.086,6.836-2.974Z" transform="translate(-332.601 -55.819)" fill="#223659"/>
        </g>
        <g id="Grupo_935" data-name="Grupo 935" transform="translate(79.233 36.963)">
          <path id="Caminho_2022" data-name="Caminho 2022" d="M366.986,63.3l1.656,3.317-.223-.18,2,.835.25.1-.008.244-.079,2.406-.192-.275,3.91,1.736L370.185,70.3,370,70.243l-.008-.221-.079-2.406.241.348-2.053-.682-.107-.036-.116-.145-2.316-2.895Z" transform="translate(-365.563 -63.296)" fill="#223659"/>
        </g>
        <g id="Grupo_937" data-name="Grupo 937" transform="translate(26.027 24.02)">
          <path id="Caminho_2023" data-name="Caminho 2023" d="M342.13,59.506,337.5,55.73l.21.074-6.381-.835,6.435.012h.086l.123.074,5.124,3.067Z" transform="translate(-331.332 -54.969)" fill="#223659"/>
        </g>
        <path id="Caminho_2024" data-name="Caminho 2024" d="M356.648,62.785l1.536.74c.462.239,1,.437,1.578.668l1.826.726c2.54.981,5.128,1.917,5.128,1.917s-2.684-.524-5.384-1.111l-2.011-.463c-.643-.151-1.259-.283-1.742-.446l-1.649-.5Z" transform="translate(-291.67 -26.616)" fill="#223659"/>
        <path id="Caminho_2025" data-name="Caminho 2025" d="M375.2,61.151l-6.757,4.724,5.652-6Z" transform="translate(-284.733 -28.231)" fill="#223659"/>
        <path id="Caminho_2026" data-name="Caminho 2026" d="M346.971,42.535l-1,1.638-1.023,1.68L343.9,47.815c-1.456,2.673-2.753,5.468-2.753,5.468s.894-2.93,1.988-5.829c.27-.727.543-1.456.8-2.14l.782-1.8.765-1.763Z" transform="translate(-299.865 -38.279)" fill="#223659"/>
        <path id="Caminho_2027" data-name="Caminho 2027" d="M375.5,61.652l-4.32,2.451,3.249-3.757Z" transform="translate(-283.215 -27.969)" fill="#223659"/>
      </g>
      <path id="Caminho_2028" data-name="Caminho 2028" d="M349.363,44.235a39.513,39.513,0,0,0,4.843,3.9,7.309,7.309,0,0,0,4.77,1.7c.034,0,.048-.036.042-.065-.322-1.414-2.262-2.484-3.317-3.378a54.485,54.485,0,0,0-4.651-4.124A1.3,1.3,0,0,0,349.363,44.235Z" transform="translate(-229.598 -33.253)" fill="#fff"/>
      <g id="Grupo_963" data-name="Grupo 963" transform="translate(105.329 76.555)">
        <path id="Caminho_2029" data-name="Caminho 2029" d="M340.742,86.765a.282.282,0,0,0,0,.564A.282.282,0,0,0,340.742,86.765Z" transform="translate(-339.617 -84.993)" fill="#223659"/>
        <path id="Caminho_2030" data-name="Caminho 2030" d="M342.794,86.456a1.046,1.046,0,0,0,0,2.091A1.046,1.046,0,0,0,342.794,86.456Z" transform="translate(-338.889 -85.165)" fill="#223659"/>
        <path id="Caminho_2031" data-name="Caminho 2031" d="M346.3,86.194a.529.529,0,0,0,0,1.057A.529.529,0,0,0,346.3,86.194Z" transform="translate(-336.668 -85.309)" fill="#223659"/>
        <path id="Caminho_2032" data-name="Caminho 2032" d="M345.007,87.548a.81.81,0,0,0,0,1.62A.81.81,0,0,0,345.007,87.548Z" transform="translate(-337.536 -84.559)" fill="#223659"/>
        <path id="Caminho_2033" data-name="Caminho 2033" d="M348,87.888a.9.9,0,0,0,0,1.8A.9.9,0,0,0,348,87.888Z" transform="translate(-335.923 -84.371)" fill="#223659"/>
        <path id="Caminho_2034" data-name="Caminho 2034" d="M349.811,85.625a.718.718,0,0,0,0,1.435A.718.718,0,0,0,349.811,85.625Z" transform="translate(-334.822 -85.625)" fill="#223659"/>
        <path id="Caminho_2035" data-name="Caminho 2035" d="M352.482,86.333a.559.559,0,0,0,0,1.118A.559.559,0,0,0,352.482,86.333Z" transform="translate(-333.258 -85.233)" fill="#223659"/>
        <path id="Caminho_2036" data-name="Caminho 2036" d="M352.159,88.634a.229.229,0,0,0,0,.459A.229.229,0,0,0,352.159,88.634Z" transform="translate(-333.259 -83.957)" fill="#223659"/>
        <path id="Caminho_2037" data-name="Caminho 2037" d="M342.21,89.789a.5.5,0,0,0,0,.989A.495.495,0,0,0,342.21,89.789Z" transform="translate(-338.916 -83.317)" fill="#223659"/>
        <path id="Caminho_2038" data-name="Caminho 2038" d="M340.352,88.164a.447.447,0,0,0,0,.894A.447.447,0,0,0,340.352,88.164Z" transform="translate(-339.921 -84.218)" fill="#223659"/>
        <path id="Caminho_2039" data-name="Caminho 2039" d="M344.868,90.341a.13.13,0,0,0,0,.26A.13.13,0,0,0,344.868,90.341Z" transform="translate(-337.247 -83.011)" fill="#223659"/>
        <path id="Caminho_2040" data-name="Caminho 2040" d="M347.065,89.805a.235.235,0,0,0,0,.469A.235.235,0,0,0,347.065,89.805Z" transform="translate(-336.086 -83.307)" fill="#223659"/>
      </g>
      <g id="Grupo_962" data-name="Grupo 962" transform="translate(44.029 76.555)">
        <path id="Caminho_2041" data-name="Caminho 2041" d="M301.3,86.765a.282.282,0,0,0,0,.564A.282.282,0,0,0,301.3,86.765Z" transform="translate(-300.179 -84.993)" fill="#223659"/>
        <path id="Caminho_2042" data-name="Caminho 2042" d="M303.356,86.456a1.046,1.046,0,0,0,0,2.091A1.046,1.046,0,0,0,303.356,86.456Z" transform="translate(-299.451 -85.165)" fill="#223659"/>
        <path id="Caminho_2043" data-name="Caminho 2043" d="M306.862,86.194a.529.529,0,0,0,0,1.057A.529.529,0,0,0,306.862,86.194Z" transform="translate(-297.229 -85.309)" fill="#223659"/>
        <path id="Caminho_2044" data-name="Caminho 2044" d="M305.568,87.548a.81.81,0,0,0,0,1.62A.81.81,0,0,0,305.568,87.548Z" transform="translate(-298.097 -84.559)" fill="#223659"/>
        <path id="Caminho_2045" data-name="Caminho 2045" d="M308.565,87.888a.9.9,0,0,0,0,1.8A.9.9,0,0,0,308.565,87.888Z" transform="translate(-296.485 -84.371)" fill="#223659"/>
        <path id="Caminho_2046" data-name="Caminho 2046" d="M310.373,85.625a.718.718,0,0,0,0,1.435A.718.718,0,0,0,310.373,85.625Z" transform="translate(-295.384 -85.625)" fill="#223659"/>
        <path id="Caminho_2047" data-name="Caminho 2047" d="M313.044,86.333a.559.559,0,0,0,0,1.118A.559.559,0,0,0,313.044,86.333Z" transform="translate(-293.819 -85.233)" fill="#223659"/>
        <path id="Caminho_2048" data-name="Caminho 2048" d="M312.721,88.634a.229.229,0,0,0,0,.459A.229.229,0,0,0,312.721,88.634Z" transform="translate(-293.82 -83.957)" fill="#223659"/>
        <path id="Caminho_2049" data-name="Caminho 2049" d="M302.773,89.789a.5.5,0,0,0,0,.989A.495.495,0,0,0,302.773,89.789Z" transform="translate(-299.477 -83.317)" fill="#223659"/>
        <path id="Caminho_2050" data-name="Caminho 2050" d="M300.914,88.164a.447.447,0,0,0,0,.894A.447.447,0,0,0,300.914,88.164Z" transform="translate(-300.483 -84.218)" fill="#223659"/>
        <path id="Caminho_2051" data-name="Caminho 2051" d="M305.43,90.341a.13.13,0,0,0,0,.26A.13.13,0,0,0,305.43,90.341Z" transform="translate(-297.809 -83.011)" fill="#223659"/>
        <path id="Caminho_2052" data-name="Caminho 2052" d="M307.627,89.805a.235.235,0,0,0,0,.469A.235.235,0,0,0,307.627,89.805Z" transform="translate(-296.648 -83.307)" fill="#223659"/>
      </g>
      <path id="Caminho_2053" data-name="Caminho 2053" d="M358.45,93.5c.712,2.921-1.327,7.234-4.6,7.716-2.91.429-4.612-2.139-3.6-4.969a15.582,15.582,0,0,0-.818-12.172S356.841,86.906,358.45,93.5Z" transform="translate(-229.322 -9.928)" fill="#a6dcf9"/>
      <path id="Caminho_2054" data-name="Caminho 2054" d="M352.851,95.7c.794-7.842-3.424-11.62-3.424-11.62a15.582,15.582,0,0,1,.818,12.172c-1.01,2.83.692,5.4,3.6,4.969a4.385,4.385,0,0,0,1.674-.625C354.1,99.417,352.666,97.517,352.851,95.7Z" transform="translate(-229.322 -9.928)" fill="#8cd2f7"/>
      <path id="Caminho_2055" data-name="Caminho 2055" d="M354.221,89.156c.269,1.766-1.484,5.2-1.1,5.824a1.116,1.116,0,0,0,1.736.12C355.672,94.374,356.358,90.867,354.221,89.156Z" transform="translate(-227.306 -7.113)" fill="#fff"/>
      <path id="Caminho_2056" data-name="Caminho 2056" d="M366.141,37.405a1.137,1.137,0,0,0-1.778-.807c-1.7,1.5-2.244,3.625-2.818,5.762-.631,2.344-1.3,5.321-.574,7.691a1.03,1.03,0,0,0,1.741.3c1.186-1.62,1.441-3.71,1.918-5.628C365.213,42.365,366.286,39.849,366.141,37.405Z" transform="translate(-223.097 -36.373)" fill="#001929"/>
      <path id="Caminho_2057" data-name="Caminho 2057" d="M373.462,41.618a15.9,15.9,0,0,0-4.267,2.785,41.033,41.033,0,0,0-4.187,3.685.633.633,0,0,0,.547,1.031,11.368,11.368,0,0,0,4.68-2.4,22.043,22.043,0,0,0,4.093-3.884A.778.778,0,0,0,373.462,41.618Z" transform="translate(-220.768 -33.493)" fill="#001929"/>
      <path id="Caminho_2058" data-name="Caminho 2058" d="M380.362,45.729c-4.181.588-7.761,2.806-12.09,2.953-1.054.036-1.239,1.354-.606,1.977,1.708,1.686,4.419,1.2,6.522.675a14.9,14.9,0,0,0,7.2-3.679A1.185,1.185,0,0,0,380.362,45.729Z" transform="translate(-219.413 -31.192)" fill="#001929"/>
    </g>
  </g>
</svg>
