<svg xmlns="http://www.w3.org/2000/svg" width="223.755" height="224.938" viewBox="0 0 223.755 224.938">
  <g id="Grupo_1652" data-name="Grupo 1652" transform="translate(-102.122 -167.901)">
    <ellipse id="Elipse_82" data-name="Elipse 82" cx="62.244" cy="11.49" rx="62.244" ry="11.49" transform="translate(151.756 369.858)" opacity="0.098"/>
    <g id="Grupo_866" data-name="Grupo 866" transform="translate(102.122 167.901)">
      <g id="Grupo_864" data-name="Grupo 864" transform="translate(157.224 34.537)">
        <path id="Caminho_1522" data-name="Caminho 1522" d="M472.508,167.813s7.239-1.046,8.925-3.241,3.243-8.928,3.243-8.928.4,6.462,3.24,8.928,8.925,3.241,8.925,3.241-6.98.139-8.925,3.241-3.24,8.926-3.24,8.926-.658-6.851-3.243-8.926S472.508,167.813,472.508,167.813Z" transform="translate(-445.008 -121.791)" fill="#fff"/>
        <path id="Caminho_1523" data-name="Caminho 1523" d="M427.44,169.59s3.3,1.162,4.507.608a16.573,16.573,0,0,0,3.354-3.069s-1.266,2.831-.607,4.507,3.064,3.355,3.064,3.355-2.988-1.49-4.5-.605a17.226,17.226,0,0,0-3.357,3.066s1.244-3.051.6-4.505S427.44,169.59,427.44,169.59Z" transform="translate(-427.44 -126.267)" fill="#fff"/>
        <path id="Caminho_1524" data-name="Caminho 1524" d="M514.082,104.332s1.26-1.272,1.262-1.948a8.392,8.392,0,0,0-.68-2.221s1.028,1.2,1.946,1.264a5.133,5.133,0,0,0,2.221-.687s-1.34,1.057-1.261,1.952a8.672,8.672,0,0,0,.683,2.219s-1.141-1.241-1.947-1.263A6.538,6.538,0,0,0,514.082,104.332Z" transform="translate(-461.214 -100.163)" fill="#fff"/>
        <path id="Caminho_1525" data-name="Caminho 1525" d="M447.657,128.121s1.01-.146,1.249-.452a5.065,5.065,0,0,0,.453-1.245,2.172,2.172,0,0,0,.449,1.245,2.913,2.913,0,0,0,1.245.452s-.976.02-1.245.451a5.088,5.088,0,0,0-.449,1.248s-.093-.956-.453-1.248A3.8,3.8,0,0,0,447.657,128.121Z" transform="translate(-435.321 -110.4)" fill="#fff"/>
        <path id="Caminho_1526" data-name="Caminho 1526" d="M473.531,288.724s3.3,1.164,4.5.607a16.431,16.431,0,0,0,3.353-3.066s-1.264,2.828-.608,4.505,3.069,3.355,3.069,3.355-2.987-1.49-4.506-.605a17.136,17.136,0,0,0-3.349,3.065s1.239-3.05.6-4.5S473.531,288.724,473.531,288.724Z" transform="translate(-445.407 -172.708)" fill="#fff"/>
        <path id="Caminho_1527" data-name="Caminho 1527" d="M528.7,273.65s1.258-1.273,1.261-1.948a8.391,8.391,0,0,0-.682-2.222s1.032,1.2,1.947,1.263a5.1,5.1,0,0,0,2.22-.685s-1.341,1.057-1.264,1.951a8.726,8.726,0,0,0,.691,2.22s-1.143-1.241-1.955-1.262A6.487,6.487,0,0,0,528.7,273.65Z" transform="translate(-466.91 -166.164)" fill="#fff"/>
        <path id="Caminho_1528" data-name="Caminho 1528" d="M446.551,214.081s1.259-1.274,1.265-1.951a8.6,8.6,0,0,0-.686-2.22s1.031,1.2,1.952,1.263a5.124,5.124,0,0,0,2.218-.687s-1.342,1.059-1.265,1.951a8.787,8.787,0,0,0,.685,2.219s-1.139-1.239-1.949-1.262A6.493,6.493,0,0,0,446.551,214.081Z" transform="translate(-434.89 -142.944)" fill="#fff"/>
        <path id="Caminho_1529" data-name="Caminho 1529" d="M467.018,245.573s1.009-.146,1.244-.452a4.812,4.812,0,0,0,.453-1.245,2.216,2.216,0,0,0,.45,1.245,2.921,2.921,0,0,0,1.249.452s-.974.018-1.249.453a5.056,5.056,0,0,0-.45,1.245s-.091-.956-.453-1.245A3.685,3.685,0,0,0,467.018,245.573Z" transform="translate(-442.868 -156.184)" fill="#fff"/>
        <path id="Caminho_1530" data-name="Caminho 1530" d="M530.64,158.5s.785.652,1.17.622a4.821,4.821,0,0,0,1.231-.5,2.19,2.19,0,0,0-.622,1.169,2.91,2.91,0,0,0,.5,1.227s-.667-.709-1.17-.619a4.994,4.994,0,0,0-1.227.5s.649-.711.619-1.171A3.747,3.747,0,0,0,530.64,158.5Z" transform="translate(-467.623 -122.903)" fill="#fff"/>
        <path id="Caminho_1531" data-name="Caminho 1531" d="M512.139,233.089s.79.65,1.175.62a4.868,4.868,0,0,0,1.224-.5,2.211,2.211,0,0,0-.62,1.172,2.925,2.925,0,0,0,.5,1.226s-.665-.71-1.171-.62a4.978,4.978,0,0,0-1.227.5s.647-.71.621-1.171A3.691,3.691,0,0,0,512.139,233.089Z" transform="translate(-460.411 -151.979)" fill="#fff"/>
      </g>
      <g id="Grupo_865" data-name="Grupo 865">
        <path id="Caminho_1532" data-name="Caminho 1532" d="M215.615,130.222s-3.673-6.325-3-9.011,4.989-8.078,4.989-8.078-5.312,3.7-9.009,2.995-8.083-4.988-8.083-4.988,4.22,5.562,3,9.009-4.99,8.081-4.99,8.081,5.777-3.734,9.011-2.995S215.615,130.222,215.615,130.222Z" transform="translate(-180.983 -69.905)" fill="#fff"/>
        <path id="Caminho_1533" data-name="Caminho 1533" d="M309.992,176.92s-2.96-1.868-3.271-3.156a16.649,16.649,0,0,1,.323-4.535s-1.431,2.749-3.153,3.272-4.539-.323-4.539-.323,3.028,1.419,3.272,3.155a17.245,17.245,0,0,1-.322,4.535s1.624-2.866,3.156-3.27S309.992,176.92,309.992,176.92Z" transform="translate(-220.286 -92.549)" fill="#fff"/>
        <path id="Caminho_1534" data-name="Caminho 1534" d="M311.114,49.517s.218-1.776.746-2.2a8.485,8.485,0,0,1,2.167-.839,3.843,3.843,0,0,1-2.2-.747,5.136,5.136,0,0,1-.841-2.168s0,1.71-.746,2.2a8.7,8.7,0,0,1-2.162.839s1.678.124,2.2.745A6.514,6.514,0,0,1,311.114,49.517Z" transform="translate(-223.687 -43.563)" fill="#fff"/>
        <path id="Caminho_1535" data-name="Caminho 1535" d="M354.965,95.719s-.514-.885-.422-1.259a4.841,4.841,0,0,1,.7-1.128,2.208,2.208,0,0,1-1.261.418,2.936,2.936,0,0,1-1.126-.7s.588.775.417,1.259a5.077,5.077,0,0,1-.7,1.128s.807-.522,1.26-.419A3.748,3.748,0,0,1,354.965,95.719Z" transform="translate(-241.033 -62.855)" fill="#fff"/>
        <path id="Caminho_1536" data-name="Caminho 1536" d="M219.19,238.157s-2.964-1.87-3.271-3.158a16.721,16.721,0,0,1,.323-4.534s-1.433,2.75-3.157,3.272-4.536-.324-4.536-.324,3.025,1.421,3.274,3.156a17.422,17.422,0,0,1-.321,4.534s1.618-2.866,3.155-3.271S219.19,238.157,219.19,238.157Z" transform="translate(-184.891 -116.42)" fill="#fff"/>
        <path id="Caminho_1537" data-name="Caminho 1537" d="M203.919,337.788s.218-1.777.745-2.2a8.442,8.442,0,0,1,2.166-.84,3.83,3.83,0,0,1-2.2-.747,5.1,5.1,0,0,1-.841-2.166s0,1.708-.749,2.2a8.812,8.812,0,0,1-2.162.84s1.677.124,2.2.748A6.521,6.521,0,0,1,203.919,337.788Z" transform="translate(-181.901 -155.935)" fill="#fff"/>
        <path id="Caminho_1538" data-name="Caminho 1538" d="M257.174,173.143s.221-1.777.746-2.2a8.519,8.519,0,0,1,2.171-.838,3.866,3.866,0,0,1-2.206-.747,5.154,5.154,0,0,1-.836-2.165s0,1.706-.744,2.2a8.766,8.766,0,0,1-2.167.839s1.679.125,2.2.746A6.473,6.473,0,0,1,257.174,173.143Z" transform="translate(-202.66 -91.755)" fill="#fff"/>
        <path id="Caminho_1539" data-name="Caminho 1539" d="M172.164,183.306s-.514-.885-.419-1.259a4.78,4.78,0,0,1,.7-1.126,2.2,2.2,0,0,1-1.259.416,2.917,2.917,0,0,1-1.131-.694s.592.772.42,1.256a4.948,4.948,0,0,1-.7,1.128s.807-.521,1.256-.419A3.692,3.692,0,0,1,172.164,183.306Z" transform="translate(-169.776 -96.998)" fill="#fff"/>
        <path id="Caminho_1540" data-name="Caminho 1540" d="M236.014,85.936s-1-.213-1.215-.535a4.756,4.756,0,0,1-.368-1.271,2.184,2.184,0,0,1-.536,1.211,2.915,2.915,0,0,1-1.272.37s.972.083,1.216.533a5.124,5.124,0,0,1,.364,1.275s.158-.949.538-1.214A3.749,3.749,0,0,1,236.014,85.936Z" transform="translate(-194.274 -59.376)" fill="#fff"/>
        <path id="Caminho_1541" data-name="Caminho 1541" d="M174.755,91.491s-1-.214-1.212-.533a4.8,4.8,0,0,1-.369-1.273,2.2,2.2,0,0,1-.533,1.213,2.928,2.928,0,0,1-1.277.369s.973.082,1.216.533a5.031,5.031,0,0,1,.365,1.273s.158-.948.536-1.212A3.66,3.66,0,0,1,174.755,91.491Z" transform="translate(-170.395 -61.542)" fill="#fff"/>
      </g>
    </g>
    <g id="Grupo_878" data-name="Grupo 878" transform="translate(134.671 209.003)">
      <g id="Grupo_877" data-name="Grupo 877" transform="translate(0 0)">
        <path id="Caminho_1542" data-name="Caminho 1542" d="M342.374,113.133c-11.3,0-21.493,10.255-36.74,10.255s-25.441-10.255-36.74-10.255c-22.337,0-46.545,31.876-43.268,57.455,3.653,28.517,35.4,114.491,57.315,114.491,10.817,0,10.764-21.478,16.3-44.533,2.528-10.536,7.585-11.8,10.114.842,4.733,23.665,8.851,43.691,18.976,43.691,21.914,0,54.292-91.569,57.315-114.491C389.013,145.021,364.138,113.133,342.374,113.133Z" transform="translate(-223.979 -111.785)" fill="#eff9ff"/>
        <path id="Caminho_1542_-_Contorno" data-name="Caminho 1542 - Contorno" d="M268.861,111.752c5.51,0,10.665,2.267,16.123,4.667,6.247,2.747,12.706,5.588,20.617,5.588s14.369-2.84,20.616-5.587c5.458-2.4,10.614-4.668,16.125-4.668a26.94,26.94,0,0,1,7.75,1.2,36.861,36.861,0,0,1,7.612,3.325,55.625,55.625,0,0,1,13.875,11.611,67.183,67.183,0,0,1,12.265,20.327,53.977,53.977,0,0,1,2.959,11.276,41.122,41.122,0,0,1,.142,11.244c-1.493,11.322-10.2,39.853-21.674,66.2-2.943,6.762-5.909,13-8.816,18.555a152.876,152.876,0,0,1-9.277,15.656,57.036,57.036,0,0,1-9.38,10.947c-3.347,2.854-6.545,4.3-9.505,4.3-2.831,0-5.39-1.339-7.6-3.981a32.791,32.791,0,0,1-5.173-9.879c-2.984-8.233-5.29-19.763-7.521-30.915a22.761,22.761,0,0,0-2.115-6.5c-.649-1.129-1.236-1.532-1.569-1.532s-.955.4-1.652,1.51a20.09,20.09,0,0,0-2.147,5.728c-1.456,6.07-2.548,12.166-3.511,17.545-1.394,7.785-2.6,14.508-4.5,19.443a16.983,16.983,0,0,1-3.689,6.142,8.193,8.193,0,0,1-5.907,2.437c-2.953,0-6.133-1.363-9.453-4.05a53.925,53.925,0,0,1-9.328-10.39,139.974,139.974,0,0,1-9.206-14.973c-2.9-5.37-5.847-11.405-8.75-17.939a381.175,381.175,0,0,1-14.447-38.159c-3.9-12.27-6.548-22.98-7.467-30.156a42.153,42.153,0,0,1,.155-11.323,54.761,54.761,0,0,1,2.952-11.355,66.55,66.55,0,0,1,12.284-20.427,54.294,54.294,0,0,1,13.773-11.429A31.5,31.5,0,0,1,268.861,111.752ZM305.6,124.7a39.073,39.073,0,0,1-11.716-1.884,93.513,93.513,0,0,1-9.986-3.932c-5.191-2.283-10.095-4.439-15.038-4.439a28.858,28.858,0,0,0-14.119,4.093A51.579,51.579,0,0,0,241.67,129.4a63.827,63.827,0,0,0-11.783,19.59,45.4,45.4,0,0,0-2.958,21.392c.9,7.021,3.514,17.562,7.362,29.683a378.393,378.393,0,0,0,14.342,37.88c5.964,13.425,12.079,24.64,17.681,32.433a51.319,51.319,0,0,0,8.836,9.868c2.827,2.289,5.437,3.45,7.757,3.45,3.07,0,5.255-2.113,7.081-6.853,1.81-4.694,2.992-11.3,4.361-18.948.969-5.415,2.068-11.553,3.543-17.7a22.371,22.371,0,0,1,2.483-6.53c1.436-2.293,2.933-2.775,3.935-2.775,1.026,0,2.536.5,3.906,2.884a24.951,24.951,0,0,1,2.421,7.314c2.211,11.053,4.5,22.483,7.412,30.525a30.279,30.279,0,0,0,4.7,9.066c1.7,2.03,3.513,3.017,5.538,3.017,2.3,0,4.911-1.23,7.756-3.657a54.437,54.437,0,0,0,8.91-10.426,150.2,150.2,0,0,0,9.108-15.376c2.876-5.493,5.814-11.677,8.732-18.381,5.177-11.894,10.283-25.445,14.377-38.157,3.759-11.67,6.345-21.629,7.1-27.323a44.443,44.443,0,0,0-2.951-21.216,64.456,64.456,0,0,0-11.77-19.5,52.908,52.908,0,0,0-13.185-11.048,34.171,34.171,0,0,0-7.052-3.084,24.251,24.251,0,0,0-6.973-1.082c-4.944,0-9.848,2.156-15.039,4.439a93.509,93.509,0,0,1-9.986,3.932A39.07,39.07,0,0,1,305.6,124.7Z" transform="translate(-223.946 -111.752)" fill="#223659"/>
        <path id="Caminho_1543" data-name="Caminho 1543" d="M288.322,247.949c10.426.841,8.358-30.625,29.922-31.906,12.387-.735,17.86,5.427,19.685,14.977,1.932,10.1,1.215,19.544,12.084,18.895s40.548-47.482,39.741-77.189c-.369-13.579-6.116-28.853-12.5-40.8a23.172,23.172,0,0,0-21.43-12.019c-10.943.4-20.717,7.682-29.993,12.719-12.495,6.786-21.685-4.562-32.948-7.607-10.762-2.909-20.689-.046-27.807,8.853-8.6,10.75-8.744,26.644-5.625,39.474C261.723,182.7,277.9,247.105,288.322,247.949Z" transform="translate(-236.556 -114.419)" fill="#fff" opacity="0.7"/>
        <path id="Caminho_1544" data-name="Caminho 1544" d="M337.5,139.348c7.4.783,13.538-1.017,20.582-3.028,6.843-1.953,14.363-3.132,20.966.315,13.5,7.053,19.895,24.5,22.438,38.6,1.53,8.48,2.613,17.126,1.33,25.7A58.579,58.579,0,0,1,401.1,208.6c5.331-12.2,9.01-25.151,8.718-35.87-.369-13.579-6.116-28.853-12.5-40.8a23.172,23.172,0,0,0-21.43-12.019c-10.943.4-20.716,7.682-29.993,12.719-12.495,6.786-21.685-4.562-32.948-7.607a32.441,32.441,0,0,0-3.879-.8C316.33,132.2,327.065,138.242,337.5,139.348Z" transform="translate(-256.623 -114.419)" fill="#fff"/>
        <path id="Caminho_1545" data-name="Caminho 1545" d="M313.411,126.989c5.619,4.557,12.92,5.826,19.969,4.578,8.435-1.494,17.774-5.963,20.9-13.181-5.823,2.54-12.135,5.057-19.69,5.057-14.451,0-24.363-9.205-34.981-10.168C304.24,117.815,308.336,122.875,313.411,126.989Z" transform="translate(-252.936 -111.841)" fill="#dff2fe" style="mix-blend-mode: multiply;isolation: isolate"/>
        <path id="Caminho_1546" data-name="Caminho 1546" d="M353.431,281.016c-4.127,6.132-15.259,13.9-23.845,11.573-8.427-2.283-9.15-14.127-10.758-21.04-.757-3.25-1.262-8.988-4.773-10.539a12.886,12.886,0,0,0-11.281.633,28.747,28.747,0,0,0-13.2,19.384c-1.087,7.125-2.385,17.245-11.589,17.438-4.838.1-7.312-5.211-10.153-8.5-4.589-5.3-25.1-41.544-40.942-75.879,5.811,31.865,35.723,110.342,56.66,110.342,10.817,0,10.764-21.478,16.3-44.533,2.528-10.536,7.585-11.8,10.114.842,4.733,23.665,8.851,43.691,18.976,43.691,15.833,0,37.128-47.8,48.867-82.975C370.007,257.417,362.467,267.589,353.431,281.016Z" transform="translate(-224.589 -151.14)" fill="#dff2fe" style="mix-blend-mode: multiply;isolation: isolate"/>
        <g id="Grupo_867" data-name="Grupo 867" transform="translate(45.539 52.754)">
          <path id="Caminho_1547" data-name="Caminho 1547" d="M314.185,205.6a8.218,8.218,0,1,1-8.218-8.218A8.219,8.219,0,0,1,314.185,205.6Z" transform="translate(-297.749 -197.38)" fill="#223659"/>
          <path id="Caminho_1548" data-name="Caminho 1548" d="M317.1,213.271a2.423,2.423,0,1,1-2.424-2.423A2.424,2.424,0,0,1,317.1,213.271Z" transform="translate(-303.403 -202.63)" fill="#fff"/>
          <path id="Caminho_1549" data-name="Caminho 1549" d="M312.816,207.287a1.562,1.562,0,1,1-1.562-1.564A1.562,1.562,0,0,1,312.816,207.287Z" transform="translate(-302.404 -200.632)" fill="#fff"/>
        </g>
        <g id="Grupo_868" data-name="Grupo 868" transform="translate(105.21 52.754)">
          <path id="Caminho_1550" data-name="Caminho 1550" d="M395.541,205.6a8.218,8.218,0,1,0,8.219-8.218A8.218,8.218,0,0,0,395.541,205.6Z" transform="translate(-395.541 -197.38)" fill="#223659"/>
          <path id="Caminho_1551" data-name="Caminho 1551" d="M400.03,213.271a2.423,2.423,0,1,0,2.424-2.423A2.424,2.424,0,0,0,400.03,213.271Z" transform="translate(-397.291 -202.63)" fill="#fff"/>
          <path id="Caminho_1552" data-name="Caminho 1552" d="M405.412,207.287a1.563,1.563,0,1,0,1.563-1.564A1.562,1.562,0,0,0,405.412,207.287Z" transform="translate(-399.389 -200.632)" fill="#fff"/>
        </g>
        <path id="Caminho_1553" data-name="Caminho 1553" d="M414.706,185.465a2.022,2.022,0,0,1-1.958-1.523,5.47,5.47,0,0,0-2.668-3.391,8.4,8.4,0,0,0-4.6-1.029c-3.138.2-4.455,1.849-4.642,3.331a2.022,2.022,0,0,1-4.012-.5,7.219,7.219,0,0,1,3.022-5.053,10.224,10.224,0,0,1,5.38-1.809,12.369,12.369,0,0,1,6.866,1.559,9.389,9.389,0,0,1,4.57,5.9,2.023,2.023,0,0,1-1.961,2.521Z" transform="translate(-291.583 -136.839)" fill="#223659"/>
        <path id="Caminho_1554" data-name="Caminho 1554" d="M296.633,185.465a2.023,2.023,0,0,1-1.96-2.521,9.389,9.389,0,0,1,4.572-5.9,12.37,12.37,0,0,1,6.867-1.559,10.224,10.224,0,0,1,5.38,1.809,7.218,7.218,0,0,1,3.021,5.053,2.022,2.022,0,0,1-4.012.5c-.186-1.482-1.5-3.135-4.641-3.331a8.4,8.4,0,0,0-4.6,1.029,5.471,5.471,0,0,0-2.668,3.391A2.023,2.023,0,0,1,296.633,185.465Z" transform="translate(-251.744 -136.839)" fill="#223659"/>
        <g id="Grupo_869" data-name="Grupo 869" transform="translate(65.486 7.256)">
          <path id="Caminho_1555" data-name="Caminho 1555" d="M363.052,124.467l-.363.111c-.233.075-.594.173-1.018.32s-.915.317-1.511.563-1.259.5-1.987.813a93.2,93.2,0,0,1-10.95,4.082c-1.016.319-2.062.534-3.074.8-1.029.2-2.031.441-3.018.585s-1.932.325-2.842.4-1.762.212-2.558.232l-2.165.114-1.671.005H330.44l1.452-.074,1.665-.088,2.15-.221c.789-.06,1.632-.231,2.527-.358s1.828-.344,2.8-.533,1.947-.482,2.951-.726c.987-.314,2-.575,2.99-.94a92.246,92.246,0,0,0,10.62-4.575c.715-.347,1.38-.657,1.975-.926s1.148-.491,1.585-.681.779-.286,1.014-.375l.357-.129a.843.843,0,1,1,.573,1.586l-.037.012Z" transform="translate(-330.44 -122.816)" fill="#001929"/>
        </g>
        <path id="Caminho_1556" data-name="Caminho 1556" d="M271.5,129.73c-1.33-.1-2.948,1.118-3.944,1.9a11.16,11.16,0,0,0-3.078,3.933.079.079,0,0,0,.137.081,13.391,13.391,0,0,1,3.356-3.475c1.105-.838,2.715-1.169,3.662-2.122A.189.189,0,0,0,271.5,129.73Z" transform="translate(-239.237 -118.253)" fill="#001929"/>
        <path id="Caminho_1557" data-name="Caminho 1557" d="M275.676,131.719a6.114,6.114,0,0,0-4.32,2.715c-.045.08.049.2.135.135a10.753,10.753,0,0,1,4.452-1.878C276.582,132.573,276.31,131.6,275.676,131.719Z" transform="translate(-241.918 -119.027)" fill="#001929"/>
        <path id="Caminho_1558" data-name="Caminho 1558" d="M273.105,311.742c-.647-.838-1.506-1.417-2.217-2.2a7.229,7.229,0,0,1-1.8-3.44c-.012-.073-.109-.047-.115.016-.26,2.34,1.485,5.626,4.062,5.785C273.131,311.916,273.152,311.8,273.105,311.742Z" transform="translate(-240.983 -186.991)" fill="#001929"/>
        <path id="Caminho_1559" data-name="Caminho 1559" d="M278.283,311.391c-1.234-1.1-2.975-1.557-4-2.925a.1.1,0,0,0-.179.075,4.251,4.251,0,0,0,4.1,3.033A.108.108,0,0,0,278.283,311.391Z" transform="translate(-242.993 -187.911)" fill="#001929"/>
        <path id="Caminho_1560" data-name="Caminho 1560" d="M444.422,294.827c-.738,1.48-1,3.159-1.769,4.664-.745,1.461-1.816,2.7-2.687,4.079a.04.04,0,0,0,.054.055c2.416-1.633,5.03-5.672,4.863-8.673C444.87,294.722,444.538,294.592,444.422,294.827Z" transform="translate(-307.646 -182.563)" fill="#001929"/>
        <path id="Caminho_1561" data-name="Caminho 1561" d="M443.921,290.815a.17.17,0,0,0-.306-.042,6.773,6.773,0,0,0-.764,2.574,16.6,16.6,0,0,1-.8,2.716c-.106.263.29.39.434.184C443.477,294.836,444.569,292.555,443.921,290.815Z" transform="translate(-308.455 -181)" fill="#001929"/>
        <path id="Caminho_1562" data-name="Caminho 1562" d="M418.316,119.976c-1.662-1.211-4.232-.947-6.019-.16-.084.037-.038.167.044.167.895-.007,1.781-.092,2.676-.11a32.456,32.456,0,0,1,3.224.379C418.4,120.265,418.423,120.055,418.316,119.976Z" transform="translate(-296.845 -114.129)" fill="#001929"/>
        <path id="Caminho_1563" data-name="Caminho 1563" d="M422.561,124.044a4.844,4.844,0,0,0-4.794-.707c-.18.059-.162.372.048.349a5.908,5.908,0,0,1,3.427.67c.333.172,1.272.923,1.443.154A.481.481,0,0,0,422.561,124.044Z" transform="translate(-298.947 -115.637)" fill="#001929"/>
        <path id="Caminho_1564" data-name="Caminho 1564" d="M415.832,236.677c0,2.25-3.537,4.074-7.9,4.074s-7.9-1.824-7.9-4.074,3.538-4.075,7.9-4.075S415.832,234.426,415.832,236.677Z" transform="translate(-292.081 -158.356)" fill="#f5b4b2"/>
        <path id="Caminho_1565" data-name="Caminho 1565" d="M312.544,236.677c0,2.25-3.537,4.074-7.9,4.074s-7.9-1.824-7.9-4.074,3.538-4.075,7.9-4.075S312.544,234.426,312.544,236.677Z" transform="translate(-251.817 -158.356)" fill="#f5b4b2"/>
        <g id="Grupo_870" data-name="Grupo 870" transform="translate(105.036 71.909)">
          <path id="Caminho_1566" data-name="Caminho 1566" d="M396.916,231.666a.282.282,0,0,0,0,.564A.282.282,0,0,0,396.916,231.666Z" transform="translate(-395.797 -229.9)" fill="#223659"/>
          <path id="Caminho_1567" data-name="Caminho 1567" d="M400.993,230.883a1.042,1.042,0,0,0,0,2.083A1.042,1.042,0,0,0,400.993,230.883Z" transform="translate(-397.098 -229.595)" fill="#223659"/>
          <path id="Caminho_1568" data-name="Caminho 1568" d="M410.672,230.215a.528.528,0,0,0,0,1.055A.528.528,0,0,0,410.672,230.215Z" transform="translate(-401.066 -229.334)" fill="#223659"/>
          <path id="Caminho_1569" data-name="Caminho 1569" d="M406.965,233.656a.809.809,0,0,0,0,1.617A.809.809,0,0,0,406.965,233.656Z" transform="translate(-399.515 -230.676)" fill="#223659"/>
          <path id="Caminho_1570" data-name="Caminho 1570" d="M414.443,234.52a.9.9,0,0,0,0,1.8A.9.9,0,0,0,414.443,234.52Z" transform="translate(-402.396 -231.013)" fill="#223659"/>
          <path id="Caminho_1571" data-name="Caminho 1571" d="M419.311,228.772a.715.715,0,0,0,0,1.43A.715.715,0,0,0,419.311,228.772Z" transform="translate(-404.363 -228.772)" fill="#223659"/>
          <path id="Caminho_1572" data-name="Caminho 1572" d="M426.329,230.569a.558.558,0,0,0,0,1.116A.558.558,0,0,0,426.329,230.569Z" transform="translate(-407.158 -229.472)" fill="#223659"/>
          <path id="Caminho_1573" data-name="Caminho 1573" d="M426,236.417a.227.227,0,0,0,0,.455A.227.227,0,0,0,426,236.417Z" transform="translate(-407.155 -231.752)" fill="#223659"/>
          <path id="Caminho_1574" data-name="Caminho 1574" d="M400.337,239.35a.492.492,0,0,0,0,.984A.492.492,0,0,0,400.337,239.35Z" transform="translate(-397.05 -232.895)" fill="#223659"/>
          <path id="Caminho_1575" data-name="Caminho 1575" d="M395.685,235.22a.446.446,0,0,0,0,.891A.446.446,0,0,0,395.685,235.22Z" transform="translate(-395.255 -231.285)" fill="#223659"/>
          <path id="Caminho_1576" data-name="Caminho 1576" d="M407.632,240.753a.129.129,0,0,0,0,.258A.129.129,0,0,0,407.632,240.753Z" transform="translate(-400.031 -233.442)" fill="#223659"/>
          <path id="Caminho_1577" data-name="Caminho 1577" d="M413.054,239.389a.234.234,0,0,0,0,.468A.234.234,0,0,0,413.054,239.389Z" transform="translate(-402.105 -232.911)" fill="#223659"/>
        </g>
        <g id="Grupo_871" data-name="Grupo 871" transform="translate(43.9 71.909)">
          <path id="Caminho_1578" data-name="Caminho 1578" d="M296.726,231.666a.282.282,0,0,0,0,.564A.282.282,0,0,0,296.726,231.666Z" transform="translate(-295.606 -229.9)" fill="#223659"/>
          <path id="Caminho_1579" data-name="Caminho 1579" d="M300.8,230.883a1.042,1.042,0,0,0,0,2.083A1.042,1.042,0,0,0,300.8,230.883Z" transform="translate(-296.908 -229.595)" fill="#223659"/>
          <path id="Caminho_1580" data-name="Caminho 1580" d="M310.482,230.215a.528.528,0,0,0,0,1.055A.528.528,0,0,0,310.482,230.215Z" transform="translate(-300.875 -229.334)" fill="#223659"/>
          <path id="Caminho_1581" data-name="Caminho 1581" d="M306.775,233.656a.809.809,0,0,0,0,1.617A.809.809,0,0,0,306.775,233.656Z" transform="translate(-299.324 -230.676)" fill="#223659"/>
          <path id="Caminho_1582" data-name="Caminho 1582" d="M314.253,234.52a.9.9,0,0,0,0,1.8A.9.9,0,0,0,314.253,234.52Z" transform="translate(-302.205 -231.013)" fill="#223659"/>
          <path id="Caminho_1583" data-name="Caminho 1583" d="M319.12,228.772a.715.715,0,0,0,0,1.43A.715.715,0,0,0,319.12,228.772Z" transform="translate(-304.172 -228.772)" fill="#223659"/>
          <path id="Caminho_1584" data-name="Caminho 1584" d="M326.139,230.569a.558.558,0,0,0,0,1.116A.558.558,0,0,0,326.139,230.569Z" transform="translate(-306.967 -229.472)" fill="#223659"/>
          <path id="Caminho_1585" data-name="Caminho 1585" d="M325.812,236.417a.227.227,0,0,0,0,.455A.227.227,0,0,0,325.812,236.417Z" transform="translate(-306.964 -231.752)" fill="#223659"/>
          <path id="Caminho_1586" data-name="Caminho 1586" d="M300.146,239.35a.492.492,0,0,0,0,.984A.492.492,0,0,0,300.146,239.35Z" transform="translate(-296.86 -232.895)" fill="#223659"/>
          <path id="Caminho_1587" data-name="Caminho 1587" d="M295.495,235.22a.446.446,0,0,0,0,.891A.446.446,0,0,0,295.495,235.22Z" transform="translate(-295.064 -231.285)" fill="#223659"/>
          <path id="Caminho_1588" data-name="Caminho 1588" d="M307.441,240.753a.129.129,0,0,0,0,.258A.129.129,0,0,0,307.441,240.753Z" transform="translate(-299.84 -233.442)" fill="#223659"/>
          <path id="Caminho_1589" data-name="Caminho 1589" d="M312.864,239.389a.234.234,0,0,0,0,.468A.234.234,0,0,0,312.864,239.389Z" transform="translate(-301.915 -232.911)" fill="#223659"/>
        </g>
        <path id="Caminho_1590" data-name="Caminho 1590" d="M311.925,255.083c2.9,10.7,6.119,21.961,29.176,21.961s26.374-14.584,28.21-23.608c1.222-6.008-.541-12.263-6.74-9.346-5.111,2.405-12.855-2.775-21.471-2.917-8.135-.137-15.586,4.55-21.59,1.97C312.386,240.083,310.319,249.162,311.925,255.083Z" transform="translate(-257.536 -161.696)" fill="#fff"/>
        <path id="Caminho_1590_-_Contorno" data-name="Caminho 1590 - Contorno" d="M340.719,239.94c.124,0,.248,0,.372,0A42.677,42.677,0,0,1,352.024,242a29.7,29.7,0,0,0,7.369,1.5,6.09,6.09,0,0,0,2.638-.522,7.99,7.99,0,0,1,3.361-.854,4.68,4.68,0,0,1,3.737,1.764,8.429,8.429,0,0,1,1.63,4.417,17.586,17.586,0,0,1-.3,5.343,56.433,56.433,0,0,1-1.984,7.656,25.97,25.97,0,0,1-4.414,8.057,22.249,22.249,0,0,1-8.646,6.342,37.049,37.049,0,0,1-14.342,2.514,44.156,44.156,0,0,1-14.265-1.991,21.581,21.581,0,0,1-8.741-5.34c-4.325-4.436-5.92-10.323-7.328-15.517a17.066,17.066,0,0,1-.456-6.168,11.182,11.182,0,0,1,1.99-5.581,5.574,5.574,0,0,1,4.544-2.319h0a8,8,0,0,1,3.139.711,9.017,9.017,0,0,0,3.621.679,33.4,33.4,0,0,0,7.408-1.235A41.343,41.343,0,0,1,340.719,239.94Zm18.674,5.957a31.193,31.193,0,0,1-8.024-1.586,40.2,40.2,0,0,0-10.317-1.967l-.332,0a39.512,39.512,0,0,0-9.175,1.448,35.037,35.037,0,0,1-7.968,1.3,11.361,11.361,0,0,1-4.569-.874,5.644,5.644,0,0,0-2.192-.516h0a3.174,3.174,0,0,0-2.638,1.377c-1.576,2.06-2.059,6.214-1.124,9.662a63.224,63.224,0,0,0,2.488,7.8,20.859,20.859,0,0,0,4.241,6.672,19.242,19.242,0,0,0,7.8,4.743,42.433,42.433,0,0,0,13.491,1.863,34.694,34.694,0,0,0,13.411-2.326,19.874,19.874,0,0,0,7.726-5.658c3.866-4.684,5.088-10.689,5.9-14.663.667-3.278.339-6.326-.835-7.763a2.292,2.292,0,0,0-1.878-.883,5.655,5.655,0,0,0-2.339.625A8.424,8.424,0,0,1,359.393,245.9Z" transform="translate(-257.506 -161.666)" fill="#223659"/>
        <path id="Linha_1" data-name="Linha 1" d="M54.738,1.17H-.03a1.2,1.2,0,0,1-1.2-1.2,1.2,1.2,0,0,1,1.2-1.2H54.738a1.2,1.2,0,0,1,1.2,1.2A1.2,1.2,0,0,1,54.738,1.17Z" transform="translate(55.307 96.58)" fill="#223659"/>
        <g id="Grupo_872" data-name="Grupo 872" transform="translate(58.097 87.323)">
          <path id="Caminho_1591" data-name="Caminho 1591" d="M318.331,263.26l.751-9.227.751,9.227Z" transform="translate(-318.331 -254.032)" fill="#223659"/>
        </g>
        <g id="Grupo_873" data-name="Grupo 873" transform="translate(65.976 87.909)">
          <path id="Caminho_1592" data-name="Caminho 1592" d="M331.243,263.634l.751-8.641.751,8.641Z" transform="translate(-331.243 -254.993)" fill="#223659"/>
        </g>
        <g id="Grupo_874" data-name="Grupo 874" transform="translate(63.588 96.55)">
          <path id="Caminho_1593" data-name="Caminho 1593" d="M328.831,269.154l-.751,11.17-.751-11.17Z" transform="translate(-327.33 -269.154)" fill="#223659"/>
        </g>
        <g id="Grupo_875" data-name="Grupo 875" transform="translate(102.08 87.909)">
          <path id="Caminho_1594" data-name="Caminho 1594" d="M390.412,263.634l.75-8.641.75,8.641Z" transform="translate(-390.412 -254.993)" fill="#223659"/>
        </g>
        <g id="Grupo_876" data-name="Grupo 876" transform="translate(103.625 96.55)">
          <path id="Caminho_1595" data-name="Caminho 1595" d="M394.443,269.154l-.751,8.422-.75-8.422Z" transform="translate(-392.942 -269.154)" fill="#223659"/>
        </g>
      </g>
    </g>
  </g>
</svg>
